<svg xmlns="http://www.w3.org/2000/svg" width="140" height="40" fill="currentColor" viewBox="0 0 140 40">
  <path fill="#A7A7A0" d="M58.88 11a11.592 11.592 0 0 1-6.262 7.835c1.403.286 2.831.43 4.263.429a20.073 20.073 0 0 0 3.517-.296c-.054.181-.007.29-.3.391a19.39 19.39 0 0 1-2.099.627c-.28.048-.537.181-.738.381-.123.102-.287.248-.407.333l2.693.375c.342.05.43.117.384.35h-3.488a3.036 3.036 0 0 0-1.34.225 6.25 6.25 0 0 1-2.032.351A9.645 9.645 0 0 1 55.374 29l-6.564-8.521c-.512-.662-.722-.813-1.649-1.017L46 19.208l.61-.15c.297-.074.324-.124.517-.312a2.79 2.79 0 0 1 1.934-.778c.464 0 .593.128 1.08-.248l8.74-6.72Zm-6.136 8.763c-1.563-.171-2.752-.133-3.679.15a5.751 5.751 0 0 0 3.947 1.56 5.75 5.75 0 0 0 3.678-1.32c-1.343-.003-2.51-.24-3.946-.39Zm-4.039-1.192a.433.433 0 1 0 .169.85.433.433 0 0 0-.169-.85Zm44.428.802c-.41 1.5-1.698 2.559-2.778 2.559-1.154 0-1.35-.75-1.35-1.23 1.119-.213 2.827-.683 2.827-2.006 0-.607-.378-1.177-1.411-1.177-1.475 0-2.4 1.31-2.643 2.4-.516 1.15-1.583 2.013-2.579 2.013-1.153 0-1.35-.75-1.35-1.23 1.12-.213 2.828-.683 2.828-2.006 0-.607-.378-1.177-1.412-1.177-1.473 0-2.4 1.308-2.643 2.4-.514 1.155-1.584 2.02-2.583 2.02-1.152 0-1.35-.75-1.35-1.23 1.134-.22 2.841-.69 2.841-2.012 0-.608-.378-1.178-1.411-1.178-1.65 0-2.61 1.635-2.7 2.77-.21.034-.421.052-.633.054-.779 0-.684-.592-.561-1.22.175-.9-.31-1.604-1.254-1.604-1.08 0-1.877 1.067-2.32 2.123.25-1.29.034-2.081-1.519-2.081-.71 0-1.52.222-2.392.566l.316-1.63c.392-2.011.918-2.434 1.577-2.434.52 0 .867.31 1.287.855l.226-1.17a2.95 2.95 0 0 0-1.543-.423c-1.551 0-2.585 1.128-3.017 3.342l-.405 2.092c-1.414.563-3.211 1.145-6.039 1.274l-.13.673c2.767-.107 4.59-.633 6.018-1.172l-.771 3.97c-.38 1.95-.888 2.436-1.57 2.436-.632 0-1.013-.503-1.288-.855-.037.197-.226 1.17-.226 1.17.476.283 1.022.43 1.576.423 1.43 0 2.528-1.037 2.976-3.342l.861-4.432c.867-.357 1.773-.644 2.226-.644.73 0 .864.249.675 1.237l-.616 3.15h1.357l.278-1.406c.21-1.082.954-2.636 1.91-2.636.482 0 .587.367.497.83-.234 1.2.479 1.51 1.32 1.51.396.005.792-.019 1.184-.072.05.729.636 1.915 2.24 1.915 1.2 0 2.231-.768 2.933-1.755.12.731.73 1.755 2.222 1.755 1.2 0 2.229-.766 2.93-1.75.122.729.733 1.75 2.22 1.75 1.687 0 3.142-1.483 3.707-3.3l-.538-.115Zm-2.765-1.2c.227 0 .468.15.468.564 0 .777-1.012 1.176-1.8 1.35.003-.663.695-1.918 1.332-1.918v.004Zm-5.15 0c.226 0 .467.15.467.564 0 .777-1.012 1.176-1.8 1.35.003-.663.695-1.918 1.332-1.918v.004Zm-5.155 0c.227 0 .467.15.467.564 0 .777-1.011 1.176-1.8 1.35.003-.663.7-1.918 1.333-1.918v.004Z"/>
</svg>
