<svg xmlns="http://www.w3.org/2000/svg" width="140" height="40" fill="currentColor" viewBox="0 0 140 40">
  <g clip-path="url(#a)">
    <path fill="#A7A7A0" d="M58.736 12.425h-12.27c-.555 0-1.017.459-1.017 1.01v12.13c0 .551.462 1.01 1.017 1.01h12.27c.554 0 1.016-.459 1.016-1.01v-12.13c0-.574-.462-1.01-1.016-1.01ZM54.415 23.06c-1.248 1.24-3.235 1.286-4.552.16l-.023-.022a.214.214 0 0 1 0-.3l4.436-4.387a.244.244 0 0 1 .3 0c1.156 1.333 1.11 3.308-.161 4.549Zm.924-7.007-4.436 4.388a.244.244 0 0 1-.3 0 3.293 3.293 0 0 1 .138-4.526c1.248-1.24 3.235-1.286 4.552-.16 0 0 .023 0 .023.022.115.07.115.207.023.276Z"/>
    <path fill="#A7A7A0" fill-rule="evenodd" d="M65.99 18.81c-.623-.252-1.016-.413-1.016-.78 0-.299.231-.575.763-.575.323 0 .6.138.808.414.139.16.278.253.44.253a.566.566 0 0 0 .577-.552c0-.114-.023-.23-.092-.298-.347-.529-1.063-.896-1.733-.896-.925 0-1.872.574-1.872 1.677 0 1.125.924 1.493 1.687 1.769.6.23 1.132.436 1.132.919 0 .367-.347.735-.994.735-.208 0-.577-.046-.831-.345-.14-.16-.3-.23-.44-.23-.3 0-.577.253-.577.552 0 .114.046.23.115.321.347.529 1.133.781 1.733.781 1.017 0 2.126-.643 2.126-1.814-.023-1.241-1.017-1.631-1.825-1.93Zm22.923-2.457h-.023c-1.11 0-1.987.873-1.987 1.952v6.8a.56.56 0 0 0 .554.552.56.56 0 0 0 .555-.552V22.28c.208.183.554.275.878.275h.023c1.109 0 1.94-.942 1.94-2.021V18.26c0-1.08-.831-1.907-1.94-1.907Zm.878 4.227c0 .597-.393.85-.855.85h-.023c-.485 0-.855-.253-.855-.85v-2.274c0-.46.393-.85.855-.85h.023c.485 0 .855.367.855.85v2.274Zm-11.115-4.227h-.023c-.554 0-1.04.23-1.386.574a2.001 2.001 0 0 0-1.386-.574h-.024c-1.063 0-1.94.85-1.94 1.93v3.744a.556.556 0 0 0 .554.528c.3 0 .531-.23.554-.528v-3.745c0-.459.37-.826.832-.826h.023a.82.82 0 0 1 .832.803v3.768c.028.271.22.528.532.528.3 0 .531-.23.554-.528v-3.79a.853.853 0 0 1 .832-.804h.023c.462 0 .832.367.832.826v3.768a.556.556 0 0 0 .555.528c.3 0 .531-.23.554-.528v-3.745c.023-1.056-.855-1.93-1.918-1.93Zm-6.562 0c-.3 0-.531.23-.555.528v3.745c0 .46-.37.827-.854.827h-.024c-.462 0-.855-.368-.855-.827v-3.768a.556.556 0 0 0-.554-.528c-.3 0-.532.23-.555.528v3.745c0 1.056.878 1.93 1.964 1.93h.024c1.086 0 1.964-.874 1.964-1.93V16.88a.541.541 0 0 0-.555-.528Zm13.125 0c-.3 0-.532.23-.555.528v3.745c0 .46-.37.827-.855.827h-.023c-.462 0-.855-.368-.855-.827v-3.768a.556.556 0 0 0-.554-.528c-.3 0-.532.23-.555.528v3.745c0 1.056.878 1.93 1.964 1.93h.023c1.086 0 1.964-.874 1.964-1.93V16.88a.556.556 0 0 0-.554-.528Z" clip-rule="evenodd"/>
    <path fill="#A7A7A0" d="M93.558 17.501a.273.273 0 0 0 .23-.275c0-.184-.138-.299-.346-.299h-.277c-.07 0-.116.046-.116.115v.758c0 .069.046.115.116.115s.115-.046.115-.115v-.276l.278.345c.023.046.046.046.115.046.093 0 .116-.069.116-.115s-.023-.069-.046-.092l-.185-.207Zm-.093-.16h-.138v-.23h.138c.07 0 .116.046.116.115 0 .046-.046.115-.116.115Zm-.023-.988c-.6 0-1.109.482-1.109 1.102 0 .598.485 1.103 1.11 1.103.6 0 1.108-.482 1.108-1.102 0-.598-.485-1.103-1.109-1.103Zm0 1.93a.826.826 0 1 1 0-1.655.826.826 0 1 1 0 1.654Z"/>
  </g>
  <defs>
    <clipPath id="a">
      <path fill="#fff" d="M45 12h50v15H45z"/>
    </clipPath>
  </defs>
</svg>
