<svg xmlns="http://www.w3.org/2000/svg" width="140" height="40" fill="currentColor" viewBox="0 0 140 40">
  <path fill="#A7A7A0" d="M53.313 12.5c3.873 0 7 3.127 7 7s-3.127 7-7 7a6.99 6.99 0 0 1-7-7c0-3.873 3.126-7 7-7Zm0 1.866a5.12 5.12 0 0 0-5.134 5.134 5.12 5.12 0 0 0 5.133 5.134 5.119 5.119 0 0 0 5.133-5.134 5.119 5.119 0 0 0-5.133-5.134Zm11.899.887c.093-.047.187.047.187.094v2.007h3.733c.046 0 .14.092.14.14l.28 1.166.28 1.167.047.14.047-.14.7-2.334c0-.093.093-.14.14-.14h1.866c.046 0 .14.093.14.14l.747 2.474.046-.14.607-2.334c0-.093.094-.14.14-.14h4.76c.047 0 .094.093.094.14V23.7c0 .093-.094.14-.14.14h-2.38c-.094 0-.14-.093-.14-.14v-5.88l-1.774 5.88c0 .093-.094.14-.14.14h-1.96c-.047 0-.14-.093-.14-.14l-.373-1.26-.42-1.353-.84 2.613c0 .093-.094.14-.14.14h-1.96c-.047 0-.14-.093-.14-.14l-1.773-5.88v1.494c0 .092-.093.139-.14.14h-1.353v1.586c0 .467.233.653.653.653.186 0 .42-.046.653-.14.047-.046.14 0 .14.093v1.868c-.42.233-1.027.373-1.68.373-1.54 0-2.38-.7-2.38-2.24v-2.194h-.607c-.093 0-.14-.093-.14-.14V17.54c0-.093.093-.14.14-.14h.607v-1.26c0-.093.047-.14.14-.14l2.333-.747Zm24.08 1.96c2.053 0 3.547 1.54 3.547 3.313 0 1.774-1.494 3.314-3.594 3.314-2.053 0-3.546-1.54-3.546-3.314 0-1.773 1.493-3.313 3.593-3.313Zm-7.093-1.96c.093 0 .14.047.14.094v8.306c0 .094-.093.14-.14.14h-2.38c-.093 0-.14-.093-.14-.14v-8.26c0-.093.094-.14.14-.14h2.38Zm3.126 2.1c.093 0 .14.093.14.14v6.113c0 .094-.093.141-.14.141h-2.38c-.093 0-.14-.094-.14-.14v-6.114c0-.093.094-.14.14-.14h2.38Zm-33.74 2.427c.794 0 1.447.653 1.447 1.447 0 .793-.653 1.446-1.446 1.446a1.454 1.454 0 0 1-1.447-1.446c0-.794.654-1.447 1.447-1.447Zm3.454 0c.793 0 1.446.653 1.446 1.447 0 .793-.653 1.446-1.446 1.446a1.454 1.454 0 0 1-1.447-1.446c0-.794.654-1.447 1.447-1.447Zm34.253-.327c-.606 0-1.026.514-1.026 1.12 0 .607.466 1.12 1.026 1.12.607 0 1.027-.513 1.027-1.12 0-.653-.467-1.166-1.027-1.12Zm-37.706-3.126c.793 0 1.446.653 1.446 1.446 0 .794-.653 1.447-1.446 1.447a1.454 1.454 0 0 1-1.447-1.447c0-.793.654-1.446 1.447-1.446Zm3.453 0c.793 0 1.446.653 1.446 1.446 0 .794-.653 1.447-1.446 1.447a1.454 1.454 0 0 1-1.447-1.447c0-.793.654-1.446 1.447-1.446Zm24.08-1.074c.047 0 .093.047.14.094v1.493c0 .093-.093.14-.14.14h-2.474c-.093 0-.14-.093-.14-.14v-1.446c0-.094.094-.141.14-.141h2.474Zm6.253 0c.093 0 .14.047.14.094v1.493c0 .093-.093.14-.14.14H82.9c-.093 0-.14-.093-.14-.14v-1.446c0-.094.094-.141.14-.141h2.473Z"/>
</svg>
