<svg width="30" height="30" viewBox="0 0 30 30" fill="none" xmlns="http://www.w3.org/2000/svg">
<path d="M24.125 2.62503C24.2096 2.68368 24.2942 2.74233 24.3813 2.80276C26.3013 4.28745 27.4445 6.76334 27.75 9.12502C27.9854 11.8298 27.3221 14.4059 25.6347 16.5562C24.566 17.8037 23.2501 18.8433 21.9633 19.857C21.524 20.205 21.0904 20.5598 20.6562 20.9141C19.9521 21.4876 19.2429 22.0539 18.5274 22.6132C17.9945 23.0302 17.4653 23.4516 16.9375 23.875C15.975 24.6468 15.005 25.4087 14.0338 26.1693C13.8167 26.3394 13.5997 26.5095 13.3828 26.6797C13.2758 26.7635 13.2758 26.7635 13.1666 26.849C12.778 27.154 12.3919 27.4617 12.0083 27.773C11.926 27.8395 11.8437 27.9061 11.759 27.9747C11.6024 28.1015 11.4462 28.2288 11.2905 28.3567C9.9157 29.4697 9.9157 29.4697 9.24996 29.5391C9.16746 29.5262 9.08496 29.5133 8.99996 29.5C9.02907 28.3913 9.4754 27.4998 9.93746 26.5156C10.0516 26.2686 10.1652 26.0214 10.2788 25.7742C10.3814 25.5516 10.4849 25.3296 10.5886 25.1075C10.7564 24.752 10.7564 24.752 10.875 24.375C10.1484 24.7084 9.58415 25.0757 8.99215 25.6094C8.91243 25.6797 8.83271 25.75 8.75057 25.8224C8.24783 26.2685 7.75714 26.7266 7.26916 27.1888C5.53542 28.8305 5.53542 28.8305 4.74996 29.25C4.62621 29.2088 4.50246 29.1675 4.37496 29.125C4.43887 28.4341 4.56372 27.8888 4.84127 27.2456C4.87538 27.1655 4.9095 27.0853 4.94464 27.0028C5.05304 26.7487 5.16314 26.4955 5.2734 26.2422C5.55876 25.5788 5.8428 24.9148 6.12496 24.25C6.16144 24.1642 6.19792 24.0784 6.2355 23.99C6.34268 23.7362 6.44817 23.4818 6.55318 23.2271C6.61511 23.0783 6.67703 22.9295 6.74084 22.7762C6.86602 22.4018 6.90522 22.14 6.87496 21.75C5.75756 22.6593 4.81009 23.7284 3.91402 24.8516C3.45894 25.4153 2.98353 25.9716 2.37496 26.375C2.25121 26.375 2.12746 26.375 1.99996 26.375C1.94938 25.6116 2.12336 25.0346 2.3857 24.3218C2.4267 24.207 2.4677 24.0922 2.50994 23.9739C2.64593 23.5941 2.78387 23.215 2.92184 22.836C3.01875 22.5666 3.11554 22.2971 3.21221 22.0276C3.41431 21.465 3.61723 20.9027 3.82082 20.3406C4.10858 19.546 4.39417 18.7507 4.67916 17.9551C5.09385 16.798 5.51107 15.6417 5.92935 14.4859C6.24505 13.6125 6.55772 12.738 6.86889 11.8629C7.09151 11.2372 7.3158 10.612 7.54013 9.98681C7.64729 9.68727 7.75387 9.38751 7.85984 9.08755C8.62649 6.91877 9.35917 5.03981 11 3.37503C11.0688 3.2972 11.1376 3.21937 11.2085 3.13919C14.591 -0.57748 20.3739 -0.0183234 24.125 2.62503Z" fill="#00ACE2"/>
<path d="M22.375 3.62498C22.8242 3.97103 23.2263 4.34729 23.625 4.74998C23.7123 4.83313 23.7996 4.91627 23.8896 5.00193C24.4425 5.56556 24.8164 6.17659 25.1719 6.87498C25.2136 6.95652 25.2554 7.03807 25.2984 7.12208C26.0987 8.77604 26.1755 11.0257 25.6362 12.7729C24.6862 15.228 23.1588 16.8023 20.75 17.875C18.7243 18.6729 16.636 18.511 14.6357 17.7334C12.5654 16.7655 11.0397 14.9745 10.2248 12.8619C9.66153 11.1476 9.73884 8.89081 10.5 7.24998C10.553 7.13332 10.606 7.01666 10.6606 6.89647C11.7144 4.79479 13.3947 3.41605 15.5859 2.62938C17.8758 1.93924 20.3637 2.36795 22.375 3.62498Z" fill="#0274C3"/>
<path d="M22.375 3.62498C22.8242 3.97103 23.2263 4.34729 23.625 4.74998C23.7123 4.83313 23.7996 4.91627 23.8896 5.00193C24.4425 5.56556 24.8164 6.17659 25.1719 6.87498C25.2136 6.95652 25.2554 7.03807 25.2984 7.12208C26.0987 8.77604 26.1755 11.0257 25.6362 12.7729C24.6862 15.228 23.1588 16.8023 20.75 17.875C18.7243 18.6729 16.636 18.511 14.6357 17.7334C12.5654 16.7655 11.0397 14.9745 10.2248 12.8619C9.66153 11.1476 9.73884 8.89081 10.5 7.24998C10.553 7.13332 10.606 7.01666 10.6606 6.89647C11.7144 4.79479 13.3947 3.41605 15.5859 2.62938C17.8758 1.93924 20.3637 2.36795 22.375 3.62498ZM13.268 6.41307C12.1845 7.7749 11.7088 9.39937 11.875 11.125C12.2253 12.9742 13.1185 14.3589 14.625 15.5C16.1158 16.4375 17.801 16.6062 19.5156 16.2422C21.1762 15.7683 22.4952 14.7203 23.3349 13.2197C24.0766 11.6706 24.2257 10.1426 23.7534 8.48826C23.2296 7.00658 22.2491 5.78389 20.8769 4.99461C20.4322 4.78344 19.9717 4.63769 19.5 4.49998C19.3762 4.45873 19.2525 4.41748 19.125 4.37498C16.7506 4.16505 14.9522 4.6729 13.268 6.41307Z" fill="#FAFDFE"/>
<path d="M20.6562 6.45304C21.4366 7.0865 22.0453 8.01123 22.1757 9.01602C22.2059 10.1214 22.025 10.9641 21.3749 11.8749C20.8299 12.3549 20.5122 12.5418 19.7741 12.5312C19.3092 12.4782 18.9388 12.2826 18.5312 12.0624C18.445 12.0174 18.3588 11.9724 18.27 11.926C15.4247 10.4109 15.4247 10.4109 14.8749 9.12491C14.7543 8.37091 15.0045 7.91168 15.4033 7.29581C16.0106 6.48518 16.7157 6.0562 17.6874 5.78897C18.7677 5.65394 19.7515 5.83027 20.6562 6.45304Z" fill="#FCFDFE"/>
</svg>
