<svg width="200" height="89" viewBox="0 0 200 89" fill="none" xmlns="http://www.w3.org/2000/svg">
<path d="M88.3295 15.5795C94.0043 15.5795 96.1098 12.0962 96.1098 7.78976C96.1098 3.48331 94.0143 0 88.3295 0C82.6448 0 80.5493 3.48331 80.5493 7.78976C80.5493 12.0962 82.6448 15.5795 88.3295 15.5795Z" fill="black"/>
<path d="M23.6114 0.0100098H0V72.3162H23.6114C52.7772 72.3162 61.1089 55.6325 61.1089 36.1581C61.1089 16.6837 52.7772 0.0100098 23.6114 0.0100098ZM23.8921 61.1938H13.3347V11.1325H23.8921C40.6657 11.1325 47.7842 19.374 47.7842 36.1581C47.7842 52.9422 40.6657 61.1837 23.8921 61.1837V61.1938Z" fill="black"/>
<path d="M115.55 17.2559V22.265H102.777V33.3875H115.55V61.2038H94.4354V22.255H66.6632V33.3775H82.2137V61.1938H63.876V72.3162H147.203V61.1938H127.762V33.3775H147.203V22.255H127.762V11.1325H147.203V0.0100098H132.755C123.26 0.0100098 115.53 7.74958 115.53 17.2559H115.55Z" fill="black"/>
<path d="M186.806 22.255L175.697 58.4131L164.588 22.255H151.394L167.505 69.0237C169.18 73.8923 166.342 77.8775 161.199 77.8775H155.554V89H163.856C171.095 89 177.612 84.4125 180.058 77.5964L200 22.255H186.806Z" fill="black"/>
</svg>
