<svg width="18" height="18" viewBox="0 0 18 18" fill="none" xmlns="http://www.w3.org/2000/svg">
<g clip-path="url(#clip0_4680_25450)">
<path d="M16.608 7.30794C16.5642 7.27139 16.1694 6.97169 15.3215 6.97169C15.1021 6.97169 14.8755 6.99362 14.6563 7.03016C14.4954 5.9117 13.567 5.37078 13.5305 5.34154L13.3039 5.20996L13.1577 5.42195C12.9749 5.70703 12.836 6.02869 12.7556 6.35763C12.6021 6.99362 12.6971 7.59305 13.0188 8.10474C12.6313 8.32406 12.0027 8.37523 11.8711 8.38254H1.49073C1.22026 8.38254 1.00095 8.60184 1.00095 8.8723C0.986334 9.77878 1.13985 10.6852 1.45418 11.5405C1.81238 12.4762 2.34601 13.1707 3.03316 13.5947C3.80804 14.0698 5.07269 14.3403 6.49816 14.3403C7.14146 14.3403 7.78472 14.2818 8.42071 14.1648C9.30526 14.004 10.1532 13.697 10.9354 13.2511C11.5787 12.8783 12.1562 12.4031 12.646 11.8475C13.472 10.9191 13.9618 9.88111 14.32 8.96002C14.3711 8.96002 14.415 8.96002 14.4662 8.96002C15.3653 8.96002 15.9209 8.60184 16.2279 8.29482C16.4326 8.10474 16.5861 7.87082 16.6957 7.60767L16.7615 7.41758L16.608 7.30794Z" fill="#0091E2"/>
<path d="M2.45581 8.08306H3.84473C3.91053 8.08306 3.969 8.03189 3.969 7.95879V6.71606C3.969 6.65028 3.91784 6.5918 3.84473 6.5918H2.45581C2.39002 6.5918 2.33154 6.64297 2.33154 6.71606V7.95879C2.33885 8.03189 2.39002 8.08306 2.45581 8.08306Z" fill="#0091E2"/>
<path d="M4.37085 8.08306H5.75977C5.82556 8.08306 5.88404 8.03189 5.88404 7.95879V6.71606C5.88404 6.65028 5.83287 6.5918 5.75977 6.5918H4.37085C4.30506 6.5918 4.24658 6.64297 4.24658 6.71606V7.95879C4.25389 8.03189 4.30506 8.08306 4.37085 8.08306Z" fill="#0091E2"/>
<path d="M6.323 8.08306H7.71192C7.77771 8.08306 7.83619 8.03189 7.83619 7.95879V6.71606C7.83619 6.65028 7.78502 6.5918 7.71192 6.5918H6.323C6.25721 6.5918 6.19873 6.64297 6.19873 6.71606V7.95879C6.19873 8.03189 6.2499 8.08306 6.323 8.08306Z" fill="#0091E2"/>
<path d="M8.24539 8.08306H9.63429C9.70007 8.08306 9.75858 8.03189 9.75858 7.95879V6.71606C9.75858 6.65028 9.70738 6.5918 9.63429 6.5918H8.24539C8.17957 6.5918 8.12109 6.64297 8.12109 6.71606V7.95879C8.12109 8.03189 8.17957 8.08306 8.24539 8.08306Z" fill="#0091E2"/>
<path d="M4.37085 6.30671H5.75977C5.82556 6.30671 5.88404 6.2482 5.88404 6.18241V4.9397C5.88404 4.87391 5.83287 4.81543 5.75977 4.81543H4.37085C4.30506 4.81543 4.24658 4.8666 4.24658 4.9397V6.18241C4.25389 6.2482 4.30506 6.30671 4.37085 6.30671Z" fill="#0091E2"/>
<path d="M6.323 6.30671H7.71192C7.77771 6.30671 7.83619 6.2482 7.83619 6.18241V4.9397C7.83619 4.87391 7.78502 4.81543 7.71192 4.81543H6.323C6.25721 4.81543 6.19873 4.8666 6.19873 4.9397V6.18241C6.19873 6.2482 6.2499 6.30671 6.323 6.30671Z" fill="#0091E2"/>
<path d="M8.24539 6.30671H9.63429C9.70007 6.30671 9.75858 6.2482 9.75858 6.18241V4.9397C9.75858 4.87391 9.70007 4.81543 9.63429 4.81543H8.24539C8.17957 4.81543 8.12109 4.8666 8.12109 4.9397V6.18241C8.12109 6.2482 8.17957 6.30671 8.24539 6.30671Z" fill="#0091E2"/>
<path d="M8.24539 4.52349H9.63429C9.70007 4.52349 9.75858 4.47232 9.75858 4.39922V3.1565C9.75858 3.09071 9.70007 3.03223 9.63429 3.03223H8.24539C8.17957 3.03223 8.12109 3.0834 8.12109 3.1565V4.39922C8.12109 4.46501 8.17957 4.52349 8.24539 4.52349Z" fill="#0091E2"/>
<path d="M10.1824 8.08306H11.5713C11.6371 8.08306 11.6956 8.03189 11.6956 7.95879V6.71606C11.6956 6.65028 11.6444 6.5918 11.5713 6.5918H10.1824C10.1166 6.5918 10.0581 6.64297 10.0581 6.71606V7.95879C10.0654 8.03189 10.1166 8.08306 10.1824 8.08306Z" fill="#0091E2"/>
</g>
<defs>
<clipPath id="clip0_4680_25450">
<rect width="16" height="11.6078" fill="white" transform="translate(1 3)"/>
</clipPath>
</defs>
</svg>
