<svg width="18" height="18" viewBox="0 0 18 18" fill="none" xmlns="http://www.w3.org/2000/svg">
<g clip-path="url(#clip0_4682_25475)">
<path d="M11.2667 6.29278H11.7112L12.9778 5.02611L13.0401 4.48833C12.3144 3.84787 11.4375 3.40296 10.4921 3.19563C9.54674 2.98831 8.56411 3.02541 7.63706 3.30344C6.71 3.58147 5.86913 4.09124 5.19387 4.7846C4.5186 5.47797 4.03125 6.33203 3.77783 7.26611C3.91894 7.20827 4.07526 7.19889 4.22228 7.23944L6.75561 6.82167C6.75561 6.82167 6.8845 6.60833 6.95117 6.62166C7.49398 6.02552 8.24413 5.6594 9.04806 5.59826C9.85199 5.53711 10.6489 5.78558 11.2756 6.29278H11.2667Z" fill="#EA4335"/>
<path d="M14.7821 7.2665C14.491 6.19433 13.8932 5.23047 13.0621 4.49316L11.2844 6.27094C11.6549 6.57368 11.9518 6.9566 12.1527 7.39083C12.3537 7.82505 12.4534 8.29923 12.4444 8.77761V9.09316C12.6521 9.09316 12.8579 9.13409 13.0498 9.2136C13.2418 9.29312 13.4162 9.40966 13.5632 9.55659C13.7101 9.70351 13.8266 9.87793 13.9061 10.0699C13.9857 10.2619 14.0266 10.4676 14.0266 10.6754C14.0266 10.8832 13.9857 11.0889 13.9061 11.2809C13.8266 11.4728 13.7101 11.6473 13.5632 11.7942C13.4162 11.9411 13.2418 12.0577 13.0498 12.1372C12.8579 12.2167 12.6521 12.2576 12.4444 12.2576H9.27991L8.96436 12.5776V14.4754L9.27991 14.7909H12.4444C13.328 14.7978 14.1904 14.5201 14.904 13.9988C15.6176 13.4776 16.1444 12.7405 16.4066 11.8966C16.6688 11.0527 16.6524 10.1468 16.3599 9.31298C16.0673 8.47912 15.5141 7.76158 14.7821 7.2665Z" fill="#4285F4"/>
<path d="M6.1114 14.7732H9.27584V12.2399H6.1114C5.88595 12.2398 5.66314 12.1913 5.45806 12.0977L5.01362 12.2354L3.73806 13.5021L3.62695 13.9465C4.34226 14.4867 5.21508 14.7771 6.1114 14.7732Z" fill="#34A853"/>
<path d="M6.11099 6.55569C5.25358 6.56081 4.41917 6.8336 3.72432 7.33596C3.02947 7.83831 2.50887 8.54515 2.23523 9.35774C1.96159 10.1703 1.94858 11.0481 2.19802 11.8684C2.44746 12.6888 2.94689 13.4107 3.62655 13.9335L5.4621 12.0979C5.22884 11.9925 5.02463 11.8321 4.86699 11.6305C4.70935 11.4288 4.60299 11.1919 4.55703 10.9401C4.51108 10.6883 4.5269 10.4291 4.60313 10.1848C4.67937 9.94042 4.81375 9.71821 4.99474 9.53722C5.17574 9.35623 5.39794 9.22185 5.64228 9.14561C5.88663 9.06937 6.14582 9.05355 6.39763 9.09951C6.64943 9.14547 6.88632 9.25183 7.08798 9.40947C7.28964 9.56711 7.45005 9.77132 7.55544 10.0046L9.39099 8.16902C9.00573 7.66536 8.50917 7.25765 7.94016 6.97777C7.37115 6.69789 6.74511 6.55343 6.11099 6.55569Z" fill="#FBBC05"/>
</g>
<defs>
<clipPath id="clip0_4682_25475">
<rect width="14.6667" height="12" fill="white" transform="translate(2 3)"/>
</clipPath>
</defs>
</svg>
