<svg xmlns="http://www.w3.org/2000/svg" version="1.1" xmlns:xlink="http://www.w3.org/1999/xlink" width="1000" height="1000"><g clip-path="url(#SvgjsClipPath1208)"><rect width="1000" height="1000" fill="#ffffff"></rect><g transform="matrix(10.75268817204301,0,0,10.75268817204301,5.684341886080802e-14,398.7096774193548)"><svg xmlns="http://www.w3.org/2000/svg" version="1.1" xmlns:xlink="http://www.w3.org/1999/xlink" width="93" height="18.84"><svg xmlns="http://www.w3.org/2000/svg" viewBox="0 0 93 18.84"><g id="Слой_2" data-name="Слой 2"><g id="Слой_1-2" data-name="Слой 1"><path d="M88.46,4.58,84.52,9.47l-2.1-4.89H78.11a8.16,8.16,0,0,0-3.57-.69c-3,0-6.2,1.3-6.73,4.32-.63,3.54,1.92,4.33,5,4.62,1.54.14,2.28.59,2.15,1.3s-1.14,1.27-2.46,1.27a4.85,4.85,0,0,1-3.89-1.61l-2.67,2.54c1.61,2.08,3.36,2.53,5.93,2.51,3.2,0,6.5-1.41,7.08-4.65s-2.18-4.42-5-4.72c-1.38-.14-2.31-.29-2.14-1.26C72,7.45,73,7.15,74,7.15a4.64,4.64,0,0,1,3.17,1l1.55-1.61,3.11,6.65-1,5.68h4l1-5.68L93,4.76l0-.18Z"></path><path d="M10,14a.34.34,0,0,1,0-.11c.16-.68.33-1.35.49-2,.21-.86.42-1.72.64-2.58a.2.2,0,0,1,.11-.11L12.55,9c.5,0,1-.1,1.5-.13.77,0,1.53-.08,2.3-.09h2.12l1.1-4.35h-.4l-1.86.12c-.53,0-1.06.07-1.59.13s-1.15.13-1.71.21-1.29.18-1.92.3c-1,.19-1.94.39-2.91.62a25,25,0,0,0-5,1.77A9.49,9.49,0,0,0,.94,9.89,3.26,3.26,0,0,0,0,12.61a2.69,2.69,0,0,0,.69,1.46A4.08,4.08,0,0,0,2.11,15,8.67,8.67,0,0,0,4,15.57c.2-.81.39-1.6.59-2.39,0-.12,0-.18-.09-.25a.91.91,0,0,1-.15-1.46,5,5,0,0,1,2-1.2C5.63,13.15,4.92,16,4.2,18.83H8.81c.18-.72.36-1.45.53-2.17.08-.32.16-.65.24-.95.52-.06,1-.11,1.53-.18.66-.1,1.33-.22,2-.35a19,19,0,0,0,3.2-.88c.29-.11.57-.25.85-.37C14.76,14.05,12.39,14.1,10,14Z"></path><path d="M12.23,4.17a.22.22,0,0,0,.21-.2c.32-1.32.64-2.64,1-4H9c-.37,1.51-.76,3-1.14,4.52l-.18.72c.38-.11.74-.22,1.1-.3C9.89,4.67,11.06,4.42,12.23,4.17Z"></path><path d="M64.23,11.34a3.44,3.44,0,0,0,2.06-2.77c.48-2.73-1.62-4-4.47-4h-7.3l-2,11.54L49.36,4.58H45.29L38.5,15.44H30.23l.38-2.16h6.74L37.93,10H31.19l.36-2H38.7l.59-3.38H26.17l1-4.58H22L17.18,18.83h5.88c.15-.72.31-1.44.47-2.16l0-.06L25.43,8h2.68L25.74,18.84H40.66L42,16.5h6.37l.53,2.34H59.37c2.61,0,5.69-1,6.25-4.18A3.1,3.1,0,0,0,64.23,11.34ZM44,13.12,46.6,8.57l1,4.55Zm17.71,1.24a1.6,1.6,0,0,1-1.74,1.34h-3.4L57,13h3.41C61.42,13,61.82,13.58,61.68,14.36ZM62.23,9A1.34,1.34,0,0,1,60.76,10H57.54l.38-2.18h3.26C62,7.84,62.34,8.33,62.23,9Z"></path></g></g></svg></svg></g></g><defs><clipPath id="SvgjsClipPath1208"><rect width="1000" height="1000" x="0" y="0" rx="500" ry="500"></rect></clipPath></defs></svg>