<?xml version="1.0" encoding="UTF-8"?>
<!-- Generated by Pixelmator Pro 3.7 -->
<svg width="19" height="19" viewBox="0 0 19 19" xmlns="http://www.w3.org/2000/svg">
    <clipPath id="clipPath1">
        <path d="M -2 -1 L 109.833 -1 L 109.833 21 L -2 21 Z"/>
    </clipPath>
    <g id="Group" clip-path="url(#clipPath1)">
        <path id="Path" fill="#4469fc" stroke="none" d="M 15.2067 11.9361 C 15.4089 11.59 15.4077 11.1617 15.2035 10.8168 L 11.87541 5.198071 L 9.09451 0.537628 C 8.66506 -0.182064 7.62164 -0.17911 7.19628 0.542999 L 4.807956 4.597469 C 4.604379 4.94306 4.60438 5.37191 4.807957 5.71751 L 7.81188 10.817 C 8.01498 11.1618 8.015491 11.5895 7.81322 11.9348 L 5.44742 15.9731 C 5.01649 16.708599 5.54695 17.634199 6.39946 17.634199 L 11.24236 17.634199 C 11.63442 17.634199 11.99703 17.4261 12.1949 17.0877 L 15.2067 11.9361 Z"/>
    </g>
</svg>
