<svg width="64" height="64" viewBox="0 0 64 64" fill="none" xmlns="http://www.w3.org/2000/svg">
  <!-- Main circle background -->
  <circle cx="32" cy="32" r="32" fill="#2563eb"/>
  
  <!-- Dock/Platform shape -->
  <rect x="12" y="40" width="40" height="8" rx="4" fill="#ffffff"/>
  
  <!-- Language/Chat bubble shape -->
  <path d="M16 20 C16 16, 20 12, 24 12 L40 12 C44 12, 48 16, 48 20 L48 28 C48 32, 44 36, 40 36 L26 36 L20 40 L20 32 C18 32, 16 30, 16 28 Z" fill="#ffffff"/>
  
  <!-- Dots representing language/conversation -->
  <circle cx="26" cy="22" r="2" fill="#2563eb"/>
  <circle cx="32" cy="22" r="2" fill="#2563eb"/>
  <circle cx="38" cy="22" r="2" fill="#2563eb"/>
  
  <!-- Small lines representing text -->
  <rect x="24" y="28" width="16" height="1.5" rx="0.75" fill="#2563eb"/>
  <rect x="24" y="31" width="12" height="1.5" rx="0.75" fill="#2563eb"/>
</svg>