<?xml version="1.0" encoding="UTF-8"?>
<!-- Generated by Pixelmator Pro 3.7 -->
<svg width="214" height="214" viewBox="0 0 214 214" xmlns="http://www.w3.org/2000/svg">
    <path id="Path" fill="#000000" stroke="none" d="M 71.483803 72.235901 C 56.3218 87.39801 31.7393 87.39801 16.5772 72.235901 C 1.4152 57.073898 1.4152 32.491394 16.5772 17.329407 C 31.7393 2.167404 56.3218 2.167404 71.483803 17.329407 C 86.645798 32.491394 86.645798 57.073898 71.483803 72.235901 Z"/>
    <path id="path1" fill="#000000" stroke="none" d="M 196.671005 197.423004 C 181.509003 212.585007 156.925995 212.585007 141.764008 197.423004 C 126.602005 182.261002 126.602005 157.677994 141.764008 142.516006 C 156.925995 127.354004 181.509003 127.354004 196.671005 142.516006 C 211.832993 157.677994 211.832993 182.261002 196.671005 197.423004 Z"/>
    <path id="path2" fill="#000000" fill-rule="evenodd" stroke="none" d="M 130.289001 168.625 L 153.171005 191.507004 L 191.604996 153.072006 L 169.807999 131.274994 C 147.572006 131.110001 125.388 122.544006 108.421997 105.578003 C 91.456001 88.612503 82.890297 66.427704 82.724602 44.191895 L 60.927696 22.394897 L 22.493099 60.829407 L 45.374802 83.711197 C 66.892998 84.390503 88.208801 92.942001 104.633003 109.366997 C 121.057999 125.791 129.610001 147.106995 130.289001 168.625 Z"/>
    <path id="path3" fill="#000000" stroke="none" d="M 82.428596 170.395996 C 82.428596 191.838348 65.046143 209.220795 43.603802 209.220795 C 22.161453 209.220795 4.779 191.838348 4.779 170.395996 C 4.779 148.953659 22.161453 131.571198 43.603802 131.571198 C 65.046143 131.571198 82.428596 148.953659 82.428596 170.395996 Z"/>
    <path id="path4" fill="#000000" stroke="none" d="M 208.220795 44.603806 C 208.220795 66.046143 190.838348 83.428589 169.395996 83.428589 C 147.953659 83.428589 130.571198 66.046143 130.571198 44.603806 C 130.571198 23.161453 147.953659 5.779007 169.395996 5.779007 C 190.838348 5.779007 208.220795 23.161453 208.220795 44.603806 Z"/>
</svg>
