<svg viewBox="0 0 37 30" fill="none" xmlns="http://www.w3.org/2000/svg"><path d="M6.667 22.038C6.687 23.677 8.022 25 9.666 25h2.383c1.545 0 2.72 1.387 2.466 2.911-.201 1.205-1.244 2.089-2.466 2.089h-2.008c-1.466 0-2.718-1.06-2.959-2.507L6.666 25v-2.962zm4.965-22.038c1.371 0 2.554.93 2.895 2.234l.113.531c.34 1.305 1.523 2.235 2.894 2.235h1.598c1.371 0 2.554-.93 2.894-2.234l.114-.531C22.48.93 23.663 0 25.034 0h1.591c1.466 0 2.718 1.06 2.959 2.507l.048.287c.218 1.309 1.27 2.319 2.587 2.484l1.82.227c1.501.188 2.627 1.464 2.627 2.977v13.037c0 1.513-1.126 2.789-2.627 2.976l-1.82.228c-1.316.165-2.369 1.175-2.587 2.484l-.048.287c-.241 1.447-1.493 2.507-2.959 2.507h-2.008c-1.222 0-2.265-.884-2.466-2.089-.254-1.524.921-2.911 2.466-2.911H27c1.657 0 3-1.343 3-3V8c0-1.657-1.343-3-3-3h-2.334c-1.657 0-3 1.343-3 3v9c0 1.657-1.343 3-3 3h-.666c-1.657 0-3-1.343-3-3V8c0-1.657-1.343-3-3-3H9.666C8.01 5 6.666 6.343 6.666 8v17l-4.038-.505C1.127 24.308 0 23.032 0 21.519V8.481c0-1.513 1.127-2.789 2.628-2.976l1.82-.228c1.316-.165 2.368-1.175 2.586-2.484l.048-.287C7.323 1.06 8.575 0 10.041 0h1.591z" fill="#99D52A"/></svg>