<svg viewBox="0 0 512 512" xmlns="http://www.w3.org/2000/svg" class="mr-1 relative top-3 md:top-5 h-16 md:h-28  w-16 md:w-28"><path d="m505.068 478.203-53.167-53.167c-.995-1.917-2.292-3.717-3.9-5.325l-288.335-288.335.003-.001-126.444-126.443c-10.535-10.536-28.55-3.074-28.55 11.826v149.764l1.207-.274-1.207 325.509c0 4.354 1.772 8.195 4.477 10.519 2.325 2.705 6.165 4.477 10.519 4.477l324.079-1.202-.273 1.202h149.764c14.901 0 22.363-18.014 11.827-28.55zm-209.982-58.557h-196.189c-3.929 0-7.115-3.185-7.115-7.115v-196.189c0-6.339 7.664-9.513 12.146-5.031l196.189 196.189c4.482 4.482 1.308 12.146-5.031 12.146z" fill="#ffd469"></path><path d="m225.325 266.345c-2.161-2.161-2.161-5.664 0-7.825l30.742-30.742 7.825 7.825-30.742 30.742c-2.161 2.16-5.665 2.16-7.825 0zm44.98 13.742 19.036-19.036-7.825-7.825-19.036 19.036c-2.161 2.161-2.161 5.664 0 7.825 2.161 2.161 5.665 2.161 7.825 0zm13.743 37.156 30.742-30.743-7.825-7.825-30.742 30.742c-2.161 2.161-2.161 5.664 0 7.825 2.161 2.162 5.664 2.162 7.825.001zm37.156 13.742 19.036-19.036-7.825-7.825-19.036 19.036c-2.161 2.161-2.161 5.664 0 7.825 2.16 2.161 5.664 2.161 7.825 0zm13.742 37.156 30.742-30.742-7.825-7.825-30.742 30.742c-2.161 2.161-2.161 5.664 0 7.825 2.161 2.161 5.664 2.161 7.825 0zm37.156 13.743 19.036-19.036-7.825-7.825-19.036 19.036c-2.161 2.161-2.161 5.664 0 7.825 2.161 2.161 5.664 2.161 7.825 0zm13.743 37.155 30.742-30.742-7.825-7.825-30.742 30.742c-2.161 2.161-2.161 5.664 0 7.825 2.16 2.161 5.664 2.161 7.825 0zm37.155 13.743 19.036-19.036-7.825-7.825-19.036 19.036c-2.161 2.161-2.161 5.664 0 7.825 2.161 2.161 5.665 2.161 7.825 0zm-342.545-319.132 30.742-30.742-7.825-7.825-30.742 30.741c-2.161 2.161-2.161 5.664 0 7.825 2.16 2.161 5.664 2.161 7.825.001zm37.155 13.742 19.036-19.036-7.825-7.825-19.036 19.036c-2.161 2.161-2.161 5.664 0 7.825 2.161 2.161 5.665 2.161 7.825 0zm13.743 37.156 30.742-30.742-7.825-7.825-30.742 30.742c-2.161 2.161-2.161 5.664 0 7.825 2.161 2.161 5.664 2.161 7.825 0zm37.156 13.742 19.036-19.036-7.825-7.825-19.036 19.036c-2.161 2.161-2.161 5.664 0 7.825 2.16 2.161 5.664 2.161 7.825 0zm13.742 37.156 30.742-30.742-7.825-7.825-30.742 30.742c-2.161 2.161-2.161 5.664 0 7.825 2.161 2.161 5.665 2.161 7.825 0zm37.156 13.743 19.036-19.036-7.825-7.825-19.036 19.036c-2.161 2.161-2.161 5.664 0 7.825 2.161 2.161 5.664 2.161 7.825 0z" fill="#aa8f4d"></path></svg>