<svg xmlns="http://www.w3.org/2000/svg" viewBox="0 0 152.53 37.24" style="width: 110px; height: auto;">
    <path fill="#29b5e8" fill-rule="evenodd" d="M94.03,12.1h0c-.11-.05-.21-.07-.32-.07-.18,0-.35.06-.49.15-.15.1-.28.24-.35.42l-3.43,9.63-2.64-6.46c-.07-.18-.21-.32-.36-.42s-.33-.15-.51-.15-.35.06-.49.15c-.14.1-.28.24-.35.42l-2.65,6.46-3.45-9.62c-.06-.18-.18-.33-.33-.43-.15-.1-.32-.15-.5-.15-.11,0-.23.02-.34.07h0c-.32.16-.52.49-.52.84,0,.11.02.23.07.34l4.24,11.69c.03.09.08.18.15.26.05.06.12.11.2.15.01.01.04.04.07.06.04.02.08.04.13.05.07.03.18.06.31.06.17,0,.33-.06.47-.16.13-.09.25-.23.32-.41h0s2.68-6.59,2.68-6.59l2.68,6.55c.06.17.17.31.3.41.13.1.28.17.44.19h.11c.11,0,.21-.02.3-.06.09-.03.17-.08.23-.13.14-.11.25-.27.32-.44l4.21-11.64c.04-.11.06-.22.06-.34,0-.35-.21-.7-.54-.84h-.01ZM74.65,18.77c0-1.37-.51-2.61-1.33-3.51-.82-.9-1.93-1.45-3.14-1.45s-2.32.55-3.14,1.45c-.82.9-1.33,2.14-1.33,3.51s.51,2.6,1.33,3.49c.82.89,1.93,1.44,3.14,1.44s2.32-.54,3.14-1.44c.81-.89,1.33-2.12,1.33-3.49ZM74.63,14c1.13,1.23,1.82,2.93,1.83,4.76,0,1.83-.69,3.53-1.83,4.76-1.12,1.23-2.7,2.01-4.44,2.01s-3.31-.78-4.44-2.01-1.83-2.93-1.83-4.76.7-3.53,1.83-4.76c1.13-1.23,2.71-2.01,4.44-2.01s3.32.78,4.44,2.01ZM56.78,12.02c-1.41,0-2.69.56-3.65,1.46v-.54c0-.25-.09-.48-.25-.64-.15-.17-.38-.28-.63-.28s-.49.1-.65.28c-.16.17-.25.4-.25.65v11.96l.03.04s.04.09.06.13c.12.22.32.39.57.46h.03s.19.01.19.01c.13,0,.26-.03.38-.09.1-.05.2-.13.28-.24,0,0,.01-.02.02-.03,0,0,0,0,.01,0,.05-.06.09-.13.11-.19.03-.07.04-.14.05-.19v-.03s0-7.18,0-7.18c.03-1.03.44-1.96,1.1-2.63.66-.67,1.55-1.09,2.55-1.09s1.91.42,2.57,1.09c.66.67,1.06,1.6,1.06,2.62v7.05c0,.26.11.49.27.66.17.16.39.26.63.26s.46-.1.63-.26c.17-.16.27-.4.27-.66v-7.05c0-3.04-2.42-5.55-5.42-5.55h.01ZM145.25,17.46c-.51-2.13-2.33-3.64-4.4-3.64-2.13,0-3.92,1.48-4.48,3.64h8.88ZM147.22,18.33v.09c0,.25-.11.49-.28.63-.17.15-.39.23-.62.23h-10.07c.26,2.52,2.22,4.39,4.56,4.41h.6c.77,0,1.53-.27,2.19-.73.67-.45,1.24-1.08,1.65-1.77.08-.15.2-.26.33-.33.13-.07.27-.11.42-.11.16,0,.32.04.46.13h.02c.25.2.41.49.41.81,0,.16-.04.33-.13.48h0c-.57.93-1.33,1.76-2.24,2.37-.91.61-1.97.99-3.10.99h-.6c-1.77-.01-3.37-.78-4.52-2-1.15-1.22-1.86-2.9-1.86-4.74s.71-3.58,1.87-4.81c1.16-1.23,2.77-1.99,4.55-1.99s3.23.7,4.36,1.83c1.13,1.14,1.87,2.72,2,4.49h0s0,.02,0,.02ZM105.9,6.43c-.24,0-.47.11-.63.27-.16.17-.27.4-.27.65v17.27c0,.25.1.48.27.65.16.16.39.27.63.27.51,0,.92-.41.92-.92V7.35c0-.51-.42-.92-.92-.92h0ZM47.21,18.44c-.72-.35-1.55-.61-2.37-.89-.75-.26-1.52-.49-2.07-.78-.28-.15-.49-.31-.63-.49-.14-.18-.21-.36-.21-.61,0-.34.1-.61.26-.85.25-.36.66-.64,1.11-.83.45-.18.93-.27,1.27-.27,1.02,0,1.66.35,2.16.71.25.18.45.37.64.52.1.08.19.15.3.21.1.05.22.1.35.1.08,0,.17-.02.25-.05.08-.03.15-.08.22-.14.07-.06.12-.14.16-.22.03-.09.05-.18.05-.27,0-.16-.05-.32-.12-.46-.14-.25-.35-.49-.61-.74-.39-.36-.92-.7-1.48-.96-.56-.26-1.17-.43-1.74-.43-1.33,0-2.45.31-3.25.88-.42.3-.79.63-1.06,1.08-.27.45-.42,1.01-.43,1.74v.10c0,.70.22,1.29.56,1.74.53.68,1.31,1.09,2.07,1.38.77.29,1.53.46,2.01.63.68.23,1.41.49,1.93.82.26.17.47.35.62.56.14.21.22.42.22.69v.02c0,.39-.11.70-.30.96-.28.39-.74.68-1.24.86-.49.18-1,.25-1.34.25-1.16,0-1.94-.29-2.5-.58-.28-.14-.51-.29-.72-.41-.1-.06-.2-.11-.3-.15-.1-.04-.21-.07-.32-.07-.07,0-.15.01-.22.04-.07.03-.14.08-.2.13-.08.08-.15.17-.2.27-.05.1-.07.21-.07.32,0,.18.07.35.16.49.15.21.36.41.63.6.28.19.61.38.99.56.84.41,1.93.63,2.75.64,1.28,0,2.39-.30,3.32-1.01.91-.70,1.48-1.75,1.48-2.93,0-.65-.15-1.20-.41-1.65-.39-.68-1.03-1.13-1.75-1.49h0ZM119.44,18.77c0-1.38-.51-2.63-1.32-3.52-.82-.89-1.93-1.44-3.15-1.44-1.21,0-2.32.55-3.14,1.44-.81.9-1.33,2.14-1.33,3.52s.52,2.62,1.33,3.51c.82.89,1.93,1.42,3.14,1.42s2.34-.53,3.15-1.42c.81-.89,1.32-2.12,1.32-3.51h0ZM120.96,12.25c.17.17.27.4.27.66v11.71c0,.25-.11.48-.26.65-.16.16-.39.27-.64.27s-.47-.11-.63-.27c-.16-.16-.27-.39-.27-.65v-1.14c-1.13,1.25-2.71,2.06-4.47,2.06s-3.32-.77-4.45-2c-1.13-1.23-1.82-2.92-1.82-4.77s.69-3.54,1.82-4.77c1.12-1.23,2.7-2,4.45-2s3.34.78,4.47,2.03v-1.12c0-.26.11-.49.27-.66.17-.16.39-.26.63-.26s.46.1.63.26h0ZM133.64,13.44c.18-.18.28-.42.28-.66s-.1-.47-.28-.64h0c-.18-.18-.39-.28-.63-.28s-.46.1-.63.28l-7.02,7.02V7.35c0-.51-.42-.92-.92-.92-.25,0-.47.11-.63.27-.16.17-.27.4-.27.65v17.27c0,.25.11.48.27.65.16.16.39.27.63.27.51,0,.92-.41.92-.92v-2.85l2.29-2.34,4.66,5.77c.09.13.21.22.32.27.14.05.27.07.38.07.16,0,.39-.03.59-.20h.01s.01-.02.01-.02c.19-.19.29-.44.29-.70,0-.21-.08-.43-.22-.61l-4.74-5.92,4.69-4.66h0ZM102.2,6.47h-.36c-.52,0-1.02.06-1.49.22-.46.16-.89.42-1.22.81-.34.39-.56.86-.70,1.39-.14.53-.19,1.13-.20,1.82v1.32h-1.42c-.49,0-.88.41-.88.9,0,.26.1.51.26.68.16.17.39.28.63.30h1.41v10.77c0,.25.10.49.27.65.17.16.39.26.65.26.48,0,.87-.40.87-.91v-10.77h1.52c.24-.01.47-.12.63-.29.17-.17.27-.41.27-.67v-.04c0-.48-.4-.88-.89-.88h-1.53v-1.31c0-.58.07-1.02.15-1.33.08-.32.19-.52.30-.64.10-.11.23-.20.44-.28.21-.07.50-.11.90-.11h.40c.51,0,.91-.42.91-.94s-.41-.94-.91-.94h0ZM11.8,19.37c.07-.24.11-.48.10-.72,0-.17-.03-.35-.08-.52-.14-.54-.49-1.02-1-1.32l-7.28-4.32c-1.03-.61-2.34-.25-2.93.81-.6,1.05-.25,2.39.78,3.01l4.07,2.42-4.07,2.41c-1.03.61-1.38,1.95-.78,3.01.59,1.05,1.9,1.41,2.93.8l7.28-4.32c.49-.29.82-.74.98-1.26h0ZM13.78,23.42c-.42-.03-.85.05-1.24.29l-7.29,4.32c-1.02.61-1.37,1.96-.78,3.02.6,1.05,1.9,1.41,2.93.8l4.08-2.42v4.83c0,1.22.96,2.2,2.14,2.2s2.15-.98,2.15-2.2v-8.63c0-1.16-.88-2.11-1.98-2.19h0ZM21.24,14.04c.42.03.85-.06,1.24-.29l7.29-4.32c1.03-.61,1.37-1.96.78-3.01-.59-1.05-1.90-1.41-2.93-.81l-4.08,2.42V3.2c0-1.21-.96-2.2-2.14-2.2s-2.14.98-2.14,2.2v8.64c0,1.16.87,2.11,1.98,2.2h0ZM5.25,9.43l7.29,4.32c.39.23.83.32,1.24.29,1.11-.08,1.98-1.04,1.98-2.2V3.2c0-1.21-.96-2.2-2.15-2.2s-2.14.98-2.14,2.2v4.83l-4.08-2.42c-1.02-.61-2.33-.25-2.93.81-.59,1.05-.24,2.4.78,3.01h0ZM18.94,18.71c0-.13-.07-.30-.16-.39l-.88-.90c-.09-.09-.26-.16-.38-.16h-.03c-.12,0-.29.07-.38.16l-.88.90c-.09.09-.15.27-.15.39v.03c0,.12.07.30.15.39l.88.90c.09.09.25.16.38.16h.03c.12,0,.29-.07.38-.16l.88-.90c.09-.09.16-.26.16-.39v-.03ZM21.36,19.57l-3.03,3.10c-.09.09-.25.17-.38.17h-.89c-.12,0-.29-.07-.38-.17l-3.03-3.10c-.09-.09-.16-.26-.16-.39v-.91c0-.13.07-.30.16-.39l3.03-3.10c.09-.09.26-.16.38-.16h.89c.12,0,.29.07.38.16l3.03,3.10c.09.09.16.26.16.39v.91c0,.12-.07.30-.16.39ZM29.77,28.02l-7.29-4.32c-.39-.23-.82-.32-1.24-.29-1.11.08-1.98,1.03-1.98,2.19v8.64c0,1.22.96,2.2,2.15,2.20s2.14-.98,2.14-2.20v-4.83l4.08,2.42c1.02.61,2.34.25,2.93-.80.59-1.05.24-2.40-.78-3.02h0ZM33.62,16.31l-4.07,2.42,4.07,2.41c1.03.61,1.38,1.95.78,3.01-.59,1.05-1.90,1.41-2.93.80l-7.29-4.32c-.49-.29-.82-.74-.97-1.26-.07-.24-.10-.48-.10-.72,0-.18.03-.35.07-.52.14-.54.49-1.02.99-1.32l7.29-4.32c1.02-.61,2.34-.24,2.93.81.60,1.05.25,2.39-.78,3.01h0Z"/>
    <path fill="#29b5e8" fill-rule="evenodd" d="M149.70,14.23c1.32,0,2.11-1.01,2.11-2.22s-.79-2.22-2.11-2.22-2.09,1.01-2.09,2.22.78,2.22,2.09,2.22ZM149.70,10.19c1.02,0,1.69.78,1.69,1.81s-.67,1.81-1.69,1.81-1.67-.79-1.67-1.81.67-1.81,1.67-1.81Z"/>
    <path fill="#29b5e8" fill-rule="evenodd" d="M149.77,11h-.90v1.93h.49v-.50h.40l.35.50h.51v-.11l-.36-.53c.20-.12.32-.32.32-.59,0-.43-.32-.70-.82-.70h0ZM149.36,11.47h.40c.20,0,.31.09.31.26s-.12.25-.31.25h-.40v-.50h0Z"/>
</svg>
