<svg width="18" height="18" viewBox="0 0 18 18" fill="none" xmlns="http://www.w3.org/2000/svg">
<path d="M12.1547 5.84534C11.7294 2.65943 10.6531 0 9 0C7.34689 0 6.27062 2.65943 5.84534 5.84534C2.65943 6.27062 0 7.34689 0 9C0 10.6531 2.6599 11.7294 5.84534 12.1547C6.27062 15.3401 7.34689 18 9 18C10.6531 18 11.7294 15.3401 12.1547 12.1547C15.3406 11.7294 18 10.6531 18 9C18 7.34689 15.3401 6.27062 12.1547 5.84534ZM5.74135 11.2267C2.69021 10.786 0.910725 9.77736 0.910725 9C0.910725 8.22264 2.69021 7.21399 5.74135 6.77332C5.6742 7.50777 5.63922 8.25762 5.63922 9C5.63922 9.74238 5.6742 10.4927 5.74135 11.2267ZM9 0.910725C9.77736 0.910725 10.786 2.69021 11.2267 5.74135C10.4927 5.6742 9.74238 5.63922 9 5.63922C8.25762 5.63922 7.50731 5.6742 6.77332 5.74135C7.21399 2.69021 8.22264 0.910725 9 0.910725ZM12.2587 11.2267C12.1085 11.2486 11.4925 11.3209 11.3367 11.3363C11.3213 11.4925 11.2486 12.108 11.2272 12.2582C10.7865 15.3093 9.77782 17.0888 9.00047 17.0888C8.22311 17.0888 7.21446 15.3093 6.77378 12.2582C6.75233 12.108 6.67959 11.492 6.6642 11.3363C6.59332 10.613 6.55042 9.83611 6.55042 9C6.55042 8.16389 6.59332 7.387 6.6642 6.66327C7.38746 6.59238 8.16435 6.54948 9.00047 6.54948C9.83658 6.54948 10.6135 6.59238 11.3367 6.66327C11.493 6.67865 12.1085 6.7514 12.2587 6.77285C15.3098 7.21352 17.0897 8.22264 17.0897 8.99953C17.0897 9.77642 15.3098 10.786 12.2587 11.2267Z" fill="#141414"/>
</svg>
