<?xml version="1.0" encoding="UTF-8"?><svg id="Layer_1" xmlns="http://www.w3.org/2000/svg" viewBox="0 0 51.78 50.81"><defs><style>.cls-1{fill:#ed244f;}</style></defs><path class="cls-1" d="M24.38,35.12c-.06-.62-.19-1.22-.37-1.8-.18-.58-.42-1.13-.7-1.66-1.56-2.88-4.61-4.83-8.12-4.83h0c-3.51,0-6.56,1.95-8.12,4.83-.28,.52-.52,1.08-.7,1.66-.18,.58-.3,1.18-.37,1.8-.03,.31-.05,.63-.05,.94h0c0,5.1,4.13,9.23,9.23,9.23h0c5.1,0,9.23-4.13,9.23-9.23h0c0-.32-.02-.63-.05-.94Z"/><path class="cls-1" d="M27.35,26.83h18.47c0,10.19-8.27,18.47-18.47,18.47h0V26.83h0Z"/><path class="cls-1" d="M5.96,5.52h0c10.19,0,18.47,8.27,18.47,18.47H5.96V5.52h0Z"/><path class="cls-1" d="M45.81,5.52h0V23.98H27.35c0-10.19,8.27-18.47,18.47-18.47Z"/></svg>