<?xml version="1.0" encoding="UTF-8"?>
<!-- Generated by Pixelmator Pro 3.7 -->
<svg width="39" height="39" viewBox="0 0 39 39" xmlns="http://www.w3.org/2000/svg">
    <linearGradient id="linearGradient1" x1="0.001645" y1="19.4409" x2="38.892101" y2="19.4409" gradientUnits="userSpaceOnUse">
        <stop offset="1e-05" stop-color="#c6487d" stop-opacity="1"/>
        <stop offset="0.18" stop-color="#d34165" stop-opacity="1"/>
        <stop offset="0.43" stop-color="#e33a4b" stop-opacity="1"/>
        <stop offset="0.57" stop-color="#e93842" stop-opacity="1"/>
        <stop offset="0.72" stop-color="#ea4841" stop-opacity="1"/>
        <stop offset="1" stop-color="#ed713f" stop-opacity="1"/>
    </linearGradient>
    <path id="Path" fill="url(#linearGradient1)" stroke="none" d="M 19.447901 16.6766 L 19.447901 22.2122 C 19.447901 23.371 18.512501 24.3064 17.353701 24.3064 L 11.8181 24.3064 C 10.6593 24.3064 9.72395 25.2418 9.72395 26.4006 L 9.72395 36.794601 C 9.72395 37.9534 8.78855 38.888802 7.62978 38.888802 L 2.09417 38.888802 C 0.935398 38.888802 0 37.9534 0 36.794601 L 0 2.101151 C 0 0.942375 0.935398 0.006977 2.09417 0.006977 L 7.55997 0.006977 C 8.71875 0.006977 9.65414 0.942375 9.65414 2.101151 L 9.65414 12.495201 C 9.65414 13.653999 10.5895 14.589401 11.7483 14.589401 L 17.353701 14.589401 C 18.512501 14.589401 19.447901 15.524799 19.447901 16.683599 Z M 36.794601 14.582401 L 26.505301 14.582401 C 25.3465 14.582401 24.4111 15.517799 24.4111 16.6766 L 24.4111 22.2122 C 24.4111 23.371 25.3465 24.3064 26.505301 24.3064 L 36.794601 24.3064 C 37.9534 24.3064 38.888802 23.371 38.888802 22.2122 L 38.888802 16.6766 C 38.888802 15.517799 37.9534 14.582401 36.794601 14.582401 Z M 36.794601 0 L 16.683599 0 C 15.5248 0 14.5894 0.935398 14.5894 2.09417 L 14.5894 7.62977 C 14.5894 8.788551 15.5248 9.72394 16.683599 9.72394 L 36.794601 9.72394 C 37.9534 9.72394 38.888802 8.788551 38.888802 7.62977 L 38.888802 2.09417 C 38.888802 0.935398 37.9534 0 36.794601 0 Z M 36.794601 29.1649 L 16.578899 29.1649 C 15.4201 29.1649 14.4847 30.1003 14.4847 31.259001 L 14.4847 36.794601 C 14.4847 37.9534 15.4201 38.888802 16.578899 38.888802 L 36.794601 38.888802 C 37.9534 38.888802 38.888802 37.9534 38.888802 36.794601 L 38.888802 31.259001 C 38.888802 30.1003 37.9534 29.1649 36.794601 29.1649 Z"/>
</svg>
