<svg width="379" height="482" viewBox="0 0 379 482" fill="none" xmlns="http://www.w3.org/2000/svg">
<path d="M0 101.666V209.932C0 212.256 1.843 214.21 4.20204 214.247C6.15563 214.284 8.14607 214.321 10.1365 214.321C66.1638 214.321 118.394 197.874 162.184 169.517C186.033 154.103 207.411 135.149 225.547 113.429C229.233 109.004 232.808 104.468 236.199 99.822C237.194 99.5639 238.226 99.4902 239.295 99.4902C242.134 99.4902 244.751 100.338 246.889 101.813C248.068 102.625 248.732 103.952 248.732 105.39V210.043C248.732 212.44 250.685 214.357 253.044 214.357H374.572C376.968 214.357 378.884 212.403 378.884 210.043V88.4275C378.884 86.0306 376.931 84.1131 374.572 84.1131H253.044C250.648 84.1131 248.732 82.1587 248.732 79.7986V4.31444C248.732 1.91753 246.778 0 244.419 0H164.248C162.626 0 161.152 0.921888 160.415 2.36003C141.432 39.0881 109.843 68.2566 71.361 84.1131C50.7194 92.6313 28.1242 97.3514 4.46006 97.3514C4.46006 97.3514 4.46006 97.3514 4.4232 97.3514C2.0273 97.3514 0.0737201 99.2689 0.0737201 101.666H0Z" fill="#03D47E"/>
<path d="M378.847 380.334V272.068C378.847 269.744 377.004 267.79 374.645 267.753C372.692 267.716 370.701 267.679 368.711 267.679C312.684 267.679 260.453 284.126 216.663 312.483C192.815 327.897 171.436 346.851 153.301 368.571C149.615 372.996 146.039 377.532 142.648 382.178C141.653 382.436 140.621 382.51 139.552 382.51C136.714 382.51 134.097 381.662 131.959 380.187C130.779 379.375 130.116 378.048 130.116 376.61V271.957C130.116 269.56 128.162 267.643 125.803 267.643H4.31262C1.91672 267.643 0 269.597 0 271.957V393.536C0 395.933 1.95358 397.85 4.31262 397.85H125.84C128.236 397.85 130.153 399.804 130.153 402.164V477.612C130.153 480.009 132.106 481.926 134.465 481.926H214.636C216.258 481.926 217.732 481.004 218.469 479.566C237.452 442.838 269.041 413.67 307.523 397.813C328.165 389.295 350.76 384.575 374.424 384.575C374.424 384.575 374.424 384.575 374.461 384.575C376.857 384.575 378.811 382.657 378.811 380.26L378.847 380.334Z" fill="#03D47E"/>
</svg>
