<svg xmlns="http://www.w3.org/2000/svg" viewBox="0 0 100 100" width="100" height="100">
  <mask id="vscodeMask" mask-type="alpha" maskUnits="userSpaceOnUse" x="0" y="0" width="100" height="100">
    <path fill-rule="evenodd" clip-rule="evenodd" d="M70.9119 99.3171C72.4869 99.9307 74.2828 99.8914 75.8725 99.1264L96.4604 89.2197C98.6225 88.1949 100 86.0273 100 83.6328V16.3678C100 13.9733 98.6225 11.8057 96.4604 10.7809L75.8725 0.873756C73.7862 -0.130129 71.3446 0.11507 69.5135 1.44417C69.252 1.63386 69.0028 1.84365 68.769 2.07398L29.3551 38.0784L12.1264 25.0033C10.5236 23.7869 8.28538 23.8865 6.79667 25.2416L1.29006 30.2548C-0.523805 31.9067 -0.525747 34.7627 1.28579 36.417L16.2034 50.0001L1.28579 63.5832C-0.525747 65.2375 -0.523805 68.0935 1.29006 69.7454L6.79667 74.7586C8.28538 76.1137 10.5236 76.2133 12.1264 74.9969L29.3551 61.9218L68.769 97.9262C69.3925 98.5398 70.1246 99.0019 70.9119 99.3171ZM75.0152 27.2989L45.1091 50.0001L75.0152 72.7012V27.2989Z" fill="white"/>
  </mask>
  <g mask="url(#vscodeMask)">
    <path d="M96.4614 10.7962L75.8569 0.875542C73.4719 -0.272773 70.6217 0.211611 68.75 2.08308L1.21002 63.5832C-0.602329 65.2373 -0.600389 68.0937 1.21426 69.7456L6.72488 74.7588C8.21479 76.114 10.4547 76.2136 12.0588 74.9971L93.3895 13.3733C96.1186 11.3046 100.039 13.2536 100.039 16.6822V16.4424C100.039 14.0494 98.6238 11.8688 96.4614 10.7962Z" fill="#0065A9"/>
    <path d="M96.4614 89.2038L75.8569 99.1245C73.4719 100.273 70.6217 99.7884 68.75 97.9169L1.21002 36.4169C-0.602329 34.7627 -0.600389 31.9063 1.21426 30.2544L6.72488 25.2412C8.21479 23.886 10.4547 23.7864 12.0588 25.0029L93.3895 86.6267C96.1186 88.6954 100.039 86.7464 100.039 83.3178V83.5576C100.039 85.9506 98.6238 88.1312 96.4614 89.2038Z" fill="#007ACC"/>
    <path d="M75.8578 99.1263C73.4721 100.274 70.6219 99.7885 68.75 97.9169C71.0564 100.223 75 98.5882 75 95.3287V4.67127C75 1.41173 71.0564 -0.223137 68.75 2.08308C70.6219 0.211579 73.4721 -0.273173 75.8578 0.873992L96.4587 10.7807C98.6234 11.8554 100 14.0244 100 16.4203V83.5797C100 85.9756 98.6234 88.1446 96.4587 89.2193L75.8578 99.1263Z" fill="#1F9CF0"/>
  </g>
</svg>
