<svg width="2255" height="600" viewBox="0 0 2255 600" fill="none" xmlns="http://www.w3.org/2000/svg">
<path d="M652.669 116.433C652.669 106.172 644.986 98.4769 634.743 98.4769H607V60H694.923V376.366H652.669V116.433Z" fill="white"/>
<path d="M804.056 379.786C764.363 379.786 731.925 352.424 731.925 310.955C731.925 269.913 760.521 241.269 816.86 241.269H856.553C863.809 241.269 869.358 235.711 869.358 228.443V219.893C869.358 194.242 848.871 180.988 828.811 180.988C810.458 180.988 795.52 189.111 786.983 207.922H741.315C753.265 163.46 787.41 142.512 829.664 142.512C870.211 142.512 912.038 164.743 912.038 220.32V376.366H869.358V362.257C869.358 357.127 863.809 354.562 859.541 357.555C842.895 369.525 827.103 379.786 804.056 379.786ZM810.031 341.309C828.811 341.309 844.603 331.903 862.529 313.947C867.224 309.245 869.358 303.259 869.358 296.847V290.434C869.358 283.166 863.809 277.608 856.553 277.608H815.58C787.837 277.608 774.606 290.006 774.606 309.245C774.606 327.201 786.983 341.309 810.031 341.309Z" fill="white"/>
<path d="M961.855 376.366V147.642H1004.11V167.308C1004.11 172.438 1010.51 174.148 1014.35 170.3C1027.58 157.475 1045.94 142.512 1074.96 142.512C1111.67 142.512 1145.81 165.598 1145.81 218.183V376.366H1103.56V227.161C1103.56 197.662 1085.63 181.416 1063.86 181.416C1042.95 181.416 1028.86 193.387 1013.93 210.915C1006.67 219.893 1004.11 230.153 1004.11 241.269V376.366H961.855Z" fill="white"/>
<path d="M1287.48 467C1234.98 467 1201.69 442.204 1191.87 403.727H1237.97C1245.22 419.545 1258.03 429.378 1283.64 429.378C1317.78 429.378 1339.12 409.285 1339.12 363.54V356.272C1339.12 351.142 1334.85 348.577 1329.73 352.852C1315.65 365.25 1297.72 372.945 1280.65 372.945C1222.6 372.945 1184.19 328.056 1184.19 257.942C1184.19 187.829 1228.58 142.512 1282.36 142.512C1298.15 142.512 1312.66 146.787 1326.74 157.475C1332.72 161.75 1339.12 158.33 1339.12 151.489V147.642H1381.38V363.54C1381.38 436.218 1337.41 467 1287.48 467ZM1284.92 334.041C1304.12 334.041 1318.21 325.491 1329.73 313.092C1336.99 304.97 1339.12 299.412 1339.12 286.586V225.023C1339.12 212.197 1336.99 204.075 1328.45 195.952C1319.06 186.974 1305.83 180.988 1288.76 180.988C1253.76 180.988 1226.87 210.06 1226.87 257.942C1226.87 305.825 1251.63 334.041 1284.92 334.041Z" fill="white"/>
<path d="M1455.92 199.372C1455.92 192.104 1449.95 186.119 1442.69 186.119H1410.25V147.642H1442.69C1449.95 147.642 1455.92 141.657 1455.92 134.389V128.403C1455.92 82.6586 1479.4 60 1525.07 60H1554.09V98.4769H1524.64C1507.14 98.4769 1498.18 108.31 1498.18 128.403V134.389C1498.18 141.657 1504.15 147.642 1511.41 147.642H1554.09V186.119H1511.41C1504.15 186.119 1498.18 192.104 1498.18 199.372V376.366H1455.92V199.372Z" fill="white"/>
<path d="M1652.02 381.496C1616.17 381.496 1582.88 358.41 1582.88 305.825V147.642H1625.13V297.702C1625.13 327.201 1642.2 342.591 1662.26 342.591C1684.03 342.591 1698.11 330.621 1713.05 313.092C1720.31 304.115 1722.87 293.854 1722.87 282.738V147.642H1765.12V376.366H1722.87V356.7C1722.87 351.569 1716.47 349.859 1712.63 353.707C1699.39 366.533 1681.04 381.496 1652.02 381.496Z" fill="white"/>
<path d="M1893.57 381.496C1854.73 381.496 1814.18 362.257 1803.51 315.658H1847.05C1853.45 333.186 1870.95 345.156 1891.86 345.156C1914.91 345.156 1928.99 331.476 1928.99 314.803C1928.99 298.557 1917.9 289.579 1900.4 284.449L1864.12 274.188C1832.54 265.21 1809.06 244.689 1809.06 209.632C1809.06 171.583 1844.49 142.512 1884.61 142.512C1916.62 142.512 1955.46 157.047 1965.7 207.922H1925.15C1919.6 190.394 1905.09 178.851 1884.61 178.851C1864.55 178.851 1850.03 191.249 1850.03 207.067C1850.03 220.32 1858.14 230.153 1877.35 235.711L1911.5 245.544C1943.93 254.95 1969.97 274.616 1969.97 312.237C1969.97 351.569 1935.82 381.496 1893.57 381.496Z" fill="white"/>
<path d="M2098.54 381.496C2037.08 381.496 1996.53 329.766 1996.53 261.79C1996.53 193.814 2039.64 142.512 2098.11 142.512C2161.71 142.512 2195 193.814 2195 252.384V275.471H2050.74C2044.76 275.471 2042.2 279.318 2043.48 289.151C2048.18 321.215 2073.79 343.446 2098.97 343.446C2117.75 343.446 2133.97 334.041 2144.64 315.658H2189.45C2173.23 355.845 2139.51 381.496 2098.54 381.496ZM2141.65 239.986C2148.48 239.986 2151.04 236.566 2149.33 225.878C2144.64 199.372 2125 180.561 2098.11 180.561C2072.51 180.561 2050.74 199.372 2043.91 226.306C2041.35 236.139 2044.76 239.986 2050.74 239.986H2141.65Z" fill="white"/>
<path d="M286.292 286.105L320.889 313.896C320.889 313.896 347.362 294.235 366.83 291.351C387.248 288.326 409.032 299.71 429.218 313.281C459.707 333.779 485.367 359.789 485.367 359.789L515.427 330.296C515.427 330.296 432.548 240.501 366.83 248.624C323.725 253.952 286.292 286.105 286.292 286.105Z" fill="#FF5D5F"/>
<path d="M88.3582 114.862L60 146.056C60 146.056 139.009 219.788 201.224 219.788C229.582 219.788 268.908 197.572 302.747 168.709C322.03 152.261 343.582 133.579 365.135 133.579C379.622 133.579 398.729 141.252 416.747 161.403C416.747 161.403 428.377 154.429 435.463 149.418C441.691 145.014 450.942 137.508 450.942 137.508C425.024 109.845 387.535 89.6251 365.135 91.6083C328.836 91.6127 302.747 114.209 270.418 140.343C238.09 166.477 224.478 177.25 201.224 177.25C162.09 177.25 88.3582 114.862 88.3582 114.862Z" fill="#4E9CFF"/>
<path d="M88.3582 352.463L60 321.269C60 321.269 139.009 247.537 201.224 247.537C229.582 247.537 268.908 269.753 302.747 298.616C322.03 315.064 343.582 333.746 365.135 333.746C379.691 333.746 398.653 325.757 416.747 305.388C416.747 305.388 427.624 312.093 434.329 316.732C441.223 321.501 451.344 329.387 451.344 329.387C425.413 357.27 387.651 377.71 365.135 375.717C328.836 375.712 307.284 356.477 274.956 330.343C242.627 304.21 224.478 290.075 201.224 290.075C162.09 290.075 88.3582 352.463 88.3582 352.463Z" fill="#4E9CFF"/>
<path d="M458.142 185.149C450.764 190.249 438.859 197.627 438.859 197.627C438.859 197.627 445.665 212.373 445.665 232.224C445.665 252.075 439.426 269.09 439.426 269.09C439.426 269.09 450.114 275.765 457.008 280.433C464.17 285.282 475.157 293.478 475.157 293.478C475.157 293.478 488.202 266.254 488.202 232.224C488.202 198.194 475.157 172.672 475.157 172.672C475.157 172.672 464.921 180.464 458.142 185.149Z" fill="#4E9CFF"/>
<path d="M287.995 180.612L320.89 153.388C320.89 153.388 347.363 172.434 366.831 175.319C387.248 178.344 409.033 166.959 429.219 153.388C459.708 132.89 485.368 106.881 485.368 106.881L515.428 136.373C515.428 136.373 432.549 226.168 366.831 218.045C323.726 212.717 287.995 180.612 287.995 180.612Z" fill="#FF5D5F"/>
<path d="M208.601 91.0002C251.139 91.0002 286.865 127.299 286.865 127.299C286.865 127.299 276.924 135.131 270.417 140.344C263.64 145.773 252.835 154.523 252.835 154.523C252.835 154.523 234.124 134.672 208.601 134.672C198.136 134.672 184.535 140.958 170.034 153.388C158.846 162.979 147.205 174.902 139.407 189.687C132.664 202.471 128.987 217.537 128.631 233.359C128.185 253.232 135.228 274.063 146.78 290.642C154.523 301.754 163.763 310.116 173.437 317.299C185.992 326.621 199.085 333.18 208.601 333.18C218.767 333.18 227.907 329.647 234.691 326.374C245.467 320.135 253.969 312.762 253.969 312.762L287.432 340.553C287.432 340.553 273.82 354.165 255.109 364.374C243.018 370.337 227.477 376.284 208.601 376.284C189.739 376.284 167.834 366.262 147.347 350.762C134.103 340.741 121.122 328.867 111.049 314.463C94.5398 290.856 86.0322 262.135 86.0888 233.359C86.1461 204.223 95.54 175.366 112.183 151.687C138.273 117.657 176.86 91.0002 208.601 91.0002Z" fill="#FF5D5F"/>
<path d="M1460.36 514V434H1469.58V463.531H1470.36C1471.04 462.49 1471.98 461.161 1473.17 459.547C1474.4 457.906 1476.14 456.448 1478.41 455.172C1480.7 453.87 1483.8 453.219 1487.71 453.219C1492.76 453.219 1497.21 454.482 1501.06 457.008C1504.92 459.534 1507.93 463.115 1510.09 467.75C1512.25 472.385 1513.33 477.854 1513.33 484.156C1513.33 490.51 1512.25 496.018 1510.09 500.68C1507.93 505.315 1504.93 508.909 1501.1 511.461C1497.28 513.987 1492.86 515.25 1487.86 515.25C1484.01 515.25 1480.92 514.612 1478.6 513.336C1476.29 512.034 1474.5 510.562 1473.25 508.922C1472 507.255 1471.04 505.875 1470.36 504.781H1469.27V514H1460.36ZM1469.42 484C1469.42 488.531 1470.09 492.529 1471.42 495.992C1472.74 499.43 1474.68 502.125 1477.24 504.078C1479.79 506.005 1482.91 506.969 1486.61 506.969C1490.47 506.969 1493.68 505.953 1496.26 503.922C1498.86 501.865 1500.82 499.104 1502.12 495.641C1503.45 492.151 1504.11 488.271 1504.11 484C1504.11 479.781 1503.46 475.979 1502.16 472.594C1500.88 469.182 1498.94 466.487 1496.34 464.508C1493.76 462.503 1490.52 461.5 1486.61 461.5C1482.86 461.5 1479.71 462.451 1477.16 464.352C1474.61 466.227 1472.68 468.857 1471.38 472.242C1470.07 475.602 1469.42 479.521 1469.42 484ZM1531.22 536.5C1529.66 536.5 1528.26 536.37 1527.04 536.109C1525.82 535.875 1524.97 535.641 1524.5 535.406L1526.85 527.281C1529.09 527.854 1531.06 528.063 1532.78 527.906C1534.5 527.75 1536.03 526.982 1537.35 525.602C1538.71 524.247 1539.94 522.047 1541.06 519L1542.78 514.313L1520.6 454H1530.6L1547.16 501.812H1547.78L1564.35 454H1574.35L1548.88 522.75C1547.73 525.849 1546.31 528.414 1544.62 530.445C1542.93 532.503 1540.96 534.026 1538.72 535.016C1536.51 536.005 1534.01 536.5 1531.22 536.5ZM1683.08 459H1673.39C1672.82 456.214 1671.81 453.766 1670.38 451.656C1668.97 449.547 1667.26 447.776 1665.22 446.344C1663.22 444.885 1660.99 443.792 1658.54 443.062C1656.1 442.333 1653.54 441.969 1650.89 441.969C1646.04 441.969 1641.66 443.193 1637.72 445.641C1633.82 448.089 1630.71 451.695 1628.39 456.461C1626.1 461.227 1624.95 467.073 1624.95 474C1624.95 480.927 1626.1 486.773 1628.39 491.539C1630.71 496.305 1633.82 499.911 1637.72 502.359C1641.66 504.807 1646.04 506.031 1650.89 506.031C1653.54 506.031 1656.1 505.667 1658.54 504.937C1660.99 504.208 1663.22 503.128 1665.22 501.695C1667.26 500.237 1668.97 498.453 1670.38 496.344C1671.81 494.208 1672.82 491.76 1673.39 489H1683.08C1682.35 493.089 1681.02 496.747 1679.09 499.977C1677.16 503.206 1674.77 505.953 1671.9 508.219C1669.04 510.458 1665.82 512.164 1662.26 513.336C1658.71 514.508 1654.93 515.094 1650.89 515.094C1644.07 515.094 1638 513.427 1632.69 510.094C1627.37 506.76 1623.19 502.021 1620.15 495.875C1617.1 489.729 1615.58 482.437 1615.58 474C1615.58 465.562 1617.1 458.271 1620.15 452.125C1623.19 445.979 1627.37 441.24 1632.69 437.906C1638 434.573 1644.07 432.906 1650.89 432.906C1654.93 432.906 1658.71 433.492 1662.26 434.664C1665.82 435.836 1669.04 437.555 1671.9 439.82C1674.77 442.06 1677.16 444.794 1679.09 448.023C1681.02 451.227 1682.35 454.885 1683.08 459ZM1706.7 434V514H1697.48V434H1706.7ZM1723.58 514V454H1732.8V514H1723.58ZM1728.27 444C1726.47 444 1724.93 443.388 1723.62 442.164C1722.35 440.94 1721.71 439.469 1721.71 437.75C1721.71 436.031 1722.35 434.56 1723.62 433.336C1724.93 432.112 1726.47 431.5 1728.27 431.5C1730.07 431.5 1731.6 432.112 1732.88 433.336C1734.18 434.56 1734.83 436.031 1734.83 437.75C1734.83 439.469 1734.18 440.94 1732.88 442.164C1731.6 443.388 1730.07 444 1728.27 444ZM1774.06 515.25C1768.44 515.25 1763.59 513.922 1759.53 511.266C1755.47 508.609 1752.34 504.951 1750.16 500.289C1747.97 495.628 1746.88 490.302 1746.88 484.312C1746.88 478.219 1747.99 472.841 1750.23 468.18C1752.5 463.492 1755.65 459.833 1759.69 457.203C1763.75 454.547 1768.49 453.219 1773.91 453.219C1778.12 453.219 1781.93 454 1785.31 455.562C1788.7 457.125 1791.47 459.312 1793.63 462.125C1795.79 464.937 1797.14 468.219 1797.66 471.969H1788.44C1787.73 469.234 1786.17 466.812 1783.75 464.703C1781.35 462.568 1778.13 461.5 1774.06 461.5C1770.47 461.5 1767.32 462.437 1764.61 464.312C1761.93 466.161 1759.83 468.779 1758.32 472.164C1756.84 475.523 1756.09 479.469 1756.09 484C1756.09 488.635 1756.82 492.672 1758.28 496.109C1759.77 499.547 1761.85 502.216 1764.53 504.117C1767.24 506.018 1770.42 506.969 1774.06 506.969C1776.46 506.969 1778.63 506.552 1780.59 505.719C1782.54 504.885 1784.19 503.688 1785.55 502.125C1786.9 500.562 1787.86 498.687 1788.44 496.5H1797.66C1797.14 500.042 1795.85 503.232 1793.79 506.07C1791.76 508.883 1789.06 511.122 1785.7 512.789C1782.37 514.43 1778.49 515.25 1774.06 515.25ZM1819.73 492.125L1819.57 480.719H1821.45L1847.7 454H1859.1L1831.13 482.281H1830.35L1819.73 492.125ZM1811.13 514V434H1820.35V514H1811.13ZM1849.26 514L1825.82 484.312L1832.38 477.906L1860.98 514H1849.26ZM1872.22 514V434H1881.9V469.625H1924.56V434H1934.25V514H1924.56V478.219H1881.9V514H1872.22ZM1976.77 515.25C1971.35 515.25 1966.6 513.961 1962.51 511.383C1958.45 508.805 1955.27 505.198 1952.98 500.562C1950.71 495.927 1949.58 490.51 1949.58 484.312C1949.58 478.062 1950.71 472.607 1952.98 467.945C1955.27 463.284 1958.45 459.664 1962.51 457.086C1966.6 454.508 1971.35 453.219 1976.77 453.219C1982.18 453.219 1986.92 454.508 1990.99 457.086C1995.07 459.664 1998.25 463.284 2000.52 467.945C2002.81 472.607 2003.96 478.062 2003.96 484.312C2003.96 490.51 2002.81 495.927 2000.52 500.562C1998.25 505.198 1995.07 508.805 1990.99 511.383C1986.92 513.961 1982.18 515.25 1976.77 515.25ZM1976.77 506.969C1980.88 506.969 1984.27 505.914 1986.92 503.805C1989.58 501.695 1991.55 498.922 1992.82 495.484C1994.1 492.047 1994.74 488.323 1994.74 484.312C1994.74 480.302 1994.1 476.565 1992.82 473.102C1991.55 469.638 1989.58 466.839 1986.92 464.703C1984.27 462.568 1980.88 461.5 1976.77 461.5C1972.65 461.5 1969.27 462.568 1966.61 464.703C1963.96 466.839 1961.99 469.638 1960.71 473.102C1959.44 476.565 1958.8 480.302 1958.8 484.312C1958.8 488.323 1959.44 492.047 1960.71 495.484C1961.99 498.922 1963.96 501.695 1966.61 503.805C1969.27 505.914 1972.65 506.969 1976.77 506.969ZM2055.84 489.469V454H2065.06V514H2055.84V503.844H2055.21C2053.81 506.891 2051.62 509.482 2048.65 511.617C2045.68 513.727 2041.93 514.781 2037.4 514.781C2033.65 514.781 2030.32 513.961 2027.4 512.32C2024.49 510.654 2022.19 508.154 2020.53 504.82C2018.86 501.461 2018.03 497.229 2018.03 492.125V454H2027.25V491.5C2027.25 495.875 2028.47 499.365 2030.92 501.969C2033.39 504.573 2036.54 505.875 2040.37 505.875C2042.66 505.875 2044.99 505.289 2047.36 504.117C2049.76 502.945 2051.76 501.148 2053.38 498.727C2055.02 496.305 2055.84 493.219 2055.84 489.469ZM2124.44 467.437L2116.16 469.781C2115.64 468.401 2114.87 467.06 2113.86 465.758C2112.87 464.43 2111.51 463.336 2109.79 462.477C2108.08 461.617 2105.88 461.187 2103.19 461.187C2099.52 461.187 2096.46 462.034 2094.01 463.727C2091.59 465.393 2090.38 467.516 2090.38 470.094C2090.38 472.385 2091.21 474.195 2092.88 475.523C2094.55 476.852 2097.15 477.958 2100.69 478.844L2109.6 481.031C2114.96 482.333 2118.96 484.326 2121.59 487.008C2124.22 489.664 2125.54 493.089 2125.54 497.281C2125.54 500.719 2124.55 503.792 2122.57 506.5C2120.62 509.208 2117.88 511.344 2114.37 512.906C2110.85 514.469 2106.76 515.25 2102.1 515.25C2095.98 515.25 2090.91 513.922 2086.9 511.266C2082.89 508.609 2080.35 504.729 2079.29 499.625L2088.04 497.437C2088.87 500.667 2090.45 503.089 2092.76 504.703C2095.11 506.318 2098.17 507.125 2101.94 507.125C2106.24 507.125 2109.65 506.214 2112.18 504.391C2114.73 502.542 2116.01 500.328 2116.01 497.75C2116.01 495.667 2115.28 493.922 2113.82 492.516C2112.36 491.083 2110.12 490.016 2107.1 489.312L2097.1 486.969C2091.6 485.667 2087.57 483.648 2084.99 480.914C2082.44 478.154 2081.16 474.703 2081.16 470.562C2081.16 467.177 2082.11 464.182 2084.01 461.578C2085.94 458.974 2088.56 456.93 2091.87 455.445C2095.2 453.961 2098.97 453.219 2103.19 453.219C2109.13 453.219 2113.79 454.521 2117.18 457.125C2120.59 459.729 2123.01 463.167 2124.44 467.437ZM2164.57 515.25C2158.79 515.25 2153.8 513.974 2149.61 511.422C2145.44 508.844 2142.23 505.25 2139.96 500.641C2137.72 496.005 2136.6 490.615 2136.6 484.469C2136.6 478.323 2137.72 472.906 2139.96 468.219C2142.23 463.505 2145.38 459.833 2149.41 457.203C2153.48 454.547 2158.22 453.219 2163.63 453.219C2166.76 453.219 2169.84 453.74 2172.89 454.781C2175.94 455.823 2178.71 457.516 2181.21 459.859C2183.71 462.177 2185.7 465.25 2187.19 469.078C2188.67 472.906 2189.41 477.62 2189.41 483.219V487.125H2143.16V479.156H2180.04C2180.04 475.771 2179.36 472.75 2178.01 470.094C2176.68 467.437 2174.78 465.341 2172.3 463.805C2169.86 462.268 2166.97 461.5 2163.63 461.5C2159.96 461.5 2156.78 462.411 2154.1 464.234C2151.45 466.031 2149.4 468.375 2147.97 471.266C2146.54 474.156 2145.82 477.255 2145.82 480.562V485.875C2145.82 490.406 2146.6 494.247 2148.16 497.398C2149.75 500.523 2151.95 502.906 2154.77 504.547C2157.58 506.161 2160.85 506.969 2164.57 506.969C2166.99 506.969 2169.18 506.63 2171.13 505.953C2173.11 505.25 2174.82 504.208 2176.25 502.828C2177.68 501.422 2178.79 499.677 2179.57 497.594L2188.48 500.094C2187.54 503.115 2185.96 505.771 2183.75 508.062C2181.54 510.328 2178.8 512.099 2175.55 513.375C2172.29 514.625 2168.63 515.25 2164.57 515.25Z" fill="white"/>
</svg>
