<svg width="59" height="40" viewBox="0 0 59 40" fill="none" xmlns="http://www.w3.org/2000/svg">
<path d="M26.8272 26.9379C27.0316 26.7849 27.2769 26.7168 27.5222 26.7168C27.7129 26.7168 27.9037 26.7679 28.0672 26.8699C28.2444 26.972 28.3943 27.125 28.5169 27.2951L28.9666 26.7339C28.7894 26.4617 28.5714 26.2576 28.3261 26.1216C28.0263 25.9685 27.7129 25.9005 27.3859 25.9175C27.0588 25.9345 26.7454 26.0535 26.4729 26.2406C26.1731 26.4617 25.9278 26.7679 25.7507 27.1591C25.5735 27.5672 25.4918 28.0094 25.4918 28.4687C25.4918 28.9279 25.5735 29.3701 25.7507 29.7783C25.9142 30.1524 26.1595 30.4756 26.4593 30.6967C26.7727 30.9178 27.127 31.0368 27.4813 31.0198C27.7674 31.0198 28.0536 30.9518 28.3261 30.8157C28.5714 30.6797 28.8031 30.4586 28.9666 30.2035L28.5169 29.6422C28.3943 29.8293 28.2444 29.9824 28.0672 30.0844C27.8901 30.1865 27.6993 30.2375 27.5085 30.2375C27.2632 30.2375 27.0316 30.1694 26.8136 30.0164C26.6092 29.8633 26.4456 29.6592 26.3366 29.4041C26.2276 29.132 26.1595 28.8088 26.1595 28.5027C26.1595 28.1965 26.214 27.8904 26.3366 27.6013C26.4593 27.3121 26.6228 27.091 26.8272 26.9379ZM26.1322 21.1893H28.04V23.3153H28.7213V18.349H28.04V20.3899H26.1322V18.349H25.4509V23.3153H26.1322V21.1893ZM29.5662 23.3153H30.2475V18.349H29.5662V23.3153ZM33.1636 18.5701C32.9047 18.417 32.6186 18.349 32.3324 18.366H31.106V23.3153H31.7873V21.8866H32.3324C32.6186 21.8866 32.9047 21.8186 33.1636 21.6825C33.3953 21.5465 33.5861 21.3424 33.7087 21.0702C33.8313 20.7811 33.8995 20.4579 33.8995 20.1348C33.8995 19.8116 33.8313 19.4885 33.7087 19.1994C33.5861 18.9102 33.3953 18.7061 33.1636 18.5701ZM32.9729 20.8491C32.823 21.0192 32.5913 21.1042 32.2915 21.1042H31.7873V19.1313H32.2915C32.5913 19.1313 32.823 19.2164 32.9729 19.3865C33.1228 19.5565 33.2045 19.7946 33.2045 20.1178C33.2045 20.4409 33.1364 20.679 32.9729 20.8491ZM39.868 18.366L38.0284 23.3153H38.8051L39.2139 22.1757H41.2579L41.6667 23.3153H42.4571L40.6175 18.349H39.868V18.366ZM39.4728 21.4444L40.2359 19.2844L40.999 21.4444H39.4728ZM32.5504 26.2406C32.237 26.0195 31.8827 25.9175 31.5148 25.9175C31.1469 25.9175 30.8062 26.0365 30.4792 26.2406C30.1794 26.4617 29.9205 26.7679 29.7569 27.1591C29.5798 27.5672 29.498 28.0094 29.498 28.4687C29.498 28.9279 29.5934 29.3701 29.7569 29.7783C29.9205 30.1524 30.1794 30.4756 30.4792 30.6967C30.7926 30.9178 31.1469 31.0198 31.5148 31.0198C31.8827 31.0198 32.2234 30.9008 32.5504 30.6967C32.8502 30.4756 33.0955 30.1694 33.2726 29.7783C33.4498 29.3701 33.5316 28.9279 33.5316 28.4687C33.5316 28.0094 33.4362 27.5672 33.2726 27.1591C33.0955 26.7679 32.8502 26.4617 32.5504 26.2406ZM32.6594 29.3531C32.5504 29.6082 32.3869 29.8293 32.1961 29.9824C31.9917 30.1354 31.7601 30.2035 31.5284 30.2035C31.2968 30.2035 31.0651 30.1184 30.8607 29.9824C30.6563 29.8293 30.4928 29.6252 30.3974 29.3531C30.2884 29.0809 30.2203 28.7748 30.2203 28.4516C30.2203 28.1285 30.2748 27.8394 30.3974 27.5502C30.5064 27.2951 30.6699 27.074 30.8607 26.9209C31.0651 26.7679 31.2968 26.6998 31.5284 26.6998C31.7601 26.6998 31.9917 26.7849 32.1961 26.9209C32.4005 27.074 32.5641 27.2781 32.6594 27.5502C32.7685 27.8224 32.8366 28.1285 32.8366 28.4516C32.8366 28.7748 32.7685 29.0809 32.6594 29.3531ZM55.825 25.9855V26.7679H57.065V30.9518H57.76V26.7679H59V25.9855H55.825ZM54.7212 29.3361L52.6636 25.9855H52.0912V30.9518H52.7862V27.6013L54.8438 30.9518H55.4162V25.9855H54.7212V29.3361ZM37.5242 25.9855L36.3659 28.6217L35.1804 25.9855H34.3219V30.9518H35.0578V27.5162L36.3523 30.3735L37.6741 27.4652V30.9348H38.4099V25.9685H37.5242V25.9855ZM41.2852 26.1896C41.0263 26.0365 40.7265 25.9685 40.4403 25.9855H39.2003V30.9518H39.8953V29.5231H40.4403C40.7265 29.5231 41.0263 29.4551 41.2852 29.3191C41.5168 29.183 41.7076 28.9789 41.8439 28.7068C41.9665 28.4176 42.0347 28.0945 42.0347 27.7713C42.0347 27.4482 41.9665 27.125 41.8439 26.8359C41.7076 26.5468 41.5168 26.3257 41.2852 26.1896ZM41.0944 28.4857C40.9445 28.6557 40.7129 28.7408 40.3995 28.7408H39.8816V26.7679H40.3995C40.6992 26.7679 40.9309 26.8529 41.0944 27.023C41.2443 27.1931 41.3261 27.4312 41.3261 27.7543C41.3397 28.0605 41.2579 28.3156 41.0944 28.4857ZM36.7202 22.1757L37.129 23.3153H37.9194L36.0798 18.349H35.3303L33.5043 23.3153H34.281L34.6898 22.1757H36.7202ZM35.7118 19.2844L36.4749 21.4444H34.9487L35.7118 19.2844ZM43.3701 25.9855H42.6751V30.9518H45.3187V30.1694H43.3701V25.9855ZM45.891 30.9348H46.586V25.9685H45.891V30.9348ZM17.9562 36.5304C17.9698 37.7209 17.9834 38.5883 17.997 39.0135C18.0107 39.0646 18.0107 39.1326 17.997 39.1836C17.997 39.2517 17.997 39.3027 17.997 39.3027C17.997 39.5408 18.0243 39.7789 18.0788 40C18.1333 39.7789 18.1606 39.5408 18.1606 39.3027C18.1606 39.2176 18.1878 37.9761 18.2287 35.9861C18.2151 36.0031 18.2014 36.0202 18.2014 36.0372C18.106 36.1902 18.0243 36.3603 17.9562 36.5304ZM15.1218 11.6989C15.3398 11.4098 15.5442 11.0696 15.6941 10.7124C15.5851 11.0186 15.1627 12.1751 15.5715 12.2772C16.0212 12.3792 16.5253 12.2091 17.4383 10.7635C17.4111 8.9096 17.3838 7.29385 17.3702 6.06928H16.8796C16.8524 6.06928 16.8388 6.06928 16.8115 6.06928C16.539 6.06928 16.0893 6.03527 15.7895 5.47401C15.4625 4.86172 15.4488 4.23243 15.4352 3.77322C15.4216 3.10991 15.2853 1.90235 14.6176 1.22204C14.1543 0.762825 12.9006 0.405658 11.7423 0.983926C11.3608 1.17101 10.5977 1.66424 9.84824 2.12345C9.1669 2.54865 8.29478 3.0759 8.02225 3.0759C8.47193 2.82078 9.07151 2.4466 9.7256 1.98739C10.4751 1.47715 11.2654 0.932902 11.6606 0.728807C12.451 0.337626 13.9635 0.218573 14.7402 1.00094C15.4761 1.74928 15.626 3.04188 15.6396 3.7392C15.6532 4.19842 15.6669 4.75968 15.953 5.32094C16.2119 5.79716 16.6207 5.79716 16.866 5.79716H16.9205H17.3566C17.3566 5.64409 17.3566 5.50802 17.3566 5.35495C16.9205 5.38897 16.2937 5.42298 16.0212 4.69164C15.6941 3.80724 16.0484 1.54519 14.9583 0.592746C13.8681 -0.359695 12.1239 -0.121585 10.5705 1.00094C9.03063 2.10645 6.98661 3.55212 4.46566 4.8107C1.94471 6.06928 0.377622 6.57952 0.077833 6.63054C-0.20833 6.69857 0.309488 6.93669 1.38601 6.9707C2.46252 7.00472 3.36189 6.90267 3.36189 6.90267L11.2654 2.41259C11.2654 2.41259 4.45203 6.64755 3.87971 7.10676C3.30738 7.56598 2.84407 7.71905 2.88495 8.14424C2.92583 8.56944 3.36189 8.51842 4.56105 8.4844C5.7602 8.45039 6.0191 8.31432 6.4279 8.16125C6.83671 8.00818 11.2654 5.457 11.2654 5.457C11.2654 5.457 6.5233 8.39936 5.84196 9.07968C5.16063 9.75999 5.89646 9.98109 6.35977 9.9981C6.83671 10.0151 8.104 9.93007 8.81259 9.48787C9.52118 9.04566 11.7287 7.27684 11.7287 7.27684C11.7287 7.27684 9.54845 9.23275 9.12602 9.67495C8.78535 10.0321 8.6082 10.3383 8.68996 10.7124C8.8126 11.1887 9.46669 11.1376 10.3388 10.7464C10.3388 10.7464 11.2382 10.3553 11.5788 9.98109C11.9195 9.58991 12.8734 8.53542 12.8734 8.53542C12.8734 8.53542 11.7424 9.9981 11.4562 10.6274C11.1837 11.2567 11.1291 11.4098 11.2654 11.7669C11.4562 12.2772 12.9006 11.7499 13.3094 11.2057C13.6092 10.7805 13.8954 10.3383 14.1543 9.86204C14.1543 9.86204 13.7182 10.7464 13.6228 11.2567C13.5275 11.7669 13.4185 12.1751 13.8136 12.2261C14.2497 12.3112 14.6585 12.3282 15.1218 11.6989ZM17.8199 23.2813C17.8608 23.2472 17.9016 23.2132 17.9425 23.1792C18.0243 23.1112 18.0924 23.0602 18.1469 22.9921C18.2559 22.9071 18.365 22.805 18.474 22.72C18.4876 21.7505 18.5149 20.7641 18.5285 19.7946C18.3104 19.6756 18.0788 19.5565 17.8335 19.4375C17.8199 19.4375 17.8063 19.4205 17.7926 19.4205C17.7654 19.4035 17.7518 19.4035 17.7245 19.3865C17.561 19.3184 17.4111 19.2334 17.2339 19.1653C17.0295 19.0633 16.8251 18.9783 16.6207 18.8762C15.2581 19.7776 14.9855 20.2028 14.9855 21.0362C14.9855 22.2098 15.7895 22.737 17.1794 23.8425C17.3975 23.6384 17.6155 23.4513 17.8199 23.2813ZM16.1438 21.1893C16.1438 21.1893 16.0484 20.4409 17.5882 19.5735C17.6291 19.5565 17.67 19.5225 17.7109 19.5055C17.7245 20.6791 17.7381 21.8526 17.7654 23.0261C17.0023 22.3798 16.1438 21.7676 16.1438 21.1893ZM18.474 35.629C18.4058 35.731 18.3377 35.8331 18.2696 35.9181C18.6647 36.5814 18.6375 37.2277 18.4195 38.0611C18.6239 37.772 19.0327 37.0406 18.692 36.0882C18.6239 35.9351 18.5557 35.782 18.474 35.629ZM17.8471 28.6557C17.997 28.8428 18.1742 29.0639 18.3513 29.285C18.4603 29.4211 18.5694 29.5572 18.692 29.7102C18.7056 29.7272 18.7329 29.7442 18.7601 29.7783C19.6868 28.7748 20.5316 27.8224 20.5316 26.6318C20.5316 25.6964 19.8094 24.846 19.0872 24.1657C19.019 24.2167 18.9509 24.2677 18.8828 24.3357C18.7193 24.4718 18.5694 24.5909 18.4331 24.7099C18.4331 24.7099 18.4195 24.7099 18.4195 24.7269C18.3922 24.7609 18.3513 24.7779 18.3241 24.812C18.1333 24.982 17.9562 25.1351 17.7926 25.2882C17.8199 26.4277 17.8335 27.5672 17.8471 28.6557ZM18.4331 24.897C19.3325 25.7134 19.6868 26.2406 19.6868 26.8189C19.6868 27.4142 19.1826 28.1115 18.365 29.132C18.3786 27.7713 18.4058 26.3597 18.4331 24.897ZM23.4069 8.55243C23.4069 8.55243 24.3607 9.60692 24.7014 9.9981C25.0421 10.3893 25.9414 10.7635 25.9414 10.7635C26.8136 11.1546 27.4676 11.2057 27.5903 10.7294C27.6857 10.3553 27.4949 10.0321 27.1542 9.69196C26.7318 9.24976 24.5515 7.29385 24.5515 7.29385C24.5515 7.29385 26.7591 9.06267 27.4676 9.50487C28.1762 9.94708 29.4435 10.0321 29.9205 10.0151C30.3974 9.9981 31.1196 9.777 30.4383 9.09669C29.7569 8.41637 25.0148 5.47401 25.0148 5.47401C25.0148 5.47401 29.4299 8.0422 29.8523 8.17826C30.2611 8.33133 30.52 8.45039 31.7192 8.50141C32.9184 8.53543 33.3408 8.58645 33.3953 8.16125C33.4498 7.75306 32.9729 7.59999 32.4005 7.12377C31.8282 6.66456 25.0148 2.4296 25.0148 2.4296L32.9184 6.91968C32.9184 6.91968 33.8177 7.02172 34.8942 6.98771C35.9707 6.95369 36.4886 6.71558 36.2024 6.64755C35.9162 6.57952 34.3355 6.08629 31.8146 4.82771C29.2936 3.56912 27.2496 2.14046 25.7098 1.01794C24.17 -0.0875693 22.4121 -0.342687 21.322 0.609754C20.2318 1.5622 20.5861 3.80723 20.2591 4.70865C19.9865 5.43999 19.3597 5.40598 18.9237 5.37196C18.9237 5.50802 18.9237 5.66109 18.91 5.81416H19.3597H19.4142C19.6595 5.81416 20.0683 5.81416 20.3272 5.33794C20.6134 4.79369 20.627 4.21542 20.6406 3.75621C20.6543 3.05889 20.8041 1.76629 21.54 1.01794C22.3167 0.235581 23.8293 0.354636 24.6196 0.745817C25.0148 0.932904 25.8052 1.47715 26.5546 2.0044C27.2087 2.46361 27.8083 2.83779 28.258 3.0929C27.9718 3.0929 27.1133 2.56566 26.432 2.14046C25.6962 1.66424 24.9331 1.18802 24.5379 1.00094C23.3796 0.422667 22.1259 0.779831 21.6626 1.23904C20.9813 1.91936 20.8587 3.12692 20.845 3.79023C20.8314 4.24944 20.8178 4.89574 20.4907 5.49102C20.2046 6.05228 19.7549 6.08629 19.4687 6.08629C19.4415 6.08629 19.4278 6.08629 19.4006 6.08629H18.91C18.8828 7.31086 18.8555 8.9096 18.8283 10.7294C19.7549 12.2091 20.2863 12.3962 20.7224 12.2772C21.1312 12.1751 20.7224 11.0186 20.5997 10.7124C20.7633 11.0696 20.954 11.3927 21.1721 11.6989C21.6218 12.3282 22.0442 12.3112 22.453 12.2431C22.8618 12.1751 22.7392 11.7839 22.6438 11.2737C22.5484 10.7635 22.1123 9.87905 22.1123 9.87905C22.3712 10.3383 22.6574 10.7975 22.9572 11.2227C23.366 11.7669 24.8104 12.3112 25.0012 11.7839C25.1238 11.4438 25.083 11.2737 24.8104 10.6444C24.5515 10.0151 23.4069 8.55243 23.4069 8.55243ZM18.1606 3.34802C18.3786 3.34802 18.5966 3.26298 18.7738 3.10991C18.9509 2.95684 19.1008 2.73574 19.1826 2.49763C19.2643 2.24251 19.2916 1.97038 19.2507 1.69826C19.2098 1.42613 19.1008 1.18802 18.9509 0.983926C18.801 0.796839 18.5966 0.660778 18.3786 0.609754C18.1606 0.55873 17.9425 0.575738 17.7381 0.694793C17.5337 0.796841 17.3566 0.983927 17.2476 1.20503C17.1249 1.42613 17.0568 1.69826 17.0568 1.97038C17.0568 2.15747 17.084 2.32755 17.1385 2.49763C17.1931 2.66771 17.2748 2.82078 17.3838 2.93983C17.4928 3.0759 17.6019 3.17794 17.7381 3.24597C17.8608 3.31401 18.0107 3.34802 18.1606 3.34802ZM21.7853 13.6888C21.7853 13.6888 21.758 12.7364 20.518 12.6343C19.2507 12.5323 19.1962 13.2126 19.2234 13.4677C19.3188 13.4677 19.4006 13.5017 19.4006 13.5357C19.4006 13.5698 19.3325 13.6038 19.2507 13.6038C19.3188 13.8589 19.5096 14.165 20.0547 14.5052C20.5044 14.7773 20.7224 14.7603 20.9813 14.7093C20.9813 14.7093 21.2811 14.9304 21.2811 15.2876C21.2811 15.6277 20.8041 16.291 18.5694 17.6857C18.7056 10.1682 18.8283 3.56912 18.8283 3.56912H18.9645C19.019 3.56912 19.0735 3.53511 19.1144 3.48409C19.1553 3.43306 19.1826 3.36503 19.1826 3.297V3.21196C19.1826 3.17794 19.1826 3.14393 19.1689 3.10991C19.1553 3.0759 19.1417 3.04188 19.1144 3.02487C18.9918 3.19495 18.8555 3.33101 18.692 3.43306C18.5285 3.53511 18.3513 3.56912 18.1742 3.56912C17.997 3.56912 17.8199 3.5181 17.6564 3.43306C17.4928 3.34802 17.3429 3.19495 17.2339 3.02487C17.2067 3.05889 17.1931 3.0759 17.1794 3.10991C17.1658 3.14393 17.1658 3.17794 17.1658 3.21196V3.297C17.1658 3.36503 17.1931 3.43306 17.2339 3.48409C17.2748 3.53511 17.3293 3.56912 17.3838 3.56912H17.5201C17.5201 3.56912 17.6155 9.9811 17.7109 17.3625C17.9016 17.4816 18.0924 17.6006 18.3104 17.7367C18.3377 17.7537 18.3786 17.7707 18.4058 17.7877C18.91 18.0939 19.3325 18.349 19.6868 18.5871C20.8859 18.0088 22.0578 17.3455 22.4121 16.4101C23.0389 14.6753 21.7853 13.6888 21.7853 13.6888ZM20.1228 13.2976C19.9865 13.2976 19.8775 13.2126 19.8775 13.1105C19.8775 13.0085 19.9865 12.9235 20.1228 12.9235C20.2591 12.9235 20.3681 13.0085 20.3681 13.1105C20.3681 13.2126 20.2591 13.2976 20.1228 13.2976ZM17.9562 34.8296C18.0652 34.6595 18.1606 34.4894 18.2696 34.3364C18.2832 33.3669 18.3104 32.2784 18.3241 31.1049C18.1878 30.9348 18.0379 30.7647 17.8744 30.5776C17.8199 30.5266 17.779 30.4586 17.7245 30.4076C17.6564 30.3225 17.5882 30.2545 17.5201 30.1865C17.1385 30.6287 16.3891 31.6151 16.3891 32.4655C16.3891 33.469 17.1658 34.4894 17.7518 35.2208C17.8063 35.0677 17.8744 34.9487 17.9562 34.8296ZM17.8744 30.7817C17.9016 32.2274 17.9153 33.554 17.9289 34.6935C17.4792 33.9452 17.0023 33.1798 17.0023 32.6526C17.0023 32.1594 17.2339 31.5981 17.8744 30.7817ZM18.1878 17.9578C15.5306 16.359 14.9855 15.6277 14.9855 15.2705C14.9855 14.9134 15.2853 14.6923 15.2853 14.6923C15.5442 14.7603 15.7622 14.7603 16.2119 14.4882C16.757 14.165 16.9478 13.8419 17.0159 13.5868C16.9341 13.5868 16.866 13.5527 16.866 13.5187C16.866 13.4847 16.9478 13.4507 17.0432 13.4507V13.4337C17.0568 13.1786 16.9887 12.5153 15.735 12.6173C14.495 12.7194 14.4677 13.6718 14.4677 13.6718C14.4677 13.6718 13.214 14.6753 13.8681 16.3761C14.4404 17.8898 17.1249 18.6891 18.6784 19.5565C20.2182 20.4239 20.1228 21.1723 20.1228 21.1723C20.1228 21.8186 19.0872 22.4989 18.2696 23.2132C17.452 23.9276 15.7214 25.1691 15.7214 26.6318C15.7214 27.9754 16.7979 29.0129 17.8471 30.1694C18.91 31.326 19.2507 32.0233 19.2507 32.6696C19.2507 33.554 18.0788 34.7446 17.4792 36.2243C16.8796 37.7039 18.0652 40 17.6972 38.7924C17.3157 37.5849 17.5201 36.7345 18.0107 35.8841C18.6102 34.8466 19.8912 33.8261 19.8912 32.4485C19.8912 31.292 18.5421 29.9313 18.5421 29.9313C17.3429 28.4346 16.5799 27.5842 16.5799 26.8359C16.5799 26.0876 17.1522 25.4242 18.7601 24.1146C20.3545 22.822 21.2947 22.3118 21.2947 21.0532C21.2947 19.9477 20.845 19.5565 18.1878 17.9578ZM16.1438 12.9405C16.2801 12.9405 16.3891 13.0255 16.3891 13.1276C16.3891 13.2296 16.2801 13.3146 16.1438 13.3146C16.0075 13.3146 15.8985 13.2296 15.8985 13.1276C15.8985 13.0255 16.0075 12.9405 16.1438 12.9405ZM48.9571 25.9855L47.1175 30.9518H47.8942L48.303 29.8123H50.347L50.7558 30.9518H51.5462L49.7065 25.9855H48.9571ZM48.5619 29.0809L49.325 26.9209L50.0881 29.0809H48.5619Z" fill="black"/>
</svg>
