<svg width="485" height="495" viewBox="0 0 485 495" fill="none" xmlns="http://www.w3.org/2000/svg">
<path d="M242.25 72.51C337.06 72.6 413.84 149.53 413.75 244.34C413.66 339.15 336.73 415.93 241.92 415.84C147.23 415.75 70.49 339 70.42 244.3C70.33 149.51 147.09 72.6 241.88 72.51C242 72.51 242.12 72.51 242.25 72.51ZM184.54 332.32C221.76 319.09 262.41 319.08 299.64 332.3L304.99 312.17C307.46 312.17 309.72 312.11 312 312.19C314.35 312 316.71 312.13 319.02 312.6C317.41 320.95 315.38 329.22 312.92 337.36C319.26 340.86 325.56 344.03 331.55 347.71C337.54 351.38 343.21 355.52 349 359.45C418.6 295.67 414.26 187.19 348.73 128.75C337.67 137.45 325.62 144.82 312.83 150.69C315.26 159.3 317.58 167.55 319.11 176.06H304.86C303.99 172.63 303.2 169.35 302.33 166.1C301.58 162.7 300.59 159.37 299.35 156.12C262.21 169.28 221.67 169.26 184.54 156.06L179.17 176.25C176.7 176.25 174.42 176.26 172.15 176.25C169.83 176.23 167.51 176.19 164.75 176.15L171.22 150.62C158.46 144.77 146.45 137.42 135.44 128.7C66.28 191.77 69.19 300.24 135.44 359.59C146.53 350.88 158.6 343.5 171.4 337.61C168.83 329.28 166.7 320.81 165.03 312.26H179.24L184.54 332.32ZM294.71 142.72C294.63 142.16 294.51 141.61 294.36 141.06C290 129.31 284.02 118.23 276.61 108.13C271.84 101.5 265.82 95.86 258.89 91.53C249.22 85.26 236.87 84.92 226.87 90.65C220.44 94.26 214.77 99.08 210.18 104.85C202.8 113.97 196.79 124.12 192.32 134.97C191.27 137.4 190.31 139.87 189.19 142.61C223.3 154.85 260.59 154.89 294.71 142.72ZM189.36 345.63C189.6 346.45 189.7 346.93 189.87 347.37C193.94 358.27 199.38 368.6 206.06 378.13C210.43 384.42 215.78 389.98 221.91 394.58C234.78 403.97 248.74 404.09 261.74 394.94C266.19 391.76 270.21 388.01 273.7 383.8C282.58 372.81 289.58 360.42 294.41 347.14C294.55 346.63 294.64 346.11 294.69 345.59C260.62 333.47 223.42 333.49 189.36 345.63ZM282.24 396.13C302.41 391.05 321.32 381.86 337.76 369.12C328.73 362.1 318.93 356.13 308.56 351.32C304.62 359.35 301 367.18 296.98 374.8C292.83 382.4 287.89 389.55 282.24 396.13ZM202.09 396.19C196.39 389.69 191.42 382.57 187.28 374.97C183.18 367.29 179.57 359.36 175.63 351.31C165.25 356.13 155.44 362.1 146.41 369.12C162.91 381.87 181.86 391.09 202.09 396.19ZM308.04 136.97C315.63 134.41 334.67 122.61 337.32 118.85C320.95 106.25 302.16 97.16 282.12 92.14C293.69 105.39 301.62 120.64 308.04 136.97ZM201.81 92.25C181.75 97.29 162.94 106.43 146.57 119.08C152.45 124.55 170.65 135.47 176.21 136.85C182.17 120.65 190.82 105.57 201.81 92.25Z" fill="white"/>
<path d="M333.55 463.52C333.58 468.72 332.47 473.86 330.3 478.59C326.21 487.72 317.31 493.74 307.32 494.14C303.75 494.47 300.15 494.18 296.69 493.27C287.81 491.06 280.74 484.35 278.05 475.6C275.35 467.73 275.31 459.19 277.93 451.3C281.18 440.6 290.75 433.06 301.91 432.41C307.88 431.76 313.91 432.96 319.18 435.84C326.22 439.81 331.11 446.72 332.51 454.68C333.09 457.57 333.22 460.57 333.55 463.52ZM296.33 463.19L296.83 463.23C296.83 465.51 296.68 467.8 296.86 470.07C296.89 474.05 297.74 477.97 299.35 481.61C300.27 483.66 302.29 485 304.53 485.06C306.89 485.22 309.1 483.87 310.04 481.7C310.84 480.11 311.42 478.42 311.76 476.67C313.11 468.74 313.26 460.65 312.2 452.68C311.85 450.14 311.18 447.64 310.22 445.26C309.48 443.01 307.36 441.5 304.99 441.54C302.53 441.45 300.28 442.88 299.31 445.13C298.64 446.35 298.18 447.67 297.95 449.04C297.31 453.75 296.85 458.47 296.33 463.19Z" fill="white"/>
<path d="M270.56 463.5C270.89 468.78 269.85 474.05 267.55 478.81C263.29 488.1 254.04 494.08 243.83 494.18C239.26 494.52 234.67 493.79 230.42 492.06C223.22 489.1 217.72 483.09 215.41 475.66C212.75 467.89 212.67 459.47 215.17 451.64C218.39 440.47 228.48 432.68 240.1 432.38C249.19 431.93 257.17 434.42 263.37 441.44C267.62 446.37 270.13 452.55 270.52 459.05C270.66 460.51 270.56 462.01 270.56 463.5ZM250.4 464.04C250.13 459.84 250.12 456.64 249.67 453.52C249.29 450.78 248.63 448.08 247.7 445.48C246.99 443.1 244.78 441.48 242.3 441.5C239.72 441.39 237.37 443 236.54 445.45C235.63 447.43 235.04 449.55 234.8 451.71C234.43 458.13 234.21 464.58 234.3 471.01C234.23 474.7 235.07 478.36 236.73 481.66C238.03 484.6 241.47 485.93 244.42 484.63C245.65 484.08 246.66 483.13 247.27 481.92C248.22 480.29 248.85 478.5 249.12 476.63C249.73 472.11 250.05 467.57 250.38 464.04H250.4Z" fill="white"/>
<path d="M101.47 446.31C101.8 446.45 102.15 446.55 102.5 446.63C105.96 446.58 108.81 449.35 108.86 452.81C108.86 453.02 108.86 453.23 108.84 453.43C109.13 457.48 106.37 461.11 102.4 461.92C101.03 462.15 99.63 462.22 98.24 462.13C93.86 462.03 90.27 458.63 89.92 454.26C89.11 448.63 91.19 442.98 95.45 439.21C99.95 435.21 105.67 432.85 111.68 432.51C118.93 431.51 126.31 432.97 132.64 436.65C139.63 440.65 143.05 448.86 140.96 456.64C139.94 460.65 137.31 464.06 133.69 466.06C129.56 468.46 125.14 470.31 120.54 471.59C117.22 472.61 113.85 473.51 110.6 474.73C107.55 475.59 104.93 477.57 103.26 480.27C103.91 480.11 104.55 479.92 105.18 479.69C110.53 477.17 116.6 476.62 122.32 478.14C124.14 478.64 125.99 479.04 127.85 479.35C131.88 479.95 133.49 478.62 133.97 474.48C134.04 473.89 134.07 473.3 134.16 472.33C137.25 472.12 140.35 472.13 143.44 472.37C143.8 477.78 143.8 482.97 141.15 487.79C138.68 492.3 134.42 493.75 129.69 494.16C125.12 494.46 120.53 493.91 116.16 492.53C113.3 491.71 110.45 490.79 107.54 490.19C104.67 489.6 101.7 489.23 99.91 492.39H90.04C89.61 487.89 90.45 483.35 92.49 479.31C95.05 474.67 98.75 470.76 103.24 467.95C106.59 465.64 110.11 463.57 113.53 461.37C114.8 460.59 116.03 459.74 117.2 458.82C119.76 456.83 121.19 453.72 121.04 450.48C121.1 447.51 119.34 444.8 116.6 443.64C111.51 441.27 105.46 442.33 101.47 446.31Z" fill="white"/>
<path d="M165.49 434.02C165.61 435.93 165.7 437.45 165.81 439.35C166.2 439.04 166.58 438.69 166.92 438.32C170.6 433.29 175.74 432.11 181.48 433.11C184.38 433.75 187.24 434.58 190.04 435.58C191.74 436.1 193.43 436.69 195.11 437.28C196.5 437.84 198.08 437.51 199.14 436.46L200.14 434.14H207.66C208.19 435.78 208.11 437.55 207.43 439.13C205.68 443.12 203.95 447.13 201.91 450.97C199.3 455.87 196.3 460.57 193.63 465.44C189.83 472.8 187.82 480.94 187.74 489.22C187.7 490.19 187.64 491.16 187.58 492.3H168.35C167.88 490.07 167.81 487.77 168.14 485.51C168.71 476.99 172.4 468.98 178.52 463.02C182.56 459.05 186.76 455.25 190.87 451.36C191.79 450.48 192.64 449.53 194.03 448.09C192.85 448.36 192.35 448.42 191.88 448.58C187.77 449.81 183.42 449.99 179.22 449.12C176.98 448.69 174.72 448.38 172.45 448.21C169.33 447.83 166.5 450.05 166.12 453.17C166.12 453.2 166.11 453.23 166.11 453.25C165.83 454.71 165.65 456.18 165.57 457.67C165.48 458.63 165.48 459.61 165.42 460.73H155.12V434.14C156.83 434.1 158.48 434.04 160.13 434.01C161.79 434.01 163.49 434.02 165.49 434.02Z" fill="white"/>
<path d="M349.01 441.62C354.54 440.74 360.04 439.91 362.85 434.15H377.77C377.82 435.25 377.89 436.3 377.9 437.36C377.91 450.86 377.91 464.37 377.9 477.87C377.9 478.57 377.88 479.26 377.9 479.96C378 483 378.94 484.01 382.04 484.2C383.51 484.29 384.99 484.22 386.62 484.22C386.94 486.81 387.02 489.42 386.87 492.02C384.5 492.61 353.95 492.81 349.06 492.29V484.58C351.8 483.7 354.98 485.02 358.08 482.99C358.48 481.93 358.74 480.83 358.86 479.71C358.94 470.28 358.91 460.84 358.9 451.41C358.84 450.92 358.74 450.44 358.59 449.97H349L349.01 441.62Z" fill="white"/>
<path d="M240.26 0.5L244.64 18.37L245.28 18.36L250.13 0.779999H262.11V31.16H254.68V9.65C251.98 16.6 250.35 23.84 248.14 31.06H241.3L236.01 9.2L235.38 9.22C235.35 10.99 235.31 12.76 235.29 14.53C235.27 16.3 235.26 18.11 235.24 19.9C235.22 21.79 235.25 23.68 235.17 25.57C235.09 27.33 234.89 29.09 234.72 31.12L228.11 30.76C227.46 28.59 227.48 5.08 228.12 0.5H240.26Z" fill="white"/>
<path d="M395.28 96.04L388.78 90.22L391.43 70.45L390.91 70.23L379.97 82.21L373.55 76.29L394.21 53.51L400.62 59.49L397.87 79.29L398.36 79.56L409.43 67.48L415.95 73.32L395.28 96.04Z" fill="white"/>
<path d="M112.52 57.13L103.06 44.25L110.06 39L128.31 63.68L121.29 68.96L101.73 62.17C105.07 67.22 108.48 71.38 111.7 75.97L104.71 81.19L86.43 56.51L93.45 51.31L112.01 57.74L112.52 57.13Z" fill="white"/>
<path d="M467.16 255.96C463.66 259.91 460.53 261.85 453.29 264.49V254.4L463.02 249.42C464.54 248.88 465.71 247.63 466.16 246.07C466.21 245.47 466.22 244.87 466.17 244.26H454.05C453.73 241.14 453.72 238 454.01 234.88C464.24 234.52 474.28 235.52 484.53 235.39C484.53 238.39 484.58 241.05 484.52 243.71C484.44 246.99 484.26 250.26 484.11 253.53C484.08 254.12 484.07 254.72 483.98 255.31C483.33 259.77 480.95 262.36 477.14 262.76C472.94 263.65 468.77 261.16 467.55 257.05C467.44 256.72 467.32 256.37 467.16 255.96ZM476.84 253.08C478.49 250.69 478.72 248.95 477.95 244.79L472.35 244.42C471.68 246.2 471.54 248.13 471.96 249.99C472.59 253.18 473.34 253.68 476.84 253.08Z" fill="white"/>
<path d="M189.38 5.9C194.79 5 199.85 4.14 204.93 3.34C206.59 3.04 208.27 2.87 209.95 2.83C213.57 2.55 216.87 4.9 217.8 8.4C219.02 12.01 217.7 15.99 214.57 18.16C214.03 18.54 213.47 18.88 212.83 19.29C217.35 21.87 219.35 24.05 223.81 31.22C222.1 31.54 220.49 31.86 218.87 32.14C217.21 32.43 215.55 32.68 213.7 32.98C211.41 30.04 209.09 27.08 206.79 24.11C205.76 22.32 203.53 21.61 201.65 22.48L203.51 34.63L194.37 36.16L189.38 5.9ZM209.07 12.99C208.79 10.55 207.7 9.25 205.75 9.38C203.63 9.31 201.52 9.75 199.6 10.66L200.71 16.59C204.1 16.07 207.41 16.38 209.07 12.99Z" fill="white"/>
<path d="M152.56 26.72C152.61 16.32 162.12 11.95 170.06 11.75C179.95 11.5 184.75 20.34 185.03 29.17C185.33 38.97 176.84 43.8 167.29 44.12C158.15 44.43 153.02 35.81 152.56 26.72ZM175.91 30.46C175.78 27.28 174.74 24.2 172.92 21.59C171.26 19.36 168.31 18.54 165.74 19.6C163.18 20.41 161.49 22.84 161.61 25.52C161.74 28.81 162.89 31.98 164.9 34.58C166.52 36.73 169.41 37.45 171.85 36.33C174.44 35.6 176.14 33.14 175.91 30.46Z" fill="white"/>
<path d="M380.51 50.62C380.16 57.29 376.38 63.3 370.52 66.5C367.48 68.1 363.91 68.35 360.68 67.2C356.95 66.06 353.6 63.93 350.98 61.05C347.89 57.81 346.72 53.19 347.9 48.86C348.86 44.76 351.09 41.08 354.27 38.32C357.93 34.9 363.22 33.87 367.89 35.67C371.69 36.92 375.05 39.23 377.58 42.33C379.55 44.64 380.59 47.59 380.51 50.62ZM371.83 49.44C371.83 45.12 366.81 40.89 362.61 43.5C359.04 45.62 356.69 49.31 356.29 53.44C355.85 57.8 361.06 61.51 364.84 59.51C368.56 57.38 371.13 53.68 371.83 49.44Z" fill="white"/>
<path d="M16.58 289.04C8.72999 289.04 3.70999 285.29 1.98999 278.02C1.32999 275.43 1.10998 272.75 1.33998 270.08C2.08998 263.31 5.55998 259.59 12.18 257.92C14.96 257.16 17.86 256.95 20.72 257.3C25.92 257.81 30.3 261.39 31.82 266.39C32.96 269.59 33.36 273 32.98 276.38C32.58 281.16 29.57 285.32 25.17 287.21C22.49 288.5 19.55 289.13 16.58 289.04ZM18.87 266.35C16.18 266.28 13.51 266.89 11.12 268.13C8.94998 269.48 7.83999 272.04 8.32999 274.55C8.59999 277.12 10.57 279.19 13.12 279.58C16.27 280.18 19.52 279.79 22.44 278.48C24.84 277.54 26.32 275.11 26.06 272.54C25.88 268.51 23.41 266.37 18.87 266.35Z" fill="white"/>
<path d="M484.11 223.41C481.92 223.78 480 224.13 478.07 224.41C473.95 225.01 469.82 225.64 465.69 226.15C459.73 226.9 453.34 224.21 451.86 216.86C451.24 213.95 450.93 210.99 450.93 208.02C450.76 203.57 453.58 199.55 457.83 198.21C460.95 197.25 464.15 196.56 467.39 196.15C471.4 195.49 475.44 195.04 479.47 194.5C480.63 197.38 481.11 200.49 480.86 203.58C476.62 204.2 472.32 204.81 468.01 205.44C466.14 205.71 464.25 205.85 462.42 206.26C459.54 206.64 457.51 209.28 457.89 212.16C457.97 212.8 458.17 213.41 458.48 213.98C459.15 215.94 461.1 217.18 463.16 216.94C465.73 216.73 468.28 216.38 470.84 216.03C474.08 215.59 477.32 215.07 480.56 214.63C481.29 214.58 482.02 214.58 482.76 214.62L484.11 223.41Z" fill="white"/>
<path d="M448.98 154.08L442.34 140.77L436.71 143.55L443.94 158.21L438.08 161.2C437.8 160.86 437.55 160.49 437.32 160.12C433.74 152.91 430.18 145.7 426.42 138.12L454.02 124.52L465.21 147.24L459.58 150.09L452.38 135.81L447.82 138.02L454.33 151.34L448.98 154.08Z" fill="white"/>
<path d="M441.52 119.95L436.5 113.58C438.15 109.64 437.73 107.03 435.31 105.62C433.97 104.84 433.37 105.06 431.78 107.06L433.11 111.09C433.92 113.54 434.88 115.95 435.5 118.44C436.5 121.57 435.55 124.99 433.09 127.17C430.5 129.64 426.73 130.42 423.37 129.19C422.06 128.74 420.84 128.06 419.76 127.19C416.27 124.34 413.71 120.52 412.4 116.21C411.16 112.09 412.79 107.64 416.4 105.28L421.6 111.83C420.21 113.84 418.84 115.87 420 118.39C420.64 120.22 422.23 121.55 424.15 121.84C426.82 120.81 427.5 119.73 426.84 117.18C426.44 115.65 425.65 114.22 425.28 112.69C424.6 110.22 424.13 107.69 423.87 105.14C423.51 100.06 428.96 96.63 433.51 97.86C434.58 98.1 435.59 98.53 436.51 99.12C440.98 102.2 444.07 106.91 445.11 112.24C445.62 114.91 444.42 117.31 441.52 119.95Z" fill="white"/>
<path d="M14.46 298.28L17.4 306.26C15.17 307.93 13.96 309.92 15.23 312.69C15.97 314.31 16.52 314.63 18.74 314.56C20.34 313.33 19.9 311.59 19.88 309.92C19.74 306.86 19.78 303.79 19.97 300.74C20.67 293.43 29.43 291.2 34.65 295.19C35.77 296.02 36.72 297.05 37.47 298.22C40.17 302.44 41.36 307.46 40.84 312.45C40.36 316.41 37.61 318.56 33.97 320.26L30.95 312.29C35.78 308.12 35.72 303.94 30.9 301.8C28.25 302.58 27.74 303.1 27.65 305.62C27.58 307.6 27.79 309.6 27.7 311.58C27.68 313.46 27.47 315.34 27.06 317.18C26.04 321.35 21.84 323.91 17.66 322.9C16.69 322.66 15.78 322.24 14.96 321.66C13.88 320.95 12.96 320.03 12.23 318.96C9.45998 314.9 8.20999 309.99 8.68999 305.09C9.11999 301.89 11.37 299.22 14.46 298.28Z" fill="white"/>
<path d="M298.2 38L288.86 36.2C288.56 34.24 288.32 32.61 288.06 30.9L277.47 28.88L274.67 33.55L265.56 31.75L282.59 3.81L292.58 5.71C294.61 16.3 296.39 26.89 298.2 38ZM287.35 24.24C287.31 20.5 286.71 16.79 285.58 13.22L280.53 22.82L287.35 24.24Z" fill="white"/>
<path d="M46.48 148.99C44.85 148.61 43.18 148.36 41.59 147.83C37.73 146.53 34.13 144.54 30.98 141.96C26.85 139.16 25.39 133.75 27.56 129.25C28.24 127.5 29.16 125.84 30.29 124.34C32.51 121.14 36.47 119.63 40.26 120.53C45.64 121.63 50.61 124.16 54.67 127.86C58.59 130.8 59.71 136.19 57.28 140.45C56.44 142.24 55.39 143.92 54.15 145.46C52.25 147.73 49.44 149.03 46.48 148.99ZM47.64 141.18C49.83 141.26 51.03 140.67 51.6 139.29C52.27 137.77 51.82 135.99 50.5 134.98C46.77 131.7 42.34 129.32 37.54 128.01C35.95 127.49 34.22 128.18 33.43 129.66C32.7 130.9 32.83 132.46 33.76 133.55C34.04 133.96 34.38 134.32 34.77 134.63C38.21 137.31 42.06 139.43 46.16 140.91C46.64 141.05 47.14 141.14 47.64 141.18Z" fill="white"/>
<path d="M457.81 182.53V190.18C452.8 191.47 447.59 189.02 445.38 184.34C443.92 181.51 443.06 178.4 442.86 175.22C442.4 170.11 445.02 165.23 449.53 162.79C453.01 160.62 457.06 159.52 461.17 159.64C464.6 159.64 467.87 161.1 470.15 163.66C473.51 167.41 475.26 172.33 475.03 177.36C474.83 181.3 472.66 184.87 469.27 186.88L465.18 179.81C465.56 179.38 465.9 179.03 466.21 178.66C468.42 176.23 468.24 172.48 465.82 170.27C464.53 169.09 462.78 168.54 461.04 168.77C458.22 169.3 455.49 170.21 452.91 171.47C450.6 172.48 449.42 175.06 450.17 177.47C450.56 179.91 452.48 181.81 454.92 182.19C455.77 182.35 456.66 182.39 457.81 182.53Z" fill="white"/>
<path d="M32.96 176.26C27.37 175.67 22.05 173.6 17.52 170.27C14.48 168.16 13.06 164.4 13.95 160.81C14.38 158.68 15.05 156.61 15.95 154.64C17.68 150.65 21.9 148.35 26.19 149.06C31.45 149.54 36.5 151.37 40.85 154.37C45.01 156.73 46.84 161.76 45.17 166.24C44.8 167.57 44.31 168.88 43.73 170.13C41.77 174.38 38.35 176.29 32.96 176.26ZM35.01 168.54C37.41 168.52 38.68 167.72 39.23 166.2C39.78 164.75 39.25 163.11 37.96 162.25C37.06 161.47 36.06 160.82 34.99 160.31C32.63 159.3 30.2 158.41 27.77 157.56C26.64 157.18 25.48 156.92 24.3 156.76C22.48 156.42 20.66 157.39 19.93 159.09C19.35 160.56 19.79 161.88 21.43 163.22C22.1 163.81 22.86 164.29 23.68 164.65C26.72 165.84 29.78 166.97 32.86 168.06C33.57 168.27 34.3 168.42 35.04 168.52L35.01 168.54Z" fill="white"/>
<path d="M10.02 226.75L8.61001 234.54C2.56001 233.3 -0.139999 230.03 0.0100013 224.01C0.0700013 221.53 0.420004 219.07 1.06 216.67C2.15 212.04 6.79 209.16 11.42 210.25C12.66 210.54 13.82 211.1 14.81 211.89C17.06 213.7 18.91 215.95 20.25 218.51C21.4 220.34 22.55 222.17 23.88 224.3C25.32 222.06 24.67 219.93 24.99 217.97C25.32 215.93 25.45 213.86 25.71 211.42L32.37 211.78C31.59 220.42 30.85 228.69 30.09 237.28C27.15 236.67 24.46 235.2 22.35 233.06C20.37 230.85 18.65 228.4 16.89 226.01C15.83 224.57 14.91 223.03 13.91 221.56C13.58 221.07 13.2 220.6 12.79 220.17C11.71 218.81 9.92001 218.22 8.24001 218.66C6.79001 219.18 5.80001 220.52 5.75001 222.06C5.69001 223.81 6.77 225.4 8.42 225.98C8.87 226.16 9.30001 226.39 10.02 226.75Z" fill="white"/>
<path d="M144.34 34.05L147.09 39.26L136.55 44.96L142.29 56.08L134.09 60.46L119.8 33.26L140.46 22.42L143.52 27.97L131.22 34.55L133.72 39.53L144.34 34.05Z" fill="white"/>
<path d="M445.92 337.03L434.17 331.89L437.87 323.41L449.77 328.46L470.83 324.73L466.72 334.06L454.59 335.72L461.62 345.7L457.56 355.13L445.92 337.03Z" fill="white"/>
<path d="M314.55 43.86L305.8 40.88L313.14 19.16C310.4 17.33 307.12 17.06 304.1 15.47L306.46 8.67L333.71 17.94L331.35 24.87L322.1 21.87L314.55 43.86Z" fill="white"/>
<path d="M447.95 292.23L470.44 298.11L473.06 288.76L480.11 290.61L472.86 318.36L465.71 316.62L468.11 307.19L445.65 301.2L447.95 292.23Z" fill="white"/>
<path d="M9.7 202.6L3.06 201.02L8.49001 176.91L13.88 178.09C18.85 186.22 26.74 192.16 35.93 194.69L34.15 202.62C25.84 200.03 18.58 194.84 13.43 187.81C11.75 192.85 11.26 197.67 9.7 202.6Z" fill="white"/>
<path d="M54.27 106.94C53.68 109.9 53.19 112.42 52.66 114.93C52.49 115.44 52.26 115.94 51.99 116.41L46.69 112.53C48.16 108.02 48.77 103.55 46.28 99.16L50.41 93.53L75.52 112.04L70.58 118.86L54.27 106.94Z" fill="white"/>
<path d="M99.29 86.07L92.88 92.93L71.76 70.72L78.23 63.99L99.29 86.07Z" fill="white"/>
<path d="M336.67 53.42L328.27 49.38L341.36 21.66L349.84 25.6L336.67 53.42Z" fill="white"/>
<path d="M45.92 322.43L49.6 331L21.43 343.17L17.74 334.61L45.92 322.43Z" fill="white"/>
<path d="M450.91 277.67L452.24 268.66C462.36 269.88 472.26 271.4 482.51 272.94L481.26 281.99C471.03 280.73 461.09 279.27 450.91 277.67Z" fill="white"/>
<path d="M375.24 244.33C375.33 252.32 373.55 260.23 370.06 267.41C365.58 276.18 358.05 283.01 348.88 286.61C342.22 289.25 335.16 290.72 328 290.98C319.66 291.64 311.27 290.73 303.27 288.31C285.96 282.76 275.59 271.09 272.95 252.91C271.64 244.63 272.17 236.17 274.5 228.12C278.01 215.84 287.14 205.97 299.11 201.5C309.37 197.6 320.43 196.24 331.33 197.55C337.59 197.97 343.73 199.46 349.49 201.94C363.14 207.57 372.67 220.17 374.37 234.84C374.83 237.98 374.96 241.17 375.24 244.33ZM341.24 244.33C340.96 240.08 340.82 235.8 340.35 231.57C340 226.8 338.71 222.16 336.55 217.89C334.16 213.14 329.22 210.21 323.91 210.4C318.5 210.13 313.42 213.04 310.92 217.85C309.16 221.2 308.02 224.83 307.54 228.58C306.14 237.82 305.97 247.2 307.04 256.48C307.37 260.74 308.39 264.93 310.06 268.86C313.28 276.39 322.01 279.89 329.54 276.67C332.85 275.25 335.53 272.68 337.09 269.44C338.01 267.46 338.73 265.4 339.22 263.27C340.57 257.04 341.24 250.7 341.24 244.33Z" fill="white"/>
<path d="M245.39 229.9C244.8 228.27 244.35 226.96 243.87 225.66C240.61 216.9 234.05 212.44 224.99 211.47C221.54 210.94 218.01 211.13 214.64 212.03C212.43 212.67 210.44 213.89 208.87 215.58C205.64 219.15 205.99 223.17 210.09 225.67C212.48 227.08 215.06 228.15 217.74 228.85C223.38 230.4 229.15 231.52 234.81 233.04C241.39 234.63 247.67 237.25 253.43 240.81C259.62 244.66 263.59 251.25 264.09 258.52C265.14 265.9 263.07 273.38 258.37 279.17C254.8 283.36 250.16 286.5 244.94 288.25C237.96 290.6 230.57 291.54 223.22 291.01C214.57 290.54 206.1 288.35 198.3 284.57C197.96 284.41 197.58 284.31 197 284.11L193.68 288.78H181.96V256.37C183.98 256.06 186.04 255.98 188.08 256.12C190.06 256.07 192.04 256.11 194.27 256.11C194.68 257.18 195.04 258.18 195.45 259.16C199.53 268.88 206.38 275.39 216.95 277.42C220.46 278.23 224.11 278.15 227.58 277.19C229.48 276.63 231.25 275.73 232.82 274.52C235.85 272.36 236.56 268.15 234.41 265.12C233.97 264.5 233.43 263.96 232.81 263.52C230.26 261.64 227.43 260.16 224.43 259.14C218.62 257.12 212.63 255.64 206.77 253.77C202.68 252.54 198.66 251.09 194.73 249.43C187.26 246.11 181.79 240.71 180.13 232.5C177.48 219.39 182.99 207.99 195.01 201.65C200.16 199.02 205.83 197.55 211.6 197.32C222.55 196.51 233.54 198.5 243.51 203.1C243.87 203.27 244.25 203.39 244.9 203.64L247.33 199.58H259.67V229.83C257.38 229.85 255.04 229.89 252.71 229.9C250.31 229.91 247.93 229.9 245.39 229.9Z" fill="white"/>
<path d="M171.48 276.07V288.26H119.35V276.07C120.96 276.07 122.53 276.1 124.08 276.06C125.17 276.06 126.26 275.97 127.34 275.79C128.99 275.63 130.31 274.33 130.5 272.68C130.74 271.41 130.9 270.13 130.96 268.85C130.99 252.35 130.99 235.84 130.96 219.34C130.95 213.5 129.56 212.17 123.72 212.07C122.34 212.05 120.95 212.07 119.35 212.07V199.94H171.12C171.8 203.88 171.86 207.91 171.29 211.87C170.57 211.94 169.81 212.03 169.04 212.08C168.27 212.13 167.45 212.08 166.65 212.1C161.33 212.29 160.07 213.43 160.07 218.68C160.02 235.58 160.02 252.48 160.07 269.38C160.09 274.8 161.36 275.97 166.81 276.07C168.29 276.09 169.76 276.07 171.48 276.07Z" fill="white"/>
</svg>
