<svg width="52" height="50" viewBox="0 0 52 50" fill="none" xmlns="http://www.w3.org/2000/svg">
<path d="M25.9027 0.766313C29.2591 0.766313 32.5235 1.40391 35.5934 2.66913C38.5609 3.89453 41.2216 5.63795 43.5035 7.85959C45.7855 10.0812 47.5864 12.6814 48.835 15.5605C50.1345 18.5493 50.7893 21.7174 50.7893 24.995C50.7893 27.5454 50.3903 30.0359 49.5921 32.4368L44.5371 29.8765C44.9771 28.2925 45.1919 26.6487 45.1919 24.995C45.1919 22.4546 44.6804 19.9938 43.6773 17.6825C42.7053 15.451 41.3137 13.4385 39.5433 11.715C37.773 9.99153 35.7059 8.63665 33.4138 7.69021C31.0397 6.7139 28.5121 6.21577 25.9027 6.21577C23.2932 6.21577 20.7657 6.7139 18.3916 7.69021C16.0994 8.63665 14.0323 9.99153 12.262 11.715C10.4917 13.4385 9.10003 15.451 8.12788 17.6825C7.12505 19.9938 6.6134 22.4546 6.6134 24.995C6.6134 26.6587 6.83848 28.3024 7.26828 29.8865L2.21318 32.447C1.415 30.046 1.01591 27.5454 1.01591 24.995C1.01591 21.7273 1.67083 18.5493 2.97042 15.5605C4.22909 12.6714 6.01987 10.0812 8.3018 7.85959C10.5838 5.63795 13.2546 3.88456 16.212 2.66913C19.2819 1.40391 22.5462 0.766313 25.9027 0.766313ZM25.9027 0.0888672C11.7708 0.0888672 0.320068 11.2368 0.320068 24.995C0.320068 27.9438 0.852184 30.7732 1.81409 33.4032L8.08693 30.2353C7.56506 28.5517 7.29903 26.7982 7.29903 25.005C7.29903 22.5541 7.7902 20.1832 8.76235 17.9615C9.70374 15.8096 11.0443 13.867 12.7532 12.2032C14.4621 10.5395 16.4576 9.2344 18.6679 8.31784C20.9601 7.3714 23.3955 6.89321 25.9027 6.89321C28.4098 6.89321 30.8554 7.3714 33.1374 8.31784C35.3478 9.2344 37.3432 10.5395 39.0522 12.2032C40.7609 13.867 42.1014 15.8096 43.0429 17.9615C44.0151 20.1931 44.5063 22.5641 44.5063 25.005C44.5063 26.7982 44.2403 28.5517 43.7183 30.2353L49.9912 33.4032C50.9634 30.7732 51.4852 27.9438 51.4852 24.995C51.4852 11.2368 40.0345 0.0888672 25.9027 0.0888672Z" fill="white"/>
<path d="M25.9026 49.9012C37.0055 49.9012 46.4506 43.0171 49.9911 33.3934L43.7184 30.2253C43.524 30.843 43.309 31.4508 43.0429 32.0385C42.1015 34.1905 40.761 36.1331 39.052 37.7969C37.3432 39.4605 35.3476 40.7655 33.1374 41.6821C30.8451 42.6286 28.4097 43.1068 25.9026 43.1068C23.3954 43.1068 20.9498 42.6286 18.6678 41.6821C16.4575 40.7655 14.4621 39.4605 12.7531 37.7969C11.0442 36.1331 9.70368 34.1905 8.76228 32.0385C8.50646 31.4408 8.28131 30.843 8.08686 30.2253L1.81404 33.3934C5.35467 43.0171 14.7997 49.9012 25.9026 49.9012Z" fill="#414141"/>
<path d="M13.6123 22.1257H12.8755L15.7408 15.6701H16.3958L19.2405 22.1257H18.4935L17.7669 20.4322H14.3389L13.6123 22.1257ZM14.5845 19.8243H17.5111L16.0478 16.3973L14.5845 19.8243Z" fill="white"/>
<path d="M20.0696 22.1257V15.6701H20.7449V22.1257H20.0696Z" fill="white"/>
<path d="M27.9081 21.0797C27.7956 21.2393 27.6625 21.3986 27.4988 21.548C27.3349 21.6974 27.1509 21.827 26.9463 21.9365C26.7414 22.0461 26.5062 22.1358 26.2503 22.2056C25.9944 22.2653 25.7183 22.3052 25.4215 22.3052C24.9202 22.3052 24.4595 22.2155 24.0401 22.0461C23.6102 21.8768 23.2521 21.6377 22.9451 21.3388C22.638 21.0398 22.4028 20.6813 22.2287 20.2628C22.0549 19.8545 21.9729 19.3961 21.9729 18.908C21.9729 18.4198 22.065 17.9615 22.2389 17.5531C22.413 17.1446 22.6586 16.786 22.9655 16.4771C23.2725 16.1783 23.641 15.9391 24.0604 15.7698C24.4801 15.6005 24.9405 15.5108 25.4317 15.5108C25.6773 15.5108 25.9127 15.5307 26.1479 15.5805C26.3834 15.6303 26.5982 15.7001 26.8132 15.7897C27.0178 15.8794 27.2021 15.989 27.3759 16.1085C27.5398 16.238 27.6829 16.3775 27.7956 16.5369L27.2326 16.9354C27.1611 16.8358 27.069 16.7262 26.9565 16.6266C26.8438 16.527 26.7007 16.4273 26.547 16.3576C26.3936 16.2779 26.2196 16.2181 26.0354 16.1683C25.8512 16.1185 25.6568 16.0985 25.4419 16.0985C25.0121 16.0985 24.6234 16.1783 24.2856 16.3277C23.948 16.4772 23.6614 16.6863 23.4158 16.9453C23.1803 17.2044 22.9963 17.5033 22.8734 17.842C22.7507 18.1807 22.6892 18.5393 22.6892 18.918C22.6892 19.2965 22.7507 19.6552 22.8836 19.9939C23.0167 20.3327 23.1907 20.6315 23.4364 20.8904C23.6716 21.1496 23.9581 21.3488 24.306 21.5082C24.6438 21.6575 25.0326 21.7373 25.4521 21.7373C25.8308 21.7373 26.1991 21.6575 26.5368 21.5082C26.8847 21.3587 27.1713 21.1097 27.3965 20.7809L27.9081 21.0797Z" fill="white"/>
<path d="M28.8184 15.6701H30.6911C31.0286 15.6701 31.3357 15.7099 31.6119 15.7797C31.8883 15.8494 32.1237 15.959 32.3182 16.0985C32.5125 16.238 32.666 16.4173 32.7684 16.6365C32.8707 16.8556 32.932 17.1046 32.932 17.3936C32.932 17.6825 32.8808 17.9415 32.7684 18.1507C32.6556 18.3699 32.5021 18.5492 32.3078 18.6887C32.1133 18.8282 31.8781 18.9378 31.5915 19.0175C31.3151 19.0872 31.0082 19.127 30.6705 19.127H29.4937V22.1257H28.8184V15.6701ZM30.6399 18.5692C31.1718 18.5692 31.571 18.4695 31.8473 18.2703C32.1237 18.071 32.2566 17.7821 32.2566 17.3936C32.2566 16.9951 32.1133 16.6962 31.8269 16.5169C31.5403 16.3276 31.1413 16.238 30.6295 16.238H29.4834V18.5692H30.6399Z" fill="white"/>
<path d="M33.3011 22.1257H32.5644L35.4296 15.6701H36.0844L38.9293 22.1257H38.1823L37.4558 20.4322H34.0277L33.3011 22.1257ZM34.2734 19.8243H37.1999L35.7365 16.3973L34.2734 19.8243Z" fill="white"/>
<path d="M16.3136 29.5379C16.1806 29.3685 15.9964 29.2292 15.7713 29.1293C15.5462 29.0297 15.3313 28.9799 15.1266 28.9799C15.0243 28.9799 14.9118 28.99 14.7992 29.0099C14.6866 29.0297 14.5945 29.0597 14.5024 29.1194C14.4103 29.1692 14.3387 29.2391 14.2773 29.3187C14.2159 29.3984 14.1852 29.508 14.1852 29.6375C14.1852 29.747 14.2057 29.8367 14.2568 29.9066C14.308 29.9762 14.3694 30.0461 14.4615 30.0959C14.5536 30.1457 14.6559 30.2054 14.789 30.2453C14.9118 30.2951 15.055 30.335 15.2085 30.3848C15.4336 30.4545 15.669 30.5342 15.9146 30.6239C16.1602 30.7134 16.3751 30.833 16.5797 30.9725C16.7844 31.122 16.9481 31.3013 17.0811 31.5105C17.2141 31.7295 17.2756 31.9986 17.2756 32.3175C17.2756 32.686 17.2039 33.0048 17.0607 33.2838C16.9174 33.5527 16.7332 33.7819 16.4979 33.9513C16.2625 34.1305 15.9862 34.2601 15.6792 34.3398C15.3723 34.4295 15.055 34.4692 14.7378 34.4692C14.2671 34.4692 13.8066 34.3897 13.3563 34.2301C12.9163 34.0708 12.5479 33.8416 12.2512 33.5428L13.3052 32.5068C13.4689 32.706 13.6838 32.8653 13.9498 32.9949C14.2159 33.1243 14.482 33.1942 14.7378 33.1942C14.8606 33.1942 14.9731 33.1842 15.0857 33.1542C15.1983 33.1344 15.3006 33.0945 15.3825 33.0348C15.4643 32.985 15.536 32.9052 15.5871 32.8155C15.6383 32.7258 15.6588 32.6163 15.6588 32.4867C15.6588 32.3673 15.6281 32.2575 15.5666 32.178C15.5053 32.0883 15.4131 32.0185 15.3006 31.9488C15.188 31.8792 15.0448 31.8192 14.8708 31.7595C14.6968 31.6998 14.5024 31.64 14.2875 31.5702C14.0726 31.5005 13.868 31.4208 13.6633 31.3311C13.4587 31.2414 13.2745 31.122 13.121 30.9825C12.9572 30.843 12.8345 30.6636 12.7321 30.4643C12.64 30.2652 12.5888 30.0161 12.5888 29.7173C12.5888 29.3585 12.6605 29.0498 12.814 28.8008C12.9675 28.5416 13.1619 28.3325 13.4075 28.1732C13.6531 28.0136 13.9294 27.8842 14.2363 27.8143C14.5433 27.7346 14.8503 27.7048 15.1676 27.7048C15.5462 27.7048 15.9248 27.7745 16.3136 27.904C16.7026 28.0337 17.0504 28.2328 17.337 28.5017L16.3136 29.5379Z" fill="white"/>
<path d="M25.0432 31.0622C25.0432 31.5701 24.9511 32.0384 24.7669 32.4668C24.5828 32.8853 24.3372 33.2538 24.0097 33.5526C23.6926 33.8517 23.3037 34.0907 22.8636 34.2501C22.4236 34.4094 21.9425 34.4991 21.4208 34.4991C20.8988 34.4991 20.4282 34.4193 19.9778 34.2501C19.5378 34.0907 19.1592 33.8517 18.8317 33.5526C18.5145 33.2538 18.2587 32.8853 18.0745 32.4668C17.8903 32.0483 17.7982 31.58 17.7982 31.0622C17.7982 30.544 17.8903 30.0758 18.0745 29.6575C18.2587 29.239 18.5043 28.8903 18.8317 28.5913C19.149 28.3024 19.5378 28.0734 19.9778 27.9139C20.4178 27.7545 20.8988 27.6748 21.4208 27.6748C21.9425 27.6748 22.4236 27.7545 22.8636 27.9139C23.3037 28.0734 23.6926 28.2925 24.0097 28.5913C24.3268 28.8802 24.5828 29.239 24.7669 29.6575C24.9511 30.0758 25.0432 30.544 25.0432 31.0622ZM23.324 31.0622C23.324 30.7832 23.2729 30.5242 23.1808 30.275C23.0887 30.0358 22.9557 29.8267 22.7919 29.6473C22.6282 29.4781 22.4236 29.3386 22.1882 29.239C21.9528 29.1393 21.697 29.0896 21.4104 29.0896C21.124 29.0896 20.8785 29.1393 20.6431 29.239C20.4077 29.3386 20.2132 29.4781 20.0393 29.6473C19.8755 29.8168 19.7425 30.026 19.6504 30.275C19.5583 30.5141 19.5174 30.7832 19.5174 31.0622C19.5174 31.351 19.5685 31.6199 19.6606 31.869C19.7528 32.1182 19.8858 32.3273 20.0495 32.5067C20.2132 32.6858 20.4178 32.8253 20.6431 32.925C20.8785 33.0246 21.1342 33.0746 21.4104 33.0746C21.6868 33.0746 21.9426 33.0246 22.178 32.925C22.4134 32.8253 22.6078 32.6858 22.7817 32.5067C22.9454 32.3273 23.0785 32.1182 23.1706 31.869C23.2729 31.6199 23.324 31.351 23.324 31.0622Z" fill="white"/>
<path d="M30.6815 34.2004C30.2516 34.3897 29.7503 34.4893 29.1875 34.4893C28.6757 34.4893 28.2051 34.4095 27.7651 34.2403C27.3352 34.0807 26.9568 33.8416 26.6394 33.5428C26.3222 33.244 26.0663 32.8854 25.8924 32.4669C25.7082 32.0484 25.616 31.5903 25.616 31.0821C25.616 30.564 25.7082 30.0959 25.8924 29.6774C26.0767 29.2589 26.3324 28.9003 26.6598 28.6015C26.9873 28.3025 27.366 28.0835 27.806 27.9241C28.2461 27.7646 28.7167 27.685 29.2181 27.685C29.6889 27.685 30.1493 27.7646 30.5996 27.9241C31.0498 28.0835 31.4183 28.3225 31.7049 28.6313L30.6097 29.6873C30.4563 29.4881 30.2618 29.3387 30.0162 29.2391C29.7706 29.1395 29.525 29.0896 29.2692 29.0896C28.993 29.0896 28.7269 29.1395 28.4917 29.2391C28.2562 29.3387 28.0517 29.4782 27.8878 29.6576C27.7241 29.8368 27.591 30.0461 27.4989 30.2852C27.407 30.5243 27.3558 30.7932 27.3558 31.0722C27.3558 31.3611 27.407 31.6302 27.4989 31.8792C27.591 32.1183 27.7241 32.3274 27.8878 32.5068C28.0517 32.676 28.2562 32.8155 28.4813 32.9151C28.7167 33.0148 28.9623 33.0646 29.2387 33.0646C29.5558 33.0646 29.8322 33.0048 30.0674 32.8854C30.3028 32.7657 30.4973 32.6064 30.6405 32.4072L31.756 33.4333C31.4695 33.7522 31.1114 34.0111 30.6815 34.2004Z" fill="white"/>
<path d="M34.7439 33.0346L37.3329 30.763C37.4966 30.6136 37.6297 30.4543 37.7218 30.295C37.8241 30.1354 37.8753 29.9661 37.8753 29.767C37.8753 29.5378 37.8035 29.3485 37.6501 29.209C37.4966 29.0695 37.3021 28.9998 37.0464 28.9998C36.7801 28.9998 36.5653 29.0895 36.4017 29.2687C36.2378 29.4481 36.1355 29.6871 36.1049 29.9761L34.6006 29.7768C34.6415 29.4481 34.7337 29.1591 34.8769 28.9002C35.0202 28.6411 35.2045 28.422 35.4295 28.2426C35.6547 28.0632 35.9105 27.9238 36.2072 27.8343C36.4938 27.7346 36.8007 27.6948 37.1283 27.6948C37.4352 27.6948 37.732 27.7346 38.0186 27.8142C38.3049 27.894 38.5607 28.0135 38.7859 28.1829C39.0111 28.3422 39.1952 28.5516 39.3283 28.8006C39.4614 29.0496 39.5329 29.3385 39.5329 29.6773C39.5329 29.9065 39.5024 30.1156 39.4408 30.3049C39.3794 30.4941 39.2873 30.6635 39.185 30.823C39.0725 30.9823 38.9496 31.1317 38.8063 31.2613C38.6632 31.4008 38.52 31.5301 38.3665 31.6696L36.8313 33.0047H39.5431V34.3397H34.7439V33.0346Z" fill="white"/>
<path d="M38.9288 24.8457H12.8755V25.1245H38.9288V24.8457Z" fill="white"/>
<path d="M5.4364 24.218L5.41593 24.4671L3.18514 23.3213L3.2056 23.1021L5.60012 22.3152L5.57966 22.5741L4.95545 22.7735L4.86334 23.939L5.4364 24.218ZM4.63823 23.8293L4.72008 22.8332L3.4512 23.2317L4.63823 23.8293Z" fill="white"/>
<path d="M5.69235 21.817L5.65141 22.046L3.36945 21.7073L3.41038 21.4783L5.69235 21.817Z" fill="white"/>
<path d="M5.84594 19.3563C5.8971 19.4061 5.93803 19.4659 5.97897 19.5257C6.0199 19.5853 6.0506 19.6651 6.07106 19.7348C6.09154 19.8145 6.10178 19.8943 6.11201 19.984C6.11201 20.0735 6.10178 20.1632 6.08129 20.2628C6.04037 20.4322 5.97897 20.5717 5.88687 20.7013C5.79478 20.8307 5.68222 20.9303 5.54919 21.01C5.41615 21.0898 5.27289 21.1397 5.1194 21.1595C4.9659 21.1793 4.79195 21.1793 4.62822 21.1397C4.46448 21.0997 4.30075 21.04 4.17795 20.9402C4.04494 20.8507 3.9426 20.741 3.86072 20.6116C3.77887 20.482 3.72769 20.3425 3.697 20.1932C3.66631 20.0437 3.67654 19.8844 3.71746 19.7149C3.73795 19.6352 3.76864 19.5556 3.79934 19.4857C3.84026 19.416 3.88119 19.3463 3.92214 19.2865C3.9733 19.2268 4.02445 19.167 4.07563 19.1272C4.13702 19.0773 4.19843 19.0475 4.25982 19.0175L4.35193 19.2367C4.31098 19.2467 4.27005 19.2766 4.2189 19.3065C4.17795 19.3363 4.12679 19.3762 4.08587 19.416C4.04494 19.4659 4.01422 19.5157 3.97329 19.5655C3.9426 19.6252 3.92214 19.685 3.90168 19.7548C3.87096 19.8943 3.86072 20.0338 3.89144 20.1533C3.92214 20.2828 3.96306 20.3923 4.03471 20.492C4.10633 20.5916 4.19843 20.6713 4.30075 20.741C4.41332 20.8108 4.52588 20.8607 4.65891 20.8904C4.79195 20.9203 4.92498 20.9303 5.04776 20.9105C5.18079 20.8904 5.29336 20.8607 5.40593 20.8009C5.51849 20.741 5.61058 20.6614 5.69245 20.5618C5.77431 20.4622 5.82548 20.3425 5.86641 20.203C5.8971 20.0735 5.8971 19.954 5.87664 19.8245C5.84594 19.6951 5.78453 19.5853 5.69245 19.4857L5.84594 19.3563Z" fill="white"/>
<path d="M4.11612 18.4496L4.33101 17.8418C4.37194 17.7323 4.41288 17.6426 4.47427 17.553C4.52543 17.4732 4.58684 17.4035 4.65846 17.3637C4.7301 17.3138 4.81195 17.284 4.89383 17.274C4.97568 17.264 5.06779 17.274 5.17012 17.3039C5.27244 17.3338 5.35431 17.3836 5.4157 17.4433C5.47711 17.5032 5.51804 17.5729 5.54873 17.6526C5.57945 17.7323 5.58968 17.822 5.57945 17.9215C5.56919 18.0212 5.54873 18.1208 5.50781 18.2304L5.37477 18.609L6.39808 18.9477L6.32646 19.1668L4.11612 18.4496ZM5.18036 18.5592L5.31339 18.1905C5.37477 18.0212 5.385 17.8817 5.34408 17.7622C5.30315 17.6526 5.22128 17.5729 5.08825 17.533C4.95522 17.4832 4.83242 17.5032 4.74033 17.5729C4.64823 17.6426 4.56638 17.7622 4.5152 17.9315L4.38216 18.3002L5.18036 18.5592Z" fill="white"/>
<path d="M6.81845 17.7422L6.71611 17.9713L4.99696 16.1682L5.08904 15.9589L7.61661 15.9788L7.51428 16.208L6.84913 16.198L6.36818 17.264L6.81845 17.7422ZM6.20445 17.1146L6.61378 16.208L5.28346 16.1781L6.20445 17.1146Z" fill="white"/>
<path d="M7.08397 13.1398C7.00212 13.1497 6.92026 13.1697 6.83835 13.2095C6.7565 13.2493 6.69512 13.3191 6.63369 13.4088C6.603 13.4586 6.58258 13.5084 6.56211 13.5682C6.54163 13.6279 6.54163 13.6877 6.54163 13.7375C6.55183 13.7973 6.56211 13.8471 6.59279 13.9069C6.62348 13.9567 6.67464 14.0065 6.73608 14.0463C6.79745 14.0862 6.85883 14.1061 6.90999 14.1061C6.96116 14.1061 7.02259 14.0962 7.07376 14.0762C7.12492 14.0563 7.17609 14.0264 7.22726 13.9866C7.27836 13.9467 7.32959 13.9069 7.38075 13.867C7.44212 13.8172 7.51377 13.7575 7.58541 13.7076C7.65699 13.6578 7.72864 13.618 7.80028 13.5881C7.87193 13.5582 7.95378 13.5482 8.0459 13.5482C8.12775 13.5482 8.21981 13.5881 8.32214 13.6478C8.42448 13.7076 8.49612 13.7773 8.54729 13.857C8.59845 13.9368 8.62914 14.0165 8.62914 14.1061C8.63941 14.1958 8.62914 14.2755 8.60866 14.3652C8.58824 14.4548 8.54728 14.5345 8.49612 14.6142C8.45516 14.674 8.41427 14.7238 8.3631 14.7736C8.31194 14.8234 8.26077 14.8732 8.1994 14.9032C8.13796 14.943 8.07659 14.9728 8.01515 14.9928C7.95378 15.0127 7.88213 15.0327 7.81049 15.0327L7.79008 14.7836C7.88213 14.7836 7.98447 14.7637 8.07659 14.7138C8.16865 14.664 8.25056 14.5943 8.31194 14.4947C8.34262 14.4448 8.3631 14.395 8.38358 14.3353C8.404 14.2755 8.404 14.2157 8.39379 14.156C8.38358 14.0962 8.37331 14.0364 8.33242 13.9866C8.30167 13.9368 8.25056 13.887 8.18913 13.8471C8.11748 13.8073 8.05611 13.7873 7.99467 13.7873C7.9333 13.7873 7.87193 13.7973 7.81049 13.8272C7.74912 13.857 7.69795 13.887 7.63658 13.9268C7.58541 13.9667 7.52398 14.0165 7.4626 14.0663C7.40117 14.1161 7.33979 14.1659 7.27836 14.2157C7.21698 14.2655 7.1454 14.2954 7.07376 14.3153C7.00211 14.3353 6.92026 14.3452 6.84862 14.3452C6.76677 14.3353 6.68485 14.3054 6.59279 14.2555C6.50067 14.1958 6.42909 14.126 6.37788 14.0563C6.33696 13.9766 6.30627 13.8969 6.29603 13.8073C6.2858 13.7176 6.29603 13.6379 6.32673 13.5482C6.34719 13.4685 6.38812 13.3888 6.42909 13.3191C6.51094 13.1896 6.603 13.09 6.7156 13.0302C6.81793 12.9704 6.92026 12.9305 7.01232 12.9206L7.08397 13.1398Z" fill="white"/>
<path d="M9.26354 12.0637C9.27374 12.0736 9.28402 12.0836 9.30449 12.0935C9.3147 12.1035 9.33518 12.1135 9.34539 12.1333L8.58818 13.1296C8.64955 13.1695 8.7212 13.1993 8.79284 13.2193C8.86442 13.2392 8.93607 13.2392 9.00771 13.2292C9.07935 13.2193 9.14073 13.1993 9.21237 13.1595C9.27374 13.1197 9.33518 13.0798 9.37614 13.0101C9.44772 12.9204 9.47841 12.8307 9.48868 12.7311C9.49889 12.6315 9.48868 12.5518 9.45799 12.4721L9.66259 12.4223C9.70355 12.5618 9.70355 12.6913 9.68313 12.8008C9.66259 12.9105 9.61149 13.02 9.52964 13.1197C9.45799 13.2093 9.38635 13.279 9.29422 13.3288C9.20216 13.3787 9.11004 13.4185 9.00771 13.4285C8.90538 13.4385 8.80305 13.4385 8.70072 13.4086C8.59839 13.3787 8.49606 13.3388 8.404 13.2691C8.31187 13.1993 8.24023 13.1197 8.17886 13.04C8.12769 12.9503 8.08673 12.8607 8.06625 12.761C8.04577 12.6614 8.05605 12.5717 8.07652 12.4721C8.097 12.3725 8.14811 12.2828 8.20954 12.2031C8.28119 12.1135 8.36304 12.0337 8.44489 11.9939C8.53701 11.9441 8.61887 11.9142 8.71093 11.9142C8.80305 11.9042 8.89517 11.9142 8.98723 11.9441C9.08956 11.964 9.17141 12.0038 9.26354 12.0637ZM9.06908 12.2031C8.94634 12.1234 8.82353 12.0935 8.70072 12.1035C8.57791 12.1135 8.46537 12.1832 8.36304 12.3127C8.32208 12.3725 8.29139 12.4322 8.27092 12.502C8.2505 12.5717 8.2505 12.6315 8.26071 12.7012C8.27091 12.771 8.29139 12.8307 8.32208 12.8805C8.35283 12.9403 8.39372 12.9902 8.44489 13.03L9.06908 12.2031Z" fill="white"/>
<path d="M9.13123 11.4063C9.08006 11.3664 9.0289 11.3266 8.988 11.2967L9.12102 11.1472C9.15171 11.1671 9.19266 11.1971 9.23356 11.227C9.27451 11.2568 9.3052 11.2867 9.32568 11.3067C9.28472 11.217 9.27452 11.1273 9.28472 11.0277C9.29499 10.9281 9.34616 10.8384 9.41774 10.7587C9.43822 10.7388 9.4587 10.7188 9.46891 10.699C9.48938 10.679 9.49966 10.669 9.52007 10.6591L9.66336 10.8185C9.65315 10.8285 9.63267 10.8384 9.6122 10.8583C9.59172 10.8783 9.5713 10.8982 9.55076 10.9181C9.50986 10.958 9.47918 11.0078 9.46891 11.0675C9.44849 11.1173 9.44849 11.1772 9.4587 11.2369C9.46891 11.2967 9.48938 11.3565 9.53034 11.4262C9.5713 11.496 9.63267 11.5557 9.70425 11.6255L10.2978 12.1236L10.1545 12.2929L9.24383 11.5358C9.22335 11.476 9.18239 11.4461 9.13123 11.4063Z" fill="white"/>
<path d="M9.54973 9.82215C9.58048 9.85203 9.6009 9.8919 9.6009 9.93178C9.6009 9.97159 9.59069 10.0115 9.56 10.0413C9.52931 10.0712 9.49863 10.0812 9.45767 10.0912C9.41671 10.0912 9.37582 10.0812 9.34507 10.0513C9.31438 10.0214 9.2939 9.98159 9.2939 9.94171C9.2939 9.90184 9.30418 9.86203 9.33486 9.83215C9.36555 9.80221 9.3963 9.79228 9.43719 9.78234C9.47815 9.78234 9.51904 9.79228 9.54973 9.82215ZM11.0642 11.2667L10.9107 11.4261L9.79535 10.4L9.94885 10.2406L11.0642 11.2667Z" fill="white"/>
<path d="M11.8939 10.4698L11.7199 10.6392L10.2054 9.98165L10.3896 9.81227L11.6483 10.3901L11.1161 9.13484L11.2901 8.97546L11.8939 10.4698Z" fill="white"/>
<path d="M12.6203 8.34771C12.5589 8.32778 12.4771 8.32778 12.4054 8.33771C12.3236 8.35765 12.2519 8.38753 12.1906 8.43734C12.1189 8.49715 12.0678 8.5569 12.0371 8.62665C12.0064 8.6964 11.9859 8.76609 11.9756 8.83584C11.9756 8.90559 11.9859 8.98528 12.0064 9.05503C12.0371 9.12478 12.078 9.19453 12.1291 9.26421C12.1803 9.33396 12.2417 9.38378 12.3134 9.42365C12.3849 9.46346 12.4566 9.4834 12.5282 9.50334C12.5999 9.51334 12.6817 9.51334 12.7534 9.49334C12.825 9.47346 12.8966 9.43359 12.9682 9.38378C13.0399 9.32403 13.1013 9.25428 13.1217 9.18453C13.1524 9.11478 13.1627 9.04509 13.1627 8.97534L13.3674 8.9654C13.3674 9.06496 13.3469 9.16459 13.3059 9.26421C13.265 9.36384 13.1934 9.44359 13.0911 9.53321C12.9989 9.6129 12.8966 9.66278 12.7943 9.69265C12.6919 9.72253 12.5896 9.73246 12.4873 9.72253C12.385 9.71253 12.2929 9.68265 12.2008 9.63284C12.1087 9.58303 12.0268 9.51334 11.9552 9.42365C11.8836 9.33396 11.8324 9.24434 11.8017 9.14471C11.771 9.04509 11.7608 8.94546 11.771 8.84584C11.7812 8.74621 11.8119 8.65653 11.8631 8.5569C11.9143 8.46721 11.9859 8.37759 12.0882 8.2979C12.1701 8.23809 12.2622 8.18828 12.3747 8.1584C12.4873 8.12853 12.5896 8.11859 12.7022 8.14846L12.6203 8.34771Z" fill="white"/>
<path d="M14.4011 7.55084C14.4113 7.56078 14.4216 7.58071 14.4318 7.59065C14.442 7.60059 14.4523 7.62053 14.4625 7.64046L13.4188 8.33784C13.4597 8.39759 13.5211 8.4474 13.5825 8.48728C13.6439 8.52709 13.7053 8.54703 13.7769 8.56696C13.8485 8.57696 13.9202 8.57696 13.9918 8.56696C14.0635 8.55703 14.1351 8.52709 14.1965 8.47728C14.2885 8.41753 14.3602 8.33784 14.4011 8.24815C14.442 8.15853 14.4523 8.07878 14.4523 7.98915L14.6672 7.99909C14.657 8.13859 14.6263 8.26809 14.5648 8.36771C14.5035 8.46734 14.4216 8.55703 14.3193 8.62671C14.2272 8.68653 14.1248 8.73634 14.0225 8.75628C13.9202 8.77615 13.8178 8.77615 13.7155 8.75628C13.6132 8.73634 13.5211 8.69646 13.429 8.64665C13.3369 8.5869 13.2653 8.51715 13.1936 8.42753C13.1322 8.33784 13.081 8.23821 13.0606 8.13859C13.0401 8.03896 13.0299 7.93934 13.0504 7.83971C13.0708 7.74009 13.1015 7.6504 13.1527 7.57071C13.2039 7.49103 13.2755 7.41134 13.3676 7.35153C13.4699 7.28184 13.562 7.24196 13.6643 7.22203C13.7667 7.20209 13.8588 7.20209 13.9509 7.22203C14.043 7.24196 14.1248 7.28184 14.2067 7.34159C14.2783 7.3914 14.35 7.46115 14.4011 7.55084ZM14.176 7.61059C14.0839 7.50096 13.9815 7.43128 13.8588 7.4014C13.736 7.37146 13.603 7.4014 13.4699 7.49103C13.4085 7.5309 13.3573 7.58071 13.3267 7.64046C13.2857 7.70021 13.2653 7.76003 13.255 7.81978C13.2447 7.87959 13.2447 7.94928 13.255 8.00909C13.2653 8.06884 13.2857 8.12865 13.3267 8.1884L14.176 7.61059Z" fill="white"/>
<path d="M17.4603 5.56831C17.5421 5.7277 17.5831 5.87714 17.5933 6.03654C17.6035 6.19595 17.5831 6.3454 17.5319 6.48484C17.4808 6.62434 17.4091 6.75384 17.2966 6.8734C17.1942 6.99296 17.0612 7.08259 16.9077 7.16228C16.7542 7.23203 16.6007 7.28184 16.437 7.29184C16.2733 7.30178 16.13 7.28184 15.9765 7.23203C15.8332 7.18221 15.7002 7.11246 15.5774 7.0029C15.4546 6.90328 15.3625 6.77378 15.2806 6.6144C15.1988 6.45496 15.1578 6.30553 15.1476 6.14613C15.1374 5.98673 15.1578 5.83729 15.209 5.69782C15.2602 5.55834 15.3318 5.42883 15.4444 5.30928C15.5467 5.18974 15.6798 5.10008 15.8332 5.02037C15.9867 4.95064 16.1402 4.90084 16.304 4.89086C16.4677 4.88089 16.6109 4.90084 16.7644 4.95064C16.9077 5.00044 17.0407 5.07019 17.1635 5.17976C17.2863 5.28936 17.3886 5.41887 17.4603 5.56831ZM17.2351 5.6779C17.1738 5.55834 17.1021 5.45871 17.01 5.36906C16.9179 5.27939 16.8156 5.20967 16.6928 5.16981C16.5803 5.12 16.4574 5.10008 16.3244 5.11004C16.1914 5.11004 16.0583 5.14988 15.9253 5.20967C15.7923 5.26943 15.6798 5.35911 15.5978 5.44876C15.516 5.54838 15.4546 5.65798 15.4239 5.76757C15.3932 5.8871 15.383 6.00665 15.3932 6.12621C15.4035 6.25571 15.4444 6.37528 15.5058 6.49484C15.5672 6.6144 15.6388 6.71396 15.7309 6.80365C15.823 6.89328 15.9253 6.95309 16.0379 7.0029C16.1505 7.04278 16.2733 7.07265 16.4063 7.06271C16.5393 7.06271 16.6723 7.02284 16.8054 6.96303C16.9384 6.90328 17.051 6.81359 17.1328 6.72396C17.2147 6.62434 17.2761 6.51478 17.3068 6.40515C17.3375 6.28559 17.3477 6.16605 17.3375 6.04652C17.3375 5.917 17.2966 5.79745 17.2351 5.6779Z" fill="white"/>
<path d="M17.8592 5.23945C17.8387 5.17968 17.808 5.12988 17.7876 5.08006L17.982 5.01033C18.0024 5.05017 18.0229 5.09001 18.0434 5.12988C18.0639 5.17968 18.0741 5.20957 18.0946 5.23945H18.1048C18.115 5.13984 18.1457 5.05017 18.2071 4.97048C18.2685 4.89078 18.3504 4.83101 18.4527 4.79114C18.4834 4.78118 18.5039 4.77122 18.5244 4.77122C18.5448 4.76126 18.5652 4.76126 18.5959 4.76126L18.6471 4.96052C18.6369 4.96052 18.6164 4.96052 18.5857 4.97048C18.555 4.98044 18.5244 4.99041 18.4936 5.00036C18.4425 5.02029 18.3913 5.05017 18.3504 5.09001C18.3094 5.12988 18.2787 5.17968 18.2583 5.22949C18.2378 5.28928 18.2276 5.34904 18.2276 5.42875C18.2276 5.50844 18.248 5.58815 18.289 5.67782L18.5652 6.39509L18.3606 6.47478L17.9206 5.37893C17.9104 5.34904 17.8899 5.29924 17.8592 5.23945Z" fill="white"/>
<path d="M19.5172 6.36528C19.5991 6.42509 19.7014 6.4649 19.814 6.48484C19.9265 6.50478 20.0493 6.50478 20.1619 6.4649C20.2641 6.43503 20.3461 6.39515 20.4176 6.3454C20.4792 6.29553 20.5303 6.23578 20.5609 6.17599C20.5916 6.11623 20.6018 6.0465 20.6018 5.96679C20.6018 5.89706 20.5916 5.81736 20.5713 5.73765L20.4792 5.46868H20.4688C20.4382 5.57825 20.3768 5.66792 20.2949 5.74761C20.2028 5.82732 20.1107 5.87712 19.9981 5.91699C19.8856 5.94687 19.773 5.96679 19.6707 5.95683C19.5683 5.94687 19.4763 5.91699 19.3841 5.87713C19.3023 5.82732 19.2204 5.76755 19.159 5.68784C19.0976 5.60814 19.0465 5.51849 19.0158 5.40889C18.9851 5.30926 18.9748 5.20965 18.9851 5.11003C18.9953 5.01039 19.026 4.92074 19.0669 4.83108C19.1078 4.74141 19.1795 4.67168 19.2613 4.60193C19.3432 4.5322 19.4456 4.48239 19.5581 4.45249C19.6605 4.42261 19.773 4.41265 19.8958 4.43257C20.0084 4.45249 20.1107 4.50232 20.2028 4.57204H20.213L20.1414 4.323L20.3562 4.26321L20.7861 5.67788C20.8065 5.75759 20.8271 5.83728 20.8271 5.93691C20.8271 6.02656 20.8168 6.12619 20.7759 6.21586C20.7349 6.30553 20.6736 6.39515 20.5916 6.4649C20.4995 6.54459 20.3768 6.6044 20.213 6.65421C20.08 6.69403 19.9368 6.70403 19.8037 6.69403C19.6605 6.67415 19.5376 6.63428 19.4251 6.57453L19.5172 6.36528ZM19.2409 5.32921C19.2613 5.40889 19.3023 5.46868 19.3432 5.52844C19.3841 5.58821 19.4456 5.63804 19.507 5.67788C19.5683 5.71773 19.64 5.73765 19.7218 5.74761C19.8037 5.75759 19.8856 5.74761 19.9674 5.72769C20.0493 5.70777 20.1209 5.66792 20.1823 5.61812C20.2438 5.56829 20.2949 5.51849 20.3257 5.44874C20.3562 5.37901 20.387 5.31923 20.387 5.23954C20.3973 5.15983 20.387 5.08014 20.3562 5.00043C20.3359 4.92074 20.2949 4.86096 20.2438 4.80119C20.1926 4.74141 20.1414 4.6916 20.0698 4.66171C20.0084 4.62187 19.9368 4.60193 19.8549 4.59197C19.773 4.58201 19.7014 4.59197 19.6195 4.61191C19.5274 4.64179 19.4558 4.67168 19.3944 4.72148C19.333 4.77131 19.2921 4.83108 19.2613 4.89084C19.2307 4.95063 19.2102 5.02036 19.2102 5.10006C19.2102 5.17975 19.2204 5.25946 19.2409 5.32921Z" fill="white"/>
<path d="M21.9839 4.45228C21.9531 4.32278 21.9019 4.24307 21.82 4.19327C21.7383 4.14344 21.6359 4.13348 21.5029 4.16336C21.4107 4.18331 21.3288 4.21319 21.2572 4.26299C21.1855 4.3128 21.1344 4.36263 21.0832 4.42239L20.9297 4.30284C20.9809 4.23311 21.0526 4.16336 21.1448 4.1036C21.2367 4.04383 21.3494 4.00397 21.4823 3.97408C21.5642 3.95416 21.6461 3.95416 21.7177 3.96413C21.7894 3.97408 21.861 3.99401 21.9223 4.02389C21.9839 4.05379 22.0351 4.1036 22.0862 4.16336C22.1269 4.22315 22.1577 4.30284 22.1783 4.39251L22.3112 5.03009C22.3214 5.08988 22.342 5.13969 22.3522 5.19948C22.3725 5.25924 22.3829 5.30904 22.4034 5.34891L22.2089 5.38875C22.1987 5.35887 22.1783 5.31901 22.1679 5.27916C22.1577 5.23932 22.1475 5.19948 22.1373 5.15961H22.1269C22.0758 5.2692 22.0145 5.35887 21.9429 5.41864C21.861 5.47843 21.7688 5.51827 21.6462 5.54815C21.5848 5.55811 21.5233 5.56807 21.4619 5.55811C21.4005 5.55811 21.3392 5.53819 21.2777 5.51827C21.2163 5.48838 21.1651 5.45848 21.1242 5.40868C21.0832 5.35887 21.0526 5.28913 21.032 5.20943C21.0117 5.09984 21.0218 5.00021 21.0629 4.92053C21.1038 4.84081 21.1753 4.78105 21.2674 4.73123C21.3596 4.68142 21.4721 4.63161 21.595 4.60171C21.7177 4.57183 21.8508 4.53198 21.9839 4.51206V4.45228ZM21.9633 4.68142C21.8712 4.70134 21.779 4.72126 21.6973 4.74119C21.6052 4.77109 21.5233 4.80097 21.4619 4.83086C21.3904 4.8707 21.3392 4.91056 21.2983 4.96037C21.2572 5.01018 21.2471 5.06996 21.2572 5.13969C21.2674 5.18951 21.2881 5.22936 21.3186 5.2692C21.3494 5.29908 21.38 5.31901 21.4209 5.33895C21.4619 5.35887 21.5029 5.35887 21.5438 5.35887C21.5848 5.35887 21.6255 5.35887 21.6767 5.34891C21.7586 5.32899 21.82 5.30904 21.8712 5.2692C21.9223 5.22936 21.9735 5.18951 22.0042 5.12973C22.0351 5.07992 22.0554 5.02013 22.0656 4.96037C22.0758 4.9006 22.0758 4.83086 22.0554 4.77109L22.0351 4.66149L21.9633 4.68142Z" fill="white"/>
<path d="M22.8636 3.77491C22.8738 3.81476 22.8842 3.8546 22.8943 3.90443C22.9045 3.95423 22.9045 3.99408 22.9148 4.02396H22.925C22.9557 3.93431 23.0171 3.8546 23.1092 3.78487C23.2013 3.71513 23.3037 3.68524 23.4059 3.66532C23.6004 3.64539 23.7539 3.68524 23.8562 3.78487C23.9687 3.88448 24.0303 4.02396 24.0506 4.21326L24.1631 5.11983L23.9381 5.14971L23.8358 4.33281C23.8256 4.2531 23.8152 4.18338 23.7948 4.12359C23.7744 4.06382 23.7437 4.01399 23.7129 3.96419C23.672 3.92434 23.6311 3.89446 23.5696 3.87452C23.5185 3.8546 23.4469 3.8546 23.365 3.8546C23.3037 3.86456 23.2525 3.87452 23.2013 3.90443C23.1502 3.93431 23.099 3.97415 23.0683 4.02396C23.0272 4.07378 23.0069 4.14351 22.9865 4.21326C22.9659 4.29294 22.9659 4.37266 22.9761 4.47228L23.0683 5.22943L22.8432 5.25931L22.7 4.10366C22.7 4.06382 22.6897 4.01399 22.6793 3.94427C22.6691 3.88448 22.659 3.82471 22.6488 3.77491H22.8636Z" fill="white"/>
<path d="M24.7769 3.02776C24.7769 3.06761 24.7667 3.10747 24.736 3.13735C24.7054 3.16724 24.6746 3.18716 24.6336 3.18716C24.5929 3.18716 24.5621 3.1772 24.5212 3.14731C24.4904 3.11743 24.47 3.08755 24.47 3.03773C24.47 2.99788 24.4802 2.95803 24.511 2.92813C24.5417 2.89825 24.5723 2.87833 24.6133 2.87833C24.6543 2.87833 24.6848 2.88829 24.7258 2.91817C24.7566 2.94808 24.7769 2.98792 24.7769 3.02776ZM24.8589 5.09996L24.6336 5.10992L24.5519 3.61554L24.7769 3.60558L24.8589 5.09996Z" fill="white"/>
<path d="M26.3627 3.72513L25.4621 4.89073L26.4138 4.87081V5.06011L25.1653 5.08003V4.9306L26.0556 3.75501L25.1859 3.76499V3.58566L26.3525 3.56573L26.3627 3.72513Z" fill="white"/>
<path d="M27.7854 4.18336C27.7958 4.05384 27.765 3.95423 27.7037 3.88448C27.6423 3.81476 27.54 3.77489 27.4069 3.76493C27.3148 3.75497 27.2329 3.76493 27.1512 3.79483C27.0692 3.82471 26.9977 3.8546 26.9465 3.90441L26.8338 3.75497C26.9055 3.6952 26.9873 3.65536 27.0896 3.61549C27.1919 3.58561 27.3148 3.56569 27.4479 3.57565C27.5296 3.58561 27.6116 3.59557 27.6729 3.62546C27.7447 3.65536 27.806 3.6952 27.8571 3.73504C27.9083 3.78485 27.9493 3.84464 27.9697 3.91436C28.0004 3.98411 28.0004 4.0638 28.0004 4.15347L27.9493 4.80104C27.9493 4.86081 27.9391 4.92057 27.9391 4.98036C27.9391 5.04013 27.9391 5.08995 27.9493 5.13976L27.7549 5.12979C27.7549 5.08995 27.7447 5.05009 27.7447 5.01024C27.7447 4.97039 27.7447 4.93053 27.7447 4.88073H27.7343C27.6525 4.98036 27.5706 5.04013 27.4784 5.07999C27.3863 5.11983 27.284 5.12979 27.1512 5.11983C27.0896 5.11983 27.0282 5.09991 26.9669 5.07999C26.9055 5.06004 26.8544 5.03016 26.8032 4.99032C26.752 4.95048 26.7111 4.90065 26.6905 4.84088C26.6599 4.78109 26.6497 4.71137 26.6599 4.63166C26.6701 4.51213 26.7009 4.43242 26.7725 4.36269C26.8338 4.30291 26.9157 4.2531 27.0282 4.23318C27.1305 4.20328 27.2433 4.19331 27.3762 4.19331C27.5092 4.19331 27.6423 4.19331 27.7854 4.20328V4.18336ZM27.7037 4.39258C27.6116 4.38261 27.5195 4.38261 27.4273 4.38261C27.3352 4.38261 27.2534 4.39258 27.1715 4.4125C27.0896 4.43242 27.0282 4.4623 26.977 4.49219C26.9259 4.53205 26.8951 4.58186 26.8951 4.6516C26.8951 4.70141 26.8951 4.75121 26.9157 4.79108C26.9361 4.83092 26.9567 4.86081 26.9977 4.88073C27.0282 4.90065 27.0692 4.92057 27.1101 4.94051C27.1512 4.96044 27.1919 4.96044 27.2433 4.96044C27.325 4.97039 27.3967 4.96044 27.4581 4.93053C27.5195 4.91061 27.5706 4.87076 27.6217 4.83092C27.6627 4.79108 27.7037 4.74125 27.7241 4.68149C27.7549 4.6217 27.765 4.56193 27.765 4.49219L27.7752 4.38261L27.7037 4.39258Z" fill="white"/>
<path d="M29.2896 4.01415L28.8598 3.95436L28.7369 4.82109C28.7268 4.88088 28.7268 4.92073 28.7369 4.96057C28.7473 5.00044 28.7575 5.03032 28.7677 5.05024C28.7881 5.07016 28.8087 5.09009 28.8394 5.10004C28.87 5.11001 28.9008 5.11999 28.9314 5.11999C28.9622 5.11999 28.9929 5.11999 29.0337 5.11999C29.0644 5.11999 29.1054 5.11001 29.1362 5.10004L29.1156 5.28934C29.0746 5.29931 29.0337 5.30927 28.9929 5.30927C28.952 5.30927 28.9008 5.30927 28.8496 5.29931C28.8087 5.28934 28.7677 5.27938 28.7268 5.26943C28.6858 5.24948 28.645 5.22956 28.604 5.18971C28.5733 5.15983 28.5427 5.11001 28.5221 5.0602C28.5017 5.01039 28.5017 4.94065 28.5119 4.86096L28.6346 3.93444L28.3175 3.8946L28.3378 3.71528L28.6552 3.75513L28.7165 3.3367L28.9418 3.36658L28.8802 3.78501L29.3101 3.84479L29.2896 4.01415Z" fill="white"/>
<path d="M29.6277 5.39889L29.4127 5.35903L29.6789 3.88459L29.8937 3.92443L29.6277 5.39889ZM30.037 3.37651C30.0268 3.41636 30.0062 3.4562 29.9654 3.47613C29.9245 3.49604 29.8937 3.50601 29.8528 3.49604C29.812 3.48609 29.7812 3.46616 29.7504 3.43628C29.7198 3.40639 29.7095 3.36655 29.7198 3.31673C29.73 3.27688 29.7504 3.23704 29.7914 3.21709C29.8324 3.19718 29.8631 3.18721 29.9039 3.19718C29.9449 3.20714 29.9757 3.22708 30.0062 3.25696C30.037 3.28684 30.0472 3.32669 30.037 3.37651Z" fill="white"/>
<path d="M31.7661 5.10995C31.7356 5.21953 31.6946 5.31916 31.6332 5.39886C31.5717 5.47855 31.5001 5.5483 31.408 5.59811C31.3159 5.64791 31.2238 5.67781 31.1112 5.69774C30.9988 5.71766 30.8964 5.70769 30.7735 5.67781C30.661 5.64791 30.5587 5.60806 30.4666 5.5483C30.3744 5.48851 30.3131 5.40883 30.2518 5.32912C30.2006 5.23947 30.1596 5.1498 30.1494 5.05017C30.1288 4.95056 30.139 4.84096 30.1698 4.73138C30.2006 4.62178 30.2414 4.52217 30.3029 4.44246C30.3642 4.36276 30.4358 4.29303 30.5279 4.24322C30.6201 4.19339 30.7122 4.16351 30.8247 4.14359C30.927 4.13363 31.0397 4.13363 31.1624 4.16351C31.2749 4.19339 31.3772 4.23326 31.4693 4.29303C31.5615 4.3528 31.6228 4.4325 31.6844 4.51221C31.7356 4.60186 31.7763 4.69153 31.7867 4.79114C31.8071 4.89077 31.7969 5.00036 31.7661 5.10995ZM31.5411 5.05017C31.5615 4.97048 31.5717 4.89077 31.5615 4.81108C31.5513 4.73138 31.5307 4.66164 31.5001 4.60186C31.4693 4.54209 31.4182 4.48231 31.3569 4.4325C31.2955 4.3827 31.2238 4.3528 31.1317 4.33287C31.0397 4.31295 30.9577 4.31295 30.886 4.32291C30.8043 4.33287 30.7429 4.36276 30.6814 4.40262C30.6201 4.44246 30.5689 4.49227 30.5177 4.56201C30.4768 4.63174 30.4358 4.70149 30.4256 4.78118C30.4052 4.86089 30.3949 4.9406 30.4052 5.02028C30.4154 5.1 30.4358 5.16972 30.4666 5.22951C30.4973 5.28927 30.5485 5.34904 30.6099 5.39886C30.6712 5.44867 30.7429 5.47855 30.8349 5.49848C30.927 5.51841 31.0089 5.51841 31.0805 5.50844C31.1624 5.49848 31.2238 5.46859 31.2853 5.42874C31.3466 5.3889 31.3978 5.33908 31.449 5.26935C31.4899 5.20956 31.5205 5.12988 31.5411 5.05017Z" fill="white"/>
<path d="M32.6255 4.5919C32.6153 4.63174 32.6049 4.67159 32.5947 4.72139C32.5845 4.77122 32.5642 4.81106 32.5538 4.84095H32.5642C32.6357 4.77122 32.7278 4.73138 32.8403 4.71144C32.9528 4.69151 33.0551 4.70148 33.1577 4.73138C33.3417 4.79114 33.4646 4.89078 33.5158 5.03025C33.5669 5.16973 33.5669 5.31916 33.5056 5.49848L33.1984 6.36521L32.9836 6.29546L33.26 5.5184C33.2906 5.44868 33.3008 5.37893 33.3112 5.3092C33.3213 5.24941 33.3213 5.18964 33.3008 5.12986C33.2906 5.08006 33.26 5.03025 33.219 4.99039C33.1781 4.95054 33.1167 4.92066 33.0449 4.89078C32.9938 4.87085 32.9325 4.86087 32.8711 4.87085C32.8098 4.87085 32.7482 4.89078 32.697 4.92066C32.6357 4.95054 32.5845 5.00034 32.5334 5.06013C32.4822 5.1199 32.4412 5.19961 32.4105 5.28926L32.1547 6.01653L31.9398 5.94679L32.3287 4.84095C32.339 4.80111 32.3593 4.7513 32.3799 4.69151C32.4003 4.63174 32.4105 4.57196 32.4311 4.52216L32.6255 4.5919Z" fill="white"/>
<path d="M36.3299 7.3914C36.2683 7.42128 36.1968 7.45115 36.1252 7.47109C36.0535 7.49103 35.9715 7.50096 35.8898 7.50096C35.8079 7.50096 35.7157 7.49103 35.634 7.47109C35.5419 7.45115 35.4498 7.42128 35.3577 7.37146C35.2042 7.29178 35.0711 7.19215 34.9687 7.07259C34.8664 6.95303 34.7845 6.82353 34.7437 6.68409C34.6926 6.54459 34.6822 6.39515 34.6926 6.23576C34.7028 6.07636 34.7539 5.92692 34.8357 5.76753C34.9176 5.61809 35.0199 5.48858 35.1428 5.38895C35.2655 5.28931 35.3986 5.20963 35.5419 5.16978C35.6852 5.11996 35.8386 5.10999 36.0023 5.11996C36.166 5.12992 36.3195 5.17975 36.4731 5.24947C36.5447 5.28931 36.6162 5.32918 36.688 5.37898C36.7493 5.42879 36.8106 5.48858 36.8618 5.54835C36.9132 5.60813 36.9539 5.66789 36.9847 5.73762C37.0155 5.80737 37.0358 5.86714 37.046 5.93688L36.8004 5.97673C36.8004 5.93688 36.7801 5.88708 36.7699 5.83725C36.7493 5.78744 36.7187 5.73762 36.688 5.68781C36.6572 5.63801 36.606 5.58819 36.565 5.54835C36.5139 5.5085 36.4627 5.46865 36.3912 5.42879C36.2581 5.35906 36.1252 5.32918 35.9921 5.31922C35.859 5.30926 35.7363 5.32918 35.6236 5.37898C35.5111 5.41883 35.3986 5.48858 35.3065 5.57823C35.2144 5.66789 35.1324 5.76753 35.0711 5.88708C35.0097 6.00661 34.9687 6.12616 34.9585 6.25565C34.9382 6.38521 34.9484 6.50471 34.9789 6.62428C35.0097 6.74384 35.0711 6.8534 35.153 6.95303C35.2349 7.05265 35.3372 7.13234 35.4701 7.20209C35.5931 7.2619 35.7157 7.29178 35.8488 7.30171C35.9819 7.31171 36.1148 7.27184 36.2377 7.21209L36.3299 7.3914Z" fill="white"/>
<path d="M38.1103 8.06884C38.0488 8.16846 37.967 8.23821 37.8851 8.29796C37.793 8.35778 37.7009 8.39759 37.6089 8.41753C37.5064 8.43746 37.4041 8.43746 37.3018 8.41753C37.1995 8.39759 37.0869 8.35778 36.9948 8.28803C36.8925 8.22828 36.8106 8.14853 36.7493 8.06884C36.6879 7.97921 36.6469 7.88953 36.6265 7.7899C36.606 7.69028 36.606 7.59065 36.6265 7.49103C36.6469 7.3914 36.6879 7.29178 36.7493 7.19215C36.8106 7.10246 36.8823 7.02278 36.9745 6.96303C37.0666 6.90328 37.1585 6.8634 37.2506 6.84346C37.353 6.82353 37.4552 6.82353 37.5578 6.84346C37.6601 6.8634 37.7624 6.90328 37.8648 6.96303C37.967 7.02278 38.0488 7.10246 38.1103 7.19215C38.1717 7.28184 38.2126 7.37146 38.2331 7.47109C38.2536 7.57071 38.2536 7.67034 38.2331 7.76996C38.2126 7.86959 38.1717 7.96921 38.1103 8.06884ZM37.9159 7.93934C37.967 7.86959 37.9976 7.79984 38.008 7.72015C38.0284 7.64046 38.0284 7.57071 38.0182 7.50096C38.008 7.43128 37.9772 7.36153 37.9363 7.29178C37.8953 7.22203 37.8339 7.17221 37.7624 7.1224C37.6907 7.07259 37.6089 7.04271 37.5372 7.03271C37.4552 7.02278 37.3837 7.02278 37.3122 7.04271C37.2404 7.06265 37.1689 7.09253 37.1074 7.14234C37.046 7.19215 36.9847 7.2519 36.9437 7.32165C36.8925 7.3914 36.8617 7.46115 36.8516 7.54084C36.8312 7.62053 36.8312 7.69028 36.8414 7.76003C36.8516 7.82978 36.8823 7.89946 36.9233 7.95928C36.9643 8.01903 37.0256 8.07884 37.0971 8.12859C37.1689 8.1784 37.2506 8.20834 37.3224 8.21828C37.4041 8.22828 37.4759 8.22828 37.5474 8.20834C37.6191 8.1884 37.6907 8.15853 37.752 8.10871C37.8136 8.06884 37.8648 8.00909 37.9159 7.93934Z" fill="white"/>
<path d="M39.0925 7.84959C39.0719 7.87946 39.0413 7.91934 39.0105 7.95921C38.9797 7.99903 38.9594 8.0289 38.939 8.05884H38.9492C39.0413 8.01896 39.1436 7.99903 39.2561 8.01896C39.3686 8.0389 39.4709 8.07878 39.5529 8.13853C39.7063 8.25809 39.7883 8.38759 39.7883 8.53703C39.7985 8.68646 39.7371 8.8259 39.6244 8.97534L39.0413 9.69265L38.8673 9.56315L39.3892 8.91559C39.4404 8.85584 39.4811 8.79603 39.5119 8.73628C39.5427 8.67646 39.5631 8.61671 39.5631 8.5669C39.5631 8.50715 39.5529 8.45734 39.5325 8.40753C39.5017 8.35771 39.4608 8.3079 39.3994 8.25809C39.3482 8.21821 39.2971 8.19828 39.2459 8.17834C39.1844 8.15846 39.123 8.15846 39.0617 8.1684C39.0003 8.17834 38.9286 8.20828 38.8673 8.24809C38.7957 8.28796 38.7341 8.34771 38.6728 8.4274L38.1918 9.03515L38.0179 8.90559L38.7547 7.98909C38.7751 7.95921 38.8161 7.91934 38.8468 7.85959C38.8876 7.80978 38.9184 7.75996 38.9492 7.72009L39.0925 7.84959Z" fill="white"/>
<path d="M40.8123 9.4934L40.4952 9.21446L39.9017 9.86196C39.8607 9.90184 39.8404 9.94171 39.8198 9.97159C39.7994 10.0015 39.7994 10.0413 39.7994 10.0613C39.7994 10.0912 39.8096 10.121 39.8302 10.141C39.8505 10.1608 39.8709 10.1908 39.8915 10.2107C39.9119 10.2306 39.9426 10.2505 39.9733 10.2605C40.004 10.2804 40.0348 10.2904 40.0654 10.3003L39.9426 10.4498C39.9017 10.4398 39.8607 10.4199 39.8302 10.39C39.7892 10.3701 39.7584 10.3402 39.7174 10.3103C39.6869 10.2804 39.6561 10.2505 39.6357 10.2107C39.605 10.1708 39.5948 10.131 39.5845 10.0812C39.5741 10.0313 39.5845 9.98153 39.5948 9.93171C39.6151 9.8819 39.6459 9.82215 39.7072 9.7624L40.3418 9.06503L40.1063 8.85578L40.2292 8.71634L40.4644 8.92553L40.751 8.61671L40.9147 8.76615L40.6283 9.07496L40.9455 9.3539L40.8123 9.4934Z" fill="white"/>
<path d="M41.0888 9.73253C41.1297 9.68271 41.1707 9.6429 41.2116 9.60303L41.3549 9.75246C41.3242 9.78234 41.3038 9.82221 41.2628 9.85209C41.232 9.89196 41.2012 9.92184 41.1809 9.94171C41.273 9.91184 41.3753 9.9019 41.4776 9.92184C41.5799 9.94171 41.6721 9.99159 41.7436 10.0713C41.7642 10.0912 41.7846 10.1112 41.7947 10.131C41.8051 10.151 41.8256 10.1709 41.8358 10.1908L41.6618 10.3203C41.6517 10.3103 41.6413 10.2905 41.6209 10.2705C41.6005 10.2506 41.5799 10.2207 41.5596 10.2008C41.5186 10.1609 41.4675 10.131 41.4163 10.1112C41.3651 10.0912 41.3038 10.0812 41.2422 10.0812C41.1809 10.0812 41.1195 10.1012 41.0478 10.141C40.9762 10.1709 40.9045 10.2307 40.8329 10.3004L40.2804 10.8384L40.1269 10.689L40.966 9.86203C41.007 9.82221 41.0376 9.78234 41.0888 9.73253Z" fill="white"/>
<path d="M42.4601 12.0339C42.368 12.1037 42.2758 12.1634 42.1735 12.1933C42.0712 12.2232 41.9688 12.2431 41.8665 12.2332C41.764 12.2232 41.6617 12.2032 41.5698 12.1535C41.4777 12.1037 41.3855 12.0339 41.3036 11.9442C41.2218 11.8546 41.1705 11.7649 41.1297 11.6653C41.099 11.5657 41.0786 11.466 41.0888 11.3664C41.099 11.2668 41.1194 11.1672 41.1705 11.0775C41.2218 10.9878 41.2832 10.8982 41.3753 10.8285C41.4673 10.7587 41.5594 10.6989 41.6617 10.669C41.764 10.6392 41.8665 10.6192 41.9688 10.6292C42.0712 10.6392 42.1735 10.6591 42.2656 10.7089C42.3577 10.7587 42.4497 10.8285 42.5214 10.9082C42.6031 10.9978 42.6545 11.0875 42.6952 11.1871C42.726 11.2867 42.7464 11.3863 42.7362 11.486C42.726 11.5856 42.7056 11.6852 42.6545 11.7748C42.6237 11.8745 42.5519 11.9642 42.4601 12.0339ZM42.3064 11.8645C42.368 11.8147 42.4191 11.745 42.4601 11.6852C42.5008 11.6155 42.5214 11.5457 42.5316 11.476C42.5418 11.4063 42.5316 11.3265 42.5112 11.2568C42.4906 11.1871 42.4497 11.1173 42.3883 11.0476C42.3269 10.9779 42.2656 10.938 42.1938 10.8982C42.1223 10.8683 42.0506 10.8483 41.979 10.8483C41.9073 10.8483 41.8256 10.8583 41.7538 10.8882C41.6823 10.9181 41.6106 10.958 41.5492 11.0078C41.4879 11.0576 41.4367 11.1273 41.3957 11.1871C41.3547 11.2568 41.3344 11.3265 41.3242 11.3963C41.3138 11.466 41.3242 11.5457 41.3446 11.6155C41.3649 11.6852 41.4059 11.755 41.4673 11.8247C41.5288 11.8944 41.5901 11.9442 41.6617 11.9741C41.7334 12.004 41.805 12.0239 41.8767 12.0239C41.9483 12.0239 42.0302 12.014 42.1017 11.9841C42.1735 11.9542 42.245 11.9143 42.3064 11.8645Z" fill="white"/>
<path d="M42.2449 13.0102L42.1118 12.8409L44.0766 11.3764L44.2097 11.5458L42.2449 13.0102Z" fill="white"/>
<path d="M43.1657 14.2853L43.0428 14.0861L45.0282 12.9105L45.3863 13.4784C45.4476 13.568 45.4886 13.6677 45.5194 13.7573C45.5499 13.847 45.5601 13.9367 45.5601 14.0163C45.5601 14.0961 45.5296 14.1758 45.4784 14.2555C45.4272 14.3252 45.3555 14.395 45.2633 14.4547C45.1918 14.4945 45.1203 14.5245 45.0383 14.5344C44.9666 14.5444 44.8849 14.5444 44.8131 14.5245C44.7416 14.5045 44.6698 14.4747 44.6085 14.4348C44.5471 14.395 44.4858 14.3352 44.4346 14.2654L43.8411 15.3912L43.6877 15.1521L44.2812 14.0662L44.0763 13.7374L43.1657 14.2853ZM44.2708 13.6378L44.4858 13.9765C44.5881 14.1359 44.6904 14.2355 44.8029 14.2853C44.9154 14.3352 45.0282 14.3252 45.1509 14.2555C45.2122 14.2157 45.2633 14.1758 45.2941 14.126C45.3249 14.0762 45.3351 14.0263 45.3453 13.9665C45.3453 13.9068 45.3351 13.847 45.3145 13.7773C45.2941 13.7075 45.2532 13.6378 45.2122 13.568L44.9974 13.2194L44.2708 13.6378Z" fill="white"/>
<path d="M45.325 16.4872C45.3148 16.4971 45.2942 16.4971 45.284 16.5071C45.2636 16.517 45.2533 16.517 45.2328 16.527L44.6701 15.4212C44.5984 15.461 44.5472 15.5009 44.496 15.5507C44.4449 15.6005 44.4141 15.6603 44.3937 15.73C44.3734 15.7997 44.363 15.8595 44.363 15.9392C44.363 16.009 44.3836 16.0787 44.4245 16.1484C44.4757 16.248 44.5472 16.3277 44.6291 16.3776C44.7108 16.4273 44.803 16.4573 44.8849 16.4672L44.844 16.6665C44.7007 16.6366 44.578 16.5868 44.4858 16.5071C44.3937 16.4373 44.3118 16.3377 44.2606 16.2282C44.2095 16.1285 44.1789 16.0288 44.1789 15.9293C44.1687 15.8297 44.1891 15.73 44.2199 15.6403C44.2504 15.5507 44.3016 15.461 44.3734 15.3813C44.4449 15.3016 44.5269 15.2418 44.6393 15.192C44.7417 15.1422 44.844 15.1123 44.9565 15.1023C45.059 15.0924 45.1613 15.1023 45.2533 15.1323C45.3454 15.1622 45.4375 15.212 45.5092 15.2717C45.5909 15.3315 45.6525 15.4212 45.7037 15.5108C45.7548 15.6204 45.7854 15.72 45.7854 15.8097C45.7854 15.9093 45.7752 15.999 45.7444 16.0787C45.7139 16.1584 45.6627 16.2381 45.5909 16.3078C45.4988 16.3875 45.4171 16.4373 45.325 16.4872ZM45.284 16.258C45.4069 16.1883 45.4988 16.0986 45.5398 15.9791C45.5909 15.8595 45.5706 15.73 45.5092 15.6005C45.4785 15.5308 45.4375 15.481 45.3761 15.4411C45.325 15.4012 45.2637 15.3614 45.2021 15.3415C45.1407 15.3215 45.0692 15.3116 45.0076 15.3116C44.9463 15.3116 44.8747 15.3215 44.8134 15.3515L45.284 16.258Z" fill="white"/>
<path d="M44.0864 17.6427L44.0045 17.4434L46.1739 16.6364L46.2558 16.8357L46.0103 16.9253V16.9353C46.1227 16.9552 46.2251 17.005 46.3172 17.0847C46.3989 17.1644 46.4707 17.2541 46.5013 17.3537C46.5422 17.4633 46.5628 17.5729 46.5628 17.6725C46.5628 17.7722 46.532 17.8718 46.491 17.9614C46.4501 18.0511 46.3887 18.1308 46.307 18.2005C46.2251 18.2703 46.133 18.3201 46.0306 18.3599C45.9283 18.3998 45.8158 18.4197 45.7135 18.4197C45.611 18.4197 45.5086 18.3998 45.4167 18.3599C45.3246 18.3201 45.2427 18.2703 45.1711 18.1906C45.0994 18.1208 45.0381 18.0212 44.997 17.9116C44.9561 17.812 44.9459 17.7024 44.9561 17.5928C44.9663 17.4832 45.0072 17.3737 45.0686 17.284V17.274L44.0864 17.6427ZM45.9487 18.1408C46.0306 18.1108 46.1022 18.071 46.1637 18.0212C46.2251 17.9714 46.2762 17.9116 46.307 17.8518C46.3375 17.7921 46.3582 17.7124 46.3684 17.6427C46.3684 17.563 46.3582 17.4832 46.3274 17.4035C46.2966 17.3238 46.2556 17.264 46.1943 17.2043C46.1432 17.1545 46.0716 17.1047 45.9999 17.0847C45.9283 17.0548 45.8566 17.0449 45.7749 17.0449C45.6929 17.0449 45.611 17.0548 45.5292 17.0947C45.4473 17.1246 45.3757 17.1644 45.3142 17.2242C45.2529 17.274 45.2119 17.3338 45.1814 17.4035C45.1505 17.4733 45.1302 17.543 45.1302 17.6227C45.1302 17.7024 45.1403 17.7722 45.1711 17.8518C45.2017 17.9315 45.2529 18.0013 45.304 18.061C45.3552 18.1108 45.4269 18.1507 45.4883 18.1806C45.5598 18.2105 45.6316 18.2205 45.7135 18.2105C45.785 18.1806 45.867 18.1707 45.9487 18.1408Z" fill="white"/>
<path d="M46.5733 20.2128C46.4605 20.2428 46.3481 20.2527 46.2457 20.2428C46.1434 20.2329 46.0411 20.2029 45.9592 20.1531C45.867 20.1033 45.7955 20.0337 45.7239 19.9539C45.6624 19.8742 45.6113 19.7745 45.5807 19.6551C45.5499 19.5455 45.5397 19.4358 45.5499 19.3362C45.5601 19.2267 45.5909 19.137 45.642 19.0473C45.6932 18.9577 45.7546 18.8879 45.8467 18.8182C45.9286 18.7584 46.0309 18.7086 46.1434 18.6787C46.256 18.6488 46.3687 18.6388 46.4709 18.6488C46.5733 18.6588 46.6756 18.6887 46.7573 18.7385C46.8495 18.7883 46.9212 18.858 46.9927 18.9377C47.0645 19.0175 47.1052 19.117 47.136 19.2267C47.1668 19.3362 47.177 19.4458 47.1668 19.5555C47.1566 19.665 47.1258 19.7547 47.0747 19.8443C47.0235 19.934 46.9622 20.0037 46.8701 20.0735C46.7881 20.1333 46.6858 20.1831 46.5733 20.2128ZM46.5117 19.9938C46.5937 19.9737 46.6654 19.934 46.7369 19.8942C46.7983 19.8443 46.8599 19.7945 46.8904 19.7347C46.9314 19.6749 46.9518 19.6053 46.9723 19.5255C46.9825 19.4458 46.9825 19.3661 46.9518 19.2864C46.9314 19.2067 46.8904 19.127 46.8392 19.0772C46.7881 19.0175 46.7268 18.9776 46.6654 18.9377C46.5937 18.9078 46.5221 18.8879 46.4402 18.878C46.3583 18.868 46.2766 18.878 46.1946 18.8979C46.1127 18.9178 46.0411 18.9577 45.9696 18.9975C45.908 19.0473 45.8467 19.0972 45.8159 19.1569C45.7751 19.2167 45.7546 19.2864 45.7342 19.3661C45.7239 19.4458 45.7239 19.5156 45.7546 19.6053C45.7751 19.6848 45.8159 19.7646 45.867 19.8243C45.9184 19.8843 45.9798 19.934 46.0411 19.9638C46.1127 19.9938 46.1844 20.0137 46.2664 20.0235C46.3481 20.0235 46.43 20.0137 46.5117 19.9938Z" fill="white"/>
<path d="M47.2386 20.502C47.2999 20.4921 47.3613 20.4722 47.4125 20.4621L47.4534 20.6615C47.4125 20.6715 47.3717 20.6813 47.3204 20.7012C47.2692 20.7113 47.2284 20.7212 47.1977 20.7311V20.7411C47.2898 20.7611 47.3819 20.8109 47.4534 20.8905C47.5252 20.9603 47.5763 21.05 47.5967 21.1596C47.6069 21.1895 47.6069 21.2094 47.6069 21.2292C47.6069 21.2493 47.6069 21.279 47.6069 21.2991L47.3921 21.309C47.3921 21.2991 47.3921 21.2691 47.3921 21.2393C47.3921 21.2094 47.3819 21.1794 47.3819 21.1497C47.3717 21.0897 47.3511 21.0399 47.3204 20.9901C47.2898 20.9403 47.2488 20.9006 47.1875 20.8707C47.1363 20.8407 47.0646 20.8208 46.993 20.8109C46.9213 20.8008 46.8294 20.8008 46.7268 20.8208L45.9595 20.9703L45.9185 20.7612L47.0953 20.532C47.1261 20.532 47.1773 20.522 47.2386 20.502Z" fill="white"/>
<path d="M47.5661 22.4847L47.5047 22.0662L46.6144 22.1857C46.5529 22.1957 46.5121 22.2057 46.4814 22.2156C46.4506 22.2354 46.42 22.2455 46.3994 22.2753C46.379 22.2953 46.3689 22.3251 46.3689 22.3551C46.3689 22.385 46.3689 22.4148 46.3689 22.4448C46.3689 22.4745 46.379 22.5045 46.3994 22.5345C46.4096 22.5642 46.4302 22.5942 46.4506 22.624L46.2561 22.6638C46.2357 22.624 46.2154 22.5942 46.205 22.5543C46.1948 22.5144 46.1846 22.4745 46.1744 22.4247C46.1642 22.385 46.1642 22.3452 46.1744 22.2953C46.1744 22.2455 46.1948 22.2057 46.2154 22.1658C46.2357 22.1259 46.2768 22.086 46.3279 22.0562C46.379 22.0263 46.4404 22.0065 46.5223 21.9963L47.474 21.867L47.433 21.558L47.6172 21.5282L47.6582 21.837L48.0878 21.7773L48.1186 21.9963L47.6888 22.0562L47.7503 22.4745L47.5661 22.4847Z" fill="white"/>
<path d="M47.5052 23.7297C47.5666 23.69 47.6177 23.6402 47.6483 23.5704C47.6791 23.5007 47.6997 23.4309 47.6893 23.3412C47.6893 23.3013 47.6791 23.2617 47.6689 23.2317C47.6587 23.1918 47.6381 23.162 47.6177 23.132C47.5972 23.1021 47.5666 23.0823 47.5358 23.0624C47.5052 23.0423 47.4643 23.0423 47.4233 23.0423C47.3516 23.0523 47.3004 23.0823 47.2698 23.142C47.2391 23.2017 47.2085 23.2914 47.1981 23.421C47.1777 23.6003 47.1265 23.7297 47.0652 23.8194C47.0037 23.9091 46.9117 23.9589 46.7888 23.9688C46.6967 23.979 46.6252 23.9688 46.5638 23.939C46.5023 23.9091 46.4511 23.8692 46.4102 23.8194C46.3694 23.7696 46.3386 23.7099 46.3182 23.6502C46.2976 23.5803 46.2874 23.5206 46.2773 23.4509C46.2671 23.3412 46.2874 23.2317 46.3182 23.1222C46.359 23.0124 46.4307 22.9229 46.5228 22.8432L46.6661 23.0025C46.6045 23.0423 46.5534 23.1021 46.5127 23.1818C46.4717 23.2617 46.4511 23.3412 46.4613 23.4309C46.4613 23.4807 46.4717 23.5206 46.4819 23.5605C46.4921 23.6003 46.5127 23.6402 46.533 23.67C46.5534 23.7 46.5842 23.7198 46.6252 23.7398C46.6661 23.7597 46.7069 23.7597 46.758 23.7597C46.84 23.7498 46.8911 23.7099 46.9321 23.6301C46.9629 23.5505 46.9935 23.4408 47.0141 23.2914C47.0242 23.2416 47.0344 23.2017 47.0446 23.142C47.0548 23.0922 47.0754 23.0423 47.1062 23.0025C47.1367 22.9626 47.1675 22.9229 47.2187 22.893C47.2596 22.863 47.321 22.8432 47.3925 22.8332C47.4745 22.8233 47.5358 22.8332 47.5972 22.863C47.6587 22.893 47.6997 22.9229 47.7405 22.9727C47.7814 23.0225 47.8122 23.0723 47.8326 23.132C47.8531 23.1918 47.8735 23.2617 47.8735 23.3313C47.8838 23.4309 47.8633 23.5404 47.8224 23.6402C47.7814 23.7398 47.72 23.8194 47.6381 23.8792L47.5052 23.7297Z" fill="white"/>
<path d="M16.8056 44.7905C16.8568 44.6708 16.867 44.5712 16.8363 44.4815C16.8056 44.392 16.7237 44.3222 16.6009 44.2724C16.5191 44.2325 16.4372 44.2127 16.3451 44.2127C16.2633 44.2127 16.1814 44.2226 16.1098 44.2426L16.0586 44.0632C16.1404 44.0333 16.2428 44.0233 16.3553 44.0233C16.4679 44.0333 16.5805 44.0632 16.7033 44.113C16.7749 44.1428 16.8465 44.1926 16.8976 44.2426C16.9489 44.2924 17 44.3522 17.0307 44.4118C17.0614 44.4716 17.0716 44.5415 17.0716 44.621C17.0716 44.6908 17.0512 44.7704 17.0103 44.8601L16.7237 45.448C16.7033 45.4978 16.6726 45.5576 16.6521 45.6173C16.6316 45.677 16.6112 45.7268 16.6009 45.7667L16.4167 45.6872C16.427 45.6473 16.4372 45.6173 16.4576 45.5775C16.4679 45.5375 16.4884 45.4978 16.5088 45.458H16.4986C16.3963 45.5177 16.2837 45.5477 16.1916 45.5576C16.0893 45.5576 15.9869 45.5375 15.8743 45.4877C15.8232 45.4679 15.7721 45.428 15.7208 45.3882C15.6697 45.3483 15.6288 45.2985 15.5981 45.2487C15.5674 45.1988 15.5469 45.1391 15.5469 45.0695C15.5469 44.9996 15.5571 44.93 15.5981 44.8601C15.6493 44.7605 15.7106 44.681 15.8028 44.651C15.8846 44.6111 15.9767 44.6012 16.0893 44.6111C16.1916 44.621 16.3041 44.651 16.427 44.7008C16.5498 44.7506 16.6726 44.8004 16.7954 44.8502L16.8056 44.7905ZM16.6521 44.9698C16.5702 44.93 16.4884 44.9 16.3963 44.8702C16.3041 44.8403 16.2223 44.8204 16.1506 44.8103C16.0688 44.8004 16.0074 44.8004 15.9358 44.8204C15.8743 44.8403 15.8232 44.8802 15.7925 44.9399C15.7721 44.9897 15.7618 45.0296 15.7618 45.0695C15.7618 45.1093 15.7823 45.149 15.8028 45.179C15.8232 45.209 15.8539 45.2487 15.8846 45.2687C15.9153 45.2985 15.9563 45.3185 15.9972 45.3383C16.0688 45.3683 16.1404 45.3882 16.2018 45.3882C16.2735 45.3882 16.3349 45.3782 16.3861 45.3583C16.4474 45.3383 16.4986 45.2985 16.5396 45.2588C16.5805 45.2189 16.6214 45.1592 16.6521 45.0992L16.7033 44.9996L16.6521 44.9698Z" fill="white"/>
<path d="M17.3477 46.0654L17.1431 45.9858L17.7161 44.601L17.9208 44.6808L17.3477 46.0654ZM18.1869 44.1627C18.1664 44.2026 18.1357 44.2323 18.0947 44.2425C18.0538 44.2524 18.0129 44.2623 17.9822 44.2425C17.9412 44.2323 17.9208 44.2026 17.9004 44.1627C17.8799 44.1228 17.8799 44.0829 17.9004 44.043C17.9208 44.0033 17.9515 43.9734 17.9924 43.9635C18.0334 43.9535 18.0743 43.9435 18.105 43.9635C18.1459 43.9734 18.1664 44.0033 18.1869 44.043C18.1971 44.0829 18.1971 44.1228 18.1869 44.1627Z" fill="white"/>
<path d="M19.3633 45.5375C19.3428 45.4678 19.3121 45.4081 19.261 45.3482C19.2098 45.2885 19.1381 45.2486 19.0563 45.2188C18.9744 45.1888 18.8926 45.1789 18.8107 45.1888C18.7288 45.1988 18.6572 45.2188 18.5958 45.2486C18.5242 45.2885 18.4731 45.3283 18.4218 45.3982C18.3707 45.4579 18.3298 45.5275 18.3093 45.6073C18.2786 45.6871 18.2684 45.7666 18.2684 45.8464C18.2684 45.926 18.2888 45.9958 18.3195 46.0655C18.3502 46.1353 18.3911 46.1951 18.4526 46.2449C18.514 46.2946 18.5856 46.3346 18.6674 46.3645C18.7596 46.3943 18.8414 46.4042 18.9233 46.3943C18.9949 46.3843 19.0666 46.3544 19.1279 46.3147L19.2507 46.484C19.1586 46.5338 19.0666 46.5737 18.9642 46.5836C18.8619 46.5935 18.7391 46.5836 18.6163 46.5437C18.4935 46.5038 18.4014 46.454 18.3195 46.3843C18.2376 46.3147 18.1763 46.235 18.1251 46.1453C18.0841 46.0556 18.0535 45.956 18.0535 45.8563C18.0433 45.7567 18.0637 45.6472 18.1046 45.5375C18.1456 45.428 18.1968 45.3383 18.2684 45.2586C18.34 45.1789 18.4116 45.1192 18.5037 45.0793C18.5958 45.0394 18.6981 45.0095 18.8005 44.9995C18.9131 44.9896 19.0256 45.0095 19.1381 45.0493C19.2405 45.0793 19.3224 45.139 19.4144 45.2089C19.4964 45.2785 19.5577 45.3682 19.5986 45.4678L19.3633 45.5375Z" fill="white"/>
<path d="M19.6601 47.6197L19.4451 47.5698L19.9977 45.378L20.2126 45.4278L20.1512 45.6768H20.1615C20.2434 45.5973 20.3457 45.5475 20.4582 45.5175C20.5708 45.4976 20.6834 45.4976 20.7858 45.5175C20.8982 45.5475 21.0006 45.5872 21.0927 45.6471C21.1744 45.7068 21.2462 45.7866 21.2974 45.8661C21.3485 45.9459 21.3793 46.0455 21.3895 46.1451C21.3997 46.2448 21.3997 46.3543 21.3689 46.464C21.3383 46.5735 21.2974 46.6632 21.236 46.7529C21.1744 46.8325 21.1029 46.9023 21.021 46.9621C20.9393 47.0119 20.8471 47.0518 20.7346 47.0617C20.6321 47.0815 20.5196 47.0716 20.4071 47.0418C20.3047 47.0119 20.2024 46.972 20.1103 46.8924C20.0182 46.8226 19.9568 46.7329 19.9159 46.6233H19.9056L19.6601 47.6197ZM21.1439 46.4142C21.1643 46.3345 21.1744 46.2546 21.1643 46.1751C21.1541 46.0953 21.1337 46.0257 21.1029 45.9658C21.0722 45.906 21.021 45.8463 20.9596 45.7965C20.8982 45.7467 20.8265 45.7167 20.7346 45.6969C20.6527 45.6768 20.5708 45.6768 20.489 45.6868C20.4071 45.6969 20.3354 45.7267 20.274 45.7665C20.2126 45.8064 20.1512 45.8562 20.1103 45.9259C20.0591 45.9858 20.0284 46.0654 20.008 46.1451C19.9875 46.2249 19.9773 46.3045 19.9977 46.3843C20.0182 46.464 20.0284 46.5337 20.0694 46.5934C20.1103 46.6533 20.1615 46.713 20.2229 46.7628C20.2842 46.8126 20.3559 46.8424 20.4378 46.8625C20.5298 46.8823 20.6117 46.8924 20.6834 46.8724C20.7652 46.8625 20.8265 46.8325 20.8881 46.7926C20.9494 46.7529 21.0006 46.7031 21.0415 46.6333C21.0927 46.5636 21.1233 46.4938 21.1439 46.4142Z" fill="white"/>
<path d="M22.894 46.4841C22.9146 46.3545 22.894 46.2549 22.8326 46.1853C22.7713 46.1154 22.6792 46.0656 22.5461 46.0458C22.4539 46.0358 22.3722 46.0358 22.2903 46.0556C22.2084 46.0757 22.1368 46.1055 22.0755 46.1553L21.9732 45.996C22.0447 45.9461 22.1368 45.9063 22.2493 45.8864C22.362 45.8664 22.4746 45.8565 22.6074 45.8765C22.6894 45.8864 22.7611 45.9063 22.8326 45.9461C22.9042 45.9761 22.9556 46.0259 23.0067 46.0757C23.0579 46.1255 23.0885 46.1853 23.109 46.265C23.1294 46.3346 23.1294 46.4145 23.1192 46.5041L23.0169 47.1516C23.0067 47.2113 22.9964 47.271 22.9964 47.331C22.9861 47.3907 22.9861 47.4405 22.9964 47.4903L22.8019 47.4603C22.8019 47.4206 22.8019 47.3808 22.8019 47.3409C22.8019 47.301 22.8123 47.2611 22.8123 47.2213H22.8019C22.7202 47.311 22.6281 47.3708 22.5359 47.4006C22.4438 47.4306 22.3313 47.4405 22.2084 47.4206C22.147 47.4105 22.0959 47.3907 22.0345 47.3708C21.9732 47.3409 21.922 47.311 21.881 47.271C21.8401 47.2313 21.7991 47.1715 21.7787 47.1117C21.7581 47.052 21.748 46.9821 21.7581 46.8926C21.7787 46.7829 21.8197 46.6932 21.8913 46.6335C21.9628 46.5738 22.0447 46.5339 22.1572 46.524C22.2596 46.5041 22.3824 46.5041 22.5051 46.514C22.6382 46.524 22.7713 46.5339 22.9042 46.5638L22.894 46.4841ZM22.7917 46.6932C22.6996 46.6833 22.6074 46.6734 22.5155 46.6635C22.4234 46.6535 22.3415 46.6635 22.2596 46.6734C22.1778 46.6833 22.1165 46.7033 22.0653 46.7432C22.0139 46.7829 21.9834 46.8327 21.9628 46.9026C21.9526 46.9524 21.9628 47.0022 21.9732 47.0421C21.9834 47.082 22.0139 47.1117 22.0447 47.1416C22.0755 47.1715 22.1165 47.1915 22.1572 47.2014C22.1982 47.2213 22.2391 47.2313 22.2801 47.2313C22.362 47.2413 22.4336 47.2413 22.4949 47.2213C22.5563 47.2014 22.6178 47.1715 22.669 47.1416C22.7202 47.1018 22.7611 47.052 22.7917 47.0022C22.8224 46.9425 22.8429 46.8825 22.8531 46.8228L22.8736 46.7133L22.7917 46.6932Z" fill="white"/>
<path d="M23.8865 47.4104C23.8865 47.4503 23.8661 47.4902 23.8251 47.53C23.7841 47.5598 23.7432 47.5798 23.692 47.5699C23.6408 47.5598 23.6001 47.54 23.5693 47.51C23.5386 47.4703 23.5284 47.4304 23.5284 47.3905C23.5284 47.3507 23.549 47.3108 23.5897 47.2709C23.6307 47.2312 23.6716 47.2211 23.7228 47.2312C23.774 47.2312 23.8149 47.261 23.8457 47.2909C23.8762 47.3207 23.8969 47.3606 23.8865 47.4104Z" fill="white"/>
<path d="M25.9641 46.9124C25.9641 47.022 25.9333 47.1315 25.8923 47.2211C25.8515 47.3108 25.79 47.4005 25.7185 47.4603C25.6467 47.5301 25.5548 47.5799 25.4523 47.6198C25.35 47.6595 25.2374 47.6696 25.1147 47.6696C24.9919 47.6696 24.8895 47.6397 24.7872 47.5998C24.6849 47.5599 24.603 47.5002 24.5314 47.4305C24.4597 47.3607 24.4085 47.271 24.3677 47.1713C24.3268 47.0718 24.3164 46.9722 24.3164 46.8527C24.3164 46.743 24.3472 46.6334 24.3882 46.5437C24.4291 46.454 24.4905 46.3645 24.562 46.3046C24.6338 46.235 24.7259 46.1852 24.8282 46.1453C24.9305 46.1054 25.043 46.0955 25.1555 46.0955C25.2784 46.0955 25.3807 46.1255 25.483 46.1652C25.5854 46.205 25.6673 46.2648 25.7389 46.3346C25.8106 46.4042 25.8617 46.4939 25.9027 46.5935C25.9539 46.6932 25.9743 46.7928 25.9641 46.9124ZM25.7287 46.9025C25.7287 46.8227 25.7185 46.743 25.6978 46.6634C25.6775 46.5935 25.6365 46.5239 25.5854 46.4642C25.5342 46.4042 25.4728 46.3645 25.4011 46.3247C25.3295 46.2947 25.2476 46.2748 25.1555 46.2648C25.0636 46.2648 24.9817 46.2748 24.9099 46.3046C24.8384 46.3346 24.777 46.3745 24.7259 46.4243C24.6747 46.4741 24.6338 46.5437 24.603 46.6136C24.5724 46.6832 24.5518 46.763 24.5518 46.8426C24.5518 46.9223 24.562 47.0021 24.5826 47.0817C24.603 47.1515 24.6439 47.2212 24.6951 47.2811C24.7462 47.3408 24.8076 47.3807 24.8691 47.4105C24.9305 47.4404 25.0226 47.4603 25.1043 47.4603C25.1965 47.4603 25.2784 47.4503 25.35 47.4204C25.4217 47.3906 25.483 47.3507 25.5342 47.3009C25.5854 47.2512 25.6263 47.1815 25.6571 47.1117C25.7185 47.0618 25.7287 46.9821 25.7287 46.9025Z" fill="white"/>
<path d="M26.4447 46.3146C26.4447 46.2547 26.4345 46.195 26.4241 46.1451L26.6392 46.1352C26.6494 46.1751 26.6494 46.2249 26.6494 46.2648C26.6494 46.3146 26.6595 46.3543 26.6595 46.3843H26.6697C26.7107 46.2946 26.7721 46.2249 26.854 46.1652C26.9359 46.1053 27.0382 46.0755 27.1406 46.0755C27.1711 46.0755 27.1917 46.0755 27.2225 46.0755C27.2429 46.0755 27.2736 46.0755 27.2941 46.0854L27.2736 46.2946C27.2632 46.2946 27.2429 46.2846 27.2121 46.2846C27.1815 46.2846 27.1508 46.2846 27.12 46.2846C27.0586 46.2846 27.0075 46.2946 26.9461 46.3245C26.8949 46.3444 26.8438 46.3843 26.8028 46.4341C26.7619 46.4838 26.7313 46.5436 26.7107 46.6135C26.6903 46.6831 26.6801 46.7728 26.6801 46.8724L26.7107 47.6395L26.4857 47.6494L26.4447 46.4838C26.4447 46.4341 26.4447 46.3843 26.4447 46.3146Z" fill="white"/>
<path d="M27.867 47.8688C27.9385 47.9384 28.0307 47.9983 28.1432 48.038C28.2559 48.0779 28.3684 48.098 28.4911 48.0779C28.6038 48.068 28.6855 48.038 28.7675 47.9983C28.839 47.9585 28.9005 47.9087 28.9416 47.8487C28.9823 47.789 29.0131 47.7293 29.0233 47.6495C29.0334 47.5798 29.0438 47.5001 29.0334 47.4205L29.0029 47.1415H28.9927C28.9415 47.2412 28.8698 47.3209 28.7675 47.3807C28.6651 47.4404 28.5629 47.4803 28.4503 47.4902C28.3274 47.5001 28.2251 47.5001 28.1228 47.4703C28.0205 47.4404 27.9283 47.4005 27.8568 47.3408C27.785 47.281 27.7135 47.2112 27.6726 47.1215C27.6214 47.032 27.5906 46.9322 27.5804 46.8227C27.5702 46.7132 27.5804 46.6135 27.6008 46.5139C27.6316 46.4143 27.6726 46.3345 27.7339 46.2548C27.7952 46.1752 27.867 46.1153 27.9591 46.0655C28.0513 46.0157 28.1536 45.9859 28.2763 45.9658C28.3888 45.9559 28.5015 45.9658 28.614 46.0057C28.7265 46.0456 28.8186 46.1053 28.8904 46.195H28.9005L28.8698 45.9361L29.095 45.916L29.2587 47.3906C29.2688 47.4703 29.2688 47.5598 29.2587 47.6495C29.2485 47.7392 29.2177 47.8289 29.1564 47.9186C29.1052 47.9983 29.0233 48.0779 28.9209 48.1376C28.8186 48.1976 28.6855 48.2375 28.5117 48.2573C28.3684 48.2772 28.2353 48.2573 28.1024 48.2174C27.9693 48.1775 27.8464 48.1178 27.7441 48.038L27.867 47.8688ZM27.785 46.8127C27.7952 46.8925 27.8159 46.9622 27.8464 47.032C27.8772 47.1017 27.9283 47.1515 27.9795 47.2013C28.0307 47.2511 28.1024 47.281 28.1739 47.3108C28.2455 47.3308 28.3274 47.3408 28.4196 47.3308C28.5015 47.3209 28.5832 47.3009 28.6448 47.261C28.7163 47.2211 28.7675 47.1814 28.8186 47.1215C28.8698 47.0618 28.9005 47.002 28.9209 46.9223C28.9415 46.8527 28.9517 46.7728 28.9416 46.6832C28.9312 46.6036 28.9107 46.5338 28.8698 46.4641C28.8288 46.3943 28.7879 46.3445 28.7265 46.2947C28.6651 46.2448 28.6038 46.2151 28.5218 46.1851C28.4503 46.1653 28.3684 46.1552 28.2865 46.1651C28.1944 46.1752 28.1126 46.195 28.0513 46.2349C27.9795 46.2748 27.9283 46.3246 27.8874 46.3843C27.8464 46.4441 27.8159 46.504 27.7952 46.5836C27.785 46.6534 27.7749 46.733 27.785 46.8127Z" fill="white"/>
<path d="M29.8727 47.3706L29.6785 47.3408L30.2105 44.89L30.4049 44.92L29.8727 47.3706Z" fill="white"/>
<path d="M31.5718 45.7867C31.5206 45.7368 31.4593 45.697 31.3875 45.6769C31.316 45.657 31.2341 45.657 31.1521 45.6769C31.1114 45.687 31.0806 45.697 31.0397 45.7168C30.9986 45.7368 30.9681 45.7567 30.9475 45.7765C30.9271 45.8065 30.9065 45.8364 30.8964 45.8662C30.8862 45.8961 30.8862 45.936 30.8964 45.9759C30.9169 46.0456 30.9577 46.0855 31.0192 46.1152C31.0806 46.1353 31.183 46.1452 31.316 46.1452C31.5001 46.1353 31.6433 46.1551 31.7456 46.2049C31.848 46.2547 31.9095 46.3345 31.9401 46.444C31.9607 46.5238 31.9607 46.6035 31.9401 46.6633C31.9197 46.723 31.8889 46.7827 31.848 46.8325C31.8072 46.8823 31.7456 46.9222 31.6843 46.9522C31.623 46.982 31.5512 47.0119 31.4899 47.0218C31.3773 47.0518 31.2649 47.0518 31.1419 47.032C31.0295 47.0119 30.9169 46.9621 30.8248 46.8823L30.9681 46.7131C31.0192 46.7728 31.0908 46.8127 31.1727 46.8325C31.2545 46.8625 31.3466 46.8625 31.4387 46.8427C31.4899 46.8325 31.5308 46.8127 31.5718 46.8028C31.6128 46.7827 31.6433 46.7629 31.6741 46.7329C31.7049 46.7032 31.7151 46.6732 31.7355 46.6333C31.7456 46.5934 31.7456 46.5537 31.7355 46.504C31.7151 46.4241 31.6639 46.3743 31.582 46.3543C31.5001 46.3345 31.3773 46.3246 31.2239 46.3246C31.1727 46.3246 31.1216 46.3246 31.0704 46.3246C31.0192 46.3246 30.9681 46.3045 30.9169 46.2846C30.8658 46.2648 30.8248 46.2349 30.7838 46.195C30.7429 46.1551 30.7121 46.1053 30.7019 46.0356C30.6815 45.9658 30.6815 45.8961 30.7019 45.8364C30.7225 45.7765 30.7429 45.7267 30.7838 45.6769C30.8248 45.6271 30.876 45.5874 30.9373 45.5575C30.9987 45.5275 31.06 45.4977 31.1318 45.4876C31.2341 45.4678 31.3466 45.4578 31.4489 45.4876C31.5616 45.5076 31.6433 45.5575 31.7151 45.6271L31.5718 45.7867Z" fill="white"/>
<path d="M33.7922 45.5275C33.8331 45.6372 33.8434 45.7368 33.8331 45.8463C33.8227 45.946 33.8024 46.0456 33.7512 46.1353C33.7103 46.225 33.6388 46.3045 33.5568 46.3743C33.4749 46.444 33.3725 46.4938 33.2601 46.5337C33.1475 46.5736 33.035 46.5835 32.9325 46.5835C32.82 46.5736 32.7279 46.5537 32.6357 46.5039C32.5438 46.464 32.4619 46.3942 32.3902 46.3245C32.3186 46.2448 32.2674 46.1551 32.2265 46.0456C32.1855 45.936 32.1753 45.8364 32.1855 45.7267C32.1959 45.6271 32.2163 45.5275 32.2674 45.4378C32.3084 45.3483 32.38 45.2685 32.4619 45.1986C32.5438 45.129 32.6461 45.0792 32.7587 45.0393C32.8711 44.9995 32.9837 44.9895 33.0964 44.9895C33.2089 44.9995 33.301 45.0195 33.3931 45.0693C33.4853 45.1092 33.567 45.1788 33.6388 45.2485C33.7103 45.3283 33.7614 45.418 33.7922 45.5275ZM33.5772 45.5973C33.5466 45.5175 33.5158 45.4479 33.4647 45.388C33.4135 45.3283 33.3623 45.2785 33.2908 45.2386C33.2292 45.1986 33.1577 45.1788 33.0758 45.1689C32.9941 45.159 32.9121 45.1689 32.8302 45.1986C32.7485 45.2286 32.6767 45.2685 32.6154 45.3183C32.554 45.3681 32.5131 45.4278 32.4823 45.4977C32.4517 45.5673 32.4311 45.6372 32.4311 45.7168C32.4311 45.7965 32.4415 45.8763 32.4721 45.9559C32.5028 46.0356 32.5334 46.1053 32.5846 46.1652C32.6357 46.225 32.6869 46.2748 32.7587 46.3147C32.82 46.3543 32.8918 46.3743 32.9735 46.3843C33.0554 46.3942 33.127 46.3843 33.2191 46.3543C33.301 46.3245 33.3725 46.2846 33.4341 46.2348C33.4955 46.1851 33.5364 46.1253 33.567 46.0555C33.5977 45.9858 33.6079 45.916 33.6181 45.8364C33.6079 45.7566 33.5977 45.6769 33.5772 45.5973Z" fill="white"/>
<path d="M35.1426 44.5315C35.0812 44.4916 35.0199 44.4715 34.938 44.4616C34.856 44.4517 34.7743 44.4715 34.7026 44.5015C34.6208 44.5315 34.5491 44.5813 34.4979 44.641C34.4468 44.7007 34.4058 44.7605 34.3752 44.8303C34.3546 44.9 34.3444 44.9698 34.3444 45.0493C34.3444 45.1291 34.365 45.2089 34.4058 45.2885C34.4365 45.3682 34.4877 45.4379 34.5389 45.4877C34.59 45.5476 34.6514 45.5873 34.7231 45.6173C34.7947 45.6472 34.8664 45.6671 34.9481 45.6671C35.0301 45.6671 35.112 45.6472 35.1938 45.6173C35.2859 45.5774 35.3577 45.5276 35.3984 45.4678C35.4495 45.4081 35.4803 45.3484 35.4905 45.2785L35.6951 45.3283C35.6646 45.428 35.6236 45.5176 35.552 45.5974C35.4803 45.677 35.3882 45.7468 35.2655 45.7966C35.1528 45.8465 35.0403 45.8663 34.9278 45.8762C34.8152 45.8762 34.7231 45.8663 34.6208 45.8264C34.5287 45.7867 34.4468 45.7369 34.365 45.6572C34.2933 45.5873 34.2319 45.4978 34.1808 45.3881C34.1398 45.2885 34.109 45.1789 34.109 45.0793C34.109 44.9797 34.1194 44.8801 34.1602 44.7904C34.2011 44.7007 34.2523 44.611 34.3343 44.5414C34.4058 44.4616 34.5081 44.4019 34.6208 44.362C34.7129 44.3221 34.8152 44.3023 34.938 44.3023C35.0609 44.3023 35.1528 44.332 35.2553 44.3818L35.1426 44.5315Z" fill="white"/>
</svg>
