<svg width="37" height="40" viewBox="0 0 37 40" fill="none" xmlns="http://www.w3.org/2000/svg">
<mask id="mask0_1_31" style="mask-type:luminance" maskUnits="userSpaceOnUse" x="0" y="0" width="37" height="40">
<path d="M36.0975 0H0V40H36.0975V0Z" fill="white"/>
</mask>
<g mask="url(#mask0_1_31)">
<path d="M31.8516 35.6022C30.9201 37.1477 28.7642 37.8988 27.4506 37.9907C25.8091 38.105 24.0908 37.4952 22.9912 36.2206C22.4822 35.6754 21.9691 34.752 21.5563 34.1313C20.4778 32.433 19.4055 30.6775 18.3764 28.9474L18.0652 28.4249C17.3023 27.0921 15.9089 26.1579 14.3815 25.9919C14.2552 25.9751 14.0003 25.9558 13.8743 25.958C11.6648 25.9537 9.40744 25.9361 7.19678 25.8676C6.60418 25.8447 5.60029 25.8313 5.00456 25.7656C2.78999 25.4736 0.859658 23.7521 0.455118 21.5593C0.363021 21.0519 0.377541 20.5213 0.411415 20.0094C0.471189 19.0736 0.771232 18.5499 0.771232 18.5499C0.280417 20.2709 0.78924 21.4892 0.963942 21.8239C1.72911 23.2851 3.17735 24.3657 4.84871 24.4674C5.51302 24.5105 6.37689 24.405 7.17781 24.372C9.39929 24.2428 11.6475 24.1489 13.8751 24.0957C16.5716 24.0677 18.8251 25.6314 19.9752 28.03C20.9502 29.792 21.9283 31.6015 22.8514 33.3881C23.0853 33.843 23.5584 34.7861 23.8085 35.2194C25.0979 37.2803 27.7765 37.9946 30.0631 36.9676L31.8563 35.6021L31.8516 35.6022Z" fill="#7C3CEC"/>
<path d="M29.7024 2.93469C29.5701 2.849 28.0043 2.11527 28.2049 2.16647C29.9058 2.5958 30.8626 3.59226 31.1237 3.83267C32.6681 5.24697 33.3118 7.6521 32.5485 9.70126C32.4515 10.0026 32.2791 10.3457 32.1505 10.6072C31.2517 12.3947 30.3033 14.1974 29.3517 15.9526C29.1558 16.3104 28.6742 17.1964 28.4828 17.5398C27.6261 19.0079 27.6018 20.8872 28.4292 22.3735C29.4997 24.2955 30.5638 26.2604 31.5731 28.2144C31.7453 28.5444 32.233 29.5039 32.398 29.8316C33.4616 31.9035 33.0498 34.6077 31.3219 36.1695C30.9401 36.5068 30.4934 36.8047 30.0356 37.0125C29.0541 37.4601 27.824 37.4316 27.824 37.4316C30.4082 37.2367 31.3951 35.4595 31.6189 34.9276C31.8723 34.3239 32.0085 33.6746 32.0017 33.0159C32.0095 32.0977 31.7303 31.2298 31.2487 30.4771C31.053 30.169 30.4786 29.2776 30.2755 28.9553C29.2044 27.2712 28.1419 25.5321 27.1201 23.8138C26.3676 22.6663 25.8946 21.3213 25.9204 19.9391C25.9199 18.5478 26.4252 17.2499 27.1709 16.0977C28.1874 14.377 29.2415 12.6344 30.306 10.9438C30.4889 10.66 31.0792 9.73404 31.2384 9.44824C32.4776 7.27662 31.7579 4.4685 29.7024 2.93469Z" fill="#7C3CEC"/>
<path d="M34.7014 33.8614C33.1431 36.1527 30.5121 36.3913 29.6784 36.3202C28.4756 36.2175 27.2641 35.8891 26.3252 35.104C25.7726 34.6499 25.3082 34.0681 24.9337 33.4587C24.7161 33.12 24.0973 32.1414 23.87 31.7887C22.8133 30.1161 21.7801 28.4218 20.7635 26.7271C19.4997 24.4969 17.1162 22.9712 14.5561 22.7781C11.9554 22.7069 9.31593 22.7364 6.71222 22.632C5.98647 22.6113 5.17533 22.6041 4.45643 22.4311C2.88725 22.0518 1.49521 20.9203 0.841871 19.4619C0.45611 18.6172 0.316746 17.7182 0.310817 16.8336C0.300932 15.4496 1.13651 14.5408 1.13651 14.5408C-0.107824 16.5579 0.970793 18.6724 1.21532 19.0558C1.95615 20.213 3.14604 21.0722 4.52899 21.274C4.60299 21.2894 4.74364 21.3083 4.81976 21.3094L5.11029 21.3304C5.20777 21.3287 5.30525 21.327 5.40273 21.3253C7.95917 21.1737 10.7439 21.0204 13.2873 20.9428C16.7166 20.6546 20.1458 22.2691 21.9831 25.2027C22.086 25.3722 22.2548 25.6427 22.3458 25.8148C23.5099 27.9207 24.6677 30.0742 25.7706 32.2169C25.9281 32.5209 26.1968 33.0609 26.366 33.3576C27.5944 35.6027 30.5355 36.3695 32.8189 35.2927L34.7014 33.8614Z" fill="#7C3CEC"/>
<path d="M32.5966 4.58358C32.5292 4.53719 31.0421 3.81873 31.0421 3.81873C32.7448 4.21473 33.6623 5.14053 33.8871 5.34589C35.2235 6.55691 36.0466 8.47612 35.7453 10.2913C35.6402 11.0851 35.3204 11.8375 34.945 12.5409C34.2875 13.8414 33.6084 15.1328 32.9173 16.4148L31.8687 18.3334C31.2896 19.2211 31.1553 20.3865 31.6524 21.341C32.8956 23.6168 34.2406 26.0073 35.3587 28.3399C36.5591 30.8923 35.4788 34.1314 32.8028 35.3316C31.7338 35.8116 30.5986 35.7744 30.5986 35.7744C32.734 35.6182 33.9325 34.1084 34.1421 33.7147C34.925 32.2408 35.0001 30.4153 34.1232 28.9537C33.9857 28.7064 33.7172 28.3115 33.563 28.0645C32.4215 26.2983 31.214 24.2954 30.1334 22.4758C29.3012 21.1228 29.2226 19.3452 29.9494 17.9269C30.1378 17.5503 31.1296 15.9157 31.3559 15.5241C32.107 14.2742 32.8678 13.0338 33.6526 11.8024C34.0095 11.2658 34.3606 10.6698 34.528 10.0438C34.9089 8.70051 34.6553 7.25179 33.9378 6.06802C33.5925 5.49849 33.1412 4.99027 32.599 4.58353L32.5966 4.58358Z" fill="#7C3CEC"/>
<path d="M29.0395 37.2112C27.6882 39.0946 25.8178 39.5768 25.0233 39.7096C23.4843 39.9648 21.7796 39.5878 20.5983 38.5406C19.9904 38.0494 19.4898 37.3066 19.0983 36.6736C18.3037 35.4341 17.5279 34.1824 16.7663 32.9257L15.6344 31.0309C15.1565 30.0831 14.1789 29.3986 13.1059 29.3721C10.8915 29.3656 8.46069 29.3557 6.25449 29.2706C5.51223 29.2574 4.70272 29.2073 3.97019 28.9347C1.69577 28.2109 0.283075 26.1688 0.453549 23.3999C0.53321 22.1047 1.24917 21.0196 1.24917 21.0196C0.0987827 22.9684 0.902565 25.0069 1.08661 25.3319C2.05819 27.0368 3.95681 27.8956 6.23314 27.775C7.70397 27.697 9.17233 27.6143 10.6412 27.5577C11.1524 27.5535 13.0295 27.4494 13.5062 27.5101C14.8831 27.6359 16.1714 28.4125 16.9406 29.5597C17.1847 29.9169 18.0944 31.623 18.325 32.0256C19.0278 33.3167 19.7188 34.6174 20.3886 35.9281C20.6844 36.5246 20.9948 37.1423 21.4481 37.6291C22.8474 39.1768 25.3629 39.8154 27.149 38.7235C27.6643 38.4077 29.0347 37.2065 29.0347 37.2065L29.0395 37.2112Z" fill="#7C3CEC"/>
<path d="M29.685 2.92611C30.7669 3.72537 31.2214 4.69492 31.2214 4.69492C30.2823 3.08217 28.6139 2.59995 28.3468 2.5618C26.3418 2.28524 24.3045 3.15321 23.2985 4.93073C23.1227 5.21206 22.6592 6.17861 22.4887 6.49552C21.5803 8.27371 20.6199 10.0718 19.6587 11.8224C19.0476 13.0531 18.1914 14.1478 16.9957 14.8608C15.8192 15.5877 14.4209 15.869 13.0499 15.8073C11.0521 15.8041 9.01344 15.7826 7.01931 15.7199C6.65041 15.7049 5.57724 15.6737 5.21309 15.6587C4.3207 15.6291 3.43238 15.8325 2.64631 16.3076C1.6221 16.901 0.919732 17.9478 0.557066 19.1076C0.117794 20.5114 0.66747 22.4353 0.839381 22.7463C0.0385514 21.2857 0.293316 19.1218 0.389173 18.6183C0.851131 16.3341 2.75184 14.4506 5.18526 14.3368C5.55362 14.3209 6.61066 14.2453 6.99788 14.2196C9.19078 14.0885 11.4273 14.0019 13.6238 13.9398C15.3235 13.8935 16.926 12.9118 17.7515 11.4252C17.9502 11.0888 18.4652 10.2141 18.6709 9.86802C19.6946 8.15441 20.7607 6.41866 21.8372 4.73267C21.9946 4.48734 22.203 4.16263 22.413 3.92827C24.1448 1.76945 27.5393 1.26307 29.6825 2.91902L29.685 2.92611Z" fill="#7C3CEC"/>
<path d="M32.5865 4.57848C33.331 5.12915 33.7686 5.8136 33.7686 5.8136C32.8147 4.57212 31.2693 4.19241 30.9358 4.16493C28.9304 4.00016 26.8975 4.98934 25.9935 6.87924C25.9085 7.05434 25.6394 7.57988 25.5475 7.76462C24.5565 9.71549 23.5183 11.6886 22.4768 13.607C22.0625 14.3991 21.5547 15.2832 20.939 15.9765C19.2581 17.918 16.7483 19.1082 14.1805 19.1554C12.0832 19.1753 9.98717 19.1334 7.89101 19.0844C6.24103 19.118 4.50672 18.6797 2.96283 19.4772C1.91769 19.9616 1.20316 20.8565 0.799501 21.9837C0.0422362 24.1088 0.904033 26.201 0.904033 26.201C-0.137175 24.1857 0.447312 21.155 1.17203 20.1625C2.17307 18.787 3.52922 17.862 5.23259 17.7538C6.11148 17.6909 6.99057 17.6398 7.8697 17.5912C9.62792 17.4915 11.3866 17.4204 13.1455 17.3588C13.949 17.3353 14.7906 17.3158 15.5646 17.1049C17.4712 16.6483 19.1768 15.4412 20.2566 13.8075C21.3756 11.9686 22.5002 10.0392 23.6526 8.20677C23.9673 7.70658 24.5689 6.74476 24.8837 6.25171C26.5173 3.64272 30.0549 2.74856 32.5913 4.58316L32.5865 4.57848Z" fill="#7C3CEC"/>
<path d="M27.9505 2.42108C26.8518 1.20115 25.5078 0.91543 25.0436 0.892614C23.5893 0.822868 22.1214 1.34556 21.1126 2.40962C20.6593 2.8718 20.3274 3.4793 20.0474 4.05974C19.3898 5.36026 18.7108 6.65165 18.0197 7.93373C17.7937 8.33961 16.9 10.0081 16.6709 10.3713C15.824 11.7203 14.2546 12.5587 12.6655 12.5341C10.5464 12.533 8.21532 12.5166 6.10911 12.4369C5.8283 12.4275 5.33798 12.4051 5.05742 12.41C3.46852 12.3997 2.02816 13.2692 1.13711 14.5428C0.802993 15.022 0.677481 15.4618 0.528099 16.0328C0.0729484 17.7531 0.881594 19.5251 0.780461 19.3176C-0.326758 17.0632 0.422719 14.3555 1.11636 13.354C1.98634 12.0998 3.39024 11.1858 4.95255 11.0348C7.52663 10.8044 10.2725 10.7398 12.8632 10.647C13.9348 10.5855 14.8714 9.87707 15.3376 8.92474L16.4511 7.04546C17.2023 5.79563 17.9631 4.55514 18.7478 3.32374C19.1617 2.64346 19.6448 1.98336 20.2736 1.48721C21.7174 0.272854 23.876 -0.0549788 25.5974 0.599928C26.0284 0.763644 26.4064 1.0258 26.7913 1.27831C27.4457 1.70926 27.9505 2.42108 27.9505 2.42108Z" fill="#7C3CEC"/>
<path d="M26.8004 1.2837C26.3925 1.07915 25.3505 0.514648 25.3505 0.514648C27.198 1.03655 28.1033 2.07672 28.4059 2.38299C30.0088 4.0127 30.4039 6.61719 29.3021 8.76264C29.0425 9.28564 28.5225 10.2889 28.2488 10.8192C27.2621 12.7462 26.176 14.6988 25.1675 16.6C24.3135 18.363 24.1453 20.4446 24.7298 22.318C24.943 23.0896 25.3579 23.8291 25.7482 24.5287C26.5933 26.0717 27.429 27.6197 28.2411 29.1823C28.6471 29.9625 29.0532 30.745 29.4475 31.5325C30.2232 33.0529 30.279 34.888 29.5231 36.4114C29.397 36.6776 29.2444 36.9324 29.0679 37.1733C28.5638 37.8623 27.8521 38.3718 27.1336 38.7696C25.9229 39.44 24.7186 39.2565 24.7186 39.2565C25.9862 39.2511 26.8254 38.825 27.64 38.2138C28.5157 37.5563 29.2618 35.7453 29.1235 34.3659C29.0219 32.6315 27.7583 31.3645 26.9436 29.928C26.0044 28.4389 25.0886 26.9352 24.1823 25.4265C22.3822 22.7205 21.9448 19.4603 23.2096 16.4344C23.4815 15.797 23.8649 15.1434 24.2048 14.5881C25.3232 12.7135 26.4887 10.8119 27.6599 8.96492C27.7642 8.81089 28.0856 8.28442 28.1923 8.13035C29.6827 5.90202 28.9536 2.82769 26.8028 1.28603L26.8004 1.2837Z" fill="#7C3CEC"/>
</g>
</svg>
