<!DOCTYPE svg PUBLIC "-//W3C//DTD SVG 1.1//EN" "http://www.w3.org/Graphics/SVG/1.1/DTD/svg11.dtd">

<!-- Uploaded to: SVG Repo, www.svgrepo.com, Transformed by: SVG Repo Mixer Tools -->
<svg width="800px" height="800px" viewBox="0 0 24 24" fill="none" xmlns="http://www.w3.org/2000/svg" stroke="#ffffff">

<g id="SVGRepo_bgCarrier" stroke-width="0"/>

<g id="SVGRepo_tracerCarrier" stroke-linecap="round" stroke-linejoin="round"/>

<g id="SVGRepo_iconCarrier"> <path d="M7 10V9C7 6.23858 9.23858 4 12 4C14.7614 4 17 6.23858 17 9V10C19.2091 10 21 11.7909 21 14C21 15.4806 20.1956 16.8084 19 17.5M7 10C4.79086 10 3 11.7909 3 14C3 15.4806 3.8044 16.8084 5 17.5M7 10C7.43285 10 7.84965 10.0688 8.24006 10.1959M12 12V21M12 12L15 15M12 12L9 15" stroke="#ffffff" stroke-width="1.5" stroke-linecap="round" stroke-linejoin="round"/> </g>

</svg>