<svg width="406" height="266" viewBox="0 0 406 266" fill="none" xmlns="http://www.w3.org/2000/svg">
<line x1="173.836" y1="37.2242" x2="310.797" y2="278.113" stroke="url(#paint0_radial_4481_14528)" stroke-width="0.910451"/>
<line x1="275.836" y1="0.224144" x2="395.105" y2="209.905" stroke="url(#paint1_radial_4481_14528)" stroke-width="0.910451"/>
<line x1="81.8902" y1="90.402" x2="181.105" y2="264.906" stroke="url(#paint2_radial_4481_14528)" stroke-width="0.910451"/>
<path d="M0.158569 180.902L339.65 54.7013" stroke="url(#paint3_radial_4481_14528)" stroke-width="0.910451"/>
<line x1="36.0859" y1="232.192" x2="375.578" y2="105.991" stroke="url(#paint4_radial_4481_14528)" stroke-width="0.910451"/>
<line x1="126.086" y1="264.21" x2="465.578" y2="138.009" stroke="url(#paint5_radial_4481_14528)" stroke-width="0.910451"/>
<path d="M211.37 103.407V86.3145L241.595 138.396L241.595 157.031C229.874 136.823 223.091 123.615 211.37 103.407Z" fill="#F6F6F3" stroke="#CFCFC9" stroke-width="0.910451" stroke-linejoin="round"/>
<path d="M342.95 119.29V100.988L241.612 138.248V157.006L342.95 119.29Z" fill="#EDEDE8" stroke="#CFCFC9" stroke-width="0.910451" stroke-linejoin="round"/>
<g clip-path="url(#clip0_4481_14528)">
<rect width="108.786" height="61.9854" rx="1.8209" transform="matrix(0.939942 -0.341333 0.500853 0.865532 211.495 85.0547)" fill="#FBFBF9"/>
<g filter="url(#filter0_d_4481_14528)">
<path d="M237.004 100.382L236.653 99.775L238.287 99.1814L235.798 94.8788L234.163 95.4724L233.812 94.8656L237.851 93.3988L238.202 94.0056L236.568 94.5991L239.058 98.9018L240.692 98.3082L241.043 98.915L237.004 100.382ZM244.167 97.9045C242.704 98.4359 241.357 97.9333 240.739 96.956L241.544 96.6639C242.097 97.369 242.998 97.5662 243.811 97.271C244.547 97.0037 245.037 96.454 244.654 95.792C244.403 95.3586 243.953 95.2262 243.216 95.2938L242.099 95.4038C241.249 95.4929 240.2 95.5403 239.593 94.4922C239.069 93.586 239.59 92.6434 240.797 92.2052C242.072 91.7421 243.248 92.1638 243.842 93.0829L243.037 93.375C242.548 92.7802 241.871 92.5588 241.135 92.8261C240.425 93.084 240.086 93.6265 240.392 94.1545C240.652 94.6037 241.096 94.7093 241.881 94.6341L243.037 94.5195C244.193 94.405 244.987 94.6505 245.443 95.4385C246.036 96.463 245.485 97.4259 244.167 97.9045ZM249.097 96.1141C247.685 96.6269 246.281 95.9543 245.191 94.0709C244.102 92.1875 244.375 90.9058 245.787 90.3931C247.199 89.8803 248.603 90.5529 249.693 92.4363C250.783 94.3196 250.509 95.6013 249.097 96.1141ZM248.737 95.4916C249.747 95.1249 249.719 94.1815 248.88 92.7315C248.041 91.2815 247.157 90.6489 246.147 91.0156C245.137 91.3823 245.165 92.3257 246.004 93.7757C246.843 95.2256 247.727 95.8583 248.737 95.4916ZM241.367 107.976C240.807 107.007 241.218 106.161 241.692 105.369C242.207 104.524 242.811 103.742 242.374 102.986C242.013 102.363 241.329 102.182 240.653 102.428C239.874 102.711 239.702 103.307 240.089 103.958L239.293 104.247C238.639 103.226 239.107 102.226 240.322 101.785C241.46 101.372 242.63 101.729 243.164 102.651C243.547 103.313 243.393 103.96 243.096 104.573C242.585 105.57 241.721 106.475 242.021 107.262L245.239 106.093L245.585 106.692L241.486 108.181L241.367 107.976ZM247.383 106.039L247.093 100.204L243.55 101.49L243.199 100.884L247.503 99.3205L247.927 100.053L248.23 105.732L247.383 106.039ZM253.597 103.907C252.202 104.414 250.7 103.662 249.665 101.873C248.625 100.076 248.896 98.7004 250.291 98.1938C251.694 97.6842 253.186 98.42 254.226 100.217C255.261 102.006 255 103.397 253.597 103.907ZM253.241 103.292C254.234 102.932 254.234 101.93 253.413 100.512C252.588 99.0856 251.639 98.448 250.646 98.8085C249.662 99.1659 249.644 100.155 250.469 101.581C251.29 102.999 252.257 103.65 253.241 103.292ZM258.604 102.089C257.209 102.595 255.707 101.844 254.672 100.055C253.632 98.2581 253.903 96.882 255.298 96.3755C256.701 95.8658 258.194 96.6017 259.233 98.3984C260.269 100.187 260.007 101.579 258.604 102.089ZM258.248 101.474C259.241 101.114 259.241 100.112 258.42 98.6936C257.595 97.2673 256.646 96.6296 255.653 96.9901C254.669 97.3475 254.651 98.3363 255.477 99.7626C256.297 101.181 257.264 101.831 258.248 101.474ZM261.438 100.935L261.091 100.337L262.837 99.7026L260.945 96.4323L259.558 96.9357L259.207 96.329L260.38 95.9032C260.5 95.8597 260.544 95.7388 260.484 95.6364L259.992 94.7853L260.762 94.5056L263.607 99.4229L265.345 98.792L265.691 99.3909L261.438 100.935Z" fill="#222220"/>
</g>
<circle cx="1.8209" cy="1.8209" r="1.8209" transform="matrix(0.939942 -0.341333 0.500853 0.865532 314.996 70.6035)" fill="#00A63E"/>
<circle cx="1.8209" cy="1.8209" r="1.8209" transform="matrix(0.939942 -0.341333 0.500853 0.865532 310.152 72.3613)" fill="#00A63E"/>
<circle cx="2.63533" cy="2.63533" r="2.40772" transform="matrix(0.939942 -0.341333 0.500853 0.865532 308.979 71.9336)" stroke="#CFCFC9" stroke-width="0.455226"/>
<circle cx="2.63533" cy="2.63533" r="2.40772" transform="matrix(0.939942 -0.341333 0.500853 0.865532 313.823 70.1758)" stroke="#CFCFC9" stroke-width="0.455226"/>
</g>
<rect x="0.655887" y="0.238629" width="107.876" height="61.075" rx="1.36568" transform="matrix(0.939942 -0.341333 0.500853 0.865532 211.414 85.3107)" stroke="#CFCFC9" stroke-width="0.910451"/>
<path d="M242.338 155.805V138.713L272.564 190.795L272.564 209.43C260.843 189.222 254.06 176.013 242.338 155.805Z" fill="#F6F6F3" stroke="#CFCFC9" stroke-width="0.910451" stroke-linejoin="round"/>
<path d="M373.913 172.452V153.098L272.018 190.484V210.256L373.913 172.452Z" fill="#EDEDE8" stroke="#CFCFC9" stroke-width="0.910451" stroke-linejoin="round"/>
<path d="M110.127 140.291V123.199L140.353 175.281L140.353 193.916C128.632 173.708 121.849 160.499 110.127 140.291Z" fill="#F6F6F3" stroke="#CFCFC9" stroke-width="0.910451" stroke-linejoin="round"/>
<path d="M241.716 156.175V137.873L140.377 175.133V193.89L241.716 156.175Z" fill="#EDEDE8" stroke="#CFCFC9" stroke-width="0.910451" stroke-linejoin="round"/>
<path d="M140.463 193.354V176.262L170.689 228.344L170.689 246.978C158.968 226.77 152.185 213.562 140.463 193.354Z" fill="#F6F6F3" stroke="#CFCFC9" stroke-width="0.910451" stroke-linejoin="round"/>
<path d="M272.044 210.238V190.936L170.705 228.195V245.794C170.705 246.84 171.749 247.564 172.729 247.2L272.044 210.238Z" fill="#EDEDE8" stroke="#CFCFC9" stroke-width="0.910451" stroke-linejoin="round"/>
<g clip-path="url(#clip1_4481_14528)">
<rect width="109.461" height="61.8033" rx="1.8209" transform="matrix(0.939942 -0.341333 0.500853 0.865532 139.643 175.137)" fill="#FBFBF9"/>
<g filter="url(#filter1_d_4481_14528)">
<path d="M167.18 189.851C165.854 190.333 164.397 189.641 163.321 187.782C162.245 185.922 162.552 184.609 163.989 184.087C165.213 183.643 166.421 184.119 167.256 185.294L166.443 185.589C165.902 184.851 165.128 184.427 164.332 184.716C163.34 185.076 163.322 186.084 164.134 187.487C164.945 188.889 165.938 189.549 166.922 189.192C167.641 188.931 167.948 188.19 167.324 186.986L165.792 187.542L165.45 186.951L167.743 186.118L169.371 188.932L168.627 189.202L168.221 188.501C168.23 189.089 167.925 189.581 167.18 189.851ZM170.151 188.649L166.959 183.132L168.602 182.536C170.237 181.942 171.917 182.734 172.843 184.334C173.768 185.933 173.429 187.458 171.794 188.052L170.151 188.649ZM171.4 187.461C172.581 187.032 172.769 185.924 172.021 184.632C171.273 183.34 170.091 182.729 168.911 183.158L168.089 183.456L170.579 187.759L171.4 187.461ZM175.158 186.83L171.966 181.314L174.363 180.444C175.381 180.074 176.539 180.464 177.118 181.465C177.697 182.466 177.31 183.407 176.291 183.777L174.674 184.365L175.937 186.547L175.158 186.83ZM175.804 183.239C176.497 182.987 176.674 182.399 176.305 181.76C175.931 181.114 175.257 180.844 174.564 181.096L173.092 181.63L174.332 183.774L175.804 183.239ZM180.166 185.012L176.974 179.496L179.259 178.666C180.303 178.287 181.423 178.595 182.007 179.604C182.468 180.4 182.286 181.124 181.663 181.569L184.368 183.486L183.503 183.8L180.883 181.938L179.599 182.404L180.944 184.729L180.166 185.012ZM180.63 181.305C181.349 181.044 181.554 180.521 181.194 179.899C180.825 179.261 180.196 179.05 179.477 179.311L178.099 179.812L179.253 181.805L180.63 181.305ZM171.85 197.582C170.592 198.039 169.251 197.439 168.562 196.249C167.878 195.067 168.175 193.863 169.442 193.403C170.426 193.045 171.473 193.333 172.139 194.197L171.368 194.477C170.925 193.961 170.319 193.79 169.771 193.989C168.872 194.315 168.889 195.167 169.345 195.955C169.806 196.751 170.614 197.325 171.513 196.999C172.069 196.797 172.291 196.392 172.148 195.824L172.91 195.548C173.217 196.418 172.877 197.209 171.85 197.582ZM176.746 195.804C175.437 196.28 174.147 195.661 173.458 194.471C172.774 193.289 173.02 192.103 174.329 191.628C175.639 191.152 176.933 191.779 177.617 192.961C178.306 194.151 178.056 195.329 176.746 195.804ZM176.409 195.221C177.35 194.879 177.281 194.008 176.834 193.236C176.392 192.471 175.608 191.869 174.667 192.211C173.726 192.553 173.79 193.416 174.233 194.181C174.679 194.953 175.467 195.563 176.409 195.221ZM179.589 194.648L177.291 190.676L178.018 190.412L178.214 190.751C178.221 190.405 178.455 190.129 178.806 190.002C179.243 189.844 179.641 189.995 179.859 190.192C179.888 189.724 180.201 189.496 180.543 189.371C181.1 189.169 181.7 189.419 182.078 190.073L183.834 193.107L183.106 193.371L181.424 190.463C181.205 190.085 180.954 189.956 180.689 190.053C180.355 190.174 180.229 190.563 180.507 191.044L182.071 193.747L181.352 194.008L179.669 191.1C179.45 190.722 179.192 190.596 178.926 190.693C178.592 190.814 178.474 191.2 178.752 191.681L180.316 194.384L179.589 194.648ZM185.49 194.088L182.435 188.808L183.188 188.535L183.535 189.134C183.612 188.533 183.967 188.128 184.575 187.907C185.602 187.534 186.942 188.078 187.667 189.331C188.387 190.576 188.019 191.711 186.992 192.084C186.384 192.304 185.717 192.261 185.144 191.915L186.243 193.815L185.49 194.088ZM186.466 191.569C187.271 191.277 187.381 190.483 186.879 189.616C186.373 188.742 185.529 188.267 184.724 188.559C183.911 188.854 183.806 189.674 184.308 190.541C184.805 191.4 185.653 191.864 186.466 191.569ZM189.664 190.99L189.331 190.414L190.999 189.808L188.473 185.443L187.112 185.937L186.78 185.361L188.902 184.591L191.761 189.532L193.421 188.929L193.754 189.504L189.664 190.99ZM194.722 189.153L194.38 188.561L195.989 187.977L194.375 185.188L192.937 185.71L192.595 185.119L194.811 184.314L196.768 187.694L198.368 187.113L198.71 187.704L194.722 189.153ZM193.606 183.931L193.105 183.065L193.96 182.754L194.462 183.621L193.606 183.931ZM201.166 186.936C200.294 187.253 199.447 186.989 199.041 186.287C198.507 185.365 199.252 184.828 199.909 184.494L200.769 184.048C201.097 183.881 201.047 183.67 200.943 183.489L200.938 183.481C200.715 183.095 200.259 182.898 199.609 183.134C198.984 183.361 198.771 183.763 198.985 184.276L198.224 184.553C197.853 183.715 198.245 182.943 199.272 182.57C200.418 182.154 201.272 182.483 201.787 183.373L202.9 185.296C202.954 185.391 203.068 185.426 203.17 185.388L203.436 185.292L203.769 185.867L203.255 186.054C202.836 186.206 202.508 186.087 202.339 185.795L202.284 185.701C202.204 186.35 201.706 186.74 201.166 186.936ZM201.035 186.297C201.797 186.021 202.001 185.317 201.554 184.545L201.394 184.269C201.294 184.382 201.166 184.466 201.026 184.546L200.332 184.922C199.737 185.253 199.577 185.568 199.81 185.97C200.042 186.372 200.513 186.487 201.035 186.297ZM204.856 185.472L202.558 181.501L203.32 181.224L203.666 181.823C203.685 181.282 204.091 180.82 204.707 180.596C205.64 180.258 206.605 180.565 207.216 181.621L208.648 184.096L207.894 184.369L206.485 181.934C206.084 181.241 205.446 181.034 204.822 181.26C204.146 181.506 203.885 182.201 204.291 182.903L205.618 185.196L204.856 185.472ZM212.02 182.871C211.284 183.138 210.774 182.99 210.391 182.328L208.968 179.869L207.684 180.335L207.352 179.76L208.438 179.365C208.558 179.322 208.594 179.223 208.535 179.12L207.874 177.978L208.627 177.704L209.388 179.02L211.091 178.402L211.424 178.977L209.721 179.596L211.089 181.96C211.253 182.243 211.477 182.362 211.863 182.222L213.24 181.722L213.578 182.305L212.02 182.871Z" fill="#222220"/>
</g>
<circle cx="1.8209" cy="1.8209" r="1.8209" transform="matrix(0.939942 -0.341333 0.500853 0.865532 243.144 160.686)" fill="#00A63E"/>
<circle cx="1.8209" cy="1.8209" r="1.8209" transform="matrix(0.939942 -0.341333 0.500853 0.865532 238.3 162.443)" fill="#00A63E"/>
<circle cx="2.63533" cy="2.63533" r="2.40772" transform="matrix(0.939942 -0.341333 0.500853 0.865532 237.128 162.016)" stroke="#CFCFC9" stroke-width="0.455226"/>
<circle cx="2.63533" cy="2.63533" r="2.40772" transform="matrix(0.939942 -0.341333 0.500853 0.865532 241.972 160.258)" stroke="#CFCFC9" stroke-width="0.455226"/>
</g>
<rect x="0.655887" y="0.238629" width="108.551" height="60.8929" rx="1.36568" transform="matrix(0.939942 -0.341333 0.500853 0.865532 139.563 175.393)" stroke="#CFCFC9" stroke-width="0.910451"/>
<g clip-path="url(#clip2_4481_14528)">
<rect width="109.474" height="61.9854" rx="1.8209" transform="matrix(0.939942 -0.341333 0.500853 0.865532 109.377 122.174)" fill="#FBFBF9"/>
<g filter="url(#filter2_d_4481_14528)">
<path d="M137.043 136.842C135.579 137.373 134.232 136.871 133.615 135.893L134.419 135.601C134.972 136.306 135.873 136.504 136.686 136.208C137.422 135.941 137.912 135.391 137.529 134.73C137.278 134.296 136.829 134.164 136.091 134.231L134.974 134.341C134.125 134.43 133.075 134.478 132.469 133.43C131.944 132.523 132.466 131.581 133.672 131.143C134.947 130.68 136.123 131.101 136.717 132.02L135.913 132.313C135.424 131.718 134.747 131.496 134.011 131.764C133.301 132.021 132.962 132.564 133.268 133.092C133.527 133.541 133.972 133.647 134.757 133.572L135.912 133.457C137.068 133.343 137.863 133.588 138.319 134.376C138.911 135.4 138.361 136.363 137.043 136.842ZM141.973 135.052C140.561 135.564 139.157 134.892 138.067 133.008C136.977 131.125 137.25 129.843 138.662 129.331C140.074 128.818 141.479 129.49 142.568 131.374C143.658 133.257 143.385 134.539 141.973 135.052ZM141.613 134.429C142.623 134.062 142.594 133.119 141.755 131.669C140.916 130.219 140.032 129.586 139.023 129.953C138.013 130.32 138.041 131.263 138.88 132.713C139.719 134.163 140.603 134.796 141.613 134.429ZM146.98 133.233C145.56 133.749 144.164 133.073 143.074 131.19C141.984 129.307 142.258 128.025 143.67 127.512C144.885 127.071 146.07 127.508 146.941 128.727L146.128 129.023C145.561 128.275 144.843 127.84 144.03 128.135C143.029 128.498 143.048 129.445 143.887 130.895C144.726 132.345 145.619 132.974 146.62 132.611C147.484 132.297 147.461 131.523 147.127 130.748L147.94 130.453C148.567 131.894 148.127 132.817 146.98 133.233ZM154.772 130.032C154.211 129.063 154.622 128.217 155.096 127.425C155.612 126.58 156.215 125.798 155.778 125.042C155.417 124.419 154.733 124.238 154.057 124.484C153.278 124.767 153.106 125.363 153.493 126.014L152.697 126.303C152.044 125.282 152.511 124.282 153.726 123.841C154.865 123.428 156.034 123.785 156.568 124.707C156.951 125.369 156.797 126.016 156.5 126.629C155.989 127.625 155.125 128.53 155.425 129.318L158.643 128.149L158.989 128.748L154.89 130.237L154.772 130.032ZM141.029 144.697L138.188 139.788L136.271 140.484L135.92 139.877L140.524 138.205L140.875 138.812L138.958 139.508L141.799 144.417L141.029 144.697ZM146.036 142.879L144.801 140.743L140.799 138.105L141.68 137.785L144.803 139.941L144.778 136.66L145.66 136.34L145.571 140.464L146.806 142.599L146.036 142.879ZM149.4 141.657L146.208 136.141L148.605 135.271C149.623 134.901 150.781 135.291 151.36 136.292C151.939 137.293 151.552 138.234 150.533 138.604L148.916 139.191L150.179 141.374L149.4 141.657ZM150.046 138.066C150.739 137.814 150.916 137.225 150.547 136.587C150.173 135.941 149.499 135.671 148.806 135.923L147.334 136.457L148.574 138.6L150.046 138.066ZM154.536 139.792L151.344 134.276L155.281 132.846L155.632 133.453L152.474 134.6L153.477 136.334L156.284 135.314L156.622 135.897L153.815 136.917L154.964 138.903L158.122 137.756L158.473 138.363L154.536 139.792ZM164.431 136.199L164.08 135.592L165.714 134.999L163.224 130.696L161.59 131.29L161.239 130.683L165.278 129.216L165.629 129.823L163.995 130.416L166.484 134.719L168.119 134.125L168.47 134.732L164.431 136.199ZM169.438 134.381L169.087 133.774L170.721 133.18L168.232 128.878L166.597 129.471L166.246 128.864L170.285 127.398L170.636 128.004L169.002 128.598L171.492 132.901L173.126 132.307L173.477 132.914L169.438 134.381Z" fill="#222220"/>
</g>
<circle cx="1.8209" cy="1.8209" r="1.8209" transform="matrix(0.939942 -0.341333 0.500853 0.865532 212.879 107.723)" fill="#00A63E"/>
<circle cx="1.8209" cy="1.8209" r="1.8209" transform="matrix(0.939942 -0.341333 0.500853 0.865532 208.035 109.48)" fill="#00A63E"/>
<circle cx="2.63533" cy="2.63533" r="2.40772" transform="matrix(0.939942 -0.341333 0.500853 0.865532 206.862 109.053)" stroke="#CFCFC9" stroke-width="0.455226"/>
<circle cx="2.63533" cy="2.63533" r="2.40772" transform="matrix(0.939942 -0.341333 0.500853 0.865532 211.706 107.295)" stroke="#CFCFC9" stroke-width="0.455226"/>
</g>
<rect x="0.655887" y="0.238629" width="108.563" height="61.075" rx="1.36568" transform="matrix(0.939942 -0.341333 0.500853 0.865532 109.297 122.43)" stroke="#CFCFC9" stroke-width="0.910451"/>
<g clip-path="url(#clip3_4481_14528)">
<rect width="108.938" height="61.144" rx="1.8209" transform="matrix(0.939942 -0.341333 0.500853 0.865532 241.76 138.023)" fill="#FBFBF9"/>
<g filter="url(#filter3_d_4481_14528)">
<path d="M267.261 153.354L264.069 147.837L264.848 147.555L266.216 149.919L268.715 149.011L267.347 146.647L268.125 146.364L271.317 151.881L270.539 152.163L269.066 149.618L266.567 150.526L268.04 153.071L267.261 153.354ZM272.277 151.532L271.926 150.925L273.56 150.332L271.071 146.029L269.436 146.623L269.085 146.016L273.124 144.549L273.475 145.156L271.841 145.75L274.33 150.052L275.965 149.459L276.316 150.065L272.277 151.532ZM277.276 149.717L274.084 144.201L276.48 143.331C277.498 142.961 278.656 143.351 279.235 144.352C279.814 145.353 279.427 146.294 278.409 146.664L276.791 147.251L278.054 149.434L277.276 149.717ZM277.921 146.126C278.614 145.874 278.791 145.285 278.422 144.647C278.048 144.001 277.374 143.731 276.681 143.982L275.209 144.517L276.449 146.66L277.921 146.126ZM281.838 148.06L280.614 141.829L281.624 141.463L286.784 146.264L285.971 146.559L284.623 145.285L282.304 146.127L282.642 147.768L281.838 148.06ZM282.167 145.461L284.084 144.765L281.516 142.331L282.167 145.461ZM286.845 146.242L285.621 140.011L286.631 139.644L291.791 144.446L290.979 144.741L289.63 143.466L287.311 144.309L287.65 145.95L286.845 146.242ZM287.174 143.643L289.091 142.947L286.523 140.513L287.174 143.643ZM273.925 160.484C272.658 160.944 271.347 160.343 270.654 159.145C269.965 157.955 270.241 156.768 271.508 156.308C272.578 155.92 273.843 156.137 274.73 157.884L271.537 159.044C272.021 159.755 272.736 160.22 273.592 159.909C274.165 159.701 274.355 159.241 274.269 158.824L275.022 158.551C275.285 159.256 274.96 160.108 273.925 160.484ZM271.249 158.509L273.688 157.624C273.168 156.85 272.551 156.625 271.841 156.883C271.062 157.166 270.978 157.826 271.249 158.509ZM276.759 159.331L276.426 158.756L278.095 158.15L275.569 153.784L274.208 154.279L273.875 153.703L275.997 152.933L278.856 157.873L280.517 157.271L280.849 157.846L276.759 159.331ZM281.818 157.494L281.476 156.903L283.084 156.319L281.47 153.529L280.032 154.052L279.69 153.46L281.907 152.656L283.863 156.036L285.463 155.455L285.805 156.046L281.818 157.494ZM280.702 152.273L280.2 151.406L281.056 151.096L281.557 151.962L280.702 152.273ZM289.587 156.351C288.5 156.746 287.569 156.569 287.02 155.853L287.791 155.573C288.17 155.96 288.617 156.017 289.284 155.775C289.901 155.551 290.305 155.051 289.84 154.247L289.544 153.735C289.506 154.35 289.111 154.741 288.546 154.946C287.511 155.322 286.175 154.786 285.505 153.628C284.835 152.47 285.203 151.335 286.239 150.959C286.812 150.75 287.501 150.796 288.043 151.142L287.701 150.551L288.455 150.278L290.589 153.966C291.3 155.195 290.605 155.981 289.587 156.351ZM288.38 154.32C289.151 154.04 289.308 153.239 288.83 152.411C288.346 151.576 287.509 151.203 286.739 151.483C285.969 151.762 285.787 152.505 286.271 153.341C286.75 154.168 287.61 154.599 288.38 154.32ZM291.832 153.858L291.49 153.267L293.099 152.682L291.485 149.893L290.047 150.415L289.705 149.824L291.921 149.019L293.878 152.4L295.478 151.818L295.82 152.409L291.832 153.858ZM290.716 148.636L290.215 147.77L291.07 147.459L291.572 148.326L290.716 148.636ZM299.124 151.334C298.516 151.554 297.896 151.503 297.28 151.154L297.627 151.753L296.865 152.03L293.673 146.514L294.435 146.237L295.67 148.373C295.714 147.804 296.099 147.378 296.707 147.157C297.742 146.781 299.06 147.304 299.78 148.549C300.505 149.802 300.159 150.958 299.124 151.334ZM298.598 150.819C299.402 150.527 299.499 149.71 298.993 148.835C298.491 147.968 297.66 147.517 296.856 147.809C296.043 148.104 295.933 148.916 296.43 149.775C296.932 150.642 297.785 151.114 298.598 150.819ZM301.795 150.24L301.462 149.664L303.131 149.058L300.605 144.693L299.244 145.187L298.911 144.611L301.034 143.841L303.893 148.782L305.553 148.179L305.886 148.754L301.795 150.24ZM308.976 147.756C307.709 148.216 306.398 147.615 305.705 146.417C305.016 145.227 305.292 144.039 306.559 143.579C307.628 143.191 308.894 143.409 309.78 145.156L306.588 146.315C307.072 147.026 307.787 147.492 308.643 147.181C309.216 146.973 309.406 146.513 309.32 146.096L310.073 145.822C310.336 146.528 310.011 147.38 308.976 147.756ZM306.3 145.781L308.739 144.895C308.218 144.121 307.602 143.897 306.892 144.155C306.113 144.438 306.029 145.097 306.3 145.781Z" fill="#222220"/>
</g>
<circle cx="1.8209" cy="1.8209" r="1.8209" transform="matrix(0.939942 -0.341333 0.500853 0.865532 345.261 123.572)" fill="#00A63E"/>
<circle cx="1.8209" cy="1.8209" r="1.8209" transform="matrix(0.939942 -0.341333 0.500853 0.865532 340.418 125.33)" fill="#00A63E"/>
<circle cx="2.63533" cy="2.63533" r="2.40772" transform="matrix(0.939942 -0.341333 0.500853 0.865532 339.245 124.902)" stroke="#CFCFC9" stroke-width="0.455226"/>
<circle cx="2.63533" cy="2.63533" r="2.40772" transform="matrix(0.939942 -0.341333 0.500853 0.865532 344.089 123.145)" stroke="#CFCFC9" stroke-width="0.455226"/>
</g>
<rect x="0.655887" y="0.238629" width="108.028" height="60.2335" rx="1.36568" transform="matrix(0.939942 -0.341333 0.500853 0.865532 241.68 138.279)" stroke="#CFCFC9" stroke-width="0.910451"/>
<path d="M110.144 139.715L109.933 123.618C109.923 122.845 110.403 122.149 111.13 121.884L311.546 48.7107C312.375 48.408 313.302 48.7435 313.745 49.5067L373.714 152.769C373.876 153.047 373.961 153.362 373.961 153.683V171.172C373.961 171.933 373.487 172.614 372.773 172.879L172.492 247.179C171.654 247.49 170.715 247.146 170.274 246.369L110.381 140.588C110.23 140.321 110.148 140.021 110.144 139.715Z" stroke="#404039" stroke-width="0.910451"/>
<defs>
<filter id="filter0_d_4481_14528" x="233.727" y="85.9824" width="32.0234" height="22.3008" filterUnits="userSpaceOnUse" color-interpolation-filters="sRGB">
<feFlood flood-opacity="0" result="BackgroundImageFix"/>
<feColorMatrix in="SourceAlpha" type="matrix" values="0 0 0 0 0 0 0 0 0 0 0 0 0 0 0 0 0 0 127 0" result="hardAlpha"/>
<feOffset/>
<feComposite in2="hardAlpha" operator="out"/>
<feColorMatrix type="matrix" values="0 0 0 0 0.709804 0 0 0 0 0.686275 0 0 0 0 0.917647 0 0 0 1 0"/>
<feBlend mode="normal" in2="BackgroundImageFix" result="effect1_dropShadow_4481_14528"/>
<feBlend mode="normal" in="SourceGraphic" in2="effect1_dropShadow_4481_14528" result="shape"/>
</filter>
<filter id="filter1_d_4481_14528" x="161.67" y="168.896" width="52.6647" height="30.75" filterUnits="userSpaceOnUse" color-interpolation-filters="sRGB">
<feFlood flood-opacity="0" result="BackgroundImageFix"/>
<feColorMatrix in="SourceAlpha" type="matrix" values="0 0 0 0 0 0 0 0 0 0 0 0 0 0 0 0 0 0 127 0" result="hardAlpha"/>
<feOffset/>
<feComposite in2="hardAlpha" operator="out"/>
<feColorMatrix type="matrix" values="0 0 0 0 0.709804 0 0 0 0 0.686275 0 0 0 0 0.917647 0 0 0 1 0"/>
<feBlend mode="normal" in2="BackgroundImageFix" result="effect1_dropShadow_4481_14528"/>
<feBlend mode="normal" in="SourceGraphic" in2="effect1_dropShadow_4481_14528" result="shape"/>
</filter>
<filter id="filter2_d_4481_14528" x="131.344" y="119.49" width="42.1333" height="25.9023" filterUnits="userSpaceOnUse" color-interpolation-filters="sRGB">
<feFlood flood-opacity="0" result="BackgroundImageFix"/>
<feColorMatrix in="SourceAlpha" type="matrix" values="0 0 0 0 0 0 0 0 0 0 0 0 0 0 0 0 0 0 127 0" result="hardAlpha"/>
<feOffset/>
<feComposite in2="hardAlpha" operator="out"/>
<feColorMatrix type="matrix" values="0 0 0 0 0.709804 0 0 0 0 0.686275 0 0 0 0 0.917647 0 0 0 1 0"/>
<feBlend mode="normal" in2="BackgroundImageFix" result="effect1_dropShadow_4481_14528"/>
<feBlend mode="normal" in="SourceGraphic" in2="effect1_dropShadow_4481_14528" result="shape"/>
</filter>
<filter id="filter3_d_4481_14528" x="264.069" y="133.617" width="47.6608" height="28.9141" filterUnits="userSpaceOnUse" color-interpolation-filters="sRGB">
<feFlood flood-opacity="0" result="BackgroundImageFix"/>
<feColorMatrix in="SourceAlpha" type="matrix" values="0 0 0 0 0 0 0 0 0 0 0 0 0 0 0 0 0 0 127 0" result="hardAlpha"/>
<feOffset/>
<feComposite in2="hardAlpha" operator="out"/>
<feColorMatrix type="matrix" values="0 0 0 0 0.709804 0 0 0 0 0.686275 0 0 0 0 0.917647 0 0 0 1 0"/>
<feBlend mode="normal" in2="BackgroundImageFix" result="effect1_dropShadow_4481_14528"/>
<feBlend mode="normal" in="SourceGraphic" in2="effect1_dropShadow_4481_14528" result="shape"/>
</filter>
<radialGradient id="paint0_radial_4481_14528" cx="0" cy="0" r="1" gradientTransform="matrix(-82.11 -142.029 -85.9736 49.7808 260.367 183.865)" gradientUnits="userSpaceOnUse">
<stop stop-color="#CFCFC9"/>
<stop offset="1" stop-color="#CFCFC9" stop-opacity="0"/>
</radialGradient>
<radialGradient id="paint1_radial_4481_14528" cx="0" cy="0" r="1" gradientTransform="matrix(-71.6359 -123.552 -86.0142 49.709 351.498 127.69)" gradientUnits="userSpaceOnUse">
<stop stop-color="#CFCFC9"/>
<stop offset="1" stop-color="#CFCFC9" stop-opacity="0"/>
</radialGradient>
<radialGradient id="paint2_radial_4481_14528" cx="0" cy="0" r="1" gradientTransform="matrix(-59.7632 -102.727 -86.0805 49.5927 145.232 196.256)" gradientUnits="userSpaceOnUse">
<stop stop-color="#CFCFC9"/>
<stop offset="1" stop-color="#CFCFC9" stop-opacity="0"/>
</radialGradient>
<radialGradient id="paint3_radial_4481_14528" cx="0" cy="0" r="1" gradientTransform="matrix(-133.97 48.1908 21.7573 62.2801 141.171 128.424)" gradientUnits="userSpaceOnUse">
<stop stop-color="#CFCFC9"/>
<stop offset="1" stop-color="#CFCFC9" stop-opacity="0"/>
</radialGradient>
<radialGradient id="paint4_radial_4481_14528" cx="0" cy="0" r="1" gradientTransform="matrix(-133.97 48.1908 21.7573 62.2801 177.1 179.714)" gradientUnits="userSpaceOnUse">
<stop stop-color="#CFCFC9"/>
<stop offset="1" stop-color="#CFCFC9" stop-opacity="0"/>
</radialGradient>
<radialGradient id="paint5_radial_4481_14528" cx="0" cy="0" r="1" gradientTransform="matrix(-133.97 48.1908 21.7573 62.2801 267.1 211.731)" gradientUnits="userSpaceOnUse">
<stop stop-color="#CFCFC9"/>
<stop offset="1" stop-color="#CFCFC9" stop-opacity="0"/>
</radialGradient>
<clipPath id="clip0_4481_14528">
<rect width="108.786" height="61.9854" rx="1.8209" transform="matrix(0.939942 -0.341333 0.500853 0.865532 211.495 85.0547)" fill="white"/>
</clipPath>
<clipPath id="clip1_4481_14528">
<rect width="109.461" height="61.8033" rx="1.8209" transform="matrix(0.939942 -0.341333 0.500853 0.865532 139.643 175.137)" fill="white"/>
</clipPath>
<clipPath id="clip2_4481_14528">
<rect width="109.474" height="61.9854" rx="1.8209" transform="matrix(0.939942 -0.341333 0.500853 0.865532 109.377 122.174)" fill="white"/>
</clipPath>
<clipPath id="clip3_4481_14528">
<rect width="108.938" height="61.144" rx="1.8209" transform="matrix(0.939942 -0.341333 0.500853 0.865532 241.76 138.023)" fill="white"/>
</clipPath>
</defs>
</svg>
