<svg width="408" height="247" viewBox="0 0 408 247" fill="none" xmlns="http://www.w3.org/2000/svg" xmlns:xlink="http://www.w3.org/1999/xlink">
<g filter="url(#filter0_n_4481_14420)">
<rect width="288" height="200" transform="matrix(0.939693 -0.34202 0.5 0.866025 16.6843 98.502)" fill="url(#pattern0_4481_14420)"/>
<rect x="0.359923" y="0.131001" width="99.5" height="19.5" transform="matrix(0.939693 -0.34202 0.5 0.866025 65.3163 134.898)" fill="#F6F6F3"/>
<rect x="0.359923" y="0.131001" width="99.5" height="19.5" transform="matrix(0.939693 -0.34202 0.5 0.866025 65.3163 134.898)" stroke="#CFCFC9" stroke-width="0.5"/>
<path d="M82.775 134.906C83.4572 134.658 84.1234 134.577 84.7736 134.663C85.427 134.741 86.0313 134.986 86.5864 135.398C87.1485 135.809 87.6367 136.372 88.0511 137.09C88.4617 137.801 88.6828 138.459 88.7143 139.062C88.749 139.657 88.5987 140.176 88.2634 140.621C87.9245 141.06 87.4174 141.402 86.742 141.648L84.8918 142.321L80.9868 135.557L82.775 134.906ZM86.218 140.87C86.9898 140.589 87.4543 140.159 87.6116 139.579C87.7757 138.996 87.6121 138.28 87.1208 137.429C86.6258 136.571 86.0469 136.002 85.3841 135.721C84.7245 135.43 84.0088 135.426 83.237 135.707L82.3377 136.034L85.3187 141.197L86.218 140.87ZM89.1671 137.71C88.8627 137.183 88.6984 136.682 88.6742 136.206C88.6499 135.731 88.7649 135.316 89.0193 134.962C89.2736 134.609 89.6523 134.34 90.1554 134.157C90.5757 134.004 91.0095 133.954 91.4567 134.006C91.9108 134.056 92.3582 134.231 92.7987 134.532C93.2355 134.827 93.6327 135.255 93.9903 135.816L94.2096 136.174L90.2404 137.619C90.5718 138.121 90.9579 138.465 91.3985 138.65C91.8392 138.836 92.2938 138.843 92.7624 138.672C93.0587 138.565 93.2853 138.394 93.4421 138.16C93.6022 137.917 93.6673 137.64 93.6373 137.328L94.6061 137.056C94.7189 137.584 94.6458 138.064 94.3868 138.496C94.1278 138.929 93.733 139.241 93.2024 139.435C92.6993 139.618 92.196 139.67 91.6923 139.592C91.1886 139.514 90.7179 139.313 90.2802 138.988C89.8424 138.663 89.4714 138.237 89.1671 137.71ZM92.8517 135.816C92.4899 135.348 92.1139 135.05 91.7237 134.923C91.3367 134.788 90.9606 134.786 90.5954 134.919C90.1612 135.077 89.8813 135.329 89.7555 135.674C89.6298 136.02 89.6592 136.432 89.8437 136.91L92.8517 135.816ZM99.4273 137.03L98.3316 137.429L93.4217 133.106L94.352 132.768L98.3955 136.392L97.577 131.594L98.5073 131.255L99.4273 137.03ZM106.856 126.603L109.738 131.594C109.863 131.81 110.022 131.956 110.216 132.032C110.41 132.107 110.62 132.103 110.848 132.021L112.315 131.486L112.722 132.191L111.255 132.726C110.717 132.921 110.248 132.946 109.847 132.8C109.449 132.645 109.123 132.349 108.87 131.91L105.988 126.919L106.856 126.603ZM109.818 127.139L110.225 127.844L105.594 129.529L105.187 128.824L109.818 127.139ZM112.512 129.213C112.207 128.686 112.043 128.185 112.019 127.71C111.995 127.234 112.11 126.82 112.364 126.466C112.618 126.112 112.997 125.843 113.5 125.66C113.92 125.507 114.354 125.457 114.801 125.509C115.255 125.559 115.703 125.735 116.143 126.035C116.58 126.33 116.977 126.758 117.335 127.319L117.554 127.678L113.585 129.122C113.916 129.624 114.302 129.968 114.743 130.153C115.184 130.339 115.638 130.346 116.107 130.176C116.403 130.068 116.63 129.897 116.787 129.663C116.947 129.42 117.012 129.143 116.982 128.831L117.951 128.559C118.064 129.087 117.99 129.567 117.731 129.999C117.472 130.432 117.078 130.745 116.547 130.938C116.044 131.121 115.541 131.173 115.037 131.095C114.533 131.017 114.063 130.816 113.625 130.491C113.187 130.166 112.816 129.74 112.512 129.213ZM116.196 127.319C115.834 126.851 115.458 126.554 115.068 126.427C114.681 126.291 114.305 126.289 113.94 126.422C113.506 126.58 113.226 126.832 113.1 127.178C112.974 127.523 113.004 127.935 113.188 128.414L116.196 127.319ZM119.216 123.718L120.084 125.005L119.947 124.962C119.77 124.512 119.74 124.142 119.857 123.854C119.974 123.565 120.239 123.346 120.653 123.195L121.749 122.796L122.156 123.501L121.06 123.9C120.784 124 120.583 124.135 120.455 124.305C120.335 124.471 120.287 124.67 120.311 124.899C120.335 125.128 120.431 125.389 120.6 125.681L122.338 128.692L121.47 129.008L118.555 123.959L119.216 123.718ZM119.04 123.782L119.447 124.487L117.535 125.183L117.128 124.478L119.04 123.782ZM123.719 127.336L124.126 128.041L120.043 129.527L119.636 128.822L123.719 127.336ZM123.326 122.222L123.759 122.906C123.66 122.289 123.88 121.882 124.418 121.686C124.659 121.599 124.896 121.605 125.129 121.704C125.364 121.795 125.619 121.991 125.893 122.291C125.82 121.964 125.843 121.679 125.962 121.436C126.076 121.187 126.275 121.011 126.557 120.908C126.978 120.755 127.38 120.816 127.764 121.091C128.151 121.357 128.559 121.862 128.988 122.605L130.737 125.635L129.869 125.951L128.12 122.921C127.823 122.407 127.568 122.058 127.353 121.875C127.135 121.685 126.92 121.629 126.706 121.707C126.547 121.764 126.443 121.872 126.392 122.029C126.344 122.177 126.351 122.37 126.414 122.609C126.479 122.838 126.6 123.105 126.776 123.41L128.525 126.44L127.657 126.756L125.908 123.726C125.611 123.212 125.349 122.866 125.121 122.687C124.896 122.5 124.666 122.449 124.432 122.534C124.294 122.585 124.206 122.686 124.169 122.838C124.128 122.983 124.142 123.174 124.212 123.41C124.278 123.64 124.399 123.907 124.575 124.212L126.324 127.241L125.445 127.561L122.53 122.512L123.326 122.222ZM131.777 119.146L134.692 124.195L133.824 124.511L130.909 119.462L131.777 119.146ZM131.777 119.146L132.184 119.851L129.352 120.882L128.945 120.177L131.777 119.146ZM136.156 122.809L136.563 123.514L131.653 125.301L131.246 124.596L136.156 122.809ZM130.787 117.431L131.343 118.394L130.361 118.751L129.805 117.789L130.787 117.431ZM135.494 117.793L136.278 119.064L136.104 119.001C135.951 118.534 135.971 118.135 136.163 117.803C136.363 117.47 136.686 117.221 137.134 117.058C137.734 116.84 138.294 116.851 138.817 117.091C139.339 117.332 139.763 117.734 140.09 118.299L141.965 121.548L141.097 121.864L139.353 118.844C139.078 118.368 138.778 118.043 138.453 117.869C138.134 117.693 137.772 117.679 137.365 117.827C136.917 117.99 136.636 118.246 136.521 118.596C136.409 118.936 136.485 119.335 136.749 119.792L138.492 122.812L137.624 123.128L134.709 118.079L135.494 117.793ZM141.176 117.524C141.004 117.01 141.041 116.532 141.285 116.089C141.527 115.64 141.93 115.313 142.495 115.107C143.177 114.859 143.819 114.844 144.421 115.063C145.022 115.282 145.521 115.735 145.917 116.42L147.089 118.45C147.151 118.558 147.225 118.627 147.309 118.658C147.394 118.688 147.494 118.682 147.611 118.64L147.829 118.561L148.236 119.266L147.967 119.364C147.643 119.481 147.341 119.507 147.06 119.44C146.783 119.364 146.552 119.217 146.368 119C146.394 119.29 146.307 119.58 146.106 119.868C145.902 120.15 145.593 120.366 145.18 120.516C144.615 120.722 144.068 120.764 143.538 120.641C143.016 120.516 142.628 120.235 142.375 119.796C142.184 119.466 142.115 119.172 142.167 118.915C142.225 118.656 142.37 118.423 142.601 118.216C142.831 118.009 143.154 117.78 143.568 117.529L145 116.651C144.751 116.234 144.449 115.964 144.093 115.839C143.734 115.709 143.348 115.719 142.935 115.869C142.597 115.992 142.361 116.182 142.225 116.439C142.086 116.689 142.059 116.96 142.144 117.252L141.176 117.524ZM143.285 119.465C143.409 119.681 143.612 119.823 143.892 119.89C144.169 119.95 144.501 119.91 144.887 119.77C145.186 119.653 145.422 119.491 145.593 119.282C145.761 119.067 145.846 118.817 145.848 118.532C145.854 118.238 145.763 117.929 145.576 117.605L145.433 117.358L144.262 118.038C144.203 118.067 144.147 118.099 144.092 118.134C143.811 118.298 143.6 118.436 143.457 118.55C143.31 118.657 143.215 118.788 143.17 118.942C143.129 119.088 143.167 119.262 143.285 119.465ZM153.665 116.437L154.072 117.142L149.162 118.929L148.755 118.224L153.665 116.437ZM151.281 118.157L148.124 112.689C148.006 112.486 147.872 112.354 147.721 112.294C147.569 112.234 147.387 112.243 147.173 112.321L145.871 112.795L145.464 112.09L146.766 111.616C147.241 111.443 147.671 111.421 148.054 111.55C148.437 111.68 148.75 111.954 148.992 112.373L152.149 117.841L151.281 118.157Z" fill="#222220"/>
<rect x="0.359923" y="0.131001" width="99.5" height="19.5" transform="matrix(0.939693 -0.34202 0.5 0.866025 50.3163 108.918)" fill="#F6F6F3"/>
<rect x="0.359923" y="0.131001" width="99.5" height="19.5" transform="matrix(0.939693 -0.34202 0.5 0.866025 50.3163 108.918)" stroke="#CFCFC9" stroke-width="0.5"/>
<path d="M73.6801 112.264C73.8765 112.792 73.9568 113.278 73.9209 113.721C73.8919 114.162 73.7498 114.544 73.4946 114.868C73.2463 115.189 72.8947 115.432 72.4399 115.598C71.8404 115.816 71.2445 115.86 70.6522 115.729C70.06 115.599 69.498 115.312 68.9663 114.867C68.4377 114.414 67.9663 113.829 67.552 113.111C67.134 112.387 66.8812 111.718 66.7938 111.105C66.7132 110.488 66.804 109.96 67.0662 109.518C67.3285 109.077 67.7594 108.747 68.3589 108.529C69.0067 108.293 69.6682 108.291 70.3434 108.521C71.0219 108.743 71.6386 109.176 72.1935 109.819L71.2756 110.223C70.8834 109.789 70.4728 109.497 70.0436 109.345C69.6144 109.194 69.2068 109.189 68.8209 109.329C68.4143 109.477 68.1287 109.712 67.9639 110.033C67.8024 110.346 67.765 110.736 67.8517 111.204C67.9416 111.663 68.1553 112.185 68.4926 112.769C68.8263 113.347 69.1828 113.813 69.5622 114.166C69.9485 114.518 70.3452 114.75 70.7524 114.863C71.1628 114.967 71.5713 114.945 71.9779 114.797C72.4051 114.642 72.6846 114.375 72.8164 113.996C72.9514 113.609 72.9166 113.13 72.7119 112.559L73.6801 112.264ZM78.1093 113.488C77.6063 113.671 77.1029 113.724 76.5993 113.646C76.1025 113.565 75.6352 113.362 75.1975 113.038C74.7597 112.713 74.3887 112.287 74.0844 111.76C73.78 111.232 73.6157 110.731 73.5915 110.256C73.5672 109.781 73.6788 109.367 73.9263 109.016C74.1806 108.662 74.5593 108.393 75.0623 108.21C75.5654 108.027 76.0653 107.976 76.5621 108.056C77.0658 108.134 77.5365 108.336 77.9742 108.661C78.4119 108.986 78.783 109.412 79.0873 109.939C79.3916 110.466 79.5559 110.967 79.5802 111.442C79.6045 111.918 79.4894 112.332 79.2351 112.686C78.9876 113.038 78.6124 113.305 78.1093 113.488ZM77.6693 112.726C78.1724 112.543 78.4664 112.236 78.5514 111.805C78.6432 111.372 78.5187 110.86 78.1777 110.27C77.8367 109.679 77.4296 109.27 76.9564 109.043C76.4901 108.813 76.0054 108.789 75.5023 108.972C74.9993 109.156 74.7018 109.464 74.61 109.897C74.525 110.327 74.653 110.838 74.994 111.429C75.335 112.019 75.7387 112.429 76.205 112.659C76.6782 112.887 77.1663 112.909 77.6693 112.726ZM81.3699 103.978L82.2382 103.662L86.1432 110.425L85.3576 110.711L84.9086 109.999C84.911 110.321 84.8062 110.609 84.5942 110.862C84.3823 111.116 84.0695 111.319 83.6561 111.469C83.153 111.652 82.6579 111.69 82.1708 111.583C81.6869 111.467 81.2434 111.241 80.8401 110.903C80.4437 110.563 80.1062 110.152 79.8275 109.669C79.5488 109.187 79.3767 108.715 79.3111 108.255C79.2524 107.792 79.3274 107.38 79.5363 107.02C79.7484 106.651 80.106 106.375 80.6091 106.192C81.0156 106.044 81.3952 105.986 81.7479 106.019C82.1074 106.05 82.4398 106.163 82.7449 106.359L81.3699 103.978ZM84.2682 109.171C84.2135 108.845 84.0908 108.517 83.9001 108.187C83.7021 107.844 83.4655 107.55 83.1902 107.304C82.9113 107.052 82.5999 106.881 82.2561 106.791C81.9191 106.698 81.5715 106.717 81.2131 106.848C80.6825 107.041 80.3926 107.369 80.3434 107.833C80.2906 108.29 80.4218 108.792 80.7371 109.338C81.0451 109.872 81.4346 110.272 81.9054 110.538C82.3726 110.799 82.8715 110.832 83.4021 110.639C83.7605 110.509 84.0073 110.315 84.1426 110.058C84.2811 109.793 84.323 109.497 84.2682 109.171ZM87.5966 103.787L90.5116 108.836L89.6433 109.152L86.7283 104.103L87.5966 103.787ZM87.5966 103.787L88.0036 104.492L85.1713 105.522L84.7643 104.817L87.5966 103.787ZM91.9755 107.45L92.3825 108.155L87.4726 109.942L87.0656 109.237L91.9755 107.45ZM86.6066 102.072L87.1621 103.034L86.1801 103.391L85.6246 102.429L86.6066 102.072ZM91.3137 102.434L92.0976 103.705L91.9233 103.641C91.7705 103.174 91.7902 102.775 91.9825 102.444C92.1818 102.11 92.5053 101.862 92.9532 101.699C93.5528 101.48 94.1137 101.491 94.636 101.732C95.1583 101.972 95.5827 102.375 95.909 102.94L97.7845 106.188L96.9162 106.504L95.1727 103.485C94.8977 103.008 94.5975 102.683 94.2721 102.51C93.9536 102.334 93.5911 102.32 93.1845 102.467C92.7366 102.631 92.455 102.887 92.3399 103.236C92.2279 103.577 92.3039 103.975 92.5679 104.433L94.3114 107.453L93.4431 107.769L90.5281 102.72L91.3137 102.434ZM101.11 104.655C100.655 104.821 100.186 104.868 99.7038 104.798C99.2245 104.719 98.7786 104.532 98.3661 104.236C97.9499 103.934 97.6043 103.545 97.3293 103.069C97.0543 102.592 96.9104 102.134 96.8976 101.692C96.8811 101.245 96.9933 100.854 97.2343 100.521C97.4786 100.178 97.8281 99.9243 98.2829 99.7588C98.6481 99.6258 99.0353 99.5887 99.4444 99.6473C99.8604 99.7034 100.204 99.8435 100.475 100.068L100.013 99.2674L100.84 98.9664L103.469 103.52C103.847 104.174 103.916 104.756 103.676 105.266C103.448 105.78 102.965 106.171 102.227 106.439C101.841 106.579 101.455 106.647 101.068 106.642C100.689 106.634 100.328 106.558 99.9858 106.413C99.6439 106.269 99.3472 106.065 99.0959 105.803L99.9725 105.415C100.222 105.616 100.503 105.741 100.814 105.789C101.125 105.837 101.45 105.8 101.787 105.677C102.277 105.499 102.601 105.266 102.759 104.977C102.929 104.693 102.911 104.373 102.705 104.017L102.227 103.188C102.232 103.501 102.131 103.796 101.923 104.071C101.719 104.338 101.448 104.532 101.11 104.655ZM98.2389 102.737C98.4296 103.068 98.6603 103.337 98.931 103.546C99.2086 103.753 99.5067 103.886 99.8253 103.947C100.14 104.001 100.456 103.971 100.773 103.856C101.076 103.745 101.301 103.579 101.448 103.356C101.598 103.125 101.662 102.86 101.639 102.56C101.62 102.252 101.517 101.936 101.33 101.613C101.149 101.286 100.924 101.019 100.653 100.81C100.379 100.594 100.084 100.46 99.7694 100.405C99.4576 100.342 99.1433 100.368 98.8263 100.483C98.5093 100.599 98.2758 100.772 98.1258 101.003C97.9722 101.228 97.9033 101.492 97.919 101.793C97.9416 102.093 98.0483 102.407 98.2389 102.737ZM108.556 94.083L109.755 93.6466L115.892 99.5976L114.983 99.9287L109.568 94.5793L111.138 101.328L110.228 101.659L108.556 94.083ZM110.244 99.3249L110.125 98.469L112.916 97.4532L113.655 98.0834L110.244 99.3249ZM118.618 98.2827C118.164 98.4482 117.695 98.4959 117.212 98.4256C116.733 98.3464 116.287 98.159 115.875 97.8634C115.458 97.5615 115.113 97.1723 114.838 96.696C114.563 96.2197 114.419 95.761 114.406 95.3199C114.39 94.8725 114.502 94.4819 114.743 94.1483C114.987 93.8058 115.337 93.5517 115.791 93.3862C116.157 93.2533 116.544 93.2161 116.953 93.2747C117.369 93.3308 117.712 93.4709 117.984 93.695L117.522 92.8948L118.348 92.5938L120.977 97.1474C121.355 97.8015 121.424 98.3835 121.185 98.8933C120.956 99.407 120.473 99.798 119.736 100.066C119.35 100.207 118.964 100.274 118.577 100.269C118.197 100.261 117.836 100.185 117.494 100.041C117.152 99.8961 116.856 99.6928 116.604 99.4308L117.481 99.0425C117.731 99.2437 118.011 99.3684 118.322 99.4165C118.634 99.4646 118.958 99.4272 119.296 99.3043C119.785 99.1262 120.109 98.893 120.268 98.6046C120.437 98.3201 120.419 98.0001 120.214 97.6444L119.735 96.8156C119.741 97.1287 119.64 97.4229 119.432 97.6984C119.227 97.965 118.956 98.1598 118.618 98.2827ZM115.747 96.3649C115.938 96.6952 116.169 96.9647 116.439 97.1736C116.717 97.38 117.015 97.5136 117.334 97.5744C117.649 97.6288 117.965 97.5984 118.282 97.483C118.585 97.3726 118.81 97.2062 118.957 96.9837C119.107 96.7524 119.17 96.4871 119.148 96.1879C119.128 95.8799 119.025 95.5639 118.838 95.24C118.658 94.9136 118.433 94.646 118.162 94.4371C117.887 94.2218 117.593 94.087 117.278 94.0326C116.966 93.9693 116.652 93.9953 116.335 94.1107C116.018 94.2261 115.784 94.3994 115.634 94.6308C115.481 94.8558 115.412 95.1191 115.427 95.4208C115.45 95.72 115.557 96.0347 115.747 96.3649ZM120.856 94.736C120.552 94.2089 120.388 93.7077 120.363 93.2323C120.339 92.757 120.454 92.3423 120.708 91.9885C120.963 91.6346 121.342 91.3661 121.845 91.183C122.265 91.03 122.699 90.9797 123.146 91.0321C123.6 91.082 124.047 91.2574 124.488 91.5582C124.925 91.8526 125.322 92.2806 125.68 92.8422L125.899 93.2004L121.93 94.6451C122.261 95.147 122.647 95.4906 123.088 95.6761C123.528 95.8616 123.983 95.869 124.452 95.6985C124.748 95.5906 124.974 95.4198 125.131 95.1859C125.291 94.9432 125.356 94.6659 125.327 94.354L126.295 94.0821C126.408 94.6097 126.335 95.0898 126.076 95.5222C125.817 95.9547 125.422 96.2674 124.892 96.4606C124.389 96.6437 123.885 96.6962 123.381 96.6182C122.878 96.5403 122.407 96.3388 121.969 96.014C121.532 95.6891 121.161 95.2631 120.856 94.736ZM124.541 92.8416C124.179 92.3738 123.803 92.0764 123.413 91.9495C123.026 91.8136 122.65 91.8122 122.285 91.9451C121.85 92.1031 121.571 92.3549 121.445 92.7004C121.319 93.0459 121.348 93.4579 121.533 93.9364L124.541 92.8416ZM126.331 89.6886L127.114 90.9596L126.94 90.8962C126.787 90.4292 126.807 90.03 126.999 89.6987C127.199 89.3649 127.522 89.1165 127.97 88.9535C128.57 88.7353 129.131 88.7463 129.653 88.9866C130.175 89.2268 130.6 89.6296 130.926 90.1948L132.801 93.4433L131.933 93.7593L130.19 90.7395C129.915 90.2632 129.614 89.9382 129.289 89.7646C128.971 89.5885 128.608 89.5744 128.201 89.7224C127.754 89.8854 127.472 90.1416 127.357 90.4909C127.245 90.8314 127.321 91.2303 127.585 91.6876L129.328 94.7074L128.46 95.0234L125.545 89.9745L126.331 89.6886ZM132.71 85.7529L135.592 90.7447C135.716 90.9606 135.875 91.1063 136.069 91.1818C136.263 91.2574 136.473 91.2537 136.701 91.171L138.169 90.6367L138.576 91.3417L137.108 91.8759C136.57 92.0715 136.101 92.0964 135.7 91.9503C135.302 91.7954 134.976 91.4989 134.723 91.0607L131.841 86.0689L132.71 85.7529ZM135.671 86.289L136.078 86.9939L131.447 88.6794L131.04 87.9745L135.671 86.289Z" fill="#222220"/>
<path d="M149.329 83.2359L161.545 78.7896L176.641 104.937M176.641 104.937L190.078 128.209M176.641 104.937L164.425 109.383" stroke="#CFCFC9"/>
<path d="M202.902 150.421L227.573 193.151L234.255 190.719" stroke="#CFCFC9"/>
<rect x="0.359923" y="0.131001" width="119.5" height="29.5" transform="matrix(0.939693 -0.34202 0.5 0.866025 132.62 147.083)" fill="#F6F6F3"/>
<rect x="0.359923" y="0.131001" width="119.5" height="29.5" transform="matrix(0.939693 -0.34202 0.5 0.866025 132.62 147.083)" stroke="#CFCFC9" stroke-width="0.5"/>
<path d="M158.082 144.702L158.971 144.378L162.656 150.761L161.97 150.504L166.29 148.931L166.752 149.731L161.987 151.466L158.082 144.702ZM165.601 145.839C165.429 145.325 165.466 144.847 165.711 144.404C165.952 143.955 166.355 143.628 166.92 143.422C167.602 143.174 168.244 143.159 168.846 143.378C169.448 143.597 169.947 144.05 170.343 144.735L171.514 146.765C171.577 146.872 171.65 146.942 171.734 146.973C171.819 147.003 171.92 146.997 172.037 146.955L172.254 146.876L172.661 147.581L172.392 147.678C172.068 147.796 171.766 147.822 171.486 147.755C171.208 147.679 170.978 147.532 170.794 147.315C170.82 147.605 170.732 147.895 170.532 148.183C170.328 148.465 170.019 148.681 169.605 148.831C169.04 149.037 168.493 149.078 167.964 148.956C167.441 148.831 167.053 148.55 166.8 148.111C166.61 147.781 166.54 147.487 166.592 147.23C166.651 146.971 166.795 146.737 167.026 146.531C167.257 146.324 167.579 146.095 167.993 145.844L169.425 144.966C169.176 144.549 168.874 144.279 168.519 144.154C168.16 144.024 167.773 144.034 167.36 144.184C167.022 144.307 166.786 144.497 166.651 144.754C166.512 145.004 166.485 145.275 166.57 145.567L165.601 145.839ZM167.71 147.78C167.835 147.996 168.037 148.138 168.318 148.205C168.595 148.265 168.926 148.225 169.312 148.085C169.611 147.968 169.847 147.806 170.019 147.597C170.186 147.382 170.271 147.132 170.274 146.847C170.279 146.553 170.188 146.244 170.001 145.92L169.858 145.673L168.687 146.353C168.629 146.381 168.572 146.414 168.517 146.449C168.237 146.612 168.025 146.751 167.882 146.865C167.735 146.972 167.64 147.103 167.596 147.257C167.555 147.403 167.593 147.577 167.71 147.78ZM171.592 141.86L172.376 143.131L172.202 143.067C172.049 142.6 172.069 142.201 172.261 141.87C172.46 141.536 172.784 141.288 173.232 141.125C173.831 140.906 174.392 140.918 174.914 141.158C175.437 141.398 175.861 141.801 176.187 142.366L178.063 145.615L177.195 145.931L175.451 142.911C175.176 142.434 174.876 142.109 174.551 141.936C174.232 141.76 173.869 141.746 173.463 141.894C173.015 142.057 172.733 142.313 172.618 142.662C172.506 143.003 172.582 143.402 172.846 143.859L174.59 146.879L173.722 147.195L170.807 142.146L171.592 141.86ZM181.388 144.081C180.933 144.247 180.465 144.295 179.982 144.224C179.503 144.145 179.057 143.958 178.644 143.662C178.228 143.36 177.883 142.971 177.608 142.495C177.333 142.018 177.189 141.56 177.176 141.119C177.159 140.671 177.272 140.281 177.513 139.947C177.757 139.604 178.106 139.35 178.561 139.185C178.927 139.052 179.314 139.015 179.723 139.073C180.139 139.129 180.482 139.27 180.753 139.494L180.291 138.693L181.118 138.392L183.747 142.946C184.125 143.6 184.194 144.182 183.955 144.692C183.726 145.206 183.243 145.597 182.506 145.865C182.12 146.005 181.733 146.073 181.347 146.068C180.967 146.06 180.606 145.984 180.264 145.839C179.922 145.695 179.626 145.491 179.374 145.229L180.251 144.841C180.5 145.042 180.781 145.167 181.092 145.215C181.403 145.263 181.728 145.226 182.066 145.103C182.555 144.925 182.879 144.692 183.038 144.403C183.207 144.119 183.189 143.799 182.984 143.443L182.505 142.614C182.511 142.927 182.41 143.222 182.202 143.497C181.997 143.764 181.726 143.958 181.388 144.081ZM178.517 142.164C178.708 142.494 178.939 142.763 179.209 142.972C179.487 143.179 179.785 143.312 180.104 143.373C180.419 143.427 180.735 143.397 181.052 143.282C181.355 143.171 181.58 143.005 181.727 142.782C181.877 142.551 181.94 142.286 181.918 141.987C181.898 141.679 181.795 141.363 181.608 141.039C181.428 140.712 181.202 140.445 180.932 140.236C180.657 140.021 180.363 139.886 180.048 139.831C179.736 139.768 179.422 139.794 179.105 139.909C178.788 140.025 178.554 140.198 178.404 140.429C178.251 140.654 178.182 140.918 178.197 141.219C178.22 141.519 178.327 141.833 178.517 142.164ZM183.491 137.137C183.238 136.699 183.162 136.315 183.264 135.986C183.369 135.648 183.67 135.389 184.166 135.208L185.737 134.636L186.144 135.341L184.573 135.913C184.387 135.981 184.275 136.098 184.239 136.265C184.198 136.426 184.238 136.611 184.359 136.821L187.461 142.194L186.593 142.51L183.491 137.137ZM182.375 138.281L186.82 136.663L187.227 137.368L182.782 138.986L182.375 138.281ZM194.62 139.588L193.9 138.34L194.064 138.407C194.209 138.862 194.184 139.251 193.988 139.576C193.792 139.901 193.477 140.143 193.043 140.301C192.457 140.514 191.903 140.5 191.381 140.26C190.862 140.011 190.441 139.607 190.118 139.048L188.243 135.799L189.121 135.48L190.859 138.49C191.138 138.973 191.436 139.302 191.755 139.478C192.073 139.654 192.429 139.671 192.822 139.528C193.256 139.37 193.529 139.121 193.641 138.78C193.749 138.433 193.67 138.028 193.402 137.564L191.664 134.554L192.532 134.238L195.447 139.287L194.62 139.588ZM198.506 133.955C198.282 133.698 197.992 133.534 197.635 133.465C197.278 133.395 196.92 133.425 196.561 133.556C196.258 133.666 196.037 133.831 195.897 134.051C195.764 134.269 195.772 134.5 195.922 134.745C196.051 134.967 196.242 135.097 196.498 135.135C196.756 135.164 197.097 135.155 197.521 135.109L197.698 135.09C198.19 135.034 198.613 135.007 198.965 135.01C199.323 135.01 199.656 135.073 199.962 135.2C200.272 135.318 200.513 135.526 200.686 135.824C200.953 136.288 200.945 136.714 200.66 137.102C200.382 137.487 199.947 137.788 199.354 138.003C198.934 138.156 198.508 138.227 198.076 138.215C197.644 138.203 197.244 138.111 196.877 137.937C196.513 137.754 196.222 137.495 196.003 137.16L196.869 136.775C197.021 136.966 197.206 137.114 197.425 137.218C197.647 137.314 197.886 137.366 198.14 137.373C198.401 137.378 198.66 137.334 198.914 137.241C199.259 137.116 199.519 136.96 199.695 136.773C199.867 136.58 199.881 136.359 199.738 136.111C199.65 135.959 199.525 135.858 199.364 135.81C199.205 135.752 199.038 135.728 198.86 135.739C198.679 135.744 198.447 135.767 198.163 135.809L197.944 135.842C197.236 135.931 196.634 135.935 196.137 135.854C195.641 135.774 195.273 135.527 195.035 135.114C194.844 134.784 194.774 134.468 194.824 134.165C194.878 133.853 195.026 133.576 195.27 133.334C195.521 133.089 195.835 132.898 196.214 132.76C196.786 132.551 197.358 132.524 197.93 132.677C198.499 132.824 198.969 133.125 199.341 133.582L198.506 133.955ZM201.135 134.162C200.83 133.635 200.666 133.134 200.642 132.658C200.617 132.183 200.733 131.768 200.987 131.415C201.241 131.061 201.62 130.792 202.123 130.609C202.543 130.456 202.977 130.406 203.424 130.458C203.878 130.508 204.326 130.683 204.766 130.984C205.203 131.279 205.6 131.707 205.958 132.268L206.177 132.627L202.208 134.071C202.539 134.573 202.925 134.917 203.366 135.102C203.807 135.288 204.261 135.295 204.73 135.125C205.026 135.017 205.253 134.846 205.41 134.612C205.57 134.369 205.635 134.092 205.605 133.78L206.574 133.508C206.687 134.036 206.613 134.516 206.354 134.948C206.095 135.381 205.701 135.694 205.17 135.887C204.667 136.07 204.164 136.122 203.66 136.044C203.156 135.966 202.685 135.765 202.248 135.44C201.81 135.115 201.439 134.689 201.135 134.162ZM204.819 132.268C204.457 131.8 204.081 131.503 203.691 131.376C203.304 131.24 202.928 131.238 202.563 131.371C202.129 131.529 201.849 131.781 201.723 132.126C201.597 132.472 201.627 132.884 201.811 133.362L204.819 132.268ZM218.156 128.324C218.353 128.852 218.433 129.338 218.397 129.781C218.368 130.222 218.226 130.604 217.971 130.928C217.722 131.249 217.371 131.492 216.916 131.658C216.316 131.876 215.721 131.92 215.128 131.789C214.536 131.659 213.974 131.372 213.442 130.928C212.914 130.474 212.442 129.889 212.028 129.171C211.61 128.447 211.357 127.778 211.27 127.165C211.189 126.548 211.28 126.02 211.542 125.578C211.805 125.137 212.235 124.807 212.835 124.589C213.483 124.353 214.144 124.351 214.819 124.582C215.498 124.803 216.115 125.236 216.67 125.879L215.752 126.283C215.359 125.849 214.949 125.557 214.52 125.405C214.09 125.254 213.683 125.249 213.297 125.389C212.89 125.537 212.605 125.772 212.44 126.093C212.278 126.406 212.241 126.796 212.328 127.264C212.418 127.723 212.631 128.245 212.969 128.829C213.302 129.407 213.659 129.873 214.038 130.226C214.425 130.578 214.821 130.81 215.228 130.923C215.639 131.027 216.047 131.005 216.454 130.857C216.881 130.702 217.161 130.435 217.292 130.056C217.427 129.669 217.393 129.19 217.188 128.619L218.156 128.324ZM216.444 123.46L217.333 123.137L221.018 129.519L220.331 129.262L224.652 127.689L225.114 128.489L220.349 130.224L216.444 123.46ZM227.021 120.579L225.357 121.184L228.338 126.347L230.064 125.719L230.526 126.519L226.185 128.1L225.723 127.299L227.449 126.671L224.468 121.508L222.804 122.114L222.342 121.313L226.559 119.778L227.021 120.579Z" fill="#222220"/>
<circle cx="2" cy="2" r="2" transform="matrix(0.939693 -0.34202 0.5 0.866025 183.351 151.026)" fill="#00A63E"/>
<circle opacity="0.2" cx="3" cy="3" r="3" transform="matrix(0.939693 -0.34202 0.5 0.866025 181.911 150.502)" fill="#00A63E"/>
<path d="M193.786 151.42L190.243 148.483L190.958 148.223L193.914 150.744L193.438 147.32L194.145 147.063L194.635 151.111L193.786 151.42ZM198.702 149.739C197.477 150.185 196.159 149.525 195.251 147.952C194.339 146.372 194.577 145.162 195.802 144.716C197.035 144.268 198.345 144.914 199.257 146.494C200.165 148.066 199.935 149.29 198.702 149.739ZM198.39 149.199C199.262 148.881 199.263 148.001 198.543 146.754C197.819 145.5 196.986 144.939 196.114 145.257C195.25 145.571 195.233 146.441 195.957 147.695C196.677 148.942 197.526 149.513 198.39 149.199ZM202.62 148.204L202.14 147.373L203.012 147.055L203.492 147.887L202.62 148.204ZM207.515 146.548C206.523 146.91 205.305 146.707 204.765 145.772C204.377 145.1 204.662 144.459 205.117 144.143C204.555 144.163 203.924 143.89 203.64 143.381C203.199 142.586 203.708 141.814 204.595 141.491C205.475 141.171 206.544 141.368 207.015 142.153C207.315 142.656 207.149 143.219 206.778 143.538C207.369 143.474 208.173 143.718 208.561 144.39C209.101 145.325 208.5 146.19 207.515 146.548ZM207.211 146.022C207.828 145.797 208.195 145.236 207.847 144.633C207.491 144.017 206.728 143.892 206.111 144.117C205.487 144.344 205.108 144.884 205.464 145.501C205.812 146.104 206.587 146.249 207.211 146.022ZM205.823 143.618C206.349 143.426 206.627 142.931 206.339 142.432C206.055 141.94 205.421 141.819 204.895 142.01C204.361 142.205 204.063 142.665 204.347 143.157C204.635 143.656 205.289 143.812 205.823 143.618ZM211.418 145.002L210.938 144.171L211.81 143.853L212.29 144.685L211.418 145.002ZM214.352 143.716C213.86 142.864 214.222 142.12 214.638 141.424C215.091 140.68 215.622 139.992 215.238 139.327C214.922 138.78 214.321 138.621 213.727 138.838C213.043 139.087 212.891 139.611 213.231 140.184L212.532 140.438C211.959 139.54 212.37 138.661 213.437 138.272C214.437 137.908 215.464 138.222 215.932 139.033C216.268 139.615 216.133 140.184 215.871 140.723C215.422 141.6 214.663 142.396 214.926 143.088L217.753 142.059L218.057 142.586L214.456 143.896L214.352 143.716Z" fill="#6B6B66"/>
<rect x="0.359923" y="0.131001" width="119.5" height="29.5" transform="matrix(0.939693 -0.34202 0.5 0.866025 225.833 178.133)" fill="#F6F6F3"/>
<rect x="0.359923" y="0.131001" width="119.5" height="29.5" transform="matrix(0.939693 -0.34202 0.5 0.866025 225.833 178.133)" stroke="#CFCFC9" stroke-width="0.5"/>
<path d="M238.98 184.95L239.869 184.626L243.554 191.009L242.868 190.752L247.188 189.179L247.65 189.979L242.885 191.714L238.98 184.95ZM246.499 186.087C246.327 185.573 246.364 185.095 246.609 184.652C246.85 184.203 247.253 183.876 247.818 183.67C248.5 183.422 249.142 183.407 249.744 183.626C250.346 183.845 250.845 184.298 251.241 184.983L252.412 187.013C252.474 187.121 252.548 187.19 252.632 187.221C252.717 187.251 252.818 187.245 252.935 187.203L253.152 187.124L253.559 187.829L253.29 187.927C252.966 188.044 252.664 188.07 252.383 188.003C252.106 187.927 251.876 187.78 251.692 187.563C251.718 187.853 251.63 188.143 251.43 188.431C251.225 188.713 250.917 188.929 250.503 189.079C249.938 189.285 249.391 189.327 248.862 189.204C248.339 189.079 247.951 188.798 247.698 188.359C247.508 188.029 247.438 187.735 247.49 187.478C247.549 187.219 247.693 186.986 247.924 186.779C248.155 186.572 248.477 186.343 248.891 186.092L250.323 185.214C250.074 184.797 249.772 184.527 249.417 184.402C249.058 184.272 248.671 184.282 248.258 184.432C247.92 184.555 247.684 184.745 247.549 185.002C247.41 185.252 247.383 185.523 247.468 185.815L246.499 186.087ZM248.608 188.028C248.733 188.244 248.935 188.386 249.216 188.453C249.493 188.513 249.824 188.473 250.21 188.333C250.509 188.216 250.745 188.054 250.916 187.845C251.084 187.63 251.169 187.38 251.171 187.095C251.177 186.801 251.086 186.492 250.899 186.168L250.756 185.921L249.585 186.601C249.527 186.629 249.47 186.662 249.415 186.697C249.135 186.861 248.923 186.999 248.78 187.113C248.633 187.22 248.538 187.351 248.494 187.505C248.453 187.651 248.491 187.825 248.608 188.028ZM252.49 182.108L253.274 183.379L253.1 183.315C252.947 182.848 252.967 182.449 253.159 182.118C253.358 181.784 253.682 181.536 254.13 181.373C254.729 181.155 255.29 181.166 255.812 181.406C256.335 181.646 256.759 182.049 257.085 182.614L258.961 185.863L258.093 186.179L256.349 183.159C256.074 182.682 255.774 182.357 255.448 182.184C255.13 182.008 254.767 181.994 254.361 182.142C253.913 182.305 253.631 182.561 253.516 182.91C253.404 183.251 253.48 183.65 253.744 184.107L255.488 187.127L254.619 187.443L251.704 182.394L252.49 182.108ZM262.286 184.329C261.831 184.495 261.363 184.543 260.88 184.472C260.401 184.393 259.955 184.206 259.542 183.91C259.126 183.608 258.781 183.219 258.506 182.743C258.231 182.266 258.087 181.808 258.074 181.367C258.057 180.919 258.17 180.529 258.411 180.195C258.655 179.852 259.004 179.598 259.459 179.433C259.824 179.3 260.212 179.263 260.621 179.321C261.037 179.378 261.38 179.518 261.651 179.742L261.189 178.942L262.016 178.641L264.645 183.194C265.023 183.848 265.092 184.43 264.853 184.94C264.624 185.454 264.141 185.845 263.404 186.113C263.018 186.254 262.631 186.321 262.245 186.316C261.865 186.308 261.504 186.232 261.162 186.087C260.82 185.943 260.524 185.74 260.272 185.477L261.149 185.089C261.398 185.29 261.679 185.415 261.99 185.463C262.301 185.511 262.626 185.474 262.964 185.351C263.453 185.173 263.777 184.94 263.936 184.651C264.105 184.367 264.087 184.047 263.882 183.691L263.403 182.862C263.409 183.175 263.308 183.47 263.1 183.745C262.895 184.012 262.624 184.207 262.286 184.329ZM259.415 182.412C259.606 182.742 259.837 183.011 260.107 183.22C260.385 183.427 260.683 183.56 261.002 183.621C261.317 183.676 261.633 183.645 261.95 183.53C262.253 183.419 262.478 183.253 262.625 183.03C262.774 182.799 262.838 182.534 262.816 182.235C262.796 181.927 262.693 181.611 262.506 181.287C262.326 180.96 262.1 180.693 261.83 180.484C261.555 180.269 261.261 180.134 260.946 180.079C260.634 180.016 260.32 180.042 260.003 180.157C259.686 180.273 259.452 180.446 259.302 180.677C259.149 180.902 259.08 181.166 259.095 181.467C259.118 181.767 259.225 182.081 259.415 182.412ZM264.389 177.385C264.136 176.947 264.06 176.563 264.162 176.234C264.267 175.896 264.568 175.637 265.064 175.456L266.635 174.884L267.042 175.589L265.471 176.161C265.285 176.229 265.173 176.346 265.136 176.513C265.096 176.674 265.136 176.859 265.257 177.069L268.359 182.442L267.491 182.758L264.389 177.385ZM263.273 178.529L267.718 176.911L268.125 177.616L263.68 179.234L263.273 178.529ZM275.518 179.836L274.798 178.588L274.962 178.655C275.107 179.11 275.082 179.499 274.886 179.824C274.69 180.149 274.375 180.391 273.941 180.549C273.355 180.762 272.801 180.748 272.279 180.508C271.76 180.259 271.339 179.855 271.016 179.296L269.141 176.048L270.019 175.728L271.757 178.738C272.036 179.221 272.334 179.55 272.653 179.726C272.971 179.902 273.327 179.919 273.72 179.776C274.154 179.618 274.427 179.369 274.539 179.028C274.647 178.681 274.568 178.276 274.3 177.813L272.562 174.802L273.43 174.486L276.345 179.535L275.518 179.836ZM279.403 174.203C279.18 173.946 278.89 173.783 278.533 173.713C278.175 173.643 277.818 173.673 277.459 173.804C277.156 173.914 276.935 174.079 276.795 174.299C276.662 174.517 276.67 174.748 276.82 174.993C276.949 175.215 277.14 175.345 277.396 175.383C277.654 175.412 277.995 175.403 278.419 175.357L278.596 175.338C279.088 175.282 279.511 175.255 279.862 175.258C280.221 175.258 280.554 175.321 280.86 175.448C281.17 175.566 281.411 175.774 281.584 176.072C281.851 176.536 281.843 176.962 281.558 177.35C281.28 177.735 280.845 178.036 280.252 178.251C279.832 178.404 279.406 178.475 278.974 178.463C278.542 178.451 278.142 178.359 277.775 178.185C277.411 178.002 277.12 177.743 276.901 177.408L277.767 177.023C277.919 177.214 278.104 177.362 278.323 177.466C278.545 177.562 278.784 177.614 279.038 177.621C279.299 177.626 279.557 177.582 279.812 177.489C280.157 177.364 280.417 177.208 280.593 177.021C280.765 176.828 280.779 176.607 280.636 176.359C280.548 176.207 280.423 176.106 280.262 176.058C280.103 176 279.936 175.977 279.758 175.987C279.577 175.992 279.345 176.015 279.06 176.057L278.842 176.09C278.134 176.179 277.532 176.183 277.035 176.102C276.538 176.022 276.171 175.775 275.933 175.362C275.742 175.032 275.672 174.716 275.722 174.413C275.776 174.101 275.924 173.824 276.168 173.582C276.419 173.337 276.733 173.146 277.112 173.008C277.684 172.8 278.256 172.772 278.828 172.925C279.397 173.072 279.867 173.373 280.239 173.83L279.403 174.203ZM282.033 174.41C281.728 173.883 281.564 173.382 281.54 172.906C281.515 172.431 281.63 172.016 281.885 171.663C282.139 171.309 282.518 171.04 283.021 170.857C283.441 170.704 283.875 170.654 284.322 170.706C284.776 170.756 285.224 170.932 285.664 171.232C286.101 171.527 286.498 171.955 286.856 172.516L287.075 172.875L283.106 174.319C283.437 174.821 283.823 175.165 284.264 175.35C284.705 175.536 285.159 175.543 285.628 175.373C285.924 175.265 286.151 175.094 286.308 174.86C286.468 174.617 286.533 174.34 286.503 174.028L287.472 173.756C287.584 174.284 287.511 174.764 287.252 175.196C286.993 175.629 286.599 175.942 286.068 176.135C285.565 176.318 285.062 176.37 284.558 176.292C284.054 176.214 283.583 176.013 283.146 175.688C282.708 175.363 282.337 174.937 282.033 174.41ZM285.717 172.516C285.355 172.048 284.979 171.751 284.589 171.624C284.202 171.488 283.826 171.486 283.461 171.619C283.027 171.777 282.747 172.029 282.621 172.375C282.495 172.72 282.525 173.132 282.709 173.611L285.717 172.516ZM293.728 165.023C294.265 164.828 294.775 164.742 295.256 164.767C295.74 164.783 296.176 164.909 296.562 165.145C296.945 165.374 297.259 165.702 297.505 166.127C297.754 166.559 297.867 166.971 297.844 167.364C297.817 167.751 297.654 168.098 297.357 168.406C297.066 168.712 296.652 168.962 296.115 169.158L294.792 169.639L296.31 172.269L295.41 172.596L291.505 165.832L293.728 165.023ZM295.653 168.358C296.211 168.154 296.566 167.895 296.717 167.578C296.868 167.262 296.82 166.891 296.575 166.466C296.336 166.053 296.019 165.792 295.622 165.683C295.225 165.574 294.748 165.62 294.19 165.824L292.867 166.305L294.33 168.839L295.653 168.358ZM305.677 168.006L306.084 168.711L301.174 170.498L300.767 169.793L305.677 168.006ZM303.293 169.727L300.136 164.259C300.019 164.056 299.885 163.924 299.733 163.864C299.582 163.804 299.399 163.812 299.185 163.89L297.883 164.364L297.476 163.659L298.778 163.185C299.254 163.012 299.683 162.99 300.067 163.12C300.45 163.249 300.763 163.524 301.005 163.943L304.162 169.411L303.293 169.727ZM304.86 164.845C304.689 164.331 304.725 163.853 304.97 163.41C305.211 162.961 305.614 162.634 306.179 162.428C306.862 162.18 307.504 162.165 308.105 162.384C308.707 162.603 309.206 163.056 309.602 163.742L310.774 165.771C310.836 165.879 310.909 165.948 310.994 165.979C311.078 166.01 311.179 166.004 311.296 165.961L311.513 165.882L311.92 166.587L311.652 166.685C311.328 166.803 311.026 166.828 310.745 166.761C310.468 166.685 310.237 166.539 310.053 166.321C310.079 166.611 309.992 166.901 309.791 167.189C309.587 167.471 309.278 167.687 308.865 167.837C308.3 168.043 307.752 168.085 307.223 167.962C306.701 167.837 306.313 167.556 306.06 167.117C305.869 166.787 305.8 166.494 305.851 166.237C305.91 165.977 306.055 165.744 306.286 165.537C306.516 165.33 306.839 165.101 307.253 164.85L308.684 163.972C308.435 163.555 308.133 163.285 307.778 163.16C307.419 163.03 307.033 163.04 306.619 163.19C306.282 163.313 306.045 163.503 305.91 163.76C305.771 164.01 305.744 164.281 305.829 164.573L304.86 164.845ZM306.97 166.786C307.094 167.002 307.297 167.144 307.577 167.211C307.854 167.271 308.185 167.232 308.571 167.091C308.871 166.974 309.106 166.812 309.278 166.603C309.446 166.389 309.531 166.139 309.533 165.853C309.538 165.559 309.448 165.25 309.261 164.927L309.118 164.679L307.946 165.359C307.888 165.388 307.832 165.42 307.777 165.455C307.496 165.619 307.284 165.757 307.141 165.871C306.995 165.978 306.899 166.109 306.855 166.263C306.814 166.409 306.852 166.583 306.97 166.786ZM311.394 159.054L314.276 164.046C314.401 164.262 314.56 164.408 314.754 164.483C314.948 164.559 315.158 164.555 315.386 164.473L316.853 163.938L317.26 164.643L315.793 165.178C315.255 165.373 314.786 165.398 314.384 165.252C313.987 165.097 313.661 164.8 313.408 164.362L310.526 159.371L311.394 159.054ZM314.356 159.591L314.763 160.296L310.132 161.981L309.725 161.276L314.356 159.591ZM316.914 158.267C316.661 157.829 316.586 157.446 316.687 157.116C316.793 156.778 317.093 156.519 317.589 156.339L319.16 155.767L319.567 156.472L317.996 157.044C317.81 157.111 317.699 157.229 317.662 157.396C317.621 157.557 317.661 157.742 317.782 157.951L320.884 163.324L320.016 163.64L316.914 158.267ZM315.798 159.411L320.243 157.794L320.65 158.499L316.205 160.116L315.798 159.411ZM326.828 161.299C326.325 161.482 325.822 161.535 325.318 161.457C324.821 161.376 324.354 161.174 323.916 160.849C323.478 160.524 323.107 160.098 322.803 159.571C322.499 159.044 322.334 158.543 322.31 158.067C322.286 157.592 322.397 157.179 322.645 156.827C322.899 156.473 323.278 156.205 323.781 156.022C324.284 155.839 324.784 155.787 325.281 155.868C325.784 155.946 326.255 156.147 326.693 156.472C327.131 156.797 327.502 157.223 327.806 157.75C328.11 158.277 328.275 158.778 328.299 159.254C328.323 159.729 328.208 160.144 327.954 160.498C327.706 160.849 327.331 161.116 326.828 161.299ZM326.388 160.537C326.891 160.354 327.185 160.047 327.27 159.617C327.362 159.184 327.237 158.672 326.896 158.081C326.555 157.49 326.148 157.081 325.675 156.854C325.209 156.624 324.724 156.601 324.221 156.784C323.718 156.967 323.42 157.275 323.329 157.708C323.244 158.139 323.372 158.649 323.713 159.24C324.054 159.831 324.457 160.241 324.924 160.471C325.397 160.698 325.885 160.72 326.388 160.537ZM329.59 154.046L330.458 155.332L330.321 155.29C330.144 154.839 330.114 154.47 330.231 154.181C330.348 153.893 330.613 153.673 331.027 153.523L332.123 153.124L332.53 153.829L331.434 154.228C331.158 154.328 330.957 154.463 330.829 154.632C330.709 154.799 330.661 154.997 330.685 155.227C330.709 155.456 330.805 155.717 330.974 156.009L332.712 159.019L331.844 159.335L328.929 154.286L329.59 154.046ZM329.414 154.11L329.821 154.815L327.909 155.511L327.502 154.806L329.414 154.11ZM334.093 157.664L334.5 158.369L330.417 159.855L330.01 159.15L334.093 157.664ZM333.7 152.55L334.133 153.234C334.034 152.616 334.254 152.21 334.792 152.014C335.033 151.926 335.27 151.932 335.503 152.032C335.738 152.123 335.993 152.318 336.266 152.619C336.194 152.291 336.217 152.006 336.336 151.763C336.45 151.514 336.649 151.338 336.931 151.235C337.352 151.082 337.754 151.143 338.138 151.419C338.525 151.685 338.933 152.19 339.362 152.933L341.111 155.962L340.243 156.278L338.494 153.249C338.197 152.734 337.942 152.386 337.727 152.202C337.509 152.013 337.294 151.957 337.08 152.034C336.921 152.092 336.817 152.199 336.766 152.356C336.718 152.504 336.725 152.698 336.788 152.936C336.853 153.166 336.974 153.433 337.15 153.738L338.899 156.767L338.031 157.083L336.282 154.054C335.985 153.54 335.723 153.193 335.495 153.015C335.27 152.828 335.04 152.777 334.806 152.862C334.668 152.912 334.58 153.013 334.543 153.165C334.502 153.311 334.516 153.502 334.586 153.738C334.652 153.967 334.773 154.234 334.949 154.539L336.698 157.569L335.819 157.888L332.904 152.84L333.7 152.55Z" fill="#222220"/>
<path d="M233.394 175.256L233.894 176.122L229.196 177.832C228.158 178.21 227.764 179.292 228.317 180.248L230.817 184.578L229.877 184.92L225.877 177.992L233.394 175.256Z" fill="#404039"/>
<path d="M248.394 201.236L247.894 200.37L243.196 202.081C242.158 202.458 240.869 201.989 240.317 201.033L237.817 196.702L236.877 197.044L240.877 203.973L248.394 201.236Z" fill="#404039"/>
<path d="M346.122 165.667L345.622 164.801L350.321 163.091C351.359 162.713 351.753 161.631 351.2 160.675L348.7 156.344L349.64 156.002L353.64 162.931L346.122 165.667Z" fill="#404039"/>
<path d="M331.122 139.686L331.622 140.552L336.321 138.842C337.359 138.464 338.648 138.934 339.2 139.89L341.7 144.22L342.64 143.878L338.64 136.95L331.122 139.686Z" fill="#404039"/>
<rect width="3" height="3" transform="matrix(0.5 0.866025 -0.939693 0.34202 149.989 81.4238)" fill="#BEBEB6"/>
<rect width="3" height="3" transform="matrix(0.5 0.866025 -0.939693 0.34202 164.989 107.404)" fill="#BEBEB6"/>
<rect width="3" height="3" transform="matrix(0.5 0.866025 -0.939693 0.34202 234.036 189.17)" fill="#BEBEB6"/>
<rect width="58" height="12" transform="matrix(0.939693 -0.34202 0.5 0.866025 181.794 170.98)" fill="#333333"/>
<path d="M188.093 172.168L188.965 171.85L193.428 176.178L192.767 176.419L188.829 172.529L189.97 177.437L189.309 177.678L188.093 172.168ZM189.32 175.98L189.234 175.358L191.263 174.619L191.801 175.077L189.32 175.98ZM192.923 170.409C193.314 170.267 193.685 170.205 194.035 170.223C194.387 170.234 194.704 170.326 194.985 170.498C195.263 170.665 195.492 170.903 195.67 171.212C195.852 171.526 195.934 171.826 195.917 172.112C195.897 172.393 195.779 172.645 195.563 172.869C195.351 173.092 195.05 173.274 194.659 173.416L193.697 173.766L194.801 175.679L194.147 175.917L191.307 170.998L192.923 170.409ZM194.323 172.834C194.729 172.687 194.987 172.498 195.097 172.268C195.207 172.038 195.172 171.768 194.994 171.458C194.82 171.158 194.589 170.968 194.301 170.889C194.013 170.809 193.665 170.844 193.259 170.991L192.297 171.342L193.361 173.185L194.323 172.834ZM199.113 168.861L197.902 169.302L200.07 173.057L201.326 172.6L201.662 173.182L198.504 174.331L198.168 173.749L199.424 173.292L197.256 169.537L196.045 169.977L195.709 169.395L198.777 168.279L199.113 168.861ZM206.61 166.937L207.241 167.873L207.141 167.842C207.013 167.514 206.991 167.245 207.076 167.036C207.161 166.826 207.354 166.666 207.655 166.557L208.452 166.267L208.748 166.779L207.951 167.069C207.75 167.142 207.604 167.24 207.511 167.364C207.423 167.485 207.388 167.629 207.406 167.796C207.423 167.963 207.494 168.153 207.616 168.365L208.88 170.554L208.249 170.784L206.129 167.112L206.61 166.937ZM206.482 166.984L206.778 167.496L205.387 168.002L205.091 167.49L206.482 166.984ZM209.885 169.568L210.181 170.081L207.211 171.162L206.915 170.649L209.885 169.568ZM210.336 167.803C210.114 167.419 209.995 167.055 209.977 166.709C209.96 166.363 210.043 166.062 210.228 165.805C210.413 165.547 210.689 165.352 211.054 165.219C211.36 165.108 211.676 165.071 212.001 165.109C212.331 165.145 212.656 165.273 212.977 165.492C213.294 165.706 213.583 166.017 213.843 166.425L214.003 166.686L211.116 167.737C211.357 168.102 211.638 168.352 211.958 168.487C212.279 168.621 212.61 168.627 212.95 168.503C213.166 168.424 213.331 168.3 213.445 168.13C213.561 167.953 213.608 167.752 213.587 167.525L214.291 167.327C214.373 167.711 214.32 168.06 214.132 168.375C213.943 168.689 213.656 168.917 213.27 169.057C212.905 169.19 212.538 169.228 212.172 169.172C211.806 169.115 211.464 168.968 211.145 168.732C210.827 168.496 210.557 168.186 210.336 167.803ZM213.015 166.425C212.752 166.085 212.479 165.869 212.195 165.776C211.914 165.677 211.64 165.676 211.374 165.773C211.059 165.888 210.855 166.071 210.764 166.322C210.672 166.574 210.694 166.873 210.828 167.221L213.015 166.425ZM217.046 163.139L219.766 167.85L219.134 168.08L218.078 166.251L218.217 166.318C218.253 166.506 218.244 166.679 218.19 166.839C218.142 166.996 218.05 167.136 217.914 167.258C217.778 167.38 217.605 167.479 217.395 167.556C217.014 167.695 216.644 167.726 216.284 167.65C215.927 167.567 215.602 167.403 215.309 167.158C215.016 166.913 214.768 166.614 214.565 166.263C214.362 165.912 214.24 165.569 214.197 165.232C214.154 164.895 214.211 164.595 214.368 164.331C214.528 164.061 214.798 163.856 215.179 163.718C215.494 163.603 215.8 163.57 216.095 163.619C216.39 163.668 216.659 163.797 216.9 164.005L216.9 164.147L216.474 163.347L217.046 163.139ZM217.802 165.898C217.767 165.66 217.681 165.42 217.542 165.18C217.403 164.94 217.231 164.731 217.026 164.554C216.826 164.376 216.602 164.256 216.355 164.195C216.11 164.128 215.859 164.141 215.604 164.234C215.218 164.374 215.006 164.611 214.967 164.943C214.929 165.276 215.02 165.634 215.242 166.017C215.463 166.401 215.745 166.689 216.087 166.883C216.43 167.077 216.794 167.104 217.18 166.963C217.435 166.87 217.612 166.73 217.711 166.544C217.812 166.351 217.842 166.135 217.802 165.898ZM222.801 165.487L222.277 164.58L222.397 164.629C222.502 164.959 222.484 165.242 222.342 165.479C222.199 165.715 221.97 165.891 221.654 166.006C221.228 166.161 220.825 166.151 220.445 165.976C220.068 165.795 219.762 165.501 219.527 165.095L218.163 162.732L218.802 162.5L220.066 164.689C220.269 165.04 220.486 165.279 220.717 165.408C220.949 165.536 221.208 165.548 221.493 165.444C221.809 165.329 222.008 165.147 222.089 164.9C222.168 164.648 222.11 164.353 221.915 164.016L220.651 161.826L221.283 161.597L223.403 165.269L222.801 165.487ZM223.407 163.045C223.186 162.662 223.067 162.297 223.049 161.951C223.031 161.606 223.115 161.304 223.3 161.047C223.485 160.79 223.76 160.594 224.126 160.461C224.432 160.35 224.747 160.313 225.073 160.351C225.403 160.388 225.728 160.515 226.049 160.734C226.366 160.948 226.655 161.259 226.915 161.668L227.075 161.928L224.188 162.979C224.429 163.344 224.71 163.594 225.03 163.729C225.351 163.864 225.681 163.869 226.022 163.745C226.238 163.667 226.402 163.542 226.516 163.372C226.633 163.196 226.68 162.994 226.658 162.767L227.363 162.57C227.445 162.953 227.392 163.302 227.204 163.617C227.015 163.931 226.728 164.159 226.342 164.299C225.976 164.432 225.61 164.471 225.244 164.414C224.878 164.357 224.535 164.211 224.217 163.975C223.899 163.738 223.629 163.428 223.407 163.045ZM226.087 161.667C225.824 161.327 225.55 161.111 225.267 161.019C224.985 160.92 224.712 160.919 224.446 161.015C224.13 161.13 223.927 161.313 223.835 161.565C223.744 161.816 223.765 162.116 223.899 162.464L226.087 161.667ZM230.097 159.763C229.935 159.577 229.723 159.458 229.464 159.407C229.204 159.356 228.944 159.378 228.683 159.473C228.463 159.553 228.301 159.674 228.2 159.834C228.103 159.992 228.109 160.16 228.218 160.338C228.312 160.5 228.451 160.595 228.637 160.622C228.825 160.643 229.073 160.637 229.381 160.603L229.509 160.589C229.868 160.548 230.175 160.529 230.431 160.531C230.692 160.531 230.934 160.577 231.156 160.669C231.382 160.755 231.557 160.906 231.683 161.123C231.877 161.46 231.871 161.77 231.664 162.052C231.462 162.332 231.145 162.551 230.714 162.708C230.409 162.819 230.099 162.871 229.784 162.862C229.47 162.853 229.179 162.786 228.912 162.66C228.648 162.527 228.436 162.338 228.277 162.094L228.907 161.815C229.017 161.953 229.152 162.061 229.311 162.137C229.473 162.207 229.646 162.244 229.831 162.25C230.021 162.253 230.209 162.221 230.394 162.154C230.645 162.062 230.834 161.949 230.962 161.813C231.087 161.672 231.097 161.512 230.993 161.332C230.929 161.221 230.839 161.148 230.721 161.112C230.606 161.071 230.484 161.054 230.355 161.061C230.223 161.064 230.054 161.081 229.847 161.112L229.689 161.136C229.174 161.201 228.736 161.203 228.375 161.145C228.013 161.086 227.746 160.907 227.573 160.607C227.434 160.367 227.383 160.136 227.42 159.916C227.459 159.69 227.567 159.488 227.744 159.312C227.926 159.134 228.155 158.995 228.431 158.894C228.847 158.743 229.263 158.723 229.679 158.834C230.092 158.941 230.434 159.16 230.704 159.492L230.097 159.763ZM232.253 156.43L234.349 160.06C234.44 160.217 234.556 160.323 234.697 160.378C234.838 160.433 234.991 160.43 235.156 160.37L236.224 159.982L236.52 160.494L235.452 160.883C235.061 161.025 234.72 161.043 234.428 160.937C234.139 160.824 233.902 160.609 233.718 160.29L231.622 156.66L232.253 156.43ZM234.407 156.82L234.703 157.332L231.335 158.558L231.039 158.046L234.407 156.82Z" fill="#F6F6F3"/>
<path d="M245.927 96.7708L261.177 123.185L147.945 164.398L132.695 137.984L245.927 96.7708Z" fill="#F6F6F3"/>
<path d="M245.927 96.7708L261.177 123.185L147.945 164.398L132.695 137.984L245.927 96.7708Z" fill="white" fill-opacity="0.9"/>
<path d="M245.927 96.7708L261.177 123.185L147.945 164.398L132.695 137.984L245.927 96.7708Z" stroke="#CFCFC9" stroke-width="0.5"/>
<path d="M158.473 135.875L159.362 135.551L163.047 141.934L162.36 141.676L166.681 140.104L167.143 140.904L162.378 142.638L158.473 135.875ZM165.992 137.012C165.82 136.498 165.857 136.019 166.101 135.577C166.342 135.128 166.746 134.8 167.311 134.595C167.993 134.346 168.635 134.332 169.237 134.551C169.838 134.77 170.337 135.222 170.733 135.908L171.905 137.937C171.967 138.045 172.041 138.115 172.125 138.145C172.209 138.176 172.31 138.17 172.427 138.128L172.644 138.049L173.051 138.754L172.783 138.851C172.459 138.969 172.157 138.995 171.876 138.928C171.599 138.852 171.368 138.705 171.184 138.488C171.21 138.778 171.123 139.067 170.922 139.356C170.718 139.637 170.409 139.854 169.996 140.004C169.431 140.21 168.884 140.251 168.354 140.129C167.832 140.004 167.444 139.722 167.191 139.284C167 138.954 166.931 138.66 166.983 138.403C167.041 138.144 167.186 137.91 167.417 137.703C167.647 137.496 167.97 137.268 168.384 137.017L169.816 136.139C169.567 135.722 169.265 135.451 168.909 135.327C168.55 135.196 168.164 135.206 167.751 135.357C167.413 135.48 167.176 135.67 167.041 135.926C166.902 136.177 166.875 136.448 166.96 136.74L165.992 137.012ZM168.101 138.953C168.225 139.169 168.428 139.31 168.708 139.377C168.985 139.438 169.317 139.398 169.703 139.258C170.002 139.141 170.238 138.978 170.409 138.77C170.577 138.555 170.662 138.305 170.664 138.02C170.67 137.726 170.579 137.417 170.392 137.093L170.249 136.846L169.078 137.525C169.019 137.554 168.963 137.586 168.908 137.622C168.627 137.785 168.415 137.924 168.273 138.037C168.126 138.145 168.03 138.275 167.986 138.43C167.945 138.575 167.983 138.75 168.101 138.953ZM171.983 133.033L172.767 134.304L172.592 134.24C172.439 133.773 172.459 133.374 172.652 133.043C172.851 132.709 173.174 132.461 173.622 132.298C174.222 132.079 174.783 132.09 175.305 132.331C175.827 132.571 176.252 132.974 176.578 133.539L178.454 136.787L177.585 137.103L175.842 134.084C175.567 133.607 175.267 133.282 174.941 133.109C174.623 132.933 174.26 132.918 173.854 133.066C173.406 133.229 173.124 133.486 173.009 133.835C172.897 134.175 172.973 134.574 173.237 135.032L174.98 138.051L174.112 138.367L171.197 133.319L171.983 133.033ZM181.779 135.254C181.324 135.42 180.855 135.467 180.373 135.397C179.894 135.318 179.448 135.131 179.035 134.835C178.619 134.533 178.273 134.144 177.998 133.668C177.723 133.191 177.579 132.733 177.567 132.291C177.55 131.844 177.662 131.453 177.903 131.12C178.148 130.777 178.497 130.523 178.952 130.358C179.317 130.225 179.704 130.188 180.113 130.246C180.529 130.302 180.873 130.442 181.144 130.667L180.682 129.866L181.509 129.565L184.138 134.119C184.516 134.773 184.585 135.355 184.345 135.865C184.117 136.378 183.634 136.77 182.896 137.038C182.51 137.178 182.124 137.246 181.737 137.241C181.358 137.233 180.997 137.157 180.655 137.012C180.313 136.868 180.016 136.664 179.765 136.402L180.641 136.014C180.891 136.215 181.172 136.34 181.483 136.388C181.794 136.436 182.119 136.399 182.456 136.276C182.946 136.098 183.27 135.864 183.428 135.576C183.598 135.292 183.58 134.972 183.374 134.616L182.896 133.787C182.901 134.1 182.8 134.394 182.592 134.67C182.388 134.937 182.117 135.131 181.779 135.254ZM178.908 133.336C179.099 133.667 179.329 133.936 179.6 134.145C179.878 134.352 180.176 134.485 180.494 134.546C180.809 134.6 181.125 134.57 181.442 134.454C181.745 134.344 181.97 134.178 182.117 133.955C182.267 133.724 182.331 133.459 182.308 133.159C182.289 132.851 182.186 132.535 181.999 132.212C181.818 131.885 181.593 131.617 181.322 131.409C181.048 131.193 180.753 131.059 180.438 131.004C180.127 130.941 179.812 130.967 179.495 131.082C179.178 131.198 178.945 131.371 178.795 131.602C178.641 131.827 178.572 132.091 178.588 132.392C178.611 132.691 178.717 133.006 178.908 133.336ZM183.881 128.31C183.628 127.872 183.553 127.488 183.655 127.159C183.76 126.821 184.06 126.562 184.557 126.381L186.128 125.809L186.535 126.514L184.964 127.086C184.778 127.154 184.666 127.271 184.629 127.438C184.589 127.599 184.629 127.784 184.75 127.994L187.852 133.367L186.983 133.683L183.881 128.31ZM182.766 129.454L187.21 127.836L187.617 128.541L183.173 130.159L182.766 129.454ZM195.011 130.761L194.29 129.513L194.454 129.58C194.6 130.034 194.575 130.424 194.379 130.749C194.183 131.074 193.868 131.315 193.433 131.473C192.848 131.687 192.294 131.673 191.771 131.433C191.252 131.184 190.831 130.78 190.509 130.221L188.633 126.972L189.512 126.653L191.25 129.663C191.529 130.146 191.827 130.475 192.146 130.651C192.464 130.827 192.82 130.844 193.213 130.701C193.647 130.543 193.92 130.294 194.032 129.953C194.14 129.606 194.06 129.201 193.793 128.737L192.055 125.727L192.923 125.411L195.838 130.46L195.011 130.761ZM198.896 125.128C198.673 124.871 198.383 124.707 198.025 124.638C197.668 124.568 197.31 124.598 196.952 124.728C196.649 124.839 196.427 125.004 196.287 125.224C196.155 125.441 196.163 125.673 196.313 125.918C196.441 126.14 196.633 126.27 196.888 126.308C197.147 126.337 197.488 126.328 197.911 126.281L198.088 126.263C198.581 126.207 199.003 126.18 199.355 126.182C199.714 126.183 200.046 126.246 200.353 126.373C200.663 126.49 200.904 126.699 201.076 126.997C201.344 127.461 201.335 127.886 201.051 128.274C200.773 128.66 200.338 128.96 199.745 129.176C199.325 129.329 198.899 129.4 198.466 129.388C198.034 129.376 197.635 129.283 197.267 129.11C196.904 128.927 196.612 128.668 196.394 128.333L197.26 127.948C197.412 128.139 197.597 128.286 197.816 128.391C198.038 128.487 198.276 128.539 198.531 128.546C198.792 128.551 199.05 128.507 199.305 128.414C199.65 128.289 199.91 128.133 200.085 127.946C200.257 127.752 200.272 127.532 200.129 127.284C200.041 127.132 199.916 127.031 199.754 126.982C199.596 126.925 199.428 126.901 199.251 126.912C199.07 126.916 198.837 126.94 198.553 126.982L198.335 127.015C197.627 127.104 197.025 127.108 196.528 127.027C196.031 126.947 195.664 126.7 195.425 126.287C195.235 125.957 195.164 125.64 195.215 125.338C195.268 125.026 195.417 124.749 195.661 124.507C195.911 124.262 196.226 124.07 196.605 123.932C197.177 123.724 197.749 123.697 198.321 123.85C198.889 123.996 199.36 124.298 199.731 124.754L198.896 125.128ZM201.525 125.335C201.221 124.808 201.057 124.307 201.032 123.831C201.008 123.356 201.123 122.941 201.378 122.587C201.632 122.234 202.011 121.965 202.514 121.782C202.934 121.629 203.368 121.579 203.815 121.631C204.269 121.681 204.716 121.856 205.157 122.157C205.594 122.452 205.991 122.88 206.349 123.441L206.568 123.799L202.599 125.244C202.93 125.746 203.316 126.09 203.757 126.275C204.197 126.461 204.652 126.468 205.121 126.297C205.417 126.19 205.643 126.019 205.8 125.785C205.96 125.542 206.025 125.265 205.996 124.953L206.964 124.681C207.077 125.209 207.004 125.689 206.745 126.121C206.486 126.554 206.091 126.866 205.561 127.06C205.058 127.243 204.554 127.295 204.051 127.217C203.547 127.139 203.076 126.938 202.638 126.613C202.201 126.288 201.83 125.862 201.525 125.335ZM205.21 123.441C204.848 122.973 204.472 122.675 204.082 122.548C203.695 122.413 203.319 122.411 202.954 122.544C202.519 122.702 202.24 122.954 202.114 123.299C201.988 123.645 202.017 124.057 202.202 124.535L205.21 123.441ZM218.547 119.497C218.743 120.025 218.823 120.511 218.788 120.954C218.759 121.395 218.617 121.777 218.361 122.101C218.113 122.422 217.761 122.665 217.307 122.83C216.707 123.049 216.111 123.093 215.519 122.962C214.927 122.832 214.365 122.545 213.833 122.1C213.304 121.647 212.833 121.062 212.419 120.344C212.001 119.62 211.748 118.951 211.66 118.338C211.58 117.721 211.671 117.192 211.933 116.751C212.195 116.31 212.626 115.98 213.226 115.762C213.873 115.526 214.535 115.524 215.21 115.754C215.889 115.976 216.505 116.409 217.06 117.052L216.142 117.456C215.75 117.022 215.339 116.729 214.91 116.578C214.481 116.427 214.073 116.422 213.688 116.562C213.281 116.71 212.995 116.945 212.831 117.266C212.669 117.578 212.632 117.969 212.718 118.437C212.808 118.896 213.022 119.417 213.359 120.002C213.693 120.58 214.049 121.046 214.429 121.399C214.815 121.751 215.212 121.983 215.619 122.096C216.03 122.2 216.438 122.178 216.845 122.03C217.272 121.875 217.551 121.608 217.683 121.229C217.818 120.842 217.783 120.363 217.579 119.792L218.547 119.497ZM216.834 114.633L217.723 114.309L221.408 120.692L220.722 120.435L225.043 118.862L225.505 119.662L220.739 121.397L216.834 114.633ZM227.412 111.751L225.748 112.357L228.729 117.52L230.455 116.892L230.917 117.692L226.575 119.272L226.113 118.472L227.84 117.844L224.859 112.681L223.194 113.286L222.732 112.486L226.95 110.951L227.412 111.751Z" fill="#222220"/>
<circle cx="2" cy="2" r="2" transform="matrix(0.939693 -0.34202 0.5 0.866025 183.741 142.199)" fill="#00A63E"/>
<circle opacity="0.2" cx="3" cy="3" r="3" transform="matrix(0.939693 -0.34202 0.5 0.866025 182.302 141.675)" fill="#00A63E"/>
<path d="M194.176 142.593L190.634 139.656L191.348 139.396L194.305 141.917L193.829 138.493L194.536 138.236L195.026 142.283L194.176 142.593ZM199.093 140.912C197.868 141.358 196.549 140.698 195.641 139.125C194.729 137.545 194.968 136.335 196.193 135.889C197.426 135.44 198.736 136.087 199.648 137.667C200.556 139.239 200.326 140.463 199.093 140.912ZM198.781 140.372C199.653 140.054 199.654 139.174 198.934 137.926C198.21 136.672 197.377 136.112 196.505 136.429C195.64 136.744 195.624 137.614 196.348 138.868C197.068 140.115 197.916 140.686 198.781 140.372ZM203.011 139.377L202.531 138.546L203.403 138.228L203.883 139.06L203.011 139.377ZM207.906 137.721C206.913 138.082 205.696 137.88 205.156 136.945C204.768 136.273 205.053 135.632 205.507 135.316C204.946 135.336 204.315 135.063 204.03 134.554C203.589 133.759 204.099 132.986 204.986 132.664C205.865 132.343 206.935 132.541 207.406 133.326C207.705 133.829 207.539 134.392 207.169 134.711C207.759 134.647 208.564 134.891 208.952 135.563C209.492 136.498 208.89 137.363 207.906 137.721ZM207.602 137.195C208.218 136.97 208.585 136.409 208.237 135.806C207.881 135.19 207.118 135.065 206.502 135.289C205.878 135.517 205.498 136.057 205.854 136.674C206.202 137.276 206.978 137.422 207.602 137.195ZM206.214 134.791C206.74 134.599 207.018 134.104 206.73 133.605C206.446 133.113 205.812 132.992 205.286 133.183C204.752 133.378 204.454 133.838 204.738 134.33C205.026 134.829 205.68 134.985 206.214 134.791ZM211.808 136.175L211.328 135.344L212.2 135.026L212.68 135.858L211.808 136.175ZM214.742 134.889C214.25 134.037 214.612 133.293 215.029 132.597C215.482 131.853 216.013 131.165 215.629 130.5C215.313 129.953 214.712 129.794 214.118 130.01C213.434 130.259 213.282 130.784 213.622 131.357L212.922 131.611C212.349 130.713 212.761 129.834 213.828 129.445C214.828 129.081 215.855 129.395 216.323 130.206C216.659 130.788 216.524 131.357 216.262 131.896C215.813 132.772 215.053 133.569 215.317 134.261L218.143 133.232L218.447 133.759L214.846 135.069L214.742 134.889Z" fill="#6B6B66"/>
<path d="M261.044 122.804L261.148 130.88L147.872 172.271L147.797 163.941L261.044 122.804Z" fill="#F6F6F3" stroke="#CFCFC9" stroke-width="0.5" stroke-linejoin="round"/>
<path d="M132.816 137.98L132.866 146.752L147.914 172.516L147.865 163.869L132.816 137.98Z" fill="#F6F6F3" stroke="#CFCFC9" stroke-width="0.5" stroke-linejoin="round"/>
<path d="M132.664 138.16V146.66L147.725 172.426L261.03 130.856V122.356L245.969 96.59L132.664 138.16Z" stroke="#404039" stroke-linejoin="round"/>
</g>
<defs>
<filter id="filter0_n_4481_14420" x="0" y="0" width="408" height="271.707" filterUnits="userSpaceOnUse" color-interpolation-filters="sRGB">
<feFlood flood-opacity="0" result="BackgroundImageFix"/>
<feBlend mode="normal" in="SourceGraphic" in2="BackgroundImageFix" result="shape"/>
<feTurbulence type="fractalNoise" baseFrequency="2 2" stitchTiles="stitch" numOctaves="3" result="noise" seed="1471" />
<feColorMatrix in="noise" type="luminanceToAlpha" result="alphaNoise" />
<feComponentTransfer in="alphaNoise" result="coloredNoise1">
<feFuncA type="discrete" tableValues="0 0 0 0 1 1 1 1 1 1 1 1 1 1 1 1 1 1 1 1 1 1 1 1 1 1 1 1 1 1 1 1 1 1 1 1 1 1 1 1 1 1 1 1 1 0 0 0 0 0 0 0 0 0 0 0 0 0 0 0 0 0 0 0 0 0 0 0 0 0 0 0 0 0 0 0 0 0 0 0 0 0 0 0 0 0 0 0 0 0 0 0 0 0 0 0 0 0 0 0 "/>
</feComponentTransfer>
<feComposite operator="in" in2="shape" in="coloredNoise1" result="noise1Clipped" />
<feFlood flood-color="rgba(207, 207, 201, 0.15)" result="color1Flood" />
<feComposite operator="in" in2="noise1Clipped" in="color1Flood" result="color1" />
<feMerge result="effect1_noise_4481_14420">
<feMergeNode in="shape" />
<feMergeNode in="color1" />
</feMerge>
</filter>
<pattern id="pattern0_4481_14420" patternUnits="userSpaceOnUse" patternTransform="matrix(200 0 0 200 44 0)" preserveAspectRatio="none" viewBox="0 0 400 400" width="1" height="1">
<g id="pattern0_4481_14420_inner">
<g clip-path="url(#clip0_4481_14420)">
<path d="M0 0V400" stroke="#EFECE2"/>
<path d="M40 0V400" stroke="#EFECE2"/>
<path d="M80 0V400" stroke="#EFECE2"/>
<path d="M120 0V400" stroke="#EFECE2"/>
<path d="M160 0V400" stroke="#EFECE2"/>
<path d="M200 0V400" stroke="#EFECE2"/>
<path d="M240 0V400" stroke="#EFECE2"/>
<path d="M280 0V400" stroke="#EFECE2"/>
<path d="M320 0V400" stroke="#EFECE2"/>
<path d="M360 0V400" stroke="#EFECE2"/>
<path d="M400 0V400" stroke="#EFECE2"/>
<path d="M0 400L400 400" stroke="#EFECE2"/>
<path d="M0 360L400 360" stroke="#EFECE2"/>
<path d="M0 320L400 320" stroke="#EFECE2"/>
<path d="M0 280L400 280" stroke="#EFECE2"/>
<path d="M0 240L400 240" stroke="#EFECE2"/>
<path d="M0 200L400 200" stroke="#EFECE2"/>
<path d="M0 160L400 160" stroke="#EFECE2"/>
<path d="M0 120L400 120" stroke="#EFECE2"/>
<path d="M0 80L400 80" stroke="#EFECE2"/>
<path d="M0 40L400 40" stroke="#EFECE2"/>
<path d="M0 0L400 -1.74846e-05" stroke="#EFECE2"/>
</g>
</g>
</pattern><clipPath id="clip0_4481_14420">
<rect width="400" height="400" fill="white"/>
</clipPath>
</defs>
</svg>
