<svg width="820" height="480" viewBox="0 0 820 480" fill="none" xmlns="http://www.w3.org/2000/svg">
<g clip-path="url(#clip0_26_23)">
<g clip-path="url(#clip1_26_23)">
<path d="M854 -230H0V624H854V-230Z" fill="black"/>
<path d="M854 -230H0V624H854V-230Z" fill="#EE46D3" fill-opacity="0.483458"/>
<mask id="mask0_26_23" style="mask-type:luminance" maskUnits="userSpaceOnUse" x="0" y="-230" width="854" height="854">
<path d="M854 -230H0V624H854V-230Z" fill="white"/>
</mask>
<g mask="url(#mask0_26_23)">
<g filter="url(#filter0_f_26_23)">
<path d="M942.069 -8.49377H386.435V551.944H942.069V-8.49377Z" fill="#00C5DF"/>
<path d="M819.306 6.98499H320.784V673.105H819.306V6.98499Z" fill="#F2371F"/>
<path d="M687.47 -9.56128H170.8V472.949H687.47V-9.56128Z" fill="#F2371F"/>
<path d="M891.362 -184.631H225.242V329.904H891.362V-184.631Z" fill="#907CFF"/>
</g>
</g>
<g style="mix-blend-mode:overlay">
<path d="M854 -230H0V624H854V-230Z" fill="#808080"/>
</g>
</g>
<path d="M383.75 299.063C383.75 297.322 384.441 295.653 385.672 294.422C386.903 293.191 388.572 292.5 390.312 292.5H429.687C431.428 292.5 433.097 293.191 434.328 294.422C435.558 295.653 436.25 297.322 436.25 299.063C436.25 300.803 435.558 302.472 434.328 303.703C433.097 304.934 431.428 305.625 429.687 305.625H390.312C388.572 305.625 386.903 304.934 385.672 303.703C384.441 302.472 383.75 300.803 383.75 299.063ZM344.375 240.814C344.375 223.725 360.584 210.666 377.581 212.254C399.147 214.267 420.853 214.267 442.419 212.254C459.416 210.666 475.625 223.725 475.625 240.814V255.999C475.679 258.903 474.698 261.732 472.859 263.98C471.02 266.228 468.441 267.749 465.584 268.271C454.494 270.201 434.872 272.813 410 272.813C385.128 272.813 365.506 270.188 354.416 268.271C351.558 267.749 348.98 266.228 347.141 263.98C345.302 261.732 344.321 258.903 344.375 255.999V240.814ZM403.989 229.959C403.477 229.872 402.952 229.908 402.457 230.063C401.962 230.218 401.511 230.489 401.141 230.852L389.066 242.664C380.852 242.175 372.661 241.374 364.509 240.263C363.664 240.179 362.819 240.425 362.153 240.951C361.486 241.477 361.049 242.24 360.933 243.081C360.818 243.922 361.033 244.775 361.533 245.461C362.033 246.147 362.78 246.612 363.616 246.759C370.835 247.757 379.786 248.715 390.129 249.293C390.584 249.318 391.04 249.249 391.467 249.088C391.894 248.928 392.283 248.68 392.609 248.361L402.506 238.701L413.622 261.144C413.857 261.615 414.2 262.023 414.625 262.333C415.05 262.643 415.543 262.847 416.063 262.927C416.582 263.006 417.114 262.96 417.612 262.791C418.11 262.623 418.56 262.337 418.925 261.958L431.157 249.227C439.595 248.726 448.009 247.903 456.384 246.759C457.22 246.612 457.966 246.147 458.467 245.461C458.967 244.775 459.182 243.922 459.066 243.081C458.951 242.24 458.514 241.477 457.847 240.951C457.18 240.425 456.336 240.179 455.491 240.263C448.43 241.234 439.649 242.166 429.504 242.743C428.678 242.789 427.899 243.145 427.325 243.741L417.429 254.044L406.377 231.731C406.147 231.269 405.81 230.867 405.395 230.559C404.98 230.251 404.498 230.046 403.989 229.959Z" fill="white"/>
<path d="M416.562 159.492C419.065 158.047 421.02 155.817 422.126 153.148C423.232 150.478 423.426 147.519 422.678 144.728C421.93 141.937 420.282 139.471 417.99 137.712C415.698 135.953 412.889 135 410 135C407.111 135 404.302 135.953 402.01 137.712C399.718 139.471 398.07 141.937 397.322 144.728C396.574 147.519 396.768 150.478 397.874 153.148C398.98 155.817 400.935 158.047 403.438 159.492V174.375H377.188C361.523 174.375 346.5 180.598 335.424 191.674C324.348 202.751 318.125 217.773 318.125 233.438V240C314.644 240 311.306 241.383 308.844 243.845C306.383 246.306 305 249.644 305 253.125V279.375C305 282.856 306.383 286.195 308.844 288.656C311.306 291.118 314.644 292.5 318.125 292.5V305.625C318.125 312.587 320.891 319.264 325.813 324.187C330.736 329.11 337.413 331.875 344.375 331.875H475.625C482.587 331.875 489.264 329.11 494.187 324.187C499.109 319.264 501.875 312.587 501.875 305.625V292.5C505.356 292.5 508.694 291.118 511.156 288.656C513.617 286.195 515 282.856 515 279.375V253.125C515 249.644 513.617 246.306 511.156 243.845C508.694 241.383 505.356 240 501.875 240V233.438C501.875 217.773 495.652 202.751 484.576 191.674C473.5 180.598 458.477 174.375 442.812 174.375H416.562V159.492ZM488.75 233.438V305.625C488.75 309.106 487.367 312.445 484.906 314.906C482.444 317.368 479.106 318.75 475.625 318.75H344.375C340.894 318.75 337.556 317.368 335.094 314.906C332.633 312.445 331.25 309.106 331.25 305.625V233.438C331.25 221.254 336.09 209.57 344.705 200.955C353.32 192.34 365.004 187.5 377.188 187.5H442.812C454.996 187.5 466.68 192.34 475.295 200.955C483.91 209.57 488.75 221.254 488.75 233.438Z" fill="white"/>
</g>
<defs>
<filter id="filter0_f_26_23" x="-204.2" y="-559.631" width="1521.27" height="1607.74" filterUnits="userSpaceOnUse" color-interpolation-filters="sRGB">
<feFlood flood-opacity="0" result="BackgroundImageFix"/>
<feBlend mode="normal" in="SourceGraphic" in2="BackgroundImageFix" result="shape"/>
<feGaussianBlur stdDeviation="187.5" result="effect1_foregroundBlur_26_23"/>
</filter>
<clipPath id="clip0_26_23">
<rect width="820" height="480" fill="white"/>
</clipPath>
<clipPath id="clip1_26_23">
<rect width="854" height="854" fill="white" transform="translate(0 -230)"/>
</clipPath>
</defs>
</svg>
