<svg width="820" height="480" viewBox="0 0 820 480" fill="none" xmlns="http://www.w3.org/2000/svg">
<g clip-path="url(#clip0_26_18)">
<g clip-path="url(#clip1_26_18)">
<path d="M847 -154H-9V702H847V-154Z" fill="black"/>
<path d="M847 -154H-9V702H847V-154Z" fill="#907CFF" fill-opacity="0.289234"/>
<mask id="mask0_26_18" style="mask-type:luminance" maskUnits="userSpaceOnUse" x="-9" y="-154" width="856" height="856">
<path d="M847 -154H-9V702H847V-154Z" fill="white"/>
</mask>
<g mask="url(#mask0_26_18)">
<g filter="url(#filter0_f_26_18)">
<path d="M820.25 10.2451H372.455V660.805H820.25V10.2451Z" fill="#00C5DF"/>
<path d="M723.95 -114.945H174.505V501.375H723.95V-114.945Z" fill="#1BC47D"/>
<path d="M858.235 -83.9149H184.67V415.775H858.235V-83.9149Z" fill="#F2371F"/>
</g>
</g>
<g style="mix-blend-mode:overlay">
<path d="M847 -154H-9V702H847V-154Z" fill="#808080"/>
</g>
</g>
<g clip-path="url(#clip2_26_18)">
<path d="M432.995 216.283C440.857 224.158 455.701 222.019 466.175 211.532C476.649 201.045 478.775 186.174 470.926 178.313C463.064 170.438 448.22 172.564 437.746 183.051C427.273 193.551 425.146 208.421 432.995 216.283Z" fill="white"/>
<path d="M512.519 178.47C507.755 198.604 495.011 226.061 464.744 260.081L461.594 291.686C460.755 299.259 457.368 306.321 451.987 311.715L420.723 343.031C419.73 344.035 418.446 344.699 417.053 344.929C415.66 345.158 414.23 344.942 412.968 344.31C411.705 343.678 410.675 342.663 410.024 341.41C409.373 340.158 409.135 338.731 409.344 337.335L412.888 312.411C413.413 308.736 412.717 304.628 411.168 299.863C410.186 296.949 409.096 294.073 407.9 291.24L406.824 288.589C396.127 286.003 386.113 279.9 378.067 271.828C370.008 263.756 363.905 253.729 361.333 243.019L358.668 241.929C355.843 240.74 352.976 239.654 350.071 238.674C345.307 237.113 341.212 236.417 337.537 236.942L312.652 240.486C311.257 240.691 309.833 240.45 308.582 239.798C307.332 239.146 306.32 238.115 305.69 236.854C305.06 235.592 304.844 234.164 305.074 232.773C305.304 231.382 305.967 230.098 306.969 229.106L338.233 197.79C343.614 192.409 350.662 188.996 358.235 188.156H358.314L389.814 185.033C423.191 155.344 450.517 142.639 470.677 137.73C482.358 134.882 491.546 134.685 497.977 135.263C501.179 135.564 503.686 136.05 505.458 136.483C506.338 136.706 507.033 136.916 507.558 137.074C509.973 137.861 511.22 138.78 512.165 140.946L512.546 141.904C513.566 144.976 514.257 148.148 514.606 151.367C515.328 157.733 515.276 166.828 512.519 178.47ZM449.152 276.579L449.677 276.054L448.273 290.243C447.759 294.775 445.723 299 442.498 302.226L425.461 319.288L426.17 314.301C427.115 307.659 425.724 301.268 423.913 295.689C423.25 293.701 422.533 291.731 421.76 289.783C431.446 288.93 440.949 284.796 449.152 276.579ZM373.316 200.625C365.113 208.841 360.978 218.357 360.138 228.056C358.19 227.283 356.221 226.566 354.232 225.904C348.667 224.093 342.288 222.701 335.647 223.646L330.659 224.355L347.722 207.293C350.938 204.064 355.151 202.029 359.666 201.518L373.841 200.113L373.316 200.625ZM496.769 148.637C491.782 148.191 484.078 148.283 473.853 150.776C453.404 155.764 422.443 170.411 382.805 210.114C374.668 218.252 372.318 227.702 373.788 237.034C375.193 245.906 380.128 254.91 387.543 262.339C394.946 269.754 403.949 274.689 412.796 276.107C422.114 277.577 431.551 275.228 439.676 267.077C480.088 226.613 494.696 195.624 499.473 175.373C501.875 165.253 501.836 157.719 501.284 152.889C501.15 151.642 500.953 150.402 500.694 149.175C499.391 148.931 498.077 148.752 496.756 148.637H496.769Z" fill="white"/>
<path d="M396.993 294.324C388.266 289.614 380.286 283.634 373.316 276.579C365.843 269.182 359.592 260.645 354.796 251.287C340.332 264.307 329.006 317.621 330.659 319.275C332.3 320.929 382.319 307.515 396.993 294.311V294.324Z" fill="white"/>
</g>
</g>
<defs>
<filter id="filter0_f_26_18" x="-200.495" y="-489.945" width="1433.73" height="1525.75" filterUnits="userSpaceOnUse" color-interpolation-filters="sRGB">
<feFlood flood-opacity="0" result="BackgroundImageFix"/>
<feBlend mode="normal" in="SourceGraphic" in2="BackgroundImageFix" result="shape"/>
<feGaussianBlur stdDeviation="187.5" result="effect1_foregroundBlur_26_18"/>
</filter>
<clipPath id="clip0_26_18">
<rect width="820" height="480" fill="white"/>
</clipPath>
<clipPath id="clip1_26_18">
<rect width="856" height="856" fill="white" transform="translate(-9 -154)"/>
</clipPath>
<clipPath id="clip2_26_18">
<rect width="210" height="210" fill="white" transform="translate(305 135)"/>
</clipPath>
</defs>
</svg>
