<svg width="214" height="211" viewBox="0 0 214 211" fill="none" xmlns="http://www.w3.org/2000/svg" xmlns:xlink="http://www.w3.org/1999/xlink">
<g filter="url(#filter0_n_4481_13957)">
<rect width="230.4" height="160" transform="matrix(0.939693 -0.34202 0.5 0.866025 -37 80.1865)" fill="url(#pattern0_4481_13957)"/>
<path d="M70.9891 193.563L71.5571 194.405L71.4674 194.377C71.3517 194.082 71.3322 193.84 71.4087 193.651C71.4853 193.463 71.6589 193.319 71.9295 193.22L72.6467 192.959L72.9131 193.421L72.1959 193.682C72.0155 193.747 71.8836 193.836 71.8002 193.947C71.7213 194.056 71.6898 194.185 71.7055 194.336C71.7213 194.486 71.7844 194.657 71.8948 194.848L73.0324 196.818L72.4641 197.025L70.5561 193.72L70.9891 193.563ZM70.874 193.605L71.1404 194.066L69.8888 194.522L69.6224 194.06L70.874 193.605ZM73.9365 195.931L74.2029 196.392L71.5304 197.365L71.264 196.903L73.9365 195.931ZM77.7184 195.113L77.2468 194.296L77.3541 194.34C77.4493 194.637 77.4328 194.892 77.3045 195.105C77.1763 195.317 76.97 195.476 76.6859 195.579C76.3025 195.719 75.9398 195.71 75.598 195.552C75.2582 195.389 74.9827 195.125 74.7715 194.759L73.5439 192.633L74.119 192.423L75.2566 194.394C75.439 194.71 75.6344 194.925 75.8429 195.041C76.0514 195.156 76.2842 195.167 76.5413 195.073C76.8254 194.97 77.0041 194.807 77.0774 194.584C77.1483 194.357 77.0962 194.092 76.921 193.788L75.7834 191.818L76.3517 191.611L78.2597 194.916L77.7184 195.113ZM78.027 191.001L78.54 191.833L78.426 191.792C78.326 191.486 78.3389 191.225 78.4648 191.008C78.5951 190.789 78.8069 190.627 79.1001 190.52C79.4925 190.377 79.8597 190.384 80.2016 190.542C80.5435 190.699 80.8212 190.962 81.0348 191.332L82.2624 193.459L81.6941 193.666L80.5529 191.689C80.3729 191.377 80.1764 191.164 79.9634 191.051C79.7549 190.936 79.5176 190.926 79.2515 191.023C78.9583 191.13 78.774 191.298 78.6986 191.526C78.6253 191.749 78.6751 192.01 78.8479 192.31L79.9891 194.286L79.4208 194.493L77.5128 191.188L78.027 191.001ZM84.5645 189.95L84.8453 190.436L82.6125 191.249L82.3317 190.762L84.5645 189.95ZM85.2613 188.609C85.148 188.319 85.1045 188.04 85.131 187.774C85.155 187.504 85.254 187.264 85.428 187.055C85.6041 186.84 85.8477 186.676 86.159 186.562C86.4476 186.457 86.7382 186.417 87.0306 186.441C87.3276 186.464 87.5979 186.549 87.8415 186.697C88.0827 186.841 88.2717 187.031 88.4085 187.268C88.5789 187.563 88.6208 187.867 88.5341 188.18C88.452 188.492 88.2719 188.842 87.9937 189.23C87.7981 189.477 87.6222 189.777 87.4661 190.131C87.31 190.485 87.2839 190.761 87.3876 190.959L90.0331 189.997L90.3355 190.52L86.9661 191.747C86.7477 191.368 86.6384 191.018 86.6381 190.697C86.6424 190.373 86.7048 190.089 86.8253 189.844C86.9458 189.599 87.1254 189.309 87.3642 188.976L87.4956 188.792L87.538 188.724C87.7018 188.478 87.808 188.251 87.8566 188.042C87.9098 187.832 87.8907 187.647 87.7995 187.489C87.7179 187.348 87.6064 187.235 87.4649 187.151C87.3234 187.067 87.1648 187.019 86.989 187.007C86.8131 186.996 86.6373 187.022 86.4614 187.086C86.1727 187.191 85.9782 187.36 85.8778 187.593C85.7775 187.825 85.7821 188.103 85.8918 188.425L85.2613 188.609ZM91.6009 185.457L91.5258 189.34L90.9642 189.545L91.0393 185.661L91.6009 185.457ZM92.6231 189.808C92.2758 189.935 91.9196 189.951 91.5545 189.858C91.1894 189.764 90.8373 189.571 90.4983 189.276C90.1614 188.976 89.8573 188.592 89.5861 188.122C89.3125 187.648 89.1426 187.212 89.0763 186.813C89.0145 186.413 89.0582 186.073 89.2073 185.792C89.3564 185.512 89.6046 185.308 89.9519 185.182C90.2992 185.055 90.6554 185.039 91.0205 185.132C91.3856 185.226 91.7366 185.423 92.0736 185.723C92.415 186.021 92.7225 186.407 92.9961 186.881C93.2673 187.351 93.4338 187.785 93.4956 188.186C93.5595 188.58 93.5168 188.917 93.3677 189.198C93.2186 189.479 92.9704 189.682 92.6231 189.808ZM92.3207 189.285C92.5417 189.204 92.6914 189.062 92.7698 188.857C92.8527 188.651 92.8625 188.398 92.7991 188.099C92.7333 187.796 92.596 187.464 92.3872 187.102C92.176 186.737 91.9473 186.435 91.7011 186.198C91.4549 185.96 91.2063 185.799 90.9554 185.715C90.709 185.628 90.4753 185.625 90.2543 185.706C90.0333 185.786 89.8814 185.929 89.7985 186.136C89.7201 186.34 89.7138 186.594 89.7796 186.897C89.8454 187.2 89.9839 187.534 90.1951 187.9C90.4039 188.262 90.6314 188.561 90.8776 188.799C91.1214 189.032 91.3665 189.192 91.6129 189.278C91.8638 189.363 92.0997 189.365 92.3207 189.285ZM93.1043 185.755C92.991 185.464 92.9476 185.186 92.974 184.919C92.9981 184.649 93.0971 184.409 93.271 184.2C93.4471 183.985 93.6908 183.821 94.002 183.708C94.2907 183.603 94.5812 183.562 94.8737 183.587C95.1706 183.609 95.4409 183.695 95.6845 183.842C95.9257 183.986 96.1147 184.176 96.2515 184.413C96.4219 184.708 96.4638 185.013 96.3772 185.326C96.2951 185.637 96.1149 185.987 95.8368 186.375C95.6411 186.622 95.4652 186.923 95.3091 187.276C95.153 187.63 95.1269 187.906 95.2307 188.105L97.8761 187.142L98.1785 187.666L94.8091 188.892C94.5907 188.514 94.4814 188.164 94.4812 187.842C94.4854 187.518 94.5478 187.234 94.6683 186.989C94.7888 186.744 94.9684 186.455 95.2072 186.121L95.3386 185.938L95.381 185.869C95.5448 185.624 95.651 185.396 95.6997 185.188C95.7528 184.977 95.7338 184.793 95.6426 184.635C95.561 184.493 95.4494 184.381 95.308 184.296C95.1665 184.212 95.0078 184.164 94.832 184.153C94.6562 184.141 94.4803 184.167 94.3044 184.231C94.0157 184.337 93.8212 184.505 93.7209 184.738C93.6205 184.971 93.6252 185.248 93.7348 185.571L93.1043 185.755ZM99.521 183.019C99.3432 182.863 99.1456 182.766 98.928 182.73C98.7125 182.687 98.4943 182.706 98.2733 182.787C97.8854 182.928 97.6757 183.203 97.6443 183.612C97.615 184.015 97.7653 184.521 98.0953 185.131L97.9658 185.147C97.9178 184.828 97.9679 184.551 98.116 184.316C98.2663 184.075 98.4948 183.899 98.8015 183.787C99.1127 183.674 99.4262 183.64 99.7421 183.686C100.06 183.726 100.353 183.841 100.62 184.03C100.89 184.214 101.111 184.455 101.284 184.755C101.467 185.07 101.554 185.373 101.547 185.663C101.543 185.951 101.451 186.206 101.268 186.428C101.085 186.651 100.829 186.822 100.5 186.942C100.279 187.022 100.045 187.062 99.7992 187.061C99.5506 187.056 99.2973 187.004 99.0392 186.907C98.7742 186.808 98.5209 186.638 98.2792 186.399C98.0351 186.156 97.8122 185.86 97.6106 185.511C97.337 185.037 97.1472 184.585 97.0413 184.156C96.9399 183.725 96.9596 183.343 97.1003 183.01C97.2386 182.673 97.5266 182.425 97.9641 182.266C98.334 182.131 98.707 182.106 99.0832 182.19C99.4616 182.269 99.8021 182.457 100.105 182.754L99.521 183.019ZM98.5238 185.759C98.6345 185.96 98.7817 186.126 98.9655 186.255C99.147 186.38 99.3475 186.458 99.5672 186.489C99.7845 186.515 99.9991 186.49 100.211 186.413C100.419 186.337 100.578 186.226 100.69 186.08C100.8 185.929 100.854 185.759 100.853 185.568C100.85 185.373 100.791 185.176 100.675 184.976C100.563 184.781 100.419 184.622 100.244 184.499C100.067 184.372 99.8761 184.296 99.6702 184.271C99.4664 184.239 99.2653 184.259 99.0669 184.332C98.8504 184.41 98.6816 184.525 98.5606 184.674C98.4417 184.818 98.3783 184.987 98.3702 185.181C98.3598 185.371 98.411 185.564 98.5238 185.759ZM104.172 182.813L104.453 183.299L102.22 184.112L101.939 183.626L104.172 182.813ZM109.702 182.838L110.004 183.362L106.614 184.595L106.312 184.072L109.702 182.838ZM105.307 180.544C105.564 180.45 105.72 180.328 105.775 180.177C105.83 180.027 105.787 179.831 105.648 179.59L106.102 179.425L108.658 183.852L108.076 184.063L106.182 180.784L104.991 181.217L104.725 180.756L105.307 180.544ZM113.623 181.411L113.925 181.934L110.536 183.168L110.233 182.644L113.623 181.411ZM109.228 179.117C109.485 179.023 109.641 178.901 109.696 178.75C109.751 178.599 109.709 178.403 109.57 178.162L110.023 177.997L112.579 182.424L111.997 182.636L110.104 179.356L108.913 179.79L108.646 179.328L109.228 179.117ZM115.937 178.531L116.217 179.018L113.985 179.83L113.704 179.344L115.937 178.531ZM121.466 178.556L121.768 179.08L118.379 180.313L118.076 179.79L121.466 178.556ZM117.071 176.262C117.328 176.168 117.484 176.046 117.539 175.895C117.594 175.745 117.552 175.549 117.413 175.308L117.866 175.143L120.422 179.57L119.84 179.782L117.947 176.502L116.756 176.935L116.489 176.474L117.071 176.262ZM123.168 173.213L123.459 173.718C123.298 174.506 123.261 175.284 123.349 176.052C123.438 176.82 123.681 177.548 124.08 178.238L123.471 178.46C123.07 177.766 122.822 177.039 122.727 176.278C122.632 175.518 122.668 174.748 122.834 173.968L120.067 174.975L119.765 174.452L123.168 173.213ZM127.358 172.322L125.896 172.854L128.15 176.757L127.568 176.969L125.315 173.065L123.853 173.597L123.551 173.074L127.055 171.798L127.358 172.322ZM133.231 174.274L133.533 174.798L130.143 176.031L129.841 175.508L133.231 174.274ZM128.836 171.98C129.093 171.886 129.249 171.764 129.304 171.613C129.359 171.463 129.317 171.267 129.177 171.026L129.631 170.861L132.187 175.288L131.605 175.5L129.711 172.22L128.52 172.653L128.254 172.192L128.836 171.98ZM136.133 172.116L136.681 171.917L136.983 172.44L136.435 172.64L136.961 173.55L136.379 173.762L135.853 172.852L133.37 173.755L133.068 173.232L133.782 169.35L134.405 169.123L136.133 172.116ZM135.551 172.328L134.298 170.158L133.778 172.973L135.551 172.328ZM139.609 171.719L140.023 172.436L139.225 172.726L138.811 172.009L139.609 171.719ZM138.338 169.517L138.752 170.235L137.954 170.525L137.54 169.808L138.338 169.517ZM141.996 168.556C142.161 168.501 142.301 168.422 142.417 168.32C142.534 168.212 142.606 168.085 142.631 167.94C142.659 167.789 142.621 167.624 142.518 167.445C142.443 167.317 142.341 167.22 142.212 167.157C142.085 167.087 141.934 167.054 141.761 167.057C141.586 167.055 141.396 167.091 141.193 167.165C140.945 167.256 140.768 167.383 140.661 167.548C140.559 167.711 140.543 167.887 140.615 168.078L139.984 168.262C139.894 168.048 139.872 167.835 139.918 167.622C139.969 167.407 140.078 167.214 140.246 167.042C140.414 166.87 140.629 166.737 140.891 166.642C141.198 166.53 141.497 166.481 141.789 166.496C142.084 166.504 142.346 166.572 142.578 166.699C142.814 166.824 142.997 166.999 143.127 167.224C143.29 167.506 143.329 167.769 143.245 168.011C143.163 168.247 142.958 168.462 142.628 168.658L142.574 168.549C142.871 168.497 143.144 168.493 143.394 168.538C143.648 168.581 143.872 168.67 144.065 168.806C144.256 168.938 144.412 169.11 144.535 169.322C144.681 169.576 144.74 169.828 144.711 170.081C144.681 170.333 144.566 170.563 144.365 170.772C144.168 170.98 143.9 171.145 143.562 171.268C143.246 171.383 142.932 171.435 142.62 171.423C142.309 171.405 142.026 171.329 141.769 171.197C141.512 171.064 141.307 170.879 141.154 170.643L141.735 170.386C141.906 170.626 142.135 170.772 142.421 170.823C142.71 170.869 142.989 170.843 143.26 170.744C143.49 170.661 143.669 170.555 143.798 170.428C143.928 170.295 144.003 170.15 144.021 169.992C144.044 169.833 144.006 169.668 143.907 169.498C143.806 169.323 143.673 169.191 143.506 169.1C143.341 169.004 143.154 168.954 142.944 168.95C142.739 168.944 142.523 168.985 142.295 169.073L141.933 169.213L141.627 168.683L141.996 168.556ZM147.897 167.834L148.445 167.635L148.748 168.158L148.2 168.358L148.725 169.268L148.143 169.48L147.618 168.57L145.135 169.473L144.832 168.95L145.547 165.068L146.169 164.841L147.897 167.834ZM147.315 168.046L146.062 165.876L145.543 168.691L147.315 168.046ZM151.373 167.437L151.787 168.154L150.989 168.444L150.575 167.727L151.373 167.437ZM150.103 165.236L150.517 165.953L149.718 166.243L149.304 165.526L150.103 165.236ZM151.927 164.345C151.814 164.054 151.77 163.776 151.797 163.51C151.821 163.239 151.92 163 152.094 162.79C152.27 162.575 152.513 162.411 152.825 162.298C153.113 162.193 153.404 162.153 153.696 162.177C153.993 162.2 154.264 162.285 154.507 162.433C154.748 162.576 154.937 162.767 155.074 163.003C155.245 163.299 155.286 163.603 155.2 163.916C155.118 164.228 154.938 164.577 154.659 164.965C154.464 165.213 154.288 165.513 154.132 165.867C153.976 166.22 153.95 166.496 154.053 166.695L156.699 165.732L157.001 166.256L153.632 167.482C153.413 167.104 153.304 166.754 153.304 166.432C153.308 166.109 153.371 165.824 153.491 165.579C153.612 165.334 153.791 165.045 154.03 164.712L154.161 164.528L154.204 164.46C154.368 164.214 154.474 163.987 154.522 163.778C154.576 163.567 154.556 163.383 154.465 163.225C154.384 163.084 154.272 162.971 154.131 162.887C153.989 162.802 153.831 162.754 153.655 162.743C153.479 162.731 153.303 162.758 153.127 162.822C152.838 162.927 152.644 163.096 152.544 163.328C152.443 163.561 152.448 163.839 152.558 164.161L151.927 164.345ZM159.662 163.552L160.21 163.353L160.512 163.876L159.964 164.076L160.49 164.986L159.908 165.198L159.382 164.288L156.899 165.191L156.597 164.668L157.311 160.786L157.934 160.559L159.662 163.552ZM159.08 163.764L157.827 161.594L157.307 164.409L159.08 163.764ZM163.138 163.155L163.552 163.872L162.754 164.162L162.34 163.445L163.138 163.155ZM166.304 157.512L166.596 158.018C166.434 158.806 166.398 159.584 166.486 160.351C166.575 161.119 166.818 161.848 167.216 162.538L166.607 162.76C166.207 162.065 165.959 161.338 165.864 160.578C165.769 159.818 165.804 159.048 165.971 158.268L163.204 159.275L162.901 158.751L166.304 157.512ZM169.327 160.57C169.505 160.727 169.702 160.826 169.917 160.868C170.135 160.905 170.354 160.883 170.575 160.802C170.963 160.661 171.172 160.389 171.201 159.986C171.232 159.577 171.083 159.068 170.753 158.459L170.883 158.442C170.931 158.761 170.879 159.042 170.729 159.282C170.581 159.518 170.354 159.691 170.047 159.802C169.736 159.916 169.421 159.952 169.103 159.912C168.787 159.866 168.494 159.751 168.225 159.568C167.957 159.378 167.737 159.134 167.564 158.835C167.382 158.519 167.292 158.217 167.295 157.929C167.303 157.64 167.398 157.384 167.58 157.161C167.763 156.939 168.019 156.768 168.348 156.648C168.569 156.567 168.804 156.53 169.053 156.535C169.299 156.536 169.551 156.585 169.809 156.682C170.074 156.782 170.329 156.953 170.573 157.196C170.815 157.435 171.036 157.73 171.238 158.079C171.511 158.553 171.699 159.005 171.8 159.436C171.906 159.865 171.89 160.248 171.752 160.585C171.611 160.918 171.322 161.164 170.884 161.324C170.514 161.458 170.14 161.486 169.762 161.408C169.386 161.323 169.046 161.133 168.744 160.835L169.327 160.57ZM170.325 157.83C170.214 157.629 170.068 157.466 169.886 157.341C169.703 157.211 169.502 157.133 169.285 157.107C169.065 157.076 168.849 157.099 168.637 157.177C168.43 157.252 168.271 157.365 168.162 157.516C168.05 157.662 167.995 157.833 167.999 158.028C168 158.218 168.058 158.414 168.173 158.613C168.286 158.809 168.431 158.97 168.608 159.096C168.782 159.219 168.971 159.296 169.175 159.328C169.381 159.353 169.583 159.33 169.781 159.258C169.998 159.179 170.166 159.068 170.285 158.924C170.406 158.774 170.471 158.604 170.482 158.414C170.49 158.22 170.437 158.025 170.325 157.83ZM173.249 159.143C173.427 159.299 173.623 159.399 173.839 159.441C174.056 159.478 174.276 159.456 174.497 159.375C174.885 159.234 175.093 158.962 175.122 158.559C175.154 158.15 175.005 157.641 174.675 157.032L174.804 157.015C174.852 157.334 174.801 157.614 174.651 157.855C174.503 158.09 174.275 158.264 173.968 158.375C173.657 158.488 173.343 158.525 173.025 158.485C172.709 158.439 172.416 158.324 172.146 158.14C171.879 157.951 171.658 157.707 171.486 157.407C171.303 157.092 171.214 156.79 171.217 156.502C171.224 156.212 171.319 155.956 171.502 155.734C171.685 155.512 171.941 155.34 172.27 155.221C172.491 155.14 172.726 155.102 172.974 155.108C173.22 155.108 173.473 155.158 173.731 155.255C173.996 155.355 174.25 155.526 174.494 155.769C174.736 156.008 174.958 156.302 175.159 156.651C175.433 157.125 175.62 157.578 175.722 158.009C175.828 158.438 175.812 158.821 175.673 159.158C175.532 159.491 175.243 159.737 174.806 159.896C174.436 160.031 174.062 160.059 173.683 159.98C173.307 159.896 172.968 159.705 172.665 159.408L173.249 159.143ZM174.246 156.403C174.135 156.202 173.989 156.038 173.808 155.913C173.624 155.784 173.424 155.706 173.206 155.68C172.987 155.649 172.771 155.672 172.559 155.749C172.351 155.825 172.193 155.938 172.083 156.088C171.971 156.235 171.917 156.405 171.92 156.6C171.921 156.791 171.979 156.986 172.095 157.186C172.207 157.381 172.352 157.542 172.529 157.669C172.704 157.792 172.893 157.869 173.096 157.9C173.302 157.926 173.505 157.903 173.703 157.83C173.92 157.752 174.087 157.64 174.206 157.496C174.327 157.347 174.393 157.177 174.403 156.987C174.411 156.793 174.359 156.598 174.246 156.403ZM177.535 158.148L180.221 157.171L180.524 157.695L177.147 158.923L176.827 158.368L177.539 154.057L175.009 154.978L174.706 154.454L177.913 153.287L178.248 153.867L177.535 158.148Z" fill="#A7A7A0"/>
<line y1="-0.4" x2="191.725" y2="-0.4" transform="matrix(-0.939693 0.34202 -0.5 -0.866025 240.336 113.382)" stroke="#CFCFC9" stroke-width="0.8"/>
<line y1="-0.4" x2="191.725" y2="-0.4" transform="matrix(-0.939693 0.34202 -0.5 -0.866025 224.25 85.5205)" stroke="#CFCFC9" stroke-width="0.8"/>
<line y1="-0.4" x2="191.725" y2="-0.4" transform="matrix(-0.939693 0.34202 -0.5 -0.866025 208.301 57.8965)" stroke="#CFCFC9" stroke-width="0.8"/>
<line opacity="0.2" y1="-0.4" x2="191.725" y2="-0.4" transform="matrix(-0.939693 0.34202 -0.5 -0.866025 192.215 30.0342)" stroke="#CFCFC9" stroke-width="0.8"/>
<line opacity="0.5" y1="-0.4" x2="191.725" y2="-0.4" transform="matrix(-0.939693 0.34202 -0.5 -0.866025 200.187 43.8428)" stroke="#CFCFC9" stroke-width="0.8" stroke-dasharray="3.2 3.2"/>
<line y1="-0.4" x2="191.725" y2="-0.4" transform="matrix(-0.939693 0.34202 -0.5 -0.866025 216.34 71.8193)" stroke="#CFCFC9" stroke-width="0.8" stroke-dasharray="3.2 3.2"/>
<line y1="-0.4" x2="191.725" y2="-0.4" transform="matrix(-0.939693 0.34202 -0.5 -0.866025 232.284 99.4355)" stroke="#CFCFC9" stroke-width="0.8" stroke-dasharray="3.2 3.2"/>
<path d="M16.2773 103.135L25.0345 108.751L40.8686 110.533L51.2562 117.17L53.5565 104.121L64.2628 87.7453L66.492 82.0939L99.4008 77.9107L121.353 81.2391L132.364 89.3885L150.335 110.266L158.546 113.118L165.148 110.716L179.331 117.987L198.221 119.077L202.491 119.619L213.012 115.789L222.958 109.235L226.647 95.7352L223.491 87.2422L225.76 86.4162" stroke="url(#paint0_linear_4481_13957)" stroke-width="0.8" stroke-linejoin="round"/>
<path d="M39.9142 126.76L30.6896 128.098L60.4771 179.691L241.65 113.75L211.862 62.1562L212.532 68.0724L219.38 82.9598L217.238 99.1393L200.959 94.7245L187.381 93.2584L172.511 90.8514L164.346 91.8432L161.237 103.754L133.638 91.4066L127.627 96.5619L106.644 86.5927L99.3046 99.8239L93.9536 110.013L94.1916 122.532L98.5818 137.487L96.3525 143.138L69.1989 119.023L62.0785 118.693L55.9426 136.454L39.9142 126.76Z" fill="url(#pattern1_4481_13957)" fill-opacity="0.2"/>
<path d="M30.6896 128.098L39.9142 126.76L55.9426 136.454L62.0785 118.693L69.1989 119.023L96.3525 143.138L98.5818 137.487L94.1916 122.532L93.9536 110.013L99.3046 99.8239L106.644 86.5927L127.627 96.5619L133.638 91.4066L161.237 103.754L164.346 91.8432L172.511 90.8514L187.381 93.2584L200.959 94.7245L217.238 99.1393L219.38 82.9598L212.532 68.0724L211.862 62.1562" stroke="url(#paint1_linear_4481_13957)" stroke-width="0.8" stroke-linejoin="round"/>
<rect width="115.2" height="163.2" transform="matrix(0.939693 -0.34202 0.5 0.866025 70.4526 39.4004)" fill="url(#paint2_linear_4481_13957)"/>
<rect width="27.2" height="163.2" transform="matrix(0.939693 -0.34202 0.5 0.866025 -37.8 78.8008)" fill="url(#paint3_linear_4481_13957)"/>
<g filter="url(#filter1_dddd_4481_13957)">
<rect width="28.8" height="10.8" transform="matrix(0.939693 -0.34202 0.5 0.866025 24.4773 117.338)" fill="#333333"/>
<path d="M32.7012 120.08C32.5387 119.893 32.3276 119.774 32.0678 119.723C31.8081 119.672 31.5479 119.694 31.2873 119.789C31.0667 119.87 30.9056 119.99 30.8039 120.15C30.7072 120.308 30.7134 120.476 30.8224 120.654C30.9157 120.816 31.0552 120.911 31.2409 120.938C31.4289 120.959 31.6769 120.953 31.9848 120.919L32.1136 120.905C32.472 120.864 32.7791 120.845 33.0349 120.847C33.2958 120.847 33.5377 120.893 33.7607 120.985C33.986 121.071 34.1614 121.222 34.2867 121.439C34.4814 121.776 34.4752 122.086 34.2681 122.368C34.0661 122.649 33.7496 122.867 33.3186 123.024C33.0129 123.135 32.7029 123.187 32.3886 123.178C32.0743 123.169 31.7837 123.102 31.5167 122.976C31.252 122.843 31.0401 122.654 30.8811 122.41L31.5111 122.131C31.6215 122.27 31.7563 122.377 31.9155 122.453C32.0771 122.523 32.2504 122.56 32.4354 122.566C32.6254 122.569 32.8131 122.537 32.9986 122.47C33.2492 122.379 33.4383 122.265 33.566 122.129C33.6911 121.989 33.7016 121.828 33.5976 121.648C33.5336 121.537 33.4429 121.464 33.3254 121.429C33.2102 121.387 33.0881 121.37 32.9592 121.377C32.8276 121.381 32.6584 121.397 32.4517 121.428L32.2928 121.452C31.7781 121.517 31.3401 121.52 30.9788 121.461C30.6175 121.403 30.3502 121.223 30.1769 120.923C30.0382 120.683 29.9872 120.453 30.0238 120.232C30.0628 120.006 30.1709 119.804 30.3481 119.628C30.5303 119.45 30.7593 119.311 31.0349 119.21C31.4509 119.059 31.8669 119.039 32.2829 119.15C32.6962 119.257 33.0381 119.476 33.3086 119.808L32.7012 120.08ZM34.726 120.189C34.5047 119.806 34.3852 119.441 34.3675 119.096C34.3499 118.75 34.4336 118.449 34.6185 118.191C34.8035 117.934 35.0789 117.739 35.4448 117.605C35.7505 117.494 36.066 117.458 36.3912 117.496C36.7215 117.532 37.0468 117.659 37.3672 117.878C37.6849 118.092 37.9738 118.404 38.2338 118.812L38.3933 119.073L35.5066 120.123C35.7476 120.488 36.0284 120.738 36.3489 120.873C36.6693 121.008 37 121.013 37.3408 120.889C37.5563 120.811 37.7211 120.687 37.8351 120.517C37.9516 120.34 37.9989 120.138 37.9771 119.912L38.6817 119.714C38.7637 120.098 38.7106 120.447 38.5222 120.761C38.3338 121.076 38.0467 121.303 37.6608 121.444C37.2949 121.577 36.9288 121.615 36.5625 121.558C36.1962 121.502 35.8539 121.355 35.5355 121.119C35.2172 120.883 34.9473 120.573 34.726 120.189ZM37.4057 118.812C37.1426 118.471 36.8691 118.255 36.5854 118.163C36.3039 118.064 36.0304 118.063 35.7648 118.16C35.449 118.275 35.2454 118.458 35.154 118.709C35.0625 118.96 35.0839 119.26 35.2181 119.608L37.4057 118.812ZM39.2148 115.16L41.3108 118.79C41.4015 118.947 41.5173 119.053 41.6582 119.108C41.799 119.163 41.9522 119.161 42.1175 119.1L43.185 118.712L43.481 119.225L42.4135 119.613C42.0226 119.755 41.6813 119.773 41.3895 119.667C41.1001 119.555 40.8634 119.339 40.6794 119.02L38.5834 115.39L39.2148 115.16ZM41.3686 115.55L41.6646 116.063L38.2967 117.288L38.0007 116.776L41.3686 115.55ZM47.3408 111.867L48.2128 111.55L52.6766 115.878L52.0151 116.118L48.0768 112.228L49.2186 117.136L48.557 117.377L47.3408 111.867ZM48.5684 115.679L48.482 115.057L50.5117 114.318L51.0492 114.776L48.5684 115.679Z" fill="#F6F6F3"/>
</g>
<rect width="28.8" height="10.8" transform="matrix(0.939693 -0.34202 0.5 0.866025 9.67725 91.7031)" fill="#E5E5E1"/>
<path d="M17.9011 94.4448C17.7387 94.258 17.5276 94.1392 17.2678 94.0884C17.008 94.0377 16.7478 94.0597 16.4872 94.1546C16.2667 94.2348 16.1056 94.3549 16.0039 94.5149C15.9072 94.6731 15.9133 94.8413 16.0223 95.0196C16.1157 95.1813 16.2552 95.2758 16.4408 95.3033C16.6288 95.3243 16.8768 95.3179 17.1848 95.284L17.3136 95.2707C17.672 95.2297 17.9791 95.2101 18.2349 95.212C18.4957 95.2121 18.7377 95.2582 18.9606 95.3503C19.186 95.436 19.3613 95.5874 19.4867 95.8045C19.6813 96.1416 19.6751 96.4513 19.4681 96.7335C19.266 97.0138 18.9495 97.2324 18.5185 97.3893C18.2128 97.5006 17.9028 97.5519 17.5886 97.5433C17.2743 97.5347 16.9836 97.4672 16.7166 97.3409C16.4519 97.208 16.24 97.0197 16.081 96.7757L16.711 96.4961C16.8214 96.6348 16.9562 96.7422 17.1155 96.8184C17.277 96.8882 17.4503 96.9257 17.6353 96.931C17.8254 96.9345 18.0131 96.9025 18.1985 96.835C18.4491 96.7438 18.6383 96.6303 18.766 96.4943C18.8911 96.3538 18.9016 96.1935 18.7976 96.0133C18.7336 95.9025 18.6428 95.8293 18.5253 95.7938C18.4101 95.7519 18.2881 95.7349 18.1592 95.7427C18.0276 95.7458 17.8584 95.7627 17.6516 95.7932L17.4928 95.8175C16.9781 95.8819 16.5401 95.8848 16.1788 95.8263C15.8175 95.7677 15.5501 95.5884 15.3768 95.2881C15.2381 95.048 15.1871 94.8178 15.2238 94.5976C15.2628 94.3711 15.3709 94.1696 15.5481 93.9933C15.7303 93.8152 15.9592 93.676 16.2349 93.5757C16.6508 93.4243 17.0668 93.4042 17.4828 93.5155C17.8962 93.6222 18.2381 93.8415 18.5086 94.1734L17.9011 94.4448ZM19.926 94.5546C19.7046 94.1713 19.5851 93.8067 19.5675 93.461C19.5498 93.1153 19.6335 92.8138 19.8185 92.5564C20.0035 92.299 20.2789 92.1038 20.6447 91.9706C20.9504 91.8594 21.2659 91.8228 21.5912 91.8609C21.9214 91.8972 22.2468 92.0247 22.5671 92.2435C22.8848 92.4576 23.1737 92.7689 23.4338 93.1773L23.5933 93.4378L20.7065 94.4885C20.9476 94.8535 21.2284 95.1034 21.5488 95.2383C21.8693 95.3732 22.1999 95.3786 22.5407 95.2546C22.7562 95.1762 22.921 95.0519 23.0351 94.8818C23.1515 94.7053 23.1988 94.5036 23.177 94.2768L23.8816 94.0791C23.9637 94.4628 23.9105 94.8119 23.7221 95.1264C23.5338 95.4409 23.2466 95.6684 22.8607 95.8089C22.4949 95.942 22.1288 95.9802 21.7625 95.9235C21.3962 95.8668 21.0538 95.7203 20.7355 95.4841C20.4171 95.2478 20.1473 94.938 19.926 94.5546ZM22.6057 93.1769C22.3425 92.8367 22.0691 92.6204 21.7853 92.528C21.5039 92.4293 21.2303 92.4282 20.9647 92.5249C20.649 92.6398 20.4454 92.8229 20.3539 93.0742C20.2625 93.3254 20.2839 93.6251 20.4181 93.9731L22.6057 93.1769ZM24.4148 89.5253L26.5108 93.1557C26.6015 93.3127 26.7172 93.4187 26.8581 93.4736C26.999 93.5285 27.1521 93.5259 27.3175 93.4657L28.385 93.0772L28.681 93.5898L27.6135 93.9784C27.2226 94.1207 26.8812 94.1387 26.5895 94.0325C26.3 93.9199 26.0633 93.7042 25.8793 93.3855L23.7833 89.7551L24.4148 89.5253ZM26.5685 89.9152L26.8645 90.4278L23.4966 91.6536L23.2006 91.141L26.5685 89.9152ZM31.3079 86.681L32.7888 86.142C33.3953 85.9213 33.9293 85.8694 34.3911 85.9864C34.8529 86.1034 35.2104 86.3813 35.4637 86.8201C35.5784 87.0187 35.6285 87.2157 35.6139 87.411C35.5993 87.6064 35.5221 87.7826 35.3823 87.9396C35.2476 88.0949 35.0624 88.2154 34.8269 88.3011L34.7954 88.2623C35.2464 88.0981 35.6636 88.0748 36.0468 88.1924C36.4325 88.3036 36.7293 88.5393 36.9373 88.8996C37.1826 89.3245 37.2157 89.7233 37.0366 90.0959C36.8549 90.4639 36.4858 90.7491 35.9295 90.9516L34.1479 91.6001L31.3079 86.681ZM35.5935 90.3696C35.9444 90.2419 36.1787 90.07 36.2965 89.8539C36.4193 89.6359 36.4074 89.3999 36.2607 89.1459C36.1114 88.8872 35.8976 88.7219 35.6195 88.6498C35.3414 88.5778 35.0194 88.6083 34.6535 88.7415L33.5259 89.1519L34.4659 90.78L35.5935 90.3696ZM34.0168 88.269C34.4078 88.1267 34.6686 87.9535 34.7994 87.7494C34.9326 87.5388 34.9285 87.3111 34.7872 87.0663C34.6432 86.8169 34.4273 86.6635 34.1394 86.6062C33.8539 86.5424 33.5158 86.5817 33.1248 86.724L32.2979 87.0249L33.1899 88.5699L34.0168 88.269Z" fill="#6B6B66"/>
</g>
<defs>
<filter id="filter0_n_4481_13957" x="-37.8" y="0" width="298.105" height="220.136" filterUnits="userSpaceOnUse" color-interpolation-filters="sRGB">
<feFlood flood-opacity="0" result="BackgroundImageFix"/>
<feBlend mode="normal" in="SourceGraphic" in2="BackgroundImageFix" result="shape"/>
<feTurbulence type="fractalNoise" baseFrequency="2 2" stitchTiles="stitch" numOctaves="3" result="noise" seed="1471" />
<feColorMatrix in="noise" type="luminanceToAlpha" result="alphaNoise" />
<feComponentTransfer in="alphaNoise" result="coloredNoise1">
<feFuncA type="discrete" tableValues="0 0 0 0 1 1 1 1 1 1 1 1 1 1 1 1 1 1 1 1 1 1 1 1 1 1 1 1 1 1 1 1 1 1 1 1 1 1 1 1 1 1 1 1 1 0 0 0 0 0 0 0 0 0 0 0 0 0 0 0 0 0 0 0 0 0 0 0 0 0 0 0 0 0 0 0 0 0 0 0 0 0 0 0 0 0 0 0 0 0 0 0 0 0 0 0 0 0 0 0 "/>
</feComponentTransfer>
<feComposite operator="in" in2="shape" in="coloredNoise1" result="noise1Clipped" />
<feFlood flood-color="rgba(207, 207, 201, 0.15)" result="color1Flood" />
<feComposite operator="in" in2="noise1Clipped" in="color1Flood" result="color1" />
<feMerge result="effect1_noise_4481_13957">
<feMergeNode in="shape" />
<feMergeNode in="color1" />
</feMerge>
</filter>
<filter id="filter1_dddd_4481_13957" x="-151.523" y="73.8873" width="384.463" height="668.004" filterUnits="userSpaceOnUse" color-interpolation-filters="sRGB">
<feFlood flood-opacity="0" result="BackgroundImageFix"/>
<feColorMatrix in="SourceAlpha" type="matrix" values="0 0 0 0 0 0 0 0 0 0 0 0 0 0 0 0 0 0 127 0" result="hardAlpha"/>
<feOffset dy="27.2"/>
<feGaussianBlur stdDeviation="30.4"/>
<feColorMatrix type="matrix" values="0 0 0 0 0 0 0 0 0 0 0 0 0 0 0 0 0 0 0.1 0"/>
<feBlend mode="normal" in2="BackgroundImageFix" result="effect1_dropShadow_4481_13957"/>
<feColorMatrix in="SourceAlpha" type="matrix" values="0 0 0 0 0 0 0 0 0 0 0 0 0 0 0 0 0 0 127 0" result="hardAlpha"/>
<feOffset dy="109.6"/>
<feGaussianBlur stdDeviation="54.8"/>
<feColorMatrix type="matrix" values="0 0 0 0 0 0 0 0 0 0 0 0 0 0 0 0 0 0 0.09 0"/>
<feBlend mode="normal" in2="effect1_dropShadow_4481_13957" result="effect2_dropShadow_4481_13957"/>
<feColorMatrix in="SourceAlpha" type="matrix" values="0 0 0 0 0 0 0 0 0 0 0 0 0 0 0 0 0 0 127 0" result="hardAlpha"/>
<feOffset dy="247.2"/>
<feGaussianBlur stdDeviation="74"/>
<feColorMatrix type="matrix" values="0 0 0 0 0 0 0 0 0 0 0 0 0 0 0 0 0 0 0.05 0"/>
<feBlend mode="normal" in2="effect2_dropShadow_4481_13957" result="effect3_dropShadow_4481_13957"/>
<feColorMatrix in="SourceAlpha" type="matrix" values="0 0 0 0 0 0 0 0 0 0 0 0 0 0 0 0 0 0 127 0" result="hardAlpha"/>
<feOffset dy="439.2"/>
<feGaussianBlur stdDeviation="88"/>
<feColorMatrix type="matrix" values="0 0 0 0 0 0 0 0 0 0 0 0 0 0 0 0 0 0 0.01 0"/>
<feBlend mode="normal" in2="effect3_dropShadow_4481_13957" result="effect4_dropShadow_4481_13957"/>
<feBlend mode="normal" in="SourceGraphic" in2="effect4_dropShadow_4481_13957" result="shape"/>
</filter>
<linearGradient id="paint0_linear_4481_13957" x1="29.029" y1="123.646" x2="192.78" y2="29.1042" gradientUnits="userSpaceOnUse">
<stop stop-color="#CFCFC9"/>
<stop offset="1" stop-color="#CFCFC9" stop-opacity="0.2"/>
</linearGradient>
<linearGradient id="paint1_linear_4481_13957" x1="36.6723" y1="138.46" x2="201.105" y2="43.5246" gradientUnits="userSpaceOnUse">
<stop stop-color="#404039"/>
<stop offset="1" stop-color="#404039" stop-opacity="0.2"/>
</linearGradient>
<linearGradient id="paint2_linear_4481_13957" x1="70.8" y1="81.6" x2="0" y2="81.6" gradientUnits="userSpaceOnUse">
<stop stop-color="#F6F6F3"/>
<stop offset="1" stop-color="#F6F6F3" stop-opacity="0"/>
</linearGradient>
<linearGradient id="paint3_linear_4481_13957" x1="16.7167" y1="81.6" x2="0" y2="81.6" gradientUnits="userSpaceOnUse">
<stop stop-color="#F6F6F3" stop-opacity="0"/>
<stop offset="1" stop-color="#F6F6F3"/>
</linearGradient>
<pattern id="pattern0_4481_13957" patternUnits="userSpaceOnUse" patternTransform="matrix(160 0 0 160 35.2 -1.19209e-06)" preserveAspectRatio="none" viewBox="0 0 400 400" width="1" height="1">
<g id="pattern0_4481_13957_inner">
<g clip-path="url(#clip0_4481_13957)">
<path d="M0 0V400" stroke="#EFECE2"/>
<path d="M40 0V400" stroke="#EFECE2"/>
<path d="M80 0V400" stroke="#EFECE2"/>
<path d="M120 0V400" stroke="#EFECE2"/>
<path d="M160 0V400" stroke="#EFECE2"/>
<path d="M200 0V400" stroke="#EFECE2"/>
<path d="M240 0V400" stroke="#EFECE2"/>
<path d="M280 0V400" stroke="#EFECE2"/>
<path d="M320 0V400" stroke="#EFECE2"/>
<path d="M360 0V400" stroke="#EFECE2"/>
<path d="M400 0V400" stroke="#EFECE2"/>
<path d="M0 400L400 400" stroke="#EFECE2"/>
<path d="M0 360L400 360" stroke="#EFECE2"/>
<path d="M0 320L400 320" stroke="#EFECE2"/>
<path d="M0 280L400 280" stroke="#EFECE2"/>
<path d="M0 240L400 240" stroke="#EFECE2"/>
<path d="M0 200L400 200" stroke="#EFECE2"/>
<path d="M0 160L400 160" stroke="#EFECE2"/>
<path d="M0 120L400 120" stroke="#EFECE2"/>
<path d="M0 80L400 80" stroke="#EFECE2"/>
<path d="M0 40L400 40" stroke="#EFECE2"/>
<path d="M0 0L400 -1.74846e-05" stroke="#EFECE2"/>
</g>
</g>
</pattern><pattern id="pattern1_4481_13957" patternUnits="userSpaceOnUse" patternTransform="matrix(257.1 -93.5767 37.9473 65.7267 24.0771 116.645)" preserveAspectRatio="none" viewBox="0 0 342 94.8683" width="1" height="1">
<g id="pattern1_4481_13957_inner">
<g clip-path="url(#clip1_4481_13957)">
<line x1="0.582461" y1="0.141421" x2="-94.2859" y2="95.0098" stroke="#6C6760" stroke-width="0.4"/>
<line x1="3.45079" y1="0.141421" x2="-91.4175" y2="95.0098" stroke="#6C6760" stroke-width="0.4"/>
<line x1="6.31913" y1="0.141421" x2="-88.5492" y2="95.0098" stroke="#6C6760" stroke-width="0.4"/>
<line x1="9.18744" y1="0.141421" x2="-85.6809" y2="95.0098" stroke="#6C6760" stroke-width="0.4"/>
<line x1="12.0558" y1="0.141421" x2="-82.8126" y2="95.0098" stroke="#6C6760" stroke-width="0.4"/>
<line x1="14.9241" y1="0.141421" x2="-79.9442" y2="95.0098" stroke="#6C6760" stroke-width="0.4"/>
<line x1="17.7924" y1="0.141421" x2="-77.0759" y2="95.0098" stroke="#6C6760" stroke-width="0.4"/>
<line x1="20.6607" y1="0.141421" x2="-74.2076" y2="95.0098" stroke="#6C6760" stroke-width="0.4"/>
<line x1="23.5291" y1="0.141421" x2="-71.3393" y2="95.0098" stroke="#6C6760" stroke-width="0.4"/>
<line x1="26.3974" y1="0.141421" x2="-68.4709" y2="95.0098" stroke="#6C6760" stroke-width="0.4"/>
<line x1="29.2657" y1="0.141421" x2="-65.6026" y2="95.0098" stroke="#6C6760" stroke-width="0.4"/>
<line x1="32.134" y1="0.141421" x2="-62.7343" y2="95.0098" stroke="#6C6760" stroke-width="0.4"/>
<line x1="35.0024" y1="0.141421" x2="-59.866" y2="95.0098" stroke="#6C6760" stroke-width="0.4"/>
<line x1="37.8707" y1="0.141421" x2="-56.9976" y2="95.0098" stroke="#6C6760" stroke-width="0.4"/>
<line x1="40.739" y1="0.141421" x2="-54.1293" y2="95.0098" stroke="#6C6760" stroke-width="0.4"/>
<line x1="43.6073" y1="0.141421" x2="-51.261" y2="95.0098" stroke="#6C6760" stroke-width="0.4"/>
<line x1="46.4756" y1="0.141421" x2="-48.3927" y2="95.0098" stroke="#6C6760" stroke-width="0.4"/>
<line x1="49.344" y1="0.141421" x2="-45.5243" y2="95.0098" stroke="#6C6760" stroke-width="0.4"/>
<line x1="52.2123" y1="0.141421" x2="-42.656" y2="95.0098" stroke="#6C6760" stroke-width="0.4"/>
<line x1="55.0806" y1="0.141421" x2="-39.7877" y2="95.0098" stroke="#6C6760" stroke-width="0.4"/>
<line x1="57.949" y1="0.141421" x2="-36.9194" y2="95.0098" stroke="#6C6760" stroke-width="0.4"/>
<line x1="60.8173" y1="0.141421" x2="-34.051" y2="95.0098" stroke="#6C6760" stroke-width="0.4"/>
<line x1="63.6856" y1="0.141421" x2="-31.1827" y2="95.0098" stroke="#6C6760" stroke-width="0.4"/>
<line x1="66.5539" y1="0.141421" x2="-28.3144" y2="95.0098" stroke="#6C6760" stroke-width="0.4"/>
<line x1="69.4223" y1="0.141421" x2="-25.4461" y2="95.0098" stroke="#6C6760" stroke-width="0.4"/>
<line x1="72.2906" y1="0.141421" x2="-22.5778" y2="95.0098" stroke="#6C6760" stroke-width="0.4"/>
<line x1="75.1589" y1="0.141421" x2="-19.7094" y2="95.0098" stroke="#6C6760" stroke-width="0.4"/>
<line x1="78.0272" y1="0.141421" x2="-16.8411" y2="95.0098" stroke="#6C6760" stroke-width="0.4"/>
<line x1="80.8955" y1="0.141421" x2="-13.9728" y2="95.0098" stroke="#6C6760" stroke-width="0.4"/>
<line x1="83.7639" y1="0.141421" x2="-11.1045" y2="95.0098" stroke="#6C6760" stroke-width="0.4"/>
<line x1="86.6322" y1="0.141421" x2="-8.23613" y2="95.0098" stroke="#6C6760" stroke-width="0.4"/>
<line x1="89.5005" y1="0.141421" x2="-5.36781" y2="95.0098" stroke="#6C6760" stroke-width="0.4"/>
<line x1="92.3688" y1="0.141421" x2="-2.49948" y2="95.0098" stroke="#6C6760" stroke-width="0.4"/>
<line x1="95.2372" y1="0.141421" x2="0.368843" y2="95.0098" stroke="#6C6760" stroke-width="0.4"/>
<line x1="98.1055" y1="0.141421" x2="3.23717" y2="95.0098" stroke="#6C6760" stroke-width="0.4"/>
<line x1="100.974" y1="0.141421" x2="6.10549" y2="95.0098" stroke="#6C6760" stroke-width="0.4"/>
<line x1="103.842" y1="0.141421" x2="8.97382" y2="95.0098" stroke="#6C6760" stroke-width="0.4"/>
<line x1="106.71" y1="0.141421" x2="11.8421" y2="95.0098" stroke="#6C6760" stroke-width="0.4"/>
<line x1="109.579" y1="0.141421" x2="14.7105" y2="95.0098" stroke="#6C6760" stroke-width="0.4"/>
<line x1="112.447" y1="0.141421" x2="17.5788" y2="95.0098" stroke="#6C6760" stroke-width="0.4"/>
<line x1="115.315" y1="0.141421" x2="20.4471" y2="95.0098" stroke="#6C6760" stroke-width="0.4"/>
<line x1="118.184" y1="0.141421" x2="23.3154" y2="95.0098" stroke="#6C6760" stroke-width="0.4"/>
<line x1="121.052" y1="0.141421" x2="26.1838" y2="95.0098" stroke="#6C6760" stroke-width="0.4"/>
<line x1="123.92" y1="0.141421" x2="29.0521" y2="95.0098" stroke="#6C6760" stroke-width="0.4"/>
<line x1="126.789" y1="0.141421" x2="31.9204" y2="95.0098" stroke="#6C6760" stroke-width="0.4"/>
<line x1="129.657" y1="0.141421" x2="34.7887" y2="95.0098" stroke="#6C6760" stroke-width="0.4"/>
<line x1="132.525" y1="0.141421" x2="37.6571" y2="95.0098" stroke="#6C6760" stroke-width="0.4"/>
<line x1="135.394" y1="0.141421" x2="40.5254" y2="95.0098" stroke="#6C6760" stroke-width="0.4"/>
<line x1="138.262" y1="0.141421" x2="43.3937" y2="95.0098" stroke="#6C6760" stroke-width="0.4"/>
<line x1="141.13" y1="0.141421" x2="46.262" y2="95.0098" stroke="#6C6760" stroke-width="0.4"/>
<line x1="143.999" y1="0.141421" x2="49.1304" y2="95.0098" stroke="#6C6760" stroke-width="0.4"/>
<line x1="146.867" y1="0.141421" x2="51.9987" y2="95.0098" stroke="#6C6760" stroke-width="0.4"/>
<line x1="149.735" y1="0.141421" x2="54.867" y2="95.0098" stroke="#6C6760" stroke-width="0.4"/>
<line x1="152.604" y1="0.141421" x2="57.7353" y2="95.0098" stroke="#6C6760" stroke-width="0.4"/>
<line x1="155.472" y1="0.141421" x2="60.6037" y2="95.0098" stroke="#6C6760" stroke-width="0.4"/>
<line x1="158.34" y1="0.141421" x2="63.472" y2="95.0098" stroke="#6C6760" stroke-width="0.4"/>
<line x1="161.209" y1="0.141421" x2="66.3403" y2="95.0098" stroke="#6C6760" stroke-width="0.4"/>
<line x1="164.077" y1="0.141421" x2="69.2086" y2="95.0098" stroke="#6C6760" stroke-width="0.4"/>
<line x1="166.945" y1="0.141421" x2="72.077" y2="95.0098" stroke="#6C6760" stroke-width="0.4"/>
<line x1="169.814" y1="0.141421" x2="74.9453" y2="95.0098" stroke="#6C6760" stroke-width="0.4"/>
<line x1="172.682" y1="0.141421" x2="77.8136" y2="95.0098" stroke="#6C6760" stroke-width="0.4"/>
<line x1="175.55" y1="0.141421" x2="80.6819" y2="95.0098" stroke="#6C6760" stroke-width="0.4"/>
<line x1="178.419" y1="0.141421" x2="83.5503" y2="95.0098" stroke="#6C6760" stroke-width="0.4"/>
<line x1="181.287" y1="0.141421" x2="86.4186" y2="95.0098" stroke="#6C6760" stroke-width="0.4"/>
<line x1="184.155" y1="0.141421" x2="89.2869" y2="95.0098" stroke="#6C6760" stroke-width="0.4"/>
<line x1="187.024" y1="0.141421" x2="92.1552" y2="95.0098" stroke="#6C6760" stroke-width="0.4"/>
<line x1="189.892" y1="0.141421" x2="95.0236" y2="95.0098" stroke="#6C6760" stroke-width="0.4"/>
<line x1="192.76" y1="0.141421" x2="97.8919" y2="95.0098" stroke="#6C6760" stroke-width="0.4"/>
<line x1="195.629" y1="0.141421" x2="100.76" y2="95.0098" stroke="#6C6760" stroke-width="0.4"/>
<line x1="198.497" y1="0.141421" x2="103.629" y2="95.0098" stroke="#6C6760" stroke-width="0.4"/>
<line x1="201.365" y1="0.141421" x2="106.497" y2="95.0098" stroke="#6C6760" stroke-width="0.4"/>
<line x1="204.233" y1="0.141421" x2="109.365" y2="95.0098" stroke="#6C6760" stroke-width="0.4"/>
<line x1="207.102" y1="0.141421" x2="112.233" y2="95.0098" stroke="#6C6760" stroke-width="0.4"/>
<line x1="209.97" y1="0.141421" x2="115.102" y2="95.0098" stroke="#6C6760" stroke-width="0.4"/>
<line x1="212.838" y1="0.141421" x2="117.97" y2="95.0098" stroke="#6C6760" stroke-width="0.4"/>
<line x1="215.707" y1="0.141421" x2="120.838" y2="95.0098" stroke="#6C6760" stroke-width="0.4"/>
<line x1="218.575" y1="0.141421" x2="123.707" y2="95.0098" stroke="#6C6760" stroke-width="0.4"/>
<line x1="221.443" y1="0.141421" x2="126.575" y2="95.0098" stroke="#6C6760" stroke-width="0.4"/>
<line x1="224.312" y1="0.141421" x2="129.443" y2="95.0098" stroke="#6C6760" stroke-width="0.4"/>
<line x1="227.18" y1="0.141421" x2="132.312" y2="95.0098" stroke="#6C6760" stroke-width="0.4"/>
<line x1="230.048" y1="0.141421" x2="135.18" y2="95.0098" stroke="#6C6760" stroke-width="0.4"/>
<line x1="232.917" y1="0.141421" x2="138.048" y2="95.0098" stroke="#6C6760" stroke-width="0.4"/>
<line x1="235.785" y1="0.141421" x2="140.917" y2="95.0098" stroke="#6C6760" stroke-width="0.4"/>
<line x1="238.653" y1="0.141421" x2="143.785" y2="95.0098" stroke="#6C6760" stroke-width="0.4"/>
<line x1="241.522" y1="0.141421" x2="146.653" y2="95.0098" stroke="#6C6760" stroke-width="0.4"/>
<line x1="244.39" y1="0.141421" x2="149.522" y2="95.0098" stroke="#6C6760" stroke-width="0.4"/>
<line x1="247.258" y1="0.141421" x2="152.39" y2="95.0098" stroke="#6C6760" stroke-width="0.4"/>
<line x1="250.127" y1="0.141421" x2="155.258" y2="95.0098" stroke="#6C6760" stroke-width="0.4"/>
<line x1="252.995" y1="0.141421" x2="158.127" y2="95.0098" stroke="#6C6760" stroke-width="0.4"/>
<line x1="255.863" y1="0.141421" x2="160.995" y2="95.0098" stroke="#6C6760" stroke-width="0.4"/>
<line x1="258.732" y1="0.141421" x2="163.863" y2="95.0098" stroke="#6C6760" stroke-width="0.4"/>
<line x1="261.6" y1="0.141421" x2="166.732" y2="95.0098" stroke="#6C6760" stroke-width="0.4"/>
<line x1="264.468" y1="0.141421" x2="169.6" y2="95.0098" stroke="#6C6760" stroke-width="0.4"/>
<line x1="267.337" y1="0.141421" x2="172.468" y2="95.0098" stroke="#6C6760" stroke-width="0.4"/>
<line x1="270.205" y1="0.141421" x2="175.337" y2="95.0098" stroke="#6C6760" stroke-width="0.4"/>
<line x1="273.073" y1="0.141421" x2="178.205" y2="95.0098" stroke="#6C6760" stroke-width="0.4"/>
<line x1="275.941" y1="0.141421" x2="181.073" y2="95.0098" stroke="#6C6760" stroke-width="0.4"/>
<line x1="278.81" y1="0.141421" x2="183.941" y2="95.0098" stroke="#6C6760" stroke-width="0.4"/>
<line x1="281.678" y1="0.141421" x2="186.81" y2="95.0098" stroke="#6C6760" stroke-width="0.4"/>
<line x1="284.546" y1="0.141421" x2="189.678" y2="95.0098" stroke="#6C6760" stroke-width="0.4"/>
<line x1="287.415" y1="0.141421" x2="192.546" y2="95.0098" stroke="#6C6760" stroke-width="0.4"/>
<line x1="290.283" y1="0.141421" x2="195.415" y2="95.0098" stroke="#6C6760" stroke-width="0.4"/>
<line x1="293.151" y1="0.141421" x2="198.283" y2="95.0098" stroke="#6C6760" stroke-width="0.4"/>
<line x1="296.02" y1="0.141421" x2="201.151" y2="95.0098" stroke="#6C6760" stroke-width="0.4"/>
<line x1="298.888" y1="0.141421" x2="204.02" y2="95.0098" stroke="#6C6760" stroke-width="0.4"/>
<line x1="301.756" y1="0.141421" x2="206.888" y2="95.0098" stroke="#6C6760" stroke-width="0.4"/>
<line x1="304.625" y1="0.141421" x2="209.756" y2="95.0098" stroke="#6C6760" stroke-width="0.4"/>
<line x1="307.493" y1="0.141421" x2="212.625" y2="95.0098" stroke="#6C6760" stroke-width="0.4"/>
<line x1="310.361" y1="0.141421" x2="215.493" y2="95.0098" stroke="#6C6760" stroke-width="0.4"/>
<line x1="313.23" y1="0.141421" x2="218.361" y2="95.0098" stroke="#6C6760" stroke-width="0.4"/>
<line x1="316.098" y1="0.141421" x2="221.23" y2="95.0098" stroke="#6C6760" stroke-width="0.4"/>
<line x1="318.966" y1="0.141421" x2="224.098" y2="95.0098" stroke="#6C6760" stroke-width="0.4"/>
<line x1="321.835" y1="0.141421" x2="226.966" y2="95.0098" stroke="#6C6760" stroke-width="0.4"/>
<line x1="324.703" y1="0.141421" x2="229.835" y2="95.0098" stroke="#6C6760" stroke-width="0.4"/>
<line x1="327.571" y1="0.141421" x2="232.703" y2="95.0098" stroke="#6C6760" stroke-width="0.4"/>
<line x1="330.439" y1="0.141421" x2="235.571" y2="95.0098" stroke="#6C6760" stroke-width="0.4"/>
<line x1="333.308" y1="0.141421" x2="238.439" y2="95.0098" stroke="#6C6760" stroke-width="0.4"/>
<line x1="336.176" y1="0.141421" x2="241.308" y2="95.0098" stroke="#6C6760" stroke-width="0.4"/>
<line x1="339.044" y1="0.141421" x2="244.176" y2="95.0098" stroke="#6C6760" stroke-width="0.4"/>
<line x1="341.913" y1="0.141421" x2="247.044" y2="95.0098" stroke="#6C6760" stroke-width="0.4"/>
<line x1="344.781" y1="0.141421" x2="249.913" y2="95.0098" stroke="#6C6760" stroke-width="0.4"/>
<line x1="347.649" y1="0.141421" x2="252.781" y2="95.0098" stroke="#6C6760" stroke-width="0.4"/>
<line x1="350.518" y1="0.141421" x2="255.649" y2="95.0098" stroke="#6C6760" stroke-width="0.4"/>
<line x1="353.386" y1="0.141421" x2="258.518" y2="95.0098" stroke="#6C6760" stroke-width="0.4"/>
<line x1="356.254" y1="0.141421" x2="261.386" y2="95.0098" stroke="#6C6760" stroke-width="0.4"/>
<line x1="359.123" y1="0.141421" x2="264.254" y2="95.0098" stroke="#6C6760" stroke-width="0.4"/>
<line x1="361.991" y1="0.141421" x2="267.123" y2="95.0098" stroke="#6C6760" stroke-width="0.4"/>
<line x1="364.859" y1="0.141421" x2="269.991" y2="95.0098" stroke="#6C6760" stroke-width="0.4"/>
<line x1="367.728" y1="0.141421" x2="272.859" y2="95.0098" stroke="#6C6760" stroke-width="0.4"/>
<line x1="370.596" y1="0.141421" x2="275.728" y2="95.0098" stroke="#6C6760" stroke-width="0.4"/>
<line x1="373.464" y1="0.141421" x2="278.596" y2="95.0098" stroke="#6C6760" stroke-width="0.4"/>
<line x1="376.333" y1="0.141421" x2="281.464" y2="95.0098" stroke="#6C6760" stroke-width="0.4"/>
<line x1="379.201" y1="0.141421" x2="284.333" y2="95.0098" stroke="#6C6760" stroke-width="0.4"/>
<line x1="382.069" y1="0.141421" x2="287.201" y2="95.0098" stroke="#6C6760" stroke-width="0.4"/>
<line x1="384.938" y1="0.141421" x2="290.069" y2="95.0098" stroke="#6C6760" stroke-width="0.4"/>
<line x1="387.806" y1="0.141421" x2="292.938" y2="95.0098" stroke="#6C6760" stroke-width="0.4"/>
<line x1="390.674" y1="0.141421" x2="295.806" y2="95.0098" stroke="#6C6760" stroke-width="0.4"/>
<line x1="393.542" y1="0.141421" x2="298.674" y2="95.0098" stroke="#6C6760" stroke-width="0.4"/>
<line x1="396.411" y1="0.141421" x2="301.542" y2="95.0098" stroke="#6C6760" stroke-width="0.4"/>
<line x1="399.279" y1="0.141421" x2="304.411" y2="95.0098" stroke="#6C6760" stroke-width="0.4"/>
<line x1="402.147" y1="0.141421" x2="307.279" y2="95.0098" stroke="#6C6760" stroke-width="0.4"/>
<line x1="405.016" y1="0.141421" x2="310.147" y2="95.0098" stroke="#6C6760" stroke-width="0.4"/>
<line x1="407.884" y1="0.141421" x2="313.016" y2="95.0098" stroke="#6C6760" stroke-width="0.4"/>
<line x1="410.752" y1="0.141421" x2="315.884" y2="95.0098" stroke="#6C6760" stroke-width="0.4"/>
<line x1="413.621" y1="0.141421" x2="318.752" y2="95.0098" stroke="#6C6760" stroke-width="0.4"/>
<line x1="416.489" y1="0.141421" x2="321.621" y2="95.0098" stroke="#6C6760" stroke-width="0.4"/>
<line x1="419.357" y1="0.141421" x2="324.489" y2="95.0098" stroke="#6C6760" stroke-width="0.4"/>
<line x1="422.226" y1="0.141421" x2="327.357" y2="95.0098" stroke="#6C6760" stroke-width="0.4"/>
<line x1="425.094" y1="0.141421" x2="330.226" y2="95.0098" stroke="#6C6760" stroke-width="0.4"/>
<line x1="427.962" y1="0.141421" x2="333.094" y2="95.0098" stroke="#6C6760" stroke-width="0.4"/>
<line x1="430.831" y1="0.141421" x2="335.962" y2="95.0098" stroke="#6C6760" stroke-width="0.4"/>
<line x1="433.699" y1="0.141421" x2="338.831" y2="95.0098" stroke="#6C6760" stroke-width="0.4"/>
<line x1="436.567" y1="0.141421" x2="341.699" y2="95.0098" stroke="#6C6760" stroke-width="0.4"/>
</g>
</g>
</pattern><clipPath id="clip0_4481_13957">
<rect width="400" height="400" fill="white"/>
</clipPath>
<clipPath id="clip1_4481_13957">
<rect width="342" height="94.8683" fill="white"/>
</clipPath>
</defs>
</svg>
