<svg width="214" height="195" viewBox="0 0 214 195" fill="none" xmlns="http://www.w3.org/2000/svg" xmlns:xlink="http://www.w3.org/1999/xlink">
<g filter="url(#filter0_n_4481_14013)">
<path d="M16 57.001C16 55.8964 16.8954 55.001 18 55.001H196C197.105 55.001 198 55.8964 198 57.001V193.001C198 194.106 197.105 195.001 196 195.001H18C16.8954 195.001 16 194.106 16 193.001V57.001Z" fill="#F6F6F3"/>
<rect width="230.4" height="160" transform="matrix(0.939693 -0.34202 0.5 0.866025 -41.2527 78.8018)" fill="#F6F6F3"/>
<rect width="230.4" height="160" transform="matrix(0.939693 -0.34202 0.5 0.866025 -41.2527 78.8018)" fill="url(#pattern0_4481_14013)"/>
<path d="M45.0391 108.275C44.7023 108.397 44.3698 108.422 44.0415 108.35C43.7172 108.275 43.4044 108.107 43.1031 107.846C42.8057 107.583 42.5312 107.234 42.2794 106.798C42.0256 106.358 41.8703 105.963 41.8135 105.612C41.7586 105.257 41.8015 104.957 41.9423 104.714C42.0871 104.469 42.3279 104.285 42.6647 104.162C43.0015 104.04 43.332 104.015 43.6563 104.09C43.9846 104.163 44.2985 104.332 44.598 104.599C44.8993 104.86 45.1769 105.211 45.4308 105.651C45.6825 106.087 45.8348 106.481 45.8876 106.832C45.9444 107.183 45.9003 107.481 45.7555 107.726C45.6147 107.969 45.3759 108.152 45.0391 108.275ZM44.7703 107.809C44.9908 107.729 45.1421 107.6 45.224 107.423C45.3079 107.24 45.3216 107.016 45.2653 106.75C45.2089 106.485 45.0837 106.184 44.8895 105.848C44.6933 105.508 44.4868 105.234 44.2701 105.027C44.0512 104.816 43.8284 104.678 43.6016 104.613C43.3767 104.543 43.154 104.548 42.9335 104.628C42.713 104.708 42.5608 104.839 42.477 105.022C42.3951 105.199 42.3833 105.423 42.4418 105.692C42.4981 105.958 42.6244 106.261 42.8207 106.601C43.0148 106.937 43.2203 107.209 43.437 107.416C43.6537 107.623 43.8745 107.762 44.0994 107.832C44.3262 107.897 44.5498 107.89 44.7703 107.809ZM44.6591 106.911L46.6882 108.03L46.1048 108.242L44.0758 107.123L44.6591 106.911ZM49.1292 106.679L48.71 105.953L48.8054 105.992C48.8901 106.256 48.8754 106.483 48.7613 106.672C48.6473 106.861 48.464 107.001 48.2114 107.093C47.8706 107.217 47.5483 107.21 47.2444 107.07C46.9424 106.925 46.6975 106.69 46.5097 106.365L45.4185 104.475L45.9297 104.289L46.9409 106.04C47.1031 106.321 47.2768 106.512 47.4621 106.615C47.6474 106.717 47.8543 106.727 48.0829 106.644C48.3355 106.552 48.4943 106.407 48.5595 106.209C48.6225 106.007 48.5761 105.771 48.4204 105.501L47.4092 103.75L47.9144 103.566L49.6104 106.504L49.1292 106.679ZM49.5238 104.758C49.3467 104.451 49.2511 104.159 49.237 103.883C49.2229 103.606 49.2898 103.365 49.4378 103.159C49.5858 102.953 49.8061 102.797 50.0988 102.691C50.3434 102.602 50.5958 102.572 50.856 102.603C51.1202 102.632 51.3804 102.734 51.6367 102.909C51.8909 103.08 52.122 103.329 52.33 103.656L52.4577 103.864L50.1483 104.705C50.3411 104.997 50.5657 105.197 50.8221 105.305C51.0785 105.413 51.343 105.417 51.6156 105.318C51.788 105.255 51.9198 105.156 52.0111 105.02C52.1042 104.878 52.1421 104.717 52.1247 104.536L52.6883 104.377C52.754 104.684 52.7115 104.964 52.5607 105.215C52.41 105.467 52.1803 105.649 51.8716 105.761C51.5789 105.868 51.2861 105.898 50.993 105.853C50.7 105.808 50.4261 105.69 50.1714 105.501C49.9167 105.312 49.7009 105.064 49.5238 104.758ZM51.6676 103.656C51.4571 103.383 51.2383 103.21 51.0113 103.137C50.7861 103.058 50.5673 103.057 50.3548 103.134C50.1022 103.226 49.9393 103.372 49.8662 103.573C49.793 103.774 49.8101 104.014 49.9175 104.293L51.6676 103.656ZM54.7853 102.165C54.6553 102.016 54.4865 101.921 54.2786 101.88C54.0708 101.84 53.8627 101.857 53.6542 101.933C53.4778 101.997 53.3489 102.093 53.2675 102.221C53.1901 102.348 53.1951 102.483 53.2823 102.625C53.3569 102.755 53.4685 102.83 53.6171 102.852C53.7675 102.869 53.9659 102.864 54.2122 102.837L54.3152 102.826C54.602 102.793 54.8477 102.778 55.0523 102.779C55.261 102.779 55.4545 102.816 55.6329 102.89C55.8132 102.958 55.9535 103.079 56.0537 103.253C56.2095 103.523 56.2045 103.771 56.0389 103.996C55.8772 104.221 55.624 104.395 55.2792 104.521C55.0346 104.61 54.7867 104.651 54.5352 104.644C54.2838 104.637 54.0513 104.583 53.8377 104.482C53.6259 104.376 53.4564 104.225 53.3292 104.03L53.8332 103.806C53.9215 103.917 54.0294 104.003 54.1568 104.064C54.286 104.12 54.4246 104.15 54.5727 104.154C54.7247 104.157 54.8749 104.131 55.0232 104.078C55.2237 104.005 55.375 103.914 55.4772 103.805C55.5772 103.693 55.5857 103.564 55.5025 103.42C55.4513 103.331 55.3787 103.273 55.2846 103.245C55.1925 103.211 55.0949 103.197 54.9917 103.204C54.8865 103.206 54.7511 103.22 54.5857 103.244L54.4586 103.263C54.0469 103.315 53.6964 103.317 53.4074 103.27C53.1184 103.224 52.9045 103.08 52.7658 102.84C52.6549 102.648 52.6141 102.464 52.6434 102.288C52.6746 102.106 52.7611 101.945 52.9029 101.804C53.0486 101.662 53.2318 101.55 53.4523 101.47C53.7851 101.349 54.1179 101.333 54.4507 101.422C54.7813 101.507 55.0549 101.683 55.2713 101.948L54.7853 102.165ZM56.4202 99.5313L58.097 102.436C58.1696 102.561 58.2622 102.646 58.3749 102.69C58.4876 102.734 58.6101 102.732 58.7424 102.684L59.5964 102.373L59.8332 102.783L58.9792 103.094C58.6665 103.208 58.3934 103.222 58.16 103.137C57.9284 103.047 57.7391 102.874 57.5919 102.619L55.9151 99.7151L56.4202 99.5313ZM58.1432 99.8432L58.38 100.253L55.6857 101.234L55.4489 100.824L58.1432 99.8432ZM60.7329 98.9006L62.4289 101.838L61.9237 102.022L60.2277 99.0845L60.7329 98.9006ZM60.7329 98.9006L60.9697 99.3107L59.3219 99.9105L59.0851 99.5004L60.7329 98.9006ZM63.2806 101.032L63.5174 101.442L60.6608 102.482L60.424 102.072L63.2806 101.032ZM60.1569 97.9029L60.4801 98.4627L59.9088 98.6707L59.5856 98.1109L60.1569 97.9029ZM65.3998 100.837C65.1071 100.944 64.8143 100.974 64.5212 100.929C64.2322 100.882 63.9603 100.764 63.7056 100.575C63.4509 100.386 63.2351 100.138 63.058 99.8317C62.8809 99.5251 62.7853 99.2334 62.7712 98.9569C62.7571 98.6803 62.822 98.4398 62.966 98.2354C63.114 98.0295 63.3343 97.8733 63.627 97.7667C63.9197 97.6602 64.2105 97.6304 64.4996 97.6772C64.7926 97.7226 65.0665 97.8398 65.3212 98.0288C65.5759 98.2178 65.7917 98.4656 65.9688 98.7723C66.1459 99.079 66.2415 99.3706 66.2556 99.6472C66.2697 99.9238 66.2028 100.165 66.0548 100.371C65.9108 100.575 65.6925 100.731 65.3998 100.837ZM65.1438 100.394C65.4365 100.287 65.6075 100.109 65.657 99.8583C65.7104 99.6064 65.638 99.3086 65.4396 98.9649C65.2412 98.6213 65.0043 98.3833 64.729 98.251C64.4577 98.1172 64.1757 98.1036 63.883 98.2101C63.5903 98.3167 63.4173 98.4959 63.3638 98.7479C63.3144 98.9984 63.3888 99.2955 63.5872 99.6391C63.7856 99.9828 64.0205 100.221 64.2918 100.355C64.5671 100.488 64.8511 100.5 65.1438 100.394ZM66.2912 96.8775L66.7472 97.617L66.6459 97.5801C66.557 97.3084 66.5684 97.0762 66.6803 96.8835C66.7962 96.6892 66.9845 96.5447 67.2451 96.4499C67.5939 96.3229 67.9203 96.3293 68.2242 96.4691C68.5281 96.6089 68.7749 96.8432 68.9648 97.1721L70.056 99.0621L69.5508 99.246L68.5364 97.489C68.3764 97.2119 68.2018 97.0228 68.0125 96.9218C67.8271 96.8193 67.6162 96.8111 67.3797 96.8972C67.1191 96.9921 66.9552 97.1411 66.8882 97.3444C66.8231 97.5425 66.8673 97.7746 67.0209 98.0406L68.0353 99.7976L67.5301 99.9815L65.8341 97.0439L66.2912 96.8775ZM73.3981 93.3518L75.0749 96.2561C75.1475 96.3817 75.2401 96.4665 75.3528 96.5105C75.4655 96.5544 75.588 96.5523 75.7203 96.5041L76.5743 96.1933L76.8111 96.6035L75.9571 96.9143C75.6444 97.0281 75.3713 97.0425 75.1379 96.9576C74.9063 96.8675 74.7169 96.6949 74.5697 96.44L72.8929 93.5357L73.3981 93.3518ZM75.1211 93.6637L75.3579 94.0739L72.6636 95.0545L72.4268 94.6444L75.1211 93.6637ZM76.3276 93.2246L78.6918 95.3153L78.21 92.5395L78.7452 92.3446L79.3686 96.122C79.4002 96.3028 79.3792 96.4513 79.3056 96.5675C79.232 96.6837 79.105 96.7746 78.9246 96.8403L78.5397 96.9804L78.3029 96.5703L78.6336 96.4499C78.7138 96.4207 78.7684 96.3807 78.7973 96.3299C78.8302 96.2777 78.8404 96.2114 78.828 96.131L78.7854 95.8178L78.611 95.8813L75.7863 93.4216L76.3276 93.2246ZM79.3202 92.1354L79.7773 91.969L80.1661 92.5921L80.0576 92.5176C80.0247 92.2926 80.0666 92.0962 80.1833 91.9285C80.3 91.7609 80.4846 91.6311 80.7372 91.5391C81.0419 91.4282 81.337 91.4058 81.6226 91.4718C81.91 91.5326 82.171 91.6612 82.4057 91.8575C82.6403 92.0538 82.8387 92.2923 83.0008 92.5732C83.163 92.854 83.2611 93.129 83.2953 93.3983C83.3294 93.6676 83.2828 93.9103 83.1554 94.1266C83.0298 94.3378 82.8147 94.4988 82.51 94.6097C82.3416 94.671 82.1754 94.7024 82.0113 94.704C81.8473 94.7056 81.6905 94.6777 81.5409 94.6204C81.3954 94.5615 81.2601 94.4744 81.1352 94.3589L81.1566 94.2572L82.0014 95.7204L81.4962 95.9043L79.3202 92.1354ZM80.6193 93.44C80.7302 93.6321 80.8657 93.7996 81.0259 93.9426C81.19 94.084 81.3702 94.1817 81.5662 94.2355C81.7641 94.2842 81.9653 94.2714 82.1698 94.197C82.4785 94.0846 82.6483 93.8954 82.679 93.6293C82.7098 93.3632 82.6366 93.0768 82.4596 92.7702C82.2825 92.4635 82.057 92.2325 81.783 92.0774C81.5091 91.9222 81.2177 91.9008 80.909 92.0132C80.7045 92.0876 80.562 92.2021 80.4814 92.3566C80.4027 92.506 80.3772 92.6762 80.4051 92.8673C80.4369 93.0569 80.5083 93.2478 80.6193 93.44ZM83.4796 92.3989C83.3025 92.0922 83.2069 91.8006 83.1928 91.524C83.1787 91.2474 83.2456 91.0062 83.3936 90.8003C83.5416 90.5944 83.7619 90.4382 84.0546 90.3317C84.2992 90.2427 84.5516 90.2134 84.8118 90.2439C85.076 90.273 85.3362 90.375 85.5925 90.55C85.8467 90.7213 86.0778 90.9703 86.2858 91.297L86.4134 91.5055L84.1041 92.346C84.2969 92.638 84.5215 92.838 84.7779 92.9459C85.0343 93.0538 85.2988 93.0581 85.5714 92.9589C85.7438 92.8961 85.8756 92.7967 85.9669 92.6607C86.06 92.5194 86.0979 92.3581 86.0805 92.1766L86.6441 92.0184C86.7098 92.3254 86.6672 92.6047 86.5165 92.8563C86.3658 93.1079 86.1361 93.2899 85.8274 93.4023C85.5347 93.5088 85.2419 93.5394 84.9488 93.494C84.6558 93.4486 84.3819 93.3315 84.1272 93.1424C83.8725 92.9534 83.6567 92.7056 83.4796 92.3989ZM85.6234 91.2967C85.4129 91.0245 85.1941 90.8515 84.9671 90.7776C84.7419 90.6986 84.5231 90.6978 84.3106 90.7751C84.058 90.867 83.8951 91.0135 83.822 91.2145C83.7488 91.4156 83.7659 91.6553 83.8733 91.9337L85.6234 91.2967Z" fill="#A7A7A0"/>
<path d="M135.617 47.9509L143.817 62.1541L38.1957 100.597L29.9955 86.3941L135.617 47.9509Z" fill="#F6F6F3"/>
<path d="M135.617 47.9509L143.817 62.1541L38.1957 100.597L29.9955 86.3941L135.617 47.9509Z" stroke="#CFCFC9" stroke-width="0.4"/>
<path d="M50.2926 85.1277L52.3886 88.7581C52.4793 88.9152 52.595 89.0211 52.7359 89.0761C52.8768 89.131 53.0299 89.1284 53.1953 89.0682L54.2628 88.6796L54.5588 89.1923L53.4913 89.5808C53.1004 89.7231 52.7591 89.7412 52.4673 89.635C52.1778 89.5223 51.9411 89.3067 51.7571 88.988L49.6611 85.3576L50.2926 85.1277ZM52.4463 85.5176L52.7423 86.0303L49.3745 87.2561L49.0785 86.7434L52.4463 85.5176ZM54.4055 87.0263C54.1842 86.643 54.0647 86.2784 54.047 85.9327C54.0294 85.587 54.113 85.2855 54.298 85.0281C54.483 84.7708 54.7584 84.5755 55.1242 84.4423C55.43 84.3311 55.7454 84.2945 56.0707 84.3326C56.401 84.3689 56.7263 84.4964 57.0467 84.7152C57.3644 84.9293 57.6532 85.2406 57.9133 85.649L58.0728 85.9095L55.1861 86.9602C55.4271 87.3252 55.7079 87.5752 56.0284 87.71C56.3488 87.8449 56.6795 87.8503 57.0202 87.7263C57.2358 87.6479 57.4005 87.5236 57.5146 87.3535C57.631 87.177 57.6784 86.9753 57.6566 86.7485L58.3611 86.5508C58.4432 86.9345 58.39 87.2836 58.2017 87.5981C58.0133 87.9126 57.7261 88.1401 57.3402 88.2806C56.9744 88.4137 56.6083 88.4519 56.242 88.3952C55.8757 88.3385 55.5334 88.192 55.215 87.9558C54.8967 87.7195 54.6268 87.4097 54.4055 87.0263ZM57.0852 85.6486C56.8221 85.3084 56.5486 85.0921 56.2648 84.9997C55.9834 84.901 55.7099 84.8999 55.4442 84.9966C55.1285 85.1115 54.9249 85.2946 54.8335 85.5459C54.742 85.7972 54.7634 86.0968 54.8976 86.4448L57.0852 85.6486ZM61.1586 83.839C60.9775 83.6198 60.7531 83.4779 60.4853 83.4133C60.2199 83.3422 59.9644 83.3514 59.7188 83.4408C59.3529 83.5739 59.1366 83.798 59.0698 84.113C59.008 84.4261 59.1011 84.7975 59.3491 85.227C59.5971 85.6566 59.8907 85.9549 60.2298 86.1221C60.5739 86.2875 60.9289 86.3037 61.2948 86.1705C61.5504 86.0775 61.7307 85.9224 61.8359 85.7053C61.941 85.4882 61.9439 85.2411 61.8447 84.9643L62.5378 84.7623C62.65 85.0512 62.6846 85.3265 62.6415 85.5881C62.5985 85.8497 62.4862 86.0806 62.3046 86.2808C62.1254 86.4746 61.8954 86.6226 61.6148 86.7248C61.2489 86.8579 60.8829 86.8961 60.5165 86.8394C60.1552 86.7809 59.8154 86.6335 59.4971 86.3972C59.1787 86.161 58.9089 85.8511 58.6875 85.4678C58.4662 85.0844 58.3467 84.7199 58.3291 84.3742C58.3114 84.0285 58.3926 83.7279 58.5725 83.4723C58.7575 83.2149 59.0329 83.0197 59.3988 82.8865C59.6694 82.788 59.9557 82.7481 60.2576 82.7668C60.5568 82.7808 60.8426 82.8557 61.115 82.9913C61.3874 83.1269 61.6144 83.3154 61.7962 83.5566L61.1586 83.839ZM62.009 80.528L63.197 82.5856L63.0393 82.5173C62.9725 82.223 63.017 81.9692 63.1729 81.756C63.3311 81.5363 63.5631 81.3708 63.8688 81.2596C64.2998 81.1027 64.7066 81.1139 65.0891 81.2933C65.469 81.4681 65.7762 81.7587 66.0109 82.1651L67.3749 84.5276L66.7434 84.7575L65.4994 82.6028C65.2994 82.2564 65.0811 82.02 64.8445 81.8938C64.6128 81.7657 64.3492 81.7555 64.0535 81.8631C63.7277 81.9817 63.5229 82.168 63.4392 82.422C63.3577 82.6697 63.413 82.9598 63.605 83.2923L64.849 85.447L64.2175 85.6768L61.3775 80.7578L62.009 80.528ZM66.8758 80.2657L67.4458 81.1901L67.3191 81.144C67.208 80.8044 67.2223 80.5141 67.3622 80.2731C67.5071 80.0304 67.7424 79.8497 68.0682 79.7311C68.5042 79.5724 68.9121 79.5805 69.292 79.7552C69.6719 79.9299 69.9805 80.2229 70.2178 80.6339L71.5818 82.9964L70.9503 83.2263L69.6823 81.03C69.4823 80.6836 69.264 80.4473 69.0274 80.321C68.7957 80.1929 68.5321 80.1827 68.2364 80.2903C67.9106 80.4089 67.7058 80.5952 67.6221 80.8493C67.5406 81.0969 67.5959 81.387 67.7879 81.7196L69.0559 83.9158L68.4244 84.1456L66.3044 80.4737L66.8758 80.2657ZM72.6613 78.16L74.7813 81.8319L74.1499 82.0617L72.0299 78.3898L72.6613 78.16ZM72.6613 78.16L72.9573 78.6726L70.8975 79.4224L70.6015 78.9097L72.6613 78.16ZM75.846 80.824L76.142 81.3367L72.5712 82.6363L72.2752 82.1237L75.846 80.824ZM71.9413 76.9129L72.3453 77.6126L71.6312 77.8726L71.2272 77.1728L71.9413 76.9129ZM78.1365 77.6595C77.9554 77.4404 77.731 77.2985 77.4632 77.2339C77.1978 77.1628 76.9423 77.172 76.6967 77.2613C76.3308 77.3945 76.1145 77.6186 76.0477 77.9335C75.9859 78.2467 76.079 78.618 76.327 79.0476C76.575 79.4771 76.8686 79.7755 77.2077 79.9427C77.5518 80.1081 77.9068 80.1242 78.2727 79.991C78.5283 79.898 78.7086 79.7429 78.8137 79.5258C78.9189 79.3087 78.9218 79.0617 78.8226 78.7848L79.5157 78.5829C79.6279 78.8718 79.6625 79.147 79.6194 79.4086C79.5764 79.6702 79.4641 79.9012 79.2825 80.1014C79.1033 80.2952 78.8733 80.4432 78.5927 80.5453C78.2268 80.6785 77.8608 80.7167 77.4944 80.66C77.1331 80.6014 76.7933 80.454 76.475 80.2178C76.1566 79.9815 75.8868 79.6717 75.6654 79.2883C75.4441 78.905 75.3246 78.5404 75.307 78.1947C75.2893 77.849 75.3705 77.5484 75.5504 77.2929C75.7354 77.0355 76.0108 76.8402 76.3767 76.7071C76.6473 76.6086 76.9336 76.5687 77.2355 76.5873C77.5347 76.6014 77.8205 76.6762 78.0929 76.8118C78.3653 76.9475 78.5923 77.1359 78.7741 77.3772L78.1365 77.6595ZM79.4965 76.9801C79.3716 76.6063 79.3983 76.2585 79.5763 75.9366C79.7517 75.61 80.0448 75.372 80.4558 75.2224C80.9519 75.0418 81.4188 75.0312 81.8565 75.1905C82.2942 75.3498 82.657 75.6788 82.945 76.1777L83.797 77.6534C83.8423 77.7319 83.8957 77.7823 83.9572 77.8047C84.0186 77.827 84.0919 77.8227 84.1771 77.7917L84.335 77.7343L84.631 78.2469L84.4355 78.3181C84.2 78.4038 83.9802 78.4223 83.7762 78.3736C83.5745 78.3185 83.4068 78.2118 83.2731 78.0537C83.2919 78.2648 83.2283 78.4752 83.0825 78.6848C82.934 78.8897 82.7094 79.047 82.4087 79.1564C81.9977 79.306 81.5997 79.3362 81.2148 79.2472C80.8348 79.1563 80.5528 78.9515 80.3688 78.6328C80.2301 78.3927 80.1796 78.1791 80.2172 77.9921C80.2599 77.8034 80.3651 77.6337 80.5329 77.4832C80.7007 77.3327 80.9352 77.1663 81.2363 76.984L82.2775 76.3452C82.0965 76.0421 81.8768 75.8454 81.6184 75.755C81.3574 75.66 81.0765 75.6672 80.7758 75.7767C80.5302 75.866 80.3582 76.0041 80.2598 76.1908C80.1588 76.3729 80.1392 76.5701 80.201 76.7823L79.4965 76.9801ZM81.0304 78.3921C81.121 78.5491 81.2684 78.652 81.4724 78.7007C81.6737 78.7448 81.9147 78.7158 82.1954 78.6136C82.4132 78.5287 82.5845 78.4105 82.7092 78.2589C82.8313 78.1027 82.8931 77.9209 82.8947 77.7135C82.8986 77.4997 82.8326 77.275 82.6966 77.0394L82.5926 76.8593L81.7409 77.3537C81.6984 77.3748 81.6573 77.3981 81.6176 77.4238C81.4134 77.5428 81.2593 77.6436 81.1553 77.7262C81.0487 77.8041 80.9793 77.8992 80.9471 78.0115C80.9173 78.1174 80.945 78.2443 81.0304 78.3921ZM88.5794 76.1894L88.8754 76.7021L85.3046 78.0018L85.0086 77.4891L88.5794 76.1894ZM86.8457 77.4408L84.5497 73.4641C84.4644 73.3163 84.3666 73.2205 84.2565 73.1767C84.1463 73.133 84.0135 73.1394 83.8582 73.1959L82.911 73.5407L82.615 73.028L83.5622 72.6833C83.908 72.5574 84.2203 72.5415 84.499 72.6357C84.7778 72.7299 85.0052 72.9294 85.1812 73.2342L87.4772 77.211L86.8457 77.4408ZM93.8837 70.4357L96.0037 74.1076L95.3722 74.3374L93.2522 70.6655L93.8837 70.4357ZM93.8837 70.4357L94.1797 70.9483L92.1199 71.698L91.8239 71.1854L93.8837 70.4357ZM97.0684 73.0997L97.3644 73.6124L93.7936 74.912L93.4976 74.3993L97.0684 73.0997ZM93.1637 69.1886L93.5677 69.8883L92.8535 70.1483L92.4495 69.4485L93.1637 69.1886ZM99.1826 69.882C99.0202 69.6952 98.8091 69.5764 98.5493 69.5256C98.2895 69.4749 98.0293 69.4969 97.7687 69.5917C97.5482 69.672 97.3871 69.7921 97.2854 69.9521C97.1887 70.1103 97.1948 70.2785 97.3038 70.4568C97.3972 70.6185 97.5367 70.713 97.7223 70.7405C97.9103 70.7615 98.1583 70.7551 98.4663 70.7212L98.5951 70.7079C98.9535 70.6669 99.2606 70.6473 99.5164 70.6492C99.7772 70.6493 100.019 70.6954 100.242 70.7875C100.467 70.8732 100.643 71.0245 100.768 71.2416C100.963 71.5788 100.957 71.8885 100.75 72.1706C100.548 72.451 100.231 72.6696 99.8 72.8265C99.4943 72.9377 99.1843 72.9891 98.8701 72.9805C98.5558 72.9719 98.2651 72.9044 97.9981 72.778C97.7334 72.6452 97.5215 72.4568 97.3625 72.2129L97.9925 71.9333C98.1029 72.072 98.2377 72.1794 98.397 72.2556C98.5585 72.3253 98.7318 72.3629 98.9168 72.3682C99.1069 72.3717 99.2946 72.3397 99.48 72.2722C99.7306 72.181 99.9198 72.0674 100.047 71.9315C100.173 71.791 100.183 71.6306 100.079 71.4505C100.015 71.3397 99.9243 71.2665 99.8068 71.231C99.6916 71.1891 99.5696 71.172 99.4407 71.1798C99.3091 71.183 99.1399 71.1999 98.9331 71.2304L98.7743 71.2547C98.2596 71.3191 97.8215 71.322 97.4603 71.2635C97.099 71.2049 96.8316 71.0255 96.6583 70.7253C96.5196 70.4851 96.4686 70.255 96.5053 70.0348C96.5443 69.8082 96.6524 69.6068 96.8296 69.4305C97.0118 69.2524 97.2407 69.1132 97.5164 69.0129C97.9323 68.8615 98.3483 68.8414 98.7643 68.9527C99.1777 69.0594 99.5196 69.2787 99.7901 69.6106L99.1826 69.882ZM103.427 68.3371C103.265 68.1503 103.054 68.0315 102.794 67.9808C102.534 67.93 102.274 67.952 102.013 68.0469C101.793 68.1271 101.632 68.2473 101.53 68.4073C101.433 68.5654 101.439 68.7336 101.548 68.912C101.642 69.0736 101.781 69.1682 101.967 69.1956C102.155 69.2166 102.403 69.2102 102.711 69.1764L102.84 69.163C103.198 69.122 103.505 69.1025 103.761 69.1044C104.022 69.1044 104.264 69.1505 104.487 69.2426C104.712 69.3283 104.887 69.4797 105.013 69.6968C105.207 70.0339 105.201 70.3436 104.994 70.6258C104.792 70.9061 104.476 71.1247 104.044 71.2816C103.739 71.3929 103.429 71.4442 103.115 71.4356C102.8 71.427 102.51 71.3596 102.243 71.2332C101.978 71.1004 101.766 70.912 101.607 70.668L102.237 70.3884C102.347 70.5271 102.482 70.6345 102.641 70.7107C102.803 70.7805 102.976 70.818 103.161 70.8233C103.351 70.8268 103.539 70.7948 103.724 70.7273C103.975 70.6361 104.164 70.5226 104.292 70.3867C104.417 70.2461 104.428 70.0858 104.324 69.9056C104.26 69.7948 104.169 69.7216 104.051 69.6862C103.936 69.6442 103.814 69.6272 103.685 69.635C103.554 69.6382 103.384 69.655 103.178 69.6856L103.019 69.7098C102.504 69.7742 102.066 69.7771 101.705 69.7186C101.343 69.6601 101.076 69.4807 100.903 69.1805C100.764 68.9403 100.713 68.7101 100.75 68.49C100.789 68.2634 100.897 68.0619 101.074 67.8857C101.256 67.7075 101.485 67.5683 101.761 67.468C102.177 67.3166 102.593 67.2965 103.009 67.4078C103.422 67.5145 103.764 67.7338 104.035 68.0657L103.427 68.3371ZM109.09 69.3444L108.566 68.4368L108.686 68.4857C108.791 68.816 108.773 69.0994 108.631 69.3357C108.488 69.5721 108.259 69.7477 107.943 69.8626C107.517 70.0177 107.114 70.0078 106.734 69.8331C106.357 69.6519 106.051 69.3581 105.816 68.9516L104.452 66.5891L105.091 66.3565L106.355 68.5458C106.558 68.8968 106.775 69.1364 107.007 69.2645C107.238 69.3926 107.497 69.4046 107.782 69.3007C108.098 69.1857 108.297 69.0045 108.378 68.7568C108.457 68.5046 108.399 68.2099 108.204 67.8727L106.94 65.6834L107.572 65.4536L109.692 69.1255L109.09 69.3444ZM109.584 66.9431C109.362 66.5598 109.243 66.1952 109.225 65.8495C109.208 65.5038 109.291 65.2023 109.476 64.9449C109.661 64.6875 109.937 64.4923 110.302 64.3591C110.608 64.2479 110.924 64.2113 111.249 64.2494C111.579 64.2857 111.904 64.4132 112.225 64.632C112.543 64.8461 112.831 65.1574 113.091 65.5658L113.251 65.8263L110.364 66.877C110.605 67.242 110.886 67.4919 111.207 67.6268C111.527 67.7617 111.858 67.7671 112.198 67.6431C112.414 67.5647 112.579 67.4404 112.693 67.2703C112.809 67.0938 112.857 66.8921 112.835 66.6653L113.539 66.4676C113.621 66.8513 113.568 67.2004 113.38 67.5149C113.191 67.8294 112.904 68.0569 112.518 68.1973C112.153 68.3305 111.786 68.3687 111.42 68.312C111.054 68.2553 110.712 68.1088 110.393 67.8726C110.075 67.6363 109.805 67.3265 109.584 66.9431ZM112.263 65.5654C112 65.2252 111.727 65.0089 111.443 64.9165C111.162 64.8178 110.888 64.8167 110.622 64.9134C110.307 65.0283 110.103 65.2114 110.012 65.4627C109.92 65.7139 109.942 66.0136 110.076 66.3616L112.263 65.5654Z" fill="#6B6B66"/>
<g clip-path="url(#clip1_4481_14013)">
<path d="M122.679 60.2059L121.579 63.226L117.98 61.916" stroke="#6B6B66" stroke-width="0.64" stroke-linejoin="round"/>
</g>
<path d="M97.6358 100.342L109.836 121.474L60.5957 139.396L48.3955 118.264L97.6358 100.342Z" fill="#F6F6F3"/>
<path d="M97.6358 100.342L109.836 121.474L60.5957 139.396L48.3955 118.264L97.6358 100.342Z" stroke="#CFCFC9" stroke-width="0.4"/>
<path d="M72.617 119.605L70.8309 120.255L73.5853 125.026L72.8741 125.285L70.1197 120.514L68.3335 121.164L67.9639 120.524L72.2474 118.965L72.617 119.605ZM75.4922 119.444L76.1865 120.473L76.0769 120.439C75.9355 120.079 75.9115 119.783 76.0051 119.553C76.0987 119.322 76.3108 119.146 76.6416 119.026L77.5182 118.707L77.8438 119.271L76.9672 119.59C76.7467 119.67 76.5855 119.778 76.4836 119.913C76.3872 120.047 76.3486 120.205 76.3679 120.389C76.3871 120.572 76.4642 120.781 76.5992 121.015L77.9896 123.423L77.295 123.676L74.963 119.637L75.4922 119.444ZM75.3516 119.495L75.6772 120.059L74.1474 120.616L73.8218 120.052L75.3516 119.495ZM79.0946 122.338L79.4202 122.902L76.1538 124.091L75.8282 123.527L79.0946 122.338ZM83.5929 121.384L83.0165 120.385L83.1476 120.439C83.264 120.802 83.2439 121.114 83.0871 121.374C82.9303 121.634 82.6782 121.827 82.3309 121.954C81.8623 122.124 81.4191 122.113 81.0012 121.921C80.586 121.722 80.2492 121.399 79.9911 120.952L78.4907 118.353L79.1936 118.097L80.584 120.505C80.8069 120.891 81.0458 121.155 81.3006 121.296C81.5554 121.437 81.8399 121.45 82.1542 121.335C82.5015 121.209 82.7199 121.01 82.8095 120.737C82.8961 120.46 82.8324 120.136 82.6182 119.765L81.2278 117.357L81.9225 117.104L84.2545 121.143L83.5929 121.384ZM84.1354 118.742C83.892 118.32 83.7605 117.92 83.7411 117.539C83.7217 117.159 83.8137 116.827 84.0172 116.544C84.2207 116.261 84.5236 116.046 84.9261 115.9C85.2624 115.777 85.6094 115.737 85.9672 115.779C86.3305 115.819 86.6883 115.959 87.0407 116.2C87.3902 116.435 87.708 116.778 87.994 117.227L88.1695 117.514L84.9941 118.669C85.2592 119.071 85.5681 119.346 85.9206 119.494C86.2731 119.643 86.6368 119.649 87.0117 119.512C87.2487 119.426 87.43 119.289 87.5555 119.102C87.6835 118.908 87.7356 118.686 87.7116 118.437L88.4867 118.219C88.5769 118.641 88.5185 119.025 88.3112 119.371C88.104 119.717 87.7882 119.967 87.3637 120.122C86.9612 120.268 86.5585 120.31 86.1556 120.248C85.7527 120.186 85.3761 120.024 85.0259 119.765C84.6757 119.505 84.3789 119.164 84.1354 118.742ZM87.0831 117.227C86.7937 116.852 86.4929 116.615 86.1807 116.513C85.8711 116.404 85.5703 116.403 85.2781 116.509C84.9308 116.636 84.7068 116.837 84.6062 117.114C84.5056 117.39 84.5291 117.72 84.6767 118.102L87.0831 117.227Z" fill="#222220"/>
<path d="M154.017 79.8208L166.218 100.952L116.977 118.874L104.777 97.7428L154.017 79.8208Z" fill="#F6F6F3"/>
<path d="M154.017 79.8208L166.218 100.952L116.977 118.874L104.777 97.7428L154.017 79.8208Z" stroke="#CFCFC9" stroke-width="0.4"/>
<path d="M127.335 99.5096L127.671 100.092L124.709 101.17L124.864 100.744L126.168 103.003L125.661 102.819L128.488 101.79L128.816 102.358L125.989 103.387L126.144 102.961L127.544 105.386L126.897 105.622L124.057 100.703L127.335 99.5096ZM129.496 101.54C129.371 101.167 129.397 100.819 129.575 100.497C129.751 100.17 130.044 99.9322 130.455 99.7826C130.951 99.602 131.418 99.5914 131.856 99.7507C132.293 99.91 132.656 100.239 132.944 100.738L133.796 102.214C133.841 102.292 133.895 102.343 133.956 102.365C134.018 102.387 134.091 102.383 134.176 102.352L134.334 102.294L134.63 102.807L134.435 102.878C134.199 102.964 133.979 102.983 133.775 102.934C133.574 102.879 133.406 102.772 133.272 102.614C133.291 102.825 133.227 103.035 133.082 103.245C132.933 103.45 132.708 103.607 132.408 103.717C131.997 103.866 131.599 103.896 131.214 103.807C130.834 103.717 130.552 103.512 130.368 103.193C130.229 102.953 130.179 102.739 130.216 102.552C130.259 102.364 130.364 102.194 130.532 102.043C130.7 101.893 130.934 101.726 131.235 101.544L132.277 100.905C132.096 100.602 131.876 100.406 131.618 100.315C131.356 100.22 131.076 100.227 130.775 100.337C130.529 100.426 130.357 100.564 130.259 100.751C130.158 100.933 130.138 101.13 130.2 101.343L129.496 101.54ZM131.029 102.952C131.12 103.109 131.267 103.212 131.471 103.261C131.673 103.305 131.914 103.276 132.194 103.174C132.412 103.089 132.584 102.971 132.708 102.819C132.83 102.663 132.892 102.481 132.894 102.274C132.898 102.06 132.832 101.835 132.696 101.6L132.592 101.419L131.74 101.914C131.698 101.935 131.656 101.958 131.617 101.984C131.412 102.103 131.258 102.204 131.154 102.286C131.048 102.364 130.978 102.459 130.946 102.572C130.916 102.678 130.944 102.804 131.029 102.952ZM138.579 100.75L138.875 101.262L135.304 102.562L135.008 102.049L138.579 100.75ZM136.845 102.001L134.549 98.0242C134.463 97.8764 134.366 97.7807 134.256 97.7369C134.145 97.6932 134.013 97.6996 133.857 97.7561L132.91 98.1009L132.614 97.5882L133.561 97.2434C133.907 97.1176 134.219 97.1017 134.498 97.1959C134.777 97.2901 135.004 97.4896 135.18 97.7944L137.476 101.771L136.845 102.001ZM140.693 97.5319C140.53 97.3451 140.319 97.2263 140.059 97.1755C139.8 97.1248 139.539 97.1468 139.279 97.2417C139.058 97.3219 138.897 97.442 138.796 97.602C138.699 97.7602 138.705 97.9284 138.814 98.1067C138.907 98.2684 139.047 98.3629 139.232 98.3904C139.42 98.4114 139.668 98.405 139.976 98.3711L140.105 98.3578C140.464 98.3168 140.771 98.2972 141.027 98.2991C141.287 98.2992 141.529 98.3453 141.752 98.4374C141.978 98.5231 142.153 98.6745 142.278 98.8915C142.473 99.2287 142.467 99.5384 142.26 99.8206C142.058 100.101 141.741 100.32 141.31 100.476C141.004 100.588 140.694 100.639 140.38 100.63C140.066 100.622 139.775 100.554 139.508 100.428C139.244 100.295 139.032 100.107 138.873 99.8628L139.503 99.5832C139.613 99.7219 139.748 99.8293 139.907 99.9055C140.069 99.9753 140.242 100.013 140.427 100.018C140.617 100.022 140.805 99.9896 140.99 99.9221C141.241 99.8309 141.43 99.7174 141.558 99.5814C141.683 99.4409 141.693 99.2806 141.589 99.1004C141.525 98.9896 141.434 98.9164 141.317 98.8809C141.202 98.839 141.08 98.8219 140.951 98.8297C140.819 98.8329 140.65 98.8498 140.443 98.8803L140.284 98.9046C139.77 98.969 139.332 98.9719 138.97 98.9134C138.609 98.8548 138.342 98.6754 138.168 98.3752C138.03 98.135 137.979 97.9049 138.015 97.6847C138.054 97.4582 138.163 97.2567 138.34 97.0804C138.522 96.9023 138.751 96.7631 139.027 96.6628C139.442 96.5114 139.858 96.4913 140.274 96.6026C140.688 96.7093 141.03 96.9286 141.3 97.2605L140.693 97.5319ZM142.605 97.6828C142.384 97.2994 142.264 96.9349 142.246 96.5892C142.229 96.2435 142.312 95.9419 142.497 95.6845C142.682 95.4272 142.958 95.2319 143.324 95.0988C143.629 94.9875 143.945 94.9509 144.27 94.989C144.6 95.0253 144.926 95.1529 145.246 95.3716C145.564 95.5858 145.853 95.897 146.113 96.3054L146.272 96.566L143.385 97.6166C143.626 97.9816 143.907 98.2316 144.228 98.3665C144.548 98.5013 144.879 98.5068 145.22 98.3827C145.435 98.3043 145.6 98.18 145.714 98.01C145.83 97.8334 145.878 97.6318 145.856 97.4049L146.561 97.2072C146.643 97.5909 146.589 97.9401 146.401 98.2546C146.213 98.5691 145.926 98.7965 145.54 98.937C145.174 99.0701 144.808 99.1084 144.441 99.0517C144.075 98.9949 143.733 98.8485 143.414 98.6122C143.096 98.3759 142.826 98.0661 142.605 97.6828ZM145.285 96.305C145.021 95.9648 144.748 95.7485 144.464 95.6562C144.183 95.5574 143.909 95.5563 143.644 95.653C143.328 95.7679 143.124 95.951 143.033 96.2023C142.941 96.4536 142.963 96.7532 143.097 97.1012L145.285 96.305Z" fill="#6B6B66"/>
<path d="M66.6116 143.068L65.6434 143.42L67.3778 146.424L68.3821 146.059L68.6509 146.524L66.125 147.444L65.8562 146.978L66.8605 146.613L65.1261 143.608L64.1579 143.961L63.8891 143.495L66.3428 142.602L66.6116 143.068ZM70.3942 143.435C70.2642 143.286 70.0953 143.19 69.8875 143.15C69.6797 143.109 69.4715 143.127 69.263 143.203C69.0866 143.267 68.9577 143.363 68.8764 143.491C68.799 143.618 68.8039 143.752 68.8911 143.895C68.9658 144.024 69.0774 144.1 69.2259 144.122C69.3763 144.139 69.5747 144.133 69.8211 144.106L69.9241 144.096C70.2108 144.063 70.4565 144.047 70.6612 144.049C70.8699 144.049 71.0634 144.086 71.2418 144.159C71.4221 144.228 71.5623 144.349 71.6626 144.523C71.8183 144.792 71.8134 145.04 71.6477 145.266C71.4861 145.49 71.2329 145.665 70.8881 145.791C70.6435 145.88 70.3955 145.921 70.1441 145.914C69.8927 145.907 69.6602 145.853 69.4465 145.752C69.2348 145.646 69.0653 145.495 68.9381 145.3L69.4421 145.076C69.5304 145.187 69.6383 145.273 69.7656 145.334C69.8949 145.39 70.0335 145.42 70.1815 145.424C70.3336 145.427 70.4837 145.401 70.6321 145.347C70.8326 145.274 70.9839 145.183 71.0861 145.075C71.1861 144.962 71.1945 144.834 71.1113 144.69C71.0601 144.601 70.9875 144.543 70.8935 144.514C70.8014 144.481 70.7037 144.467 70.6006 144.473C70.4953 144.476 70.36 144.489 70.1946 144.514L70.0675 144.533C69.6557 144.585 69.3053 144.587 69.0163 144.54C68.7272 144.493 68.5134 144.35 68.3747 144.11C68.2638 143.917 68.223 143.733 68.2523 143.557C68.2835 143.376 68.37 143.215 68.5117 143.074C68.6575 142.931 68.8406 142.82 69.0612 142.74C69.3939 142.619 69.7267 142.602 70.0595 142.692C70.3902 142.777 70.6637 142.952 70.8801 143.218L70.3942 143.435ZM75.7546 142.342C75.9357 142.648 76.1473 142.855 76.3896 142.963C76.6296 143.068 76.894 143.068 77.1827 142.963C77.4834 142.853 77.6608 142.686 77.7151 142.461C77.7672 142.231 77.7004 141.956 77.5148 141.635L76.0364 139.074L76.5536 138.886L78.032 141.446C78.2923 141.897 78.3718 142.3 78.2707 142.654C78.1736 143.007 77.9005 143.265 77.4515 143.428C77.1708 143.531 76.8912 143.563 76.6126 143.526C76.3318 143.485 76.0726 143.385 75.835 143.225C75.5993 143.061 75.4046 142.845 75.251 142.579L75.7546 142.342ZM79.2384 141.108C79.3809 141.271 79.5417 141.402 79.7209 141.503C79.8979 141.599 80.0859 141.656 80.285 141.673C80.488 141.688 80.6898 141.66 80.8902 141.587C81.0546 141.527 81.1881 141.451 81.2908 141.36C81.3935 141.269 81.4554 141.166 81.4763 141.051C81.4952 140.933 81.4683 140.811 81.3958 140.685C81.2827 140.489 81.0946 140.361 80.8315 140.3C80.5703 140.234 80.2074 140.223 79.7427 140.267C79.2355 140.313 78.8296 140.286 78.5248 140.187C78.2219 140.083 77.9916 139.894 77.8337 139.62C77.7078 139.402 77.6561 139.191 77.6785 138.986C77.7009 138.781 77.7868 138.598 77.936 138.436C78.0893 138.273 78.2922 138.146 78.5448 138.054C78.8255 137.952 79.109 137.913 79.3954 137.939C79.6818 137.964 79.9486 138.048 80.1959 138.191C80.445 138.328 80.6529 138.512 80.8196 138.742L80.2976 138.972C80.1797 138.818 80.0374 138.698 79.8708 138.611C79.706 138.519 79.5323 138.466 79.3495 138.452C79.1647 138.434 78.984 138.457 78.8076 138.522C78.5871 138.602 78.4337 138.727 78.3475 138.897C78.2592 139.063 78.2683 139.239 78.375 139.423C78.4582 139.568 78.5746 139.668 78.7241 139.726C78.8737 139.783 79.0335 139.812 79.2037 139.813C79.3739 139.813 79.5924 139.801 79.859 139.775L79.9075 139.771C80.3725 139.736 80.7827 139.77 81.1382 139.873C81.4916 139.973 81.7483 140.161 81.9083 140.438C82.0427 140.671 82.0908 140.897 82.0526 141.117C82.0123 141.333 81.9064 141.523 81.7349 141.688C81.5675 141.852 81.3615 141.979 81.1169 142.068C80.8242 142.174 80.5256 142.216 80.2211 142.192C79.9205 142.168 79.6385 142.082 79.3749 141.937C79.1114 141.791 78.8918 141.592 78.7163 141.338L79.2384 141.108ZM84.417 140.893C84.0803 141.016 83.7477 141.041 83.4194 140.968C83.0952 140.894 82.7823 140.726 82.481 140.464C82.1836 140.201 81.9091 139.852 81.6574 139.416C81.4035 138.976 81.2482 138.581 81.1914 138.231C81.1365 137.875 81.1794 137.576 81.3202 137.332C81.4651 137.087 81.7059 136.903 82.0426 136.781C82.3794 136.658 82.71 136.634 83.0342 136.708C83.3625 136.781 83.6764 136.951 83.9759 137.217C84.2772 137.479 84.5549 137.829 84.8087 138.269C85.0605 138.705 85.2127 139.099 85.2655 139.451C85.3223 139.801 85.2783 140.099 85.1334 140.344C84.9926 140.588 84.7538 140.771 84.417 140.893ZM84.1482 140.428C84.3688 140.347 84.52 140.219 84.602 140.041C84.6858 139.859 84.6995 139.635 84.6432 139.369C84.5868 139.103 84.4616 138.802 84.2675 138.466C84.0712 138.126 83.8647 137.852 83.648 137.645C83.4291 137.434 83.2063 137.296 82.9796 137.231C82.7547 137.161 82.532 137.166 82.3114 137.246C82.0909 137.326 81.9388 137.458 81.8549 137.64C81.773 137.818 81.7612 138.041 81.8197 138.311C81.8761 138.576 82.0024 138.879 82.1986 139.219C82.3928 139.555 82.5982 139.827 82.8149 140.034C83.0316 140.242 83.2524 140.38 83.4773 140.451C83.7041 140.516 83.9277 140.508 84.1482 140.428ZM84.894 135.85L88.2277 138.675L86.3013 135.338L86.8245 135.147L89.0965 139.083L88.2967 139.374L85.0935 136.649L86.9495 139.864L86.4263 140.055L84.1543 136.119L84.894 135.85ZM94.591 137.163C94.2983 137.27 94.0054 137.3 93.7124 137.255C93.4234 137.208 93.1515 137.09 92.8968 136.901C92.6421 136.712 92.4263 136.465 92.2492 136.158C92.0721 135.851 91.9765 135.56 91.9624 135.283C91.9483 135.006 92.0132 134.766 92.1572 134.561C92.3052 134.356 92.5255 134.199 92.8182 134.093C93.1109 133.986 93.4017 133.956 93.6908 134.003C93.9838 134.049 94.2577 134.166 94.5124 134.355C94.767 134.544 94.9829 134.792 95.16 135.098C95.337 135.405 95.4326 135.697 95.4468 135.973C95.4609 136.25 95.3939 136.491 95.246 136.697C95.102 136.901 94.8837 137.057 94.591 137.163ZM94.335 136.72C94.6277 136.613 94.7987 136.435 94.8482 136.184C94.9016 135.932 94.8291 135.635 94.6307 135.291C94.4323 134.947 94.1955 134.709 93.9202 134.577C93.6489 134.443 93.3669 134.43 93.0742 134.536C92.7815 134.643 92.6084 134.822 92.555 135.074C92.5055 135.324 92.58 135.622 92.7784 135.965C92.9768 136.309 93.2117 136.548 93.483 136.681C93.7583 136.814 94.0423 136.827 94.335 136.72ZM98.6939 135.59L98.2747 134.863L98.37 134.903C98.4547 135.167 98.44 135.394 98.326 135.583C98.212 135.772 98.0287 135.912 97.7761 136.004C97.4353 136.128 97.1129 136.12 96.809 135.98C96.507 135.836 96.2621 135.6 96.0744 135.275L94.9832 133.385L95.4944 133.199L96.5056 134.951C96.6677 135.232 96.8414 135.423 97.0268 135.526C97.2121 135.628 97.419 135.638 97.6475 135.555C97.9001 135.463 98.059 135.318 98.1241 135.12C98.1871 134.918 98.1408 134.682 97.985 134.412L96.9738 132.661L97.479 132.477L99.175 135.414L98.6939 135.59ZM99.1937 130.914L100.871 133.818C100.943 133.944 101.036 134.028 101.148 134.072C101.261 134.116 101.384 134.114 101.516 134.066L102.37 133.755L102.607 134.165L101.753 134.476C101.44 134.59 101.167 134.605 100.933 134.52C100.702 134.429 100.513 134.257 100.365 134.002L98.6886 131.098L99.1937 130.914ZM100.917 131.226L101.154 131.636L98.4592 132.616L98.2224 132.206L100.917 131.226ZM101.72 130.933L102.177 130.767L102.566 131.39L102.458 131.315C102.425 131.09 102.467 130.894 102.583 130.726C102.7 130.559 102.885 130.429 103.137 130.337C103.442 130.226 103.737 130.204 104.023 130.27C104.31 130.33 104.571 130.459 104.806 130.655C105.04 130.852 105.239 131.09 105.401 131.371C105.563 131.652 105.661 131.927 105.695 132.196C105.729 132.465 105.683 132.708 105.555 132.924C105.43 133.136 105.215 133.297 104.91 133.408C104.742 133.469 104.575 133.5 104.411 133.502C104.247 133.503 104.091 133.476 103.941 133.418C103.795 133.359 103.66 133.272 103.535 133.157L103.557 133.055L104.401 134.518L103.896 134.702L101.72 130.933ZM103.019 132.238C103.13 132.43 103.266 132.598 103.426 132.74C103.59 132.882 103.77 132.98 103.966 133.033C104.164 133.082 104.365 133.069 104.57 132.995C104.879 132.882 105.048 132.693 105.079 132.427C105.11 132.161 105.037 131.875 104.86 131.568C104.683 131.261 104.457 131.03 104.183 130.875C103.909 130.72 103.618 130.699 103.309 130.811C103.105 130.885 102.962 131 102.881 131.154C102.803 131.304 102.777 131.474 102.805 131.665C102.837 131.855 102.908 132.046 103.019 132.238ZM108.881 131.882L108.461 131.156L108.557 131.195C108.641 131.459 108.627 131.686 108.513 131.875C108.399 132.064 108.215 132.205 107.963 132.296C107.622 132.42 107.3 132.413 106.996 132.273C106.694 132.128 106.449 131.893 106.261 131.568L105.17 129.678L105.681 129.492L106.692 131.243C106.854 131.524 107.028 131.715 107.213 131.818C107.399 131.92 107.606 131.93 107.834 131.847C108.087 131.755 108.246 131.61 108.311 131.412C108.374 131.21 108.328 130.974 108.172 130.705L107.161 128.953L107.666 128.769L109.362 131.707L108.881 131.882ZM109.38 127.206L111.057 130.11C111.13 130.236 111.222 130.321 111.335 130.365C111.448 130.409 111.57 130.407 111.703 130.358L112.557 130.048L112.793 130.458L111.939 130.769C111.627 130.882 111.354 130.897 111.12 130.812C110.889 130.722 110.699 130.549 110.552 130.294L108.875 127.39L109.38 127.206ZM111.103 127.518L111.34 127.928L108.646 128.909L108.409 128.499L111.103 127.518ZM113.963 128.657C113.842 128.446 113.771 128.24 113.751 128.037C113.729 127.83 113.769 127.623 113.873 127.416L113.979 127.222C114.041 127.111 114.086 127.02 114.114 126.952C114.145 126.878 114.159 126.802 114.156 126.722C114.152 126.639 114.123 126.551 114.07 126.459C113.965 126.269 113.798 126.144 113.569 126.084C113.345 126.023 113.104 126.039 112.848 126.132C112.607 126.22 112.447 126.367 112.368 126.575C112.293 126.781 112.312 127.015 112.425 127.278L111.865 127.442C111.748 127.19 111.697 126.946 111.713 126.713C111.73 126.474 111.811 126.265 111.956 126.088C112.103 125.905 112.3 125.768 112.549 125.677C112.825 125.577 113.1 125.535 113.372 125.552C113.641 125.566 113.885 125.634 114.101 125.756C114.317 125.879 114.487 126.047 114.611 126.262C114.686 126.391 114.729 126.52 114.741 126.65C114.753 126.78 114.733 126.919 114.683 127.067C114.633 127.215 114.55 127.379 114.436 127.559L114.433 127.567C114.342 127.712 114.3 127.862 114.306 128.016C114.315 128.165 114.365 128.319 114.456 128.477L113.963 128.657ZM114.853 128.937L115.221 129.574L114.511 129.833L114.143 129.195L114.853 128.937Z" fill="#A7A7A0"/>
<path d="M81.3155 171.838L82.0131 171.584L85.5841 175.046L85.0549 175.239L81.9043 172.127L82.8177 176.053L82.2884 176.246L81.3155 171.838ZM82.2976 174.888L82.2284 174.39L83.8522 173.799L84.2822 174.165L82.2976 174.888ZM84.8661 171.753L85.3221 172.492L85.2208 172.455C85.1318 172.184 85.1433 171.952 85.2552 171.759C85.3711 171.565 85.5594 171.42 85.82 171.325C86.1688 171.198 86.4952 171.205 86.7991 171.344C87.103 171.484 87.3498 171.719 87.5397 172.047L88.6309 173.937L88.1257 174.121L87.1113 172.364C86.9513 172.087 86.7767 171.898 86.5873 171.797C86.402 171.695 86.1911 171.686 85.9546 171.773C85.6939 171.867 85.5301 172.016 85.4631 172.22C85.398 172.418 85.4422 172.65 85.5958 172.916L86.6102 174.673L86.105 174.857L84.409 171.919L84.8661 171.753ZM90.3381 170.861C90.2081 170.712 90.0392 170.617 89.8314 170.576C89.6236 170.535 89.4154 170.553 89.207 170.629C89.0305 170.693 88.9016 170.789 88.8203 170.917C88.7429 171.044 88.7479 171.178 88.8351 171.321C88.9097 171.45 89.0213 171.526 89.1699 171.548C89.3203 171.565 89.5186 171.56 89.765 171.533L89.868 171.522C90.1548 171.489 90.4004 171.473 90.6051 171.475C90.8138 171.475 91.0073 171.512 91.1857 171.586C91.366 171.654 91.5062 171.775 91.6065 171.949C91.7622 172.219 91.7573 172.466 91.5917 172.692C91.43 172.916 91.1768 173.091 90.832 173.217C90.5874 173.306 90.3394 173.347 90.088 173.34C89.8366 173.333 89.6041 173.279 89.3905 173.178C89.1787 173.072 89.0092 172.921 88.882 172.726L89.386 172.502C89.4743 172.613 89.5822 172.699 89.7095 172.76C89.8388 172.816 89.9774 172.846 90.1254 172.85C90.2775 172.853 90.4277 172.827 90.576 172.773C90.7765 172.7 90.9278 172.61 91.03 172.501C91.13 172.388 91.1385 172.26 91.0553 172.116C91.0041 172.027 90.9315 171.969 90.8374 171.94C90.7453 171.907 90.6477 171.893 90.5445 171.899C90.4392 171.902 90.3039 171.915 90.1385 171.94L90.0114 171.959C89.5996 172.011 89.2492 172.013 88.9602 171.966C88.6711 171.92 88.4573 171.776 88.3186 171.536C88.2077 171.344 88.1669 171.16 88.1962 170.983C88.2274 170.802 88.3139 170.641 88.4556 170.5C88.6014 170.358 88.7846 170.246 89.0051 170.166C89.3379 170.045 89.6706 170.029 90.0035 170.118C90.3341 170.203 90.6077 170.379 90.8241 170.644L90.3381 170.861ZM94.4951 171.045L93.5937 168.576L94.123 168.384L95.1695 171.558L94.556 171.781L93.0862 170.143L93.69 172.096L93.0766 172.319L90.7311 169.618L91.2603 169.426L93.0277 171.579L92.3804 169.487L92.9217 169.29L94.4951 171.045ZM95.2633 169.746C95.0863 169.439 94.9907 169.148 94.9765 168.871C94.9624 168.595 95.0294 168.353 95.1773 168.147C95.3253 167.942 95.5457 167.785 95.8383 167.679C96.0829 167.59 96.3353 167.56 96.5955 167.591C96.8597 167.62 97.12 167.722 97.3763 167.897C97.6304 168.068 97.8615 168.317 98.0696 168.644L98.1972 168.853L95.8878 169.693C96.0806 169.985 96.3052 170.185 96.5616 170.293C96.818 170.401 97.0825 170.405 97.3551 170.306C97.5275 170.243 97.6594 170.144 97.7506 170.008C97.8438 169.867 97.8816 169.705 97.8642 169.524L98.4278 169.366C98.4935 169.673 98.451 169.952 98.3003 170.203C98.1496 170.455 97.9199 170.637 97.6111 170.749C97.3185 170.856 97.0256 170.886 96.7325 170.841C96.4395 170.796 96.1656 170.679 95.9109 170.49C95.6563 170.301 95.4404 170.053 95.2633 169.746ZM97.4071 168.644C97.1966 168.372 96.9778 168.199 96.7508 168.125C96.5257 168.046 96.3068 168.045 96.0943 168.122C95.8417 168.214 95.6789 168.361 95.6057 168.562C95.5325 168.763 95.5496 169.002 95.657 169.281L97.4071 168.644ZM99.1641 166.549L99.669 167.297L99.5893 167.273C99.4864 167.011 99.469 166.796 99.5371 166.628C99.6051 166.46 99.7595 166.332 100 166.245L100.637 166.013L100.874 166.423L100.237 166.655C100.076 166.713 99.9592 166.792 99.8851 166.89C99.815 166.987 99.7869 167.102 99.8009 167.236C99.8149 167.369 99.871 167.521 99.9691 167.691L100.98 169.443L100.475 169.626L98.7792 166.689L99.1641 166.549ZM99.0618 166.586L99.2986 166.996L98.186 167.401L97.9492 166.991L99.0618 166.586ZM101.784 168.654L102.021 169.064L99.6452 169.929L99.4084 169.518L101.784 168.654ZM107.757 167.084C107.42 167.206 107.087 167.231 106.759 167.158C106.435 167.084 106.122 166.916 105.82 166.655C105.523 166.392 105.249 166.042 104.997 165.606C104.743 165.167 104.588 164.772 104.531 164.421C104.476 164.065 104.519 163.766 104.66 163.522C104.805 163.277 105.045 163.094 105.382 162.971C105.719 162.848 106.049 162.824 106.374 162.898C106.702 162.971 107.016 163.141 107.315 163.408C107.617 163.669 107.894 164.02 108.148 164.459C108.4 164.895 108.552 165.289 108.605 165.641C108.662 165.992 108.618 166.289 108.473 166.534C108.332 166.778 108.093 166.961 107.757 167.084ZM107.488 166.618C107.708 166.538 107.859 166.409 107.941 166.232C108.025 166.049 108.039 165.825 107.983 165.559C107.926 165.294 107.801 164.993 107.607 164.656C107.411 164.316 107.204 164.043 106.987 163.835C106.769 163.624 106.546 163.486 106.319 163.421C106.094 163.351 105.871 163.356 105.651 163.437C105.43 163.517 105.278 163.648 105.194 163.831C105.112 164.008 105.101 164.232 105.159 164.501C105.216 164.767 105.342 165.069 105.538 165.409C105.732 165.746 105.938 166.017 106.154 166.225C106.371 166.432 106.592 166.571 106.817 166.641C107.044 166.706 107.267 166.698 107.488 166.618ZM107.377 165.719L109.406 166.839L108.822 167.051L106.793 165.932L107.377 165.719ZM111.847 165.488L111.427 164.761L111.523 164.801C111.607 165.065 111.593 165.292 111.479 165.481C111.365 165.67 111.181 165.81 110.929 165.902C110.588 166.026 110.266 166.018 109.962 165.878C109.66 165.734 109.415 165.498 109.227 165.173L108.136 163.283L108.647 163.097L109.658 164.849C109.82 165.13 109.994 165.321 110.18 165.424C110.365 165.526 110.572 165.536 110.8 165.453C111.053 165.361 111.212 165.216 111.277 165.018C111.34 164.816 111.294 164.58 111.138 164.31L110.127 162.559L110.632 162.375L112.328 165.312L111.847 165.488ZM111.941 162.945C111.841 162.646 111.862 162.368 112.004 162.11C112.145 161.849 112.379 161.658 112.708 161.539C113.105 161.394 113.478 161.386 113.829 161.513C114.179 161.641 114.469 161.904 114.699 162.303L115.381 163.484C115.417 163.546 115.46 163.587 115.509 163.605C115.558 163.622 115.617 163.619 115.685 163.594L115.811 163.548L116.048 163.958L115.892 164.015C115.703 164.084 115.527 164.099 115.364 164.06C115.203 164.016 115.069 163.93 114.962 163.804C114.977 163.973 114.926 164.141 114.809 164.309C114.691 164.473 114.511 164.598 114.27 164.686C113.942 164.806 113.623 164.83 113.315 164.759C113.011 164.686 112.786 164.522 112.638 164.267C112.527 164.075 112.487 163.904 112.517 163.755C112.551 163.603 112.635 163.468 112.77 163.347C112.904 163.227 113.092 163.094 113.332 162.948L114.165 162.437C114.021 162.195 113.845 162.037 113.638 161.965C113.429 161.889 113.205 161.895 112.964 161.982C112.768 162.054 112.63 162.164 112.551 162.313C112.47 162.459 112.455 162.617 112.504 162.787L111.941 162.945ZM113.168 164.074C113.24 164.2 113.358 164.282 113.521 164.321C113.682 164.357 113.875 164.333 114.1 164.252C114.274 164.184 114.411 164.089 114.511 163.968C114.608 163.843 114.658 163.698 114.659 163.532C114.662 163.361 114.609 163.181 114.501 162.992L114.417 162.848L113.736 163.244C113.702 163.261 113.669 163.279 113.637 163.3C113.474 163.395 113.351 163.476 113.268 163.542C113.182 163.604 113.127 163.68 113.101 163.77C113.077 163.855 113.099 163.956 113.168 164.074ZM119.207 162.312L119.444 162.722L116.587 163.762L116.35 163.352L119.207 162.312ZM117.82 163.313L115.983 160.132C115.915 160.014 115.837 159.937 115.749 159.902C115.66 159.867 115.554 159.872 115.43 159.918L114.672 160.193L114.435 159.783L115.193 159.507C115.47 159.407 115.72 159.394 115.943 159.469C116.166 159.545 116.347 159.704 116.488 159.948L118.325 163.13L117.82 163.313ZM120.055 158.945L121.751 161.883L121.246 162.067L119.55 159.129L120.055 158.945ZM120.055 158.945L120.292 159.355L118.644 159.955L118.407 159.545L120.055 158.945ZM122.602 161.076L122.839 161.487L119.983 162.526L119.746 162.116L122.602 161.076ZM119.479 157.948L119.802 158.507L119.231 158.715L118.907 158.155L119.479 157.948ZM122.533 157.104L124.21 160.008C124.283 160.134 124.375 160.219 124.488 160.263C124.601 160.307 124.723 160.305 124.855 160.256L125.709 159.946L125.946 160.356L125.092 160.667C124.779 160.78 124.506 160.795 124.273 160.71C124.041 160.62 123.852 160.447 123.705 160.192L122.028 157.288L122.533 157.104ZM124.256 157.416L124.493 157.826L121.799 158.807L121.562 158.397L124.256 157.416ZM125.463 156.977L127.827 159.068L127.345 156.292L127.88 156.097L128.504 159.874C128.535 160.055 128.514 160.204 128.441 160.32C128.367 160.436 128.24 160.527 128.06 160.593L127.675 160.733L127.438 160.323L127.769 160.202C127.849 160.173 127.903 160.133 127.932 160.082C127.965 160.03 127.976 159.964 127.963 159.883L127.921 159.57L127.746 159.634L124.921 157.174L125.463 156.977Z" fill="#A7A7A0"/>
<rect x="0.287939" y="0.104801" width="111.6" height="15.6" transform="matrix(0.939693 -0.34202 0.5 0.866025 69.3861 154.4)" fill="url(#pattern1_4481_14013)" fill-opacity="0.2"/>
<rect x="0.287939" y="0.104801" width="111.6" height="15.6" transform="matrix(0.939693 -0.34202 0.5 0.866025 69.3861 154.4)" stroke="#CFCFC9" stroke-width="0.4"/>
<rect width="87.2" height="15.2218" transform="matrix(0.939693 -0.34202 0.5 0.866025 69.9971 154.497)" fill="#F6F6F3"/>
<path d="M120.936 147.199C120.575 147.33 120.217 147.388 119.862 147.372C119.507 147.356 119.184 147.269 118.894 147.112C118.6 146.951 118.368 146.722 118.198 146.427C118.024 146.126 117.963 145.83 118.012 145.538C118.059 145.242 118.211 144.974 118.468 144.735C118.158 144.725 117.889 144.664 117.661 144.551C117.434 144.432 117.251 144.251 117.109 144.006C116.963 143.752 116.903 143.497 116.931 143.241C116.957 142.98 117.061 142.746 117.245 142.539C117.426 142.328 117.667 142.168 117.968 142.058C118.274 141.947 118.587 141.906 118.907 141.935C119.224 141.959 119.513 142.05 119.773 142.206C120.036 142.357 120.24 142.559 120.387 142.813C120.526 143.053 120.575 143.281 120.536 143.496C120.502 143.71 120.389 143.913 120.197 144.106C120.594 144.112 120.949 144.196 121.26 144.356C121.571 144.517 121.813 144.747 121.987 145.048C122.157 145.343 122.224 145.632 122.186 145.914C122.146 146.191 122.018 146.442 121.802 146.666C121.586 146.89 121.297 147.068 120.936 147.199ZM118.846 146.132C119.004 146.404 119.246 146.587 119.573 146.681C119.902 146.768 120.244 146.747 120.6 146.617C120.956 146.488 121.197 146.296 121.324 146.043C121.453 145.784 121.439 145.518 121.282 145.245C121.178 145.065 121.033 144.925 120.848 144.825C120.668 144.723 120.462 144.666 120.232 144.655C120.001 144.644 119.768 144.682 119.532 144.767C119.297 144.853 119.109 144.969 118.969 145.115C118.829 145.261 118.746 145.422 118.721 145.599C118.7 145.774 118.742 145.952 118.846 146.132ZM117.786 143.76C117.871 143.907 117.987 144.024 118.134 144.111C118.286 144.195 118.453 144.243 118.636 144.255C118.819 144.267 119.003 144.239 119.188 144.171C119.374 144.104 119.52 144.011 119.628 143.894C119.736 143.776 119.797 143.645 119.811 143.501C119.829 143.354 119.796 143.207 119.71 143.059C119.625 142.911 119.506 142.795 119.355 142.711C119.205 142.62 119.039 142.568 118.856 142.557C118.674 142.545 118.49 142.573 118.304 142.64C118.119 142.708 117.972 142.8 117.864 142.918C117.756 143.035 117.694 143.17 117.678 143.321C117.665 143.466 117.701 143.612 117.786 143.76ZM122.822 139.931L123.476 139.693L124.687 146.454L124.033 146.692L122.822 139.931ZM130.972 142.708L131.308 143.29L127.542 144.661L127.206 144.079L130.972 142.708ZM126.089 140.159C126.375 140.055 126.548 139.919 126.609 139.752C126.67 139.584 126.623 139.366 126.468 139.099L126.972 138.915L129.812 143.834L129.166 144.07L127.062 140.425L125.738 140.907L125.442 140.394L126.089 140.159ZM132.534 137.729L132.45 142.044L131.826 142.271L131.91 137.957L132.534 137.729ZM133.67 142.564C133.284 142.705 132.888 142.723 132.482 142.619C132.076 142.515 131.685 142.3 131.309 141.973C130.934 141.64 130.596 141.212 130.295 140.691C129.991 140.164 129.802 139.679 129.729 139.237C129.66 138.792 129.708 138.414 129.874 138.102C130.04 137.79 130.316 137.564 130.702 137.424C131.087 137.283 131.483 137.265 131.889 137.369C132.295 137.473 132.685 137.691 133.059 138.025C133.438 138.356 133.78 138.785 134.084 139.312C134.385 139.833 134.57 140.317 134.639 140.761C134.71 141.199 134.663 141.574 134.497 141.886C134.331 142.198 134.055 142.424 133.67 142.564ZM133.334 141.982C133.579 141.893 133.745 141.735 133.832 141.507C133.925 141.278 133.935 140.998 133.865 140.666C133.792 140.329 133.639 139.96 133.407 139.558C133.173 139.151 132.919 138.816 132.645 138.552C132.371 138.289 132.095 138.11 131.816 138.016C131.543 137.92 131.283 137.916 131.038 138.006C130.792 138.095 130.623 138.254 130.531 138.483C130.444 138.711 130.437 138.993 130.51 139.33C130.583 139.666 130.737 140.038 130.972 140.444C131.204 140.846 131.456 141.179 131.73 141.443C132.001 141.702 132.273 141.879 132.547 141.975C132.826 142.069 133.088 142.072 133.334 141.982Z" fill="#6B6B66"/>
<line y1="-0.2" x2="7.2" y2="-0.2" transform="matrix(0.5 0.866025 -0.939693 0.34202 73.8212 161.908)" stroke="#CFCFC9" stroke-width="0.4"/>
<line y1="-0.2" x2="3.2" y2="-0.2" transform="matrix(0.5 0.866025 -0.939693 0.34202 90.8293 159.91)" stroke="#CFCFC9" stroke-width="0.4"/>
<line y1="-0.2" x2="3.2" y2="-0.2" transform="matrix(0.5 0.866025 -0.939693 0.34202 105.838 154.447)" stroke="#CFCFC9" stroke-width="0.4"/>
<line y1="-0.2" x2="3.2" y2="-0.2" transform="matrix(0.5 0.866025 -0.939693 0.34202 120.846 148.984)" stroke="#CFCFC9" stroke-width="0.4"/>
<line y1="-0.2" x2="3.2" y2="-0.2" transform="matrix(0.5 0.866025 -0.939693 0.34202 135.854 143.522)" stroke="#CFCFC9" stroke-width="0.4"/>
<line y1="-0.2" x2="3.2" y2="-0.2" transform="matrix(0.5 0.866025 -0.939693 0.34202 150.862 138.06)" stroke="#CFCFC9" stroke-width="0.4"/>
<line y1="-0.2" x2="3.2" y2="-0.2" transform="matrix(0.5 0.866025 -0.939693 0.34202 165.871 132.597)" stroke="#CFCFC9" stroke-width="0.4"/>
<line y1="-0.2" x2="7.2" y2="-0.2" transform="matrix(0.5 0.866025 -0.939693 0.34202 178.879 123.67)" stroke="#CFCFC9" stroke-width="0.4"/>
<g filter="url(#filter1_dd_4481_14013)">
<path d="M98.1364 93.5366L110.337 114.668L61.0963 132.59L48.8961 111.459L98.1364 93.5366Z" fill="#F6F6F3"/>
<path d="M98.1364 93.5366L110.337 114.668L61.0963 132.59L48.8961 111.459L98.1364 93.5366Z" fill="white" fill-opacity="0.9"/>
<path d="M98.1364 93.5366L110.337 114.668L61.0963 132.59L48.8961 111.459L98.1364 93.5366Z" stroke="#CFCFC9" stroke-width="0.4"/>
<path d="M73.8875 113.044L72.2637 113.635L74.7677 117.972L74.1212 118.208L71.6172 113.871L69.9934 114.462L69.6574 113.88L73.5515 112.462L73.8875 113.044ZM76.5013 112.898L77.1325 113.834L77.0328 113.803C76.9043 113.475 76.8825 113.206 76.9676 112.997C77.0526 112.787 77.2455 112.627 77.5462 112.518L78.3431 112.228L78.6391 112.74L77.8422 113.03C77.6418 113.103 77.4952 113.201 77.4026 113.324C77.3149 113.446 77.2799 113.59 77.2974 113.757C77.3149 113.924 77.385 114.113 77.5076 114.326L78.7716 116.515L78.1402 116.745L76.0202 113.073L76.5013 112.898ZM76.3735 112.944L76.6695 113.457L75.2787 113.963L74.9827 113.451L76.3735 112.944ZM79.7762 115.529L80.0722 116.042L77.1027 117.123L76.8067 116.61L79.7762 115.529ZM83.8656 114.661L83.3416 113.754L83.4608 113.802C83.5666 114.133 83.5483 114.416 83.4057 114.652C83.2632 114.889 83.034 115.064 82.7183 115.179C82.2923 115.334 81.8894 115.325 81.5095 115.15C81.132 114.969 80.8259 114.675 80.5912 114.268L79.2272 111.906L79.8662 111.673L81.1302 113.863C81.3329 114.214 81.55 114.453 81.7817 114.581C82.0133 114.709 82.272 114.721 82.5576 114.617C82.8734 114.502 83.0719 114.321 83.1534 114.074C83.2321 113.821 83.1742 113.527 82.9795 113.189L81.7155 111L82.347 110.77L84.467 114.442L83.8656 114.661ZM84.3588 112.26C84.1375 111.876 84.018 111.512 84.0003 111.166C83.9827 110.821 84.0663 110.519 84.2513 110.262C84.4363 110.004 84.7117 109.809 85.0776 109.676C85.3833 109.565 85.6987 109.528 86.024 109.566C86.3543 109.602 86.6796 109.73 87 109.949C87.3177 110.163 87.6065 110.474 87.8666 110.883L88.0261 111.143L85.1394 112.194C85.3804 112.559 85.6612 112.809 85.9817 112.944C86.3021 113.078 86.6328 113.084 86.9736 112.96C87.1891 112.881 87.3538 112.757 87.4679 112.587C87.5843 112.411 87.6317 112.209 87.6099 111.982L88.3144 111.784C88.3965 112.168 88.3434 112.517 88.155 112.832C87.9666 113.146 87.6795 113.374 87.2936 113.514C86.9277 113.647 86.5616 113.685 86.1953 113.629C85.829 113.572 85.4867 113.426 85.1683 113.189C84.85 112.953 84.5801 112.643 84.3588 112.26ZM87.0385 110.882C86.7754 110.542 86.5019 110.326 86.2181 110.233C85.9367 110.134 85.6632 110.133 85.3976 110.23C85.0818 110.345 84.8782 110.528 84.7868 110.779C84.6953 111.031 84.7167 111.33 84.8509 111.678L87.0385 110.882Z" fill="#222220"/>
<path d="M110.376 114.434L110.458 120.895L61.0381 138.889L60.9785 132.225L110.376 114.434Z" fill="#F6F6F3" stroke="#CFCFC9" stroke-width="0.4" stroke-linejoin="round"/>
<path d="M48.9935 111.456L49.0333 118.473L61.0722 139.085L61.0325 132.167L48.9935 111.456Z" fill="#F6F6F3" stroke="#CFCFC9" stroke-width="0.4" stroke-linejoin="round"/>
<path d="M48.8718 111.6V118.4L60.9205 139.013L110.367 121.045V114.245L98.3183 93.6329L48.8718 111.6Z" stroke="#404039" stroke-width="0.8" stroke-linejoin="round"/>
</g>
</g>
<defs>
<filter id="filter0_n_4481_14013" x="-41.2527" y="0" width="296.505" height="217.366" filterUnits="userSpaceOnUse" color-interpolation-filters="sRGB">
<feFlood flood-opacity="0" result="BackgroundImageFix"/>
<feBlend mode="normal" in="SourceGraphic" in2="BackgroundImageFix" result="shape"/>
<feTurbulence type="fractalNoise" baseFrequency="2 2" stitchTiles="stitch" numOctaves="3" result="noise" seed="1471" />
<feColorMatrix in="noise" type="luminanceToAlpha" result="alphaNoise" />
<feComponentTransfer in="alphaNoise" result="coloredNoise1">
<feFuncA type="discrete" tableValues="0 0 0 0 1 1 1 1 1 1 1 1 1 1 1 1 1 1 1 1 1 1 1 1 1 1 1 1 1 1 1 1 1 1 1 1 1 1 1 1 1 1 1 1 1 0 0 0 0 0 0 0 0 0 0 0 0 0 0 0 0 0 0 0 0 0 0 0 0 0 0 0 0 0 0 0 0 0 0 0 0 0 0 0 0 0 0 0 0 0 0 0 0 0 0 0 0 0 0 0 "/>
</feComponentTransfer>
<feComposite operator="in" in2="shape" in="coloredNoise1" result="noise1Clipped" />
<feFlood flood-color="rgba(207, 207, 201, 0.15)" result="color1Flood" />
<feComposite operator="in" in2="noise1Clipped" in="color1Flood" result="color1" />
<feMerge result="effect1_noise_4481_14013">
<feMergeNode in="shape" />
<feMergeNode in="color1" />
</feMerge>
</filter>
<filter id="filter1_dd_4481_14013" x="40.4718" y="89.2324" width="78.2952" height="62.1807" filterUnits="userSpaceOnUse" color-interpolation-filters="sRGB">
<feFlood flood-opacity="0" result="BackgroundImageFix"/>
<feColorMatrix in="SourceAlpha" type="matrix" values="0 0 0 0 0 0 0 0 0 0 0 0 0 0 0 0 0 0 127 0" result="hardAlpha"/>
<feOffset dy="4"/>
<feGaussianBlur stdDeviation="2"/>
<feComposite in2="hardAlpha" operator="out"/>
<feColorMatrix type="matrix" values="0 0 0 0 0 0 0 0 0 0 0 0 0 0 0 0 0 0 0.03 0"/>
<feBlend mode="normal" in2="BackgroundImageFix" result="effect1_dropShadow_4481_14013"/>
<feColorMatrix in="SourceAlpha" type="matrix" values="0 0 0 0 0 0 0 0 0 0 0 0 0 0 0 0 0 0 127 0" result="hardAlpha"/>
<feOffset dy="4"/>
<feGaussianBlur stdDeviation="4"/>
<feComposite in2="hardAlpha" operator="out"/>
<feColorMatrix type="matrix" values="0 0 0 0 0 0 0 0 0 0 0 0 0 0 0 0 0 0 0.05 0"/>
<feBlend mode="normal" in2="effect1_dropShadow_4481_14013" result="effect2_dropShadow_4481_14013"/>
<feBlend mode="normal" in="SourceGraphic" in2="effect2_dropShadow_4481_14013" result="shape"/>
</filter>
<clipPath id="clip1_4481_14013">
<rect width="8" height="8" fill="white" transform="matrix(0.939693 -0.34202 0.5 0.866025 115.071 59.8311)"/>
</clipPath>
<pattern id="pattern0_4481_14013" patternUnits="userSpaceOnUse" patternTransform="matrix(160 0 0 160 35.2 -1.19209e-06)" preserveAspectRatio="none" viewBox="0 0 400 400" width="1" height="1">
<g id="pattern0_4481_14013_inner">
<g clip-path="url(#clip0_4481_14013)">
<path d="M0 0V400" stroke="#EFECE2"/>
<path d="M40 0V400" stroke="#EFECE2"/>
<path d="M80 0V400" stroke="#EFECE2"/>
<path d="M120 0V400" stroke="#EFECE2"/>
<path d="M160 0V400" stroke="#EFECE2"/>
<path d="M200 0V400" stroke="#EFECE2"/>
<path d="M240 0V400" stroke="#EFECE2"/>
<path d="M280 0V400" stroke="#EFECE2"/>
<path d="M320 0V400" stroke="#EFECE2"/>
<path d="M360 0V400" stroke="#EFECE2"/>
<path d="M400 0V400" stroke="#EFECE2"/>
<path d="M0 400L400 400" stroke="#EFECE2"/>
<path d="M0 360L400 360" stroke="#EFECE2"/>
<path d="M0 320L400 320" stroke="#EFECE2"/>
<path d="M0 280L400 280" stroke="#EFECE2"/>
<path d="M0 240L400 240" stroke="#EFECE2"/>
<path d="M0 200L400 200" stroke="#EFECE2"/>
<path d="M0 160L400 160" stroke="#EFECE2"/>
<path d="M0 120L400 120" stroke="#EFECE2"/>
<path d="M0 80L400 80" stroke="#EFECE2"/>
<path d="M0 40L400 40" stroke="#EFECE2"/>
<path d="M0 0L400 -1.74846e-05" stroke="#EFECE2"/>
</g>
</g>
</pattern><pattern id="pattern1_4481_14013" patternUnits="userSpaceOnUse" patternTransform="matrix(218.88 0 0 60.7157 0 0)" preserveAspectRatio="none" viewBox="0 0 342 94.8683" width="1" height="1">
<g id="pattern1_4481_14013_inner">
<g clip-path="url(#clip2_4481_14013)">
<line x1="0.582461" y1="0.141421" x2="-94.2859" y2="95.0098" stroke="#6C6760" stroke-width="0.4"/>
<line x1="3.45079" y1="0.141421" x2="-91.4175" y2="95.0098" stroke="#6C6760" stroke-width="0.4"/>
<line x1="6.31913" y1="0.141421" x2="-88.5492" y2="95.0098" stroke="#6C6760" stroke-width="0.4"/>
<line x1="9.18744" y1="0.141421" x2="-85.6809" y2="95.0098" stroke="#6C6760" stroke-width="0.4"/>
<line x1="12.0558" y1="0.141421" x2="-82.8126" y2="95.0098" stroke="#6C6760" stroke-width="0.4"/>
<line x1="14.9241" y1="0.141421" x2="-79.9442" y2="95.0098" stroke="#6C6760" stroke-width="0.4"/>
<line x1="17.7924" y1="0.141421" x2="-77.0759" y2="95.0098" stroke="#6C6760" stroke-width="0.4"/>
<line x1="20.6607" y1="0.141421" x2="-74.2076" y2="95.0098" stroke="#6C6760" stroke-width="0.4"/>
<line x1="23.5291" y1="0.141421" x2="-71.3393" y2="95.0098" stroke="#6C6760" stroke-width="0.4"/>
<line x1="26.3974" y1="0.141421" x2="-68.4709" y2="95.0098" stroke="#6C6760" stroke-width="0.4"/>
<line x1="29.2657" y1="0.141421" x2="-65.6026" y2="95.0098" stroke="#6C6760" stroke-width="0.4"/>
<line x1="32.134" y1="0.141421" x2="-62.7343" y2="95.0098" stroke="#6C6760" stroke-width="0.4"/>
<line x1="35.0024" y1="0.141421" x2="-59.866" y2="95.0098" stroke="#6C6760" stroke-width="0.4"/>
<line x1="37.8707" y1="0.141421" x2="-56.9976" y2="95.0098" stroke="#6C6760" stroke-width="0.4"/>
<line x1="40.739" y1="0.141421" x2="-54.1293" y2="95.0098" stroke="#6C6760" stroke-width="0.4"/>
<line x1="43.6073" y1="0.141421" x2="-51.261" y2="95.0098" stroke="#6C6760" stroke-width="0.4"/>
<line x1="46.4756" y1="0.141421" x2="-48.3927" y2="95.0098" stroke="#6C6760" stroke-width="0.4"/>
<line x1="49.344" y1="0.141421" x2="-45.5243" y2="95.0098" stroke="#6C6760" stroke-width="0.4"/>
<line x1="52.2123" y1="0.141421" x2="-42.656" y2="95.0098" stroke="#6C6760" stroke-width="0.4"/>
<line x1="55.0806" y1="0.141421" x2="-39.7877" y2="95.0098" stroke="#6C6760" stroke-width="0.4"/>
<line x1="57.949" y1="0.141421" x2="-36.9194" y2="95.0098" stroke="#6C6760" stroke-width="0.4"/>
<line x1="60.8173" y1="0.141421" x2="-34.051" y2="95.0098" stroke="#6C6760" stroke-width="0.4"/>
<line x1="63.6856" y1="0.141421" x2="-31.1827" y2="95.0098" stroke="#6C6760" stroke-width="0.4"/>
<line x1="66.5539" y1="0.141421" x2="-28.3144" y2="95.0098" stroke="#6C6760" stroke-width="0.4"/>
<line x1="69.4223" y1="0.141421" x2="-25.4461" y2="95.0098" stroke="#6C6760" stroke-width="0.4"/>
<line x1="72.2906" y1="0.141421" x2="-22.5778" y2="95.0098" stroke="#6C6760" stroke-width="0.4"/>
<line x1="75.1589" y1="0.141421" x2="-19.7094" y2="95.0098" stroke="#6C6760" stroke-width="0.4"/>
<line x1="78.0272" y1="0.141421" x2="-16.8411" y2="95.0098" stroke="#6C6760" stroke-width="0.4"/>
<line x1="80.8955" y1="0.141421" x2="-13.9728" y2="95.0098" stroke="#6C6760" stroke-width="0.4"/>
<line x1="83.7639" y1="0.141421" x2="-11.1045" y2="95.0098" stroke="#6C6760" stroke-width="0.4"/>
<line x1="86.6322" y1="0.141421" x2="-8.23613" y2="95.0098" stroke="#6C6760" stroke-width="0.4"/>
<line x1="89.5005" y1="0.141421" x2="-5.36781" y2="95.0098" stroke="#6C6760" stroke-width="0.4"/>
<line x1="92.3688" y1="0.141421" x2="-2.49948" y2="95.0098" stroke="#6C6760" stroke-width="0.4"/>
<line x1="95.2372" y1="0.141421" x2="0.368843" y2="95.0098" stroke="#6C6760" stroke-width="0.4"/>
<line x1="98.1055" y1="0.141421" x2="3.23717" y2="95.0098" stroke="#6C6760" stroke-width="0.4"/>
<line x1="100.974" y1="0.141421" x2="6.10549" y2="95.0098" stroke="#6C6760" stroke-width="0.4"/>
<line x1="103.842" y1="0.141421" x2="8.97382" y2="95.0098" stroke="#6C6760" stroke-width="0.4"/>
<line x1="106.71" y1="0.141421" x2="11.8421" y2="95.0098" stroke="#6C6760" stroke-width="0.4"/>
<line x1="109.579" y1="0.141421" x2="14.7105" y2="95.0098" stroke="#6C6760" stroke-width="0.4"/>
<line x1="112.447" y1="0.141421" x2="17.5788" y2="95.0098" stroke="#6C6760" stroke-width="0.4"/>
<line x1="115.315" y1="0.141421" x2="20.4471" y2="95.0098" stroke="#6C6760" stroke-width="0.4"/>
<line x1="118.184" y1="0.141421" x2="23.3154" y2="95.0098" stroke="#6C6760" stroke-width="0.4"/>
<line x1="121.052" y1="0.141421" x2="26.1838" y2="95.0098" stroke="#6C6760" stroke-width="0.4"/>
<line x1="123.92" y1="0.141421" x2="29.0521" y2="95.0098" stroke="#6C6760" stroke-width="0.4"/>
<line x1="126.789" y1="0.141421" x2="31.9204" y2="95.0098" stroke="#6C6760" stroke-width="0.4"/>
<line x1="129.657" y1="0.141421" x2="34.7887" y2="95.0098" stroke="#6C6760" stroke-width="0.4"/>
<line x1="132.525" y1="0.141421" x2="37.6571" y2="95.0098" stroke="#6C6760" stroke-width="0.4"/>
<line x1="135.394" y1="0.141421" x2="40.5254" y2="95.0098" stroke="#6C6760" stroke-width="0.4"/>
<line x1="138.262" y1="0.141421" x2="43.3937" y2="95.0098" stroke="#6C6760" stroke-width="0.4"/>
<line x1="141.13" y1="0.141421" x2="46.262" y2="95.0098" stroke="#6C6760" stroke-width="0.4"/>
<line x1="143.999" y1="0.141421" x2="49.1304" y2="95.0098" stroke="#6C6760" stroke-width="0.4"/>
<line x1="146.867" y1="0.141421" x2="51.9987" y2="95.0098" stroke="#6C6760" stroke-width="0.4"/>
<line x1="149.735" y1="0.141421" x2="54.867" y2="95.0098" stroke="#6C6760" stroke-width="0.4"/>
<line x1="152.604" y1="0.141421" x2="57.7353" y2="95.0098" stroke="#6C6760" stroke-width="0.4"/>
<line x1="155.472" y1="0.141421" x2="60.6037" y2="95.0098" stroke="#6C6760" stroke-width="0.4"/>
<line x1="158.34" y1="0.141421" x2="63.472" y2="95.0098" stroke="#6C6760" stroke-width="0.4"/>
<line x1="161.209" y1="0.141421" x2="66.3403" y2="95.0098" stroke="#6C6760" stroke-width="0.4"/>
<line x1="164.077" y1="0.141421" x2="69.2086" y2="95.0098" stroke="#6C6760" stroke-width="0.4"/>
<line x1="166.945" y1="0.141421" x2="72.077" y2="95.0098" stroke="#6C6760" stroke-width="0.4"/>
<line x1="169.814" y1="0.141421" x2="74.9453" y2="95.0098" stroke="#6C6760" stroke-width="0.4"/>
<line x1="172.682" y1="0.141421" x2="77.8136" y2="95.0098" stroke="#6C6760" stroke-width="0.4"/>
<line x1="175.55" y1="0.141421" x2="80.6819" y2="95.0098" stroke="#6C6760" stroke-width="0.4"/>
<line x1="178.419" y1="0.141421" x2="83.5503" y2="95.0098" stroke="#6C6760" stroke-width="0.4"/>
<line x1="181.287" y1="0.141421" x2="86.4186" y2="95.0098" stroke="#6C6760" stroke-width="0.4"/>
<line x1="184.155" y1="0.141421" x2="89.2869" y2="95.0098" stroke="#6C6760" stroke-width="0.4"/>
<line x1="187.024" y1="0.141421" x2="92.1552" y2="95.0098" stroke="#6C6760" stroke-width="0.4"/>
<line x1="189.892" y1="0.141421" x2="95.0236" y2="95.0098" stroke="#6C6760" stroke-width="0.4"/>
<line x1="192.76" y1="0.141421" x2="97.8919" y2="95.0098" stroke="#6C6760" stroke-width="0.4"/>
<line x1="195.629" y1="0.141421" x2="100.76" y2="95.0098" stroke="#6C6760" stroke-width="0.4"/>
<line x1="198.497" y1="0.141421" x2="103.629" y2="95.0098" stroke="#6C6760" stroke-width="0.4"/>
<line x1="201.365" y1="0.141421" x2="106.497" y2="95.0098" stroke="#6C6760" stroke-width="0.4"/>
<line x1="204.233" y1="0.141421" x2="109.365" y2="95.0098" stroke="#6C6760" stroke-width="0.4"/>
<line x1="207.102" y1="0.141421" x2="112.233" y2="95.0098" stroke="#6C6760" stroke-width="0.4"/>
<line x1="209.97" y1="0.141421" x2="115.102" y2="95.0098" stroke="#6C6760" stroke-width="0.4"/>
<line x1="212.838" y1="0.141421" x2="117.97" y2="95.0098" stroke="#6C6760" stroke-width="0.4"/>
<line x1="215.707" y1="0.141421" x2="120.838" y2="95.0098" stroke="#6C6760" stroke-width="0.4"/>
<line x1="218.575" y1="0.141421" x2="123.707" y2="95.0098" stroke="#6C6760" stroke-width="0.4"/>
<line x1="221.443" y1="0.141421" x2="126.575" y2="95.0098" stroke="#6C6760" stroke-width="0.4"/>
<line x1="224.312" y1="0.141421" x2="129.443" y2="95.0098" stroke="#6C6760" stroke-width="0.4"/>
<line x1="227.18" y1="0.141421" x2="132.312" y2="95.0098" stroke="#6C6760" stroke-width="0.4"/>
<line x1="230.048" y1="0.141421" x2="135.18" y2="95.0098" stroke="#6C6760" stroke-width="0.4"/>
<line x1="232.917" y1="0.141421" x2="138.048" y2="95.0098" stroke="#6C6760" stroke-width="0.4"/>
<line x1="235.785" y1="0.141421" x2="140.917" y2="95.0098" stroke="#6C6760" stroke-width="0.4"/>
<line x1="238.653" y1="0.141421" x2="143.785" y2="95.0098" stroke="#6C6760" stroke-width="0.4"/>
<line x1="241.522" y1="0.141421" x2="146.653" y2="95.0098" stroke="#6C6760" stroke-width="0.4"/>
<line x1="244.39" y1="0.141421" x2="149.522" y2="95.0098" stroke="#6C6760" stroke-width="0.4"/>
<line x1="247.258" y1="0.141421" x2="152.39" y2="95.0098" stroke="#6C6760" stroke-width="0.4"/>
<line x1="250.127" y1="0.141421" x2="155.258" y2="95.0098" stroke="#6C6760" stroke-width="0.4"/>
<line x1="252.995" y1="0.141421" x2="158.127" y2="95.0098" stroke="#6C6760" stroke-width="0.4"/>
<line x1="255.863" y1="0.141421" x2="160.995" y2="95.0098" stroke="#6C6760" stroke-width="0.4"/>
<line x1="258.732" y1="0.141421" x2="163.863" y2="95.0098" stroke="#6C6760" stroke-width="0.4"/>
<line x1="261.6" y1="0.141421" x2="166.732" y2="95.0098" stroke="#6C6760" stroke-width="0.4"/>
<line x1="264.468" y1="0.141421" x2="169.6" y2="95.0098" stroke="#6C6760" stroke-width="0.4"/>
<line x1="267.337" y1="0.141421" x2="172.468" y2="95.0098" stroke="#6C6760" stroke-width="0.4"/>
<line x1="270.205" y1="0.141421" x2="175.337" y2="95.0098" stroke="#6C6760" stroke-width="0.4"/>
<line x1="273.073" y1="0.141421" x2="178.205" y2="95.0098" stroke="#6C6760" stroke-width="0.4"/>
<line x1="275.941" y1="0.141421" x2="181.073" y2="95.0098" stroke="#6C6760" stroke-width="0.4"/>
<line x1="278.81" y1="0.141421" x2="183.941" y2="95.0098" stroke="#6C6760" stroke-width="0.4"/>
<line x1="281.678" y1="0.141421" x2="186.81" y2="95.0098" stroke="#6C6760" stroke-width="0.4"/>
<line x1="284.546" y1="0.141421" x2="189.678" y2="95.0098" stroke="#6C6760" stroke-width="0.4"/>
<line x1="287.415" y1="0.141421" x2="192.546" y2="95.0098" stroke="#6C6760" stroke-width="0.4"/>
<line x1="290.283" y1="0.141421" x2="195.415" y2="95.0098" stroke="#6C6760" stroke-width="0.4"/>
<line x1="293.151" y1="0.141421" x2="198.283" y2="95.0098" stroke="#6C6760" stroke-width="0.4"/>
<line x1="296.02" y1="0.141421" x2="201.151" y2="95.0098" stroke="#6C6760" stroke-width="0.4"/>
<line x1="298.888" y1="0.141421" x2="204.02" y2="95.0098" stroke="#6C6760" stroke-width="0.4"/>
<line x1="301.756" y1="0.141421" x2="206.888" y2="95.0098" stroke="#6C6760" stroke-width="0.4"/>
<line x1="304.625" y1="0.141421" x2="209.756" y2="95.0098" stroke="#6C6760" stroke-width="0.4"/>
<line x1="307.493" y1="0.141421" x2="212.625" y2="95.0098" stroke="#6C6760" stroke-width="0.4"/>
<line x1="310.361" y1="0.141421" x2="215.493" y2="95.0098" stroke="#6C6760" stroke-width="0.4"/>
<line x1="313.23" y1="0.141421" x2="218.361" y2="95.0098" stroke="#6C6760" stroke-width="0.4"/>
<line x1="316.098" y1="0.141421" x2="221.23" y2="95.0098" stroke="#6C6760" stroke-width="0.4"/>
<line x1="318.966" y1="0.141421" x2="224.098" y2="95.0098" stroke="#6C6760" stroke-width="0.4"/>
<line x1="321.835" y1="0.141421" x2="226.966" y2="95.0098" stroke="#6C6760" stroke-width="0.4"/>
<line x1="324.703" y1="0.141421" x2="229.835" y2="95.0098" stroke="#6C6760" stroke-width="0.4"/>
<line x1="327.571" y1="0.141421" x2="232.703" y2="95.0098" stroke="#6C6760" stroke-width="0.4"/>
<line x1="330.439" y1="0.141421" x2="235.571" y2="95.0098" stroke="#6C6760" stroke-width="0.4"/>
<line x1="333.308" y1="0.141421" x2="238.439" y2="95.0098" stroke="#6C6760" stroke-width="0.4"/>
<line x1="336.176" y1="0.141421" x2="241.308" y2="95.0098" stroke="#6C6760" stroke-width="0.4"/>
<line x1="339.044" y1="0.141421" x2="244.176" y2="95.0098" stroke="#6C6760" stroke-width="0.4"/>
<line x1="341.913" y1="0.141421" x2="247.044" y2="95.0098" stroke="#6C6760" stroke-width="0.4"/>
<line x1="344.781" y1="0.141421" x2="249.913" y2="95.0098" stroke="#6C6760" stroke-width="0.4"/>
<line x1="347.649" y1="0.141421" x2="252.781" y2="95.0098" stroke="#6C6760" stroke-width="0.4"/>
<line x1="350.518" y1="0.141421" x2="255.649" y2="95.0098" stroke="#6C6760" stroke-width="0.4"/>
<line x1="353.386" y1="0.141421" x2="258.518" y2="95.0098" stroke="#6C6760" stroke-width="0.4"/>
<line x1="356.254" y1="0.141421" x2="261.386" y2="95.0098" stroke="#6C6760" stroke-width="0.4"/>
<line x1="359.123" y1="0.141421" x2="264.254" y2="95.0098" stroke="#6C6760" stroke-width="0.4"/>
<line x1="361.991" y1="0.141421" x2="267.123" y2="95.0098" stroke="#6C6760" stroke-width="0.4"/>
<line x1="364.859" y1="0.141421" x2="269.991" y2="95.0098" stroke="#6C6760" stroke-width="0.4"/>
<line x1="367.728" y1="0.141421" x2="272.859" y2="95.0098" stroke="#6C6760" stroke-width="0.4"/>
<line x1="370.596" y1="0.141421" x2="275.728" y2="95.0098" stroke="#6C6760" stroke-width="0.4"/>
<line x1="373.464" y1="0.141421" x2="278.596" y2="95.0098" stroke="#6C6760" stroke-width="0.4"/>
<line x1="376.333" y1="0.141421" x2="281.464" y2="95.0098" stroke="#6C6760" stroke-width="0.4"/>
<line x1="379.201" y1="0.141421" x2="284.333" y2="95.0098" stroke="#6C6760" stroke-width="0.4"/>
<line x1="382.069" y1="0.141421" x2="287.201" y2="95.0098" stroke="#6C6760" stroke-width="0.4"/>
<line x1="384.938" y1="0.141421" x2="290.069" y2="95.0098" stroke="#6C6760" stroke-width="0.4"/>
<line x1="387.806" y1="0.141421" x2="292.938" y2="95.0098" stroke="#6C6760" stroke-width="0.4"/>
<line x1="390.674" y1="0.141421" x2="295.806" y2="95.0098" stroke="#6C6760" stroke-width="0.4"/>
<line x1="393.542" y1="0.141421" x2="298.674" y2="95.0098" stroke="#6C6760" stroke-width="0.4"/>
<line x1="396.411" y1="0.141421" x2="301.542" y2="95.0098" stroke="#6C6760" stroke-width="0.4"/>
<line x1="399.279" y1="0.141421" x2="304.411" y2="95.0098" stroke="#6C6760" stroke-width="0.4"/>
<line x1="402.147" y1="0.141421" x2="307.279" y2="95.0098" stroke="#6C6760" stroke-width="0.4"/>
<line x1="405.016" y1="0.141421" x2="310.147" y2="95.0098" stroke="#6C6760" stroke-width="0.4"/>
<line x1="407.884" y1="0.141421" x2="313.016" y2="95.0098" stroke="#6C6760" stroke-width="0.4"/>
<line x1="410.752" y1="0.141421" x2="315.884" y2="95.0098" stroke="#6C6760" stroke-width="0.4"/>
<line x1="413.621" y1="0.141421" x2="318.752" y2="95.0098" stroke="#6C6760" stroke-width="0.4"/>
<line x1="416.489" y1="0.141421" x2="321.621" y2="95.0098" stroke="#6C6760" stroke-width="0.4"/>
<line x1="419.357" y1="0.141421" x2="324.489" y2="95.0098" stroke="#6C6760" stroke-width="0.4"/>
<line x1="422.226" y1="0.141421" x2="327.357" y2="95.0098" stroke="#6C6760" stroke-width="0.4"/>
<line x1="425.094" y1="0.141421" x2="330.226" y2="95.0098" stroke="#6C6760" stroke-width="0.4"/>
<line x1="427.962" y1="0.141421" x2="333.094" y2="95.0098" stroke="#6C6760" stroke-width="0.4"/>
<line x1="430.831" y1="0.141421" x2="335.962" y2="95.0098" stroke="#6C6760" stroke-width="0.4"/>
<line x1="433.699" y1="0.141421" x2="338.831" y2="95.0098" stroke="#6C6760" stroke-width="0.4"/>
<line x1="436.567" y1="0.141421" x2="341.699" y2="95.0098" stroke="#6C6760" stroke-width="0.4"/>
</g>
</g>
</pattern><clipPath id="clip0_4481_14013">
<rect width="400" height="400" fill="white"/>
</clipPath>
<clipPath id="clip2_4481_14013">
<rect width="342" height="94.8683" fill="white"/>
</clipPath>
</defs>
</svg>
