<svg width="288" height="233" viewBox="0 0 288 233" fill="none" xmlns="http://www.w3.org/2000/svg" xmlns:xlink="http://www.w3.org/1999/xlink">
<g filter="url(#filter0_n_4481_13803)">
<rect width="259.2" height="180" rx="1.8" transform="matrix(0.939693 -0.34202 0.5 0.866025 -22.7842 88.6514)" fill="url(#pattern0_4481_13803)"/>
<path d="M150.331 133.168L171.031 169.021" stroke="#404039" stroke-width="0.9"/>
<line y1="-0.45" x2="108.9" y2="-0.45" transform="matrix(0.5 0.866025 -0.939693 0.34202 36.8749 66.9375)" stroke="#CFCFC9" stroke-width="0.9"/>
<rect x="-0.323931" y="-0.117901" width="36.45" height="27.45" transform="matrix(0.939693 -0.34202 0.5 0.866025 28.9371 87.6351)" fill="#FAFAF8"/>
<rect x="-0.323931" y="-0.117901" width="36.45" height="27.45" transform="matrix(0.939693 -0.34202 0.5 0.866025 28.9371 87.6351)" fill="url(#pattern1_4481_13803)" fill-opacity="0.2"/>
<rect x="-0.323931" y="-0.117901" width="36.45" height="27.45" transform="matrix(0.939693 -0.34202 0.5 0.866025 28.9371 87.6351)" fill="#F6F6F3"/>
<rect x="-0.323931" y="-0.117901" width="36.45" height="27.45" transform="matrix(0.939693 -0.34202 0.5 0.866025 28.9371 87.6351)" stroke="#CFCFC9" stroke-width="0.45"/>
<path d="M51.958 97.1843L50.9719 97.5432L46.5529 93.6527L47.3902 93.3479L51.0294 96.6093L50.2927 92.2915L51.13 91.9868L51.958 97.1843ZM58.9437 93.7702L59.3595 94.4904L54.6988 96.1868L54.283 95.4666L58.9437 93.7702ZM52.9009 90.6159C53.2544 90.4873 53.4689 90.3193 53.5444 90.112C53.6198 89.9047 53.5618 89.6353 53.3704 89.3038L53.9937 89.0769L57.5082 95.1642L56.7082 95.4554L54.1045 90.9456L52.4672 91.5416L52.1009 90.9071L52.9009 90.6159Z" fill="#A7A7A0"/>
<rect width="2.7" height="2.7" transform="matrix(0.939693 -0.34202 0.5 0.866025 43.6436 80.5078)" fill="#CFCFC9"/>
<rect x="-0.323931" y="-0.117901" width="36.45" height="27.45" transform="matrix(0.939693 -0.34202 0.5 0.866025 46.9371 118.812)" fill="#FAFAF8"/>
<rect x="-0.323931" y="-0.117901" width="36.45" height="27.45" transform="matrix(0.939693 -0.34202 0.5 0.866025 46.9371 118.812)" fill="url(#pattern2_4481_13803)" fill-opacity="0.2"/>
<rect x="-0.323931" y="-0.117901" width="36.45" height="27.45" transform="matrix(0.939693 -0.34202 0.5 0.866025 46.9371 118.812)" fill="#F6F6F3"/>
<rect x="-0.323931" y="-0.117901" width="36.45" height="27.45" transform="matrix(0.939693 -0.34202 0.5 0.866025 46.9371 118.812)" stroke="#CFCFC9" stroke-width="0.45"/>
<path d="M69.958 128.361L68.9719 128.72L64.5529 124.829L65.3902 124.525L69.0294 127.786L68.2927 123.468L69.13 123.164L69.958 128.361ZM70.2988 123.07C70.143 122.67 70.0833 122.287 70.1197 121.921C70.1527 121.55 70.2889 121.22 70.5281 120.932C70.7702 120.637 71.1052 120.411 71.5331 120.255C71.9301 120.111 72.3296 120.055 72.7317 120.089C73.14 120.12 73.5116 120.237 73.8466 120.44C74.1782 120.638 74.4381 120.9 74.6262 121.225C74.8605 121.631 74.9181 122.049 74.799 122.48C74.6861 122.909 74.4384 123.389 74.0559 123.923C73.7869 124.263 73.5451 124.676 73.3305 125.162C73.1158 125.649 73.0799 126.028 73.2226 126.301L76.86 124.977L77.2758 125.698L72.6429 127.384C72.3426 126.864 72.1923 126.382 72.192 125.94C72.1979 125.495 72.2836 125.104 72.4493 124.767C72.615 124.43 72.862 124.032 73.1903 123.574L73.3709 123.321L73.4293 123.228C73.6545 122.89 73.8006 122.577 73.8674 122.29C73.9405 122.001 73.9143 121.747 73.7889 121.53C73.6767 121.336 73.5234 121.181 73.3288 121.065C73.1343 120.949 72.9161 120.883 72.6744 120.867C72.4326 120.851 72.1908 120.887 71.9489 120.975C71.552 121.12 71.2845 121.352 71.1466 121.672C71.0086 121.992 71.015 122.374 71.1657 122.817L70.2988 123.07Z" fill="#A7A7A0"/>
<rect width="2.7" height="2.7" transform="matrix(0.939693 -0.34202 0.5 0.866025 61.8687 112.075)" fill="#CFCFC9"/>
<rect x="0.323931" y="0.117901" width="96.75" height="26.55" transform="matrix(0.939693 -0.34202 0.5 0.866025 136.41 171.36)" fill="#F6F6F3"/>
<rect x="0.323931" y="0.117901" width="96.75" height="26.55" transform="matrix(0.939693 -0.34202 0.5 0.866025 136.41 171.36)" stroke="#CFCFC9" stroke-width="0.45"/>
<path d="M158.194 173.769C158.678 173.593 159.136 173.516 159.569 173.538C160.005 173.553 160.397 173.666 160.745 173.878C161.089 174.085 161.372 174.38 161.593 174.763C161.818 175.151 161.919 175.523 161.898 175.876C161.874 176.224 161.728 176.536 161.46 176.814C161.199 177.089 160.826 177.314 160.342 177.49L159.151 177.924L160.518 180.29L159.708 180.585L156.194 174.497L158.194 173.769ZM159.926 176.77C160.429 176.587 160.748 176.354 160.884 176.069C161.02 175.784 160.977 175.45 160.756 175.067C160.541 174.696 160.256 174.461 159.899 174.363C159.542 174.264 159.112 174.307 158.61 174.489L157.419 174.923L158.736 177.203L159.926 176.77ZM164.44 173.364L165.221 174.521L165.097 174.483C164.938 174.078 164.912 173.745 165.017 173.486C165.122 173.226 165.361 173.028 165.733 172.893L166.719 172.534L167.085 173.168L166.099 173.527C165.851 173.618 165.67 173.739 165.555 173.891C165.447 174.042 165.403 174.22 165.425 174.426C165.447 174.633 165.533 174.868 165.685 175.131L167.249 177.84L166.468 178.124L163.844 173.58L164.44 173.364ZM164.282 173.421L164.648 174.056L162.927 174.682L162.561 174.048L164.282 173.421ZM168.492 176.62L168.859 177.254L165.184 178.592L164.818 177.957L168.492 176.62ZM172.691 175.984C172.239 176.148 171.786 176.196 171.332 176.125C170.885 176.053 170.465 175.871 170.071 175.578C169.677 175.286 169.343 174.902 169.069 174.428C168.795 173.954 168.647 173.503 168.625 173.075C168.604 172.647 168.704 172.275 168.927 171.959C169.156 171.64 169.496 171.399 169.949 171.234C170.402 171.069 170.852 171.023 171.299 171.095C171.752 171.165 172.176 171.347 172.57 171.639C172.964 171.931 173.298 172.315 173.572 172.789C173.846 173.264 173.993 173.715 174.015 174.143C174.037 174.57 173.934 174.944 173.705 175.262C173.482 175.578 173.144 175.819 172.691 175.984ZM172.295 175.298C172.748 175.133 173.013 174.857 173.089 174.469C173.172 174.079 173.06 173.619 172.753 173.087C172.446 172.556 172.08 172.188 171.654 171.983C171.234 171.776 170.798 171.755 170.345 171.92C169.892 172.084 169.625 172.362 169.542 172.751C169.466 173.139 169.581 173.599 169.888 174.13C170.195 174.662 170.558 175.031 170.978 175.238C171.403 175.443 171.843 175.462 172.295 175.298ZM175.859 167.34L176.64 167.055L180.155 173.143L179.448 173.4L179.043 172.759C179.046 173.048 178.951 173.307 178.76 173.536C178.57 173.765 178.288 173.947 177.916 174.082C177.463 174.247 177.018 174.281 176.579 174.185C176.144 174.08 175.745 173.876 175.382 173.573C175.025 173.267 174.721 172.897 174.47 172.462C174.22 172.028 174.065 171.603 174.006 171.189C173.953 170.773 174.02 170.402 174.208 170.078C174.399 169.746 174.721 169.497 175.174 169.332C175.54 169.199 175.881 169.147 176.199 169.177C176.522 169.204 176.821 169.307 177.096 169.483L175.859 167.34ZM178.467 172.014C178.418 171.721 178.307 171.425 178.136 171.128C177.958 170.819 177.745 170.555 177.497 170.333C177.246 170.107 176.966 169.953 176.656 169.872C176.353 169.788 176.04 169.805 175.717 169.923C175.24 170.097 174.979 170.392 174.935 170.809C174.887 171.221 175.005 171.673 175.289 172.164C175.566 172.644 175.917 173.004 176.341 173.244C176.761 173.479 177.21 173.509 177.688 173.335C178.01 173.218 178.232 173.044 178.354 172.812C178.479 172.573 178.516 172.307 178.467 172.014ZM184.756 171.468L184.107 170.345L184.255 170.405C184.386 170.814 184.363 171.165 184.187 171.457C184.01 171.75 183.727 171.967 183.336 172.109C182.809 172.301 182.31 172.289 181.84 172.073C181.373 171.848 180.994 171.485 180.704 170.982L179.016 168.058L179.807 167.77L181.371 170.48C181.622 170.914 181.89 171.211 182.177 171.369C182.464 171.528 182.784 171.543 183.137 171.414C183.528 171.272 183.774 171.047 183.874 170.741C183.972 170.429 183.9 170.064 183.659 169.647L182.095 166.938L182.877 166.653L185.5 171.197L184.756 171.468ZM188.703 166.379C188.479 166.108 188.201 165.932 187.87 165.852C187.542 165.764 187.225 165.776 186.921 165.886C186.469 166.051 186.201 166.328 186.118 166.718C186.042 167.106 186.157 167.565 186.464 168.097C186.771 168.628 187.134 168.998 187.554 169.205C187.98 169.409 188.419 169.429 188.872 169.264C189.188 169.149 189.411 168.957 189.541 168.689C189.671 168.42 189.675 168.114 189.552 167.772L190.41 167.522C190.549 167.879 190.592 168.22 190.538 168.544C190.485 168.867 190.346 169.153 190.121 169.401C189.9 169.641 189.615 169.824 189.268 169.95C188.815 170.115 188.362 170.162 187.909 170.092C187.462 170.02 187.041 169.837 186.647 169.545C186.253 169.253 185.919 168.869 185.645 168.395C185.371 167.92 185.224 167.469 185.202 167.041C185.18 166.614 185.28 166.242 185.503 165.925C185.732 165.607 186.073 165.365 186.525 165.201C186.86 165.079 187.215 165.029 187.588 165.052C187.958 165.07 188.312 165.162 188.649 165.33C188.986 165.498 189.267 165.731 189.492 166.03L188.703 166.379ZM191.247 162.154L193.841 166.647C193.953 166.841 194.096 166.972 194.27 167.04C194.445 167.108 194.634 167.105 194.839 167.03L196.16 166.55L196.526 167.184L195.205 167.665C194.721 167.841 194.299 167.863 193.938 167.732C193.58 167.592 193.287 167.325 193.059 166.931L190.465 162.438L191.247 162.154ZM193.912 162.637L194.278 163.271L190.111 164.788L189.744 164.153L193.912 162.637ZM198.15 161.094L200.774 165.638L199.993 165.922L197.369 161.378L198.15 161.094ZM198.15 161.094L198.517 161.728L195.968 162.656L195.601 162.022L198.15 161.094ZM202.091 164.391L202.458 165.025L198.039 166.633L197.673 165.999L202.091 164.391ZM197.259 159.551L197.759 160.417L196.876 160.738L196.376 159.872L197.259 159.551ZM205.602 164.005C205.149 164.17 204.696 164.217 204.243 164.147C203.796 164.075 203.375 163.892 202.981 163.6C202.588 163.307 202.254 162.924 201.98 162.45C201.706 161.975 201.558 161.524 201.536 161.096C201.514 160.668 201.615 160.296 201.837 159.98C202.066 159.662 202.407 159.42 202.86 159.255C203.313 159.09 203.763 159.044 204.21 159.117C204.663 159.187 205.087 159.368 205.481 159.661C205.874 159.953 206.208 160.336 206.482 160.811C206.756 161.285 206.904 161.736 206.926 162.164C206.948 162.592 206.844 162.965 206.615 163.284C206.393 163.6 206.055 163.84 205.602 164.005ZM205.206 163.319C205.659 163.154 205.923 162.878 206 162.491C206.083 162.101 205.971 161.64 205.664 161.109C205.357 160.577 204.99 160.209 204.564 160.004C204.145 159.797 203.709 159.776 203.256 159.941C202.803 160.106 202.535 160.383 202.453 160.773C202.376 161.161 202.491 161.62 202.798 162.152C203.105 162.683 203.469 163.052 203.888 163.259C204.314 163.464 204.753 163.484 205.206 163.319ZM207.214 157.795L207.919 158.939L207.762 158.882C207.625 158.462 207.642 158.102 207.816 157.804C207.995 157.504 208.286 157.28 208.689 157.134C209.229 156.937 209.734 156.947 210.204 157.163C210.674 157.38 211.056 157.742 211.349 158.251L213.037 161.174L212.256 161.459L210.687 158.741C210.439 158.312 210.169 158.02 209.876 157.864C209.59 157.705 209.263 157.692 208.897 157.826C208.494 157.972 208.241 158.203 208.137 158.517C208.036 158.824 208.105 159.183 208.342 159.594L209.911 162.312L209.13 162.597L206.507 158.052L207.214 157.795Z" fill="#222220"/>
<path d="M143.215 168.771L143.665 169.55L139.437 171.089C138.503 171.429 138.148 172.403 138.645 173.264L140.895 177.161L140.05 177.469L136.45 171.233L143.215 168.771Z" fill="#404039"/>
<path d="M156.715 192.154L156.265 191.374L152.037 192.913C151.103 193.253 149.942 192.831 149.445 191.97L147.195 188.073L146.35 188.381L149.95 194.616L156.715 192.154Z" fill="#404039"/>
<path d="M234.334 163.903L233.884 163.124L238.113 161.584C239.047 161.244 239.401 160.271 238.904 159.41L236.654 155.513L237.5 155.205L241.1 161.44L234.334 163.903Z" fill="#404039"/>
<path d="M220.834 140.52L221.284 141.3L225.513 139.76C226.447 139.42 227.607 139.843 228.104 140.704L230.354 144.601L231.2 144.293L227.6 138.058L220.834 140.52Z" fill="#404039"/>
<circle cx="2.4" cy="2.4" r="2.4" transform="matrix(0.939693 -0.34202 0.5 0.866025 213.383 154.865)" fill="#00A63E"/>
<circle opacity="0.2" cx="3.6" cy="3.6" r="3.6" transform="matrix(0.939693 -0.34202 0.5 0.866025 211.656 154.236)" fill="#00A63E"/>
<path d="M87.4086 118.199L132.263 101.874L143.69 121.666" stroke="#CFCFC9" stroke-width="0.9" stroke-dasharray="1.8 1.8"/>
<rect x="-0.323931" y="-0.117901" width="63.45" height="27.45" transform="matrix(0.939693 -0.34202 0.5 0.866025 113.989 132.135)" fill="#F6F6F3"/>
<rect x="-0.323931" y="-0.117901" width="63.45" height="27.45" transform="matrix(0.939693 -0.34202 0.5 0.866025 113.989 132.135)" stroke="#CFCFC9" stroke-width="0.45"/>
<path d="M136.164 141.993L135.178 142.352L130.759 138.461L131.596 138.157L135.236 141.418L134.499 137.1L135.336 136.795L136.164 141.993ZM136.272 136.787C136.117 136.387 136.057 136.004 136.093 135.638C136.126 135.266 136.262 134.937 136.502 134.649C136.744 134.353 137.079 134.128 137.507 133.972C137.904 133.827 138.303 133.772 138.705 133.805C139.114 133.837 139.485 133.954 139.82 134.157C140.152 134.354 140.412 134.616 140.6 134.942C140.834 135.348 140.892 135.766 140.773 136.197C140.66 136.625 140.412 137.106 140.03 137.639C139.761 137.979 139.519 138.393 139.304 138.879C139.089 139.365 139.053 139.745 139.196 140.018L142.834 138.694L143.249 139.414L138.617 141.1C138.316 140.58 138.166 140.099 138.166 139.656C138.171 139.211 138.257 138.821 138.423 138.484C138.589 138.147 138.836 137.749 139.164 137.291L139.345 137.038L139.403 136.944C139.628 136.606 139.774 136.294 139.841 136.007C139.914 135.717 139.888 135.464 139.763 135.247C139.65 135.052 139.497 134.897 139.302 134.781C139.108 134.665 138.89 134.599 138.648 134.584C138.406 134.568 138.164 134.604 137.923 134.692C137.526 134.836 137.258 135.069 137.12 135.389C136.982 135.709 136.989 136.09 137.139 136.533L136.272 136.787Z" fill="#222220"/>
<rect width="21.6" height="12.4" transform="matrix(0.939693 -0.34202 0.5 0.866025 146.072 128.221)" fill="#333333"/>
<path d="M154.086 128.103L154.502 128.824L151.153 130.042L152.286 132.006L155.523 130.828L155.929 131.531L152.692 132.709L153.835 134.689L157.259 133.443L157.675 134.164L153.451 135.701L149.937 129.614L154.086 128.103ZM160.229 127.735L159.809 130.575L162.937 132.248L161.978 132.597L159.638 131.312L159.327 133.562L158.369 133.911L158.827 130.922L155.838 129.333L156.797 128.984L158.994 130.197L159.262 128.087L160.229 127.735ZM161.24 127.367L161.947 127.11L162.548 128.074L162.38 127.958C162.33 127.61 162.394 127.307 162.575 127.047C162.755 126.788 163.041 126.587 163.432 126.445C163.903 126.273 164.359 126.238 164.801 126.341C165.246 126.435 165.65 126.634 166.013 126.937C166.375 127.241 166.682 127.61 166.933 128.044C167.184 128.479 167.336 128.904 167.389 129.321C167.441 129.737 167.369 130.113 167.172 130.447C166.978 130.774 166.645 131.023 166.174 131.195C165.913 131.289 165.656 131.338 165.403 131.34C165.149 131.343 164.906 131.3 164.675 131.211C164.45 131.12 164.241 130.985 164.047 130.807L164.08 130.649L165.387 132.913L164.606 133.197L161.24 127.367ZM163.249 129.385C163.421 129.682 163.63 129.942 163.878 130.163C164.132 130.381 164.411 130.533 164.714 130.616C165.02 130.691 165.331 130.671 165.648 130.556C166.125 130.382 166.388 130.09 166.435 129.678C166.483 129.266 166.37 128.823 166.096 128.349C165.822 127.875 165.473 127.517 165.049 127.277C164.626 127.037 164.175 127.004 163.697 127.178C163.381 127.293 163.161 127.47 163.036 127.709C162.914 127.94 162.875 128.204 162.918 128.499C162.967 128.793 163.078 129.088 163.249 129.385Z" fill="#FBFF81"/>
<rect width="2.7" height="2.7" transform="matrix(0.5 0.866025 -0.939693 0.34202 157.796 143.504)" fill="#404039"/>
<rect x="-0.323931" y="-0.117901" width="36.45" height="27.45" transform="matrix(0.939693 -0.34202 0.5 0.866025 64.9371 149.989)" fill="#FAFAF8"/>
<rect x="-0.323931" y="-0.117901" width="36.45" height="27.45" transform="matrix(0.939693 -0.34202 0.5 0.866025 64.9371 149.989)" fill="url(#pattern3_4481_13803)" fill-opacity="0.2"/>
<rect x="-0.323931" y="-0.117901" width="36.45" height="27.45" transform="matrix(0.939693 -0.34202 0.5 0.866025 64.9371 149.989)" fill="#F6F6F3"/>
<rect x="-0.323931" y="-0.117901" width="36.45" height="27.45" transform="matrix(0.939693 -0.34202 0.5 0.866025 64.9371 149.989)" stroke="#CFCFC9" stroke-width="0.45"/>
<path d="M87.958 159.538L86.9719 159.897L82.5529 156.006L83.3902 155.701L87.0294 158.963L86.2927 154.645L87.13 154.34L87.958 159.538ZM90.8202 154.149C91.0468 154.073 91.2395 153.965 91.3984 153.824C91.5601 153.675 91.6585 153.501 91.6934 153.302C91.7313 153.094 91.6792 152.868 91.5373 152.622C91.435 152.445 91.2949 152.313 91.1168 152.225C90.9417 152.13 90.7351 152.084 90.497 152.088C90.2557 152.086 89.9954 152.135 89.7164 152.237C89.3752 152.361 89.1312 152.536 88.9842 152.763C88.8435 152.987 88.8223 153.23 88.9208 153.491L88.0538 153.745C87.9293 153.451 87.8989 153.158 87.9624 152.865C88.0322 152.57 88.1827 152.304 88.414 152.068C88.6453 151.831 88.9408 151.648 89.3006 151.517C89.7223 151.363 90.134 151.296 90.5357 151.316C90.9403 151.328 91.3018 151.421 91.6203 151.596C91.945 151.768 92.1964 152.009 92.3746 152.317C92.599 152.706 92.6533 153.067 92.5377 153.399C92.4249 153.724 92.1421 154.02 91.6892 154.289L91.6144 154.14C92.0228 154.067 92.3987 154.062 92.7421 154.124C93.0916 154.183 93.3992 154.306 93.6647 154.493C93.927 154.675 94.1423 154.911 94.3106 155.202C94.5119 155.551 94.5925 155.899 94.5524 156.245C94.5124 156.592 94.3539 156.909 94.0771 157.197C93.8065 157.482 93.4386 157.709 92.9735 157.878C92.5393 158.036 92.1073 158.107 91.6775 158.091C91.2506 158.066 90.8606 157.963 90.5074 157.78C90.1543 157.597 89.8727 157.343 89.6627 157.019L90.4609 156.666C90.6961 156.995 91.0106 157.196 91.4044 157.267C91.8011 157.33 92.1855 157.294 92.5577 157.158C92.874 157.043 93.1204 156.898 93.2971 156.723C93.4767 156.54 93.579 156.34 93.604 156.124C93.6353 155.905 93.5832 155.678 93.4479 155.444C93.3093 155.204 93.1254 155.022 92.8962 154.898C92.6698 154.766 92.4124 154.697 92.124 154.691C91.8417 154.683 91.5441 154.74 91.2311 154.86L90.7336 155.052L90.3129 154.323L90.8202 154.149Z" fill="#222220"/>
<path d="M94.9249 167.483L99.4249 175.277L161.091 152.832" stroke="#404039" stroke-width="0.9"/>
<rect width="2.7" height="2.7" transform="matrix(0.939693 -0.34202 0.5 0.866025 79.6436 142.862)" fill="#CFCFC9"/>
<rect width="2.7" height="2.7" transform="matrix(0.939693 -0.34202 0.5 0.866025 141.381 120.392)" fill="#CFCFC9"/>
<rect width="2.7" height="2.7" transform="matrix(0.5 0.866025 -0.939693 0.34202 95.6708 166.116)" fill="#404039"/>
</g>
<rect x="-0.323931" y="-0.117901" width="63.45" height="27.45" transform="matrix(0.939693 -0.34202 0.5 0.866025 114.287 124.637)" fill="#F6F6F3"/>
<rect x="-0.323931" y="-0.117901" width="63.45" height="27.45" transform="matrix(0.939693 -0.34202 0.5 0.866025 114.287 124.637)" fill="white" fill-opacity="0.9"/>
<rect x="-0.323931" y="-0.117901" width="63.45" height="27.45" transform="matrix(0.939693 -0.34202 0.5 0.866025 114.287 124.637)" stroke="#CFCFC9" stroke-width="0.45"/>
<path d="M136.463 134.495L135.476 134.854L131.057 130.963L131.895 130.658L135.534 133.92L134.797 129.602L135.635 129.297L136.463 134.495ZM136.803 129.204C136.648 128.804 136.588 128.421 136.624 128.055C136.657 127.683 136.793 127.354 137.033 127.066C137.275 126.771 137.61 126.545 138.038 126.389C138.435 126.245 138.834 126.189 139.236 126.223C139.644 126.254 140.016 126.371 140.351 126.574C140.683 126.772 140.943 127.033 141.131 127.359C141.365 127.765 141.423 128.183 141.304 128.614C141.191 129.042 140.943 129.523 140.56 130.057C140.291 130.397 140.05 130.81 139.835 131.296C139.62 131.782 139.584 132.162 139.727 132.435L143.365 131.111L143.78 131.831L139.147 133.518C138.847 132.997 138.697 132.516 138.697 132.074C138.702 131.629 138.788 131.238 138.954 130.901C139.12 130.564 139.367 130.166 139.695 129.708L139.875 129.455L139.934 129.361C140.159 129.024 140.305 128.711 140.372 128.424C140.445 128.134 140.419 127.881 140.293 127.664C140.181 127.47 140.028 127.314 139.833 127.198C139.639 127.082 139.421 127.017 139.179 127.001C138.937 126.985 138.695 127.021 138.453 127.109C138.057 127.254 137.789 127.486 137.651 127.806C137.513 128.126 137.519 128.507 137.67 128.951L136.803 129.204Z" fill="#222220"/>
<rect width="21.6" height="12.4" transform="matrix(0.939693 -0.34202 0.5 0.866025 146.371 120.723)" fill="#333333"/>
<path d="M154.384 120.605L154.8 121.325L151.451 122.544L152.584 124.508L155.822 123.329L156.228 124.033L152.99 125.211L154.134 127.191L157.557 125.945L157.973 126.666L153.749 128.203L150.235 122.115L154.384 120.605ZM160.528 120.237L160.107 123.077L163.235 124.75L162.277 125.099L159.936 123.814L159.625 126.064L158.667 126.413L159.125 123.424L156.137 121.835L157.095 121.486L159.292 122.699L159.56 120.589L160.528 120.237ZM161.538 119.869L162.245 119.612L162.846 120.576L162.679 120.46C162.628 120.112 162.693 119.808 162.873 119.549C163.054 119.29 163.339 119.089 163.73 118.947C164.201 118.775 164.658 118.74 165.099 118.843C165.544 118.937 165.948 119.136 166.311 119.439C166.674 119.743 166.981 120.112 167.231 120.546C167.482 120.981 167.634 121.406 167.687 121.823C167.74 122.239 167.668 122.615 167.47 122.949C167.276 123.276 166.943 123.525 166.472 123.697C166.212 123.791 165.955 123.84 165.701 123.842C165.447 123.845 165.204 123.802 164.973 123.713C164.748 123.622 164.539 123.487 164.346 123.309L164.379 123.151L165.685 125.415L164.904 125.699L161.538 119.869ZM163.547 121.887C163.719 122.184 163.929 122.443 164.176 122.665C164.43 122.883 164.709 123.034 165.012 123.118C165.318 123.193 165.63 123.173 165.946 123.058C166.423 122.884 166.686 122.592 166.734 122.18C166.781 121.768 166.668 121.325 166.394 120.851C166.12 120.377 165.771 120.019 165.348 119.779C164.924 119.539 164.473 119.506 163.996 119.68C163.679 119.795 163.459 119.972 163.334 120.211C163.212 120.442 163.173 120.706 163.216 121.001C163.265 121.295 163.376 121.59 163.547 121.887Z" fill="#F6F6F3"/>
<path d="M187.161 126.661L187.187 133.997L127.57 155.496L127.57 147.931L187.161 126.661Z" fill="#F6F6F3" stroke="#CFCFC9" stroke-width="0.45" stroke-linejoin="round"/>
<path d="M114.248 124.689L114.293 132.584L127.675 155.651L127.63 147.868L114.248 124.689Z" fill="#F6F6F3" stroke="#CFCFC9" stroke-width="0.45" stroke-linejoin="round"/>
<path d="M113.95 124.73V132.38L127.505 155.569L187.059 133.979V126.329L173.504 103.14L113.95 124.73Z" stroke="#404039" stroke-width="0.9" stroke-linejoin="round"/>
<rect width="54" height="9" transform="matrix(0.939693 -0.34202 0.5 0.866025 189.9 122.951)" fill="#E5E5E1"/>
<path d="M193.62 123.575L196.629 127.113L196.358 127.212L194.946 123.093L195.887 122.751L198.443 127.178L197.861 127.389L195.55 123.386L195.577 123.376L196.916 127.356L196.402 127.543L193.479 124.14L193.506 124.13L195.818 128.133L195.236 128.345L192.68 123.918L193.62 123.575ZM197.885 124.558C197.773 124.222 197.797 123.909 197.957 123.619C198.115 123.325 198.379 123.111 198.749 122.977C199.195 122.814 199.615 122.804 200.009 122.948C200.403 123.091 200.73 123.387 200.989 123.836L201.756 125.164C201.797 125.235 201.845 125.28 201.9 125.301C201.955 125.321 202.021 125.317 202.098 125.289L202.24 125.237L202.506 125.699L202.33 125.763C202.118 125.84 201.921 125.856 201.737 125.813C201.556 125.763 201.405 125.667 201.284 125.525C201.301 125.715 201.244 125.904 201.113 126.093C200.979 126.277 200.777 126.419 200.506 126.517C200.136 126.652 199.778 126.679 199.432 126.599C199.09 126.517 198.836 126.333 198.67 126.046C198.546 125.83 198.5 125.638 198.534 125.469C198.572 125.299 198.667 125.147 198.818 125.011C198.969 124.876 199.18 124.726 199.451 124.562L200.388 123.987C200.225 123.714 200.028 123.537 199.795 123.456C199.56 123.37 199.307 123.377 199.037 123.475C198.816 123.556 198.661 123.68 198.572 123.848C198.481 124.012 198.464 124.189 198.519 124.38L197.885 124.558ZM199.266 125.829C199.347 125.971 199.48 126.063 199.664 126.107C199.845 126.147 200.062 126.121 200.314 126.029C200.51 125.952 200.665 125.846 200.777 125.709C200.887 125.569 200.942 125.405 200.944 125.219C200.947 125.026 200.888 124.824 200.765 124.612L200.672 124.45L199.905 124.895C199.867 124.914 199.83 124.935 199.794 124.958C199.611 125.065 199.472 125.156 199.378 125.23C199.282 125.3 199.22 125.386 199.191 125.487C199.164 125.582 199.189 125.696 199.266 125.829ZM202.713 121.624L203.281 122.466L203.192 122.438C203.076 122.144 203.057 121.902 203.133 121.713C203.21 121.524 203.383 121.38 203.654 121.282L204.371 121.021L204.637 121.482L203.92 121.743C203.74 121.809 203.608 121.897 203.525 122.008C203.446 122.117 203.414 122.247 203.43 122.397C203.446 122.547 203.509 122.718 203.619 122.909L204.757 124.88L204.188 125.086L202.28 121.782L202.713 121.624ZM202.598 121.666L202.865 122.127L201.613 122.583L201.347 122.122L202.598 121.666ZM205.661 123.992L205.927 124.454L203.255 125.426L202.988 124.965L205.661 123.992ZM208.324 120.925C208.161 120.728 207.959 120.6 207.718 120.542C207.48 120.478 207.25 120.486 207.029 120.567C206.699 120.686 206.505 120.888 206.445 121.172C206.389 121.453 206.473 121.788 206.696 122.174C206.919 122.561 207.183 122.829 207.489 122.98C207.798 123.129 208.118 123.143 208.447 123.023C208.677 122.94 208.839 122.8 208.934 122.605C209.029 122.409 209.031 122.187 208.942 121.938L209.566 121.756C209.667 122.016 209.698 122.264 209.659 122.499C209.62 122.735 209.519 122.942 209.356 123.123C209.195 123.297 208.988 123.43 208.735 123.522C208.406 123.642 208.076 123.676 207.747 123.625C207.421 123.573 207.116 123.44 206.829 123.227C206.543 123.015 206.3 122.736 206.1 122.391C205.901 122.046 205.794 121.718 205.778 121.407C205.762 121.096 205.835 120.825 205.997 120.595C206.163 120.363 206.411 120.188 206.741 120.068C206.984 119.979 207.242 119.943 207.514 119.96C207.783 119.973 208.04 120.04 208.285 120.162C208.53 120.284 208.735 120.454 208.898 120.671L208.324 120.925ZM214.399 119.574C214.603 119.917 214.841 120.15 215.114 120.272C215.384 120.39 215.681 120.39 216.006 120.272C216.344 120.149 216.544 119.961 216.605 119.707C216.663 119.449 216.588 119.14 216.379 118.778L214.716 115.897L215.298 115.685L216.961 118.566C217.254 119.073 217.344 119.526 217.23 119.925C217.121 120.322 216.813 120.612 216.308 120.796C215.993 120.911 215.678 120.947 215.364 120.905C215.049 120.859 214.757 120.747 214.49 120.567C214.225 120.382 214.006 120.14 213.833 119.841L214.399 119.574ZM217.493 117.422C217.381 117.086 217.405 116.772 217.565 116.483C217.723 116.189 217.986 115.975 218.356 115.84C218.803 115.677 219.223 115.668 219.617 115.811C220.011 115.955 220.337 116.251 220.597 116.7L221.363 118.028C221.404 118.099 221.452 118.144 221.508 118.164C221.563 118.184 221.629 118.18 221.705 118.152L221.848 118.101L222.114 118.562L221.938 118.626C221.726 118.703 221.528 118.72 221.345 118.676C221.163 118.626 221.012 118.53 220.892 118.388C220.909 118.578 220.852 118.767 220.72 118.956C220.587 119.141 220.385 119.282 220.114 119.381C219.744 119.515 219.386 119.542 219.039 119.462C218.697 119.381 218.444 119.196 218.278 118.909C218.153 118.693 218.108 118.501 218.142 118.333C218.18 118.163 218.275 118.01 218.426 117.875C218.577 117.739 218.788 117.589 219.059 117.425L219.996 116.85C219.833 116.578 219.635 116.401 219.403 116.319C219.168 116.234 218.915 116.24 218.644 116.339C218.423 116.419 218.268 116.544 218.18 116.712C218.089 116.875 218.071 117.053 218.127 117.244L217.493 117.422ZM218.873 118.693C218.955 118.834 219.088 118.927 219.271 118.97C219.452 119.01 219.669 118.984 219.922 118.892C220.118 118.816 220.272 118.709 220.384 118.573C220.494 118.432 220.55 118.269 220.551 118.082C220.555 117.89 220.495 117.687 220.373 117.475L220.279 117.313L219.513 117.758C219.475 117.777 219.438 117.798 219.402 117.821C219.218 117.928 219.079 118.019 218.986 118.093C218.89 118.163 218.827 118.249 218.799 118.35C218.772 118.445 218.797 118.56 218.873 118.693ZM221.516 114.781L222.029 115.612L221.915 115.571C221.815 115.265 221.828 115.004 221.954 114.787C222.084 114.569 222.296 114.406 222.589 114.299C222.981 114.157 223.349 114.164 223.69 114.321C224.032 114.478 224.31 114.742 224.524 115.112L225.751 117.238L225.183 117.445L224.042 115.468C223.862 115.157 223.665 114.944 223.452 114.83C223.244 114.715 223.007 114.706 222.74 114.803C222.447 114.909 222.263 115.077 222.188 115.306C222.114 115.529 222.164 115.79 222.337 116.089L223.478 118.066L222.91 118.272L221.002 114.968L221.516 114.781ZM225.437 113.353L225.95 114.185L225.836 114.144C225.736 113.838 225.749 113.577 225.875 113.36C226.006 113.141 226.217 112.979 226.511 112.872C226.903 112.729 227.27 112.736 227.612 112.894C227.954 113.051 228.232 113.315 228.445 113.685L229.673 115.811L229.104 116.018L227.963 114.041C227.783 113.729 227.587 113.517 227.374 113.403C227.165 113.288 226.928 113.279 226.662 113.375C226.369 113.482 226.184 113.65 226.109 113.878C226.036 114.101 226.086 114.362 226.258 114.662L227.4 116.638L226.831 116.845L224.923 113.54L225.437 113.353ZM230.746 111.421L232.654 114.726L232.086 114.933L230.178 111.628L230.746 111.421ZM230.746 111.421L231.012 111.883L229.158 112.557L228.892 112.096L230.746 111.421ZM233.612 113.819L233.878 114.28L230.665 115.45L230.398 114.988L233.612 113.819ZM230.098 110.299L230.461 110.928L229.819 111.162L229.455 110.533L230.098 110.299ZM235.775 110.934C235.612 110.737 235.41 110.609 235.169 110.551C234.93 110.487 234.7 110.495 234.479 110.575C234.15 110.695 233.955 110.897 233.895 111.18C233.839 111.462 233.923 111.796 234.146 112.183C234.37 112.57 234.634 112.838 234.939 112.989C235.249 113.137 235.568 113.152 235.898 113.032C236.128 112.948 236.29 112.809 236.385 112.613C236.479 112.418 236.482 112.196 236.393 111.947L237.016 111.765C237.117 112.025 237.148 112.273 237.11 112.508C237.071 112.743 236.97 112.951 236.806 113.131C236.645 113.306 236.438 113.439 236.186 113.531C235.856 113.651 235.527 113.685 235.197 113.634C234.872 113.581 234.566 113.449 234.28 113.236C233.993 113.024 233.75 112.745 233.551 112.4C233.352 112.055 233.244 111.727 233.228 111.415C233.213 111.104 233.286 110.834 233.448 110.604C233.614 110.372 233.862 110.196 234.191 110.077C234.435 109.988 234.692 109.952 234.964 109.969C235.233 109.981 235.491 110.049 235.736 110.171C235.981 110.293 236.185 110.463 236.349 110.68L235.775 110.934ZM236.574 107.942L238.248 110.841L238.941 108.438L239.719 108.155L239.122 110.07L241.694 111.435L240.991 111.691L238.959 110.582L238.687 111.602L239.13 112.369L238.562 112.576L236.006 108.148L236.574 107.942Z" fill="#6B6B66"/>
<defs>
<filter id="filter0_n_4481_13803" x="-22.7842" y="0" width="333.568" height="244.536" filterUnits="userSpaceOnUse" color-interpolation-filters="sRGB">
<feFlood flood-opacity="0" result="BackgroundImageFix"/>
<feBlend mode="normal" in="SourceGraphic" in2="BackgroundImageFix" result="shape"/>
<feTurbulence type="fractalNoise" baseFrequency="2.2222223281860352 2.2222223281860352" stitchTiles="stitch" numOctaves="3" result="noise" seed="1471" />
<feColorMatrix in="noise" type="luminanceToAlpha" result="alphaNoise" />
<feComponentTransfer in="alphaNoise" result="coloredNoise1">
<feFuncA type="discrete" tableValues="0 0 0 0 1 1 1 1 1 1 1 1 1 1 1 1 1 1 1 1 1 1 1 1 1 1 1 1 1 1 1 1 1 1 1 1 1 1 1 1 1 1 1 1 1 0 0 0 0 0 0 0 0 0 0 0 0 0 0 0 0 0 0 0 0 0 0 0 0 0 0 0 0 0 0 0 0 0 0 0 0 0 0 0 0 0 0 0 0 0 0 0 0 0 0 0 0 0 0 0 "/>
</feComponentTransfer>
<feComposite operator="in" in2="shape" in="coloredNoise1" result="noise1Clipped" />
<feFlood flood-color="rgba(207, 207, 201, 0.15)" result="color1Flood" />
<feComposite operator="in" in2="noise1Clipped" in="color1Flood" result="color1" />
<feMerge result="effect1_noise_4481_13803">
<feMergeNode in="shape" />
<feMergeNode in="color1" />
</feMerge>
</filter>
<pattern id="pattern0_4481_13803" patternUnits="userSpaceOnUse" patternTransform="matrix(180 0 0 180 39.6 2.38419e-06)" preserveAspectRatio="none" viewBox="0 0 400 400" width="1" height="1">
<g id="pattern0_4481_13803_inner">
<g clip-path="url(#clip0_4481_13803)">
<path d="M0 0V400" stroke="#EFECE2"/>
<path d="M40 0V400" stroke="#EFECE2"/>
<path d="M80 0V400" stroke="#EFECE2"/>
<path d="M120 0V400" stroke="#EFECE2"/>
<path d="M160 0V400" stroke="#EFECE2"/>
<path d="M200 0V400" stroke="#EFECE2"/>
<path d="M240 0V400" stroke="#EFECE2"/>
<path d="M280 0V400" stroke="#EFECE2"/>
<path d="M320 0V400" stroke="#EFECE2"/>
<path d="M360 0V400" stroke="#EFECE2"/>
<path d="M400 0V400" stroke="#EFECE2"/>
<path d="M0 400L400 400" stroke="#EFECE2"/>
<path d="M0 360L400 360" stroke="#EFECE2"/>
<path d="M0 320L400 320" stroke="#EFECE2"/>
<path d="M0 280L400 280" stroke="#EFECE2"/>
<path d="M0 240L400 240" stroke="#EFECE2"/>
<path d="M0 200L400 200" stroke="#EFECE2"/>
<path d="M0 160L400 160" stroke="#EFECE2"/>
<path d="M0 120L400 120" stroke="#EFECE2"/>
<path d="M0 80L400 80" stroke="#EFECE2"/>
<path d="M0 40L400 40" stroke="#EFECE2"/>
<path d="M0 0L400 -1.74846e-05" stroke="#EFECE2"/>
</g>
</g>
</pattern><pattern id="pattern1_4481_13803" patternUnits="userSpaceOnUse" patternTransform="matrix(430.92 0 0 119.534 -197.46 -46.267)" preserveAspectRatio="none" viewBox="0 0 342 94.8683" width="1" height="1">
<g id="pattern1_4481_13803_inner">
<g clip-path="url(#clip1_4481_13803)">
<line x1="0.582828" y1="0.141421" x2="-94.2855" y2="95.0098" stroke="#6C6760" stroke-width="0.4"/>
<line x1="3.45002" y1="0.141421" x2="-91.4183" y2="95.0098" stroke="#6C6760" stroke-width="0.4"/>
<line x1="6.3172" y1="0.141421" x2="-88.5511" y2="95.0098" stroke="#6C6760" stroke-width="0.4"/>
<line x1="9.1883" y1="0.141421" x2="-85.68" y2="95.0098" stroke="#6C6760" stroke-width="0.4"/>
<line x1="12.0555" y1="0.141421" x2="-82.8128" y2="95.0098" stroke="#6C6760" stroke-width="0.4"/>
<line x1="14.9227" y1="0.141421" x2="-79.9457" y2="95.0098" stroke="#6C6760" stroke-width="0.4"/>
<line x1="17.7938" y1="0.141421" x2="-77.0746" y2="95.0098" stroke="#6C6760" stroke-width="0.4"/>
<line x1="20.661" y1="0.141421" x2="-74.2074" y2="95.0098" stroke="#6C6760" stroke-width="0.4"/>
<line x1="23.5281" y1="0.141421" x2="-71.3402" y2="95.0098" stroke="#6C6760" stroke-width="0.4"/>
<line x1="26.3992" y1="0.141421" x2="-68.4691" y2="95.0098" stroke="#6C6760" stroke-width="0.4"/>
<line x1="29.2664" y1="0.141421" x2="-65.6019" y2="95.0098" stroke="#6C6760" stroke-width="0.4"/>
<line x1="32.1336" y1="0.141421" x2="-62.7347" y2="95.0098" stroke="#6C6760" stroke-width="0.4"/>
<line x1="35.0008" y1="0.141421" x2="-59.8675" y2="95.0098" stroke="#6C6760" stroke-width="0.4"/>
<line x1="37.8719" y1="0.141421" x2="-56.9964" y2="95.0098" stroke="#6C6760" stroke-width="0.4"/>
<line x1="40.7391" y1="0.141421" x2="-54.1292" y2="95.0098" stroke="#6C6760" stroke-width="0.4"/>
<line x1="43.6063" y1="0.141421" x2="-51.2621" y2="95.0098" stroke="#6C6760" stroke-width="0.4"/>
<line x1="46.4774" y1="0.141421" x2="-48.391" y2="95.0098" stroke="#6C6760" stroke-width="0.4"/>
<line x1="49.3445" y1="0.141421" x2="-45.5238" y2="95.0098" stroke="#6C6760" stroke-width="0.4"/>
<line x1="52.2117" y1="0.141421" x2="-42.6566" y2="95.0098" stroke="#6C6760" stroke-width="0.4"/>
<line x1="55.0789" y1="0.141421" x2="-39.7894" y2="95.0098" stroke="#6C6760" stroke-width="0.4"/>
<line x1="57.95" y1="0.141421" x2="-36.9183" y2="95.0098" stroke="#6C6760" stroke-width="0.4"/>
<line x1="60.8172" y1="0.141421" x2="-34.0511" y2="95.0098" stroke="#6C6760" stroke-width="0.4"/>
<line x1="63.6844" y1="0.141421" x2="-31.1839" y2="95.0098" stroke="#6C6760" stroke-width="0.4"/>
<line x1="66.5555" y1="0.141421" x2="-28.3128" y2="95.0098" stroke="#6C6760" stroke-width="0.4"/>
<line x1="69.4227" y1="0.141421" x2="-25.4457" y2="95.0098" stroke="#6C6760" stroke-width="0.4"/>
<line x1="72.2899" y1="0.141421" x2="-22.5785" y2="95.0098" stroke="#6C6760" stroke-width="0.4"/>
<line x1="75.157" y1="0.141421" x2="-19.7113" y2="95.0098" stroke="#6C6760" stroke-width="0.4"/>
<line x1="78.0281" y1="0.141421" x2="-16.8402" y2="95.0098" stroke="#6C6760" stroke-width="0.4"/>
<line x1="80.8953" y1="0.141421" x2="-13.973" y2="95.0098" stroke="#6C6760" stroke-width="0.4"/>
<line x1="83.7625" y1="0.141421" x2="-11.1058" y2="95.0098" stroke="#6C6760" stroke-width="0.4"/>
<line x1="86.6336" y1="0.141421" x2="-8.23472" y2="95.0098" stroke="#6C6760" stroke-width="0.4"/>
<line x1="89.5008" y1="0.141421" x2="-5.36753" y2="95.0098" stroke="#6C6760" stroke-width="0.4"/>
<line x1="92.368" y1="0.141421" x2="-2.50034" y2="95.0098" stroke="#6C6760" stroke-width="0.4"/>
<line x1="95.2391" y1="0.141421" x2="0.37075" y2="95.0098" stroke="#6C6760" stroke-width="0.4"/>
<line x1="98.1063" y1="0.141421" x2="3.23794" y2="95.0098" stroke="#6C6760" stroke-width="0.4"/>
<line x1="100.973" y1="0.141421" x2="6.10512" y2="95.0098" stroke="#6C6760" stroke-width="0.4"/>
<line x1="103.841" y1="0.141421" x2="8.97231" y2="95.0098" stroke="#6C6760" stroke-width="0.4"/>
<line x1="106.712" y1="0.141421" x2="11.8434" y2="95.0098" stroke="#6C6760" stroke-width="0.4"/>
<line x1="109.579" y1="0.141421" x2="14.7106" y2="95.0098" stroke="#6C6760" stroke-width="0.4"/>
<line x1="112.446" y1="0.141421" x2="17.5778" y2="95.0098" stroke="#6C6760" stroke-width="0.4"/>
<line x1="115.317" y1="0.141421" x2="20.4489" y2="95.0098" stroke="#6C6760" stroke-width="0.4"/>
<line x1="118.184" y1="0.141421" x2="23.3161" y2="95.0098" stroke="#6C6760" stroke-width="0.4"/>
<line x1="121.052" y1="0.141421" x2="26.1833" y2="95.0098" stroke="#6C6760" stroke-width="0.4"/>
<line x1="123.919" y1="0.141421" x2="29.0504" y2="95.0098" stroke="#6C6760" stroke-width="0.4"/>
<line x1="126.79" y1="0.141421" x2="31.9215" y2="95.0098" stroke="#6C6760" stroke-width="0.4"/>
<line x1="129.657" y1="0.141421" x2="34.7887" y2="95.0098" stroke="#6C6760" stroke-width="0.4"/>
<line x1="132.524" y1="0.141421" x2="37.6559" y2="95.0098" stroke="#6C6760" stroke-width="0.4"/>
<line x1="135.395" y1="0.141421" x2="40.527" y2="95.0098" stroke="#6C6760" stroke-width="0.4"/>
<line x1="138.263" y1="0.141421" x2="43.3942" y2="95.0098" stroke="#6C6760" stroke-width="0.4"/>
<line x1="141.13" y1="0.141421" x2="46.2614" y2="95.0098" stroke="#6C6760" stroke-width="0.4"/>
<line x1="143.997" y1="0.141421" x2="49.1286" y2="95.0098" stroke="#6C6760" stroke-width="0.4"/>
<line x1="146.868" y1="0.141421" x2="51.9997" y2="95.0098" stroke="#6C6760" stroke-width="0.4"/>
<line x1="149.735" y1="0.141421" x2="54.8668" y2="95.0098" stroke="#6C6760" stroke-width="0.4"/>
<line x1="152.602" y1="0.141421" x2="57.734" y2="95.0098" stroke="#6C6760" stroke-width="0.4"/>
<line x1="155.473" y1="0.141421" x2="60.6051" y2="95.0098" stroke="#6C6760" stroke-width="0.4"/>
<line x1="158.341" y1="0.141421" x2="63.4723" y2="95.0098" stroke="#6C6760" stroke-width="0.4"/>
<line x1="161.208" y1="0.141421" x2="66.3395" y2="95.0098" stroke="#6C6760" stroke-width="0.4"/>
<line x1="164.075" y1="0.141421" x2="69.2067" y2="95.0098" stroke="#6C6760" stroke-width="0.4"/>
<line x1="166.946" y1="0.141421" x2="72.0778" y2="95.0098" stroke="#6C6760" stroke-width="0.4"/>
<line x1="169.813" y1="0.141421" x2="74.945" y2="95.0098" stroke="#6C6760" stroke-width="0.4"/>
<line x1="172.68" y1="0.141421" x2="77.8122" y2="95.0098" stroke="#6C6760" stroke-width="0.4"/>
<line x1="175.552" y1="0.141421" x2="80.6833" y2="95.0098" stroke="#6C6760" stroke-width="0.4"/>
<line x1="178.419" y1="0.141421" x2="83.5504" y2="95.0098" stroke="#6C6760" stroke-width="0.4"/>
<line x1="181.286" y1="0.141421" x2="86.4176" y2="95.0098" stroke="#6C6760" stroke-width="0.4"/>
<line x1="184.157" y1="0.141421" x2="89.2887" y2="95.0098" stroke="#6C6760" stroke-width="0.4"/>
<line x1="187.024" y1="0.141421" x2="92.1559" y2="95.0098" stroke="#6C6760" stroke-width="0.4"/>
<line x1="189.891" y1="0.141421" x2="95.0231" y2="95.0098" stroke="#6C6760" stroke-width="0.4"/>
<line x1="192.759" y1="0.141421" x2="97.8903" y2="95.0098" stroke="#6C6760" stroke-width="0.4"/>
<line x1="195.63" y1="0.141421" x2="100.761" y2="95.0098" stroke="#6C6760" stroke-width="0.4"/>
<line x1="198.497" y1="0.141421" x2="103.629" y2="95.0098" stroke="#6C6760" stroke-width="0.4"/>
<line x1="201.364" y1="0.141421" x2="106.496" y2="95.0098" stroke="#6C6760" stroke-width="0.4"/>
<line x1="204.235" y1="0.141421" x2="109.367" y2="95.0098" stroke="#6C6760" stroke-width="0.4"/>
<line x1="207.102" y1="0.141421" x2="112.234" y2="95.0098" stroke="#6C6760" stroke-width="0.4"/>
<line x1="209.97" y1="0.141421" x2="115.101" y2="95.0098" stroke="#6C6760" stroke-width="0.4"/>
<line x1="212.837" y1="0.141421" x2="117.968" y2="95.0098" stroke="#6C6760" stroke-width="0.4"/>
<line x1="215.708" y1="0.141421" x2="120.84" y2="95.0098" stroke="#6C6760" stroke-width="0.4"/>
<line x1="218.575" y1="0.141421" x2="123.707" y2="95.0098" stroke="#6C6760" stroke-width="0.4"/>
<line x1="221.442" y1="0.141421" x2="126.574" y2="95.0098" stroke="#6C6760" stroke-width="0.4"/>
<line x1="224.313" y1="0.141421" x2="129.445" y2="95.0098" stroke="#6C6760" stroke-width="0.4"/>
<line x1="227.18" y1="0.141421" x2="132.312" y2="95.0098" stroke="#6C6760" stroke-width="0.4"/>
<line x1="230.048" y1="0.141421" x2="135.179" y2="95.0098" stroke="#6C6760" stroke-width="0.4"/>
<line x1="232.915" y1="0.141421" x2="138.047" y2="95.0098" stroke="#6C6760" stroke-width="0.4"/>
<line x1="235.786" y1="0.141421" x2="140.918" y2="95.0098" stroke="#6C6760" stroke-width="0.4"/>
<line x1="238.653" y1="0.141421" x2="143.785" y2="95.0098" stroke="#6C6760" stroke-width="0.4"/>
<line x1="241.52" y1="0.141421" x2="146.652" y2="95.0098" stroke="#6C6760" stroke-width="0.4"/>
<line x1="244.391" y1="0.141421" x2="149.523" y2="95.0098" stroke="#6C6760" stroke-width="0.4"/>
<line x1="247.259" y1="0.141421" x2="152.39" y2="95.0098" stroke="#6C6760" stroke-width="0.4"/>
<line x1="250.126" y1="0.141421" x2="155.257" y2="95.0098" stroke="#6C6760" stroke-width="0.4"/>
<line x1="252.997" y1="0.141421" x2="158.129" y2="95.0098" stroke="#6C6760" stroke-width="0.4"/>
<line x1="255.864" y1="0.141421" x2="160.996" y2="95.0098" stroke="#6C6760" stroke-width="0.4"/>
<line x1="258.731" y1="0.141421" x2="163.863" y2="95.0098" stroke="#6C6760" stroke-width="0.4"/>
<line x1="261.598" y1="0.141421" x2="166.73" y2="95.0098" stroke="#6C6760" stroke-width="0.4"/>
<line x1="264.47" y1="0.141421" x2="169.601" y2="95.0098" stroke="#6C6760" stroke-width="0.4"/>
<line x1="267.337" y1="0.141421" x2="172.468" y2="95.0098" stroke="#6C6760" stroke-width="0.4"/>
<line x1="270.204" y1="0.141421" x2="175.336" y2="95.0098" stroke="#6C6760" stroke-width="0.4"/>
<line x1="273.075" y1="0.141421" x2="178.207" y2="95.0098" stroke="#6C6760" stroke-width="0.4"/>
<line x1="275.942" y1="0.141421" x2="181.074" y2="95.0098" stroke="#6C6760" stroke-width="0.4"/>
<line x1="278.809" y1="0.141421" x2="183.941" y2="95.0098" stroke="#6C6760" stroke-width="0.4"/>
<line x1="281.677" y1="0.141421" x2="186.808" y2="95.0098" stroke="#6C6760" stroke-width="0.4"/>
<line x1="284.548" y1="0.141421" x2="189.679" y2="95.0098" stroke="#6C6760" stroke-width="0.4"/>
<line x1="287.415" y1="0.141421" x2="192.547" y2="95.0098" stroke="#6C6760" stroke-width="0.4"/>
<line x1="290.282" y1="0.141421" x2="195.414" y2="95.0098" stroke="#6C6760" stroke-width="0.4"/>
<line x1="293.153" y1="0.141421" x2="198.285" y2="95.0098" stroke="#6C6760" stroke-width="0.4"/>
<line x1="296.02" y1="0.141421" x2="201.152" y2="95.0098" stroke="#6C6760" stroke-width="0.4"/>
<line x1="298.888" y1="0.141421" x2="204.019" y2="95.0098" stroke="#6C6760" stroke-width="0.4"/>
<line x1="301.755" y1="0.141421" x2="206.886" y2="95.0098" stroke="#6C6760" stroke-width="0.4"/>
<line x1="304.626" y1="0.141421" x2="209.757" y2="95.0098" stroke="#6C6760" stroke-width="0.4"/>
<line x1="307.493" y1="0.141421" x2="212.625" y2="95.0098" stroke="#6C6760" stroke-width="0.4"/>
<line x1="310.36" y1="0.141421" x2="215.492" y2="95.0098" stroke="#6C6760" stroke-width="0.4"/>
<line x1="313.231" y1="0.141421" x2="218.363" y2="95.0098" stroke="#6C6760" stroke-width="0.4"/>
<line x1="316.098" y1="0.141421" x2="221.23" y2="95.0098" stroke="#6C6760" stroke-width="0.4"/>
<line x1="318.966" y1="0.141421" x2="224.097" y2="95.0098" stroke="#6C6760" stroke-width="0.4"/>
<line x1="321.833" y1="0.141421" x2="226.964" y2="95.0098" stroke="#6C6760" stroke-width="0.4"/>
<line x1="324.704" y1="0.141421" x2="229.836" y2="95.0098" stroke="#6C6760" stroke-width="0.4"/>
<line x1="327.571" y1="0.141421" x2="232.703" y2="95.0098" stroke="#6C6760" stroke-width="0.4"/>
<line x1="330.438" y1="0.141421" x2="235.57" y2="95.0098" stroke="#6C6760" stroke-width="0.4"/>
<line x1="333.309" y1="0.141421" x2="238.441" y2="95.0098" stroke="#6C6760" stroke-width="0.4"/>
<line x1="336.177" y1="0.141421" x2="241.308" y2="95.0098" stroke="#6C6760" stroke-width="0.4"/>
<line x1="339.044" y1="0.141421" x2="244.175" y2="95.0098" stroke="#6C6760" stroke-width="0.4"/>
<line x1="341.911" y1="0.141421" x2="247.043" y2="95.0098" stroke="#6C6760" stroke-width="0.4"/>
<line x1="344.782" y1="0.141421" x2="249.914" y2="95.0098" stroke="#6C6760" stroke-width="0.4"/>
<line x1="347.649" y1="0.141421" x2="252.781" y2="95.0098" stroke="#6C6760" stroke-width="0.4"/>
<line x1="350.516" y1="0.141421" x2="255.648" y2="95.0098" stroke="#6C6760" stroke-width="0.4"/>
<line x1="353.388" y1="0.141421" x2="258.519" y2="95.0098" stroke="#6C6760" stroke-width="0.4"/>
<line x1="356.255" y1="0.141421" x2="261.386" y2="95.0098" stroke="#6C6760" stroke-width="0.4"/>
<line x1="359.122" y1="0.141421" x2="264.254" y2="95.0098" stroke="#6C6760" stroke-width="0.4"/>
<line x1="361.989" y1="0.141421" x2="267.121" y2="95.0098" stroke="#6C6760" stroke-width="0.4"/>
<line x1="364.86" y1="0.141421" x2="269.992" y2="95.0098" stroke="#6C6760" stroke-width="0.4"/>
<line x1="367.727" y1="0.141421" x2="272.859" y2="95.0098" stroke="#6C6760" stroke-width="0.4"/>
<line x1="370.595" y1="0.141421" x2="275.726" y2="95.0098" stroke="#6C6760" stroke-width="0.4"/>
<line x1="373.466" y1="0.141421" x2="278.597" y2="95.0098" stroke="#6C6760" stroke-width="0.4"/>
<line x1="376.333" y1="0.141421" x2="281.465" y2="95.0098" stroke="#6C6760" stroke-width="0.4"/>
<line x1="379.2" y1="0.141421" x2="284.332" y2="95.0098" stroke="#6C6760" stroke-width="0.4"/>
<line x1="382.071" y1="0.141421" x2="287.203" y2="95.0098" stroke="#6C6760" stroke-width="0.4"/>
<line x1="384.938" y1="0.141421" x2="290.07" y2="95.0098" stroke="#6C6760" stroke-width="0.4"/>
<line x1="387.805" y1="0.141421" x2="292.937" y2="95.0098" stroke="#6C6760" stroke-width="0.4"/>
<line x1="390.673" y1="0.141421" x2="295.804" y2="95.0098" stroke="#6C6760" stroke-width="0.4"/>
<line x1="393.544" y1="0.141421" x2="298.675" y2="95.0098" stroke="#6C6760" stroke-width="0.4"/>
<line x1="396.411" y1="0.141421" x2="301.543" y2="95.0098" stroke="#6C6760" stroke-width="0.4"/>
<line x1="399.278" y1="0.141421" x2="304.41" y2="95.0098" stroke="#6C6760" stroke-width="0.4"/>
<line x1="402.149" y1="0.141421" x2="307.281" y2="95.0098" stroke="#6C6760" stroke-width="0.4"/>
<line x1="405.016" y1="0.141421" x2="310.148" y2="95.0098" stroke="#6C6760" stroke-width="0.4"/>
<line x1="407.884" y1="0.141421" x2="313.015" y2="95.0098" stroke="#6C6760" stroke-width="0.4"/>
<line x1="410.751" y1="0.141421" x2="315.882" y2="95.0098" stroke="#6C6760" stroke-width="0.4"/>
<line x1="413.622" y1="0.141421" x2="318.754" y2="95.0098" stroke="#6C6760" stroke-width="0.4"/>
<line x1="416.489" y1="0.141421" x2="321.621" y2="95.0098" stroke="#6C6760" stroke-width="0.4"/>
<line x1="419.356" y1="0.141421" x2="324.488" y2="95.0098" stroke="#6C6760" stroke-width="0.4"/>
<line x1="422.227" y1="0.141421" x2="327.359" y2="95.0098" stroke="#6C6760" stroke-width="0.4"/>
<line x1="425.095" y1="0.141421" x2="330.226" y2="95.0098" stroke="#6C6760" stroke-width="0.4"/>
<line x1="427.962" y1="0.141421" x2="333.093" y2="95.0098" stroke="#6C6760" stroke-width="0.4"/>
<line x1="430.829" y1="0.141421" x2="335.961" y2="95.0098" stroke="#6C6760" stroke-width="0.4"/>
<line x1="433.7" y1="0.141421" x2="338.832" y2="95.0098" stroke="#6C6760" stroke-width="0.4"/>
<line x1="436.567" y1="0.141421" x2="341.699" y2="95.0098" stroke="#6C6760" stroke-width="0.4"/>
</g>
</g>
</pattern><pattern id="pattern2_4481_13803" patternUnits="userSpaceOnUse" patternTransform="matrix(430.92 0 0 119.534 -197.46 -46.267)" preserveAspectRatio="none" viewBox="0 0 342 94.8683" width="1" height="1">
<g id="pattern2_4481_13803_inner">
<g clip-path="url(#clip2_4481_13803)">
<line x1="0.582828" y1="0.141421" x2="-94.2855" y2="95.0098" stroke="#6C6760" stroke-width="0.4"/>
<line x1="3.45002" y1="0.141421" x2="-91.4183" y2="95.0098" stroke="#6C6760" stroke-width="0.4"/>
<line x1="6.3172" y1="0.141421" x2="-88.5511" y2="95.0098" stroke="#6C6760" stroke-width="0.4"/>
<line x1="9.1883" y1="0.141421" x2="-85.68" y2="95.0098" stroke="#6C6760" stroke-width="0.4"/>
<line x1="12.0555" y1="0.141421" x2="-82.8128" y2="95.0098" stroke="#6C6760" stroke-width="0.4"/>
<line x1="14.9227" y1="0.141421" x2="-79.9457" y2="95.0098" stroke="#6C6760" stroke-width="0.4"/>
<line x1="17.7938" y1="0.141421" x2="-77.0746" y2="95.0098" stroke="#6C6760" stroke-width="0.4"/>
<line x1="20.661" y1="0.141421" x2="-74.2074" y2="95.0098" stroke="#6C6760" stroke-width="0.4"/>
<line x1="23.5281" y1="0.141421" x2="-71.3402" y2="95.0098" stroke="#6C6760" stroke-width="0.4"/>
<line x1="26.3992" y1="0.141421" x2="-68.4691" y2="95.0098" stroke="#6C6760" stroke-width="0.4"/>
<line x1="29.2664" y1="0.141421" x2="-65.6019" y2="95.0098" stroke="#6C6760" stroke-width="0.4"/>
<line x1="32.1336" y1="0.141421" x2="-62.7347" y2="95.0098" stroke="#6C6760" stroke-width="0.4"/>
<line x1="35.0008" y1="0.141421" x2="-59.8675" y2="95.0098" stroke="#6C6760" stroke-width="0.4"/>
<line x1="37.8719" y1="0.141421" x2="-56.9964" y2="95.0098" stroke="#6C6760" stroke-width="0.4"/>
<line x1="40.7391" y1="0.141421" x2="-54.1292" y2="95.0098" stroke="#6C6760" stroke-width="0.4"/>
<line x1="43.6063" y1="0.141421" x2="-51.2621" y2="95.0098" stroke="#6C6760" stroke-width="0.4"/>
<line x1="46.4774" y1="0.141421" x2="-48.391" y2="95.0098" stroke="#6C6760" stroke-width="0.4"/>
<line x1="49.3445" y1="0.141421" x2="-45.5238" y2="95.0098" stroke="#6C6760" stroke-width="0.4"/>
<line x1="52.2117" y1="0.141421" x2="-42.6566" y2="95.0098" stroke="#6C6760" stroke-width="0.4"/>
<line x1="55.0789" y1="0.141421" x2="-39.7894" y2="95.0098" stroke="#6C6760" stroke-width="0.4"/>
<line x1="57.95" y1="0.141421" x2="-36.9183" y2="95.0098" stroke="#6C6760" stroke-width="0.4"/>
<line x1="60.8172" y1="0.141421" x2="-34.0511" y2="95.0098" stroke="#6C6760" stroke-width="0.4"/>
<line x1="63.6844" y1="0.141421" x2="-31.1839" y2="95.0098" stroke="#6C6760" stroke-width="0.4"/>
<line x1="66.5555" y1="0.141421" x2="-28.3128" y2="95.0098" stroke="#6C6760" stroke-width="0.4"/>
<line x1="69.4227" y1="0.141421" x2="-25.4457" y2="95.0098" stroke="#6C6760" stroke-width="0.4"/>
<line x1="72.2899" y1="0.141421" x2="-22.5785" y2="95.0098" stroke="#6C6760" stroke-width="0.4"/>
<line x1="75.157" y1="0.141421" x2="-19.7113" y2="95.0098" stroke="#6C6760" stroke-width="0.4"/>
<line x1="78.0281" y1="0.141421" x2="-16.8402" y2="95.0098" stroke="#6C6760" stroke-width="0.4"/>
<line x1="80.8953" y1="0.141421" x2="-13.973" y2="95.0098" stroke="#6C6760" stroke-width="0.4"/>
<line x1="83.7625" y1="0.141421" x2="-11.1058" y2="95.0098" stroke="#6C6760" stroke-width="0.4"/>
<line x1="86.6336" y1="0.141421" x2="-8.23472" y2="95.0098" stroke="#6C6760" stroke-width="0.4"/>
<line x1="89.5008" y1="0.141421" x2="-5.36753" y2="95.0098" stroke="#6C6760" stroke-width="0.4"/>
<line x1="92.368" y1="0.141421" x2="-2.50034" y2="95.0098" stroke="#6C6760" stroke-width="0.4"/>
<line x1="95.2391" y1="0.141421" x2="0.37075" y2="95.0098" stroke="#6C6760" stroke-width="0.4"/>
<line x1="98.1063" y1="0.141421" x2="3.23794" y2="95.0098" stroke="#6C6760" stroke-width="0.4"/>
<line x1="100.973" y1="0.141421" x2="6.10512" y2="95.0098" stroke="#6C6760" stroke-width="0.4"/>
<line x1="103.841" y1="0.141421" x2="8.97231" y2="95.0098" stroke="#6C6760" stroke-width="0.4"/>
<line x1="106.712" y1="0.141421" x2="11.8434" y2="95.0098" stroke="#6C6760" stroke-width="0.4"/>
<line x1="109.579" y1="0.141421" x2="14.7106" y2="95.0098" stroke="#6C6760" stroke-width="0.4"/>
<line x1="112.446" y1="0.141421" x2="17.5778" y2="95.0098" stroke="#6C6760" stroke-width="0.4"/>
<line x1="115.317" y1="0.141421" x2="20.4489" y2="95.0098" stroke="#6C6760" stroke-width="0.4"/>
<line x1="118.184" y1="0.141421" x2="23.3161" y2="95.0098" stroke="#6C6760" stroke-width="0.4"/>
<line x1="121.052" y1="0.141421" x2="26.1833" y2="95.0098" stroke="#6C6760" stroke-width="0.4"/>
<line x1="123.919" y1="0.141421" x2="29.0504" y2="95.0098" stroke="#6C6760" stroke-width="0.4"/>
<line x1="126.79" y1="0.141421" x2="31.9215" y2="95.0098" stroke="#6C6760" stroke-width="0.4"/>
<line x1="129.657" y1="0.141421" x2="34.7887" y2="95.0098" stroke="#6C6760" stroke-width="0.4"/>
<line x1="132.524" y1="0.141421" x2="37.6559" y2="95.0098" stroke="#6C6760" stroke-width="0.4"/>
<line x1="135.395" y1="0.141421" x2="40.527" y2="95.0098" stroke="#6C6760" stroke-width="0.4"/>
<line x1="138.263" y1="0.141421" x2="43.3942" y2="95.0098" stroke="#6C6760" stroke-width="0.4"/>
<line x1="141.13" y1="0.141421" x2="46.2614" y2="95.0098" stroke="#6C6760" stroke-width="0.4"/>
<line x1="143.997" y1="0.141421" x2="49.1286" y2="95.0098" stroke="#6C6760" stroke-width="0.4"/>
<line x1="146.868" y1="0.141421" x2="51.9997" y2="95.0098" stroke="#6C6760" stroke-width="0.4"/>
<line x1="149.735" y1="0.141421" x2="54.8668" y2="95.0098" stroke="#6C6760" stroke-width="0.4"/>
<line x1="152.602" y1="0.141421" x2="57.734" y2="95.0098" stroke="#6C6760" stroke-width="0.4"/>
<line x1="155.473" y1="0.141421" x2="60.6051" y2="95.0098" stroke="#6C6760" stroke-width="0.4"/>
<line x1="158.341" y1="0.141421" x2="63.4723" y2="95.0098" stroke="#6C6760" stroke-width="0.4"/>
<line x1="161.208" y1="0.141421" x2="66.3395" y2="95.0098" stroke="#6C6760" stroke-width="0.4"/>
<line x1="164.075" y1="0.141421" x2="69.2067" y2="95.0098" stroke="#6C6760" stroke-width="0.4"/>
<line x1="166.946" y1="0.141421" x2="72.0778" y2="95.0098" stroke="#6C6760" stroke-width="0.4"/>
<line x1="169.813" y1="0.141421" x2="74.945" y2="95.0098" stroke="#6C6760" stroke-width="0.4"/>
<line x1="172.68" y1="0.141421" x2="77.8122" y2="95.0098" stroke="#6C6760" stroke-width="0.4"/>
<line x1="175.552" y1="0.141421" x2="80.6833" y2="95.0098" stroke="#6C6760" stroke-width="0.4"/>
<line x1="178.419" y1="0.141421" x2="83.5504" y2="95.0098" stroke="#6C6760" stroke-width="0.4"/>
<line x1="181.286" y1="0.141421" x2="86.4176" y2="95.0098" stroke="#6C6760" stroke-width="0.4"/>
<line x1="184.157" y1="0.141421" x2="89.2887" y2="95.0098" stroke="#6C6760" stroke-width="0.4"/>
<line x1="187.024" y1="0.141421" x2="92.1559" y2="95.0098" stroke="#6C6760" stroke-width="0.4"/>
<line x1="189.891" y1="0.141421" x2="95.0231" y2="95.0098" stroke="#6C6760" stroke-width="0.4"/>
<line x1="192.759" y1="0.141421" x2="97.8903" y2="95.0098" stroke="#6C6760" stroke-width="0.4"/>
<line x1="195.63" y1="0.141421" x2="100.761" y2="95.0098" stroke="#6C6760" stroke-width="0.4"/>
<line x1="198.497" y1="0.141421" x2="103.629" y2="95.0098" stroke="#6C6760" stroke-width="0.4"/>
<line x1="201.364" y1="0.141421" x2="106.496" y2="95.0098" stroke="#6C6760" stroke-width="0.4"/>
<line x1="204.235" y1="0.141421" x2="109.367" y2="95.0098" stroke="#6C6760" stroke-width="0.4"/>
<line x1="207.102" y1="0.141421" x2="112.234" y2="95.0098" stroke="#6C6760" stroke-width="0.4"/>
<line x1="209.97" y1="0.141421" x2="115.101" y2="95.0098" stroke="#6C6760" stroke-width="0.4"/>
<line x1="212.837" y1="0.141421" x2="117.968" y2="95.0098" stroke="#6C6760" stroke-width="0.4"/>
<line x1="215.708" y1="0.141421" x2="120.84" y2="95.0098" stroke="#6C6760" stroke-width="0.4"/>
<line x1="218.575" y1="0.141421" x2="123.707" y2="95.0098" stroke="#6C6760" stroke-width="0.4"/>
<line x1="221.442" y1="0.141421" x2="126.574" y2="95.0098" stroke="#6C6760" stroke-width="0.4"/>
<line x1="224.313" y1="0.141421" x2="129.445" y2="95.0098" stroke="#6C6760" stroke-width="0.4"/>
<line x1="227.18" y1="0.141421" x2="132.312" y2="95.0098" stroke="#6C6760" stroke-width="0.4"/>
<line x1="230.048" y1="0.141421" x2="135.179" y2="95.0098" stroke="#6C6760" stroke-width="0.4"/>
<line x1="232.915" y1="0.141421" x2="138.047" y2="95.0098" stroke="#6C6760" stroke-width="0.4"/>
<line x1="235.786" y1="0.141421" x2="140.918" y2="95.0098" stroke="#6C6760" stroke-width="0.4"/>
<line x1="238.653" y1="0.141421" x2="143.785" y2="95.0098" stroke="#6C6760" stroke-width="0.4"/>
<line x1="241.52" y1="0.141421" x2="146.652" y2="95.0098" stroke="#6C6760" stroke-width="0.4"/>
<line x1="244.391" y1="0.141421" x2="149.523" y2="95.0098" stroke="#6C6760" stroke-width="0.4"/>
<line x1="247.259" y1="0.141421" x2="152.39" y2="95.0098" stroke="#6C6760" stroke-width="0.4"/>
<line x1="250.126" y1="0.141421" x2="155.257" y2="95.0098" stroke="#6C6760" stroke-width="0.4"/>
<line x1="252.997" y1="0.141421" x2="158.129" y2="95.0098" stroke="#6C6760" stroke-width="0.4"/>
<line x1="255.864" y1="0.141421" x2="160.996" y2="95.0098" stroke="#6C6760" stroke-width="0.4"/>
<line x1="258.731" y1="0.141421" x2="163.863" y2="95.0098" stroke="#6C6760" stroke-width="0.4"/>
<line x1="261.598" y1="0.141421" x2="166.73" y2="95.0098" stroke="#6C6760" stroke-width="0.4"/>
<line x1="264.47" y1="0.141421" x2="169.601" y2="95.0098" stroke="#6C6760" stroke-width="0.4"/>
<line x1="267.337" y1="0.141421" x2="172.468" y2="95.0098" stroke="#6C6760" stroke-width="0.4"/>
<line x1="270.204" y1="0.141421" x2="175.336" y2="95.0098" stroke="#6C6760" stroke-width="0.4"/>
<line x1="273.075" y1="0.141421" x2="178.207" y2="95.0098" stroke="#6C6760" stroke-width="0.4"/>
<line x1="275.942" y1="0.141421" x2="181.074" y2="95.0098" stroke="#6C6760" stroke-width="0.4"/>
<line x1="278.809" y1="0.141421" x2="183.941" y2="95.0098" stroke="#6C6760" stroke-width="0.4"/>
<line x1="281.677" y1="0.141421" x2="186.808" y2="95.0098" stroke="#6C6760" stroke-width="0.4"/>
<line x1="284.548" y1="0.141421" x2="189.679" y2="95.0098" stroke="#6C6760" stroke-width="0.4"/>
<line x1="287.415" y1="0.141421" x2="192.547" y2="95.0098" stroke="#6C6760" stroke-width="0.4"/>
<line x1="290.282" y1="0.141421" x2="195.414" y2="95.0098" stroke="#6C6760" stroke-width="0.4"/>
<line x1="293.153" y1="0.141421" x2="198.285" y2="95.0098" stroke="#6C6760" stroke-width="0.4"/>
<line x1="296.02" y1="0.141421" x2="201.152" y2="95.0098" stroke="#6C6760" stroke-width="0.4"/>
<line x1="298.888" y1="0.141421" x2="204.019" y2="95.0098" stroke="#6C6760" stroke-width="0.4"/>
<line x1="301.755" y1="0.141421" x2="206.886" y2="95.0098" stroke="#6C6760" stroke-width="0.4"/>
<line x1="304.626" y1="0.141421" x2="209.757" y2="95.0098" stroke="#6C6760" stroke-width="0.4"/>
<line x1="307.493" y1="0.141421" x2="212.625" y2="95.0098" stroke="#6C6760" stroke-width="0.4"/>
<line x1="310.36" y1="0.141421" x2="215.492" y2="95.0098" stroke="#6C6760" stroke-width="0.4"/>
<line x1="313.231" y1="0.141421" x2="218.363" y2="95.0098" stroke="#6C6760" stroke-width="0.4"/>
<line x1="316.098" y1="0.141421" x2="221.23" y2="95.0098" stroke="#6C6760" stroke-width="0.4"/>
<line x1="318.966" y1="0.141421" x2="224.097" y2="95.0098" stroke="#6C6760" stroke-width="0.4"/>
<line x1="321.833" y1="0.141421" x2="226.964" y2="95.0098" stroke="#6C6760" stroke-width="0.4"/>
<line x1="324.704" y1="0.141421" x2="229.836" y2="95.0098" stroke="#6C6760" stroke-width="0.4"/>
<line x1="327.571" y1="0.141421" x2="232.703" y2="95.0098" stroke="#6C6760" stroke-width="0.4"/>
<line x1="330.438" y1="0.141421" x2="235.57" y2="95.0098" stroke="#6C6760" stroke-width="0.4"/>
<line x1="333.309" y1="0.141421" x2="238.441" y2="95.0098" stroke="#6C6760" stroke-width="0.4"/>
<line x1="336.177" y1="0.141421" x2="241.308" y2="95.0098" stroke="#6C6760" stroke-width="0.4"/>
<line x1="339.044" y1="0.141421" x2="244.175" y2="95.0098" stroke="#6C6760" stroke-width="0.4"/>
<line x1="341.911" y1="0.141421" x2="247.043" y2="95.0098" stroke="#6C6760" stroke-width="0.4"/>
<line x1="344.782" y1="0.141421" x2="249.914" y2="95.0098" stroke="#6C6760" stroke-width="0.4"/>
<line x1="347.649" y1="0.141421" x2="252.781" y2="95.0098" stroke="#6C6760" stroke-width="0.4"/>
<line x1="350.516" y1="0.141421" x2="255.648" y2="95.0098" stroke="#6C6760" stroke-width="0.4"/>
<line x1="353.388" y1="0.141421" x2="258.519" y2="95.0098" stroke="#6C6760" stroke-width="0.4"/>
<line x1="356.255" y1="0.141421" x2="261.386" y2="95.0098" stroke="#6C6760" stroke-width="0.4"/>
<line x1="359.122" y1="0.141421" x2="264.254" y2="95.0098" stroke="#6C6760" stroke-width="0.4"/>
<line x1="361.989" y1="0.141421" x2="267.121" y2="95.0098" stroke="#6C6760" stroke-width="0.4"/>
<line x1="364.86" y1="0.141421" x2="269.992" y2="95.0098" stroke="#6C6760" stroke-width="0.4"/>
<line x1="367.727" y1="0.141421" x2="272.859" y2="95.0098" stroke="#6C6760" stroke-width="0.4"/>
<line x1="370.595" y1="0.141421" x2="275.726" y2="95.0098" stroke="#6C6760" stroke-width="0.4"/>
<line x1="373.466" y1="0.141421" x2="278.597" y2="95.0098" stroke="#6C6760" stroke-width="0.4"/>
<line x1="376.333" y1="0.141421" x2="281.465" y2="95.0098" stroke="#6C6760" stroke-width="0.4"/>
<line x1="379.2" y1="0.141421" x2="284.332" y2="95.0098" stroke="#6C6760" stroke-width="0.4"/>
<line x1="382.071" y1="0.141421" x2="287.203" y2="95.0098" stroke="#6C6760" stroke-width="0.4"/>
<line x1="384.938" y1="0.141421" x2="290.07" y2="95.0098" stroke="#6C6760" stroke-width="0.4"/>
<line x1="387.805" y1="0.141421" x2="292.937" y2="95.0098" stroke="#6C6760" stroke-width="0.4"/>
<line x1="390.673" y1="0.141421" x2="295.804" y2="95.0098" stroke="#6C6760" stroke-width="0.4"/>
<line x1="393.544" y1="0.141421" x2="298.675" y2="95.0098" stroke="#6C6760" stroke-width="0.4"/>
<line x1="396.411" y1="0.141421" x2="301.543" y2="95.0098" stroke="#6C6760" stroke-width="0.4"/>
<line x1="399.278" y1="0.141421" x2="304.41" y2="95.0098" stroke="#6C6760" stroke-width="0.4"/>
<line x1="402.149" y1="0.141421" x2="307.281" y2="95.0098" stroke="#6C6760" stroke-width="0.4"/>
<line x1="405.016" y1="0.141421" x2="310.148" y2="95.0098" stroke="#6C6760" stroke-width="0.4"/>
<line x1="407.884" y1="0.141421" x2="313.015" y2="95.0098" stroke="#6C6760" stroke-width="0.4"/>
<line x1="410.751" y1="0.141421" x2="315.882" y2="95.0098" stroke="#6C6760" stroke-width="0.4"/>
<line x1="413.622" y1="0.141421" x2="318.754" y2="95.0098" stroke="#6C6760" stroke-width="0.4"/>
<line x1="416.489" y1="0.141421" x2="321.621" y2="95.0098" stroke="#6C6760" stroke-width="0.4"/>
<line x1="419.356" y1="0.141421" x2="324.488" y2="95.0098" stroke="#6C6760" stroke-width="0.4"/>
<line x1="422.227" y1="0.141421" x2="327.359" y2="95.0098" stroke="#6C6760" stroke-width="0.4"/>
<line x1="425.095" y1="0.141421" x2="330.226" y2="95.0098" stroke="#6C6760" stroke-width="0.4"/>
<line x1="427.962" y1="0.141421" x2="333.093" y2="95.0098" stroke="#6C6760" stroke-width="0.4"/>
<line x1="430.829" y1="0.141421" x2="335.961" y2="95.0098" stroke="#6C6760" stroke-width="0.4"/>
<line x1="433.7" y1="0.141421" x2="338.832" y2="95.0098" stroke="#6C6760" stroke-width="0.4"/>
<line x1="436.567" y1="0.141421" x2="341.699" y2="95.0098" stroke="#6C6760" stroke-width="0.4"/>
</g>
</g>
</pattern><pattern id="pattern3_4481_13803" patternUnits="userSpaceOnUse" patternTransform="matrix(430.92 0 0 119.534 -197.46 -46.267)" preserveAspectRatio="none" viewBox="0 0 342 94.8683" width="1" height="1">
<g id="pattern3_4481_13803_inner">
<g clip-path="url(#clip3_4481_13803)">
<line x1="0.582828" y1="0.141421" x2="-94.2855" y2="95.0098" stroke="#6C6760" stroke-width="0.4"/>
<line x1="3.45002" y1="0.141421" x2="-91.4183" y2="95.0098" stroke="#6C6760" stroke-width="0.4"/>
<line x1="6.3172" y1="0.141421" x2="-88.5511" y2="95.0098" stroke="#6C6760" stroke-width="0.4"/>
<line x1="9.1883" y1="0.141421" x2="-85.68" y2="95.0098" stroke="#6C6760" stroke-width="0.4"/>
<line x1="12.0555" y1="0.141421" x2="-82.8128" y2="95.0098" stroke="#6C6760" stroke-width="0.4"/>
<line x1="14.9227" y1="0.141421" x2="-79.9457" y2="95.0098" stroke="#6C6760" stroke-width="0.4"/>
<line x1="17.7938" y1="0.141421" x2="-77.0746" y2="95.0098" stroke="#6C6760" stroke-width="0.4"/>
<line x1="20.661" y1="0.141421" x2="-74.2074" y2="95.0098" stroke="#6C6760" stroke-width="0.4"/>
<line x1="23.5281" y1="0.141421" x2="-71.3402" y2="95.0098" stroke="#6C6760" stroke-width="0.4"/>
<line x1="26.3992" y1="0.141421" x2="-68.4691" y2="95.0098" stroke="#6C6760" stroke-width="0.4"/>
<line x1="29.2664" y1="0.141421" x2="-65.6019" y2="95.0098" stroke="#6C6760" stroke-width="0.4"/>
<line x1="32.1336" y1="0.141421" x2="-62.7347" y2="95.0098" stroke="#6C6760" stroke-width="0.4"/>
<line x1="35.0008" y1="0.141421" x2="-59.8675" y2="95.0098" stroke="#6C6760" stroke-width="0.4"/>
<line x1="37.8719" y1="0.141421" x2="-56.9964" y2="95.0098" stroke="#6C6760" stroke-width="0.4"/>
<line x1="40.7391" y1="0.141421" x2="-54.1292" y2="95.0098" stroke="#6C6760" stroke-width="0.4"/>
<line x1="43.6063" y1="0.141421" x2="-51.2621" y2="95.0098" stroke="#6C6760" stroke-width="0.4"/>
<line x1="46.4774" y1="0.141421" x2="-48.391" y2="95.0098" stroke="#6C6760" stroke-width="0.4"/>
<line x1="49.3445" y1="0.141421" x2="-45.5238" y2="95.0098" stroke="#6C6760" stroke-width="0.4"/>
<line x1="52.2117" y1="0.141421" x2="-42.6566" y2="95.0098" stroke="#6C6760" stroke-width="0.4"/>
<line x1="55.0789" y1="0.141421" x2="-39.7894" y2="95.0098" stroke="#6C6760" stroke-width="0.4"/>
<line x1="57.95" y1="0.141421" x2="-36.9183" y2="95.0098" stroke="#6C6760" stroke-width="0.4"/>
<line x1="60.8172" y1="0.141421" x2="-34.0511" y2="95.0098" stroke="#6C6760" stroke-width="0.4"/>
<line x1="63.6844" y1="0.141421" x2="-31.1839" y2="95.0098" stroke="#6C6760" stroke-width="0.4"/>
<line x1="66.5555" y1="0.141421" x2="-28.3128" y2="95.0098" stroke="#6C6760" stroke-width="0.4"/>
<line x1="69.4227" y1="0.141421" x2="-25.4457" y2="95.0098" stroke="#6C6760" stroke-width="0.4"/>
<line x1="72.2899" y1="0.141421" x2="-22.5785" y2="95.0098" stroke="#6C6760" stroke-width="0.4"/>
<line x1="75.157" y1="0.141421" x2="-19.7113" y2="95.0098" stroke="#6C6760" stroke-width="0.4"/>
<line x1="78.0281" y1="0.141421" x2="-16.8402" y2="95.0098" stroke="#6C6760" stroke-width="0.4"/>
<line x1="80.8953" y1="0.141421" x2="-13.973" y2="95.0098" stroke="#6C6760" stroke-width="0.4"/>
<line x1="83.7625" y1="0.141421" x2="-11.1058" y2="95.0098" stroke="#6C6760" stroke-width="0.4"/>
<line x1="86.6336" y1="0.141421" x2="-8.23472" y2="95.0098" stroke="#6C6760" stroke-width="0.4"/>
<line x1="89.5008" y1="0.141421" x2="-5.36753" y2="95.0098" stroke="#6C6760" stroke-width="0.4"/>
<line x1="92.368" y1="0.141421" x2="-2.50034" y2="95.0098" stroke="#6C6760" stroke-width="0.4"/>
<line x1="95.2391" y1="0.141421" x2="0.37075" y2="95.0098" stroke="#6C6760" stroke-width="0.4"/>
<line x1="98.1063" y1="0.141421" x2="3.23794" y2="95.0098" stroke="#6C6760" stroke-width="0.4"/>
<line x1="100.973" y1="0.141421" x2="6.10512" y2="95.0098" stroke="#6C6760" stroke-width="0.4"/>
<line x1="103.841" y1="0.141421" x2="8.97231" y2="95.0098" stroke="#6C6760" stroke-width="0.4"/>
<line x1="106.712" y1="0.141421" x2="11.8434" y2="95.0098" stroke="#6C6760" stroke-width="0.4"/>
<line x1="109.579" y1="0.141421" x2="14.7106" y2="95.0098" stroke="#6C6760" stroke-width="0.4"/>
<line x1="112.446" y1="0.141421" x2="17.5778" y2="95.0098" stroke="#6C6760" stroke-width="0.4"/>
<line x1="115.317" y1="0.141421" x2="20.4489" y2="95.0098" stroke="#6C6760" stroke-width="0.4"/>
<line x1="118.184" y1="0.141421" x2="23.3161" y2="95.0098" stroke="#6C6760" stroke-width="0.4"/>
<line x1="121.052" y1="0.141421" x2="26.1833" y2="95.0098" stroke="#6C6760" stroke-width="0.4"/>
<line x1="123.919" y1="0.141421" x2="29.0504" y2="95.0098" stroke="#6C6760" stroke-width="0.4"/>
<line x1="126.79" y1="0.141421" x2="31.9215" y2="95.0098" stroke="#6C6760" stroke-width="0.4"/>
<line x1="129.657" y1="0.141421" x2="34.7887" y2="95.0098" stroke="#6C6760" stroke-width="0.4"/>
<line x1="132.524" y1="0.141421" x2="37.6559" y2="95.0098" stroke="#6C6760" stroke-width="0.4"/>
<line x1="135.395" y1="0.141421" x2="40.527" y2="95.0098" stroke="#6C6760" stroke-width="0.4"/>
<line x1="138.263" y1="0.141421" x2="43.3942" y2="95.0098" stroke="#6C6760" stroke-width="0.4"/>
<line x1="141.13" y1="0.141421" x2="46.2614" y2="95.0098" stroke="#6C6760" stroke-width="0.4"/>
<line x1="143.997" y1="0.141421" x2="49.1286" y2="95.0098" stroke="#6C6760" stroke-width="0.4"/>
<line x1="146.868" y1="0.141421" x2="51.9997" y2="95.0098" stroke="#6C6760" stroke-width="0.4"/>
<line x1="149.735" y1="0.141421" x2="54.8668" y2="95.0098" stroke="#6C6760" stroke-width="0.4"/>
<line x1="152.602" y1="0.141421" x2="57.734" y2="95.0098" stroke="#6C6760" stroke-width="0.4"/>
<line x1="155.473" y1="0.141421" x2="60.6051" y2="95.0098" stroke="#6C6760" stroke-width="0.4"/>
<line x1="158.341" y1="0.141421" x2="63.4723" y2="95.0098" stroke="#6C6760" stroke-width="0.4"/>
<line x1="161.208" y1="0.141421" x2="66.3395" y2="95.0098" stroke="#6C6760" stroke-width="0.4"/>
<line x1="164.075" y1="0.141421" x2="69.2067" y2="95.0098" stroke="#6C6760" stroke-width="0.4"/>
<line x1="166.946" y1="0.141421" x2="72.0778" y2="95.0098" stroke="#6C6760" stroke-width="0.4"/>
<line x1="169.813" y1="0.141421" x2="74.945" y2="95.0098" stroke="#6C6760" stroke-width="0.4"/>
<line x1="172.68" y1="0.141421" x2="77.8122" y2="95.0098" stroke="#6C6760" stroke-width="0.4"/>
<line x1="175.552" y1="0.141421" x2="80.6833" y2="95.0098" stroke="#6C6760" stroke-width="0.4"/>
<line x1="178.419" y1="0.141421" x2="83.5504" y2="95.0098" stroke="#6C6760" stroke-width="0.4"/>
<line x1="181.286" y1="0.141421" x2="86.4176" y2="95.0098" stroke="#6C6760" stroke-width="0.4"/>
<line x1="184.157" y1="0.141421" x2="89.2887" y2="95.0098" stroke="#6C6760" stroke-width="0.4"/>
<line x1="187.024" y1="0.141421" x2="92.1559" y2="95.0098" stroke="#6C6760" stroke-width="0.4"/>
<line x1="189.891" y1="0.141421" x2="95.0231" y2="95.0098" stroke="#6C6760" stroke-width="0.4"/>
<line x1="192.759" y1="0.141421" x2="97.8903" y2="95.0098" stroke="#6C6760" stroke-width="0.4"/>
<line x1="195.63" y1="0.141421" x2="100.761" y2="95.0098" stroke="#6C6760" stroke-width="0.4"/>
<line x1="198.497" y1="0.141421" x2="103.629" y2="95.0098" stroke="#6C6760" stroke-width="0.4"/>
<line x1="201.364" y1="0.141421" x2="106.496" y2="95.0098" stroke="#6C6760" stroke-width="0.4"/>
<line x1="204.235" y1="0.141421" x2="109.367" y2="95.0098" stroke="#6C6760" stroke-width="0.4"/>
<line x1="207.102" y1="0.141421" x2="112.234" y2="95.0098" stroke="#6C6760" stroke-width="0.4"/>
<line x1="209.97" y1="0.141421" x2="115.101" y2="95.0098" stroke="#6C6760" stroke-width="0.4"/>
<line x1="212.837" y1="0.141421" x2="117.968" y2="95.0098" stroke="#6C6760" stroke-width="0.4"/>
<line x1="215.708" y1="0.141421" x2="120.84" y2="95.0098" stroke="#6C6760" stroke-width="0.4"/>
<line x1="218.575" y1="0.141421" x2="123.707" y2="95.0098" stroke="#6C6760" stroke-width="0.4"/>
<line x1="221.442" y1="0.141421" x2="126.574" y2="95.0098" stroke="#6C6760" stroke-width="0.4"/>
<line x1="224.313" y1="0.141421" x2="129.445" y2="95.0098" stroke="#6C6760" stroke-width="0.4"/>
<line x1="227.18" y1="0.141421" x2="132.312" y2="95.0098" stroke="#6C6760" stroke-width="0.4"/>
<line x1="230.048" y1="0.141421" x2="135.179" y2="95.0098" stroke="#6C6760" stroke-width="0.4"/>
<line x1="232.915" y1="0.141421" x2="138.047" y2="95.0098" stroke="#6C6760" stroke-width="0.4"/>
<line x1="235.786" y1="0.141421" x2="140.918" y2="95.0098" stroke="#6C6760" stroke-width="0.4"/>
<line x1="238.653" y1="0.141421" x2="143.785" y2="95.0098" stroke="#6C6760" stroke-width="0.4"/>
<line x1="241.52" y1="0.141421" x2="146.652" y2="95.0098" stroke="#6C6760" stroke-width="0.4"/>
<line x1="244.391" y1="0.141421" x2="149.523" y2="95.0098" stroke="#6C6760" stroke-width="0.4"/>
<line x1="247.259" y1="0.141421" x2="152.39" y2="95.0098" stroke="#6C6760" stroke-width="0.4"/>
<line x1="250.126" y1="0.141421" x2="155.257" y2="95.0098" stroke="#6C6760" stroke-width="0.4"/>
<line x1="252.997" y1="0.141421" x2="158.129" y2="95.0098" stroke="#6C6760" stroke-width="0.4"/>
<line x1="255.864" y1="0.141421" x2="160.996" y2="95.0098" stroke="#6C6760" stroke-width="0.4"/>
<line x1="258.731" y1="0.141421" x2="163.863" y2="95.0098" stroke="#6C6760" stroke-width="0.4"/>
<line x1="261.598" y1="0.141421" x2="166.73" y2="95.0098" stroke="#6C6760" stroke-width="0.4"/>
<line x1="264.47" y1="0.141421" x2="169.601" y2="95.0098" stroke="#6C6760" stroke-width="0.4"/>
<line x1="267.337" y1="0.141421" x2="172.468" y2="95.0098" stroke="#6C6760" stroke-width="0.4"/>
<line x1="270.204" y1="0.141421" x2="175.336" y2="95.0098" stroke="#6C6760" stroke-width="0.4"/>
<line x1="273.075" y1="0.141421" x2="178.207" y2="95.0098" stroke="#6C6760" stroke-width="0.4"/>
<line x1="275.942" y1="0.141421" x2="181.074" y2="95.0098" stroke="#6C6760" stroke-width="0.4"/>
<line x1="278.809" y1="0.141421" x2="183.941" y2="95.0098" stroke="#6C6760" stroke-width="0.4"/>
<line x1="281.677" y1="0.141421" x2="186.808" y2="95.0098" stroke="#6C6760" stroke-width="0.4"/>
<line x1="284.548" y1="0.141421" x2="189.679" y2="95.0098" stroke="#6C6760" stroke-width="0.4"/>
<line x1="287.415" y1="0.141421" x2="192.547" y2="95.0098" stroke="#6C6760" stroke-width="0.4"/>
<line x1="290.282" y1="0.141421" x2="195.414" y2="95.0098" stroke="#6C6760" stroke-width="0.4"/>
<line x1="293.153" y1="0.141421" x2="198.285" y2="95.0098" stroke="#6C6760" stroke-width="0.4"/>
<line x1="296.02" y1="0.141421" x2="201.152" y2="95.0098" stroke="#6C6760" stroke-width="0.4"/>
<line x1="298.888" y1="0.141421" x2="204.019" y2="95.0098" stroke="#6C6760" stroke-width="0.4"/>
<line x1="301.755" y1="0.141421" x2="206.886" y2="95.0098" stroke="#6C6760" stroke-width="0.4"/>
<line x1="304.626" y1="0.141421" x2="209.757" y2="95.0098" stroke="#6C6760" stroke-width="0.4"/>
<line x1="307.493" y1="0.141421" x2="212.625" y2="95.0098" stroke="#6C6760" stroke-width="0.4"/>
<line x1="310.36" y1="0.141421" x2="215.492" y2="95.0098" stroke="#6C6760" stroke-width="0.4"/>
<line x1="313.231" y1="0.141421" x2="218.363" y2="95.0098" stroke="#6C6760" stroke-width="0.4"/>
<line x1="316.098" y1="0.141421" x2="221.23" y2="95.0098" stroke="#6C6760" stroke-width="0.4"/>
<line x1="318.966" y1="0.141421" x2="224.097" y2="95.0098" stroke="#6C6760" stroke-width="0.4"/>
<line x1="321.833" y1="0.141421" x2="226.964" y2="95.0098" stroke="#6C6760" stroke-width="0.4"/>
<line x1="324.704" y1="0.141421" x2="229.836" y2="95.0098" stroke="#6C6760" stroke-width="0.4"/>
<line x1="327.571" y1="0.141421" x2="232.703" y2="95.0098" stroke="#6C6760" stroke-width="0.4"/>
<line x1="330.438" y1="0.141421" x2="235.57" y2="95.0098" stroke="#6C6760" stroke-width="0.4"/>
<line x1="333.309" y1="0.141421" x2="238.441" y2="95.0098" stroke="#6C6760" stroke-width="0.4"/>
<line x1="336.177" y1="0.141421" x2="241.308" y2="95.0098" stroke="#6C6760" stroke-width="0.4"/>
<line x1="339.044" y1="0.141421" x2="244.175" y2="95.0098" stroke="#6C6760" stroke-width="0.4"/>
<line x1="341.911" y1="0.141421" x2="247.043" y2="95.0098" stroke="#6C6760" stroke-width="0.4"/>
<line x1="344.782" y1="0.141421" x2="249.914" y2="95.0098" stroke="#6C6760" stroke-width="0.4"/>
<line x1="347.649" y1="0.141421" x2="252.781" y2="95.0098" stroke="#6C6760" stroke-width="0.4"/>
<line x1="350.516" y1="0.141421" x2="255.648" y2="95.0098" stroke="#6C6760" stroke-width="0.4"/>
<line x1="353.388" y1="0.141421" x2="258.519" y2="95.0098" stroke="#6C6760" stroke-width="0.4"/>
<line x1="356.255" y1="0.141421" x2="261.386" y2="95.0098" stroke="#6C6760" stroke-width="0.4"/>
<line x1="359.122" y1="0.141421" x2="264.254" y2="95.0098" stroke="#6C6760" stroke-width="0.4"/>
<line x1="361.989" y1="0.141421" x2="267.121" y2="95.0098" stroke="#6C6760" stroke-width="0.4"/>
<line x1="364.86" y1="0.141421" x2="269.992" y2="95.0098" stroke="#6C6760" stroke-width="0.4"/>
<line x1="367.727" y1="0.141421" x2="272.859" y2="95.0098" stroke="#6C6760" stroke-width="0.4"/>
<line x1="370.595" y1="0.141421" x2="275.726" y2="95.0098" stroke="#6C6760" stroke-width="0.4"/>
<line x1="373.466" y1="0.141421" x2="278.597" y2="95.0098" stroke="#6C6760" stroke-width="0.4"/>
<line x1="376.333" y1="0.141421" x2="281.465" y2="95.0098" stroke="#6C6760" stroke-width="0.4"/>
<line x1="379.2" y1="0.141421" x2="284.332" y2="95.0098" stroke="#6C6760" stroke-width="0.4"/>
<line x1="382.071" y1="0.141421" x2="287.203" y2="95.0098" stroke="#6C6760" stroke-width="0.4"/>
<line x1="384.938" y1="0.141421" x2="290.07" y2="95.0098" stroke="#6C6760" stroke-width="0.4"/>
<line x1="387.805" y1="0.141421" x2="292.937" y2="95.0098" stroke="#6C6760" stroke-width="0.4"/>
<line x1="390.673" y1="0.141421" x2="295.804" y2="95.0098" stroke="#6C6760" stroke-width="0.4"/>
<line x1="393.544" y1="0.141421" x2="298.675" y2="95.0098" stroke="#6C6760" stroke-width="0.4"/>
<line x1="396.411" y1="0.141421" x2="301.543" y2="95.0098" stroke="#6C6760" stroke-width="0.4"/>
<line x1="399.278" y1="0.141421" x2="304.41" y2="95.0098" stroke="#6C6760" stroke-width="0.4"/>
<line x1="402.149" y1="0.141421" x2="307.281" y2="95.0098" stroke="#6C6760" stroke-width="0.4"/>
<line x1="405.016" y1="0.141421" x2="310.148" y2="95.0098" stroke="#6C6760" stroke-width="0.4"/>
<line x1="407.884" y1="0.141421" x2="313.015" y2="95.0098" stroke="#6C6760" stroke-width="0.4"/>
<line x1="410.751" y1="0.141421" x2="315.882" y2="95.0098" stroke="#6C6760" stroke-width="0.4"/>
<line x1="413.622" y1="0.141421" x2="318.754" y2="95.0098" stroke="#6C6760" stroke-width="0.4"/>
<line x1="416.489" y1="0.141421" x2="321.621" y2="95.0098" stroke="#6C6760" stroke-width="0.4"/>
<line x1="419.356" y1="0.141421" x2="324.488" y2="95.0098" stroke="#6C6760" stroke-width="0.4"/>
<line x1="422.227" y1="0.141421" x2="327.359" y2="95.0098" stroke="#6C6760" stroke-width="0.4"/>
<line x1="425.095" y1="0.141421" x2="330.226" y2="95.0098" stroke="#6C6760" stroke-width="0.4"/>
<line x1="427.962" y1="0.141421" x2="333.093" y2="95.0098" stroke="#6C6760" stroke-width="0.4"/>
<line x1="430.829" y1="0.141421" x2="335.961" y2="95.0098" stroke="#6C6760" stroke-width="0.4"/>
<line x1="433.7" y1="0.141421" x2="338.832" y2="95.0098" stroke="#6C6760" stroke-width="0.4"/>
<line x1="436.567" y1="0.141421" x2="341.699" y2="95.0098" stroke="#6C6760" stroke-width="0.4"/>
</g>
</g>
</pattern><clipPath id="clip0_4481_13803">
<rect width="400" height="400" fill="white"/>
</clipPath>
<clipPath id="clip1_4481_13803">
<rect width="342" height="94.8683" fill="white"/>
</clipPath>
<clipPath id="clip2_4481_13803">
<rect width="342" height="94.8683" fill="white"/>
</clipPath>
<clipPath id="clip3_4481_13803">
<rect width="342" height="94.8683" fill="white"/>
</clipPath>
</defs>
</svg>
