<svg xmlns="http://www.w3.org/2000/svg" width="24" height="24" fill="none" viewBox="0 0 24 24"><g style="mix-blend-mode:plus-lighter"><mask id="b" width="24" height="24" x="0" y="0" maskUnits="userSpaceOnUse" style="mask-type:alpha"><path fill="url(#a)" d="M0 0h24v24H0z"/></mask><g mask="url(#b)"><path fill="url(#c)" fill-opacity=".2" d="M0 0h24v24H0z"/></g></g><defs><radialGradient id="a" cx="0" cy="0" r="1" gradientTransform="matrix(0 -24 12.0498 0 12.05 24)" gradientUnits="userSpaceOnUse"><stop stop-color="#cfccc9"/><stop offset="1" stop-color="#cfccc9" stop-opacity=".1"/></radialGradient><clipPath id="d"><path fill="#fff" d="M0 0h342v94.868H0z"/></clipPath><pattern id="c" width="1" height="1" patternTransform="scale(478.8 132.816)" patternUnits="userSpaceOnUse" preserveAspectRatio="none" viewBox="0 0 342 94.868"><g stroke="#6c6760" stroke-width=".4" clip-path="url(#d)"><path d="M.582.141-94.286 95.01M3.451.141-91.418 95.01M6.319.141-88.549 95.01M9.187.141-85.681 95.01M12.056.141-82.813 95.01M14.924.141-79.944 95.01M17.792.141-77.076 95.01M20.661.141-74.208 95.01M23.529.141-71.339 95.01M26.397.141-68.471 95.01M29.266.141-65.603 95.01M32.134.141-62.734 95.01M35.002.141-59.866 95.01M37.871.141-56.998 95.01M40.739.141-54.129 95.01M43.607.141-51.261 95.01M46.476.141-48.393 95.01M49.344.141-45.524 95.01M52.212.141-42.656 95.01M55.081.141-39.788 95.01M57.949.141-36.919 95.01M60.817.141-34.051 95.01M63.686.141-31.183 95.01M66.554.141-28.314 95.01M69.422.141-25.446 95.01M72.291.141-22.578 95.01M75.159.141-19.709 95.01M78.027.141-16.841 95.01M80.895.141-13.973 95.01M83.764.141-11.104 95.01M86.632.141-8.236 95.01M89.501.141-5.368 95.01M92.369.141-2.499 95.01M95.237.141.369 95.01M98.106.141 3.237 95.01M100.974.141 6.105 95.01M103.842.141 8.974 95.01M106.71.141 11.842 95.01M109.579.141 14.71 95.01M112.447.141 17.579 95.01M115.315.141 20.447 95.01M118.184.141 23.315 95.01M121.052.141 26.184 95.01M123.92.141 29.052 95.01M126.789.141 31.92 95.01M129.657.141 34.789 95.01M132.525.141 37.657 95.01M135.394.141 40.525 95.01M138.262.141 43.394 95.01M141.13.141 46.262 95.01M143.999.141 49.13 95.01M146.867.141 51.999 95.01M149.735.141 54.867 95.01M152.604.141 57.735 95.01M155.472.141 60.604 95.01M158.34.141 63.472 95.01M161.209.141 66.34 95.01M164.077.141 69.209 95.01M166.945.141 72.077 95.01M169.814.141 74.945 95.01M172.682.141 77.814 95.01M175.55.141 80.682 95.01M178.419.141 83.55 95.01M181.287.141 86.419 95.01M184.155.141 89.287 95.01M187.024.141 92.155 95.01M189.892.141 95.024 95.01M192.76.141 97.892 95.01M195.629.141 100.76 95.01M198.497.141 103.629 95.01M201.365.141 106.497 95.01M204.233.141 109.365 95.01M207.102.141 112.233 95.01M209.97.141 115.102 95.01M212.838.141 117.97 95.01M215.707.141 120.838 95.01M218.575.141 123.707 95.01M221.443.141 126.575 95.01M224.312.141 129.443 95.01M227.18.141 132.312 95.01M230.048.141 135.18 95.01M232.917.141 138.048 95.01M235.785.141 140.917 95.01M238.653.141 143.785 95.01M241.522.141 146.653 95.01M244.39.141 149.522 95.01M247.258.141 152.39 95.01M250.127.141 155.258 95.01M252.995.141 158.127 95.01M255.863.141 160.995 95.01M258.732.141 163.863 95.01M261.6.141 166.732 95.01M264.468.141 169.6 95.01M267.337.141 172.468 95.01M270.205.141 175.337 95.01M273.073.141 178.205 95.01M275.941.141 181.073 95.01M278.81.141 183.941 95.01M281.678.141 186.81 95.01M284.546.141 189.678 95.01M287.415.141 192.546 95.01M290.283.141 195.415 95.01M293.151.141 198.283 95.01M296.02.141 201.151 95.01M298.888.141 204.02 95.01M301.756.141 206.888 95.01M304.625.141 209.756 95.01M307.493.141 212.625 95.01M310.361.141 215.493 95.01M313.23.141 218.361 95.01M316.098.141 221.23 95.01M318.966.141 224.098 95.01M321.835.141 226.966 95.01M324.703.141 229.835 95.01M327.571.141 232.703 95.01M330.439.141 235.571 95.01M333.308.141 238.439 95.01M336.176.141 241.308 95.01M339.044.141 244.176 95.01M341.913.141 247.044 95.01M344.781.141 249.913 95.01M347.649.141 252.781 95.01M350.518.141 255.649 95.01M353.386.141 258.518 95.01M356.254.141 261.386 95.01M359.123.141 264.254 95.01M361.991.141 267.123 95.01M364.859.141 269.991 95.01M367.728.141 272.859 95.01M370.596.141 275.728 95.01M373.464.141 278.596 95.01M376.333.141 281.464 95.01M379.201.141 284.333 95.01M382.069.141 287.201 95.01M384.938.141 290.069 95.01M387.806.141 292.938 95.01M390.674.141 295.806 95.01M393.542.141 298.674 95.01M396.411.141 301.542 95.01M399.279.141 304.411 95.01M402.147.141 307.279 95.01M405.016.141 310.147 95.01M407.884.141 313.016 95.01M410.752.141 315.884 95.01M413.621.141 318.752 95.01M416.489.141 321.621 95.01M419.357.141 324.489 95.01M422.226.141 327.357 95.01M425.094.141 330.226 95.01M427.962.141 333.094 95.01M430.831.141 335.962 95.01M433.699.141 338.831 95.01M436.567.141 341.699 95.01"/></g></pattern></defs></svg>