<svg xmlns="http://www.w3.org/2000/svg" width="140" height="40" fill="currentColor" viewBox="0 0 140 40">
  <g clip-path="url(#a)">
    <path fill="#A7A7A0" d="M49.84 13.004H44v13.992l5.84-13.992Zm4.107 0h5.832v13.992l-5.832-13.992Zm-2.054 5.157 3.717 8.835h-2.438l-1.111-2.813h-2.72l2.552-6.022Zm17.412 3.741.689 1.978c.022.05.057.073.118.073h1.323c.073 0 .084-.035.073-.107l-2.736-7.611c-.01-.061-.022-.073-.083-.073h-1.643c-.046 0-.073.034-.073.084-.023.4-.057.522-.106.64l-2.439 6.948c-.011.084.016.119.084.119h1.183c.072 0 .107-.023.133-.096l.65-1.955h2.827Zm-2.45-1.292c.358-1.082.83-2.47 1.02-3.262h.011c.236.83.791 2.477 1.043 3.262h-2.074Zm8.169 3.46a5.6 5.6 0 0 0 2.237-.46c.06-.023.072-.05.072-.107a7.944 7.944 0 0 1-.05-.759V15.58c0-.046 0-.069-.056-.069h-1.29c-.05 0-.072.023-.072.084v2.428a4.227 4.227 0 0 0-.51-.034c-2.08 0-3.359 1.376-3.359 3.095 0 1.993 1.313 2.988 3.028 2.988Zm.84-1.326a2.262 2.262 0 0 1-.688.096c-.943 0-1.715-.534-1.715-1.83 0-1.147.795-1.826 1.848-1.826.213 0 .4.023.556.084v3.476Zm5.583-4.756c-1.776 0-2.876 1.364-2.876 3.049 0 1.506.875 3.034 2.85 3.034 1.67 0 2.841-1.231 2.841-3.072 0-1.624-.993-3.011-2.815-3.011Zm-.072 1.197c1.004 0 1.43.865 1.43 1.852 0 1.22-.628 1.826-1.358 1.826-.901 0-1.434-.759-1.434-1.853 0-1.124.567-1.825 1.362-1.825Zm4.22-3.675c-.049 0-.083.023-.083.084v8.11c0 .035.034.096.083.108.567.175 1.16.259 1.773.259 1.754 0 3.458-1.09 3.458-3.286 0-1.59-1.088-2.797-2.792-2.797-.392 0-.757.06-1.077.167l-.015-2.55c0-.083-.023-.095-.106-.095h-1.24Zm3.774 5.42c0 1.315-.898 1.933-1.868 1.933-.201 0-.38-.012-.544-.061V19.34c.187-.073.411-.134.826-.134.936 0 1.586.595 1.586 1.723Zm6.269.427c.578 0 1.054-.011 1.217-.05.061-.01.084-.034.095-.083.034-.13.05-.4.05-.732 0-1.128-.677-2.504-2.427-2.504-1.788 0-2.781 1.46-2.781 3.106 0 1.46.768 2.977 2.921 2.977.807 0 1.328-.13 1.777-.343.046-.023.068-.061.068-.13v-.987c0-.057-.034-.069-.068-.046a3.72 3.72 0 0 1-1.468.286c-1.206 0-1.754-.667-1.788-1.494h2.404Zm-2.404-1.021c.095-.58.46-1.209 1.278-1.209.901 0 1.137.759 1.137 1.102v.095c-.05.012-.201.012-.65.012h-1.765Z"/>
  </g>
  <defs>
    <clipPath id="a">
      <path fill="#fff" d="M44 13h53v14H44z"/>
    </clipPath>
  </defs>
</svg>
