<svg width="180" height="40" viewBox="0 0 180 40" fill="none" xmlns="http://www.w3.org/2000/svg">
  <path d="M2 36L12.5 4H20.5L31 36H24.2L21.9 28.5H11.1L8.8 36H2ZM12.9 23.1H20.1L16.5 11.2L12.9 23.1Z" fill="#FF0000"/>
  <path d="M44 36V4H53.2C56.4 4 58.9 4.8 60.6 6.5C62.4 8.2 63.3 10.6 63.3 13.6C63.3 16.6 62.4 19 60.6 20.7C58.9 22.4 56.4 23.2 53.2 23.2H48.7V36H44ZM48.7 18.8H52.9C54.6 18.8 55.9 18.3 56.8 17.4C57.7 16.5 58.1 15.2 58.1 13.6C58.1 11.9 57.7 10.6 56.8 9.7C55.9 8.8 54.6 8.4 52.9 8.4H48.7V18.8Z" fill="#0F172A"/>
  <path d="M68.5 36V4H73.2V31.6H87.6V36H68.5Z" fill="#0F172A"/>
  <path d="M90.8 20C90.8 15.3 92 11.5 94.4 8.8C96.9 6 100.2 4.6 104.4 4.6C108.7 4.6 112 6 114.4 8.8C116.9 11.5 118.1 15.3 118.1 20C118.1 24.7 116.9 28.5 114.4 31.2C112 34 108.7 35.4 104.4 35.4C100.2 35.4 96.9 34 94.4 31.2C92 28.5 90.8 24.7 90.8 20ZM95.8 20C95.8 23.5 96.6 26.2 98.2 28.2C99.8 30.1 101.9 31.1 104.4 31.1C107.1 31.1 109.2 30.1 110.7 28.2C112.3 26.2 113.1 23.5 113.1 20C113.1 16.5 112.3 13.8 110.7 11.8C109.2 9.9 107.1 8.9 104.4 8.9C101.9 8.9 99.8 9.9 98.2 11.8C96.6 13.8 95.8 16.5 95.8 20Z" fill="#0F172A"/>
  <path d="M123.2 36V4H128L142.9 27.5V4H147.6V36H142.8L127.9 12.5V36H123.2Z" fill="#0F172A"/>
</svg>
