<svg width="146" height="38" viewBox="0 0 146 38" fill="none" xmlns="http://www.w3.org/2000/svg">
<g id="Group">
<g id="Group_2">
<g id="RipplesB.CompoundShape">
<path id="Vector" d="M5.06443 24.8491C5.23858 25.2706 5.42724 25.6619 5.63041 26.0683C5.77553 26.0683 5.92065 26.0683 6.08029 26.0683C8.18455 26.0683 10.1727 26.9263 11.6675 28.4616C11.682 28.4766 11.711 28.5067 11.7255 28.5218C11.8707 28.1003 12.0448 27.6789 12.2335 27.2725C10.6081 25.7372 8.46029 24.7889 6.08029 24.7889C5.73199 24.7889 5.39821 24.8039 5.06443 24.8491V24.8491ZM4.20821 22.0193C4.29529 22.4408 4.39687 22.8472 4.51297 23.2385C5.0209 23.1633 5.55785 23.1181 6.08029 23.1181C8.64894 23.1181 11.087 24.0514 13.0171 25.7673C13.2348 25.406 13.467 25.0598 13.6992 24.7136C11.6239 22.9225 8.96821 21.8538 6.06577 21.8538C5.42724 21.8538 4.80321 21.8989 4.1937 22.0043L4.20821 22.0193ZM6.53016 27.5584C6.89297 28.0853 7.2848 28.597 7.70565 29.0787C8.96821 29.5152 10.0276 30.4334 10.6516 31.6225C10.7387 31.6827 10.8403 31.7429 10.9274 31.8031C10.9999 31.2612 11.087 30.7344 11.2176 30.2076C10.1292 28.7174 8.44577 27.709 6.53016 27.5735V27.5584ZM6.08029 19.0391C5.35468 19.0391 4.62907 19.0993 3.91797 19.2046C3.91797 19.6261 3.94699 20.0475 3.97602 20.469C4.65809 20.3636 5.35468 20.3034 6.06577 20.3034C9.24394 20.3034 12.248 21.4474 14.657 23.5245C14.9327 23.2084 15.223 22.9225 15.5132 22.6365C12.9591 20.3937 9.6648 19.0541 6.06577 19.0541L6.08029 19.0391Z" fill="#316DF0"/>
</g>
<g id="RipplesA.CompoundShape">
<path id="Vector_2" d="M20.0724 33.736C20.4787 33.6758 20.8996 33.6156 21.2914 33.5252C21.422 31.2675 23.236 29.4612 25.4564 29.4612C26.2836 29.4612 27.0672 29.7171 27.7203 30.1536C28.0251 29.8676 28.3298 29.5666 28.6201 29.2656C27.7348 28.6033 26.6464 28.2119 25.4709 28.2119C22.5104 28.2119 20.1159 30.6804 20.0869 33.751L20.0724 33.736ZM16.7636 33.7811C17.1699 33.8263 17.5763 33.8413 17.9826 33.8564C17.9826 33.8413 17.9826 33.8112 17.9826 33.7962C17.9826 29.5214 21.3349 26.0444 25.4564 26.0444C27.1398 26.0444 28.6926 26.6315 29.9407 27.5948C30.1729 27.2486 30.3905 26.9024 30.6082 26.5412C29.1715 25.4424 27.3865 24.7801 25.4564 24.7801C20.6529 24.7801 16.7636 28.814 16.7636 33.7811V33.7811ZM25.4564 18.5938C18.0262 18.5938 11.8875 24.3436 10.9297 31.7792C11.307 32.005 11.6843 32.2157 12.0762 32.4114C12.3809 29.2053 13.7305 26.2401 15.9509 23.9372C18.4905 21.3031 21.8574 19.8581 25.4564 19.8581C27.909 19.8581 30.2744 20.5354 32.3352 21.8149C32.4223 21.3784 32.4803 20.9268 32.5238 20.4752C30.4341 19.2711 28.0251 18.5938 25.4564 18.5938V18.5938ZM13.658 33.0737C14.0498 33.2092 14.4562 33.3296 14.8625 33.4349C14.9496 30.6353 16.038 28.0012 17.9681 26.0143C19.9708 23.9372 22.641 22.7932 25.4709 22.7932C27.6622 22.7932 29.7375 23.4706 31.4935 24.7349C31.6531 24.3436 31.7982 23.9372 31.9288 23.5157C30.0713 22.2514 27.8509 21.5289 25.4709 21.5289C19.1726 21.5289 14.0353 26.6315 13.6725 33.0737H13.658Z" fill="#316DF0"/>
</g>
<g id="Compass_Ring">
<path id="Vector_3" d="M18.2418 0.0703125C8.17036 0.0703125 0 8.54454 0 19.0056C0 29.4667 8.17036 37.9259 18.2418 37.9259C28.3133 37.9259 36.4837 29.4516 36.4837 19.0056C36.4837 8.55959 28.3133 0.0853648 18.2418 0.0853648V0.0703125ZM29.4743 30.6558C28.0085 32.176 26.3106 33.3651 24.424 34.193C22.8567 34.8854 21.2168 35.2918 19.5189 35.4272L18.2418 37.7302L16.9648 35.4272C15.2668 35.2918 13.627 34.8703 12.0596 34.193C10.173 33.3651 8.46061 32.176 7.00939 30.6558C5.54366 29.1356 4.39719 27.3745 3.59902 25.4177C2.93146 23.7921 2.53963 22.0913 2.40902 20.3302L0.203171 19.0056L2.40902 17.681C2.53963 15.92 2.94598 14.2191 3.59902 12.5935C4.39719 10.6368 5.54366 8.86063 7.00939 7.35544C8.47512 5.83519 10.173 4.64609 12.0596 3.81824C13.627 3.12585 15.2668 2.71945 16.9648 2.58398L18.2418 0.296092L19.5189 2.58398C21.2168 2.71945 22.8567 3.1409 24.424 3.81824C26.3106 4.64609 28.023 5.83519 29.4743 7.35544C30.94 8.87568 32.0865 10.6368 32.8846 12.5935C33.5522 14.2191 33.944 15.92 34.0746 17.681L36.2805 19.0056L34.0746 20.3302C33.944 22.0913 33.5377 23.7921 32.8846 25.4177C32.0865 27.3745 30.94 29.1506 29.4743 30.6558Z" fill="#316DF0"/>
</g>
</g>
<g id="Group_3">
<path id="Vector_4" d="M49.9505 8.26562H52.882L61.0814 28.0288H57.2066L55.4361 23.5132H47.1787L45.4517 28.0288H41.6641L49.9505 8.26562ZM54.2606 20.4878L51.3292 12.4501L48.3397 20.4878H54.2606V20.4878Z" fill="#316DF0"/>
<path id="Vector_5" d="M80.1352 26.5889C77.7842 27.8984 75.1575 28.5457 72.2551 28.5457C70.7893 28.5457 69.4397 28.3048 68.2062 27.8081C66.9726 27.3114 65.9132 26.619 65.028 25.7159C64.1427 24.8128 63.4462 23.729 62.9382 22.4647C62.4303 21.2003 62.1836 19.8005 62.1836 18.2501C62.1836 16.6998 62.4303 15.2247 62.9382 13.9453C63.4462 12.6508 64.1427 11.552 65.028 10.6339C65.9132 9.71571 66.9726 9.02332 68.2062 8.52661C69.4397 8.02989 70.7893 7.78906 72.2551 7.78906C73.7208 7.78906 75.0704 7.96969 76.3475 8.33093C77.6246 8.69218 78.7565 9.33941 79.7579 10.2726L77.2618 12.8917C76.6523 12.2745 75.9121 11.8079 75.0414 11.4617C74.1707 11.1306 73.2564 10.965 72.2841 10.965C71.2973 10.965 70.412 11.1456 69.6138 11.5069C68.8157 11.8681 68.1336 12.3648 67.5531 13.0121C66.9726 13.6593 66.5373 14.3969 66.218 15.2548C65.8987 16.1128 65.7536 17.0309 65.7536 18.0244C65.7536 19.078 65.9132 20.0564 66.218 20.9595C66.5373 21.8475 66.9726 22.6302 67.5531 23.2775C68.1336 23.9247 68.8157 24.4365 69.6138 24.8128C70.412 25.1891 71.2973 25.3697 72.2841 25.3697C73.1403 25.3697 73.953 25.2794 74.7221 25.1138C75.4913 24.9482 76.1588 24.6924 76.7538 24.3311V19.665H72.8501V16.4891H80.1352V26.5889V26.5889Z" fill="#316DF0"/>
<path id="Vector_6" d="M84.0684 8.26562H87.4642V28.0288H84.0684V8.26562V8.26562Z" fill="#316DF0"/>
<path id="Vector_7" d="M104.705 12.9067C104.009 12.124 103.327 11.6122 102.674 11.3413C102.021 11.0854 101.353 10.95 100.7 10.95C99.7133 10.95 98.828 11.1306 98.0299 11.4918C97.2317 11.8531 96.5496 12.3498 95.9691 12.997C95.3886 13.6443 94.9533 14.3818 94.634 15.2398C94.3147 16.0977 94.1696 17.0159 94.1696 18.0093C94.1696 19.0629 94.3292 20.0413 94.634 20.9444C94.9533 21.8325 95.3886 22.6152 95.9691 23.2624C96.5496 23.9097 97.2317 24.4214 98.0299 24.7977C98.828 25.174 99.7133 25.3546 100.7 25.3546C101.469 25.3546 102.224 25.159 102.949 24.7827C103.675 24.4064 104.357 23.7892 104.981 22.9614L107.782 25.0235C106.926 26.2578 105.866 27.1458 104.633 27.7027C103.399 28.2597 102.079 28.5457 100.671 28.5457C99.2053 28.5457 97.8557 28.3048 96.6222 27.8081C95.3886 27.3114 94.3292 26.619 93.444 25.7159C92.5588 24.8128 91.8622 23.729 91.3542 22.4647C90.8463 21.2003 90.5996 19.8005 90.5996 18.2501C90.5996 16.6998 90.8463 15.2247 91.3542 13.9453C91.8622 12.6508 92.5588 11.552 93.444 10.6339C94.3292 9.71571 95.3886 9.02332 96.6222 8.52661C97.8557 8.02989 99.2053 7.78906 100.671 7.78906C101.963 7.78906 103.153 8.02989 104.27 8.4965C105.373 8.97816 106.403 9.77591 107.347 10.9048L104.705 12.9067V12.9067Z" fill="#316DF0"/>
<path id="Vector_8" d="M117.839 8.26562H120.771L128.97 28.0288H125.095L123.325 23.5132H115.067L113.34 28.0288H109.553L117.839 8.26562ZM122.149 20.4878L119.218 12.4501L116.228 20.4878H122.149Z" fill="#316DF0"/>
<path id="Vector_9" d="M131.641 8.26562H138.041C138.955 8.26562 139.84 8.35594 140.696 8.55161C141.552 8.73223 142.293 9.04832 142.946 9.48483C143.584 9.92133 144.107 10.5084 144.498 11.2459C144.89 11.9834 145.079 12.9016 145.079 14.0004C145.079 15.2497 144.876 16.2582 144.455 17.0108C144.049 17.7784 143.483 18.3655 142.786 18.7869C142.089 19.2084 141.277 19.4944 140.348 19.6449C139.419 19.7954 138.461 19.8706 137.46 19.8706H135.036V28.0438H131.641V8.26562V8.26562ZM137.083 16.8302C137.562 16.8302 138.07 16.8151 138.592 16.77C139.114 16.7398 139.593 16.6194 140.029 16.4388C140.464 16.2582 140.827 15.9722 141.103 15.5959C141.378 15.2196 141.523 14.7078 141.523 14.0305C141.523 13.4134 141.393 12.9317 141.146 12.5705C140.899 12.2092 140.566 11.9232 140.174 11.7276C139.782 11.5319 139.347 11.4115 138.853 11.3513C138.36 11.2911 137.895 11.261 137.46 11.261H135.036V16.8151H137.083V16.8302Z" fill="#316DF0"/>
</g>
</g>
</svg>
