<svg xmlns="http://www.w3.org/2000/svg" width="140" height="40" fill="currentColor" viewBox="0 0 140 40">
  <g clip-path="url(#a)">
    <path fill="#A7A7A0" d="M70.127 15.747c-.79 0-2.012-.899-3.3-.867-1.7.022-3.258.986-4.134 2.512-1.764 3.062-.455 7.585 1.266 10.075.844 1.211 1.84 2.575 3.16 2.532 1.266-.054 1.741-.822 3.279-.822 1.526 0 1.958.822 3.3.79 1.364-.022 2.23-1.234 3.063-2.457a10.878 10.878 0 0 0 1.385-2.846c-.032-.01-2.651-1.017-2.683-4.047-.022-2.534 2.067-3.745 2.164-3.8-1.19-1.741-3.02-1.936-3.658-1.98-1.667-.13-3.063.91-3.842.91Zm2.815-2.555c.703-.844 1.167-2.023 1.038-3.192-1.006.043-2.219.67-2.944 1.515-.65.747-1.212 1.948-1.06 3.095 1.114.087 2.262-.573 2.965-1.417"/>
  </g>
  <defs>
    <clipPath id="a">
      <path fill="#fff" d="M60 10h20v20H60z"/>
    </clipPath>
  </defs>
</svg>
