<svg width="32" height="10" viewBox="0 0 32 10" fill="none" xmlns="http://www.w3.org/2000/svg">
<path d="M31.0308 6.82813C30.9838 6.82813 30.9369 6.85938 30.9056 6.9375C30.5924 7.84375 30.1541 8.39063 29.794 8.39063C29.5904 8.39063 29.5121 8.15625 29.5121 7.8125C29.5121 6.92188 30.0445 5.03125 30.3106 4.15625C30.3419 4.04688 30.3576 3.95312 30.3576 3.875C30.3576 3.625 30.2167 3.5 29.8722 3.5C29.5121 3.5 29.1051 3.64063 28.7293 4.3125C28.6041 3.71875 28.197 3.46875 27.6334 3.46875C26.9915 3.46875 26.3652 3.89063 25.8486 4.5625C25.3319 5.23438 24.7213 5.45313 24.2673 5.34375C24.5961 4.54688 24.7213 3.9375 24.7213 3.5C24.7213 2.79687 24.3769 2.375 23.8133 2.375C22.9678 2.375 22.4825 3.1875 22.4825 4.03125C22.4825 4.6875 22.7799 5.35938 23.4375 5.6875C22.8895 6.92188 22.0911 8.04688 21.7779 8.04688C21.3865 8.04688 21.2613 6.125 21.2926 4.75C21.3082 3.96875 21.3709 3.92188 21.3709 3.6875C21.3709 3.54688 21.2769 3.45313 20.9168 3.45313C20.087 3.45313 19.8209 4.15625 19.7896 4.96875C19.7739 5.28125 19.727 5.57812 19.6487 5.875C19.3042 7.10937 18.584 8.0625 18.1144 8.0625C17.8952 8.0625 17.8325 7.84375 17.8325 7.5625C17.8325 6.67188 18.3335 5.54687 18.3335 4.59375C18.3335 3.89062 18.0204 3.45313 17.4411 3.45313C16.7523 3.45313 15.8598 4.26563 14.9987 5.78125C15.2806 4.625 15.3902 3.5 14.5604 3.5C14.3725 3.5 14.2003 3.54687 14.0437 3.64062C13.9341 3.6875 13.8715 3.79688 13.8715 3.92188C13.9498 5.15625 12.8695 8.32812 11.8518 8.32812C11.664 8.32812 11.57 8.125 11.57 7.79688C11.57 6.90625 12.1023 5.01562 12.3685 4.14062C12.3998 4.03125 12.4155 3.9375 12.4155 3.84375C12.4155 3.60938 12.2745 3.48437 11.9301 3.48437C11.57 3.48437 11.163 3.625 10.7872 4.29688C10.6463 3.70313 10.2549 3.45313 9.69126 3.45313C8.76753 3.45313 7.74987 4.42188 7.29584 5.6875C6.68524 7.375 5.47971 9.01563 3.8358 9.01563C2.34845 9.01563 1.56563 7.78125 1.56563 5.82812C1.56563 3 3.64792 0.703125 5.18224 0.703125C5.91809 0.703125 6.26252 1.17188 6.26252 1.89063C6.26252 2.76563 5.77718 3.15625 5.77718 3.5C5.77718 3.59375 5.85546 3.70313 6.02768 3.70313C6.7009 3.70313 7.48372 2.92188 7.48372 1.84375C7.48372 0.765625 6.63828 0 5.10396 0C2.55198 0 0 2.54687 0 5.82812C0 8.4375 1.28382 10 3.50701 10C5.02568 10 6.35646 8.82813 7.061 7.45313C7.13928 8.59375 7.65594 9.1875 8.45441 9.1875C9.15894 9.1875 9.72257 8.76563 10.1609 8.03125C10.3332 8.79688 10.7715 9.17188 11.3508 9.17188C12.0084 9.17188 12.572 8.75 13.0887 7.98437C13.0887 8.59375 13.2139 9.17188 13.7462 9.17188C13.9967 9.17188 14.2942 9.10938 14.3412 8.89063C14.9048 6.59375 16.2826 4.70313 16.7053 4.70313C16.8305 4.70313 16.8618 4.82812 16.8618 4.96875C16.8618 5.59375 16.4235 6.875 16.4235 7.6875C16.4235 8.57813 16.7992 9.15625 17.582 9.15625C18.4431 9.15625 19.3199 8.10937 19.8992 6.5625C20.087 8 20.4785 9.15625 21.0891 9.15625C21.8406 9.15625 23.2027 7.5625 24.0168 5.875C24.3299 5.92187 24.8153 5.90625 25.2849 5.57813C25.0814 6.07813 24.9718 6.625 24.9718 7.15625C24.9718 8.71875 25.7233 9.15625 26.3652 9.15625C27.0698 9.15625 27.6334 8.73438 28.0718 8C28.2127 8.65625 28.5884 9.14062 29.2616 9.14062C30.3106 9.14062 31.2343 8.0625 31.2343 7.17188C31.25 6.98438 31.1404 6.82813 31.0308 6.82813ZM9.11197 8.3125C8.68925 8.3125 8.51703 7.89063 8.51703 7.25C8.51703 6.14063 9.28419 4.28125 10.0827 4.28125C10.4271 4.28125 10.568 4.6875 10.568 5.20312C10.568 6.32812 9.84782 8.3125 9.11197 8.3125ZM23.7193 5C23.4688 4.70313 23.3749 4.28125 23.3749 3.92188C23.3749 3.46875 23.5471 3.09375 23.735 3.09375C23.9228 3.09375 24.0011 3.28125 24.0011 3.5625C23.9855 4 23.8289 4.67188 23.7193 5ZM27.0228 8.3125C26.6001 8.3125 26.4279 7.8125 26.4279 7.25C26.4279 6.17188 27.195 4.28125 27.9935 4.28125C28.3379 4.28125 28.4632 4.6875 28.4632 5.20312C28.4788 6.32812 27.7743 8.3125 27.0228 8.3125Z" fill="#F6F6F3"/>
</svg>
