<svg xmlns="http://www.w3.org/2000/svg" width="140" height="40" fill="currentColor" viewBox="0 0 140 40">
  <path fill="#A7A7A0" d="M87.743 22.202c-.063 0-.12.041-.15.127-.38 1.095-.892 1.746-1.314 1.746-.242 0-.34-.273-.34-.702 0-1.072.635-3.345.955-4.381.037-.126.06-.238.06-.333 0-.302-.162-.45-.565-.45-.435 0-.903.173-1.358.979-.157-.71-.633-1.021-1.297-1.021-.768 0-1.51.499-2.12 1.31-.61.81-1.329 1.075-1.869.944.389-.962.533-1.68.533-2.213 0-.837-.409-1.342-1.07-1.342-1.004 0-1.583.97-1.583 1.989 0 .788.354 1.598 1.13 1.99-.65 1.49-1.602 2.837-1.962 2.837-.467 0-.603-2.307-.578-3.957.017-.947.095-.995.095-1.282 0-.164-.106-.277-.53-.277-.987 0-1.292.846-1.339 1.817a4.837 4.837 0 0 1-.17 1.09c-.412 1.49-1.263 2.62-1.818 2.62-.258 0-.328-.26-.328-.6 0-1.072.594-2.412.594-3.555 0-.84-.364-1.372-1.05-1.372-.81 0-1.879.973-2.89 2.796.333-1.396.47-2.747-.517-2.747a1.322 1.322 0 0 0-.612.161.349.349 0 0 0-.2.34c.095 1.486-1.184 5.291-2.395 5.291-.22 0-.328-.24-.328-.63 0-1.074.633-3.341.95-4.38.042-.134.064-.25.064-.352 0-.284-.174-.43-.568-.43-.433 0-.903.167-1.356.973-.16-.71-.635-1.021-1.299-1.021-1.09 0-2.307 1.165-2.842 2.684-.715 2.028-2.158 3.987-4.1 3.987-1.764 0-2.695-1.483-2.695-3.828 0-3.384 2.457-6.15 4.28-6.15.87 0 1.287.562 1.287 1.422 0 1.043-.575 1.527-.575 1.924 0 .121.1.241.298.241.791 0 1.724-.94 1.724-2.224 0-1.284-1.03-2.223-2.853-2.223C54.03 14 51 17.064 51 20.992 51 24.116 52.524 26 55.16 26c1.799 0 3.37-1.414 4.217-3.064.096 1.367.71 2.082 1.646 2.082.833 0 1.506-.502 2.02-1.383.199.922.724 1.373 1.407 1.373.782 0 1.437-.501 2.06-1.433-.009.732.156 1.42.783 1.42.296 0 .65-.069.712-.33.66-2.762 2.292-5.017 2.792-5.017.148 0 .189.144.189.315 0 .75-.524 2.288-.524 3.27 0 1.06.446 1.762 1.367 1.762 1.021 0 2.06-1.264 2.751-3.113.217 1.727.685 3.12 1.417 3.12.9 0 2.496-1.913 3.463-3.94.38.05.95.036 1.497-.355a5.274 5.274 0 0 0-.37 1.903c0 1.88.888 2.408 1.652 2.408.83 0 1.504-.502 2.02-1.383.17.795.605 1.371 1.404 1.371 1.251 0 2.337-1.292 2.337-2.353 0-.28-.118-.45-.257-.45Zm-25.957 1.774c-.506 0-.703-.515-.703-1.282 0-1.332.9-3.556 1.853-3.556.416 0 .574.495.574 1.101 0 1.353-.857 3.737-1.724 3.737ZM79.084 20c-.302-.363-.41-.857-.41-1.297 0-.542.195-1 .43-1s.307.233.307.559c0 .544-.192 1.34-.327 1.738ZM83 23.976c-.505 0-.703-.591-.703-1.282 0-1.285.901-3.556 1.861-3.556.417 0 .565.492.565 1.101 0 1.353-.842 3.737-1.723 3.737Z"/>
</svg>
