<svg width="50" height="50" viewBox="0 0 50 50" fill="none" xmlns="http://www.w3.org/2000/svg">
<path d="M26.8293 9.05489C29.1316 8.81244 31.9952 9.36275 33.7767 10.9132C34.8662 11.8613 35.4764 13.2061 35.5216 14.6624C35.566 16.0952 35.0517 17.8969 34.0765 18.9694C32.8426 20.298 32.3465 20.5521 30.6118 20.6284C30.5428 20.5624 30.385 20.3978 30.3472 20.3106C30.0585 19.4881 30.8773 18.4002 31.1703 17.6727C31.7544 16.2227 32.075 14.3251 31.2679 12.9063C30.8148 12.1098 30.023 11.5441 29.1418 11.3525C27.5419 11.0044 25.6945 11.5529 24.3237 12.4031C22.4197 13.5626 21.0215 15.3188 20.0333 17.3063C19.769 17.838 19.4369 18.4306 19.2456 18.9907C18.9574 19.8344 18.6547 20.8965 18.4637 21.7622C17.7801 24.8606 17.5677 28.394 18.6013 31.4248C18.8369 32.1157 18.984 32.6929 19.3829 33.3354C20.4137 34.9954 21.6248 36.2271 23.5598 36.7214C25.2176 37.1447 27.1063 36.9192 28.6945 36.317C29.1548 36.1425 29.8534 35.6872 30.2871 35.4147C32.4013 34.047 33.8597 31.9428 34.9774 29.739C35.2891 29.1243 36.0364 29.5532 35.9986 30.0582C35.8582 31.9359 34.596 33.9071 33.4811 35.3663C31.2679 37.9877 28.7169 39.6349 25.3129 39.9466C18.6708 40.5549 13.8406 35.9031 13.1517 29.3513C12.6623 24.8096 13.3191 20.489 15.6813 16.559C18.1462 12.458 22.0143 9.52906 26.8293 9.05489Z" fill="#ffffff"/>
</svg>
