<svg xmlns="http://www.w3.org/2000/svg" width="140" height="40" fill="currentColor" viewBox="0 0 140 40">
  <g clip-path="url(#a)">
    <path fill="#A7A7A0" d="M72.918 15.025c.012.976.012 1.95.012 2.952.087-.06.159-.105.227-.156a2.12 2.12 0 0 1 1.02-.413c.275-.034.555-.065.83-.05a3.07 3.07 0 0 1 1.353.4c.314.178.584.41.826.673.261.284.462.61.606.967.201.495.269 1.015.233 1.545a3.338 3.338 0 0 1-.764 1.929 3.012 3.012 0 0 1-1.942 1.107c-.087.013-.174.02-.268.038-.27.008-.534.008-.81.008-.023-.015-.033-.042-.046-.044a2.437 2.437 0 0 1-1.386-.671v.56h-1.663v-8.833c.587-.012 1.174-.012 1.772-.012Zm1.68 3.933c-.118.008-.237.009-.353.027-.543.082-.929.391-1.148.875a1.992 1.992 0 0 0-.035 1.563c.154.412.428.717.849.88.291.114.587.144.898.099.512-.076.903-.335 1.14-.777.299-.554.34-1.134.067-1.724-.276-.598-.748-.895-1.419-.943Zm-32.615-3.933c.032.016.051.044.073.046a3.94 3.94 0 0 1 1.244.344 3.8 3.8 0 0 1 1.302.947c.25.277.45.59.568.947.008.027-.013.086-.037.098-.51.248-1.024.492-1.537.737-.006.003-.016-.001-.033-.002-.127-.297-.28-.584-.521-.813-.458-.433-.992-.652-1.636-.625-.287.012-.564.04-.835.128a2.358 2.358 0 0 0-.72.402 2.37 2.37 0 0 0-.692.858 2.653 2.653 0 0 0-.27 1.008c-.012.21-.034.42-.023.63.041.812.305 1.533.944 2.075.335.285.728.452 1.167.523a2.55 2.55 0 0 0 1.458-.165c.211-.092.39-.237.557-.401.197-.193.37-.395.485-.645.032-.068.057-.139.088-.214l.978.466c.192.092.384.186.577.275.064.03.073.066.05.129a3.109 3.109 0 0 1-.737 1.12c-.386.38-.85.66-1.361.852a3.378 3.378 0 0 1-.957.235c-.019.001-.037.017-.05.036-.005.01-.017.01-.042.001-.078-.003-.143.003-.207.008-.23 0-.46 0-.707-.008a1.996 1.996 0 0 0-.236.008c-.011 0-.022 0-.037-.01-.022-.018-.04-.034-.058-.036a3.692 3.692 0 0 1-1.14-.31 4.265 4.265 0 0 1-1.712-1.339 4.252 4.252 0 0 1-.83-1.901c-.011-.07-.046-.138-.07-.206 0-.012 0-.023.007-.047a.641.641 0 0 0-.008-.13c0-.012 0-.023.007-.04a.063.063 0 0 0-.007-.037c0-.288 0-.576.007-.878.002-.021-.002-.028-.007-.035 0-.01 0-.022.01-.045a.397.397 0 0 0-.01-.107c0-.019 0-.038.01-.061.02-.026.035-.048.037-.07.055-.437.17-.86.37-1.25.163-.32.35-.633.564-.92.175-.234.384-.455.619-.627.302-.22.637-.403.974-.571.375-.188.784-.283 1.201-.334.026-.003.049-.03.073-.046h1.11Zm52.825 0c.013 1.428.014 2.856.015 4.284v.441c.142-.153.259-.283.379-.41.066-.07.14-.132.205-.203.216-.234.426-.474.644-.706.173-.183.353-.36.53-.538.063-.063.146-.115.185-.19.1-.186.243-.229.445-.224.603.014 1.206.005 1.81.005h.164l-2.342 2.59 2.303 3.791c-.058.005-.094.01-.13.01-.598.002-1.197 0-1.796.003-.076 0-.118-.023-.158-.091-.326-.549-.658-1.093-.986-1.64-.174-.29-.344-.582-.516-.872-.017-.028-.038-.054-.056-.079-.212.23-.423.455-.626.685a.257.257 0 0 0-.053.157c-.004.562-.002 1.124-.002 1.686v.144H93.04c-.003-.04-.008-.076-.008-.112v-8.644c0-.02 0-.042.002-.075.588-.012 1.174-.012 1.773-.012Zm-28.288 9c-.076-.024-.139-.059-.206-.07a2.966 2.966 0 0 1-1.479-.711 3.152 3.152 0 0 1-1.053-1.897c-.122-.702-.07-1.391.203-2.056a2.73 2.73 0 0 1 .466-.765c.122-.14.233-.292.375-.407.283-.23.588-.43.934-.558a3.45 3.45 0 0 1 1.143-.21c.479-.008.941.064 1.388.234.465.177.842.47 1.16.851.364.435.57.94.64 1.488.048.363.013.737.009 1.105-.002.117-.058.165-.192.164-.866-.008-1.732-.004-2.598-.004h-1.733c.121.798.616 1.17 1.132 1.256.895.15 1.453-.205 1.7-.671l1.436.678c-.075.253-.228.451-.39.639-.18.206-.4.368-.635.511-.294.18-.617.276-.949.35a1.48 1.48 0 0 0-.221.064c-.369.01-.743.01-1.13.01Zm1.64-4.49c-.114-.153-.206-.328-.345-.452-.324-.293-.72-.35-1.141-.277a1.27 1.27 0 0 0-1.039 1.078h2.62a21.87 21.87 0 0 1-.095-.35Zm12.58 4.49c-.163-.024-.315-.04-.463-.074-.722-.169-1.273-.543-1.448-1.3-.125-.536-.068-1.055.257-1.53.18-.265.415-.457.691-.608.402-.22.838-.328 1.288-.397.34-.053.679-.12 1.019-.175.238-.039.477-.07.712-.103.1-.458-.201-.83-.645-.951a1.415 1.415 0 0 0-1.178.191 1.32 1.32 0 0 0-.458.512l-.096.185-1.426-.673a2.232 2.232 0 0 1 .549-.887c.422-.426.94-.666 1.523-.788a3.95 3.95 0 0 1 1.068-.071c.595.039 1.162.203 1.633.577.456.361.757.83.812 1.426.014.155.026.31.026.465.002 1.297.001 2.594.001 3.89v.156h-1.66v-.525c-.176.119-.333.251-.512.34-.222.108-.462.18-.696.266-.067.025-.14.04-.201.067-.257.007-.52.007-.796.007Zm2.028-2.342.068-.514c-.08.006-.132.005-.183.014-.358.06-.717.115-1.073.187-.291.058-.583.098-.817.334-.164.165-.206.668.064.849.275.183.573.182.88.122.553-.108.897-.442 1.061-.992Zm-26.16 2.343c-.195-.033-.381-.054-.56-.1-1.21-.309-2.007-1.063-2.397-2.237a3.293 3.293 0 0 1-.137-1.279 3.286 3.286 0 0 1 .696-1.813c.366-.473.843-.798 1.4-1.016a3.593 3.593 0 0 1 1.593-.224c.642.047 1.24.242 1.762.638.427.324.752.717.928 1.227.024.07.028.119-.051.152l-1.437.61c-.007.002-.015 0 .011-.001-.143-.208-.254-.423-.415-.59-.337-.35-.772-.483-1.251-.43a1.46 1.46 0 0 0-.982.505 1.761 1.761 0 0 0-.398.952c-.039.318-.017.627.085.925.185.54.539.917 1.116 1.04.57.12 1.078-.01 1.478-.443.128-.138.203-.325.301-.49.013-.02.023-.043.037-.07l1.541.674c-.079.247-.173.483-.339.687-.09.112-.16.243-.261.344-.123.122-.265.226-.406.33-.374.273-.787.46-1.248.538a.828.828 0 0 0-.194.063c-.282.008-.571.008-.872.008Zm31.879-.001c-.027-.015-.04-.042-.058-.045a3.228 3.228 0 0 1-1.7-.782c-.597-.524-.966-1.174-1.078-1.951-.114-.788-.02-1.551.395-2.253.163-.277.361-.524.595-.748.45-.43.988-.677 1.585-.816.36-.084.73-.102 1.093-.074a3.3 3.3 0 0 1 1.378.404c.61.343 1.076.812 1.3 1.487.01.032-.012.104-.038.115-.49.216-.983.426-1.48.639a1.51 1.51 0 0 0-.696-.849c-.356-.206-.735-.239-1.13-.156-.618.13-1.104.737-1.172 1.34-.046.401-.035.792.132 1.164.187.416.488.714.939.854.386.119.768.105 1.125-.064.384-.182.667-.481.8-.91l1.553.677a2.498 2.498 0 0 1-.566.965 3.04 3.04 0 0 1-.799.621c-.32.167-.657.276-1.012.334-.099.016-.2.02-.306.04-.286.008-.567.008-.86.008Zm-25.787-9c.013.06.014.118.014.178v8.664h-1.786v-8.83c.586-.012 1.173-.012 1.772-.012Zm40.326 7.898c-.062.155-.109.307-.188.44a1.015 1.015 0 0 1-.653.482c-.678.155-1.333-.17-1.486-.883a1.162 1.162 0 0 1 .297-1.075c.396-.437 1.12-.453 1.55-.142.197.142.347.328.429.561a.108.108 0 0 0 .044.054c.007.003.007.015-.001.031a.138.138 0 0 0 .008.063v.47Z"/>
    <path fill="#A7A7A0" d="M37.025 20.056a.405.405 0 0 1 .008.111c-.008-.03-.008-.066-.008-.111Zm0-1.142a.262.262 0 0 1 .01.088c-.01-.023-.01-.05-.01-.088Zm0 1.061c.005.004.01.015.007.022-.007-.003-.007-.015-.007-.022Zm0-.912c.005 0 .01.007.007.016-.007.003-.007-.01-.007-.016Zm12.229.652v-2.223h1.655v.846l.02.008c.029-.05.059-.1.084-.151.1-.209.26-.365.454-.48a1.963 1.963 0 0 1 1.058-.284c.164.003.329 0 .5 0v1.527c-.19 0-.376-.008-.561.002-.298.017-.591.063-.843.244-.352.253-.57.593-.574 1.029-.01 1.165-.005 2.331-.005 3.497v.142h-1.788v-4.157Zm-2.545 4.161h-.504v-6.384h1.773v6.384h-1.27Zm-.513-7.406v-1.286h1.78v1.778h-1.78v-.492Z"/>
  </g>
  <defs>
    <clipPath id="a">
      <path fill="#fff" d="M37 15h66v9H37z"/>
    </clipPath>
  </defs>
</svg>
