<svg xmlns="http://www.w3.org/2000/svg" width="140" height="40" fill="currentColor" viewBox="0 0 140 40">
  <g clip-path="url(#a)">
    <path fill="#A7A7A0" d="M69.733 23.375a7.123 7.123 0 0 0-1.625-.21c-1.535 0-2.46.827-2.46 2.059 0 1.09.773 1.634 1.702 1.926.103.034.254.081.355.115.414.13.743.322.743.656 0 .373-.38.614-1.21.614-.728 0-1.426-.207-1.573-.244v1.515c.082.017.912.18 1.798.18 1.275 0 2.734-.556 2.734-2.21 0-.802-.493-1.54-1.574-1.884l-.46-.145c-.274-.087-.764-.227-.764-.628 0-.316.363-.54 1.031-.54.576 0 1.278.194 1.302.202v-1.406Zm14.08 3.2c0 .959-.735 1.734-1.723 1.734-.988 0-1.722-.775-1.722-1.733 0-.957.734-1.732 1.722-1.732s1.724.775 1.724 1.732Zm-1.723-3.408c-2.03 0-3.487 1.528-3.487 3.409 0 1.883 1.457 3.41 3.487 3.41 2.031 0 3.49-1.527 3.49-3.41 0-1.881-1.459-3.409-3.49-3.409ZM63.413 29.87h-1.666v-6.585h1.666m-3.957.118c-.156-.046-.735-.235-1.519-.235-2.028 0-3.516 1.441-3.516 3.408 0 2.121 1.643 3.41 3.516 3.41.744 0 1.312-.176 1.52-.235v-1.767c-.072.04-.617.35-1.4.35-1.11 0-1.827-.78-1.827-1.758 0-1.009.748-1.757 1.827-1.757.796 0 1.332.317 1.4.352m17.392-1.768c-.157-.046-.735-.235-1.52-.235-2.027 0-3.515 1.441-3.515 3.408 0 2.121 1.643 3.41 3.516 3.41.744 0 1.312-.176 1.519-.235v-1.767c-.072.04-.616.35-1.4.35-1.11 0-1.826-.78-1.826-1.758 0-1.009.747-1.757 1.826-1.757.797 0 1.333.317 1.4.352M61.742 10.835a.826.826 0 0 0-.827-.822.826.826 0 0 0-.827.822v8.744c0 .456.371.824.827.824a.826.826 0 0 0 .827-.824v-8.744Zm-4.544 3.104a.826.826 0 0 0-.827-.823.826.826 0 0 0-.827.823v3.997c0 .456.371.825.827.825a.826.826 0 0 0 .827-.825V13.94Zm-4.544 2.268a.825.825 0 0 0-.827-.821.826.826 0 0 0-.827.822v1.728a.826.826 0 0 0 1.654 0"/>
    <path fill="#A7A7A0" d="M60.088 10.835c0-.454.372-.822.827-.822.456 0 .827.368.827.822v8.744a.826.826 0 0 1-.827.824.826.826 0 0 1-.827-.824v-8.744Zm4.544 3.104c0-.454.371-.823.827-.823.456 0 .827.369.827.823v3.997a.826.826 0 0 1-.827.825.826.826 0 0 1-.827-.825V13.94Zm4.544 2.268c0-.453.371-.821.827-.821.455 0 .827.368.827.822v1.728a.826.826 0 0 1-1.654 0m9.082-7.101c0-.454.371-.822.827-.822.456 0 .827.368.827.822v8.744a.826.826 0 0 1-.827.824.826.826 0 0 1-.827-.824v-8.744Zm4.544 3.104c0-.454.371-.823.827-.823.456 0 .827.369.827.823v3.997a.826.826 0 0 1-.827.825.826.826 0 0 1-.827-.825V13.94Zm4.544 2.268c0-.453.371-.821.827-.821.455 0 .827.368.827.822v1.728a.826.826 0 0 1-1.654 0"/>
    <path fill="#A7A7A0" d="M79.912 10.835a.826.826 0 0 0-.827-.822.826.826 0 0 0-.827.822v8.744c0 .456.371.824.827.824a.826.826 0 0 0 .827-.824v-8.744Zm-4.544 3.104a.826.826 0 0 0-.827-.823.826.826 0 0 0-.827.823v3.997c0 .456.371.825.827.825a.826.826 0 0 0 .827-.825V13.94Zm-4.544 2.268a.825.825 0 0 0-.827-.821.826.826 0 0 0-.827.822v1.728a.826.826 0 0 0 1.654 0"/>
  </g>
  <defs>
    <clipPath id="a">
      <path fill="#fff" d="M51 10h38v20H51z"/>
    </clipPath>
  </defs>
</svg>
