<svg xmlns="http://www.w3.org/2000/svg" width="140" height="40" fill="currentColor" viewBox="0 0 140 40">
  <g clip-path="url(#a)">
    <path fill="#A7A7A0" d="M54.934 14.913a.626.626 0 0 0-.63.625v7.635c0 .347.281.625.63.625h4.83a.164.164 0 0 0 .164-.163v-.876a.164.164 0 0 0-.165-.164h-4.106v-2.792h3.692a.164.164 0 0 0 .165-.163v-.828a.164.164 0 0 0-.165-.164h-3.692v-2.56h4.106a.164.164 0 0 0 .165-.164v-.848a.164.164 0 0 0-.165-.163h-4.829Zm16.303 2.224c-1.149 0-1.862.394-2.34 1.048V17.5a.164.164 0 0 0-.165-.163h-.994a.164.164 0 0 0-.165.163v8.335c0 .09.074.164.165.164h1.011a.164.164 0 0 0 .165-.164v-2.851c.443.634 1.162 1.01 2.323 1.01 1.954 0 3.17-1.537 3.17-3.431 0-1.894-1.191-3.427-3.17-3.427Zm-.283 1.103c1.405 0 2.097 1.04 2.097 2.324 0 1.284-.692 2.324-2.097 2.324-1.406 0-2.098-1.04-2.098-2.324 0-1.284.692-2.324 2.098-2.324Zm19.904-.902h1c.091 0 .165.073.165.163v6.134c0 .09-.074.163-.165.163h-1a.164.164 0 0 1-.165-.163V17.5c0-.09.074-.163.165-.163Zm-.014-2.428h1.03c.09 0 .164.073.164.163v1.023c0 .09-.074.164-.165.164h-1.029a.164.164 0 0 1-.164-.164v-1.023c0-.09.073-.163.164-.163Zm-5.247 9.085c1.149 0 1.863-.394 2.34-1.048v.688c0 .09.074.163.165.163h.994a.164.164 0 0 0 .165-.163v-8.559a.164.164 0 0 0-.165-.163h-1.011a.164.164 0 0 0-.165.163v3.107c-.476-.618-1.161-1.046-2.323-1.046-1.954 0-3.17 1.537-3.17 3.431 0 1.894 1.191 3.427 3.17 3.427Zm.284-1.103c-1.406 0-2.097-1.04-2.097-2.324 0-1.284.691-2.324 2.097-2.324 1.405 0 2.097 1.04 2.097 2.324 0 1.284-.692 2.324-2.097 2.324Zm10.455-5.751c-1.979 0-3.17 1.533-3.17 3.427 0 1.894 1.191 3.427 3.17 3.427 1.15 0 1.863-.394 2.34-1.048v.688c0 .09.074.163.165.163h.995a.164.164 0 0 0 .164-.163V17.5a.164.164 0 0 0-.165-.163h-.994a.164.164 0 0 0-.164.163v.688c-.478-.654-1.192-1.048-2.34-1.048Zm.284 1.103c1.405 0 2.097 1.04 2.097 2.324 0 1.284-.692 2.324-2.097 2.324-1.406 0-2.097-1.04-2.097-2.324 0-1.284.691-2.324 2.097-2.324Zm-35.627-.906c-.143 0-.168.111-.104.2l2.117 2.88-2.323 3.18c-.065.089-.04.2.103.2h1.146c.1 0 .151-.033.184-.082l1.583-2.322 1.649 2.322c.034.048.085.082.184.082h1.19c.142 0 .168-.111.103-.2l-2.337-3.18 2.104-2.88c.064-.089.039-.2-.103-.2h-1.124c-.1 0-.15.033-.184.082l-1.389 2.03-1.435-2.03c-.034-.048-.085-.082-.184-.082h-1.18Zm17.427-.201c-1.99 0-3.188 1.422-3.188 3.429 0 2.213 1.416 3.429 3.188 3.429 2.141 0 2.985-1.252 3.032-1.299.055-.054.04-.154-.006-.199l-.618-.603a.138.138 0 0 0-.193.009c-.045.045-.799.992-2.033.992-1.312 0-1.958-.8-2.045-1.976h4.89c.151 0 .16-.134.16-.222.01-2.39-1.387-3.56-3.187-3.56Zm.004 1.04c1.204 0 1.708.72 1.814 1.744h-3.633c.143-1.004.673-1.744 1.82-1.744ZM48.554 14c1.239 0 2.237.992 2.237 2.224v6.279a2.226 2.226 0 0 1-2.237 2.224h-6.317A2.226 2.226 0 0 1 40 22.503v-6.28c0-1.231.998-2.223 2.237-2.223h6.317Zm-5.536 1.92c-.1 0-.164.023-.217.076l-1.078 1.072a.106.106 0 0 0 .075.181h4.674l-2.873 2.857c-.057.056-.09.09-.09.2v.75c0 .046.02.086.05.116.03.03.07.05.116.05h.756c.11 0 .144-.033.2-.09l2.874-2.856v4.647a.107.107 0 0 0 .182.075l1.079-1.072c.053-.053.076-.116.076-.216v-5.073a.714.714 0 0 0-.72-.717h-5.104Zm-.916 5.51a.156.156 0 0 0-.157.157v1.037c0 .086.07.155.157.155h1.037a.156.156 0 0 0 .157-.155v-1.037a.157.157 0 0 0-.157-.156h-1.037Z"/>
  </g>
  <defs>
    <clipPath id="a">
      <path fill="#fff" d="M40 14h60v12H40z"/>
    </clipPath>
  </defs>
</svg>
