<svg width="2677" height="705" viewBox="0 0 2677 705" fill="none" xmlns="http://www.w3.org/2000/svg">
<path d="M134.099 303.331C95.464 344.847 51.1932 423.855 177.654 546.519C179.098 547.247 179.27 547.042 177.843 543.48C172.94 531.236 158.804 494.812 157.702 462.778C156.28 421.423 175.2 392.318 184.292 382.156C208.906 354.642 286.469 280 319.154 247.612C351.839 215.224 352.866 152.412 349.959 117.023C347.633 88.7117 344.543 94.0134 341.274 97.2241C296.844 142.116 177.079 260.855 134.099 303.331Z" fill="#5E4BFA"/>
<path d="M201.796 564.698C200.048 562.587 176.834 511.831 176.459 472.919C175.051 449.349 178.441 433.988 180.696 423.352C181.517 421.536 182.556 421.183 183.533 422.143C208.48 446.642 270.118 515.778 274.699 520.447C280.443 526.299 286.642 539.053 286.642 539.053C296.654 557.695 308.575 591.956 305.92 630.155C303.935 658.718 302.163 661.131 299.731 660.212C298.336 659.685 282.546 644.377 268.047 630.32C257.253 619.856 247.175 610.085 244.282 607.621C237.504 601.846 218.714 583.479 204.412 567.816C203.537 566.857 203.545 566.808 201.796 564.698Z" fill="#5E4BFA"/>
<path d="M50.7416 230.117C12.1064 271.633 -33.2822 343.51 93.1785 466.175C94.6226 466.903 94.7943 466.697 93.3677 463.135C88.4644 450.892 75.4461 421.598 74.3444 389.564C72.9221 348.209 91.8425 319.104 100.934 308.942C125.548 281.428 203.111 206.787 235.796 174.398C268.481 142.01 269.508 79.1981 266.601 43.8091C264.276 15.4978 261.186 20.7995 257.916 24.0102C213.486 68.9019 93.7217 187.641 50.7416 230.117Z" fill="#5E4BFA"/>
<path d="M660.953 565V330.294H621.459V278.387H660.953V237.765C660.953 208.803 669.04 186.611 685.214 171.19C701.387 155.768 724.519 148.058 754.61 148.058C764.013 148.058 772.1 148.246 778.87 148.622C785.641 148.998 791.471 149.75 796.361 150.879V205.606C792.223 204.854 787.71 204.477 782.82 204.477C778.306 204.101 773.605 203.913 768.715 203.913C756.679 203.913 747.652 207.11 741.633 213.505C735.991 219.523 733.17 228.738 733.17 241.15V278.387H791.283V330.294H733.17V565H660.953ZM1088.54 565H1019.14C1018.02 557.477 1017.08 549.955 1016.32 542.432C1015.57 534.909 1015.19 527.387 1015.19 519.864C1008.42 536.038 996.576 548.638 979.65 557.665C963.1 566.693 943.165 571.206 919.845 571.206C890.883 571.206 867.563 563.684 849.884 548.638C832.206 533.593 823.367 513.47 823.367 488.269C823.367 463.068 832.018 443.133 849.32 428.464C866.622 413.795 892.387 404.392 926.615 400.254L1012.37 390.663V377.122C1012.37 360.572 1007.67 347.784 998.269 338.757C988.865 329.729 975.513 325.216 958.21 325.216C942.789 325.216 930.377 329.165 920.973 337.064C911.57 344.963 906.304 355.683 905.176 369.223H835.78C838.789 338.757 851.389 314.872 873.581 297.57C895.773 280.268 924.735 271.617 960.467 271.617C1000.34 271.617 1030.62 281.02 1051.3 299.827C1072.37 318.634 1082.9 346.279 1082.9 382.764V493.347C1082.9 508.768 1083.27 522.121 1084.03 533.405C1085.16 544.313 1086.66 554.844 1088.54 565ZM895.02 484.32C895.02 495.98 898.97 505.007 906.868 511.401C914.767 517.795 925.675 520.993 939.592 520.993C960.655 520.993 977.957 514.974 991.498 502.938C1005.42 490.526 1012.37 474.164 1012.37 453.853V436.363L948.619 443.697C928.308 446.33 914.203 450.844 906.304 457.238C898.782 463.256 895.02 472.283 895.02 484.32ZM1279.36 571.77C1239.87 571.77 1208.27 563.684 1184.58 547.51C1161.26 530.96 1148.09 507.828 1145.08 478.114H1213.92C1215.42 491.654 1222 502.374 1233.66 510.273C1245.7 517.795 1260.56 521.557 1278.23 521.557C1294.41 521.557 1307.38 518.36 1317.16 511.965C1327.32 505.571 1332.4 496.92 1332.4 486.012C1332.4 476.985 1329.01 470.215 1322.24 465.701C1315.85 460.811 1304.56 456.862 1288.39 453.853L1237.61 444.826C1209.78 439.936 1189.09 430.721 1175.55 417.18C1162.01 403.639 1155.24 385.585 1155.24 363.017C1155.24 336.312 1166.15 314.496 1187.96 297.57C1209.78 280.268 1237.61 271.617 1271.46 271.617C1307.95 271.617 1336.72 279.328 1357.79 294.749C1379.23 309.794 1391.45 331.422 1394.46 359.632H1328.45C1326.94 348.348 1321.11 339.321 1310.96 332.55C1300.8 325.78 1287.83 322.395 1272.03 322.395C1256.98 322.395 1244.76 325.404 1235.36 331.422C1226.33 337.44 1221.81 345.527 1221.81 355.683C1221.81 364.71 1225.01 371.668 1231.41 376.558C1237.8 381.071 1249.27 384.833 1265.82 387.842L1321.68 397.433C1347.63 401.947 1367.19 411.35 1380.35 425.643C1393.52 439.56 1400.1 457.99 1400.1 480.935C1400.1 507.64 1388.63 529.456 1365.68 546.381C1343.12 563.307 1314.34 571.77 1279.36 571.77ZM1584.12 511.401C1590.51 511.401 1596.72 511.025 1602.74 510.273C1608.75 509.144 1615.15 507.64 1621.92 505.759V561.051C1612.14 564.06 1602.74 566.128 1593.71 567.257C1584.68 568.761 1575.09 569.514 1564.93 569.514C1534.47 569.514 1511.9 562.743 1497.23 549.202C1482.94 535.662 1475.79 514.786 1475.79 486.576V330.294H1436.3V278.387H1475.79V206.734H1547.44V278.387H1615.71V330.294H1546.88V475.293C1546.88 487.705 1549.7 496.92 1555.34 502.938C1561.36 508.58 1570.95 511.401 1584.12 511.401ZM1809.7 621.42C1833.78 621.42 1852.02 615.026 1864.43 602.237C1876.84 589.449 1883.05 570.642 1883.05 545.817V505.195C1875.15 520.993 1863.11 533.781 1846.94 543.56C1830.77 552.964 1812.53 557.665 1792.21 557.665C1754.22 557.665 1723.57 544.501 1700.25 518.172C1677.31 491.842 1665.83 457.238 1665.83 414.359C1665.83 371.856 1677.49 337.44 1700.81 311.111C1724.13 284.782 1754.6 271.617 1792.21 271.617C1812.53 271.617 1830.96 276.507 1847.51 286.286C1864.06 296.066 1876.28 309.042 1884.18 325.216V278.387H1955.27V536.79C1955.27 580.421 1942.48 613.897 1916.9 637.217C1891.7 660.538 1855.97 672.198 1809.7 672.198C1770.96 672.198 1739.56 664.487 1715.48 649.065C1691.79 633.644 1677.31 611.64 1672.04 583.054H1743.69C1747.45 595.843 1754.79 605.434 1765.7 611.828C1776.6 618.223 1791.27 621.42 1809.7 621.42ZM1811.4 504.631C1833.59 504.631 1851.45 496.92 1865 481.499C1878.91 465.701 1885.87 445.202 1885.87 420.001V408.153C1885.87 382.952 1878.91 362.641 1865 347.22C1851.45 331.798 1833.59 324.087 1811.4 324.087C1788.83 324.087 1770.96 332.174 1757.8 348.348C1744.63 364.522 1738.05 386.525 1738.05 414.359C1738.05 442.193 1744.63 464.197 1757.8 480.37C1770.96 496.544 1788.83 504.631 1811.4 504.631ZM2231.59 475.857H2298.17C2292.15 505.571 2277.48 529.079 2254.16 546.381C2231.22 563.307 2202.82 571.77 2168.97 571.77C2125.71 571.77 2090.73 558.23 2064.03 531.148C2037.32 503.69 2023.97 467.394 2023.97 422.258C2023.97 377.122 2037.32 340.825 2064.03 313.368C2090.73 285.534 2125.15 271.617 2167.27 271.617C2207.9 271.617 2240.06 284.97 2263.75 311.675C2287.82 338.38 2299.86 373.173 2299.86 416.052V439.184H2093.93C2096.18 464.761 2103.71 484.508 2116.5 498.425C2129.28 511.965 2146.77 518.736 2168.97 518.736C2184.76 518.736 2197.93 515.163 2208.46 508.016C2218.99 500.869 2226.7 490.15 2231.59 475.857ZM2167.27 325.216C2148.09 325.216 2132.29 331.046 2119.88 342.706C2107.84 353.99 2099.95 370.54 2096.18 392.355H2231.03C2231.03 372.42 2225.2 356.247 2213.54 343.834C2202.25 331.422 2186.83 325.216 2167.27 325.216ZM2368.24 278.387H2439.33V326.908C2446.47 309.983 2457.95 296.63 2473.74 286.85C2489.92 276.695 2508.54 271.617 2529.6 271.617C2562.32 271.617 2587.9 281.396 2606.33 300.955C2625.14 320.138 2634.54 346.843 2634.54 381.071V565H2562.32V397.997C2562.32 375.053 2557.43 357.751 2547.65 346.091C2537.87 334.431 2523.58 328.601 2504.77 328.601C2484.46 328.601 2468.67 335.559 2457.38 349.476C2446.1 363.393 2440.46 383.328 2440.46 409.281V565H2368.24V278.387Z" fill="white"/>
</svg>
