<svg xmlns="http://www.w3.org/2000/svg" width="157.1" height="100" viewBox="0 0 157.1 100"><g transform="translate(0)"><path d="M0,100,157.1,78.388V0L0,21.622Z" transform="translate(0)" fill="#FFD300"/><path d="M164.292,319.967v6.462l-9.725,1.334v14.745l8.454-1.162v6.492l-8.453,1.155-.012,21.214-6.665.919V322.216Z" transform="translate(-133.102 -287.97)"/><path d="M351.233,306.3v42.445l9.954-1.367v6.459l-16.63,2.286V307.215Z" transform="translate(-310.101 -275.671)"/><path d="M559.813,265.534V272l-9.717,1.339v14.741l8.485-1.168V293.4L550.1,294.58v14.747l9.717-1.346v6.467L543.422,316.7V267.782Z" transform="translate(-489.08 -238.981)"/><path d="M753.41,240.879v42.442l-6.676.919V241.8l-6.749.927V236.26l20.153-2.76v6.456Z" transform="translate(-665.987 -210.15)"/><path d="M1230.033,167.187V216.1l-6.676.915V195.812l-8.089,1.116v21.2l-6.676.912V170.128l6.676-.919v21.225l8.089-1.107V168.1Z" transform="translate(-1087.734 -150.468)"/><path d="M983.922,225.331l6.693-1.045v-7.621c0-5.314-4.372-8.051-10.372-7.228-6.147.843-9.625,4.677-9.7,10v32.618c0,5.315,4.687,8.078,10.76,7.245,6-.823,9.31-4.547,9.31-9.861V241.4l-6.693,1.044,0,6.865a3.926,3.926,0,0,1-3.338,3.777,2.863,2.863,0,0,1-3.338-2.9v-30.7a3.926,3.926,0,0,1,3.338-3.777,2.863,2.863,0,0,1,3.338,2.9v6.7Z" transform="translate(-873.49 -188.363)"/></g></svg>