<svg xmlns="http://www.w3.org/2000/svg" viewBox="0 0 525 126.92"><defs><style>.cls-1{fill:#071133;}</style></defs><g id="Layer_2" data-name="Layer 2"><g id="Layer_1-2" data-name="Layer 1"><path class="cls-1" d="M187.14,23a10.89,10.89,0,0,0-8,3.27,10.67,10.67,0,0,0-3.26,7.83v3.35h25.2V57.49h-25.2l-.18,68.05H153V35.12q0-15.66,9.38-24.26t24.78-8.69h13.93V23ZM222,49.49a45.18,45.18,0,0,1,64.27,0,43.65,43.65,0,0,1,13.34,32,44,44,0,0,1-13.34,32.1,45.4,45.4,0,0,1-64.27,0,44.11,44.11,0,0,1-13.25-32.1A43.8,43.8,0,0,1,222,49.49Zm48,16.35a22.43,22.43,0,0,0-31.66,0A21.82,21.82,0,0,0,232,81.67a21.42,21.42,0,0,0,6.45,15.74,21.72,21.72,0,0,0,15.83,6.45A21.16,21.16,0,0,0,270,97.24a21.66,21.66,0,0,0,6.54-15.75A21.33,21.33,0,0,0,270,65.84Zm92.92-28.4V59.3H352a15.06,15.06,0,0,0-10.75,4.13,13.56,13.56,0,0,0-4.39,10.32v51.79h-23V37.44h18.32v5.85q7.06-5.85,18.33-5.85Zm61.94,65.05v23.05H408.77q-15.66,0-24.61-8.77T375.3,91.22V9.4h23.31v28h26.93V57.49H398.61v33.9a11.09,11.09,0,0,0,3,7.91,10.35,10.35,0,0,0,7.75,3.19Zm22.55-53a45.18,45.18,0,0,1,64.27,0,43.64,43.64,0,0,1,13.33,32,44,44,0,0,1-13.33,32.1,45.4,45.4,0,0,1-64.27,0,44.07,44.07,0,0,1-13.25-32.1A43.76,43.76,0,0,1,447.4,49.49Zm48,16.35a22.43,22.43,0,0,0-31.66,0,21.85,21.85,0,0,0-6.36,15.83,21.42,21.42,0,0,0,6.45,15.74,21.72,21.72,0,0,0,15.83,6.45,21.14,21.14,0,0,0,15.74-6.62,21.66,21.66,0,0,0,6.54-15.75A21.33,21.33,0,0,0,495.4,65.84Z"/><path class="cls-1" d="M63.43,126.87a63.44,63.44,0,1,1,63.44-63.44A63.51,63.51,0,0,1,63.43,126.87Zm0-110.13a46.7,46.7,0,1,0,46.7,46.69A46.75,46.75,0,0,0,63.43,16.74Z"/><path class="cls-1" d="M63.43,95.15A31.72,31.72,0,1,1,95.15,63.43,31.75,31.75,0,0,1,63.43,95.15Zm0-46.69a15,15,0,1,0,15,15A15,15,0,0,0,63.43,48.46Z"/></g></g></svg>