<svg xmlns="http://www.w3.org/2000/svg" width="140" height="40" fill="currentColor" viewBox="0 0 140 40">
  <path fill="#A7A7A0" d="M72.872 19.898c0 1.05.703 1.756 1.629 1.756.927 0 1.63-.705 1.63-1.756v-4.243h1.92v4.472c0 1.951-1.561 3.373-3.544 3.373s-3.544-1.424-3.544-3.373l-.01-4.472h1.92v4.243Zm-19.74 3.446h-1.92v-7.69h1.92v7.69ZM58.65 15.5c1.983 0 3.545 1.425 3.545 3.374l.01 4.471h-1.92v-4.242c0-1.05-.705-1.756-1.63-1.756-.926 0-1.63.705-1.63 1.756v4.242h-1.92v-4.471c0-1.951 1.563-3.374 3.545-3.374Zm11.054 1.95h-2.29v5.895h-1.92V17.45h-2.292v-1.795h6.502v1.795Zm12.237 5.895h-1.92v-7.69h1.92v7.69Zm7.742-7.69v1.796h-2.29v5.894h-1.92V17.45h-2.291v-1.795h6.5Z"/>
</svg>
