<?xml version="1.0" encoding="UTF-8"?>
<svg width="845.85" height="170.09" fill="none" version="1.1" viewBox="0 0 845.85 170.09" xmlns="http://www.w3.org/2000/svg">
 <path d="m434.23 98.424c0 41.39 34.318 71.666 77.917 71.666 43.596 0 77.953-30.276 77.953-71.666v-95.093h-42.216v90.191c0 22.342-15.493 37.386-35.851 37.386-20.358 0-35.851-14.969-35.851-37.386v-90.191h-42.213zm268.66-57.034h50.37v125.56h42.213v-125.56h50.373v-38.134h-142.96zm-27.282-38.134h-42.213v163.69h42.213zm-411.92 38.134h50.372v125.56h42.214v-125.56h50.334v-38.134h-142.92zm-221.47-38.134h-42.214v163.69h42.214zm199.24 68.373c0-41.391-34.318-71.629-77.953-71.629-43.636 0-77.953 30.238-77.953 71.629v95.317h42.214v-90.191c0-22.342 15.494-37.386 35.852-37.386 20.358 0 35.852 14.969 35.852 37.386v90.191h42.214l-0.26191-95.317z" fill="#236cff" stroke-width="3.2693"/>
</svg>
