<svg xmlns="http://www.w3.org/2000/svg" width="140" height="40" fill="currentColor" viewBox="0 0 140 40">
  <g transform="translate(5.6 1.6) scale(0.92)">
  <path fill="#A7A7A0" d="M35.09 13.5c.265 0 .527.061.765.178l4.498 2.516a1.654 1.654 0 0 1 .766 1.3v5.013a1.653 1.653 0 0 1-.766 1.3l-4.502 2.515a1.741 1.741 0 0 1-1.532 0l-4.498-2.515a1.655 1.655 0 0 1-.766-1.3v-5.014a1.655 1.655 0 0 1 .766-1.299l4.502-2.516c.239-.117.502-.178.767-.178Zm71.521 5.298a.195.195 0 0 1 .204.139l.882 2.938h.024l1.118-2.939c.074-.13.158-.138.311-.138h.928a.218.218 0 0 1 .203.096.22.22 0 0 1 .011.224l-2.901 6.99a.26.26 0 0 1-.085.106.25.25 0 0 1-.129.043h-1.021a.224.224 0 0 1-.206-.1.217.217 0 0 1-.035-.114.23.23 0 0 1 .027-.115l.99-2.493-1.556-4.317a.213.213 0 0 1-.025-.113.217.217 0 0 1 .239-.207h1.021ZM78.42 18.69a2.434 2.434 0 0 1 1.856.845c.107.107.056.247-.05.354l-.464.49c-.107.117-.223.061-.32-.031a1.321 1.321 0 0 0-.98-.427 1.293 1.293 0 0 0-1.219.836 1.29 1.29 0 0 0-.08.514 1.288 1.288 0 0 0 .777 1.262 1.285 1.285 0 0 0 1.1-.044 1.31 1.31 0 0 0 .457-.396.232.232 0 0 1 .306-.032l.465.404c.115.107.17.227.083.352a2.207 2.207 0 0 1-1.95 1.035 2.576 2.576 0 1 1 0-5.148l.019-.014Zm-38.712.066c-2.497 0-4.363 2.07-4.363 4.61v.106h-.501v-.107c0-2.539-1.857-4.6-4.373-4.61v.465a4.602 4.602 0 0 0 2.97 4.326 4.868 4.868 0 0 0 1.667.298 4.96 4.96 0 0 0 1.68-.298 4.605 4.605 0 0 0 2.967-4.326c-.023-.149-.033-.306-.047-.464Zm18.815-.065c1.536 0 1.856.799 1.856 2.145v2.65a.238.238 0 0 1-.236.238h-.363c-.083 0-.148-.033-.213-.172l-.14-.33a2.162 2.162 0 0 1-1.545.617 1.57 1.57 0 0 1-1.57-1.025 1.572 1.572 0 0 1-.091-.66c.028-.872.742-1.546 1.99-1.546.315.006.627.053.929.14 0-.627-.158-.928-.682-.929a6.27 6.27 0 0 0-1.393.181c-.162.056-.256-.06-.279-.208l-.106-.558a.226.226 0 0 1-.015-.093.225.225 0 0 1 .173-.203 6.261 6.261 0 0 1 1.684-.247Zm24.776 0c1.532 0 1.857.799 1.857 2.145v2.65a.237.237 0 0 1-.232.238h-.363c-.087 0-.148-.033-.212-.172l-.14-.33a2.173 2.173 0 0 1-1.546.617 1.57 1.57 0 0 1-1.57-1.025 1.568 1.568 0 0 1-.091-.66c.023-.872.738-1.546 1.981-1.546.315.006.627.054.93.14 0-.627-.164-.929-.683-.929a6.27 6.27 0 0 0-1.393.181c-.158.056-.255-.06-.273-.208l-.108-.558a.225.225 0 0 1 .158-.297 6.26 6.26 0 0 1 1.685-.246Zm7.436-2.427a.241.241 0 0 1 .237.231v6.991a.236.236 0 0 1-.237.237h-.394c-.116 0-.19-.098-.233-.237l-.13-.385a2.113 2.113 0 0 1-1.606.738c-1.346 0-2.357-1.087-2.357-2.581a2.423 2.423 0 0 1 1.472-2.376 2.42 2.42 0 0 1 .97-.19c.402 0 .803.069 1.183.203v-2.4a.253.253 0 0 1 .232-.231h.863Zm3.57 2.426a2.209 2.209 0 0 1 2.11 1.4c.11.28.162.58.151.88 0 .074 0 .246-.023.32a.247.247 0 0 1-.074.155.247.247 0 0 1-.158.068h-3.157a1.186 1.186 0 0 0 1.226 1.142 1.62 1.62 0 0 0 1.054-.362c.12-.098.246-.107.32 0l.418.553a.209.209 0 0 1-.024.32 2.787 2.787 0 0 1-1.834.673 2.496 2.496 0 0 1-2.492-2.581 2.49 2.49 0 0 1 2.484-2.568ZM45.56 16.286a.255.255 0 0 1 .255.256v2.878l2.688-3.026a.247.247 0 0 1 .209-.108h1.067a.225.225 0 0 1 .215.133.225.225 0 0 1-.048.248L47.162 19.8l2.985 3.57a.237.237 0 0 1-.19.376h-1.161a.259.259 0 0 1-.195-.074l-2.786-3.436v3.25a.26.26 0 0 1-.255.26h-.928a.256.256 0 0 1-.099-.02.255.255 0 0 1-.084-.056.258.258 0 0 1-.072-.184V16.52a.25.25 0 0 1 .255-.233h.928Zm26.648-.115a.183.183 0 0 1 .107.03c.032.02.056.05.07.086l3.282 7.171a.192.192 0 0 1-.009.192.192.192 0 0 1-.075.067.191.191 0 0 1-.098.02h-.927a.308.308 0 0 1-.312-.214l-.52-1.15h-3.165l-.525 1.15a.321.321 0 0 1-.306.214h-.928a.189.189 0 0 1-.19-.086.186.186 0 0 1 .008-.207l3.3-7.157a.186.186 0 0 1 .182-.116h.106Zm-20.185.093a.242.242 0 0 1 .237.231v2.614a1.888 1.888 0 0 1 1.253-.418c1.569 0 1.996 1.086 1.996 2.32v2.47a.247.247 0 0 1-.236.238h-.865a.238.238 0 0 1-.231-.238v-2.478c0-.682-.312-1.096-.897-1.096a1.012 1.012 0 0 0-1.02.863v2.716c0 .14-.066.236-.26.237h-.84a.242.242 0 0 1-.232-.237v-6.99a.25.25 0 0 1 .231-.231h.864Zm50.894 2.422c1.573 0 1.949 1.003 1.949 2.28v2.515a.246.246 0 0 1-.019.093.248.248 0 0 1-.227.145h-.853a.238.238 0 0 1-.233-.238V20.93c0-.636-.237-1.03-.854-1.03a.928.928 0 0 0-.928.51v3.064a.24.24 0 0 1-.232.236h-.818a.233.233 0 0 1-.22-.145.235.235 0 0 1-.016-.091V20.93c0-.636-.181-1.03-.808-1.03a.976.976 0 0 0-.928.765v2.813a.24.24 0 0 1-.232.237h-.863a.242.242 0 0 1-.233-.236l-.046-4.443a.238.238 0 0 1 .232-.237h.386a.185.185 0 0 1 .125.033.185.185 0 0 1 .074.107l.18.463a1.858 1.858 0 0 1 1.504-.715 1.676 1.676 0 0 1 1.472.749 2.103 2.103 0 0 1 1.588-.748Zm-38.77.01c1.563 0 1.967 1.053 1.967 2.246v2.55a.241.241 0 0 1-.072.152.241.241 0 0 1-.155.07h-.882a.237.237 0 0 1-.236-.237v-2.548c0-.636-.256-1.03-.85-1.03a1.088 1.088 0 0 0-1.068.765v2.813c0 .18-.074.237-.306.237h-.79a.247.247 0 0 1-.236-.237v-4.443a.237.237 0 0 1 .237-.236h.417a.196.196 0 0 1 .205.148l.18.464a1.979 1.979 0 0 1 1.589-.715Zm-5.745 2.757c-.566 0-.873.265-.873.701a.652.652 0 0 0 .197.513.652.652 0 0 0 .518.179 1.052 1.052 0 0 0 .882-.525v-.72a1.965 1.965 0 0 0-.724-.148Zm24.777 0c-.567 0-.873.265-.873.701a.645.645 0 0 0 .71.692 1.064 1.064 0 0 0 .886-.525v-.72a1.965 1.965 0 0 0-.723-.148Zm5.435-1.546a1.248 1.248 0 0 0-1.165.847 1.243 1.243 0 0 0-.06.504c0 .696.394 1.365 1.165 1.365a1.128 1.128 0 0 0 1.086-.683v-1.755a1.941 1.941 0 0 0-1.026-.278ZM71.08 21.175h2.14l-1.063-2.345h-.032l-1.045 2.345Zm23.226-1.384a.98.98 0 0 0-1.045.85h1.973a.902.902 0 0 0-.928-.85Zm-59.214-3.625a1.393 1.393 0 1 0 0 2.786 1.393 1.393 0 0 0 0-2.786Z"/>
  </g>
</svg>
