<svg width="50" height="50" viewBox="0 0 50 50" fill="none" xmlns="http://www.w3.org/2000/svg">
<path d="M25.048 7C25.2112 7.04335 25.3816 7.03911 25.548 7.06738C25.9071 7.12846 26.2611 7.22931 26.5968 7.37109C26.9167 7.5092 27.2386 7.70179 27.5441 7.87305L28.8742 8.61816L33.2462 11.0645L37.3029 13.333L38.6046 14.0596C39.5164 14.5699 40.1562 14.9559 40.7296 15.8828C41.0921 16.4671 41.3214 17.1246 41.4015 17.8076C41.4547 18.2964 41.4263 19.168 41.4259 19.6895V29.0479L41.4269 30.7822C41.4278 31.4745 41.4606 32.0458 41.3048 32.7256C41.0502 33.8371 40.2576 34.9787 39.2668 35.5527C38.4123 36.0477 37.5002 36.5427 36.63 37.0293L31.3146 40L28.2111 41.7334C27.3429 42.2177 26.5424 42.7544 25.55 42.9238C25.3742 42.9538 25.1404 42.9563 24.9767 43H24.4582C24.3145 42.9675 24.0633 42.949 23.9054 42.9229C23.5203 42.858 23.1444 42.7451 22.7873 42.5869C22.4987 42.4613 22.2027 42.2852 21.9259 42.1299L20.7726 41.4834L17.0158 39.3818L12.4025 36.8008L10.9289 35.9785C10.6582 35.8273 10.3066 35.6431 10.0509 35.4756C9.03851 34.8036 8.33629 33.7552 8.09976 32.5635C7.98644 32.0084 8.00674 31.4958 8.00699 30.9346L8.00796 29.3564V23.6445L8.00699 19.9004C8.00657 19.3455 7.97779 18.2954 8.04019 17.7725C8.12942 17.064 8.37799 16.3851 8.76675 15.7861C9.07824 15.3079 9.48008 14.8941 9.94937 14.5693C10.2196 14.3837 10.5585 14.2069 10.8478 14.0459L12.1789 13.3037L16.4904 10.8945L20.6847 8.55078L21.9728 7.83105C22.2171 7.69418 22.5196 7.5136 22.7687 7.40234C23.1196 7.24562 23.541 7.13101 23.9191 7.06641C24.0733 7.04007 24.2163 7.03779 24.3722 7.00488L24.3937 7H25.048ZM37.5099 21.5479C34.2769 21.587 31.3533 22.7429 29.0812 25.0732C26.9932 27.2352 25.7197 30.055 25.4777 33.0508C25.4303 33.5762 25.4312 34.0705 25.4298 34.5967L24.0461 34.5977C24.036 33.8525 24.0013 33.1107 23.8986 32.3721C23.53 29.5174 22.2124 26.8696 20.1574 24.8545C17.9195 22.6705 15.0425 21.5953 11.9386 21.5488C11.9385 22.4891 11.9187 23.4021 12.0226 24.3389C12.3456 27.1975 13.6289 29.8624 15.6623 31.8975C18.0799 34.3112 21.3633 35.6562 24.7794 35.6318C28.1898 35.6594 31.4696 34.3201 33.8859 31.9131C36.2478 29.5496 37.5962 26.382 37.6339 23.0225C37.6355 22.8766 37.6224 22.7401 37.6046 22.5957C37.5684 22.2726 37.5263 21.8741 37.5099 21.5479ZM24.5548 14.3848C22.4317 14.4781 20.7851 16.2742 20.8761 18.3975C20.9674 20.5205 22.7617 22.1688 24.8849 22.0801C27.0113 21.9911 28.6625 20.1937 28.5714 18.0674C28.4802 15.9409 26.6813 14.2913 24.5548 14.3848Z" fill="#ffffff"/>
</svg>
