<svg width="123" height="25" viewBox="0 0 123 25" fill="none" xmlns="http://www.w3.org/2000/svg">
<g clip-path="url(#clip0_1969_2935)">
<path d="M19.8969 0.925781H3.74191C1.71414 0.925781 0.0703125 2.59818 0.0703125 4.66119V21.097C0.0703125 23.16 1.71414 24.8324 3.74191 24.8324H19.8969C21.9247 24.8324 23.5685 23.16 23.5685 21.097V4.66119C23.5685 2.59818 21.9247 0.925781 19.8969 0.925781Z" fill="url(#paint0_linear_1969_2935)"/>
<path d="M6.92142 8.77131L7.22443 8.94648C7.13665 9.09831 7.13665 9.28767 7.22443 9.4395L10.1921 14.5727C10.1921 14.5727 10.1921 14.5727 10.1921 14.5727C10.5058 15.1153 10.5066 15.7876 10.1942 16.3309C10.1941 16.3309 10.1941 16.331 10.1941 16.331L7.85692 20.3959L7.56232 20.2265L7.85691 20.3959C7.66686 20.7264 7.90768 21.1219 8.25636 21.1219H13.0408C13.2025 21.1219 13.3556 21.0344 13.4405 20.8865L16.4159 15.7008C16.503 15.5489 16.5025 15.3597 16.4145 15.2082L6.92142 8.77131ZM6.92142 8.77131L7.22443 8.94648L9.58389 4.86526L9.58389 4.86526C9.7637 4.55423 10.1988 4.55306 10.3803 4.86291C10.3803 4.86291 10.3803 4.86292 10.3803 4.86292L13.127 9.55315L13.1271 9.55333L13.1272 9.55342L13.1276 9.5542L16.4145 15.2082L6.92142 8.77131Z" fill="#F1F3FD" fill-opacity="0.8" stroke="url(#paint1_linear_1969_2935)" stroke-width="0.7"/>
<path d="M19.897 1.30078H3.74194C1.91695 1.30078 0.4375 2.80594 0.4375 4.66265V21.0984C0.4375 22.9552 1.91695 24.4603 3.74194 24.4603H19.897C21.722 24.4603 23.2014 22.9552 23.2014 21.0984V4.66265C23.2014 2.80594 21.722 1.30078 19.897 1.30078Z" stroke="white" stroke-opacity="0.1"/>
<path d="M32.5225 20.2979V4.97266H35.2513V17.9707H41.8857V20.2979H32.5225Z" fill="#131A34" fill-opacity="0.9"/>
<path d="M46.3518 20.5318C45.636 20.5318 44.9911 20.4021 44.4175 20.1427C43.8486 19.8783 43.3975 19.4892 43.0641 18.9753C42.7356 18.4615 42.5713 17.828 42.5713 17.0746C42.5713 16.4262 42.689 15.8899 42.9243 15.4658C43.1597 15.0417 43.4808 14.7026 43.8878 14.4481C44.2948 14.1937 44.7533 14.0016 45.2633 13.8719C45.7782 13.7372 46.3102 13.6399 46.8593 13.5801C47.5213 13.5102 48.0582 13.4479 48.4702 13.393C48.882 13.3331 49.1812 13.2433 49.3675 13.1236C49.5587 12.9989 49.6543 12.8068 49.6543 12.5474V12.5025C49.6543 11.9388 49.49 11.5023 49.1615 11.193C48.833 10.8837 48.3598 10.729 47.742 10.729C47.0898 10.729 46.5725 10.8738 46.19 11.1631C45.8125 11.4524 45.5575 11.7942 45.4251 12.1882L42.9391 11.8291C43.1352 11.1307 43.4588 10.547 43.91 10.078C44.361 9.6041 44.9127 9.24991 45.5648 9.01544C46.217 8.77598 46.9378 8.65625 47.7273 8.65625C48.2715 8.65625 48.8134 8.72111 49.3527 8.85081C49.8922 8.98052 50.3849 9.19504 50.8312 9.49435C51.2774 9.78869 51.6354 10.1903 51.905 10.6991C52.1796 11.208 52.3169 11.844 52.3169 12.6073V20.2999H49.7573V18.7209H49.669C49.5072 19.0402 49.2792 19.3395 48.985 19.6189C48.6957 19.8933 48.3304 20.1153 47.889 20.2848C47.4527 20.4495 46.9403 20.5318 46.3518 20.5318ZM47.0432 18.5413C47.5777 18.5413 48.0411 18.434 48.4334 18.2195C48.8257 18.0001 49.1272 17.7107 49.338 17.3515C49.5538 16.9924 49.6617 16.6007 49.6617 16.1767V14.8223C49.5783 14.8921 49.4362 14.9569 49.2351 15.0168C49.039 15.0767 48.8183 15.129 48.5732 15.174C48.328 15.2189 48.0852 15.2588 47.845 15.2937C47.6047 15.3286 47.3963 15.3586 47.2198 15.3835C46.8226 15.4383 46.4671 15.5282 46.1533 15.6528C45.8395 15.7776 45.5918 15.9522 45.4104 16.1767C45.229 16.3962 45.1383 16.6805 45.1383 17.0298C45.1383 17.5287 45.3172 17.9053 45.6752 18.1597C46.0331 18.4141 46.4892 18.5413 47.0432 18.5413Z" fill="#131A34" fill-opacity="0.9"/>
<path d="M56.6211 13.5651V20.2999H53.9585V8.80592H56.5035V10.759H56.6358C56.8957 10.1154 57.31 9.6041 57.8788 9.22497C58.4525 8.84582 59.1611 8.65625 60.0045 8.65625C60.7842 8.65625 61.4632 8.82587 62.0419 9.1651C62.6254 9.50433 63.0765 9.99571 63.3952 10.6393C63.7189 11.2828 63.8782 12.0635 63.8734 12.9815V20.2999H61.2107V13.4005C61.2107 12.6322 61.0146 12.0311 60.6224 11.5971C60.235 11.1631 59.698 10.946 59.0115 10.946C58.5457 10.946 58.1314 11.0508 57.7685 11.2604C57.4105 11.4649 57.1286 11.7617 56.9227 12.1508C56.7217 12.5399 56.6211 13.0113 56.6211 13.5651Z" fill="#131A34" fill-opacity="0.9"/>
<path d="M70.4577 24.8495C69.5016 24.8495 68.6802 24.7173 67.9937 24.4529C67.3072 24.1935 66.7556 23.8443 66.3388 23.4053C65.922 22.9663 65.6327 22.4799 65.4709 21.9461L67.8687 21.3549C67.9766 21.5794 68.1334 21.8014 68.3394 22.021C68.5454 22.2455 68.8224 22.43 69.1706 22.5746C69.5236 22.7243 69.9673 22.7991 70.5018 22.7991C71.257 22.7991 71.8821 22.6121 72.3774 22.2379C72.8726 21.8687 73.1203 21.2602 73.1203 20.4121V18.2346H72.9878C72.8506 18.5139 72.6495 18.8008 72.3848 19.0951C72.1248 19.3894 71.7791 19.6364 71.3476 19.8359C70.9211 20.0354 70.3841 20.1352 69.7369 20.1352C68.8689 20.1352 68.0819 19.9282 67.3759 19.5141C66.6747 19.0951 66.1157 18.4715 65.6989 17.6433C65.287 16.8103 65.0811 15.7676 65.0811 14.5155C65.0811 13.2533 65.287 12.1882 65.6989 11.3202C66.1157 10.4472 66.6771 9.78619 67.3832 9.33721C68.0893 8.88324 68.8763 8.65625 69.7443 8.65625C70.4062 8.65625 70.9505 8.77099 71.3771 9.00048C71.8086 9.22497 72.1518 9.49685 72.4068 9.81612C72.6618 10.1304 72.8555 10.4273 72.9878 10.7066H73.135V8.80592H75.7608V20.4869C75.7608 21.4697 75.5303 22.2828 75.0694 22.9264C74.6085 23.5699 73.9783 24.0513 73.1791 24.3706C72.3798 24.6899 71.4728 24.8495 70.4577 24.8495ZM70.4798 18.0101C71.0436 18.0101 71.5242 17.8704 71.9214 17.591C72.3186 17.3116 72.6201 16.91 72.8261 16.3862C73.032 15.8624 73.135 15.2338 73.135 14.5005C73.135 13.7771 73.032 13.1436 72.8261 12.5998C72.625 12.056 72.3259 11.6345 71.9288 11.3352C71.5365 11.0308 71.0535 10.8787 70.4798 10.8787C69.8864 10.8787 69.3912 11.0359 68.9941 11.3501C68.5968 11.6644 68.2977 12.096 68.0967 12.6447C67.8956 13.1885 67.7951 13.8071 67.7951 14.5005C67.7951 15.2039 67.8956 15.82 68.0967 16.3488C68.3026 16.8726 68.6042 17.2817 69.0014 17.576C69.4034 17.8653 69.8963 18.0101 70.4798 18.0101Z" fill="#131A34" fill-opacity="0.9"/>
<path d="M81.6465 20.4999C80.759 20.4999 79.9646 20.2679 79.2634 19.804C78.5623 19.3401 78.0081 18.6666 77.6011 17.7836C77.1942 16.9006 76.9907 15.828 76.9907 14.5659C76.9907 13.2888 77.1966 12.2112 77.6086 11.3332C78.0253 10.4503 78.5868 9.78425 79.2929 9.33526C79.999 8.88129 80.786 8.6543 81.6538 8.6543C82.3158 8.6543 82.8601 8.76905 83.2868 8.99853C83.7133 9.22302 84.0517 9.4949 84.3018 9.81418C84.5518 10.1285 84.7455 10.4253 84.8828 10.7047H84.9932V4.97266H87.663V20.2979H85.0446V18.487H84.8828C84.7455 18.7664 84.547 19.0632 84.287 19.3775C84.0272 19.6868 83.6839 19.9512 83.2573 20.1706C82.8307 20.3902 82.2938 20.4999 81.6465 20.4999ZM82.3894 18.2774C82.9533 18.2774 83.4338 18.1228 83.831 17.8135C84.2282 17.4993 84.5298 17.0627 84.7357 16.504C84.9417 15.9452 85.0446 15.2943 85.0446 14.5509C85.0446 13.8077 84.9417 13.1616 84.7357 12.6128C84.5347 12.0641 84.2355 11.6376 83.8383 11.3332C83.4461 11.0289 82.9631 10.8768 82.3894 10.8768C81.7961 10.8768 81.3008 11.0339 80.9036 11.3482C80.5065 11.6625 80.2073 12.0965 80.0063 12.6502C79.8053 13.204 79.7048 13.8375 79.7048 14.5509C79.7048 15.2693 79.8053 15.9103 80.0063 16.4741C80.2123 17.0328 80.5138 17.4743 80.911 17.7986C81.3131 18.1178 81.8059 18.2774 82.3894 18.2774Z" fill="#131A34" fill-opacity="0.9"/>
<path d="M94.3933 20.5244C93.2899 20.5244 92.3335 20.2774 91.5244 19.7835C90.7153 19.2896 90.0877 18.5987 89.6414 17.7107C89.2002 16.8228 88.9795 15.7851 88.9795 14.5978C88.9795 13.4105 89.2002 12.3703 89.6414 11.4774C90.0877 10.5844 90.7153 9.89095 91.5244 9.39707C92.3335 8.9032 93.2899 8.65625 94.3933 8.65625C95.4966 8.65625 96.4521 8.9032 97.2617 9.39707C98.0704 9.89095 98.6955 10.5844 99.137 11.4774C99.5831 12.3703 99.8061 13.4105 99.8061 14.5978C99.8061 15.7851 99.5831 16.8228 99.137 17.7107C98.6955 18.5987 98.0704 19.2896 97.2617 19.7835C96.4521 20.2774 95.4966 20.5244 94.3933 20.5244ZM94.4079 18.3543C95.0055 18.3543 95.5058 18.1871 95.9078 17.8529C96.3098 17.5136 96.6091 17.0597 96.8055 16.491C97.0065 15.9223 97.1066 15.2887 97.1066 14.5903C97.1066 13.8869 97.0065 13.2508 96.8055 12.6822C96.6091 12.1084 96.3098 11.6519 95.9078 11.3128C95.5058 10.9735 95.0055 10.8039 94.4079 10.8039C93.7948 10.8039 93.2844 10.9735 92.8778 11.3128C92.4758 11.6519 92.1738 12.1084 91.9728 12.6822C91.7769 13.2508 91.6789 13.8869 91.6789 14.5903C91.6789 15.2887 91.7769 15.9223 91.9728 16.491C92.1738 17.0597 92.4758 17.5136 92.8778 17.8529C93.2844 18.1871 93.7948 18.3543 94.4079 18.3543Z" fill="#131A34" fill-opacity="0.9"/>
<path d="M105.959 20.5244C104.831 20.5244 103.862 20.2724 103.054 19.7685C102.249 19.2647 101.629 18.5688 101.192 17.6808C100.761 16.7878 100.545 15.7601 100.545 14.5978C100.545 13.4305 100.766 12.4002 101.207 11.5073C101.648 10.6093 102.271 9.91091 103.076 9.41204C103.884 8.90818 104.841 8.65625 105.944 8.65625C106.861 8.65625 107.672 8.82837 108.378 9.17259C109.09 9.51182 109.656 9.99322 110.077 10.6168C110.499 11.2354 110.739 11.9588 110.798 12.7868H108.253C108.151 12.2332 107.906 11.7717 107.518 11.4025C107.135 11.0284 106.623 10.8413 105.981 10.8413C105.436 10.8413 104.958 10.991 104.546 11.2903C104.134 11.5846 103.814 12.0087 103.583 12.5623C103.357 13.1161 103.244 13.7796 103.244 14.5529C103.244 15.3361 103.357 16.0096 103.583 16.5733C103.808 17.1321 104.125 17.5635 104.531 17.8678C104.943 18.1671 105.426 18.3168 105.981 18.3168C106.373 18.3168 106.723 18.242 107.033 18.0923C107.347 17.9377 107.608 17.7157 107.819 17.4263C108.03 17.137 108.174 16.7853 108.253 16.3713H110.798C110.735 17.1844 110.499 17.9053 110.092 18.5339C109.685 19.1574 109.131 19.6464 108.43 20.0005C107.728 20.3497 106.905 20.5244 105.959 20.5244Z" fill="#131A34" fill-opacity="0.9"/>
<path d="M114.376 16.6911L114.368 13.421H114.795L118.855 8.80397H121.967L116.972 14.4612H116.421L114.376 16.6911ZM111.949 20.2979V4.97266H114.612V20.2979H111.949ZM119.04 20.2979L115.361 15.0672L117.156 13.1591L122.224 20.2979H119.04Z" fill="#131A34" fill-opacity="0.9"/>
</g>
<defs>
<linearGradient id="paint0_linear_1969_2935" x1="22.434" y1="24.8324" x2="1.8402" y2="3.40983" gradientUnits="userSpaceOnUse">
<stop stop-color="#4469FC"/>
<stop offset="1" stop-color="#4469FC" stop-opacity="0.7"/>
</linearGradient>
<linearGradient id="paint1_linear_1969_2935" x1="11.8198" y1="21.752" x2="9.36643" y2="4.01247" gradientUnits="userSpaceOnUse">
<stop stop-color="white" stop-opacity="0"/>
<stop offset="1" stop-color="white"/>
</linearGradient>
<clipPath id="clip0_1969_2935">
<rect width="122.264" height="24" fill="white" transform="translate(0 0.925781)"/>
</clipPath>
</defs>
</svg>
