<svg xmlns="http://www.w3.org/2000/svg" width="140" height="40" fill="currentColor" viewBox="0 0 140 40">
  <g clip-path="url(#a)">
    <path fill="#A7A7A0" d="M63.025 17.93c.4 0 .75.082 1.059.237.308.154.545.36.72.616v-.76h1.366v5.423c0 .493-.092.945-.298 1.335-.205.39-.503.71-.904.935-.401.236-.895.35-1.46.35-.76 0-1.387-.175-1.88-.535a1.967 1.967 0 0 1-.833-1.458h1.346a.999.999 0 0 0 .463.585c.236.144.524.216.863.216.4 0 .72-.123.966-.36.247-.246.37-.595.37-1.078v-.832a2.05 2.05 0 0 1-.72.626 2.126 2.126 0 0 1-1.058.257 2.3 2.3 0 0 1-1.244-.35 2.448 2.448 0 0 1-.894-.985 3.146 3.146 0 0 1-.329-1.459c0-.544.113-1.027.33-1.448.215-.421.513-.75.883-.976.38-.226.792-.339 1.254-.339Zm35.82-.01c.515 0 .977.113 1.378.329.401.226.719.534.946.945.226.41.339.873.339 1.397 0 .195-.011.37-.041.523H97.53c.03.39.175.699.411.915.236.215.535.328.884.328.504 0 .864-.215 1.08-.647h1.469a2.425 2.425 0 0 1-.894 1.274c-.442.339-.987.503-1.624.503a2.85 2.85 0 0 1-1.398-.349 2.389 2.389 0 0 1-.966-.976c-.237-.421-.35-.904-.35-1.458 0-.555.113-1.048.34-1.47.226-.42.544-.749.955-.975.412-.226.874-.339 1.409-.339Zm-42.1 0c.4 0 .76.082 1.059.247.298.164.534.37.719.616v-.77h1.367v5.382h-1.367v-.791a1.954 1.954 0 0 1-.72.626 2.249 2.249 0 0 1-1.069.247 2.25 2.25 0 0 1-1.243-.35 2.498 2.498 0 0 1-.884-.985 3.147 3.147 0 0 1-.33-1.459c0-.544.114-1.027.33-1.448a2.4 2.4 0 0 1 .884-.976 2.39 2.39 0 0 1 1.254-.339Zm27.618 0c.4 0 .76.082 1.059.247.298.164.534.37.72.616v-.77h1.366v5.382h-1.367v-.791a1.956 1.956 0 0 1-.72.626 2.249 2.249 0 0 1-1.068.247 2.25 2.25 0 0 1-1.244-.35 2.497 2.497 0 0 1-.884-.985 3.147 3.147 0 0 1-.329-1.459c0-.544.113-1.027.33-1.448a2.4 2.4 0 0 1 .883-.976 2.39 2.39 0 0 1 1.254-.339Zm-12.756-.01c.668 0 1.213.174 1.655.503.442.339.73.801.884 1.407h-1.47a1.054 1.054 0 0 0-.39-.544c-.185-.134-.422-.195-.689-.195-.38 0-.689.143-.925.42-.226.288-.339.69-.339 1.203 0 .513.113.914.34 1.191.225.277.534.421.924.421.555 0 .915-.246 1.08-.74h1.47c-.145.576-.443 1.048-.885 1.387-.442.34-.997.514-1.655.514-.513 0-.976-.123-1.377-.35a2.47 2.47 0 0 1-.946-.975c-.226-.411-.339-.904-.339-1.459 0-.554.113-1.037.34-1.458.226-.421.544-.75.945-.976.4-.236.864-.35 1.377-.35Zm42.173.02c.638 0 1.151.165 1.532.483.38.319.586.75.627 1.294h-1.306a.721.721 0 0 0-.267-.513c-.164-.124-.37-.185-.637-.185-.247 0-.432.04-.565.133a.43.43 0 0 0-.196.38c0 .175.082.319.267.411.175.093.463.195.843.288.391.092.709.195.966.298.257.102.473.267.658.483.185.215.278.503.298.862 0 .308-.082.586-.257.832-.174.247-.421.432-.74.575a2.863 2.863 0 0 1-1.12.206c-.432 0-.833-.082-1.182-.236-.35-.165-.627-.37-.833-.648a1.668 1.668 0 0 1-.339-.903h1.367c.031.205.134.38.309.513.185.134.4.206.668.206.257 0 .462-.052.606-.154a.472.472 0 0 0 .216-.401c0-.175-.093-.298-.267-.39-.185-.093-.463-.185-.853-.288a6.815 6.815 0 0 1-.987-.298 1.66 1.66 0 0 1-.658-.472c-.185-.216-.277-.504-.277-.863 0-.298.082-.565.257-.811a1.77 1.77 0 0 1 .74-.586c.318-.144.699-.216 1.13-.216Zm-66.008-1.314 2.158 5.043 2.159-5.043h1.531v6.779h-1.357v-4.417l-1.819 4.417h-1.038l-1.82-4.417v4.417H46.22v-6.78h1.552Zm31.596 0c1.192 0 2.169.965 2.158 2.157a2.157 2.157 0 0 1-2.158 2.157h-1.675v2.465h-1.357v-6.78h3.032Zm-11.09 6.779H66.92v-5.383h1.357v5.383Zm22.314-5.383h1.048v1.12h-1.048v4.263h-1.367v-4.263h-1.049v-1.12h1.049v-1.335h1.367v1.335Zm4.132 0h1.048v1.12h-1.048v4.263h-1.367v-4.263h-1.049v-1.12h1.049v-1.335h1.367v1.335Zm10.453 1.356h-.36c-.432 0-.75.093-.966.298-.216.195-.329.544-.329 1.048v2.68h-1.357v-5.382h1.357v.832c.175-.287.411-.503.689-.657.277-.164.606-.247.966-.247v1.428Zm3.649-1.438c.647 0 1.161.206 1.552.606.401.4.596.966.596 1.695v3.153h-1.357v-2.968c0-.431-.102-.76-.318-.986-.216-.236-.504-.35-.874-.35-.38 0-.678.124-.894.35-.216.226-.329.555-.329.986v2.968h-1.357v-5.382h1.357v.668c.185-.226.421-.411.699-.545a2.11 2.11 0 0 1 .925-.195Zm-51.732 1.192a1.39 1.39 0 0 0-.699.185c-.216.113-.39.298-.524.534-.134.236-.195.513-.195.842 0 .329.061.606.195.853.134.236.308.42.524.554.216.134.453.195.7.195.256 0 .493-.061.709-.184.215-.124.39-.309.524-.545.133-.236.195-.524.195-.852 0-.33-.062-.617-.195-.853a1.408 1.408 0 0 0-.525-.544 1.405 1.405 0 0 0-.709-.185Zm27.619 0c-.247 0-.484.061-.7.185-.215.113-.39.298-.524.534-.133.236-.195.513-.195.842 0 .329.062.606.195.853.134.236.309.42.525.554a1.3 1.3 0 0 0 .699.195c.256 0 .493-.061.709-.184a1.41 1.41 0 0 0 .524-.545c.134-.236.195-.524.195-.852 0-.33-.061-.617-.195-.853a1.408 1.408 0 0 0-.524-.544 1.405 1.405 0 0 0-.71-.185Zm-21.338 0c-.247 0-.483.061-.7.185-.215.113-.39.298-.524.534-.133.236-.195.513-.195.842 0 .329.062.606.195.853.134.236.309.42.525.554a1.3 1.3 0 0 0 .698.195c.258 0 .494-.061.71-.184.216-.124.39-.309.524-.545a1.83 1.83 0 0 0 .195-.852c0-.33-.061-.617-.195-.853a1.408 1.408 0 0 0-.524-.544 1.405 1.405 0 0 0-.71-.185Zm35.43-.082c-.34 0-.628.102-.854.308-.226.205-.37.493-.421.852h2.559c-.01-.349-.133-.626-.38-.842-.247-.216-.545-.318-.904-.318Zm-21.102.78h1.387c.576 0 1.049-.483 1.049-1.058 0-.575-.463-1.047-1.049-1.047h-1.387v2.105Zm-10.104-3.697c.226 0 .41.072.565.215a.691.691 0 0 1 .226.534c0 .216-.072.39-.226.535a.792.792 0 0 1-.565.215.792.792 0 0 1-.566-.215.691.691 0 0 1-.226-.535c0-.215.072-.39.226-.534a.792.792 0 0 1 .566-.215Z"/>
    <path fill="#fff" d="M41.892 19.79h-.041l-1.306.205h-.03a.254.254 0 0 1-.257-.257v-.041l.976-4.704c.01-.031.01-.072.01-.103a.493.493 0 0 0-.493-.493.2.2 0 0 0-.082.01l-4.4.709c-.03 0-.05.01-.082.01a.493.493 0 0 1-.483-.585l.196-.945s.01-.072.01-.103a.493.493 0 0 0-.494-.493c-.03 0-.061 0-.082.01l-9.137 1.459c-.432.072-.782.4-.874.822L23.01 26.404s-.01.072-.01.103c0 .277.226.493.493.493.083 0 .155-.02.227-.051l5.58-2.846a.493.493 0 0 1 .71.442c0 .03 0 .062-.01.093l-.36 1.746c-.01.04-.01.082-.01.123 0 .277.226.493.493.493.082 0 .154-.02.226-.051l6.332-3.236a.21.21 0 0 1 .113-.03c.144 0 .257.112.257.256v.052l-.268 1.304c0 .02-.01.041-.01.051 0 .144.113.257.257.257.041 0 .082-.01.123-.03l3.978-2.024a.797.797 0 0 0 .422-.555l.596-2.896c0-.021.01-.041.01-.062a.269.269 0 0 0-.267-.247Z"/>
    <path fill="#A7A7A0" d="M41.892 19.79h-.041l-1.306.205h-.03a.254.254 0 0 1-.257-.257v-.041l.976-4.704c.01-.031.01-.072.01-.103a.493.493 0 0 0-.493-.493.2.2 0 0 0-.082.01l-4.4.709c-.03 0-.05.01-.082.01a.493.493 0 0 1-.483-.585l.196-.945s.01-.072.01-.103a.493.493 0 0 0-.494-.493c-.03 0-.061 0-.082.01l-9.137 1.459c-.432.072-.782.4-.874.822L23.01 26.404s-.01.072-.01.103c0 .277.226.493.493.493.083 0 .155-.02.227-.051l5.58-2.846a.493.493 0 0 1 .71.442c0 .03 0 .062-.01.093l-.36 1.746c-.01.04-.01.082-.01.123 0 .277.226.493.493.493.082 0 .154-.02.226-.051l6.332-3.236a.21.21 0 0 1 .113-.03c.144 0 .257.112.257.256v.052l-.268 1.304c0 .02-.01.041-.01.051 0 .144.113.257.257.257.041 0 .082-.01.123-.03l3.978-2.024a.797.797 0 0 0 .422-.555l.596-2.896c0-.021.01-.041.01-.062a.269.269 0 0 0-.267-.247Z"/>
  </g>
  <defs>
    <clipPath id="a">
      <path fill="#fff" d="M23 13h93v14H23z"/>
    </clipPath>
  </defs>
</svg>
