<svg xmlns="http://www.w3.org/2000/svg" width="140" height="40" fill="currentColor" viewBox="0 0 140 40">
  <path fill="#A7A7A0" d="M81.786 15.7c.58 0 1.104.11 1.628.331.524.22.993.553 1.435.939.055.055.082.11.11.137 0 .056 0 .083-.056.138l-.8.8c-.192.193-.385.304-.579.304-.193 0-.359-.083-.524-.194-.386-.303-.773-.441-1.186-.441-.359 0-.663.111-.883.36-.248.247-.359.55-.359.937 0 .303.083.607.221.91.138.303.331.58.552.828.22.248.496.441.772.607a1.6 1.6 0 0 0 .828.248c.303 0 .524-.082.717-.22.193-.138.331-.332.414-.58.138-.359.414-.552.856-.552h1.185c.11 0 .166.055.083.22a3.892 3.892 0 0 1-.303 1.27 2.675 2.675 0 0 1-.69 1.02 3.26 3.26 0 0 1-1.02.663 3.393 3.393 0 0 1-1.297.248c-.58 0-1.131-.138-1.683-.386a5.137 5.137 0 0 1-1.434-.993 5.271 5.271 0 0 1-.994-1.462 4.176 4.176 0 0 1-.358-1.738V15.92c0-.138.083-.22.193-.22h3.172Zm-16.938.056c.579 0 1.16.11 1.683.358.524.22.993.552 1.406.938.414.386.718.828.966 1.297.248.468.359.91.359 1.351 0 .276-.056.47-.194.662-.138.193-.413.304-.8.304h-2.207c-.937 0-1.406-.69-1.489-.883-.11-.193-.137-.358-.137-.606 0-.138.082-.194.22-.194h2.372a4.307 4.307 0 0 0-.993-.882 2.828 2.828 0 0 0-.745-.304 2.146 2.146 0 0 0-.441-.055c-.166 0-.304.027-.442.055-.083 0-.22.055-.33.11a1.24 1.24 0 0 0-.249.166c-.248.22-.358.524-.358.938 0 .33.054.635.165.938.138.304.276.58.497.8.11.11.469.441.717.552.303.11.58.193.91.193h2.263c.386 0 .689.11.91.386.22.22.33.497.33.883v.662c0 .082-.082.165-.164.165h-3.228c-.607 0-1.187-.11-1.71-.359-.553-.248-1.022-.552-1.408-.965a4.826 4.826 0 0 1-.938-1.407 4.053 4.053 0 0 1-.358-1.71V15.92c0-.083.083-.165.165-.165h3.228Zm8.47-.029c.523 0 1.048.111 1.572.277a5.16 5.16 0 0 1 1.462.717c.44.303.772.662 1.048 1.076.276.414.413.855.413 1.324 0 .497-.165.883-.44 1.214-.47.496-.967.717-1.104.8.11.11.441.358.855.69.793.628 1.207.742 1.214.744.055.028.11.11.22.194v.551c0 .138-.082.221-.193.221h-1.71a1.28 1.28 0 0 1-.8-.276l-2.593-2.041c-.166-.138-.276-.414-.276-.69V19.7c0-.137.055-.22.138-.22.083 0 .22.055.275.082.136.028.298.082.304.083.248.083.524.138.773.138.551 0 .965-.22 1.103-.606.11-.359-.22-1.16-1.407-1.463-.91-.22-1.71-.055-1.958.387 0 0-.028.055-.056.137-.027.083-.027.166-.027.221v3.2c0 .497-.082.938-.386 1.324-.165.221-.386.414-.662.497a2.064 2.064 0 0 1-.552.082c-.138 0-.33 0-.441-.054-.083-.028-.083-.11-.083-.194v-7.42a.18.18 0 0 1 .165-.167h3.145Zm14.648-.027c.634 0 1.158.525 1.158 1.16v2.813l1.766-1.793c.358-.331 1.628-1.628 1.628-1.628.303-.33.744-.552 1.268-.552h.304c.22 0 .387.055.497.22.028.056.11.139.138.249a1.43 1.43 0 0 1-.358 1.242l-1.932 1.958c-.525.497-.083 1.022-.083 1.022.22.22.662.524 1.048.662l.47.192c.55.248.882.773.882 1.324v.8c0 .11-.055.193-.165.194h-.331c-.438 0-.959-.245-.966-.248l-2.18-.91a2.131 2.131 0 0 0-.744-.221.768.768 0 0 0-.249-.029h-.165a1.06 1.06 0 0 0-.635.304l-.496.497c-.303.303-.745.552-1.27.552h-.413c-.083 0-.165-.084-.165-.166v-7.394c0-.082 0-.165.083-.192.082-.055.275-.056.413-.056h.497Zm-41.904-.027c.524 0 1.02.22 1.351.552.027.027 1.788 1.68 1.82 1.71.856.855 2.015 1.324 3.31 1.324 1.242 0 2.373-.442 3.201-1.214l2.428-2.29c.055-.027.11-.055.166-.055h1.214c.634 0 1.158.525 1.158 1.16v6.427c0 .11-.083.22-.22.22h-.746a1.166 1.166 0 0 1-1.158-1.158v-1.38c0-.579-.497-1.075-1.076-1.075-1.103 0-1.876.937-2.593 1.572-.883.772-1.546 1.517-2.373 1.517-.827 0-1.49-.745-2.372-1.517-.717-.635-1.49-1.572-2.593-1.572-.58 0-1.076.496-1.076 1.103v2.29c0 .11-.083.22-.22.22h-.746a1.166 1.166 0 0 1-1.158-1.158V15.92c0-.11.11-.22.22-.248h1.463Z"/>
</svg>
