<svg width="122" height="37" viewBox="0 0 122 37" fill="none" xmlns="http://www.w3.org/2000/svg">
<g clip-path="url(#clip0_773_27)">
<path d="M104.953 36.286C100.733 37.92 99.017 36.372 99.017 35.395C100.512 35.269 104.084 35.064 104.953 36.286ZM110.309 34.95C109.261 35.7202 107.974 36.093 106.676 36.0019C105.379 35.9109 104.156 35.3619 103.226 34.453C104.666 34.053 108.598 33.579 110.309 34.95ZM103.17 31.774C103.33 33.807 101.248 34.95 99 35.115C99.41 33.07 101.509 32.157 103.17 31.774ZM107.202 29.9C107.44 30.769 107.113 33.128 103.879 34.064C104.018 32.471 104.865 30.397 107.202 29.9ZM113.615 32.265C112.786 33.0923 111.693 33.6025 110.526 33.7069C109.359 33.8112 108.193 33.503 107.23 32.836C108.526 32.168 111.638 31.266 113.615 32.265ZM110.198 27.559C110.641 28.415 110.735 30.854 107.872 32.322C107.706 30.752 108.337 28.067 110.198 27.559ZM117.281 28.507C117.011 29.0373 116.637 29.5073 116.18 29.8884C115.723 30.2695 115.194 30.5538 114.624 30.724C114.059 30.8898 113.466 30.9363 112.883 30.8605C112.299 30.7848 111.738 30.5884 111.234 30.284C113.039 28.587 115.919 27.936 117.281 28.507ZM113.001 23.96C114.285 26.2 112.928 28.758 111.516 29.809C110.888 27.727 111.465 25.458 113.001 23.96ZM119.663 23.863C119.818 27.342 116.185 27.153 114.479 27.176C115.016 26.445 118.001 23.795 119.663 23.863ZM115.183 20.613C115.858 21.356 116.871 24.212 114.628 26.542C113.925 24.857 113.771 22.27 115.183 20.613ZM121.568 19.071C121.684 21.881 119.319 23.303 117.038 23.281C117.724 21.927 119.558 19.317 121.568 19.071ZM116.783 17.135C118.295 18.025 118.123 20.899 117.231 22.395C116.229 21.002 115.481 19.271 116.783 17.135ZM121.667 14.502C122.415 17.061 120.217 18.792 118.898 18.94C119.236 17.718 119.678 15.553 121.667 14.502ZM117.06 13.651C118.727 14.486 119.517 16.483 118.893 18.283C117.73 17.346 116.329 15.364 117.06 13.651ZM121.745 10.555C122.775 13.668 120.41 14.685 119.53 14.935C119.635 13.611 120.477 10.972 121.745 10.555ZM117.126 9.738C117.802 9.933 119.729 11.515 119.38 14.348C118.112 13.634 116.572 12.274 117.126 9.738ZM121.047 5.838C122.199 9.664 120.277 11.235 119.646 11.548C119.546 10.338 119.424 7.511 121.047 5.838ZM116.783 5.934C117.99 6.271 119.513 8.487 119.441 10.618C118.245 10.07 116.456 7.791 116.783 5.934ZM117.143 0C119.945 2.896 120.338 5.18 119.519 7.996C118.25 6.854 117.237 3.427 117.143 0ZM17.047 36.286C21.267 37.92 22.983 36.372 22.983 35.395C21.488 35.269 17.916 35.064 17.047 36.286ZM11.69 34.95C12.738 35.7202 14.0254 36.093 15.3228 36.0019C16.6201 35.9109 17.8429 35.3619 18.773 34.453C17.333 34.053 13.401 33.579 11.69 34.95ZM18.829 31.774C18.669 33.807 20.751 34.95 22.999 35.115C22.589 33.07 20.49 32.157 18.829 31.774ZM14.798 29.9C14.56 30.769 14.887 33.128 18.121 34.064C17.982 32.471 17.135 30.397 14.798 29.9ZM8.38501 32.265C9.21426 33.0923 10.3074 33.6025 11.4741 33.7069C12.6408 33.8112 13.8071 33.503 14.77 32.836C13.474 32.168 10.362 31.266 8.38501 32.265ZM11.802 27.559C11.359 28.415 11.265 30.854 14.128 32.322C14.294 30.752 13.663 28.067 11.802 27.559ZM4.71901 28.507C4.98853 29.0373 5.36304 29.5073 5.81979 29.8884C6.27655 30.2695 6.80601 30.5538 7.37601 30.724C7.94069 30.8898 8.53367 30.9363 9.11728 30.8605C9.70089 30.7848 10.2624 30.5884 10.766 30.284C8.96101 28.587 6.08101 27.936 4.71901 28.507ZM8.99901 23.96C7.71501 26.2 9.07201 28.758 10.484 29.809C11.112 27.727 10.536 25.458 9.00001 23.96H8.99901ZM2.33701 23.863C2.18201 27.342 5.81501 27.153 7.52101 27.176C6.98401 26.445 3.99901 23.795 2.33701 23.863ZM6.81701 20.613C6.14201 21.356 5.12901 24.212 7.37201 26.542C8.07501 24.857 8.22901 22.27 6.81701 20.613ZM0.433011 19.071C0.317011 21.881 2.68201 23.303 4.96301 23.281C4.27701 21.927 2.44301 19.317 0.433011 19.071ZM5.21801 17.135C3.70601 18.025 3.87801 20.899 4.77001 22.395C5.77201 21.002 6.52001 19.271 5.21801 17.135ZM0.333011 14.502C-0.414989 17.061 1.78301 18.792 3.10201 18.94C2.76401 17.718 2.32101 15.553 0.332011 14.502H0.333011ZM4.94001 13.651C3.27301 14.486 2.48301 16.483 3.10701 18.283C4.27001 17.346 5.67101 15.364 4.94001 13.651ZM0.255011 10.555C-0.774989 13.668 1.59001 14.685 2.47001 14.935C2.36501 13.611 1.52301 10.972 0.255011 10.555ZM4.87401 9.738C4.19801 9.933 2.27101 11.515 2.62001 14.348C3.88801 13.634 5.42801 12.274 4.87401 9.738ZM0.953011 5.838C-0.198989 9.664 1.72301 11.235 2.35401 11.548C2.45401 10.338 2.57601 7.511 0.953011 5.838ZM5.21701 5.934C4.01001 6.271 2.48701 8.487 2.55901 10.618C3.75501 10.07 5.54401 7.791 5.21701 5.934ZM4.85701 0C2.05501 2.896 1.66201 5.18 2.48101 7.996C3.75001 6.854 4.76301 3.427 4.85701 0ZM17.51 15.13C19.51 15.13 20.72 13.64 20.72 11.82V11.1C20.72 11.01 20.66 10.95 20.57 10.95H17.54C17.45 10.95 17.39 11.01 17.39 11.1V12.19C17.39 12.28 17.45 12.35 17.54 12.35H19.21C19.15 13.01 18.57 13.58 17.56 13.58C16.34 13.58 15.47 12.72 15.47 11.53C15.47 10.34 16.34 9.47 17.48 9.47C18.07 9.47 18.55 9.69 18.93 10.02C19.01 10.08 19.09 10.08 19.17 9.99L19.91 9.2C20 9.1 20 9.01 19.92 8.92C19.32 8.3 18.49 7.92 17.47 7.92C15.49 7.92 13.87 9.47 13.87 11.53C13.87 13.59 15.49 15.13 17.51 15.13ZM23.86 15.12C25.34 15.12 26.44 14 26.44 12.55C26.44 11.1 25.34 9.98 23.86 9.98C22.38 9.98 21.29 11.1 21.29 12.55C21.29 14 22.38 15.12 23.86 15.12ZM23.86 13.72C23.24 13.72 22.76 13.27 22.76 12.55C22.76 11.83 23.24 11.38 23.86 11.38C24.48 11.38 24.96 11.83 24.96 12.55C24.96 13.27 24.48 13.72 23.86 13.72ZM28.68 15C28.77 15 28.84 14.94 28.84 14.85V8C28.84 7.91 28.77 7.85 28.68 7.85H27.45C27.36 7.85 27.3 7.91 27.3 8V14.85C27.3 14.94 27.36 15 27.45 15H28.68ZM32 15.12C32.7 15.12 33.2 14.84 33.53 14.37L33.55 14.85C33.55 14.94 33.62 15 33.71 15H34.81C34.9 15 34.98 14.94 34.98 14.85V8C34.98 7.91 34.91 7.85 34.82 7.85H33.59C33.5 7.85 33.44 7.91 33.44 8V10.59C33.11 10.2 32.64 9.98 32 9.98C30.64 9.98 29.7 11.1 29.7 12.55C29.7 14.01 30.64 15.12 32 15.12ZM32.33 13.73C31.68 13.73 31.19 13.27 31.19 12.55C31.19 11.84 31.68 11.37 32.33 11.37C33 11.37 33.46 11.84 33.46 12.54C33.46 13.26 33 13.73 32.33 13.73ZM38.54 15.12C39.23 15.12 39.86 14.92 40.28 14.5C40.37 14.42 40.37 14.34 40.33 14.28L39.92 13.7C39.86 13.63 39.82 13.61 39.74 13.65C39.33 13.88 38.99 13.92 38.66 13.92C37.96 13.92 37.5 13.66 37.33 13.13H40.15C40.6 13.13 40.73 12.83 40.73 12.33C40.73 11.07 39.86 9.98 38.36 9.98C36.85 9.98 35.84 11.09 35.84 12.53C35.84 14.02 36.93 15.12 38.54 15.12ZM37.31 12.07C37.43 11.49 37.86 11.24 38.37 11.24C38.88 11.24 39.27 11.48 39.37 12.07H37.31ZM42.96 15C43.05 15 43.12 14.94 43.12 14.85V12.37C43.12 11.72 43.44 11.38 43.97 11.38C44.51 11.38 44.79 11.72 44.79 12.37V14.85C44.79 14.94 44.86 15 44.95 15H46.16C46.25 15 46.32 14.94 46.32 14.85V12.01C46.32 10.73 45.57 9.98 44.55 9.98C43.85 9.98 43.4 10.33 43.12 10.83L43.07 10.26C43.07 10.14 43.01 10.1 42.92 10.1H41.74C41.65 10.1 41.59 10.16 41.59 10.25V14.85C41.59 14.94 41.65 15 41.74 15H42.96ZM50.91 15C51 15 51.06 14.94 51.06 14.85V13.24L51.78 12.33L53.58 14.91C53.63 14.98 53.68 15 53.76 15H55.25C55.37 15 55.41 14.92 55.34 14.82L52.75 11.09L55.06 8.18C55.12 8.09 55.11 8 54.98 8H53.42C53.35 8 53.29 8.02 53.24 8.08L51.06 11.07V8.15C51.06 8.06 51 8 50.91 8H49.63C49.54 8 49.48 8.06 49.48 8.15V14.85C49.48 14.94 49.54 15 49.63 15H50.91ZM56.96 9.32C57.44 9.32 57.79 8.95 57.79 8.48C57.79 8.02 57.44 7.65 56.96 7.65C56.48 7.65 56.12 8.02 56.12 8.48C56.12 8.95 56.48 9.32 56.96 9.32ZM57.58 15C57.67 15 57.73 14.94 57.73 14.85V10.25C57.73 10.16 57.67 10.1 57.58 10.1H56.34C56.25 10.1 56.19 10.16 56.19 10.25V14.85C56.19 14.94 56.25 15 56.34 15H57.58ZM60.8 15.12C61.14 15.12 61.68 15.06 61.68 14.81V13.98C61.68 13.88 61.6 13.83 61.5 13.84C61.37 13.85 61.28 13.85 61.19 13.85C60.94 13.85 60.77 13.71 60.77 13.44V11.28H61.52C61.61 11.28 61.67 11.22 61.67 11.13V10.25C61.67 10.16 61.61 10.1 61.52 10.1H60.77V8.95C60.77 8.86 60.7 8.8 60.61 8.8H59.38C59.29 8.8 59.22 8.86 59.22 8.95V10.1H58.61C58.52 10.1 58.46 10.16 58.46 10.25V11.13C58.46 11.22 58.52 11.28 58.61 11.28H59.22V13.61C59.22 14.75 59.99 15.12 60.8 15.12ZM64.53 15.12C64.87 15.12 65.41 15.06 65.41 14.81V13.98C65.41 13.88 65.33 13.83 65.23 13.84C65.1 13.85 65.01 13.85 64.92 13.85C64.67 13.85 64.5 13.71 64.5 13.44V11.28H65.25C65.34 11.28 65.4 11.22 65.4 11.13V10.25C65.4 10.16 65.34 10.1 65.25 10.1H64.5V8.95C64.5 8.86 64.43 8.8 64.34 8.8H63.11C63.02 8.8 62.95 8.86 62.95 8.95V10.1H62.34C62.25 10.1 62.19 10.16 62.19 10.25V11.13C62.19 11.22 62.25 11.28 62.34 11.28H62.95V13.61C62.95 14.75 63.72 15.12 64.53 15.12ZM68.42 16.9C68.5 16.9 68.57 16.86 68.6 16.78L71.2 10.27C71.24 10.16 71.18 10.1 71.07 10.1H69.83C69.75 10.1 69.67 10.14 69.64 10.22L68.56 13.22L67.48 10.22C67.45 10.14 67.37 10.1 67.29 10.1H66.05C65.94 10.1 65.88 10.16 65.92 10.27L67.82 15.01L67.1 16.72C67.05 16.84 67.11 16.9 67.23 16.9H68.42ZM77.77 8.12C77.74 8.04 77.66 8 77.58 8H76.22C76.14 8 76.06 8.04 76.03 8.12L73.71 14.83C73.67 14.93 73.73 15 73.84 15H75.17C75.25 15 75.31 14.97 75.34 14.88L75.64 13.94H78.16L78.46 14.88C78.49 14.97 78.55 15 78.63 15H79.97C80.08 15 80.13 14.93 80.09 14.83L77.77 8.12ZM76.9 10.01L77.71 12.54H76.09L76.9 10.01ZM82.71 15C82.79 15 82.86 14.96 82.89 14.88L83.92 11.88L84.94 14.88C84.97 14.96 85.04 15 85.12 15H86.37C86.45 15 86.52 14.96 86.55 14.88L88.07 10.27C88.11 10.16 88.06 10.1 87.95 10.1H86.76C86.68 10.1 86.61 10.14 86.58 10.22L85.67 13.22L84.68 10.22C84.6667 10.1835 84.642 10.1521 84.6096 10.1306C84.5773 10.109 84.5389 10.0983 84.5 10.1H83.33C83.25 10.1 83.18 10.14 83.15 10.22L82.16 13.22L81.25 10.22C81.2367 10.1835 81.212 10.1521 81.1796 10.1306C81.1473 10.109 81.1089 10.0983 81.07 10.1H79.89C79.78 10.1 79.72 10.16 79.76 10.27L81.28 14.88C81.31 14.96 81.38 15 81.46 15H82.71ZM90.59 15.12C91.29 15.12 91.79 14.84 92.12 14.37L92.14 14.85C92.14 14.94 92.21 15 92.3 15H93.4C93.49 15 93.57 14.94 93.57 14.85V10.25C93.57 10.16 93.5 10.1 93.41 10.1H92.3C92.21 10.1 92.14 10.16 92.14 10.25L92.12 10.72C91.8 10.26 91.31 9.98 90.59 9.98C89.23 9.98 88.29 11.1 88.29 12.55C88.29 14.01 89.23 15.12 90.59 15.12ZM90.92 13.73C90.27 13.73 89.78 13.27 89.78 12.55C89.78 11.84 90.27 11.37 90.92 11.37C91.59 11.37 92.05 11.84 92.05 12.54C92.05 13.26 91.59 13.73 90.92 13.73ZM96.05 15C96.14 15 96.21 14.94 96.21 14.85V12.49C96.21 11.76 96.59 11.36 97.22 11.36C97.37 11.36 97.48 11.38 97.58 11.41C97.72 11.44 97.79 11.41 97.79 11.28V10.31C97.79 10.22 97.77 10.16 97.7 10.11C97.62 10.05 97.49 9.98 97.25 9.98C96.68 9.98 96.37 10.38 96.21 10.91L96.16 10.26C96.16 10.14 96.1 10.1 96.01 10.1H94.83C94.74 10.1 94.68 10.16 94.68 10.25V14.85C94.68 14.94 94.74 15 94.83 15H96.05ZM100.55 15.12C101.25 15.12 101.75 14.84 102.08 14.37L102.1 14.85C102.1 14.94 102.17 15 102.26 15H103.36C103.45 15 103.53 14.94 103.53 14.85V8C103.53 7.91 103.46 7.85 103.37 7.85H102.14C102.05 7.85 101.99 7.91 101.99 8V10.59C101.66 10.2 101.19 9.98 100.55 9.98C99.19 9.98 98.25 11.1 98.25 12.55C98.25 14.01 99.19 15.12 100.55 15.12ZM100.88 13.73C100.23 13.73 99.74 13.27 99.74 12.55C99.74 11.84 100.23 11.37 100.88 11.37C101.55 11.37 102.01 11.84 102.01 12.54C102.01 13.26 101.55 13.73 100.88 13.73ZM106.36 15.12C107.35 15.12 108.22 14.6 108.23 13.59C108.25 12.85 107.76 12.42 107.15 12.18L106.41 11.89C106.19 11.8 106.02 11.67 106.02 11.49C106.02 11.34 106.11 11.17 106.41 11.17C106.68 11.17 106.95 11.31 107.27 11.56C107.36 11.62 107.43 11.63 107.5 11.56L108.01 10.96C108.05 10.9 108.08 10.82 108.02 10.75C107.59 10.25 106.98 9.98 106.33 9.98C105.39 9.98 104.57 10.53 104.57 11.49C104.57 12.17 104.99 12.59 105.63 12.84L106.27 13.1C106.6 13.23 106.71 13.34 106.71 13.53C106.71 13.75 106.53 13.85 106.26 13.85C105.91 13.85 105.58 13.7 105.15 13.39C105.07 13.34 104.98 13.31 104.9 13.44L104.5 14C104.43 14.1 104.42 14.22 104.47 14.29C104.88 14.78 105.53 15.12 106.36 15.12Z" fill="#4B587C"/>
<path d="M31.416 31L32.228 28.634H30.898L30.1 31H28.784L29.582 28.634H28.238L28.602 27.5H29.974L30.73 25.176H29.358L29.708 24.056H31.122L31.906 21.662H33.222L32.438 24.056H33.754L34.538 21.662H35.868L35.056 24.056H36.414L36.078 25.176H34.678L33.908 27.5H35.322L34.972 28.634H33.53L32.746 31H31.416ZM33.362 25.176H32.046L31.29 27.5H32.592L33.362 25.176ZM39.4823 31V24.224L37.9423 25.806L36.8083 24.616L39.7483 21.662H41.4843V31H39.4823ZM53.4542 31L52.8662 29.39H48.6942L48.1062 31H45.9222L49.5342 21.662H52.0262L55.6242 31H53.4542ZM50.7802 23.384L49.2262 27.668H52.3202L50.7802 23.384ZM56.4865 31V21.662H58.4745V31H56.4865ZM63.9103 31V21.662H65.8983V31H63.9103ZM72.2741 31V26.912C72.2741 25.974 71.7841 25.652 71.0281 25.652C70.3281 25.652 69.7821 26.044 69.4881 26.45V31H67.7101V24.238H69.4881V25.12C69.9221 24.602 70.7481 24.07 71.8541 24.07C73.3381 24.07 74.0521 24.91 74.0521 26.226V31H72.2741ZM76.2095 31V25.792H75.0895V24.238H76.2095V23.874C76.2095 22.404 77.1615 21.522 78.4915 21.522C78.9955 21.522 79.4575 21.634 79.7795 21.802L79.4155 23.062C79.2615 22.964 79.0515 22.922 78.8415 22.922C78.3375 22.922 78.0015 23.258 78.0015 23.902V24.238H79.3735V25.792H78.0015V31H76.2095ZM80.3976 31V24.238H82.1756V25.162C82.6516 24.56 83.4916 24.084 84.3316 24.084V25.82C84.2056 25.792 84.0376 25.778 83.8416 25.778C83.2536 25.778 82.4696 26.1 82.1756 26.534V31H80.3976ZM89.5025 31V30.3C89.0405 30.846 88.2425 31.168 87.3605 31.168C86.2825 31.168 85.0085 30.44 85.0085 28.928C85.0085 27.346 86.2825 26.772 87.3605 26.772C88.2565 26.772 89.0545 27.052 89.5025 27.598V26.66C89.5025 25.974 88.9145 25.526 88.0185 25.526C87.2905 25.526 86.6185 25.792 86.0445 26.324L85.3725 25.134C86.1985 24.406 87.2625 24.07 88.3265 24.07C89.8665 24.07 91.2805 24.686 91.2805 26.632V31H89.5025ZM89.5025 29.376V28.536C89.2085 28.144 88.6485 27.948 88.0745 27.948C87.3745 27.948 86.8005 28.326 86.8005 28.97C86.8005 29.6 87.3745 29.964 88.0745 29.964C88.6485 29.964 89.2085 29.768 89.5025 29.376Z" fill="#4B587C"/>
</g>
<defs>
<clipPath id="clip0_773_27">
<rect width="122" height="37" fill="white"/>
</clipPath>
</defs>
</svg>
