<svg width="696" height="128" viewBox="0 0 696 128" fill="none" xmlns="http://www.w3.org/2000/svg">
<path d="M166.009 103.3V29.1H201.809C206.709 29.1 211.009 30.1 214.609 32C218.309 33.9 221.209 36.6 223.209 40C225.309 43.4 226.309 47.3 226.309 51.9C226.309 56.3 225.309 60.2 223.209 63.6C221.109 67 218.209 69.6 214.509 71.5C210.809 73.4 206.509 74.4 201.709 74.4H179.209V103.3H166.009ZM179.309 63.2H200.409C204.209 63.2 207.309 62.2 209.609 60.1C211.909 58 213.109 55.3 213.109 51.9C213.109 48.4 211.909 45.7 209.609 43.7C207.309 41.7 204.209 40.7 200.409 40.7H179.309V63.2Z" fill="#020D23"/>
<path d="M243.909 103.3V29.1H257.209V103.3H243.909Z" fill="#020D23"/>
<path d="M316.609 104.5C311.109 104.5 306.009 103.5 301.309 101.6C296.609 99.7 292.509 96.9 288.909 93.4C285.309 89.9 282.509 85.8 280.509 81.2C278.509 76.6 277.509 71.6 277.509 66.2C277.509 60.8 278.509 55.8 280.509 51.2C282.509 46.6 285.209 42.5 288.809 39C292.309 35.5 296.509 32.8 301.209 30.8C305.909 28.9 311.009 27.9 316.509 27.9C322.509 27.9 328.209 29.1 333.509 31.4C338.809 33.7 343.309 37 346.909 41.3L337.709 49.9C335.109 46.8 331.909 44.4 328.309 42.7C324.609 41 320.709 40.2 316.509 40.2C312.909 40.2 309.609 40.9 306.509 42.2C303.409 43.5 300.709 45.3 298.409 47.7C296.109 50 294.309 52.8 293.009 56C291.709 59.2 291.109 62.6 291.109 66.4C291.109 70.1 291.709 73.5 293.009 76.7C294.309 79.9 296.109 82.7 298.509 85.1C300.909 87.5 303.609 89.3 306.709 90.6C309.809 91.9 313.209 92.6 316.909 92.6C320.809 92.6 324.309 91.8 327.609 90.3C330.809 88.7 333.509 86.6 335.609 83.8C337.709 81 339.009 77.8 339.609 74.2H316.409V62.5H353.709V66.7C353.709 72.1 352.809 77.1 350.909 81.6C349.009 86.2 346.409 90.2 343.209 93.6C339.909 97 336.009 99.6 331.509 101.5C326.709 103.5 321.809 104.5 316.609 104.5Z" fill="#020D23"/>
<path d="M372.909 103.3V29.1H390.309L412.009 72.8L433.809 29.1H451.109V103.3H438.709V45.7L411.809 98L385.209 45.5V103.3H372.909Z" fill="#020D23"/>
<path d="M474.709 103.3V29.1H530.609V40.7H488.009V60.3H516.009V71.5H488.009V91.7H531.109V103.3H474.709Z" fill="#020D23"/>
<path d="M549.709 103.3V29.1H562.409L601.509 80.6V29.1H614.009V103.3H602.309L562.109 50.1V103.3H549.709Z" fill="#020D23"/>
<path d="M657.109 103.3V40.9H631.509V29.1H695.809V40.9H670.209V103.3H657.109Z" fill="#020D23"/>
<path d="M69.7089 102.8C48.0089 103 40.0089 73.7 58.7089 62.8C67.1089 58 95.5089 41.5 104.309 36.5C112.509 59.7 102.309 87.3 81.0089 99.6C77.8089 101.6 73.6089 102.8 69.7089 102.8Z" fill="#F34F77"/>
<path d="M69.6092 47.3C66.1092 47.3 62.6092 46.4 59.5092 44.8L58.7092 44.3L13.4092 18.2C21.8092 8.6 33.3092 2.4 45.8092 0.6C48.4092 0.2 51.0092 0 53.6092 0C62.7092 0 71.7092 2.3 79.5092 6.7C79.7092 6.8 81.3092 7.8 81.6092 7.9C90.9092 14.2 93.8092 26.7 88.2092 36.5C84.4092 43.2 77.3092 47.3 69.6092 47.3Z" fill="#FFC368"/>
<path d="M43.109 128C14.509 114.4 -3.29101 82.1 0.508993 50.6C0.808993 47.5 1.70899 44.8 3.20899 42.4C10.009 30.4 28.009 28.5 37.109 38.9C40.909 43 43.109 48.4 43.109 54.1V128Z" fill="#0355F3"/>
</svg>
