<svg width="100" height="27" viewBox="0 0 100 27" fill="none" xmlns="http://www.w3.org/2000/svg">
<g clip-path="url(#clip0)">
<path d="M7.69135 17.7311C7.48758 17.6663 7.55397 17.4282 7.76215 17.1151C7.52321 17.349 7.38208 17.396 7.29144 17.2843C7.25112 17.2144 7.1678 17.1866 7.17982 17.0746C7.08007 16.9536 6.95187 16.8513 6.91402 16.6788C6.8516 16.5576 6.8033 16.4318 6.74566 16.306C6.69279 16.1755 6.63515 16.0497 6.56318 15.9379C6.52719 15.882 6.4912 15.8261 6.54056 15.7141C6.49934 15.6815 6.42968 15.6677 6.40758 15.6164C6.32807 15.43 6.25788 15.2436 6.19748 15.0385L6.16239 14.9453C6.20107 14.8892 6.18308 14.8613 6.11774 14.8614L6.1002 14.8148C6.12432 14.7821 6.11521 14.7728 6.0731 14.7776C5.9941 14.7638 5.97655 14.7172 6.01112 14.6378C5.93347 14.568 5.89838 14.4748 5.88696 14.3675C5.75286 14.3165 5.73689 14.2046 5.69746 14.0974L5.49102 13.5615C5.42562 13.3704 5.37911 13.1699 5.35604 12.9647C5.33275 12.7688 5.28646 12.559 5.2634 12.3538C5.22689 12.1253 5.25184 11.864 5.29978 11.6166C5.34295 11.3739 5.44256 11.1124 5.56517 10.8648C5.54785 10.8089 5.57242 10.7575 5.65277 10.7153L5.64657 10.5847C5.58455 9.67053 5.71398 8.75117 6.02417 7.88267L6.30435 7.09822C6.56474 6.36047 6.95467 5.66905 7.45459 5.06131L8.3295 3.99543C8.32084 3.96746 8.32106 3.95813 8.34861 3.97672L8.41597 3.89258C8.82463 3.39237 9.29707 2.95731 9.82394 2.58743L10.4646 2.14261C10.7825 1.92254 11.1182 1.73974 11.4628 1.57559C11.4466 1.47299 11.4482 1.40768 11.4758 1.42627C11.4481 1.21641 11.5206 1.30953 11.5711 1.34205C11.5684 1.26275 11.5868 1.27204 11.6228 1.32793C11.661 1.29051 11.7125 1.28571 11.7676 1.32289C11.7878 1.25753 11.8639 1.39262 11.8452 1.2014C11.841 1.17809 11.8547 1.19205 11.8638 1.20136C11.9094 1.24789 11.9597 1.28974 12.01 1.33159L12.01 1.3316L12.4627 1.13452C12.4591 1.09254 12.4595 1.07388 12.4732 1.08784C12.5169 1.01775 12.5471 0.924372 12.6118 0.952198C12.6077 0.928882 12.6079 0.919551 12.617 0.928859C12.6177 0.900866 12.6145 0.840228 12.6238 0.840205C12.6752 0.835408 12.731 0.844597 12.7822 0.849131L12.8478 0.839634C12.8366 0.723034 12.855 0.732316 12.8692 0.727615C12.8833 0.722915 12.9017 0.732197 12.9249 0.736804L12.939 0.732103L12.9529 0.736732C13.0182 0.545296 13.122 0.49838 13.229 0.512103L13.2848 0.521293L13.3592 0.530432C13.3701 0.465093 13.3972 0.502345 13.4198 0.534944L13.6991 0.56222L13.713 0.566852L13.751 0.538763L13.7519 0.501441C13.8159 0.557258 13.8725 0.529122 13.9365 0.58494C14.547 0.424771 15.1742 0.348529 15.799 0.365596C15.8047 0.323595 15.8099 0.300257 15.8191 0.309565L15.8518 0.304815C15.8996 0.258042 15.9493 0.327893 15.9984 0.225135C16.0455 0.206355 16.0999 0.0802576 16.1443 0.173446L16.163 0.1734C16.1875 0.122021 16.2055 0.149965 16.2235 0.177909C16.2435 0.121878 16.2715 0.121806 16.2886 0.187074L16.5111 0.251819C16.5923 0.172305 16.6554 0.265443 16.7346 0.269906C16.8464 0.278952 16.9468 0.371999 17.0482 0.427722C17.0636 0.367036 17.078 0.353005 17.0873 0.352982C17.1943 0.366704 17.2956 0.422426 17.4078 0.41281C17.4873 0.407942 17.5676 0.365751 17.6364 0.416891L17.6819 0.463426L17.7147 0.458677L17.7195 0.454C17.7402 0.369975 17.7445 0.38396 17.7429 0.449275C17.7529 0.421259 17.7577 0.416583 17.7614 0.458559C17.8014 0.346494 17.8142 0.397778 17.826 0.486385C17.8808 0.341627 17.9118 0.411524 17.9439 0.434767L17.9952 0.439303C18.0397 0.331892 18.0671 0.359812 18.0996 0.364394C18.1738 0.382864 18.2437 0.387352 18.3241 0.345162C18.3666 0.321728 18.404 0.321632 18.4304 0.386876C18.43 0.405538 18.4249 0.419545 18.4245 0.438207L18.4245 0.438191C18.4343 0.419511 18.4441 0.400831 18.4493 0.377498C18.4891 0.274765 18.5069 0.312039 18.5301 0.316645C18.6553 0.348982 18.7796 0.418641 18.9101 0.427639C19.0405 0.436636 19.1655 0.478304 19.3059 0.459285C19.4088 0.449692 19.5006 0.51477 19.588 0.565863C19.6755 0.616956 19.7329 0.752096 19.8406 0.737826C19.8827 0.733053 19.8895 0.835669 19.9116 0.886929C19.911 0.914915 19.9007 0.952253 19.8905 0.989592L19.8905 0.989615C19.8803 1.02696 19.8655 1.05965 19.8553 1.097L19.8598 1.10166C19.86 1.09232 19.8603 1.083 19.8653 1.06899C19.9838 0.798109 19.949 1.0781 20.0314 0.951936C20.0505 0.933227 20.0742 0.91917 20.0683 0.9705C20.0747 1.09178 20.1459 1.04028 20.1774 1.09152C20.1908 1.11481 20.229 1.07739 20.1838 1.21279C20.2134 1.14741 20.2373 1.12402 20.2662 1.08662L20.7584 1.37927L20.8782 1.44428C20.9431 1.46277 21.0275 1.44389 21.0624 1.54644L21.0808 1.55572C21.1386 1.48093 21.1566 1.50888 21.1698 1.5415C21.2097 1.63003 21.2746 1.64853 21.349 1.65767C21.4328 1.66679 21.4918 1.73661 21.5756 1.74573C21.6546 1.75952 21.7188 1.80601 21.778 1.86651C21.773 1.88051 21.7678 1.90385 21.7532 1.92722C21.7432 1.95523 21.7336 1.96459 21.7336 1.96459C21.748 1.95055 21.7671 1.93184 21.7867 1.89447C21.8536 1.82899 21.8563 1.90829 21.8937 1.9082C22.0068 1.86126 21.9695 2.05262 21.8594 2.3608L21.864 2.36545C21.9959 2.11786 22.0776 2.01969 22.1138 2.06625C22.1364 2.09884 22.1883 2.07539 22.1815 2.16404C22.2459 2.2012 22.3204 2.21034 22.3459 2.31291C22.4181 2.41535 22.4707 2.55517 22.5671 2.6249C22.5946 2.64349 22.6174 2.66676 22.5871 2.76014C22.6199 2.75539 22.6579 2.7273 22.6761 2.74592C22.7351 2.81574 22.78 2.89027 22.8294 2.96945L22.8568 2.99737C22.8367 3.05341 22.8506 3.05804 22.8936 3.01594L22.9073 3.0299C22.8877 3.06727 22.8971 3.06725 22.9257 3.03918C22.9781 2.99706 22.987 3.0157 22.9715 3.07639C23.0232 3.06226 23.0505 3.09018 23.0681 3.13679C23.1582 3.07591 23.1803 3.12717 23.2124 3.15041C23.3319 3.22475 23.4801 3.27102 23.561 3.40144C23.6016 3.46198 23.6662 3.48981 23.7163 3.541C23.8031 3.62008 23.842 3.74594 23.8473 3.91387C24.1163 4.1791 24.3661 4.46303 24.5921 4.77035L24.9398 5.24997C25.3869 5.86929 25.7202 6.56354 25.9217 7.30477L26.3564 8.82915C26.5235 9.44918 26.6059 10.0974 26.5904 10.7412L26.5709 11.553C26.5625 12.0989 26.4841 12.6402 26.3361 13.1677L26.1419 13.868C26.0756 14.1061 26.2096 14.425 26.1154 14.6539C26.1967 14.7656 26.0062 14.8574 25.9773 15.086C25.996 15.086 25.9953 15.114 25.9517 15.184C25.9799 15.1746 25.9744 15.2073 25.9642 15.2447C26.015 15.2679 25.9415 15.4127 25.7536 15.6604C25.691 15.7399 25.6518 15.8146 25.5704 15.9034C25.5069 16.0202 25.415 16.1558 25.3135 16.3006C25.3085 16.3146 25.2844 16.3474 25.2459 16.3941L25.2364 16.4035C25.1486 16.5623 24.9658 16.7867 24.7927 17.0017L24.7879 17.0064C24.7779 17.0344 24.7347 17.0858 24.6869 17.1326C24.6104 17.2075 24.5526 17.2822 24.4903 17.3524C24.4659 17.3944 24.3892 17.4786 24.3412 17.5347C24.3267 17.5581 24.3121 17.5814 24.293 17.6001C24.1346 17.7825 24.1292 17.8151 24.1474 17.8338C24.1615 17.8291 24.1945 17.815 24.1513 17.8664C24.108 17.9178 24.0602 17.9646 24.0366 17.9787L24.0084 17.9881L23.9323 18.0442C23.9219 18.0909 23.9219 18.0909 23.8361 18.1658L23.6697 18.2922C23.4829 18.4932 23.3256 18.6289 23.1968 18.7459C23.0537 18.8769 22.901 19.0172 22.7483 19.1575L22.7483 19.1576C22.7194 19.1949 22.686 19.2277 22.6479 19.2558C22.6004 19.2932 22.5574 19.3353 22.5191 19.3727L22.5096 19.3821C22.4709 19.4382 22.4231 19.4849 22.3664 19.5131C22.3141 19.5552 22.2663 19.602 22.214 19.6441C22.0899 19.7564 21.9661 19.8593 21.8421 19.9716C21.6603 20.1587 21.4737 20.3504 21.3592 20.4533C21.3114 20.5001 21.2782 20.5235 21.2206 20.589C21.0434 20.7807 20.9206 20.7724 20.9695 20.679C20.9158 20.7297 20.865 20.7735 20.8524 20.7672C20.8524 20.7672 20.7522 20.8561 20.7768 20.8047C20.4088 20.8438 19.6606 20.9224 19.612 20.9243C19.5918 20.9897 19.5631 21.0177 19.5255 21.0271C19.3514 21.0882 19.1729 21.1353 18.999 21.1871C18.8254 21.2295 18.6515 21.2813 18.4776 21.3331C18.2379 21.4036 18.0021 21.5069 17.7594 21.5075C17.7034 21.5076 17.6522 21.5031 17.6055 21.5032C17.568 21.5126 17.5352 21.5174 17.4976 21.5268L17.4928 21.5315C17.4676 21.6109 17.4446 21.5969 17.4225 21.5457C17.4032 21.5737 17.3797 21.5784 17.3665 21.5458C17.2891 21.658 17.2199 21.6255 17.1609 21.5557L17.1516 21.5557C17.0269 21.696 16.916 21.6496 16.7995 21.6452L16.6406 21.655C16.54 21.7625 16.4423 21.7488 16.349 21.749C16.1295 21.7542 15.9149 21.7548 15.6898 21.802C15.5725 21.8256 15.4605 21.8259 15.3592 21.7702C15.3549 21.7562 15.3553 21.7375 15.3603 21.7235L15.3125 21.7703C15.2263 21.8638 15.1616 21.836 15.0965 21.8268C14.7243 21.7811 14.3623 21.6981 13.9903 21.6431C13.6229 21.5927 13.2985 21.5002 12.9451 21.4451C12.6756 21.3992 12.4452 21.2785 12.2239 21.1671C12.0071 21.0603 11.8438 20.8648 11.6025 20.8094C11.5144 20.7863 11.4797 20.6745 11.4255 20.6C11.4262 20.572 11.4362 20.5439 11.4558 20.5066C11.4608 20.4926 11.4656 20.4879 11.4751 20.4785L11.4567 20.4693C11.2808 20.605 11.305 20.3717 11.1539 20.4467C11.1116 20.4608 11.0742 20.4609 11.0756 20.4049C11.0509 20.265 10.9062 20.2701 10.8335 20.1863C10.8155 20.1583 10.7502 20.1585 10.8084 20.065L10.7993 20.0557C10.752 20.0838 10.7096 20.0979 10.6625 20.1167C10.3137 19.875 9.98373 19.624 9.67723 19.3682L9.45749 19.1914C9.3334 19.1125 9.18996 19.0615 9.12343 18.9171L9.08655 18.8985C8.98754 18.9407 8.96066 18.8941 8.93378 18.8476C8.86703 18.7124 8.75227 18.6334 8.62795 18.5638C8.48974 18.4895 8.38589 18.3451 8.23879 18.2522C8.09626 18.1639 7.9874 18.0336 7.88787 17.9032C7.8931 17.8799 7.90743 17.8658 7.92655 17.8471C7.94566 17.8284 7.95977 17.8237 7.95977 17.8237C7.93655 17.8191 7.90355 17.8332 7.87032 17.8566C7.75332 17.8709 7.75101 17.7729 7.69135 17.7311Z" fill="#4AE6B6"/>
<path d="M14.8189 14.4584L14.4841 13.8432C14.2012 13.3257 13.8297 12.8624 13.3809 12.4756L12.9308 12.084C12.2941 11.5345 11.5221 11.1532 10.6926 10.9799L9.74817 10.7817C9.42653 10.7157 9.10288 10.6807 8.77241 10.678C8.30202 10.6722 7.65551 10.6629 7.60945 10.6448C7.57554 10.6336 7.27899 10.6421 6.94145 10.6514C6.31824 10.6713 5.70495 10.8052 5.13044 11.0454L4.73707 11.2116C4.31965 11.3843 3.93314 11.6146 3.575 11.8932L3.05447 12.2963C2.88021 12.4343 2.71329 12.5804 2.55497 12.7395L2.17411 13.1255C1.88606 13.4157 1.63827 13.7407 1.43426 14.0945L1.12635 14.6182C1.12281 14.6242 1.11927 14.6302 1.117 14.641C1.02873 14.7154 0.951343 14.7919 0.881298 14.8766C0.760173 15.0206 0.653732 15.1809 0.594357 15.3439C0.539526 15.4854 0.488497 15.641 0.432398 15.7778C0.372759 15.9205 0.330077 16.0689 0.30789 16.2168L0.247139 16.6438C0.233775 16.7285 0.203453 16.8077 0.27207 16.8907C0.240481 16.9651 0.229388 17.039 0.254479 17.1135C0.203134 17.1526 0.202394 17.1883 0.243913 17.2278C0.273018 17.2403 0.275554 17.2498 0.24798 17.2622L0.242433 17.2992C0.254583 17.3061 0.257118 17.3156 0.264461 17.3238C0.262189 17.3345 0.259918 17.3453 0.257646 17.356C0.254107 17.362 0.250568 17.368 0.240954 17.3706L0.22986 17.4446C0.19452 17.6011 0.172333 17.749 0.156221 17.9004C0.156485 17.9206 0.161556 17.9396 0.171434 17.9572C0.170694 17.9929 0.169954 18.0286 0.169214 18.0643C0.143172 18.1017 0.137626 18.1387 0.141693 18.1731C0.147819 18.2728 0.139525 18.3765 0.126424 18.4814C0.11813 18.5851 0.108568 18.684 0.100274 18.7876C0.0621349 18.9145 0.108249 19.0289 0.129061 19.145C0.0805154 19.2138 0.12457 19.2628 0.125362 19.3235C0.126153 19.3841 0.174751 19.4117 0.262807 19.4134C0.266875 19.4478 0.269674 19.4775 0.278548 19.5106C0.177127 19.5936 0.138459 19.68 0.210616 19.757C0.234175 19.8065 0.20005 19.8714 0.281292 19.9054C0.311402 19.9024 0.337972 19.9054 0.351389 19.9171C0.351389 19.9171 0.340507 19.9149 0.321279 19.92C0.302052 19.9252 0.287631 19.9291 0.275746 19.9424C0.293018 20.0645 0.316365 20.1901 0.3769 20.3007C0.438702 20.416 0.453703 20.5489 0.51651 20.6487C0.571974 20.7403 0.613017 20.8358 0.612065 20.9476C0.612593 20.988 0.613121 21.0284 0.692831 21.0375L0.705245 21.0646C0.695947 21.1837 0.770639 21.2702 0.822563 21.3679L0.901111 21.5649C1.00728 21.8457 1.13041 22.1322 1.26923 22.4196C1.31149 22.4234 1.3454 22.4346 1.39601 22.4312C1.30494 22.4759 1.35227 22.4987 1.35988 22.5271C1.37662 22.6088 1.47255 22.6592 1.43768 22.7598C1.41645 22.7959 1.44075 22.8097 1.47339 22.8162C1.60371 22.8218 1.47804 22.9873 1.69689 22.9388C1.70523 22.9315 1.71004 22.9302 1.71358 22.9242L1.71611 22.9337C1.69335 22.9448 1.6645 22.9526 1.6382 22.9698C1.61189 22.987 1.5952 23.0016 1.58458 23.0196C1.59272 23.0884 1.57454 23.1744 1.62341 23.2222C1.76011 23.3478 1.79513 23.5362 1.89238 23.6876C1.99697 23.8472 2.10283 24.0116 2.26003 24.1368C2.46963 24.3038 2.64204 24.4857 2.86253 24.6549C3.07947 24.83 3.28453 25.0184 3.50982 25.1863C3.54881 25.2164 3.58071 25.2586 3.67078 25.2294C3.69 25.2242 3.70442 25.2203 3.71884 25.2165C3.72365 25.2152 3.72138 25.2259 3.7143 25.238C3.75508 25.3133 3.82798 25.3546 3.91276 25.3826C4.07625 25.4351 4.21116 25.5156 4.35568 25.5935C4.41643 25.6279 4.4701 25.6744 4.57458 25.6413L4.68139 25.6938C4.75555 25.7399 4.81075 25.8113 4.94281 25.7658L4.94889 25.7692C4.96183 25.8367 4.995 25.8836 5.08607 25.839C5.08279 25.8652 5.09975 25.8708 5.12252 25.8596C5.11824 25.9013 5.12812 25.919 5.17339 25.8764L5.17819 25.8751C5.20603 25.8829 5.22906 25.8919 5.2569 25.8997C5.28854 25.9216 5.32018 25.9436 5.35536 25.9595C5.5085 26.0503 5.6993 26.0702 5.88074 26.1128C6.01259 26.1434 6.14444 26.174 6.26794 26.2119C6.39979 26.2425 6.5329 26.2778 6.66348 26.3037C6.69132 26.3114 6.72016 26.3037 6.75708 26.2685C7.02331 26.3391 7.29815 26.4227 7.58889 26.431C7.79158 26.4375 7.99479 26.4845 8.20629 26.4278C8.42694 26.4245 8.67162 26.4147 8.96891 26.3705C9.05723 26.3925 9.14983 26.3728 9.23355 26.3199C9.32515 26.3156 9.42028 26.3054 9.50274 26.2478L9.588 26.2199C9.83495 26.1993 10.0353 26.024 10.2627 25.892C10.2662 25.886 10.2758 25.8834 10.2794 25.8774C10.3262 25.8598 10.3755 25.8517 10.4175 25.8353L11.4661 25.4225C12.012 25.2103 12.5169 24.9026 12.9544 24.5166L13.4218 24.1074C13.9393 23.6544 14.3578 23.1011 14.6499 22.4802L15.3634 20.9706C15.6321 20.3966 15.7904 19.7761 15.828 19.1473C15.8526 18.7199 15.8192 18.2876 15.733 17.8696L15.2946 15.7913C15.2101 15.3221 15.0438 14.8748 14.8189 14.4584Z" fill="#3943D6"/>
<g style="mix-blend-mode:multiply">
<path fill-rule="evenodd" clip-rule="evenodd" d="M7.76194 17.1154C7.55376 17.4285 7.48737 17.6666 7.69114 17.7314C7.71103 17.7453 7.72454 17.7655 7.73805 17.7857C7.76508 17.8261 7.79211 17.8664 7.87011 17.8569C7.90334 17.8335 7.93635 17.8194 7.95957 17.824C7.95957 17.824 7.94546 17.8287 7.92634 17.8474L7.92634 17.8474C7.90722 17.8661 7.89289 17.8802 7.88766 17.9035C7.98719 18.0339 8.09605 18.1642 8.23858 18.2525C8.30817 18.2965 8.36808 18.3519 8.42653 18.406C8.49163 18.4663 8.55492 18.5249 8.62774 18.5641C8.75206 18.6337 8.86682 18.7127 8.93357 18.8479C8.96045 18.8944 8.98733 18.941 9.08634 18.8988L9.12323 18.9173C9.17501 19.0298 9.27342 19.0856 9.37302 19.1421C9.40136 19.1581 9.42979 19.1742 9.45728 19.1917L9.67702 19.3685C9.98352 19.6243 10.3135 19.8753 10.6623 20.117C10.6713 20.1135 10.68 20.1101 10.6887 20.1067C10.7257 20.0924 10.7607 20.0788 10.7991 20.056L10.8082 20.0653C10.7647 20.1351 10.7901 20.1527 10.8133 20.1687C10.8211 20.1742 10.8287 20.1795 10.8333 20.1866C10.8608 20.2183 10.8986 20.2373 10.9364 20.2562C10.9983 20.2873 11.0601 20.3183 11.0754 20.4052C11.074 20.4612 11.1113 20.4611 11.1537 20.447C11.2231 20.4125 11.2555 20.4431 11.2873 20.4731C11.3247 20.5084 11.3613 20.5429 11.4565 20.4695L11.4749 20.4788C11.4653 20.4882 11.4606 20.4929 11.4556 20.5069C11.436 20.5442 11.426 20.5723 11.4253 20.6002C11.4406 20.6213 11.4543 20.6452 11.4681 20.6694C11.5033 20.7308 11.539 20.7931 11.6023 20.8097C11.7487 20.8433 11.8664 20.9285 11.9847 21.0141C12.0614 21.0697 12.1384 21.1254 12.2236 21.1674C12.2342 21.1726 12.2447 21.1779 12.2552 21.1833C12.4669 21.29 12.6882 21.4016 12.9449 21.4454C13.1072 21.4707 13.2635 21.5039 13.4205 21.5373C13.6054 21.5766 13.7915 21.6161 13.9901 21.6434C14.1509 21.6671 14.3098 21.6961 14.4684 21.7251C14.6341 21.7554 14.7996 21.7856 14.9666 21.8098L15.3632 20.9708C15.6318 20.3968 15.7902 19.7763 15.8278 19.1475C15.8523 18.7201 15.819 18.2878 15.7327 17.8698L15.2943 15.7915C15.2098 15.3223 15.0436 14.875 14.8187 14.4586L14.4838 13.8434C14.2009 13.3259 13.8295 12.8626 13.3806 12.4758L12.9305 12.0842C12.2938 11.5347 11.5219 11.1534 10.6923 10.9801L9.74791 10.7818C9.42627 10.7159 9.10262 10.6809 8.77216 10.6782C8.30176 10.6724 7.65526 10.6631 7.60919 10.645C7.57606 10.634 7.29212 10.6419 6.96421 10.6509L6.94119 10.6516C6.46841 10.6667 6.00135 10.7474 5.55259 10.8903C5.43567 11.1304 5.34128 11.3824 5.29957 11.6169C5.25163 11.8643 5.22668 12.1256 5.26319 12.3541C5.2752 12.461 5.29352 12.5691 5.31161 12.6759C5.32824 12.7741 5.34468 12.8711 5.35583 12.965C5.3789 13.1702 5.42541 13.3706 5.49082 13.5617L5.69725 14.0977C5.70329 14.1141 5.70877 14.1306 5.71422 14.147C5.74434 14.2377 5.77318 14.3246 5.88675 14.3678C5.89817 14.4751 5.93326 14.5683 6.01092 14.6381C5.97634 14.7175 5.99389 14.7641 6.07289 14.7779C6.115 14.7731 6.12411 14.7824 6.09999 14.8151L6.11753 14.8617C6.18287 14.8615 6.20086 14.8895 6.16218 14.9456L6.19727 15.0388C6.25767 15.2439 6.32786 15.4303 6.40737 15.6167C6.42174 15.65 6.45619 15.6675 6.48987 15.6846C6.50801 15.6939 6.52592 15.703 6.54035 15.7143C6.49099 15.8264 6.52698 15.8823 6.56297 15.9382C6.63494 16.05 6.69259 16.1758 6.74545 16.3063C6.76658 16.3524 6.78646 16.3986 6.80625 16.4445C6.84041 16.5238 6.87428 16.6024 6.91381 16.6791C6.94304 16.8123 7.02614 16.9036 7.10842 16.9941C7.13269 17.0208 7.15689 17.0474 7.17961 17.0749C7.17145 17.1509 7.20721 17.1882 7.24363 17.2261C7.26088 17.244 7.27828 17.2621 7.29123 17.2846C7.38187 17.3963 7.523 17.3493 7.76194 17.1154Z" fill="#2E36AB"/>
</g>
</g>
<path d="M35.5564 20.0977V7.7124H40.2632C41.2578 7.7124 42.0785 7.87773 42.7339 8.20838C43.3871 8.52693 43.8729 8.96847 44.1869 9.53502C44.5136 10.0895 44.6769 10.7205 44.6769 11.4282C44.6769 12.0996 44.5199 12.7206 44.2058 13.2871C43.9022 13.8415 43.4248 14.2831 42.7716 14.6137C42.1183 14.9444 41.2829 15.1097 40.2632 15.1097H37.4848V20.0977H35.5585H35.5564ZM37.4827 13.5694H40.1732C41.0819 13.5694 41.7289 13.3819 42.1183 13.0028C42.5182 12.6137 42.7192 12.0895 42.7192 11.4282C42.7192 10.7427 42.5182 10.2145 42.1183 9.83542C41.731 9.4463 41.084 9.25074 40.1732 9.25074H37.4827V13.5694Z" fill="#030612"/>
<path d="M53.7826 17.4092C53.3115 17.4092 52.8739 17.3567 52.474 17.2519L51.693 17.9938C51.827 18.0765 51.9903 18.1471 52.1829 18.2076C52.3755 18.268 52.6498 18.3205 52.9995 18.3648C53.3492 18.4132 53.8286 18.4596 54.4337 18.506C55.6335 18.6108 56.4982 18.8951 57.0321 19.3568C57.566 19.8064 57.8298 20.4072 57.8298 21.1633C57.8298 21.6814 57.6853 22.1713 57.3943 22.633C57.1158 23.1048 56.6741 23.4839 56.069 23.7641C55.4764 24.0605 54.7122 24.2057 53.7805 24.2057C52.5221 24.2057 51.4962 23.9698 50.711 23.498C49.9363 23.0383 49.549 22.3367 49.549 21.3931C49.549 21.0262 49.6474 20.6612 49.84 20.2963C50.0452 19.9435 50.3676 19.6068 50.8031 19.2882C50.5477 19.1834 50.3237 19.0705 50.131 18.9515C49.9489 18.8205 49.7856 18.6935 49.6411 18.5624V18.139L51.2051 16.5825C50.5016 15.9938 50.152 15.2216 50.152 14.266C50.152 13.6893 50.2902 13.1631 50.5686 12.6913C50.8597 12.2074 51.2763 11.8244 51.8228 11.5401C52.3693 11.2558 53.0225 11.1167 53.7847 11.1167C54.2934 11.1167 54.7666 11.1873 55.2 11.3304H57.9973V12.5683L56.963 12.6571C57.254 13.1409 57.3985 13.6772 57.3985 14.268C57.3985 14.8567 57.254 15.389 56.963 15.8607C56.6845 16.3325 56.2721 16.7116 55.7277 16.9918C55.1917 17.266 54.5447 17.4092 53.7826 17.4092ZM53.7826 15.9394C54.3395 15.9394 54.7876 15.7982 55.1268 15.516C55.4764 15.2196 55.6544 14.8083 55.6544 14.276C55.6544 13.7337 55.4785 13.3204 55.1268 13.0381C54.7876 12.7538 54.3395 12.6147 53.7826 12.6147C53.2131 12.6147 52.7524 12.7558 52.4028 13.0381C52.0636 13.3224 51.8919 13.7337 51.8919 14.276C51.8919 14.8083 52.0615 15.2196 52.4028 15.516C52.7524 15.8003 53.2131 15.9394 53.7826 15.9394ZM51.3643 21.2137C51.3643 21.7197 51.5946 22.0988 52.0552 22.3447C52.5158 22.6028 53.0916 22.7339 53.7805 22.7339C54.4484 22.7339 54.9865 22.5927 55.3969 22.3105C55.8093 22.0403 56.0145 21.6733 56.0145 21.2157C56.0145 20.8749 55.8763 20.5786 55.5979 20.3306C55.3194 20.0947 54.7918 19.9475 54.0171 19.889C53.435 19.8548 52.9199 19.8023 52.4719 19.7318C52.0468 19.9556 51.7579 20.1975 51.5988 20.4556C51.4438 20.7116 51.3643 20.9657 51.3643 21.2137Z" fill="#030612"/>
<path d="M59.1674 20.0993V11.323H60.8738L61.035 12.5629C61.326 12.1133 61.7071 11.7605 62.1782 11.5024C62.6619 11.2443 63.2188 11.1133 63.849 11.1133C65.2791 11.1133 66.2715 11.6617 66.8285 12.7585C67.1551 12.2524 67.5906 11.8512 68.1371 11.5548C68.694 11.2584 69.2928 11.1133 69.9335 11.1133C71.06 11.1133 71.9456 11.4439 72.5863 12.1032C73.227 12.7625 73.5495 13.7484 73.5495 15.0569V20.0993H71.6232V15.2484C71.6232 13.5508 70.9553 12.7 69.6257 12.7C68.9474 12.7 68.3904 12.948 67.9549 13.442C67.5299 13.9379 67.3184 14.6456 67.3184 15.567V20.0973H65.3921V15.2484C65.3921 13.5508 64.72 12.7 63.3758 12.7C62.7079 12.7 62.1573 12.948 61.7218 13.442C61.2967 13.9379 61.0853 14.6456 61.0853 15.567V20.0973H59.1674V20.0993Z" fill="#030612"/>
<path d="M84.8141 20.0993V11.323H86.5205L86.665 12.8633C86.9434 12.321 87.3496 11.8956 87.8835 11.5891C88.43 11.2705 89.0519 11.1133 89.7554 11.1133C90.8441 11.1133 91.7005 11.4439 92.3181 12.1032C92.9463 12.7625 93.2624 13.7484 93.2624 15.0569V20.0993H91.3529V15.2484C91.3529 13.5508 90.6368 12.7 89.211 12.7C88.4949 12.7 87.9024 12.948 87.4313 13.442C86.9707 13.9379 86.7403 14.6456 86.7403 15.567V20.0973H84.8141V20.0993Z" fill="#030612"/>
<path d="M98.5103 20.0985C97.6267 20.0985 96.9232 19.8929 96.4039 19.4796C95.8847 19.0562 95.6229 18.3062 95.6229 17.2315V12.8968H94.4316V11.3222H95.6229L95.8595 9.09229H97.5492V11.3222H99.0065V12.8968H97.5492V17.2315C97.5492 17.7154 97.6518 18.0521 97.8591 18.2396C98.0789 18.4171 98.4453 18.5058 98.9667 18.5058H100.001V20.0985H98.5103Z" fill="#030612"/>
<path d="M83.1244 13.1836C82.7601 12.5464 82.2513 12.0404 81.5981 11.6613C80.9448 11.2722 80.1764 11.0767 79.2907 11.0767C78.382 11.0767 77.5843 11.2722 76.8934 11.6613C76.2171 12.0505 75.6832 12.5948 75.2937 13.2884C74.9189 13.984 74.7305 14.7925 74.7305 15.7118C74.7305 16.6191 74.9231 17.4175 75.3126 18.099C75.702 18.7845 76.2317 19.3208 76.9122 19.7099C77.6032 20.0849 78.3904 20.2764 79.274 20.2764C80.3397 20.2764 81.2317 19.9982 81.9435 19.4438C82.6701 18.8893 83.1537 18.1998 83.3966 17.3752H81.4703C81.2882 17.7885 81.0097 18.1171 80.6328 18.3651C80.2685 18.601 79.8163 18.7179 79.2698 18.7179C78.5935 18.7179 77.9926 18.5002 77.4733 18.0627C76.9646 17.6131 76.6798 16.9659 76.6191 16.1171H83.6311C83.6437 15.9518 83.65 15.8026 83.65 15.6755C83.6625 15.5344 83.6688 15.4054 83.6688 15.2864C83.6709 14.5223 83.4887 13.8207 83.1244 13.1836ZM77.5676 13.1836C78.0638 12.8045 78.6333 12.617 79.2761 12.617C79.967 12.617 80.5428 12.8186 81.0013 13.2198C81.4033 13.5707 81.6441 14.0303 81.7216 14.5969H76.7049C76.841 13.9799 77.1279 13.5082 77.5676 13.1836Z" fill="#030612"/>
<path d="M46.1356 20.0991V11.3228H48.0618V20.0971H46.1356V20.0991Z" fill="#030612"/>
<path d="M47.0926 10.1694C47.7961 10.1694 48.3656 9.61481 48.3656 8.93117C48.3656 8.24752 47.7961 7.69092 47.0926 7.69092C46.3891 7.69092 45.8196 8.2455 45.8196 8.93117C45.8217 9.61481 46.3912 10.1694 47.0926 10.1694Z" fill="#030612"/>
<defs>
<clipPath id="clip0">
<rect width="26.6668" height="26.6668" fill="white"/>
</clipPath>
</defs>
</svg>
