<svg xmlns="http://www.w3.org/2000/svg" width="140" height="40" fill="currentColor" viewBox="0 0 140 40">
  <g clip-path="url(#a)">
    <path fill="#A7A7A0" d="M50.935 23.491v-7.535h3.652c.5 0 .938.101 1.305.294.378.193.674.467.878.813.214.345.316.741.316 1.208 0 .447-.102.843-.316 1.188-.215.346-.51.61-.888.803a2.84 2.84 0 0 1-1.306.294h-2.295v2.935h-1.346Zm1.356-4.072h2.153c.387 0 .704-.102.938-.315.235-.213.357-.488.357-.833 0-.355-.122-.63-.357-.833-.234-.203-.55-.304-.938-.304H52.29v2.285Zm6.591 4.072v-7.535h1.357v7.535h-1.357Zm7.416.122a4.145 4.145 0 0 1-1.56-.294 3.91 3.91 0 0 1-1.266-.833 3.861 3.861 0 0 1-.856-1.24 3.765 3.765 0 0 1-.306-1.523 3.833 3.833 0 0 1 1.153-2.762c.356-.356.785-.63 1.264-.833.48-.193 1-.294 1.561-.294a4.34 4.34 0 0 1 1.734.355c.54.234 1 .569 1.367 1.005l-.938.874a2.805 2.805 0 0 0-.96-.731 2.846 2.846 0 0 0-1.203-.254c-.367 0-.704.07-1.02.203a2.426 2.426 0 0 0-.826.558 2.523 2.523 0 0 0-.551.843c-.133.325-.194.67-.194 1.057 0 .375.061.72.194 1.046a2.54 2.54 0 0 0 1.397 1.412c.317.131.663.203 1.04.203.399 0 .756-.082 1.092-.234.327-.162.602-.376.816-.66a2.18 2.18 0 0 0 .408-.975h-2.366v-1.188h3.805v.426c0 .549-.092 1.056-.286 1.513a3.98 3.98 0 0 1-.785 1.22 3.585 3.585 0 0 1-1.194.801c-.49.204-.99.305-1.52.305Zm5.743-.122v-7.535h1.775l2.214 4.438 2.224-4.438h1.764v7.535h-1.265v-5.85l-2.744 5.312-2.713-5.332v5.87H72.04Zm10.385 0v-7.535h5.702v1.178h-4.346v1.99h2.857v1.138h-2.856v2.051h4.396v1.178h-5.753Zm7.65 0v-7.535h1.296l3.988 5.23v-5.23h1.275v7.535h-1.193l-4.1-5.403v5.403h-1.266Zm10.956 0v-6.337h-2.611v-1.198h6.559v1.198h-2.611v6.337h-1.337ZM41.11 23.44c-2.213.02-3.029-2.955-1.121-4.062.857-.487 3.754-2.163 4.652-2.671.836 2.356-.205 5.16-2.377 6.409a2.266 2.266 0 0 1-1.153.325Zm-.009-5.636c-.357 0-.714-.091-1.03-.254l-.082-.05-4.62-2.652a5.422 5.422 0 0 1 3.304-1.787 5.414 5.414 0 0 1 3.438.62c.02.01.184.111.214.121a2.19 2.19 0 0 1 .674 2.905 2.179 2.179 0 0 1-1.898 1.097ZM38.398 26c-2.918-1.381-4.734-4.662-4.346-7.861.03-.315.122-.59.275-.833.694-1.219 2.53-1.412 3.459-.355.387.416.612.965.612 1.543V26Z"/>
  </g>
  <defs>
    <clipPath id="a">
      <path fill="#fff" d="M34 13h71v13H34z"/>
    </clipPath>
  </defs>
</svg>
