<svg width="352" height="93" viewBox="0 0 352 93" fill="none" xmlns="http://www.w3.org/2000/svg">
<path d="M27.0486 62.2645C26.332 62.0369 26.5654 61.2009 27.2976 60.1015C26.4572 60.9227 25.961 61.0878 25.6422 60.6954C25.5004 60.4501 25.2073 60.3525 25.2496 59.9592C24.8988 59.5342 24.448 59.175 24.3149 58.5692C24.0954 58.1438 23.9255 57.7019 23.7228 57.2601C23.5369 56.8019 23.3342 56.3602 23.081 55.9676C22.9545 55.7714 22.8279 55.5751 23.0015 55.1815C22.8566 55.0672 22.6116 55.0187 22.5338 54.8387C22.2542 54.1841 22.0074 53.5295 21.795 52.8092L21.6716 52.4819C21.8076 52.285 21.7443 52.1869 21.5146 52.1875L21.4528 52.0238C21.5377 51.9089 21.5056 51.8762 21.3575 51.893C21.0797 51.8446 21.018 51.6809 21.1396 51.4021C20.8665 51.1571 20.7431 50.8297 20.703 50.4531C20.2314 50.2741 20.1752 49.8811 20.0365 49.5046L19.3105 47.6226C19.0805 46.9515 18.917 46.2475 18.8358 45.527C18.7539 44.8391 18.5911 44.1024 18.51 43.3818C18.3816 42.5794 18.4694 41.6618 18.638 40.7932C18.7898 39.9409 19.1401 39.0227 19.5713 38.1533C19.5104 37.9569 19.5968 37.7765 19.8793 37.6283L19.8575 37.1697C19.6394 33.9595 20.0946 30.7311 21.1855 27.6814L22.1708 24.9267C23.0865 22.3361 24.4578 19.9081 26.2159 17.774L29.2928 14.0312C29.2623 13.933 29.2631 13.9002 29.36 13.9655L29.5969 13.67C31.0341 11.9135 32.6955 10.3858 34.5484 9.08691L36.8014 7.52492C37.9196 6.75214 39.1002 6.11025 40.312 5.5338C40.2551 5.17355 40.2606 4.9442 40.3575 5.00948C40.2603 4.27255 40.515 4.59953 40.6928 4.71375C40.6831 4.43529 40.748 4.46788 40.8745 4.66414C41.009 4.53275 41.1899 4.5159 41.3837 4.64646C41.4549 4.41694 41.7224 4.89133 41.6565 4.21985C41.6421 4.13797 41.6901 4.187 41.7222 4.21968C41.8823 4.38309 42.0593 4.53007 42.2363 4.67705L43.8284 3.98497C43.8155 3.83757 43.8171 3.77204 43.8652 3.82107C44.0188 3.57495 44.1251 3.24705 44.3526 3.34476C44.3381 3.26288 44.3389 3.23012 44.3709 3.2628C44.3733 3.16451 44.362 2.95157 44.3948 2.95149C44.5758 2.93465 44.7719 2.96691 44.952 2.98284L45.1826 2.94949C45.1432 2.54004 45.2081 2.57264 45.2577 2.55613C45.3073 2.53962 45.3722 2.57222 45.4539 2.58839L45.5035 2.57188L45.5523 2.58814C45.7819 1.91591 46.1469 1.75116 46.5231 1.79935L46.7193 1.83162L46.9811 1.86371C47.0194 1.63427 47.1148 1.76509 47.1941 1.87955L48.1764 1.97534L48.2252 1.9916L48.3589 1.89297L48.3621 1.7619C48.5871 1.95791 48.7864 1.85911 49.0114 2.05512C51.1584 1.49268 53.3639 1.22495 55.5615 1.28488C55.5814 1.1374 55.5998 1.05544 55.6318 1.08812L55.7471 1.07145C55.9152 0.907208 56.0898 1.15249 56.2626 0.791652C56.4283 0.725706 56.6194 0.282913 56.7757 0.610145L56.8413 0.609981C56.9277 0.429566 56.991 0.52769 57.0543 0.62582C57.1247 0.429059 57.2231 0.428808 57.2833 0.657997L58.0655 0.885353C58.3512 0.606137 58.5731 0.933197 58.8517 0.948869C59.2448 0.98063 59.598 1.30737 59.9543 1.50304C60.0086 1.28994 60.0591 1.24067 60.0919 1.24059C60.4682 1.28878 60.8245 1.48444 61.2192 1.45068C61.4986 1.43358 61.7811 1.28543 62.023 1.46501L62.1831 1.62842L62.2984 1.61174L62.3152 1.59532C62.388 1.30026 62.4032 1.34937 62.3977 1.57873C62.4329 1.48035 62.4497 1.46393 62.4625 1.61133C62.6033 1.21781 62.6482 1.3979 62.6899 1.70904C62.8827 1.20072 62.9917 1.44616 63.1046 1.52779L63.2847 1.54371C63.4415 1.16653 63.5376 1.26457 63.6521 1.28067C63.9131 1.34553 64.1589 1.36128 64.4414 1.21313C64.5911 1.13084 64.7224 1.13051 64.8153 1.35961C64.8137 1.42514 64.7961 1.47433 64.7946 1.53986C64.829 1.47425 64.8634 1.40864 64.8818 1.32668C65.0217 0.965928 65.0842 1.09682 65.1659 1.11299C65.6062 1.22654 66.0434 1.47116 66.5022 1.50275C66.9609 1.53434 67.4005 1.68066 67.8944 1.61388C68.2563 1.58019 68.579 1.80871 68.8865 1.98813C69.194 2.16754 69.3959 2.64209 69.7745 2.59199C69.9226 2.57523 69.9468 2.93556 70.0245 3.11556C70.0221 3.21384 69.9862 3.34494 69.9502 3.47606L69.9502 3.47615C69.9142 3.60729 69.8622 3.7221 69.8262 3.85324L69.8422 3.86958C69.843 3.83682 69.8438 3.80406 69.8614 3.75487C70.2782 2.80367 70.156 3.78688 70.4457 3.34384C70.5129 3.27814 70.5961 3.22878 70.5754 3.40903C70.598 3.83489 70.8485 3.65406 70.959 3.83398C71.0063 3.91576 71.1407 3.78437 70.9816 4.25984C71.0856 4.03024 71.1696 3.94811 71.2712 3.8168L73.0025 4.84444L73.4236 5.07271C73.6518 5.13765 73.9488 5.07137 74.0714 5.43145L74.1363 5.46406C74.3395 5.20143 74.4028 5.29955 74.4493 5.41411C74.5895 5.725 74.8177 5.78995 75.0795 5.82204C75.3741 5.85406 75.5816 6.09926 75.8762 6.13127C76.154 6.17971 76.3798 6.34295 76.588 6.55538C76.5705 6.60457 76.5521 6.68652 76.5009 6.76856C76.4657 6.86694 76.4321 6.89979 76.4321 6.89979C76.4825 6.85052 76.5497 6.78482 76.6185 6.65359C76.8538 6.42365 76.8635 6.70211 76.9948 6.70178C77.3926 6.53695 77.2616 7.20893 76.8745 8.2911L76.8905 8.30744C77.3545 7.43803 77.6418 7.09328 77.7691 7.25678C77.8484 7.37125 78.0309 7.28888 78.007 7.60019C78.2337 7.73067 78.4955 7.76276 78.5852 8.12293C78.8392 8.48268 79.0243 8.97366 79.363 9.21852C79.4599 9.2838 79.54 9.3655 79.4336 9.69341C79.5489 9.67673 79.6826 9.5781 79.7466 9.64347C79.9541 9.88866 80.1119 10.1504 80.2857 10.4284L80.3818 10.5265C80.3114 10.7232 80.3603 10.7395 80.5115 10.5917L80.5596 10.6407C80.4908 10.7719 80.5236 10.7718 80.6244 10.6733C80.8085 10.5254 80.8398 10.5908 80.7854 10.8039C80.9671 10.7543 81.0632 10.8524 81.1249 11.016C81.4419 10.8022 81.5196 10.9822 81.6325 11.0639C82.0529 11.3249 82.5741 11.4874 82.8585 11.9454C83.0011 12.158 83.2285 12.2557 83.4047 12.4354C83.7098 12.7131 83.8468 13.1551 83.8655 13.7448C84.8113 14.6761 85.6899 15.6732 86.4844 16.7523L87.7075 18.4365C89.2798 20.6113 90.4519 23.0492 91.1606 25.652L92.6892 31.0049C93.2768 33.1822 93.5667 35.4585 93.5122 37.7193L93.4436 40.5699C93.4139 42.4866 93.1384 44.3876 92.6179 46.2401L91.9351 48.699C91.7016 49.5351 92.1728 50.6551 91.8417 51.4587C92.1276 51.8511 91.4576 52.1732 91.3562 52.9761C91.4218 52.976 91.4195 53.0743 91.2658 53.3204C91.3651 53.2874 91.3459 53.4021 91.31 53.5332C91.4885 53.6147 91.2301 54.1232 90.5692 54.9931C90.3491 55.2721 90.2115 55.5346 89.925 55.8466C89.7018 56.2567 89.3785 56.7326 89.0216 57.2413C89.0041 57.2905 88.9192 57.4054 88.784 57.5695L88.7504 57.6024C88.4416 58.1601 87.799 58.9481 87.19 59.7032L87.1732 59.7196C87.138 59.818 86.986 59.9986 86.8179 60.1628C86.549 60.4256 86.3458 60.6883 86.1265 60.9345C86.0409 61.0822 85.7712 61.3778 85.6024 61.5748L85.6023 61.5748C85.5511 61.6568 85.4999 61.7388 85.4327 61.8045C84.8757 62.4448 84.8566 62.5596 84.9206 62.6249C84.9703 62.6084 85.0863 62.559 84.9343 62.7396C84.7823 62.9201 84.6142 63.0844 84.531 63.1337L84.4317 63.1668L84.1644 63.364C84.1276 63.5279 84.1276 63.5279 83.8259 63.7908L83.2408 64.2346C82.5838 64.9407 82.0308 65.4172 81.5778 65.8279C81.0744 66.2878 80.5374 66.7806 80.0004 67.2735C79.8988 67.4048 79.7811 67.5197 79.6475 67.6184C79.4802 67.7499 79.3289 67.8977 79.1945 68.0291L79.1609 68.0619C79.0248 68.2588 78.8568 68.4231 78.6575 68.5219C78.4734 68.6698 78.3053 68.834 78.1213 68.9819C77.6851 69.3762 77.2497 69.7377 76.8135 70.132C76.1741 70.7889 75.5179 71.4622 75.1153 71.8236C74.9473 71.9879 74.8304 72.0701 74.6279 72.2999C74.0045 72.9732 73.5729 72.944 73.7449 72.6159C73.5558 72.7942 73.3771 72.948 73.3328 72.9257C73.3328 72.9257 72.9807 73.2379 73.0671 73.0575C71.7729 73.1946 69.1417 73.4706 68.9707 73.4774C68.8995 73.707 68.7987 73.8055 68.6666 73.8386C68.0543 74.0531 67.4267 74.2185 66.8151 74.4003C66.2043 74.5493 65.5927 74.731 64.9812 74.9128C64.1382 75.1607 63.309 75.5232 62.4556 75.5253C62.2586 75.5258 62.0785 75.5099 61.9144 75.5103C61.7823 75.5434 61.667 75.5601 61.5349 75.5932L61.5181 75.6096C61.4294 75.8883 61.3485 75.8394 61.2708 75.6594C61.2028 75.7579 61.1203 75.7745 61.0738 75.6599C60.8018 76.0538 60.5583 75.9397 60.3509 75.6945L60.3181 75.6946C59.8796 76.1872 59.4896 76.0243 59.0797 76.009L58.5209 76.0432C58.1672 76.4209 57.8237 76.3726 57.4955 76.3734C56.7238 76.3918 55.9688 76.3937 55.1771 76.5595C54.7648 76.6425 54.371 76.6435 54.0146 76.4478C53.9994 76.3987 54.001 76.3332 54.0186 76.284L53.8505 76.4482C53.5472 76.7767 53.3198 76.679 53.0908 76.6468C51.7818 76.4863 50.5088 76.1946 49.2006 76.0014C47.9084 75.8245 46.7675 75.4998 45.5249 75.3063C44.577 75.1449 43.7667 74.7211 42.9884 74.3299C42.2261 73.9551 41.6518 73.2685 40.8031 73.0741C40.4933 72.993 40.3715 72.6001 40.1808 72.3385C40.1832 72.2402 40.2184 72.1418 40.2872 72.0106C40.3048 71.9614 40.3216 71.945 40.3552 71.9121L40.2903 71.8795C39.6717 72.3562 39.757 71.5369 39.2255 71.8003C39.0767 71.8499 38.9454 71.8502 38.9501 71.6536C38.8635 71.1624 38.3543 71.1801 38.0988 70.8858C38.0355 70.7877 37.8058 70.7883 38.0106 70.4601L37.9785 70.4275C37.8121 70.5262 37.6632 70.5757 37.4975 70.6416C36.2707 69.7929 35.1103 68.9113 34.0324 68.013L33.2597 67.3925C32.8233 67.1151 32.3188 66.9362 32.0849 66.429L31.9552 66.3638C31.607 66.5121 31.5124 66.3485 31.4179 66.1849C31.1832 65.7105 30.7796 65.433 30.3424 65.1884C29.8563 64.9275 29.4911 64.4206 28.9738 64.0943C28.4725 63.7843 28.0897 63.3266 27.7397 62.8688C27.7581 62.7869 27.8085 62.7376 27.8757 62.6719C27.9429 62.6062 27.9926 62.5897 27.9926 62.5897C27.9109 62.5735 27.7948 62.623 27.678 62.7052C27.2665 62.7554 27.2584 62.4114 27.0486 62.2645Z" fill="#4AE6B6"/>
<path d="M52.1147 50.7709L50.9372 48.6108C49.9422 46.7936 48.6359 45.1666 47.0574 43.8082L45.4745 42.4333C43.2355 40.5038 40.5207 39.1646 37.6034 38.5562L34.282 37.86C33.1509 37.6284 32.0127 37.5056 30.8505 37.496C29.1963 37.4756 26.9227 37.4429 26.7607 37.3794C26.6414 37.3401 25.5985 37.3698 24.4115 37.4025C22.2198 37.4725 20.063 37.9427 18.0426 38.786L16.6592 39.3698C15.1912 39.9762 13.832 40.7851 12.5724 41.7631L10.7419 43.1788C10.129 43.6633 9.54199 44.1765 8.98524 44.735L7.64585 46.0905C6.63285 47.1094 5.7614 48.2507 5.04396 49.4933L3.9611 51.3322C3.94866 51.3533 3.93621 51.3745 3.92822 51.4122C3.6178 51.6733 3.34565 51.942 3.09932 52.2394C2.67335 52.7451 2.29902 53.3082 2.09022 53.8805C1.89738 54.3773 1.71793 54.9239 1.52064 55.404C1.3109 55.9053 1.1608 56.4262 1.08277 56.9457L0.86913 58.4452C0.822129 58.7427 0.715496 59.0205 0.956806 59.3121C0.845715 59.5733 0.806702 59.833 0.89494 60.0943C0.714372 60.2317 0.711771 60.357 0.857783 60.496C0.960141 60.5398 0.969057 60.5731 0.872086 60.6168L0.85258 60.7467C0.895307 60.7709 0.904223 60.8041 0.930045 60.8328C0.922056 60.8705 0.914068 60.9083 0.906079 60.946C0.893633 60.9672 0.881187 60.9883 0.847377 60.9974L0.808363 61.2571C0.684081 61.8067 0.606054 62.3262 0.549391 62.8578C0.550319 62.9287 0.568153 62.9952 0.602891 63.0571C0.60029 63.1825 0.597688 63.3078 0.595086 63.4332C0.503501 63.5645 0.483995 63.6944 0.498298 63.8152C0.519845 64.1656 0.490676 64.5295 0.444603 64.898C0.415435 65.2619 0.381808 65.6092 0.35264 65.9731C0.218512 66.4186 0.380685 66.8204 0.453875 67.2281C0.283152 67.4697 0.438081 67.6419 0.440866 67.8549C0.44365 68.0678 0.614556 68.1645 0.924231 68.1707C0.938535 68.2915 0.94838 68.3957 0.979588 68.512C0.622911 68.8033 0.486927 69.1068 0.740684 69.3772C0.823536 69.551 0.703528 69.7789 0.989238 69.8984C1.09513 69.8878 1.18857 69.8985 1.23575 69.9392C1.23575 69.9392 1.19748 69.9317 1.12986 69.9498C1.06224 69.9679 1.01153 69.9814 0.969731 70.0282C1.03047 70.4571 1.11258 70.8982 1.32547 71.2864C1.54281 71.6912 1.59557 72.1578 1.81644 72.5083C2.0115 72.8301 2.15584 73.1654 2.15249 73.558C2.15435 73.7 2.1562 73.8419 2.43653 73.8738L2.48018 73.9689C2.44748 74.3872 2.71016 74.6909 2.89276 75.0338L3.16899 75.7256C3.54238 76.7119 3.9754 77.7178 4.46359 78.7269C4.6122 78.7405 4.73147 78.7798 4.90943 78.7678C4.58917 78.9247 4.75561 79.0049 4.78236 79.1045C4.84125 79.3915 5.1786 79.5683 5.05599 79.9217C4.98131 80.0485 5.06677 80.0968 5.18157 80.1196C5.63986 80.1394 5.19791 80.7206 5.96755 80.5503C5.9969 80.5246 6.01381 80.5201 6.02626 80.499L6.03517 80.5322C5.95511 80.5714 5.85368 80.5986 5.76116 80.6589C5.66865 80.7193 5.60995 80.7706 5.57261 80.834C5.60121 81.0757 5.53731 81.3777 5.70914 81.5454C6.18991 81.9866 6.31307 82.6481 6.65506 83.1798C7.02288 83.7403 7.39515 84.3173 7.94799 84.757C8.68512 85.3433 9.29145 85.9824 10.0668 86.5762C10.8298 87.1912 11.5509 87.853 12.3432 88.4423C12.4803 88.5481 12.5925 88.6961 12.9093 88.5936C12.9769 88.5755 13.0276 88.5619 13.0783 88.5483C13.0952 88.5438 13.0872 88.5816 13.0623 88.6238C13.2057 88.8882 13.4621 89.0333 13.7603 89.1316C14.3352 89.3161 14.8097 89.5987 15.3179 89.8722C15.5316 89.9932 15.7203 90.1563 16.0877 90.0402L16.4634 90.2246C16.7242 90.3863 16.9183 90.6371 17.3827 90.4772L17.4041 90.4893C17.4496 90.7265 17.5663 90.8911 17.8865 90.7342C17.875 90.8263 17.9346 90.846 18.0147 90.8067C17.9997 90.9532 18.0344 91.0152 18.1936 90.8657L18.2105 90.8612C18.3084 90.8884 18.3894 90.9202 18.4873 90.9474C18.5986 91.0245 18.7099 91.1015 18.8336 91.1575C19.3721 91.4764 20.0431 91.5461 20.6812 91.6959C21.1449 91.8033 21.6086 91.9108 22.0429 92.0439C22.5066 92.1513 22.9747 92.2753 23.4339 92.3662C23.5318 92.3934 23.6332 92.3662 23.7631 92.2425C24.6994 92.4906 25.6659 92.784 26.6884 92.8131C27.4012 92.8361 28.1158 93.001 28.8596 92.802C29.6356 92.7903 30.4961 92.7559 31.5416 92.6009C31.8522 92.678 32.1778 92.6087 32.4723 92.4231C32.7944 92.4081 33.129 92.372 33.4189 92.1698L33.7188 92.0718C34.5872 91.9997 35.2917 91.3838 36.0914 90.9206C36.1039 90.8994 36.1377 90.8904 36.1501 90.8693C36.3147 90.8074 36.4882 90.7788 36.6359 90.7215L40.3236 89.2719C42.2435 88.5267 44.0191 87.4462 45.5578 86.0908L47.2015 84.6538C49.0213 83.0629 50.4929 81.12 51.5204 78.9398L54.0296 73.6387C54.9745 71.6231 55.5312 69.4441 55.6635 67.2363C55.7499 65.7353 55.6325 64.2175 55.3292 62.7495L53.7875 55.4516C53.4903 53.8039 52.9057 52.2331 52.1147 50.7709Z" fill="#3943D6"/>
<g style="mix-blend-mode:multiply">
<path fill-rule="evenodd" clip-rule="evenodd" d="M27.297 60.1015C26.5649 61.2009 26.3314 62.037 27.048 62.2645C27.118 62.3134 27.1655 62.3843 27.213 62.4552C27.3081 62.5969 27.4031 62.7386 27.6774 62.7052C27.7943 62.623 27.9103 62.5735 27.992 62.5897C27.992 62.5897 27.9424 62.6062 27.8752 62.6719L27.8751 62.6719C27.8079 62.7376 27.7575 62.7869 27.7391 62.8688C28.0891 63.3266 28.472 63.7844 28.9733 64.0943C29.218 64.2487 29.4286 64.4435 29.6342 64.6335C29.8631 64.8452 30.0857 65.0509 30.3418 65.1884C30.779 65.433 31.1826 65.7105 31.4174 66.1849C31.5119 66.3485 31.6064 66.5121 31.9546 66.3638L32.0843 66.429C32.2665 66.8239 32.6125 67.0197 32.9628 67.218C33.0625 67.2744 33.1625 67.331 33.2591 67.3925L34.0319 68.013C35.1098 68.9113 36.2702 69.7929 37.4969 70.6416C37.5284 70.6291 37.5592 70.6172 37.5897 70.6054C37.7198 70.5551 37.8431 70.5074 37.978 70.4275L38.01 70.4601C37.8572 70.7051 37.9464 70.7669 38.0278 70.8233C38.0554 70.8424 38.0822 70.861 38.0983 70.8858C38.195 70.9972 38.3281 71.0639 38.4608 71.1304C38.6787 71.2396 38.8957 71.3483 38.9496 71.6536C38.9448 71.8502 39.0761 71.8499 39.225 71.8003C39.4691 71.6793 39.5831 71.7867 39.6949 71.8921C39.8266 72.0161 39.9552 72.1373 40.2898 71.8795L40.3546 71.9121C40.321 71.945 40.3042 71.9614 40.2866 72.0106C40.2178 72.1418 40.1826 72.2402 40.1803 72.3385C40.234 72.4123 40.2823 72.4965 40.3309 72.5812C40.4546 72.7969 40.5801 73.0159 40.8026 73.0741C41.3175 73.192 41.7314 73.4911 42.1475 73.7919C42.4173 73.9868 42.688 74.1825 42.9878 74.3299C43.0248 74.3485 43.0618 74.3672 43.099 74.3859C43.8434 74.7608 44.6215 75.1526 45.5244 75.3064C46.0952 75.3952 46.6446 75.5118 47.197 75.629C47.8471 75.7669 48.5015 75.9058 49.2001 76.0014C49.7655 76.0849 50.3243 76.1868 50.8822 76.2886C51.4651 76.3948 52.047 76.5009 52.6346 76.5858L54.0291 73.6397C54.9739 71.624 55.5307 69.4451 55.663 67.2373C55.7493 65.7362 55.632 64.2185 55.3286 62.7505L53.787 55.4526C53.4898 53.8049 52.9052 52.2341 52.1142 50.7719L50.9366 48.6118C49.9416 46.7946 48.6353 45.1676 47.0569 43.8092L45.474 42.4343C43.2349 40.5048 40.5201 39.1655 37.6028 38.5571L34.2815 37.861C33.1503 37.6294 32.0121 37.5066 30.85 37.497C29.1957 37.4766 26.9221 37.4439 26.7601 37.3804C26.6436 37.342 25.645 37.3695 24.4919 37.4013L24.4109 37.4035C22.7481 37.4566 21.1054 37.7401 19.5271 38.242C19.116 39.0849 18.7841 39.9699 18.6374 40.7932C18.4688 41.6618 18.3811 42.5794 18.5095 43.3818C18.5517 43.7572 18.6162 44.137 18.6798 44.5119C18.7382 44.8567 18.796 45.1975 18.8353 45.527C18.9164 46.2476 19.08 46.9515 19.31 47.6226L20.036 49.5047C20.0572 49.5623 20.0765 49.6203 20.0956 49.6779C20.2016 49.9964 20.303 50.3015 20.7024 50.4531C20.7426 50.8298 20.866 51.1571 21.1391 51.4021C21.0175 51.6809 21.0792 51.8446 21.357 51.893C21.5051 51.8762 21.5371 51.9089 21.4523 52.0238L21.514 52.1875C21.7438 52.1869 21.8071 52.285 21.671 52.4819L21.7944 52.8093C22.0068 53.5295 22.2537 54.1841 22.5333 54.8387C22.5838 54.9557 22.705 55.0171 22.8234 55.0772C22.8872 55.1096 22.9502 55.1415 23.001 55.1815C22.8274 55.5751 22.9539 55.7714 23.0805 55.9676L23.0805 55.9676C23.3336 56.3602 23.5363 56.8019 23.7222 57.2602C23.7966 57.4221 23.8665 57.5842 23.936 57.7454C24.0562 58.0238 24.1753 58.2998 24.3143 58.5692C24.4171 59.037 24.7094 59.3578 24.9987 59.6754C25.0841 59.769 25.1692 59.8624 25.2491 59.9592C25.2204 60.2261 25.3461 60.3568 25.4743 60.49C25.5349 60.553 25.5961 60.6166 25.6416 60.6954C25.9604 61.0878 26.4567 60.9227 27.297 60.1015Z" fill="#2E36AB"/>
</g>
<path d="M125.044 70.572V27.0806H141.597C145.094 27.0806 147.981 27.6612 150.285 28.8223C152.583 29.9409 154.291 31.4914 155.396 33.4808C156.544 35.4277 157.119 37.6437 157.119 40.1288C157.119 42.4863 156.566 44.6669 155.462 46.6564C154.394 48.6033 152.715 50.1538 150.418 51.3149C148.121 52.476 145.183 53.0565 141.597 53.0565H131.826V70.572H125.051H125.044ZM131.818 47.6475H141.28C144.476 47.6475 146.751 46.9891 148.121 45.6581C149.527 44.2917 150.234 42.4509 150.234 40.1288C150.234 37.7216 149.527 35.8667 148.121 34.5357C146.758 33.1693 144.483 32.4825 141.28 32.4825H131.818V47.6475Z" fill="white"/>
<path d="M189.14 61.132C187.484 61.132 185.945 60.9479 184.538 60.5798L181.792 63.1851C182.263 63.4754 182.837 63.7232 183.515 63.9356C184.192 64.148 185.157 64.3321 186.386 64.4878C187.616 64.6578 189.302 64.8206 191.43 64.9834C195.649 65.3516 198.69 66.3498 200.568 67.9711C202.446 69.5499 203.374 71.6597 203.374 74.3146C203.374 76.1342 202.865 77.8546 201.842 79.4759C200.863 81.1325 199.309 82.4635 197.181 83.4476C195.097 84.4884 192.41 84.9981 189.133 84.9981C184.708 84.9981 181.1 84.1698 178.338 82.5131C175.614 80.8989 174.252 78.4351 174.252 75.1217C174.252 73.8332 174.598 72.5518 175.275 71.2703C175.997 70.0313 177.131 68.849 178.662 67.7304C177.764 67.3622 176.976 66.9658 176.299 66.5481C175.658 66.0879 175.084 65.6419 174.576 65.1817V63.6949L180.076 58.2293C177.602 56.162 176.372 53.4504 176.372 50.0945C176.372 48.0697 176.858 46.2219 177.838 44.5652C178.861 42.866 180.326 41.5209 182.248 40.5226C184.17 39.5243 186.467 39.0358 189.148 39.0358C190.937 39.0358 192.601 39.2836 194.125 39.7863H203.963V44.1333L200.325 44.4448C201.349 46.144 201.857 48.0272 201.857 50.1016C201.857 52.1689 201.349 54.038 200.325 55.6947C199.346 57.3514 197.895 58.6824 195.981 59.6665C194.096 60.6293 191.821 61.132 189.14 61.132ZM189.14 55.9708C191.099 55.9708 192.675 55.4752 193.868 54.484C195.097 53.4433 195.723 51.999 195.723 50.1299C195.723 48.2255 195.105 46.7741 193.868 45.7829C192.675 44.7847 191.099 44.2961 189.14 44.2961C187.137 44.2961 185.518 44.7917 184.288 45.7829C183.095 46.7812 182.491 48.2255 182.491 50.1299C182.491 51.999 183.088 53.4433 184.288 54.484C185.518 55.4823 187.137 55.9708 189.14 55.9708ZM180.636 74.4916C180.636 76.2687 181.446 77.5997 183.066 78.4634C184.685 79.3697 186.71 79.8298 189.133 79.8298C191.482 79.8298 193.374 79.3343 194.817 78.3431C196.268 77.3944 196.99 76.1058 196.99 74.4987C196.99 73.3022 196.504 72.2615 195.524 71.3907C194.545 70.5623 192.689 70.0455 189.965 69.8402C187.918 69.7198 186.107 69.5358 184.531 69.288C183.036 70.0738 182.02 70.9234 181.46 71.8296C180.915 72.7288 180.636 73.6208 180.636 74.4916Z" fill="white"/>
<path d="M208.08 70.5786V39.7601H214.081L214.648 44.1142C215.671 42.5354 217.011 41.2964 218.668 40.3902C220.369 39.484 222.328 39.0238 224.544 39.0238C229.573 39.0238 233.063 40.9495 235.022 44.801C236.171 43.0239 237.702 41.615 239.624 40.5743C241.583 39.5336 243.689 39.0238 245.942 39.0238C249.903 39.0238 253.018 40.1849 255.271 42.5C257.524 44.8151 258.658 48.2771 258.658 52.872V70.5786H251.884V53.5445C251.884 47.5833 249.535 44.5956 244.859 44.5956C242.474 44.5956 240.515 45.4665 238.983 47.201C237.489 48.9427 236.745 51.4277 236.745 54.6632V70.5716H229.971V53.5445C229.971 47.5833 227.607 44.5956 222.88 44.5956C220.531 44.5956 218.594 45.4665 217.063 47.201C215.568 48.9427 214.824 51.4277 214.824 54.6632V70.5716H208.08V70.5786Z" fill="white"/>
<path d="M298.273 70.5786V39.7601H304.274L304.782 45.1691C305.761 43.2646 307.19 41.7708 309.067 40.6946C310.989 39.576 313.176 39.0238 315.65 39.0238C319.479 39.0238 322.491 40.1849 324.663 42.5C326.872 44.8151 327.984 48.2771 327.984 52.872V70.5786H321.268V53.5445C321.268 47.5833 318.75 44.5956 313.736 44.5956C311.217 44.5956 309.134 45.4665 307.477 47.201C305.857 48.9427 305.047 51.4277 305.047 54.6632V70.5716H298.273V70.5786Z" fill="white"/>
<path d="M346.438 70.5767C343.33 70.5767 340.856 69.8546 339.03 68.4032C337.204 66.9165 336.284 64.2827 336.284 60.5092V45.2876H332.094V39.7582H336.284L337.116 31.9279H343.058V39.7582H348.183V45.2876H343.058V60.5092C343.058 62.2084 343.419 63.3907 344.148 64.0491C344.921 64.6721 346.209 64.9837 348.043 64.9837H351.68V70.5767H346.438Z" fill="white"/>
<path d="M292.329 46.2937C291.048 44.0565 289.258 42.2794 286.961 40.9484C284.664 39.582 281.961 38.8953 278.847 38.8953C275.651 38.8953 272.846 39.582 270.416 40.9484C268.037 42.3148 266.16 44.2264 264.79 46.6618C263.472 49.1044 262.809 51.9434 262.809 55.1718C262.809 58.3577 263.487 61.1614 264.856 63.5543C266.226 65.9615 268.089 67.8447 270.482 69.2111C272.912 70.528 275.681 71.2006 278.788 71.2006C282.536 71.2006 285.673 70.2235 288.176 68.2766C290.731 66.3296 292.432 63.9083 293.286 61.0127H286.512C285.871 62.464 284.892 63.6181 283.567 64.4889C282.285 65.3172 280.695 65.7278 278.773 65.7278C276.395 65.7278 274.281 64.9632 272.455 63.4269C270.666 61.8481 269.665 59.5755 269.451 56.5949H294.111C294.155 56.0143 294.177 55.4904 294.177 55.0444C294.221 54.5488 294.243 54.0957 294.243 53.678C294.251 50.9947 293.61 48.5309 292.329 46.2937ZM272.787 46.2937C274.532 44.9627 276.535 44.3043 278.795 44.3043C281.225 44.3043 283.25 45.0122 284.863 46.4211C286.276 47.653 287.123 49.2672 287.396 51.2567H269.753C270.232 49.0902 271.24 47.4335 272.787 46.2937Z" fill="white"/>
<path d="M162.245 70.5779V39.7595H169.019V70.5709H162.245V70.5779Z" fill="white"/>
<path d="M165.613 35.7094C168.087 35.7094 170.09 33.7619 170.09 31.3613C170.09 28.9606 168.087 27.0061 165.613 27.0061C163.139 27.0061 161.136 28.9535 161.136 31.3613C161.143 33.7619 163.146 35.7094 165.613 35.7094Z" fill="white"/>
</svg>
