<svg xmlns="http://www.w3.org/2000/svg" width="140" height="40" viewBox="0 0 140 40" fill="none">
  <g transform="translate(23.85 5.3) scale(0.66)">
  <path
    fill="#A7A7A0"
    d="M57.269 20.888c0 4.699-2.515 8.809-6.271 11.061a.355.355 0 0 1-.442-.063l-4.325-4.604a.355.355 0 0 1 .145-.583c2.415-.828 4.15-3.116 4.15-5.811 0-3.427-2.806-6.198-6.246-6.141-3.368.056-6.036 2.874-6.036 6.242v10.61a.354.354 0 0 1-.547.304c-3.672-2.234-6.139-6.253-6.196-10.852-.088-7.074 5.628-12.95 12.702-13.048 7.201-.1 13.069 5.707 13.069 12.885h-.003Zm50.983 2.59h-1.707a.166.166 0 0 0-.155.106l-2.144 5.641-2.228-5.642a.164.164 0 0 0-.154-.105h-1.792a.165.165 0 0 0-.152.23l3.336 7.874-.199.507c-.287.713-.678 1.004-1.351 1.004a1.85 1.85 0 0 1-.437-.062.159.159 0 0 0-.205.152v1.42c0 .07.046.133.112.156.155.053.462.136.875.136 1.226 0 2.041-.758 2.816-2.618l3.538-8.568a.164.164 0 0 0-.153-.23Zm-35.98-2.515h-1.593a.167.167 0 0 0-.148.09L66.5 29.069l-4.031-8.015a.167.167 0 0 0-.148-.09h-1.694a.166.166 0 0 0-.166.166v10.542c0 .091.075.166.166.166h1.701a.166.166 0 0 0 .166-.166v-6.515l3.317 6.573c.028.055.086.091.148.091h.934a.166.166 0 0 0 .148-.091l3.365-6.65v6.59c0 .091.075.166.166.166h1.702a.166.166 0 0 0 .165-.166V21.127a.166.166 0 0 0-.165-.166l.001.002Zm9.655 6.699a4.33 4.33 0 1 1-8.659.001 4.33 4.33 0 0 1 8.659-.001Zm-1.897 0a2.432 2.432 0 1 0-4.865 0 2.432 2.432 0 0 0 4.865 0Zm7.045-4.328c-1.251 0-2.122.72-2.434 1.12h-.06v-.809a.166.166 0 0 0-.165-.166H82.93a.166.166 0 0 0-.166.166v8.025c0 .091.075.166.166.166h1.678a.166.166 0 0 0 .166-.166v-4.512c0-1.2.779-2.039 1.926-2.039 1.148 0 1.895.839 1.895 2.039v4.512c0 .091.075.166.166.166h1.675a.166.166 0 0 0 .166-.166v-4.643c0-2.209-1.417-3.693-3.524-3.693h-.003Zm12.456 2.043c.156.262.706 1.257.547 2.527a4.362 4.362 0 0 1-.091.476.166.166 0 0 1-.16.123h-6.322c.11.413.58 1.771 2.338 1.771.847 0 1.493-.362 1.792-.7a.195.195 0 0 1 .145-.067h1.734c.124 0 .206.132.148.242-.379.723-1.078 1.443-2.064 1.884a4.238 4.238 0 0 1-1.738.36c-.807 0-1.558-.193-2.229-.572-1.147-.647-2.198-1.918-2.198-3.759.003-.352.053-1.478.839-2.544.106-.143.564-.742 1.374-1.205a4.337 4.337 0 0 1 2.194-.58c1.718 0 3.02.926 3.688 2.044h.003Zm-1.42 1.57c-.068-.328-.545-1.91-2.266-1.91-1.207 0-2.118.79-2.373 1.91h4.639ZM86.468 15.886a.166.166 0 0 0-.16-.211h-1.653a.195.195 0 0 0-.173.107 2.432 2.432 0 1 1 .029-2.088.194.194 0 0 0 .174.112h1.638a.166.166 0 0 0 .16-.208l-.027-.107c-.525-1.798-2.187-3.112-4.156-3.112-2.413 0-4.364 1.973-4.329 4.394.034 2.355 2.041 4.3 4.394 4.265 1.954-.029 3.593-1.353 4.1-3.152h.003Zm-13.542 3.152c-2.314-.043-4.203-1.932-4.246-4.247-.046-2.457 1.955-4.457 4.411-4.411 2.315.043 4.204 1.932 4.247 4.246.045 2.458-1.956 4.457-4.412 4.412Zm2.514-4.25c.044-1.407-1.104-2.555-2.511-2.511-1.274.04-2.311 1.078-2.352 2.352-.044 1.407 1.104 2.555 2.51 2.511 1.275-.04 2.312-1.078 2.353-2.352Zm-14.98 3.928V8.167c0-.091.075-.166.166-.166h4.607c1.144-.005 3.271.8 3.271 3.358 0 1.771-1.139 3.187-3.31 3.349l3.661 3.894a.165.165 0 0 1-.12.28h-2.138a.193.193 0 0 1-.142-.063l-3.765-4.11h-.103v4.008a.166.166 0 0 1-.166.166h-1.797a.166.166 0 0 1-.166-.166l.002-.001Zm2.127-5.694h1.84c.676 0 1.186-.144 1.53-.427.344-.285.515-.677.515-1.177s-.156-.86-.467-1.135c-.312-.274-.764-.413-1.357-.413h-2.061v3.152Zm40.197-.855h1.146v3.875c0 2.566 2.176 2.997 3.015 2.997.393 0 .693-.081.943-.137a.166.166 0 0 0 .13-.161v-1.35a.164.164 0 0 0-.202-.162c-.553.128-1.764.13-1.764-1.34v-3.722h1.802a.166.166 0 0 0 .166-.166v-1.312a.166.166 0 0 0-.166-.166h-1.802V8.166a.166.166 0 0 0-.253-.141l-1.787 1.114a.166.166 0 0 0-.077.14v1.244h-1.15a.166.166 0 0 0-.166.166V12c0 .091.075.166.166.166h-.001Zm-15.453 6.715h1.786a.166.166 0 0 0 .166-.166v-3.169h.098l2.987 3.299c.021.023.051.036.081.036h2.211a.165.165 0 0 0 .122-.28l-3.638-3.893 3.306-3.912a.166.166 0 0 0-.128-.272h-2.066a.194.194 0 0 0-.148.069l-2.706 3.234h-.12v-5.66a.166.166 0 0 0-.253-.142L87.243 9.143a.166.166 0 0 0-.078.141v9.433c0 .091.075.166.166.166v-.001Zm6.596-4.174c.003-.352.053-1.479.839-2.544.106-.144.563-.742 1.373-1.205a4.337 4.337 0 0 1 2.195-.58c1.718 0 3.019.925 3.687 2.043.156.263.706 1.258.547 2.528a4.356 4.356 0 0 1-.091.475.166.166 0 0 1-.16.123h-6.322c.109.413.579 1.772 2.338 1.772.847 0 1.493-.362 1.792-.701a.194.194 0 0 1 .145-.066h1.734c.124 0 .205.131.147.242-.378.722-1.078 1.442-2.063 1.883a4.237 4.237 0 0 1-1.738.361c-.807 0-1.558-.194-2.23-.572-1.147-.647-2.197-1.919-2.197-3.76h.007Zm2.037-.716h4.64c-.068-.327-.545-1.91-2.267-1.91-1.206 0-2.117.791-2.373 1.91Z"
  />
  </g>
</svg>
