<svg xmlns="http://www.w3.org/2000/svg" width="140" height="40" fill="currentColor" viewBox="0 0 140 40">
  <path fill="#A7A7A0" d="M46.344 12.373c2.615 0 4.738 2.19 4.738 4.89v4.22c0 2.698-2.123 4.89-4.738 4.89-2.616 0-4.74-2.191-4.74-4.89v-4.22c0-2.7 2.124-4.89 4.74-4.89Zm-1.23 12.086a.203.203 0 0 0-.2.207v.276c0 .115.088.208.2.208a.204.204 0 0 0 .201-.208v-.276a.203.203 0 0 0-.2-.207Zm2.437 0a.203.203 0 0 0-.201.207v.276c0 .115.089.208.2.208a.204.204 0 0 0 .202-.208v-.276a.204.204 0 0 0-.201-.207Zm-3.644-.624a.204.204 0 0 0-.2.209v.276c0 .115.088.208.2.208a.204.204 0 0 0 .201-.208v-.276a.204.204 0 0 0-.2-.209Zm2.414 0a.204.204 0 0 0-.2.209v.276c0 .115.088.208.2.208a.204.204 0 0 0 .202-.208v-.276a.204.204 0 0 0-.202-.209Zm2.437 0a.204.204 0 0 0-.201.209v.276c0 .115.089.208.2.208a.204.204 0 0 0 .202-.208v-.276a.204.204 0 0 0-.201-.209Zm-3.644-.623a.204.204 0 0 0-.2.208v.277c0 .115.088.208.2.208a.204.204 0 0 0 .201-.208v-.277a.204.204 0 0 0-.2-.208Zm2.437 0a.204.204 0 0 0-.201.208v.277c0 .115.089.208.2.208a.204.204 0 0 0 .202-.208v-.277a.204.204 0 0 0-.201-.208Zm-3.644-.622c-.111 0-.2.092-.2.207v.278c0 .115.088.207.2.207a.203.203 0 0 0 .201-.207v-.278a.204.204 0 0 0-.2-.207Zm2.414 0c-.111 0-.2.092-.2.207v.278c0 .115.088.207.2.207a.203.203 0 0 0 .202-.207v-.278a.204.204 0 0 0-.202-.207Zm2.437 0a.203.203 0 0 0-.201.207v.278c0 .115.09.207.2.207a.203.203 0 0 0 .202-.207v-.278a.204.204 0 0 0-.201-.207Zm13.188-5.881c.894 0 1.566.391 1.946 1.106v-.991h1.028v5.743h-1.028v-.969c-.38.715-1.03 1.108-1.946 1.108-1.542 0-2.704-1.293-2.704-3 0-1.706 1.162-2.997 2.704-2.997Zm22.331 0c.895 0 1.566.391 1.946 1.106v-.991h1.028v5.743h-1.028v-.969c-.38.715-1.029 1.108-1.946 1.108-1.542 0-2.704-1.293-2.704-3 0-1.706 1.162-2.997 2.704-2.997Zm11.084-.024c.895 0 1.566.393 1.946 1.108v-.97h1.028v5.72h-1.028v-.968c-.38.715-1.03 1.107-1.946 1.107-1.542 0-2.704-1.292-2.704-2.999 0-1.706 1.162-2.998 2.704-2.998Zm-39.404-.022c.872 0 1.452.323 1.9.922l-.693.6c-.268-.346-.604-.6-1.184-.6-.56 0-.873.277-.873.646 0 .507.358.645 1.208.876 1.184.323 1.922.808 1.9 1.822 0 1.085-.783 1.73-2.102 1.73-1.05 0-1.855-.484-2.369-1.291l.737-.53c.336.576.895.921 1.632.921.716 0 1.118-.3 1.118-.76 0-.508-.38-.715-1.341-.992-1.096-.3-1.743-.738-1.743-1.753 0-.945.715-1.591 1.81-1.591Zm22.331 0c.872 0 1.452.323 1.9.922l-.693.6c-.268-.346-.603-.6-1.184-.6-.56 0-.873.277-.873.646 0 .507.358.645 1.207.876 1.185.323 1.923.808 1.9 1.822 0 1.085-.782 1.73-2.1 1.73-1.051 0-1.856-.484-2.37-1.291l.737-.53c.336.576.895.921 1.632.921.716 0 1.118-.3 1.118-.76 0-.508-.38-.715-1.341-.992-1.096-.3-1.743-.738-1.743-1.753 0-.945.715-1.591 1.81-1.591ZM42.7 21.967a.203.203 0 0 0-.201.207v.278c0 .115.09.207.201.207a.204.204 0 0 0 .201-.207v-.278a.204.204 0 0 0-.2-.207Zm7.265 0a.203.203 0 0 0-.201.207v.278c0 .115.09.207.2.207a.203.203 0 0 0 .202-.207v-.278a.203.203 0 0 0-.201-.207Zm22.981-5.282c1.163 0 1.99.83 2.012 2.214v3.621H73.93v-3.528c0-.9-.402-1.361-1.184-1.362-.917 0-1.431.577-1.431 1.592v3.322h-1.029v-3.506c0-.9-.402-1.384-1.184-1.384-.917 0-1.431.576-1.431 1.614v3.276h-1.028v-5.72h1.028v.784c.313-.6.894-.923 1.654-.923.76 0 1.341.347 1.677 1.062.425-.715 1.05-1.062 1.944-1.062Zm19.314.808-2.28 2.075v2.976h-1.006v-5.72h1.005v1.338l1.61-1.477.67.808Zm-44.978-4.106c-.29 0-.604.07-.894.162-.023.023-.067.023-.112 0a2.45 2.45 0 0 0-.894-.162c-1.676 0-3.085 1.684-3.085 3.69 0 2.192 1.61 4.106 3.89 4.66a.373.373 0 0 0 .157.023.37.37 0 0 0 .156-.023c2.28-.554 3.89-2.468 3.867-4.66 0-2.006-1.408-3.69-3.085-3.69Zm14.866 4.243c-1.095 0-1.811.854-1.811 2.076 0 1.2.716 2.053 1.811 2.053 1.073 0 1.788-.854 1.788-2.053 0-1.222-.715-2.075-1.788-2.076Zm22.309 0c-1.095 0-1.811.854-1.811 2.076 0 1.2.716 2.053 1.811 2.053s1.788-.854 1.788-2.053c0-1.222-.715-2.075-1.788-2.076Zm11.106 0c-1.096 0-1.811.854-1.811 2.076 0 1.2.716 2.053 1.81 2.053 1.074 0 1.79-.853 1.79-2.053 0-1.222-.717-2.076-1.79-2.076ZM42.7 20.722a.203.203 0 0 0-.201.207v.277c0 .116.09.208.201.208a.204.204 0 0 0 .201-.208v-.277a.204.204 0 0 0-.2-.207Zm7.265 0a.203.203 0 0 0-.201.207v.277c0 .116.09.208.2.208a.204.204 0 0 0 .202-.208v-.277a.203.203 0 0 0-.201-.207Zm-2.66-6.943c1.453 0 2.705 1.5 2.705 3.299 0 2.006-1.476 3.759-3.6 4.289h-.134c-2.123-.53-3.598-2.306-3.598-4.29 0-1.775 1.229-3.298 2.704-3.298.268 0 .515.046.783.139a.48.48 0 0 0 .358 0c.268-.093.536-.14.782-.14Zm.983 2.03c-.38-.023-.693.092-.938.346-.358.346-.493.923-.538 1.176-.022.163-.357 1.546-.558 2.468-.201-.922-.514-2.305-.559-2.468-.067-.23-.18-.807-.537-1.176a1.174 1.174 0 0 0-.938-.346.813.813 0 0 0-.581.37c-.134.207-.135.484-.045.714.134.254.312.462.536.623.223.115.447.207.693.207.112 0 .201-.07.201-.184 0-.116-.067-.207-.178-.208a1.243 1.243 0 0 1-.492-.162 1.263 1.263 0 0 1-.38-.46.38.38 0 0 1 .022-.346.348.348 0 0 1 .291-.185.786.786 0 0 1 .648.23c.269.277.38.785.424.993.023.163.404 1.753.605 2.652l.066.3c.045.115.135.207.269.207a.27.27 0 0 0 .268-.207c.18-.807.625-2.765.67-2.952.045-.208.157-.715.425-.992a.813.813 0 0 1 .648-.23c.112.022.224.069.292.184.066.092.066.23.021.346a.955.955 0 0 1-.38.46c-.156.093-.312.162-.491.162-.09 0-.179.092-.179.208 0 .092.09.184.201.184.246 0 .492-.069.693-.207.246-.138.425-.346.537-.623.09-.23.089-.507-.135-.715a.736.736 0 0 0-.58-.369Z"/>
</svg>
