<?xml version="1.0" encoding="UTF-8"?>
<!-- Generated by Pixelmator Pro 3.6.18 -->
<svg width="175" height="17" viewBox="0 0 175 17" xmlns="http://www.w3.org/2000/svg">
    <g id="Group">
        <g id="g1">
            <g id="g2">
                <path id="Path" fill="#dcdcdc" stroke="none" d="M 6.544 6.834 C 5.274 6.235001 4.177 5.719 4.177 4.719999 C 4.177 3.901 4.706 3.073999 5.885 3.073999 C 6.741 3.073999 7.756 3.359 9.078 3.971 L 10.395 1.331 C 8.866 0.434999 7.299 0 5.605 0 C 2.318 0 0.356 1.773 0.356 4.741 C 0.356 7.709 2.651 8.854 4.495 9.776 C 5.833 10.444 6.988 11.022 6.988 12.11 C 6.988 13.048 6.156 13.678 4.919 13.678 C 3.927 13.678 2.716 13.313 1.318 12.59 L 0 15.418 C 1.767 16.424999 3.381 16.874001 5.226 16.874001 C 8.64 16.874001 10.679 14.974 10.679 11.791 C 10.679 8.781 8.386 7.701 6.544 6.834 Z M 17.558001 1.899 C 16.129 1.899 13.979 1.899 12.739 1.941 L 12.739 16.555 L 16.365 16.555 L 16.365 12.097 L 17.466999 12.097 C 19.117001 12.097 22.955999 11.563 22.955999 6.611 C 22.955999 3.572001 21.039 1.899 17.558001 1.899 Z M 17.444 9.354 C 16.988001 9.354 16.687 9.354 16.410999 9.331 L 16.364 9.327 L 16.364 4.665 L 16.410999 4.662001 C 16.732 4.639999 17.152 4.639999 17.488001 4.639999 C 19.166 4.639999 19.503 5.609 19.503 7.172 C 19.504999 8.682 18.868999 9.354 17.444 9.354 Z M 33.478001 10.899 L 33.514 10.872 C 34.723 9.906 35.389 8.411 35.389 6.663 C 35.389 3.15 32.396999 1.899 29.596001 1.899 C 28.167 1.899 26.016001 1.899 24.778 1.941 L 24.778 16.555 L 28.403999 16.555 L 28.403999 12.097 L 29.506001 12.097 C 29.726 12.097 29.934 12.085 30.125 12.073 L 30.155001 12.07 L 30.171 12.095 C 30.773001 13.06 31.540001 14.614 31.787001 16.555 C 32.582001 16.555 35.754002 16.555 35.754002 16.555 C 35.417999 14.321 34.202 12.078 33.502998 10.936 L 33.478001 10.899 Z M 29.482 9.354 C 29.025999 9.354 28.726 9.354 28.450001 9.333 L 28.403 9.329 L 28.403 4.667 L 28.450001 4.664 C 28.771 4.641 29.191 4.641 29.527 4.641 C 31.205 4.641 31.542 5.611 31.542 7.175 C 31.542 8.682 30.907 9.354 29.482 9.354 Z M 38.047001 16.555 L 41.668999 16.556999 L 41.668999 1.922 L 38.047001 1.922 L 38.047001 16.555 Z M 53.161999 11.497 L 48.82 1.921 L 44.855999 1.921 L 44.855999 16.554001 L 48.047001 16.554001 L 48.047001 7.323 L 52.549999 16.554001 L 56.370998 16.554001 L 56.370998 1.921 L 53.161999 1.921 C 53.161999 1.921 53.161999 11.497 53.161999 11.497 Z M 65.099998 11.049 L 66.609001 11.049 L 66.609001 14.039 L 66.574997 14.051 C 66.210999 14.182 65.342003 14.251 64.980003 14.251 C 63.064999 14.251 62.318001 12.832 62.318001 9.189 C 62.318001 5.989 63.419998 4.433001 65.686996 4.433001 C 66.444 4.433001 67.549004 4.771999 68.725998 5.365 L 69.708 2.925 C 68.391998 2.095 66.679001 1.6 65.115997 1.6 C 62.917999 1.6 61.334 2.219 60.271999 3.493 C 59.219002 4.757999 58.706001 6.635 58.706001 9.232 C 58.706001 14.903 60.351002 17.011 64.772003 17.011 C 66.18 17.011 68.300003 16.645 69.878998 15.828 L 69.878998 8.554 L 65.099998 8.554 L 65.099998 11.049 Z M 75.821999 10.487 L 80.523003 10.487 L 80.523003 7.658 L 75.821999 7.658 L 75.821999 4.773 L 80.956001 4.773 L 80.956001 1.921 L 72.352997 1.921 L 72.352997 13.966 C 72.352997 13.979 72.332001 15.124 73.087997 15.908 C 73.559998 16.399 74.234001 16.649 75.089996 16.653999 C 77.727997 16.669001 80.616997 16.572001 81.024002 16.556999 L 81.024002 13.699 L 75.820999 13.699 L 75.820999 10.487 L 75.821999 10.487 Z M 92.416 10.937 L 92.391998 10.899 L 92.428001 10.872 C 93.637001 9.906 94.303001 8.411 94.303001 6.663 C 94.303001 3.15 91.310997 1.899 88.511002 1.899 C 87.082001 1.899 84.931 1.899 83.693001 1.941 L 83.693001 16.555 L 87.319 16.555 L 87.319 12.097 L 88.420998 12.097 C 88.640999 12.097 88.848 12.085 89.040001 12.073 L 89.07 12.07 L 89.085999 12.095 C 89.688004 13.06 90.455002 14.614 90.702003 16.555 C 91.497002 16.555 94.668999 16.555 94.668999 16.555 C 94.331001 14.322 93.114998 12.079 92.416 10.937 Z M 88.396004 9.354 C 87.940002 9.354 87.639999 9.354 87.363998 9.333 L 87.317001 9.329 L 87.317001 4.667 L 87.363998 4.664 C 87.684998 4.641 88.105003 4.641 88.441002 4.641 C 90.119003 4.641 90.457001 5.611 90.457001 7.175 C 90.457001 8.682 89.821999 9.354 88.396004 9.354 Z"/>
            </g>
        </g>
        <g id="g3">
            <g id="g4">
                <path id="path1" fill="#ffffff" stroke="none" d="M 109.153 11.595 L 103.82 0.15 L 99.589996 0.15 L 99.589996 16.555 L 102.917999 16.555 L 102.918999 5.234 L 108.210999 16.555 L 112.499001 16.555 L 112.499001 0.15 L 109.153 0.15 L 109.153 11.595 Z M 127.414001 4.903999 L 130.681 4.903999 L 130.681 16.555 L 134.459 16.555 L 134.459 4.903999 L 137.242996 4.903999 L 137.242996 1.92 L 127.414001 1.92 L 127.414001 4.903999 Z M 146.800003 11.666 C 146.800003 13.164 146.714996 14.081 145.046997 14.081 C 143.447998 14.081 143.177994 13.329 143.177994 11.644 L 143.177994 1.921 L 139.423996 1.921 L 139.423996 11.841 C 139.423996 15.332 141.108994 16.889 144.886993 16.889 C 148.753998 16.889 150.554993 15.118 150.554993 11.315 L 150.554993 1.921 L 146.800003 1.921 C 146.800003 1.921 146.800003 11.666 146.800003 11.666 Z M 169.796997 13.699 L 169.796997 10.486 L 174.496994 10.486 L 174.496994 7.657 L 169.796997 7.657 L 169.796997 4.771999 L 174.931 4.771999 L 174.931 1.921 L 166.328995 1.921 L 166.328995 13.966 C 166.328995 13.979 166.307999 15.124 167.063995 15.908 C 167.535995 16.399 168.210007 16.649 169.065994 16.653999 C 171.703003 16.669001 174.593002 16.572001 175 16.556999 L 175 13.699 L 169.796997 13.699 Z M 118.126999 1.921 L 114.583 16.555 L 118.281998 16.555 L 118.803001 14.231 L 122.858002 14.231 L 123.378998 16.555 L 127.279999 16.555 L 123.781998 1.921 C 123.781998 1.921 118.126999 1.921 118.126999 1.921 Z M 119.230003 11.466 L 120.737 5.102 L 120.888 5.102 L 122.43 11.466 L 119.230003 11.466 Z M 161.936005 10.899 L 161.970993 10.872 C 163.179001 9.906 163.845993 8.411 163.845993 6.663 C 163.845993 3.15 160.854004 1.899 158.052994 1.899 C 156.623993 1.899 154.473007 1.899 153.235001 1.941 L 153.235001 16.555 L 156.860992 16.555 L 156.860992 12.097 L 157.962997 12.097 C 158.182999 12.097 158.389999 12.085 158.582001 12.073 L 158.612 12.07 L 158.628006 12.095 C 159.229996 13.06 159.996994 14.614 160.244995 16.555 C 161.039001 16.555 164.212006 16.555 164.212006 16.555 C 163.876007 14.321 162.660004 12.078 161.960999 10.936 L 161.936005 10.899 Z M 157.940994 9.354 C 157.485001 9.354 157.184998 9.354 156.908005 9.333 L 156.860992 9.329 L 156.860992 4.667 L 156.908005 4.664 C 157.229004 4.641 157.647995 4.641 157.985001 4.641 C 159.662994 4.641 160 5.611 160 7.175 C 160.001007 8.682 159.365997 9.354 157.940994 9.354 Z"/>
            </g>
        </g>
    </g>
</svg>
