<svg width="22" height="22" viewBox="0 0 22 22" fill="none" xmlns="http://www.w3.org/2000/svg">
<path d="M20.2467 0H1.54931C0.704232 0 0 0.704232 0 1.54931V20.141C0 20.9861 0.704232 21.6904 1.54931 21.6904H20.2467C21.0918 21.6904 21.796 20.9861 21.796 20.141V1.54931C21.796 0.669021 21.0918 0 20.2467 0ZM13.6621 16.303C11.7607 18.2044 8.73248 18.2748 6.72542 16.5495L6.69021 16.5142C6.58457 16.4086 6.54936 16.1973 6.69021 16.0565L13.4508 9.33108C13.5917 9.22544 13.7677 9.22544 13.9086 9.33108C15.6692 11.3734 15.5987 14.4015 13.6621 16.303ZM15.0706 5.56343L8.30994 12.2889C8.16909 12.3945 7.99304 12.3945 7.85219 12.2889C6.09161 10.2818 6.16203 7.25359 8.06346 5.35216C9.96489 3.45074 12.9931 3.38031 15.0001 5.10568C15.0001 5.10568 15.0354 5.10568 15.0354 5.1409C15.2114 5.24653 15.2114 5.4578 15.0706 5.56343Z" fill="#F6F6F3"/>
</svg>
