<svg width="50" height="50" viewBox="0 0 50 50" fill="none" xmlns="http://www.w3.org/2000/svg">
<path d="M15.2823 36.4212C19.7244 40.0267 26.4737 39.849 30.692 35.9038C34.9275 31.9425 35.0997 25.6044 31.1741 21.4491C30.8986 21.1904 30.4682 21.1904 30.1927 21.4329L15.1962 35.4349C14.9379 35.6936 14.9379 36.0978 15.2134 36.3565C15.2306 36.3888 15.2651 36.405 15.2823 36.4212Z" fill="#ffffff"/>
<path d="M18.8119 27.5446L33.8084 13.5426C34.0667 13.2839 34.0667 12.8797 33.7912 12.6372C33.774 12.6048 33.7395 12.5887 33.7223 12.5725C29.2802 8.98308 22.5309 9.14476 18.3126 13.0899C14.0598 17.0512 13.9049 23.3893 17.8305 27.5284C18.106 27.7871 18.5364 27.7871 18.8119 27.5446Z" fill="#ffffff"/>
</svg>
