<svg xmlns="http://www.w3.org/2000/svg" width="140" height="40" fill="currentColor" viewBox="0 0 140 40">
  <g clip-path="url(#a)">
    <mask id="b" width="62" height="12" x="39" y="15" maskUnits="userSpaceOnUse" style="mask-type:luminance">
      <path fill="#fff" d="M101 15H39v12h62V15Z"/>
    </mask>
    <g mask="url(#b)">
      <path fill="#A7A7A0" fill-rule="evenodd" d="M98.583 19.61c-1.25-.282-1.687-.314-1.687-.812 0-.463.618-.607.975-.607.578 0 1.257.134 1.95.491l.503-1.202c-.709-.389-1.62-.55-2.498-.55-1.724 0-2.88.7-2.928 2.067-.05 1.245.961 1.712 1.89 1.905.896.185 1.804.343 1.822.877.017.492-.424.702-1.257.702-.771 0-1.487-.248-2.22-.555l-.428 1.305c.841.36 1.696.558 2.578.558 1.225 0 2.117-.191 2.776-.81.456-.426.605-.94.605-1.428 0-1.033-.641-1.615-2.081-1.94Zm-8.597-2.49v4.151c0 .325 0 .415-.021.542-.058.395-.442.625-1.052.632-.451-.007-.782-.14-.936-.377-.078-.122-.115-.34-.115-.69v-4.257h-1.92v4.502c0 .624.082.905.362 1.26.465.583 1.369.888 2.613.888h.067c1.668 0 2.527-.652 2.776-1.261.125-.295.135-.436.135-1.032V17.12h-1.91Zm-6.319 5.244h-2.823v-5.243H78.99v6.532h4.676v-1.289Zm-7.971-3.973v-1.27H71.18v6.532h4.517v-1.325H73.01V20.88h2.235v-1.268H73.01v-1.22h2.687Zm-7.145.019v-1.29h-5.684v1.29h1.92v5.243h1.842V18.41h1.922Zm-4.816-3.078-10.771 2.15v.752l.035-.009c7.115-1.733 10.736-2.775 10.765-2.783.04-.01.055-.042.05-.068-.006-.028-.035-.05-.079-.042Z" clip-rule="evenodd"/>
      <path fill="#A7A7A0" fill-rule="evenodd" d="M54.977 15.126c-.523.03-1.493.807-2.024 1.27-2.12 1.837-3.695 3.526-4.841 5.296-2.389 1.281-5.434 2.6-8.458 3.63l-.072.024-.582 1.57.332-.128a80.289 80.289 0 0 0 8.044-3.648c-.164.438-.247.84-.247 1.208 0 .274.046.527.138.76.183.461.543.812 1.043 1.011.745.298 1.761.304 2.92-.048 2.963-.9 6.475-3.662 7.24-4.212l.029-.02c.03-.022.032-.055.019-.077-.016-.025-.051-.031-.08-.014l-.038.023c-.821.492-4.81 2.866-7.402 3.563-1.32.356-2.326.16-2.706-.371-.132-.182-.195-.412-.195-.68 0-.524.245-1.191.72-1.932.435-.25.842-.492 1.209-.722 2.53-1.425 5.444-4.196 5.567-5.886l.001-.038a.59.59 0 0 0-.617-.579Zm-.281.807c.166-.108.214-.04.165.08-.08.194-.444 1.363-3.156 3.594-.707.581-1.21.908-2.229 1.512 1.668-2.344 4.104-4.46 5.22-5.186Z" clip-rule="evenodd"/>
      <path fill="#A7A7A0" fill-rule="evenodd" d="M52.929 17.489 41.596 19.93l-.438 1.18 11.806-2.876.018-.005v-.751l-.053.01Z" clip-rule="evenodd"/>
    </g>
  </g>
  <defs>
    <clipPath id="a">
      <path fill="#fff" d="M39 15h62v12H39z"/>
    </clipPath>
  </defs>
</svg>
