<svg width="20" height="20" viewBox="0 0 20 20" fill="none" xmlns="http://www.w3.org/2000/svg">
<g clip-path="url(#clip0_4481_14624)">
<path d="M10 0C4.46667 0 0 4.46667 0 10C0 15.5333 4.46667 20 10 20C15.5333 20 20 15.5333 20 10C20 4.46667 15.5333 0 10 0ZM10 17.3333C5.93333 17.3333 2.66667 14.0667 2.66667 10C2.66667 5.93333 5.93333 2.66667 10 2.66667C14.0667 2.66667 17.3333 5.93333 17.3333 10C17.3333 14.0667 14.0667 17.3333 10 17.3333ZM14.5333 7.53333C14.5333 8.66667 13.6 9.6 12.4667 9.6C11.3333 9.6 10.4 8.66667 10.4 7.53333C10.4 6.4 11.3333 5.46667 12.4667 5.46667C13.6 5.46667 14.5333 6.4 14.5333 7.53333ZM14.5333 12.4667C14.5333 13.6 13.6 14.5333 12.4667 14.5333C11.3333 14.5333 10.4 13.6 10.4 12.4667C10.4 11.3333 11.3333 10.4 12.4667 10.4C13.6 10.4 14.5333 11.3333 14.5333 12.4667ZM9.6 12.4667C9.6 13.6 8.66667 14.5333 7.53333 14.5333C6.4 14.5333 5.46667 13.6 5.46667 12.4667C5.46667 11.3333 6.4 10.4 7.53333 10.4C8.66667 10.4 9.6 11.3333 9.6 12.4667ZM9.6 7.53333C9.6 8.66667 8.66667 9.6 7.53333 9.6C6.4 9.6 5.46667 8.66667 5.46667 7.53333C5.46667 6.4 6.4 5.46667 7.53333 5.46667C8.66667 5.46667 9.6 6.4 9.6 7.53333Z" fill="#F6F6F3"/>
</g>
<defs>
<clipPath id="clip0_4481_14624">
<rect width="20" height="20" fill="white"/>
</clipPath>
</defs>
</svg>
