<?xml version="1.0" encoding="UTF-8"?><svg id="Layer_2" xmlns="http://www.w3.org/2000/svg" viewBox="0 0 870.5 263.25"><defs><style>.cls-1{fill:#ee3248;}</style></defs><g id="Layer_1-2"><path class="cls-1" d="m787.56,151.43v-1.53c0-16.41,6.78-22.98,16.41-22.98s16.41,6.57,16.41,22.98v1.53c0,16.19-6.78,22.76-16.41,22.76s-16.41-6.57-16.41-22.76m-50.11.66c0,35.67,26.48,60.62,66.52,60.62s66.52-24.95,66.52-60.62v-2.84c0-35.67-26.48-60.4-66.52-60.4s-66.52,24.73-66.52,60.4v2.84Zm-56.24-71.78c0,1.53,1.09,2.63,2.63,2.63h44.42c1.53,0,2.63-1.09,2.63-2.63v-26.26c0-1.53-1.09-2.62-2.63-2.62h-44.42c-1.53,0-2.63,1.09-2.63,2.62v26.26Zm-.22,128.01c0,1.53,1.09,2.63,2.63,2.63h44.42c1.53,0,2.63-1.09,2.63-2.63v-114.89c0-1.53-1.09-2.62-2.63-2.62h-44.42c-1.53,0-2.63,1.09-2.63,2.62v114.89Zm-58.43,0c0,1.53,1.09,2.63,2.63,2.63h44.42c1.53,0,2.63-1.09,2.63-2.63V54.05c0-1.53-1.09-2.62-2.63-2.62h-44.42c-1.53,0-2.63,1.09-2.63,2.62v154.27Zm-58.43-128.01c0,1.53,1.09,2.63,2.63,2.63h44.42c1.53,0,2.63-1.09,2.63-2.63v-26.26c0-1.53-1.09-2.62-2.63-2.62h-44.42c-1.53,0-2.63,1.09-2.63,2.62v26.26Zm-151.43,130.64h42.89c1.53,0,2.19-.66,2.63-2.19l14.01-50.55,13.57,50.55c.44,1.53,1.09,2.19,2.63,2.19h43.55c1.75,0,2.84-.66,3.28-2.19l28.89-109.63v109.2c0,1.53,1.09,2.63,2.63,2.63h44.42c1.53,0,2.63-1.09,2.63-2.63v-114.89c0-1.53-1.09-2.62-2.63-2.62h-89.94c-1.53,0-2.41.66-2.84,2.41l-10.29,49.45-10.5-49.45c-.22-1.53-1.31-2.41-2.84-2.41h-42.02c-1.53,0-2.63.88-2.85,2.41l-10.5,49.89-9.85-49.89c-.44-1.75-1.31-2.41-2.85-2.41h-71.99v-37.42c0-1.97-1.31-2.85-3.5-2.19l-43.11,14.01c-1.53.44-2.41,1.75-2.41,3.28v16.41c0,4.6-2.41,6.57-7,6.57h-9.41c-1.53,0-2.62,1.09-2.62,2.63v32.17c0,1.53,1.09,2.63,2.62,2.63h15.76v40.48c0,28.23,10.29,43.33,44.2,43.33,13.13,0,23.42-2.19,29.1-4.82,1.75-.88,2.19-1.97,2.19-3.72v-31.51c0-1.75-1.53-2.63-3.72-1.53-2.85,1.31-5.69,1.97-8.97,1.97-8.75,0-13.13-3.28-13.13-14.22v-29.98h22.98c1.53,0,2.63-1.1,2.63-2.63v-28.01l29.1,110.51c.44,1.53,1.53,2.19,3.28,2.19M137.21,98.91c0-15.1,12.47-27.79,27.35-27.79s27.35,12.69,27.35,27.79-12.04,27.13-27.35,27.13-27.35-12.25-27.35-27.13m0,65.43c0-15.32,12.47-27.35,27.35-27.35s27.35,12.04,27.35,27.35-12.04,27.35-27.35,27.35-27.35-12.25-27.35-27.35m-65.65-65.43c0-15.1,12.03-27.79,27.35-27.79s27.57,12.69,27.57,27.79-12.47,27.13-27.57,27.13-27.35-12.25-27.35-27.13m0,65.43c0-15.32,12.03-27.35,27.35-27.35s27.57,12.04,27.57,27.35-12.47,27.35-27.57,27.35-27.35-12.25-27.35-27.35m-36.98-33.04c0-53.61,43.76-96.94,97.38-96.94s96.94,43.33,96.94,96.94-43.33,97.38-96.94,97.38-97.38-43.98-97.38-97.38M131.95,0C59.08,0,0,58.65,0,131.3s59.08,131.95,131.95,131.95,131.73-59.08,131.73-131.95S204.6,0,131.95,0"/></g></svg>