<svg width="820" height="480" viewBox="0 0 820 480" fill="none" xmlns="http://www.w3.org/2000/svg">
<g clip-path="url(#clip0_32_2)">
<g clip-path="url(#clip1_32_2)">
<path d="M828 -233H-8V603H828V-233Z" fill="black"/>
<path d="M828 -233H-8V603H828V-233Z" fill="#907CFF" fill-opacity="0.365276"/>
<mask id="mask0_32_2" style="mask-type:luminance" maskUnits="userSpaceOnUse" x="-8" y="-233" width="836" height="836">
<path d="M828 -233H-8V603H828V-233Z" fill="white"/>
</mask>
<g mask="url(#mask0_32_2)">
<g filter="url(#filter0_f_32_2)">
<path d="M686.402 -24H189.505V415.945H686.402V-24Z" fill="#F2371F"/>
<path d="M671.25 -201.65H29.0975V340.182H671.25V-201.65Z" fill="#00C5DF"/>
</g>
</g>
<g style="mix-blend-mode:overlay">
<path d="M828 -233H-8V603H828V-233Z" fill="#808080"/>
</g>
</g>
<path fill-rule="evenodd" clip-rule="evenodd" d="M308 202.4C308 195.664 310.687 189.203 315.469 184.439C320.251 179.676 326.737 177 333.5 177H429.125C435.31 176.999 441.284 179.238 445.936 183.298C450.587 187.359 453.598 192.965 454.408 199.073L494.061 181.521C496.002 180.66 498.128 180.295 500.246 180.461C502.365 180.626 504.408 181.316 506.19 182.468C507.973 183.62 509.438 185.198 510.453 187.057C511.467 188.917 511.999 191 512 193.116V287.884C511.998 289.999 511.466 292.079 510.452 293.938C509.438 295.796 507.974 297.372 506.194 298.524C504.413 299.676 502.372 300.366 500.255 300.533C498.139 300.7 496.014 300.337 494.073 299.479L454.408 281.927C453.598 288.035 450.587 293.641 445.936 297.702C441.284 301.762 435.31 304.001 429.125 304H333.5C326.737 304 320.251 301.324 315.469 296.561C310.687 291.797 308 285.337 308 278.6V202.4ZM454.625 268.123L499.25 287.884V193.116L454.625 212.877V268.123ZM333.5 189.7C330.118 189.7 326.875 191.038 324.484 193.42C322.093 195.801 320.75 199.032 320.75 202.4V278.6C320.75 281.968 322.093 285.199 324.484 287.58C326.875 289.962 330.118 291.3 333.5 291.3H429.125C432.507 291.3 435.75 289.962 438.141 287.58C440.532 285.199 441.875 281.968 441.875 278.6V202.4C441.875 199.032 440.532 195.801 438.141 193.42C435.75 191.038 432.507 189.7 429.125 189.7H333.5Z" fill="white"/>
</g>
<defs>
<filter id="filter0_f_32_2" x="-345.902" y="-576.65" width="1407.31" height="1367.6" filterUnits="userSpaceOnUse" color-interpolation-filters="sRGB">
<feFlood flood-opacity="0" result="BackgroundImageFix"/>
<feBlend mode="normal" in="SourceGraphic" in2="BackgroundImageFix" result="shape"/>
<feGaussianBlur stdDeviation="187.5" result="effect1_foregroundBlur_32_2"/>
</filter>
<clipPath id="clip0_32_2">
<rect width="820" height="480" fill="white"/>
</clipPath>
<clipPath id="clip1_32_2">
<rect width="836" height="836" fill="white" transform="translate(-8 -233)"/>
</clipPath>
</defs>
</svg>
