<svg width="820" height="480" viewBox="0 0 820 480" fill="none" xmlns="http://www.w3.org/2000/svg">
<g clip-path="url(#clip0_213_12)">
<g clip-path="url(#clip1_213_12)">
<path d="M851 -171H-71V751H851V-171Z" fill="black"/>
<path d="M851 -171H-71V751H851V-171Z" fill="#18A0FB" fill-opacity="0.338481"/>
<mask id="mask0_213_12" style="mask-type:luminance" maskUnits="userSpaceOnUse" x="-71" y="-171" width="922" height="922">
<path d="M851 -171H-71V751H851V-171Z" fill="white"/>
</mask>
<g mask="url(#mask0_213_12)">
<g filter="url(#filter0_f_213_12)">
<path d="M564.028 220.274H45.9788V799.981H564.028V220.274Z" fill="#FFC700"/>
<path d="M466.641 -89.7488H-15.6799V415.622H466.641V-89.7488Z" fill="#907CFF"/>
<path d="M943.776 -26.3613H324.884V511.28H943.776V-26.3613Z" fill="#EE46D3"/>
<path d="M657.956 286.542H17.1663V827.641H657.956V286.542Z" fill="#18A0FB"/>
</g>
</g>
<g style="mix-blend-mode:overlay">
<path d="M851 -171H-71V751H851V-171Z" fill="#808080"/>
</g>
</g>
<path d="M450.667 301.25L511.667 240.5L450.667 179.75" stroke="white" stroke-width="17" stroke-linecap="round" stroke-linejoin="round"/>
<path d="M369.333 179.75L308.333 240.5L369.333 301.25" stroke="white" stroke-width="17" stroke-linecap="round" stroke-linejoin="round"/>
</g>
<defs>
<filter id="filter0_f_213_12" x="-390.68" y="-464.749" width="1709.46" height="1667.39" filterUnits="userSpaceOnUse" color-interpolation-filters="sRGB">
<feFlood flood-opacity="0" result="BackgroundImageFix"/>
<feBlend mode="normal" in="SourceGraphic" in2="BackgroundImageFix" result="shape"/>
<feGaussianBlur stdDeviation="187.5" result="effect1_foregroundBlur_213_12"/>
</filter>
<clipPath id="clip0_213_12">
<rect width="820" height="480" fill="white"/>
</clipPath>
<clipPath id="clip1_213_12">
<rect width="922" height="922" fill="white" transform="translate(-71 -171)"/>
</clipPath>
</defs>
</svg>
