<svg width="2255" height="603" viewBox="0 0 2255 603" fill="none" xmlns="http://www.w3.org/2000/svg">
<path d="M642.669 116.433C642.669 106.172 634.986 98.4769 624.743 98.4769H597V60H684.923V376.366H642.669V116.433Z" fill="black"/>
<path d="M794.056 379.786C754.363 379.786 721.925 352.424 721.925 310.955C721.925 269.913 750.521 241.269 806.86 241.269H846.553C853.809 241.269 859.358 235.711 859.358 228.443V219.893C859.358 194.242 838.871 180.988 818.811 180.988C800.458 180.988 785.52 189.111 776.983 207.922H731.315C743.265 163.46 777.41 142.512 819.664 142.512C860.211 142.512 902.038 164.743 902.038 220.32V376.366H859.358V362.257C859.358 357.127 853.809 354.562 849.541 357.555C832.895 369.525 817.103 379.786 794.056 379.786ZM800.031 341.309C818.811 341.309 834.603 331.903 852.529 313.947C857.224 309.245 859.358 303.259 859.358 296.847V290.434C859.358 283.166 853.809 277.608 846.553 277.608H805.58C777.837 277.608 764.606 290.006 764.606 309.245C764.606 327.201 776.983 341.309 800.031 341.309Z" fill="black"/>
<path d="M951.855 376.366V147.642H994.109V167.308C994.109 172.438 1000.51 174.148 1004.35 170.3C1017.58 157.475 1035.94 142.512 1064.96 142.512C1101.67 142.512 1135.81 165.598 1135.81 218.183V376.366H1093.56V227.161C1093.56 197.662 1075.63 181.416 1053.86 181.416C1032.95 181.416 1018.86 193.387 1003.93 210.915C996.67 219.893 994.109 230.153 994.109 241.269V376.366H951.855Z" fill="black"/>
<path d="M1277.48 467C1224.98 467 1191.69 442.204 1181.87 403.727H1227.97C1235.22 419.545 1248.03 429.378 1273.64 429.378C1307.78 429.378 1329.12 409.285 1329.12 363.54V356.272C1329.12 351.142 1324.85 348.577 1319.73 352.852C1305.65 365.25 1287.72 372.945 1270.65 372.945C1212.6 372.945 1174.19 328.056 1174.19 257.942C1174.19 187.829 1218.58 142.512 1272.36 142.512C1288.15 142.512 1302.66 146.787 1316.74 157.475C1322.72 161.75 1329.12 158.33 1329.12 151.489V147.642H1371.38V363.54C1371.38 436.218 1327.41 467 1277.48 467ZM1274.92 334.041C1294.12 334.041 1308.21 325.491 1319.73 313.092C1326.99 304.97 1329.12 299.412 1329.12 286.586V225.023C1329.12 212.197 1326.99 204.075 1318.45 195.952C1309.06 186.974 1295.83 180.988 1278.76 180.988C1243.76 180.988 1216.87 210.06 1216.87 257.942C1216.87 305.825 1241.63 334.041 1274.92 334.041Z" fill="black"/>
<path d="M1445.92 199.372C1445.92 192.104 1439.95 186.119 1432.69 186.119H1400.25V147.642H1432.69C1439.95 147.642 1445.92 141.657 1445.92 134.389V128.403C1445.92 82.6586 1469.4 60 1515.07 60H1544.09V98.4769H1514.64C1497.14 98.4769 1488.18 108.31 1488.18 128.403V134.389C1488.18 141.657 1494.15 147.642 1501.41 147.642H1544.09V186.119H1501.41C1494.15 186.119 1488.18 192.104 1488.18 199.372V376.366H1445.92V199.372Z" fill="black"/>
<path d="M1642.02 381.496C1606.17 381.496 1572.88 358.41 1572.88 305.825V147.642H1615.13V297.702C1615.13 327.201 1632.2 342.591 1652.26 342.591C1674.03 342.591 1688.11 330.621 1703.05 313.092C1710.31 304.115 1712.87 293.854 1712.87 282.738V147.642H1755.12V376.366H1712.87V356.7C1712.87 351.569 1706.47 349.859 1702.63 353.707C1689.39 366.533 1671.04 381.496 1642.02 381.496Z" fill="black"/>
<path d="M1883.57 381.496C1844.73 381.496 1804.18 362.257 1793.51 315.658H1837.05C1843.45 333.186 1860.95 345.156 1881.86 345.156C1904.91 345.156 1918.99 331.476 1918.99 314.803C1918.99 298.557 1907.9 289.579 1890.4 284.449L1854.12 274.188C1822.54 265.21 1799.06 244.689 1799.06 209.632C1799.06 171.583 1834.49 142.512 1874.61 142.512C1906.62 142.512 1945.46 157.047 1955.7 207.922H1915.15C1909.6 190.394 1895.09 178.851 1874.61 178.851C1854.55 178.851 1840.03 191.249 1840.03 207.067C1840.03 220.32 1848.14 230.153 1867.35 235.711L1901.5 245.544C1933.93 254.95 1959.97 274.616 1959.97 312.237C1959.97 351.569 1925.82 381.496 1883.57 381.496Z" fill="black"/>
<path d="M2088.54 381.496C2027.08 381.496 1986.53 329.766 1986.53 261.79C1986.53 193.814 2029.64 142.512 2088.11 142.512C2151.71 142.512 2185 193.814 2185 252.384V275.471H2040.74C2034.76 275.471 2032.2 279.318 2033.48 289.151C2038.18 321.215 2063.79 343.446 2088.97 343.446C2107.75 343.446 2123.97 334.041 2134.64 315.658H2179.45C2163.23 355.845 2129.51 381.496 2088.54 381.496ZM2131.65 239.986C2138.48 239.986 2141.04 236.566 2139.33 225.878C2134.64 199.372 2115 180.561 2088.11 180.561C2062.51 180.561 2040.74 199.372 2033.91 226.306C2031.35 236.139 2034.76 239.986 2040.74 239.986H2131.65Z" fill="black"/>
<path fill-rule="evenodd" clip-rule="evenodd" d="M359.079 84.2466C365.503 83.3362 379.022 85.087 385.292 87.2026C404.576 93.7086 422.872 106.937 438.208 120.168C442.579 123.941 446.523 128.271 450.41 132.352C457.645 126.799 465.716 119.718 472.489 113.668C477.315 109.357 483.618 103.642 488.121 99.0054C490.921 102.304 497.262 108.06 500.568 111.362C504.067 114.859 509.435 120.579 513 123.666C510.569 125.998 508.304 128.472 505.787 130.85C494.484 141.525 482.662 151.636 470.364 161.15C472.023 165.698 474.357 170.215 476.165 175.306C488.5 210.616 486.503 249.357 470.606 283.212C476.267 286.785 483.705 292.423 489.039 296.459C496.753 302.298 504.924 308.548 512.035 315.076C510.012 317.403 508.078 319.805 506.033 322.117C500.472 328.408 494.246 334.921 488.939 341.393C485.183 337.752 479.881 333.677 475.772 330.464C467.74 324.087 459.469 318.023 450.976 312.279C436.679 328.061 412.928 347.245 393.167 355.765C386.827 358.554 380.122 360.428 373.256 361.338C339.83 365.696 311.551 346.138 286.417 326.856C282.542 330.307 276.921 334.48 272.705 337.569C255.3 350.32 235.996 361.389 213.989 362.814C212.206 363.012 209.413 363.024 207.608 362.977C199.648 362.745 191.774 361.255 184.279 358.561C176.388 355.721 171.367 352.769 164.344 348.531C148.355 338.884 136.02 328.931 123.183 315.395C119.917 317.602 115.835 320.964 112.732 323.447C103.014 331.275 93.6078 339.483 84.5345 348.052C77.3137 340.123 67.6879 330.638 60 322.931C65.6615 318.241 71.0487 312.561 76.8096 307.746C85.5044 300.479 93.9319 293.213 103.177 286.609C101.429 283.019 99.3646 278.672 97.9232 274.929C87.3819 247.554 86.1858 214.75 93.6572 186.4C95.8689 178.007 98.5731 171.744 102.016 163.971C88.4087 154.957 72.8836 142.405 60.6051 131.74C68.0816 123.372 76.8951 114.125 84.0095 105.626C95.9961 116.114 108.569 125.914 121.665 134.977L121.754 134.857C123.147 132.999 125.936 130.157 127.59 128.474C138.483 117.389 151.071 107.867 164.226 99.6304C168.713 96.8214 172.993 94.1468 177.814 91.9116C184.511 88.774 191.637 86.6501 198.959 85.6099C233.456 80.9418 260.555 101.213 286.225 120.701C289.699 117.618 296.143 112.724 299.864 109.989C318.628 96.1981 335.441 86.1615 359.079 84.2466ZM242.762 294.553C228.725 285.777 214.068 278.66 197.034 279.291C180.863 280.258 166.485 287.344 152.716 295.495C159.265 302.223 167.169 308.559 175.015 313.787C185.042 320.469 195.988 327.767 208.438 327.943C210.005 327.965 211.571 327.894 213.13 327.73C226.24 326.244 240.355 317.827 250.754 310.126C252.771 308.632 255.815 306.505 257.669 304.907C253.239 301.314 247.625 297.594 242.762 294.553ZM420.594 293.626C405.809 285.934 385.35 276.391 368.424 278.304C350.281 279.754 333.837 290.182 319.386 300.596C317.817 301.728 316.304 302.913 314.895 304.243C324.468 312.176 340.962 322.425 352.959 325.507C357.555 326.726 362.328 327.156 367.07 326.777C370.3 326.379 374.505 325.58 377.476 324.262C391.934 317.849 409.645 304.739 420.594 293.626ZM286.282 165.998C265.016 182.772 244.547 197.785 217.207 203.138C186.258 209.198 158.637 197.403 132.038 182.905C121.918 205.117 121.437 237.748 129.985 260.562C130.759 262.644 131.6 264.7 132.506 266.727C159.254 250.207 189.1 238.734 220.911 246.816C244.296 252.757 265.222 266.317 284.244 280.833C285.188 281.553 285.557 282.214 286.627 281.704C312.782 259.853 345.994 239.84 381.145 243.45C401.885 245.58 422.642 254.776 440.709 264.754C442.732 259.638 444.587 254.861 445.872 249.475C451.116 227.523 449.836 202.719 441.135 181.844C433.936 185.979 426.119 190.617 418.513 194.014C395.645 204.228 373.951 208.02 349.37 201.249C330.482 196.045 315.207 186.633 299.401 175.509C297.788 174.375 287.24 165.949 286.282 165.998ZM258.188 143.4C243.133 131.988 225.079 118.786 205.377 120.144C201.646 120.589 196.763 121.726 193.414 123.381C180.926 129.554 160.96 143.555 151.936 153.782C162.472 159.637 173.705 164.651 185.357 167.806C192.013 169.608 198.462 169.974 205.318 169.44C223.588 167.789 244.102 155.006 258.188 143.4ZM362.861 118.963C353.097 119.491 344.315 123.004 336.043 128.06C328.566 132.632 321.277 137.397 314.524 142.995C330.978 155.76 352.021 169.295 373.34 169.569C391.322 169.36 406.13 161.662 421.25 152.614C414.408 143.782 400.898 135.409 391.574 129.208C382.868 123.418 373.59 118.703 362.861 118.963Z" fill="black"/>
<path d="M1447 516V434.545H1456.39V464.614H1457.19C1457.88 463.553 1458.83 462.201 1460.05 460.557C1461.3 458.886 1463.07 457.402 1465.38 456.102C1467.71 454.777 1470.87 454.114 1474.85 454.114C1479.99 454.114 1484.52 455.4 1488.45 457.972C1492.37 460.544 1495.43 464.189 1497.63 468.909C1499.84 473.629 1500.94 479.197 1500.94 485.614C1500.94 492.083 1499.84 497.691 1497.63 502.438C1495.43 507.157 1492.38 510.816 1488.49 513.415C1484.59 515.987 1480.1 517.273 1475 517.273C1471.08 517.273 1467.94 516.623 1465.58 515.324C1463.22 513.998 1461.4 512.5 1460.13 510.83C1458.86 509.133 1457.88 507.727 1457.19 506.614H1456.07V516H1447ZM1456.23 485.455C1456.23 490.068 1456.91 494.138 1458.26 497.665C1459.61 501.165 1461.59 503.909 1464.19 505.898C1466.78 507.86 1469.97 508.841 1473.73 508.841C1477.66 508.841 1480.93 507.807 1483.56 505.739C1486.21 503.644 1488.2 500.833 1489.52 497.307C1490.87 493.754 1491.55 489.803 1491.55 485.455C1491.55 481.159 1490.89 477.288 1489.56 473.841C1488.26 470.367 1486.29 467.623 1483.63 465.608C1481.01 463.566 1477.71 462.545 1473.73 462.545C1469.91 462.545 1466.71 463.513 1464.11 465.449C1461.51 467.358 1459.55 470.036 1458.22 473.483C1456.89 476.903 1456.23 480.894 1456.23 485.455ZM1519.15 538.909C1517.56 538.909 1516.14 538.777 1514.9 538.511C1513.65 538.273 1512.79 538.034 1512.31 537.795L1514.7 529.523C1516.98 530.106 1518.99 530.318 1520.74 530.159C1522.49 530 1524.04 529.218 1525.4 527.812C1526.78 526.434 1528.03 524.193 1529.17 521.091L1530.92 516.318L1508.33 454.909H1518.52L1535.38 503.591H1536.02L1552.88 454.909H1563.06L1537.13 524.909C1535.96 528.064 1534.52 530.676 1532.79 532.744C1531.07 534.839 1529.07 536.39 1526.79 537.398C1524.53 538.405 1521.99 538.909 1519.15 538.909ZM1673.77 460H1663.9C1663.32 457.163 1662.3 454.67 1660.84 452.523C1659.41 450.375 1657.66 448.572 1655.59 447.114C1653.55 445.629 1651.28 444.515 1648.79 443.773C1646.3 443.03 1643.7 442.659 1641 442.659C1636.06 442.659 1631.6 443.905 1627.59 446.398C1623.62 448.89 1620.45 452.562 1618.09 457.415C1615.75 462.267 1614.59 468.22 1614.59 475.273C1614.59 482.326 1615.75 488.278 1618.09 493.131C1620.45 497.983 1623.62 501.655 1627.59 504.148C1631.6 506.64 1636.06 507.886 1641 507.886C1643.7 507.886 1646.3 507.515 1648.79 506.773C1651.28 506.03 1653.55 504.93 1655.59 503.472C1657.66 501.987 1659.41 500.17 1660.84 498.023C1662.3 495.848 1663.32 493.356 1663.9 490.545H1673.77C1673.03 494.708 1671.67 498.434 1669.71 501.722C1667.75 505.009 1665.31 507.807 1662.39 510.114C1659.48 512.394 1656.2 514.131 1652.57 515.324C1648.96 516.517 1645.11 517.114 1641 517.114C1634.05 517.114 1627.87 515.417 1622.46 512.023C1617.05 508.629 1612.8 503.803 1609.69 497.545C1606.59 491.288 1605.04 483.864 1605.04 475.273C1605.04 466.682 1606.59 459.258 1609.69 453C1612.8 446.742 1617.05 441.917 1622.46 438.523C1627.87 435.129 1634.05 433.432 1641 433.432C1645.11 433.432 1648.96 434.028 1652.57 435.222C1656.2 436.415 1659.48 438.165 1662.39 440.472C1665.31 442.752 1667.75 445.536 1669.71 448.824C1671.67 452.085 1673.03 455.811 1673.77 460ZM1697.82 434.545V516H1688.43V434.545H1697.82ZM1715.01 516V454.909H1724.4V516H1715.01ZM1719.79 444.727C1717.96 444.727 1716.38 444.104 1715.05 442.858C1713.75 441.612 1713.1 440.114 1713.1 438.364C1713.1 436.614 1713.75 435.116 1715.05 433.869C1716.38 432.623 1717.96 432 1719.79 432C1721.62 432 1723.18 432.623 1724.48 433.869C1725.8 435.116 1726.47 436.614 1726.47 438.364C1726.47 440.114 1725.8 441.612 1724.48 442.858C1723.18 444.104 1721.62 444.727 1719.79 444.727ZM1766.41 517.273C1760.68 517.273 1755.75 515.92 1751.61 513.216C1747.48 510.511 1744.3 506.786 1742.07 502.04C1739.84 497.294 1738.73 491.871 1738.73 485.773C1738.73 479.568 1739.87 474.093 1742.15 469.347C1744.45 464.574 1747.66 460.848 1751.77 458.17C1755.91 455.466 1760.73 454.114 1766.25 454.114C1770.55 454.114 1774.42 454.909 1777.86 456.5C1781.31 458.091 1784.13 460.318 1786.34 463.182C1788.54 466.045 1789.9 469.386 1790.43 473.205H1781.05C1780.33 470.42 1778.74 467.955 1776.27 465.807C1773.83 463.633 1770.55 462.545 1766.41 462.545C1762.75 462.545 1759.54 463.5 1756.78 465.409C1754.05 467.292 1751.92 469.956 1750.38 473.403C1748.87 476.824 1748.11 480.841 1748.11 485.455C1748.11 490.174 1748.86 494.284 1750.34 497.784C1751.85 501.284 1753.97 504.002 1756.7 505.938C1759.46 507.873 1762.7 508.841 1766.41 508.841C1768.85 508.841 1771.06 508.417 1773.05 507.568C1775.04 506.72 1776.72 505.5 1778.1 503.909C1779.48 502.318 1780.46 500.409 1781.05 498.182H1790.43C1789.9 501.788 1788.59 505.036 1786.49 507.926C1784.43 510.79 1781.68 513.07 1778.26 514.767C1774.87 516.438 1770.92 517.273 1766.41 517.273ZM1812.9 493.727L1812.74 482.114H1814.65L1841.38 454.909H1852.99L1824.52 483.705H1823.72L1812.9 493.727ZM1804.15 516V434.545H1813.54V516H1804.15ZM1842.97 516L1819.11 485.773L1825.79 479.25L1854.9 516H1842.97ZM1866.35 516V434.545H1876.21V470.818H1919.64V434.545H1929.51V516H1919.64V479.568H1876.21V516H1866.35ZM1972.8 517.273C1967.28 517.273 1962.45 515.96 1958.28 513.335C1954.15 510.71 1950.91 507.038 1948.58 502.318C1946.27 497.598 1945.12 492.083 1945.12 485.773C1945.12 479.409 1946.27 473.854 1948.58 469.108C1950.91 464.362 1954.15 460.676 1958.28 458.051C1962.45 455.426 1967.28 454.114 1972.8 454.114C1978.31 454.114 1983.14 455.426 1987.28 458.051C1991.44 460.676 1994.67 464.362 1996.98 469.108C1999.31 473.854 2000.48 479.409 2000.48 485.773C2000.48 492.083 1999.31 497.598 1996.98 502.318C1994.67 507.038 1991.44 510.71 1987.28 513.335C1983.14 515.96 1978.31 517.273 1972.8 517.273ZM1972.8 508.841C1976.99 508.841 1980.44 507.767 1983.14 505.619C1985.85 503.472 1987.85 500.648 1989.15 497.148C1990.45 493.648 1991.1 489.856 1991.1 485.773C1991.1 481.689 1990.45 477.884 1989.15 474.358C1987.85 470.831 1985.85 467.981 1983.14 465.807C1980.44 463.633 1976.99 462.545 1972.8 462.545C1968.61 462.545 1965.16 463.633 1962.46 465.807C1959.75 467.981 1957.75 470.831 1956.45 474.358C1955.15 477.884 1954.5 481.689 1954.5 485.773C1954.5 489.856 1955.15 493.648 1956.45 497.148C1957.75 500.648 1959.75 503.472 1962.46 505.619C1965.16 507.767 1968.61 508.841 1972.8 508.841ZM2053.31 491.023V454.909H2062.7V516H2053.31V505.659H2052.67C2051.24 508.761 2049.01 511.4 2045.99 513.574C2042.97 515.722 2039.15 516.795 2034.54 516.795C2030.72 516.795 2027.32 515.96 2024.36 514.29C2021.39 512.593 2019.05 510.047 2017.36 506.653C2015.66 503.233 2014.81 498.924 2014.81 493.727V454.909H2024.2V493.091C2024.2 497.545 2025.44 501.098 2027.93 503.75C2030.45 506.402 2033.66 507.727 2037.56 507.727C2039.89 507.727 2042.27 507.131 2044.68 505.938C2047.12 504.744 2049.16 502.915 2050.8 500.449C2052.47 497.983 2053.31 494.841 2053.31 491.023ZM2123.16 468.591L2114.73 470.977C2114.2 469.572 2113.42 468.206 2112.38 466.881C2111.37 465.528 2110 464.415 2108.25 463.54C2106.5 462.665 2104.26 462.227 2101.52 462.227C2097.79 462.227 2094.67 463.089 2092.18 464.812C2089.71 466.509 2088.48 468.67 2088.48 471.295C2088.48 473.629 2089.33 475.472 2091.02 476.824C2092.72 478.176 2095.37 479.303 2098.98 480.205L2108.05 482.432C2113.51 483.758 2117.58 485.786 2120.26 488.517C2122.94 491.222 2124.27 494.708 2124.27 498.977C2124.27 502.477 2123.27 505.606 2121.25 508.364C2119.26 511.121 2116.48 513.295 2112.9 514.886C2109.32 516.477 2105.16 517.273 2100.41 517.273C2094.18 517.273 2089.02 515.92 2084.94 513.216C2080.86 510.511 2078.27 506.561 2077.18 501.364L2086.09 499.136C2086.94 502.424 2088.54 504.89 2090.9 506.534C2093.29 508.178 2096.41 509 2100.25 509C2104.63 509 2108.1 508.072 2110.67 506.216C2113.27 504.333 2114.57 502.08 2114.57 499.455C2114.57 497.333 2113.83 495.557 2112.34 494.125C2110.86 492.667 2108.58 491.58 2105.5 490.864L2095.32 488.477C2089.72 487.152 2085.62 485.097 2082.99 482.312C2080.39 479.502 2079.09 475.989 2079.09 471.773C2079.09 468.326 2080.06 465.277 2082 462.625C2083.96 459.973 2086.62 457.892 2089.99 456.381C2093.38 454.869 2097.23 454.114 2101.52 454.114C2107.57 454.114 2112.32 455.439 2115.76 458.091C2119.24 460.742 2121.7 464.242 2123.16 468.591ZM2164.02 517.273C2158.13 517.273 2153.05 515.973 2148.78 513.375C2144.54 510.75 2141.27 507.091 2138.96 502.398C2136.68 497.678 2135.54 492.189 2135.54 485.932C2135.54 479.674 2136.68 474.159 2138.96 469.386C2141.27 464.587 2144.48 460.848 2148.59 458.17C2152.72 455.466 2157.55 454.114 2163.06 454.114C2166.24 454.114 2169.39 454.644 2172.49 455.705C2175.59 456.765 2178.41 458.489 2180.96 460.875C2183.51 463.235 2185.53 466.364 2187.05 470.261C2188.56 474.159 2189.31 478.958 2189.31 484.659V488.636H2142.22V480.523H2179.77C2179.77 477.076 2179.08 474 2177.7 471.295C2176.35 468.591 2174.41 466.456 2171.89 464.892C2169.4 463.328 2166.46 462.545 2163.06 462.545C2159.32 462.545 2156.09 463.473 2153.36 465.33C2150.65 467.159 2148.57 469.545 2147.11 472.489C2145.66 475.432 2144.93 478.587 2144.93 481.955V487.364C2144.93 491.977 2145.72 495.888 2147.31 499.097C2148.93 502.278 2151.17 504.705 2154.03 506.375C2156.9 508.019 2160.23 508.841 2164.02 508.841C2166.48 508.841 2168.71 508.496 2170.7 507.807C2172.71 507.091 2174.45 506.03 2175.91 504.625C2177.37 503.193 2178.49 501.417 2179.29 499.295L2188.36 501.841C2187.4 504.917 2185.8 507.621 2183.55 509.955C2181.29 512.261 2178.51 514.064 2175.19 515.364C2171.88 516.636 2168.15 517.273 2164.02 517.273Z" fill="black"/>
</svg>
